<svg xmlns="http://www.w3.org/2000/svg">
<defs>
<font id="Doyle-Regular" horiz-adv-x="721" >
  <font-face 
    font-family="Doyle"
    font-weight="400"
    font-stretch="normal"
    units-per-em="1000"
    panose-1="2 15 5 4 4 2 6 6 2 3"
    ascent="800"
    descent="-200"
    x-height="550"
    cap-height="718"
    bbox="-171.778 -345 1259 1011"
    underline-thickness="50"
    underline-position="-150"
    unicode-range="U+000A-FB04"
  />
<missing-glyph horiz-adv-x="770" 
d="M234 429q-1 -12 -11 -19t-27 -7q-19 0 -30 11.5t-11 31.5q0 23 18 38.5t47 15.5q26 0 41.5 -8t15.5 -22q0 -8 -5.5 -12.5t-14.5 -4.5q-5 0 -8.5 -1t-7.5 -3q-3 -2 -4.5 -6t-2.5 -14zM92 181q-7 -11 -12.5 -14.5t-12.5 -3.5q-10 0 -15.5 6t-5.5 17q0 9 8 21.5t33 38.5
q23 25 38.5 35.5t27.5 10.5q11 0 18 -6.5t7 -16.5q0 -7 -4 -12.5t-16 -11.5q-11 -6 -14 -9.5t-3 -8.5q0 -3 2 -6t5 -5q28 -20 90 -34.5t132 -14.5q67 0 127.5 20t115.5 62q10 8 15 14t5 10t-2.5 6.5t-12.5 5.5q-12 5 -16 9.5t-4 11.5q0 11 7.5 18t19.5 7q7 0 14 -2.5
t16 -7.5q5 -2 14.5 -8t13.5 -9q29 -17 36 -25t7 -17q0 -10 -6.5 -16t-18.5 -6q-5 0 -9 1.5t-10 5.5q-4 3 -6.5 4t-5.5 1q-4 0 -9.5 -3t-25.5 -21t-38 -31t-37 -23q-11 -5 -14.5 -8.5t-6.5 -7.5q-27 -39 -70.5 -63t-88.5 -24q-50 0 -90.5 16t-66.5 47q-5 6 -11.5 11t-12.5 8
q-13 6 -33.5 16.5t-38.5 20.5q-5 3 -8.5 4t-7.5 1q-5 0 -9 -2.5t-10 -11.5zM554 458q-1 -14 -11 -21.5t-28 -7.5t-29 12t-11 31q0 25 17.5 40t46.5 15q25 0 41 -8t16 -20q0 -9 -5.5 -14.5t-15.5 -5.5q-6 0 -9.5 -0.5t-4.5 -1.5q-3 -3 -4.5 -7.5t-2.5 -11.5zM492 581
q-10 -7 -15 -9t-9 -2q-10 0 -15 5.5t-5 16.5q0 22 25 36.5t57 14.5q34 0 53 -9.5t19 -25.5q0 -10 -5 -15t-17 -5q-4 0 -8.5 1t-13.5 4q-10 2 -14.5 3t-8.5 1q-10 0 -19.5 -3.5t-23.5 -12.5zM173 563q-9 -7 -14 -9t-9 -2q-10 0 -15 5.5t-5 16.5q0 22 25 37t56 15
q32 0 52.5 -10.5t20.5 -25.5q0 -11 -5 -16t-15 -5q-4 0 -9 1t-15 4q-10 4 -15 5t-10 1q-10 0 -19 -3.5t-23 -13.5zM408 331q4 -10 5.5 -14.5t1.5 -8.5q0 -12 -7.5 -19.5t-19.5 -7.5q-19 0 -29 24t-10 68q0 39 7 56t24 17q10 0 15.5 -6t5.5 -16q0 -3 -0.5 -7l-1.5 -12
q-2 -11 -2.5 -17.5t-0.5 -12.5q0 -10 2.5 -19.5t9.5 -24.5z" />
    <glyph glyph-name="uniFB00" unicode="ff" horiz-adv-x="861" 
d="M95 1q-16 -1 -22.5 -1h-10.5q-16 0 -26 11t-10 29q0 16 10 27t26 11h8h12q7 -1 11 -1h8q14 0 20 5t7 18q2 21 2.5 60t0.5 98v127t-1 57q-1 13 -6.5 18.5t-18.5 5.5h-6.5h-10.5q-8 -1 -12 -1h-8q-21 0 -32 11t-11 31t12.5 31.5t34.5 11.5h9.5t14.5 -1h13h7q6 0 9 2.5
t3 8.5q0 3 -0.5 7t-3.5 13q-5 16 -6.5 27t-1.5 24q0 69 46 111t124 42q60 0 97 -24t37 -61q0 -23 -14.5 -37.5t-36.5 -14.5q-13 0 -24 4t-20 12q-19 17 -29.5 21.5t-23.5 4.5q-28 0 -45 -18.5t-17 -50.5q0 -36 17 -54t51 -18h21.5t26.5 1q12 1 18.5 1h12.5q22 0 33.5 -11
t10.5 -31q0 -20 -12 -32t-33 -12h-17.5t-26.5 1q-16 1 -23.5 1h-13.5q-15 0 -20.5 -5t-6.5 -19q-1 -30 -1.5 -83t-0.5 -99q0 -58 0.5 -97t2.5 -63q1 -13 6.5 -18t17.5 -5h16.5t23.5 1h21h13q16 0 26 -10.5t10 -26.5q0 -18 -10 -29.5t-27 -11.5h-26.5t-45.5 1q-37 1 -57 1
h-37t-35.5 -0.5t-49.5 -0.5zM525 1q-16 -1 -22.5 -1h-10.5q-16 0 -26 11.5t-10 28.5q0 16 10 27t26 11h8.5h11.5q7 -1 11.5 -1h8.5q14 0 19.5 5t6.5 18q2 21 2.5 60t0.5 98v127t-1 57q-1 13 -6.5 18.5t-18.5 5.5h-6.5h-10.5q-8 -1 -12 -1h-8q-20 0 -31 11t-11 31q0 21 12 32
t34 11h9.5t14.5 -1h13h7q7 0 9.5 2.5t2.5 8.5q0 3 -0.5 7t-3.5 13q-5 16 -6.5 27t-1.5 24q0 69 46.5 111t124.5 42q60 0 97 -24t37 -61q0 -23 -14.5 -37.5t-36.5 -14.5q-14 0 -24 3.5t-21 12.5q-22 19 -32 22.5t-22 3.5q-28 0 -44.5 -19t-16.5 -50q0 -36 17 -54t51 -18h21.5
t26.5 1q13 1 19.5 1h12.5q22 0 33 -11t11 -31t-12 -32t-33 -12h-18t-27 1q-15 1 -22.5 1h-13.5q-15 0 -21 -5.5t-6 -18.5q-1 -36 -1.5 -86t-0.5 -96q0 -58 0.5 -97t2.5 -63q1 -13 6 -18t17 -5h16.5t23.5 1h21h13q16 0 26.5 -10.5t10.5 -26.5q0 -18 -10.5 -29.5t-26.5 -11.5
h-27t-47 1q-37 1 -56.5 1h-36.5t-35.5 -0.5t-49.5 -0.5z" />
    <glyph glyph-name="uniFB01" unicode="fi" horiz-adv-x="796" 
d="M97 1q-17 -1 -23.5 -1h-10.5q-17 0 -27 11t-10 29q0 16 10 27t26 11h8h12q7 -1 11 -1h8q14 0 20 5t7 18q2 21 2.5 60t0.5 98v127t-1 57q-1 13 -6.5 18.5t-18.5 5.5h-6.5h-10.5q-8 -1 -12 -1h-8q-20 0 -31.5 11t-11.5 31t12.5 31.5t34.5 11.5h9.5t14.5 -1h13h7q6 0 9 2.5
t3 8.5q0 3 -0.5 7t-3.5 13q-5 16 -6.5 27t-1.5 24q0 69 46.5 111t122.5 42q59 0 96 -24t37 -61q0 -23 -14 -37.5t-36 -14.5q-15 0 -25 3.5t-20 12.5q-23 20 -32 23t-20 3q-28 0 -44.5 -19t-16.5 -50q0 -36 17 -54t50 -18h21t27 1q12 1 19 1h14q22 0 33 -11t11 -31
q-1 -21 -12.5 -32.5t-32.5 -11.5h-18.5t-26.5 1q-16 1 -23.5 1h-13.5q-15 0 -20.5 -5t-6.5 -19q-1 -30 -1.5 -83t-0.5 -99q0 -58 0.5 -97t2.5 -63q1 -13 6.5 -18t17.5 -5h16t23 1h21h14q16 0 26 -10.5t10 -26.5q0 -18 -10.5 -29.5t-27.5 -11.5h-27t-46 1q-37 1 -56.5 1
h-36.5q-16 0 -34 -0.5t-48 -0.5zM526 1q-17 -1 -23.5 -1h-10.5q-17 0 -27 11t-10 29q0 17 10 27t27 10h8h10q7 -1 11.5 -1h8.5q15 0 21 5.5t7 17.5q1 18 1 53v138q0 42 -0.5 78t-1.5 58q-1 17 -7.5 24t-20.5 7q-4 0 -8 -0.5t-12 -0.5q-9 -1 -13 -1.5t-8 -0.5q-17 0 -27.5 10
t-10.5 26t9.5 25.5t29.5 14.5q6 1 40.5 9.5t53.5 12.5q17 3 28.5 4.5t25.5 1.5q19 0 29 -10t10 -29v-36v-67q-1 -49 -1 -72v-41v-147.5t1 -55.5q1 -13 6.5 -18.5t17.5 -5.5h8.5t12.5 1h11.5h7.5q17 0 26.5 -10t9.5 -27q0 -18 -10 -29t-26 -11h-22t-36 1q-30 1 -45 1h-29
q-16 0 -34 -0.5t-48 -0.5zM682 715q0 -36 -33.5 -61.5t-79.5 -25.5q-31 0 -49.5 17t-18.5 44q0 36 32 62t74 26q36 0 55 -15.5t20 -46.5z" />
    <glyph glyph-name="uniFB02" unicode="fl" horiz-adv-x="788" 
d="M97 1q-17 -1 -23.5 -1h-10.5q-17 0 -27 11t-10 29q0 16 10 27t26 11h8h12q7 -1 11 -1h8q14 0 20 5t7 18q2 23 2.5 64.5t0.5 104.5v119.5t-1 53.5q-1 13 -6.5 18.5t-18.5 5.5h-6.5h-10.5q-8 -1 -12 -1h-8q-20 0 -31.5 11.5t-11.5 30.5q0 20 12.5 31.5t34.5 11.5h9.5
t14.5 -1h13h7q7 0 9.5 2t2.5 7q0 2 -0.5 5t-2.5 10q-5 16 -6.5 28t-1.5 26q0 64 44.5 104t117.5 40q54 0 88.5 -22.5t34.5 -59.5q0 -20 -11.5 -33t-31.5 -13q-13 0 -23 3.5t-19 12.5q-13 11 -24 15t-25 4q-27 0 -43.5 -18t-16.5 -48q0 -33 16 -48.5t51 -15.5h21.5t27.5 1
q14 1 20.5 1h13.5q22 0 33 -11t11 -31q-1 -21 -12.5 -32.5t-32.5 -11.5h-18.5t-26.5 1q-16 1 -23.5 1h-13.5q-15 0 -20.5 -5t-6.5 -19q-1 -28 -1.5 -77.5t-0.5 -93.5q0 -62 0.5 -103t2.5 -68q1 -13 6.5 -18t17.5 -5h14.5t21.5 1h18.5h12.5q16 0 26 -10.5t10 -26.5
q0 -18 -10.5 -29.5t-27.5 -11.5h-25.5t-45.5 1q-36 1 -55 1h-35q-15 0 -32.5 -0.5t-47.5 -0.5zM601 2q-29 0 -62 -0.5t-59 -1.5q-18 -1 -28 10.5t-10 30.5q0 16 10 26.5t27 10.5h10.5t14.5 -1h13h9q11 0 15.5 4.5t5.5 15.5v28.5v58.5q1 73 1 117.5v86.5q0 98 -0.5 179
t-1.5 113q0 11 -4.5 16t-15.5 5h-5t-9 -1q-9 -1 -14.5 -1.5t-10.5 -0.5q-17 0 -27 10t-10 25q0 17 9 26.5t29 12.5q35 6 56.5 10t29.5 5q4 0 23.5 3t29.5 3q19 0 29 -11t10 -33q-1 -71 -1.5 -170t-0.5 -189v-209t1 -84q1 -11 5.5 -15.5t14.5 -4.5h9t14 1h12.5h8.5
q17 0 27 -10.5t10 -27.5q0 -18 -10.5 -29.5t-27.5 -10.5q-42 1 -71.5 1.5t-55.5 0.5z" />
    <glyph glyph-name="uniFB03" unicode="ffi" horiz-adv-x="1227" 
d="M95 0q-16 -1 -22.5 -1h-10.5q-16 0 -26 11.5t-10 29.5q0 16 10 26.5t26 10.5h8h12q7 -1 11 -1h8q14 0 20 5.5t7 18.5q2 20 2.5 59.5t0.5 98.5v126.5t-1 57.5q-1 13 -6.5 18.5t-18.5 5.5h-6.5h-10.5q-8 -1 -12 -1h-8q-21 0 -32 10.5t-11 30.5t12.5 31.5t34.5 11.5h9.5
t14.5 -1h13h7q6 0 9 2.5t3 8.5q0 4 -1 8t-3 13q-5 15 -6.5 26t-1.5 24q0 70 46 111.5t124 41.5q59 0 96 -24t37 -61q0 -23 -14 -37.5t-36 -14.5q-14 0 -24.5 4t-20.5 13q-21 18 -31 21.5t-22 3.5q-29 0 -45.5 -18.5t-16.5 -49.5q0 -36 17 -54t51 -18h21.5t26.5 1h19.5h12.5
q22 0 33.5 -11t10.5 -31q0 -20 -12 -31.5t-33 -11.5h-17.5t-26.5 1h-23.5h-13.5q-15 0 -20.5 -5t-6.5 -18q-1 -30 -1.5 -83t-0.5 -99q0 -59 0.5 -98t2.5 -63q1 -13 6.5 -18t17.5 -5h16.5t23.5 1h21h13q16 0 26 -10.5t10 -26.5q0 -18 -10 -29.5t-27 -11.5h-26.5t-45.5 1
q-37 1 -57 1h-37t-35.5 -0.5t-49.5 -0.5zM526 1q-16 -1 -22 -1h-10q-17 0 -27.5 11t-10.5 29q0 16 10 27t26 11h8.5h11.5q7 -1 11.5 -1h8.5q14 0 19.5 5t6.5 18q2 21 2.5 60t0.5 98v127t-1 57q-1 13 -6.5 18.5t-18.5 5.5h-6.5h-10.5q-8 -1 -12 -1h-8q-20 0 -31 11t-11 31
t12 31.5t34 11.5h9.5t14.5 -1h13h7q7 0 9.5 2.5t2.5 8.5q0 3 -0.5 7t-3.5 13q-5 16 -6.5 27t-1.5 24q0 69 46.5 111t123.5 42q59 0 96 -24t37 -61q0 -23 -14.5 -37.5t-36.5 -14.5q-14 0 -24 3.5t-20 12.5q-19 18 -29.5 22t-23.5 4q-28 0 -44.5 -19t-16.5 -50q0 -36 17 -54
t50 -18h21.5t26.5 1q13 1 19.5 1h13.5q22 0 33 -11t11 -31q-1 -21 -12.5 -32.5t-32.5 -11.5h-18t-27 1q-15 1 -22.5 1h-14.5q-15 0 -20.5 -5t-5.5 -19q-1 -30 -1.5 -83t-0.5 -99q0 -58 0.5 -97t2.5 -63q1 -13 6 -18t18 -5h16t23 1h20.5h13.5q16 0 26.5 -10.5t10.5 -26.5
q0 -18 -10.5 -29.5t-27.5 -11.5h-27t-47 1q-37 1 -56.5 1h-36.5q-16 0 -34 -0.5t-49 -0.5zM956 1q-17 -1 -23.5 -1h-10.5q-17 0 -27 11t-10 29q0 17 10.5 27t26.5 10h8h12q7 -1 11 -1h8q14 0 20 5t7 18q1 17 1 52.5v138.5q0 41 -0.5 77t-1.5 59q-1 17 -7.5 24t-20.5 7
q-4 0 -8 -0.5t-12 -0.5q-8 -1 -12.5 -1.5t-8.5 -0.5q-17 0 -27.5 10t-10.5 26q0 15 9.5 24.5t30.5 15.5q29 8 51.5 13t41.5 9q17 3 28.5 4.5t25.5 1.5q19 0 29 -10t10 -29v-108v-108v-147.5t1 -55.5q0 -13 5.5 -18.5t18.5 -5.5h8.5t12.5 1h11h8q16 0 26 -10t10 -27
q0 -18 -10 -29t-27 -11h-20.5t-36.5 1q-30 1 -45.5 1h-29.5q-15 0 -33 -0.5t-49 -0.5zM1112 715q1 -36 -32.5 -61.5t-79.5 -25.5q-31 0 -49.5 17t-18.5 44q0 36 32 62t74 26q37 0 55.5 -15.5t18.5 -46.5z" />
    <glyph glyph-name="uniFB04" unicode="ffl" horiz-adv-x="1219" 
d="M95 1q-16 -1 -22.5 -1h-10.5q-16 0 -26 11t-10 29q0 16 10 27t26 11h8h12q7 -1 11 -1h8q14 0 20 5t7 18q2 21 2.5 60t0.5 98v127t-1 57q-1 13 -6.5 18.5t-18.5 5.5h-6.5h-10.5q-8 -1 -12 -1h-8q-21 0 -32 11t-11 31t12.5 31.5t34.5 11.5h9.5t14.5 -1h13h7q6 0 9 2.5
t3 8.5q0 3 -0.5 7t-3.5 12q-5 16 -6.5 27t-1.5 23q0 68 46 108.5t122 40.5q58 0 94.5 -23.5t36.5 -59.5q0 -21 -14.5 -35.5t-35.5 -14.5q-13 0 -23 3.5t-20 12.5q-18 16 -28.5 20.5t-23.5 4.5q-28 0 -44.5 -18t-16.5 -49q0 -35 17.5 -53t51.5 -18h21.5t26.5 1q12 1 18.5 1
h12.5q22 0 33.5 -11t10.5 -31q0 -20 -12 -32t-33 -12h-17.5t-26.5 1q-16 1 -23.5 1h-13.5q-15 0 -20.5 -5t-6.5 -19q-1 -30 -1.5 -83t-0.5 -99q0 -58 0.5 -97t2.5 -63q1 -13 6.5 -18t17.5 -5h16.5t23.5 1h21h13q16 0 26 -10.5t10 -26.5q0 -18 -10 -29.5t-27 -11.5h-26.5
t-45.5 1q-37 1 -57 1h-37t-35.5 -0.5t-49.5 -0.5zM526 1q-16 -1 -22 -1h-10q-17 0 -27.5 11t-10.5 29q0 16 10 27t26 11h8.5h11.5q7 -1 11.5 -1h8.5q14 0 19.5 5t6.5 18q2 23 2.5 64.5t0.5 104.5v119.5t-1 53.5q-1 13 -6.5 18.5t-18.5 5.5h-6.5h-10.5q-8 -1 -12 -1h-8
q-20 0 -31 11t-11 31q0 21 12 32t34 11h9.5t14.5 -1h13h7q7 0 9.5 2t2.5 7q0 2 -0.5 5t-2.5 10q-5 16 -6.5 28t-1.5 26q0 64 45 104t117 40q54 0 88.5 -22.5t34.5 -59.5q0 -22 -12 -34.5t-34 -12.5q-12 0 -21.5 3.5t-19.5 12.5q-13 12 -23 16t-23 4q-28 0 -44.5 -18
t-16.5 -48q0 -33 16 -48.5t51 -15.5h22t28 1q13 1 20 1h13q22 0 33 -11t11 -31t-12 -32t-33 -12h-18t-27 1q-15 1 -22.5 1h-14.5q-15 0 -20.5 -5t-6.5 -19v-20v-41q-1 -44 -1 -67.5v-42.5q0 -50 0.5 -90.5t1.5 -80.5q1 -13 6.5 -18t17.5 -5h14.5t21.5 1h18.5h12.5
q16 0 26.5 -10.5t10.5 -26.5q0 -18 -10.5 -29.5t-27.5 -11.5h-26.5t-44.5 1q-36 1 -55 1h-35t-33.5 -0.5t-48.5 -0.5zM1031 2q-29 0 -62 -0.5t-59 -1.5q-17 -1 -27.5 10.5t-10.5 30.5q0 16 10.5 26.5t26.5 10.5h10t15 -1h13.5h9.5q11 0 15.5 4.5t4.5 15.5q1 52 1.5 129
t0.5 162q0 98 -0.5 179t-1.5 113q-1 11 -5.5 16t-15.5 5h-5t-9 -1q-9 -1 -14.5 -1.5t-10.5 -0.5q-17 0 -27 10t-10 25q0 17 9.5 26.5t28.5 12.5q50 9 62.5 11t24.5 4q4 0 23.5 3t29.5 3q19 0 29 -11.5t9 -32.5q-1 -45 -1 -117v-242v-209t1 -84q0 -10 4.5 -15t15.5 -5h8.5
h12.5q9 1 14 1h9q17 0 27 -10.5t10 -27.5q0 -18 -10.5 -29.5t-27.5 -10.5q-44 1 -73 1.5t-55 0.5z" />
    <glyph glyph-name="f_b" unicode="fb" horiz-adv-x="1116" 
d="M97 1q-17 -1 -23.5 -1h-10.5q-17 0 -27 11t-10 29q0 16 10 27t26 11h8h12q7 -1 11 -1h8q14 0 20 5t7 18q2 21 2.5 60t0.5 98v127t-1 57q-1 13 -6.5 18.5t-18.5 5.5h-6.5h-10.5q-8 -1 -12 -1h-8q-20 0 -31.5 11t-11.5 31t12.5 31.5t34.5 11.5h9.5t14.5 -1h13h7q6 0 9 2.5
t3 8.5q0 3 -0.5 7t-3.5 13q-5 16 -6.5 27t-1.5 24q0 69 46.5 111t122.5 42q59 0 96 -24t37 -61q0 -23 -14 -37.5t-36 -14.5q-15 0 -26 4t-19 12q-17 17 -27.5 21.5t-24.5 4.5q-28 0 -44.5 -19t-16.5 -50q0 -36 17 -54t50 -18h21.5t26.5 1q13 1 19.5 1h13.5q22 0 33 -11
t11 -31q-1 -21 -12.5 -32.5t-32.5 -11.5h-18.5t-26.5 1q-16 1 -23.5 1h-13.5q-15 0 -20.5 -5t-6.5 -19q-1 -30 -1.5 -83t-0.5 -99q0 -58 0.5 -97t2.5 -63q1 -13 6.5 -18t17.5 -5h16t23 1h21h14q16 0 26 -10.5t10 -26.5q0 -18 -10.5 -29.5t-27.5 -11.5h-27t-46 1
q-37 1 -56.5 1h-36.5q-16 0 -34 -0.5t-48 -0.5zM1075 293q1 -140 -64 -221.5t-178 -81.5q-52 0 -94 17.5t-68 49.5q-4 4 -6 5t-4 1q-4 0 -6 -1.5t-5 -5.5l-6.5 -11.5t-10.5 -19.5q-8 -15 -20 -22t-28 -7q-20 0 -31.5 12t-11.5 33q0 8 1.5 16.5t7.5 23.5q6 17 8 28t2 22v82
v82q0 37 -0.5 78t-1.5 114q0 95 -0.5 130t-1.5 55q-1 13 -7 19t-18 6h-6.5t-10.5 -1q-10 -1 -15.5 -1.5t-11.5 -0.5q-17 0 -27.5 10t-10.5 26t9.5 25t29.5 13q26 5 50 9.5t49 9.5q28 5 36 6t15 1q18 0 27.5 -11t8.5 -31v-26v-54q-1 -39 -1 -56v-29v-29.5t1 -41.5v-18.5v-8.5
q0 -6 2.5 -8.5t6.5 -2.5q2 0 4 1t5 4q30 38 71 57.5t91 19.5q102 0 160.5 -72t59.5 -195zM676 209q2 -64 38.5 -101t94.5 -37q70 0 108 48.5t39 138.5q1 101 -38 155.5t-110 54.5q-57 0 -92 -36t-39 -99q-1 -29 -1.5 -58.5t0.5 -65.5z" />
    <glyph glyph-name="f_h" unicode="fh" horiz-adv-x="1147" 
d="M97 1q-17 -1 -23.5 -1h-10.5q-17 0 -27 11t-10 29q0 16 10 27t26 11h8h12q7 -1 11 -1h8q14 0 20 5t7 18q2 21 2.5 60t0.5 98v127t-1 57q-1 13 -6.5 18.5t-18.5 5.5h-6.5h-10.5q-8 -1 -12 -1h-8q-20 0 -31.5 11t-11.5 31t12.5 31.5t34.5 11.5h9.5t14.5 -1h13h7q6 0 9 2.5
t3 8.5q0 3 -0.5 7t-3.5 13q-5 16 -6.5 27t-1.5 24q0 69 46.5 111t122.5 42q59 0 96 -24t37 -61q0 -23 -14 -37.5t-36 -14.5q-14 0 -24 3.5t-20 12.5q-19 18 -29.5 22t-23.5 4q-28 0 -44.5 -19t-16.5 -50q0 -36 17 -54t50 -18h21.5t26.5 1q13 1 19.5 1h13.5q22 0 33 -11
t11 -31q-1 -21 -12.5 -32.5t-32.5 -11.5h-18.5t-26.5 1q-16 1 -23.5 1h-13.5q-15 0 -20.5 -5t-6.5 -19q-1 -30 -1.5 -83t-0.5 -99q0 -58 0.5 -97t2.5 -63q1 -13 6.5 -18t17.5 -5h16t23 1h21h14q16 0 26 -10.5t10 -26.5q0 -18 -10.5 -29.5t-27.5 -11.5h-27t-46 1
q-37 1 -56.5 1h-36.5q-16 0 -34 -0.5t-48 -0.5zM524 1q-12 -1 -17 -1h-9q-17 0 -27 11t-10 29q0 17 10 27t26 10h8.5t11.5 -1h11h8q15 0 21.5 5.5t6.5 17.5q1 27 1.5 70t0.5 173q0 81 -1 187t-2 148q-1 12 -7.5 18t-18.5 6h-6.5t-11.5 -1q-11 -1 -17 -1.5t-12 -0.5
q-17 0 -26.5 9.5t-9.5 25.5q0 17 9.5 26.5t29.5 12.5q7 1 15 2.5t23 3.5q22 3 33.5 5t21.5 4q19 3 31.5 4.5t22.5 1.5q19 0 28.5 -11t9.5 -33v-132v-132q0 -6 1.5 -8.5t5.5 -2.5q3 0 6.5 3t8.5 10q30 38 69 55.5t93 17.5q83 0 129.5 -51t47.5 -141v-52.5v-53.5v-65.5
t1 -99.5q1 -12 5 -16.5t15 -4.5h6.5t9.5 1h9h6q16 0 26 -10t10 -26q0 -18 -10 -30t-27 -11q-36 1 -63.5 1.5t-56.5 0.5q-15 0 -30.5 -0.5t-40.5 -0.5q-14 -1 -20.5 -1h-10.5q-16 0 -25.5 10.5t-9.5 28.5q0 17 9.5 27.5t25.5 10.5h8.5t11.5 -1h6.5h3.5q12 0 16.5 5t5.5 17
q2 83 2 111.5v50.5q-1 82 -7 116t-21 54q-14 20 -36 30t-52 10q-28 0 -50.5 -11t-39.5 -32q-19 -23 -27 -57.5t-8 -95.5v-123t1 -52q0 -12 4.5 -17.5t15.5 -5.5h6t9 1h9h6q16 0 26 -10t10 -25q0 -19 -10 -30.5t-27 -11.5h-21.5t-34.5 1q-28 1 -44 1h-32q-17 0 -33.5 -0.5
t-41.5 -0.5z" />
    <glyph glyph-name="f_hbar" unicode="f&#x127;" horiz-adv-x="1147" 
d="M97 1q-17 -1 -23.5 -1h-10.5q-17 0 -27 11t-10 29q0 16 10 27t26 11h8h12q7 -1 11 -1h8q14 0 20 5t7 18q2 21 2.5 60t0.5 98v127t-1 57q-1 13 -6.5 18.5t-18.5 5.5h-6.5h-10.5q-8 -1 -12 -1h-8q-20 0 -31.5 11t-11.5 31t12.5 31.5t34.5 11.5h9.5t14.5 -1h13h7q6 0 9 2.5
t3 8.5q0 3 -0.5 7t-3.5 13q-5 16 -6.5 27t-1.5 24q0 69 46.5 111t122.5 42q59 0 96 -24t37 -61q0 -23 -14 -37.5t-36 -14.5q-14 0 -24 3.5t-21 12.5q-23 20 -32 23t-20 3q-28 0 -44.5 -19t-16.5 -50q0 -36 17 -54t50 -18h21.5t26.5 1q13 1 19.5 1h13.5q22 0 33 -11t11 -31
q-1 -21 -12.5 -32.5t-32.5 -11.5h-18.5t-26.5 1q-16 1 -23.5 1h-13.5q-15 0 -20.5 -5t-6.5 -19q-1 -30 -1.5 -83t-0.5 -99q0 -58 0.5 -97t2.5 -63q1 -13 6.5 -18t17.5 -5h16t23 1h21h14q16 0 26 -10.5t10 -26.5q0 -18 -10.5 -29.5t-27.5 -11.5h-27t-46 1q-37 1 -56.5 1
h-36.5q-16 0 -34 -0.5t-48 -0.5zM524 0q-12 -1 -17 -1h-9q-17 0 -27 11t-10 30q0 16 10 26.5t26 10.5h8.5t11.5 -1h11h8q15 0 21.5 5.5t6.5 17.5q1 26 1.5 69.5t0.5 173.5q0 81 -1 187.5t-2 148.5q-1 12 -7.5 17.5t-19.5 5.5h-6t-10 -1q-10 -1 -16 -1.5t-12 -0.5
q-18 0 -28 9.5t-10 25.5q0 17 10 26.5t29 12.5q20 3 40 6.5t56 9.5q15 3 26 4t23 1q19 0 29 -11t11 -31v-25.5v-25.5q1 -10 5.5 -14.5t15.5 -4.5h11h23q18 1 26.5 1h13.5q20 0 31 -10.5t11 -30.5q0 -21 -11 -32t-31 -11h-14t-29 1h-22h-9q-11 0 -16 -6t-5 -19v-44.5v-44.5
q0 -6 1.5 -8.5t5.5 -2.5q3 0 6.5 3t8.5 10q30 38 69 55.5t93 17.5q83 0 129.5 -51t47.5 -141v-52.5v-53.5v-65.5t1 -99.5q1 -12 5 -16.5t15 -4.5h6.5t9.5 1h9h6q16 0 26 -10.5t10 -26.5q0 -18 -10 -29.5t-27 -11.5q-25 2 -54 2.5t-66 0.5q-15 0 -30.5 -0.5t-40.5 -1.5
q-14 -1 -20.5 -1h-10.5q-16 0 -25.5 11t-9.5 29q0 17 9.5 27.5t25.5 10.5h8.5t11.5 -1h6.5h3.5q12 0 16.5 4.5t5.5 17.5q2 94 2 118.5v43.5q-1 82 -7 116t-21 54q-14 20 -36 30t-52 10q-28 0 -50.5 -11t-39.5 -32q-19 -23 -27 -57.5t-8 -95.5v-121.5t1 -53.5
q0 -12 4.5 -17.5t15.5 -5.5h6t9 1h9h6q16 0 26 -10t10 -25q0 -19 -10 -31t-27 -12h-21.5t-34.5 1q-28 1 -44 1.5t-32 0.5q-17 0 -33.5 -0.5t-41.5 -1.5z" />
    <glyph glyph-name="f_iacute" unicode="f&#xed;" horiz-adv-x="796" 
d="M97 1q-17 -1 -23.5 -1h-10.5q-17 0 -27 11t-10 29q0 16 10 27t26 11h8h12q7 -1 11 -1h8q14 0 20 5t7 18q2 21 2.5 60t0.5 98v127t-1 57q-1 13 -6.5 18.5t-18.5 5.5h-6.5h-10.5q-8 -1 -12 -1h-8q-20 0 -31.5 11t-11.5 31t12.5 31.5t34.5 11.5h9.5t14.5 -1h13h7q6 0 9 2.5
t3 8.5q0 3 -0.5 7t-3.5 13q-5 16 -6.5 27t-1.5 24q0 69 46.5 111t122.5 42q59 0 96 -24t37 -61q0 -23 -14 -37.5t-36 -14.5q-13 0 -23.5 3.5t-21.5 12.5q-17 17 -27.5 21.5t-24.5 4.5q-28 0 -44.5 -19t-16.5 -50q0 -36 17 -54t50 -18h21t27 1q12 1 19 1h14q22 0 33 -11
t11 -31q-1 -21 -12.5 -32.5t-32.5 -11.5h-18.5t-26.5 1q-16 1 -23.5 1h-13.5q-15 0 -20.5 -5t-6.5 -19q-1 -30 -1.5 -83t-0.5 -99q0 -58 0.5 -97t2.5 -63q1 -13 6.5 -18t17.5 -5h16t23 1h21h14q16 0 26 -10.5t10 -26.5q0 -18 -10.5 -29.5t-27.5 -11.5h-27t-46 1
q-37 1 -56.5 1h-36.5q-16 0 -34 -0.5t-48 -0.5zM526 1q-17 -1 -23.5 -1h-10.5q-17 0 -27 11t-10 29q0 17 10 27t27 10h8h10q7 -1 11.5 -1h8.5q15 0 21 5.5t7 17.5q1 18 1 53v138q0 42 -0.5 78t-1.5 58q-1 17 -7.5 24t-20.5 7q-4 0 -8 -0.5t-12 -0.5q-9 -1 -13 -1.5t-8 -0.5
q-17 0 -27.5 10t-10.5 26q0 15 9.5 25t29.5 15q39 9 58.5 14t35.5 8t28 4.5t25 1.5q19 0 29.5 -10t10.5 -29v-36v-67q-1 -49 -1 -72v-41v-147.5t1 -55.5q1 -13 6.5 -18.5t17.5 -5.5h8.5t12.5 1h11.5h7.5q17 0 26.5 -10t9.5 -27q0 -18 -10 -29t-26 -11h-22t-36 1q-30 1 -45 1
h-29q-16 0 -34 -0.5t-48 -0.5zM747 764q-30 -26 -100.5 -73t-89.5 -54q-11 -4 -22 0t-17 14q-8 12 -6.5 24.5t12.5 23.5q31 33 89 85.5t76 62.5q14 9 30 5.5t27 -18.5q16 -19 16.5 -37.5t-15.5 -32.5z" />
    <glyph glyph-name="f_imacron" unicode="f&#x12b;" horiz-adv-x="796" 
d="M97 1q-17 -1 -23.5 -1h-10.5q-17 0 -27 11t-10 29q0 16 10 27t26 11h8h12q7 -1 11 -1h8q14 0 20 5t7 18q2 21 2.5 60t0.5 98v127t-1 57q-1 13 -6.5 18.5t-18.5 5.5h-6.5h-10.5q-8 -1 -12 -1h-8q-20 0 -31.5 11t-11.5 31t12.5 31.5t34.5 11.5h9.5t14.5 -1h13h7q6 0 9 2.5
t3 8.5q0 3 -0.5 7t-3.5 13q-5 16 -6.5 27t-1.5 24q0 68 45.5 110.5t120.5 42.5q57 0 93 -24t36 -61q0 -22 -14 -37t-35 -15q-13 0 -23 3.5t-19 12.5q-20 18 -29.5 22t-21.5 4q-27 0 -43.5 -19t-16.5 -50q0 -35 17.5 -53.5t50.5 -18.5h21t27 1q12 1 19 1h14q22 0 33 -11
t11 -31q-1 -21 -12.5 -32.5t-32.5 -11.5h-18.5t-26.5 1q-16 1 -23.5 1h-13.5q-15 0 -20.5 -5t-6.5 -19q-1 -30 -1.5 -83t-0.5 -99q0 -58 0.5 -97t2.5 -63q1 -13 6.5 -18t17.5 -5h16t23 1h21h14q16 0 26 -10.5t10 -26.5q0 -18 -10.5 -29.5t-27.5 -11.5h-27t-46 1
q-37 1 -56.5 1h-36.5q-16 0 -34 -0.5t-48 -0.5zM526 1q-17 -1 -23.5 -1h-10.5q-17 0 -27 11t-10 29q0 17 10 27t27 10h8h10q7 -1 11.5 -1h8.5q15 0 21 5.5t7 17.5q1 18 1 53v138q0 42 -0.5 78t-1.5 58q-1 17 -7.5 24t-20.5 7q-4 0 -8 -0.5t-12 -0.5q-9 -1 -13 -1.5t-8 -0.5
q-17 0 -27.5 10t-10.5 26t9.5 25.5t29.5 14.5q39 9 58.5 14t35.5 8t28 4.5t25 1.5q19 0 29.5 -10t10.5 -29v-36v-67q-1 -49 -1 -72v-41v-147.5t1 -55.5q1 -13 6.5 -18.5t17.5 -5.5h8.5t12.5 1h11.5h7.5q17 0 26.5 -10t9.5 -27q0 -18 -10 -29t-26 -11h-22t-36 1q-30 1 -45 1
h-29q-16 0 -34 -0.5t-48 -0.5zM664 632q-28 -1 -42.5 -1h-27.5h-68.5t-32.5 -1q-23 0 -34.5 12.5t-11.5 37.5q0 23 12.5 35.5t34.5 11.5h56.5h56.5h23.5t35.5 1h29.5h16.5q22 1 34 -11.5t12 -36.5q0 -22 -11.5 -35t-32.5 -13h-17.5h-32.5z" />
    <glyph glyph-name="f_j" unicode="fj" horiz-adv-x="758" 
d="M97 1q-17 -1 -23.5 -1h-10.5q-17 0 -27 11t-10 29q0 16 10 27t26 11h8h12q7 -1 11 -1h8q14 0 20 5t7 18q2 21 2.5 60t0.5 98v127t-1 57q-1 13 -6.5 18.5t-18.5 5.5h-6.5h-10.5q-8 -1 -12 -1h-8q-20 0 -31.5 11t-11.5 31t12.5 31.5t34.5 11.5h9.5t14.5 -1h13h7q6 0 9 2.5
t3 8.5q0 3 -0.5 7t-3.5 13q-5 16 -6.5 27t-1.5 24q0 69 46.5 111t122.5 42q59 0 96 -24t37 -61q0 -23 -14 -37.5t-36 -14.5q-13 0 -23.5 3.5t-21.5 12.5q-17 17 -27.5 21.5t-24.5 4.5q-28 0 -44.5 -19t-16.5 -50q0 -36 17 -54t50 -18h21t27 1q12 1 19 1h14q22 0 33 -11
t11 -31q-1 -21 -12.5 -32.5t-32.5 -11.5h-18.5t-26.5 1q-16 1 -23.5 1h-13.5q-15 0 -20.5 -5t-6.5 -19q-1 -30 -1.5 -83t-0.5 -99q0 -58 0.5 -97t2.5 -63q1 -13 6.5 -18t17.5 -5h16t23 1h21h14q16 0 26 -10.5t10 -26.5q0 -18 -10.5 -29.5t-27.5 -11.5h-27t-46 1
q-37 1 -56.5 1h-36.5q-16 0 -34 -0.5t-48 -0.5zM560 135q1 74 0.5 134t-1.5 152q-1 16 -8 23.5t-21 7.5q-4 0 -7.5 -0.5t-11.5 -0.5l-12 -1.5t-8 -0.5q-18 0 -28.5 9.5t-10.5 25.5t9.5 26t28.5 15q40 11 57.5 15t32.5 7q16 3 29.5 4.5t28.5 1.5q20 0 29.5 -9.5t9.5 -29.5
q0 -78 -1 -212.5t-1 -137.5q0 -56 1.5 -104.5t5.5 -112.5q3 -34 3.5 -49t0.5 -28q0 -67 -41.5 -103t-118.5 -36q-57 0 -90 20t-33 56q0 25 16.5 41.5t41.5 16.5q16 0 27.5 -5.5t25.5 -21.5q11 -13 18 -16.5t16 -3.5q16 0 24 9.5t8 29.5q0 12 -1.5 25t-5.5 38
q-8 57 -10.5 105t-2.5 110zM682 709q1 -36 -33 -61t-79 -25q-31 0 -50 17t-19 44q0 36 32 62t74 26q37 0 56 -16t19 -47z" />
    <glyph glyph-name="f_k" unicode="fk" horiz-adv-x="1129" 
d="M97 1q-17 -1 -23.5 -1h-10.5q-17 0 -27 11t-10 29q0 16 10 27t26 11h8h12q7 -1 11 -1h8q14 0 20 5t7 18q2 21 2.5 60t0.5 98v127t-1 57q-1 13 -6.5 18.5t-18.5 5.5h-6.5h-10.5q-8 -1 -12 -1h-8q-20 0 -31.5 11t-11.5 31t12.5 31.5t34.5 11.5h9.5t14.5 -1h13h7q6 0 9 2.5
t3 8.5q0 3 -0.5 7t-3.5 13q-5 16 -6.5 27t-1.5 24q0 69 46.5 111t122.5 42q59 0 96 -24t37 -61q0 -23 -14 -37.5t-36 -14.5q-14 0 -24 3.5t-20 12.5q-19 18 -29.5 22t-23.5 4q-28 0 -44.5 -19t-16.5 -50q0 -36 17 -54t50 -18h21.5t26.5 1q13 1 19.5 1h13.5q22 0 33 -11
t11 -31q-1 -21 -12.5 -32.5t-32.5 -11.5h-18.5t-26.5 1q-16 1 -23.5 1h-13.5q-15 0 -20.5 -5t-6.5 -19q-1 -30 -1.5 -83t-0.5 -99q0 -58 0.5 -97t2.5 -63q1 -13 6.5 -18t17.5 -5h16t23 1h21h14q16 0 26 -10.5t10 -26.5q0 -18 -10.5 -29.5t-27.5 -11.5h-27t-46 1
q-37 1 -56.5 1h-36.5q-16 0 -34 -0.5t-48 -0.5zM531 1q-17 -1 -23.5 -1h-10.5q-17 0 -27 11t-10 29q0 17 10 27t26 10h9.5h13.5q8 -1 12.5 -1h9.5q12 0 17 4.5t6 14.5q1 46 1.5 116t0.5 148q0 101 -0.5 202.5t-1.5 115.5q-1 12 -6.5 18t-16.5 6h-7t-12 -1q-11 -1 -17 -1.5
t-12 -0.5q-17 0 -26.5 9.5t-9.5 25.5q0 18 9.5 27.5t28.5 11.5q39 6 62.5 10t32.5 5q3 0 23 3t30 3q20 0 29.5 -11t8.5 -33q0 -56 -0.5 -160t-0.5 -270q0 -10 3 -14.5t9 -4.5q4 0 8.5 2.5t11.5 8.5q15 13 43.5 38t34.5 31t32 30.5t40 38.5q3 3 5 7t2 7q0 5 -4 8t-10 3h-20.5
h-20.5q-19 0 -29 10.5t-10 28.5q0 17 11 27t30 10h17h28q28 -1 45.5 -1h35.5h25t38 1h29.5h16.5q20 0 30.5 -10t10.5 -29q0 -17 -10.5 -27.5t-27.5 -10.5h-4.5t-8.5 1q-5 1 -7 1h-4q-9 0 -14.5 -2.5t-13.5 -9.5q-7 -6 -14.5 -13t-23.5 -21q-14 -13 -21.5 -19.5t-13.5 -12.5
q-7 -7 -15 -14.5t-23 -20.5q-10 -10 -14.5 -14t-8.5 -8q-6 -6 -8.5 -9.5t-2.5 -7.5q0 -3 1 -5.5t5 -7.5q16 -24 39.5 -58t114.5 -163q6 -7 10 -9.5t12 -2.5h6.5t10.5 1h9h5q16 0 26.5 -10t10.5 -26q0 -19 -10 -30t-28 -11h-17.5h-30.5q-29 1 -44.5 1h-29.5h-28t-33 -1h-22
h-14q-18 0 -27.5 10.5t-9.5 28.5q0 16 10 26.5t26 10.5h4h6q4 -1 6.5 -1h4.5q8 0 10 5.5t-3 12.5q-16 26 -40.5 62.5t-66.5 98.5q-4 4 -7.5 6t-6.5 2q-2 0 -5.5 -1.5t-5.5 -3.5q-18 -15 -34 -29t-22 -21q-6 -5 -8 -10.5t-2 -16.5v-54t1 -32q0 -10 3 -14.5t11 -4.5h6.5t8.5 1
h7h4q15 0 24.5 -10t9.5 -25q0 -19 -9.5 -30.5t-26.5 -11.5h-17.5t-28.5 1q-23 1 -36 1h-25q-15 0 -32.5 -0.5t-47.5 -0.5z" />
    <glyph glyph-name="f_lcaron" unicode="f&#x13e;" horiz-adv-x="790" 
d="M25 0zM97 1q-17 -1 -23.5 -1h-10.5q-17 0 -27 11t-10 29q0 16 10 27t26 11h8h12q7 -1 11 -1h8q14 0 20 5t7 18q2 23 2.5 64.5t0.5 104.5v119.5t-1 53.5q-1 13 -6.5 18.5t-18.5 5.5h-6.5h-10.5q-8 -1 -12 -1h-8q-20 0 -31.5 11.5t-11.5 30.5q0 20 12.5 31.5t34.5 11.5h9.5
t14.5 -1h13h7q7 0 9.5 2t2.5 7q0 2 -0.5 5t-2.5 10q-5 16 -6.5 28t-1.5 26q0 64 44.5 104t117.5 40q54 0 88.5 -22.5t34.5 -59.5q0 -20 -11.5 -33t-31.5 -13q-13 0 -23 3.5t-19 12.5q-13 11 -24 15t-25 4q-27 0 -43.5 -18t-16.5 -48q0 -33 16 -48.5t51 -15.5h21.5t27.5 1
q14 1 20.5 1h13.5q22 0 33 -11t11 -31q-1 -21 -12.5 -32.5t-32.5 -11.5h-18.5t-26.5 1q-16 1 -23.5 1h-13.5q-15 0 -20.5 -5t-6.5 -19q-1 -28 -1.5 -77.5t-0.5 -93.5q0 -62 0.5 -103t2.5 -68q1 -13 6.5 -18t17.5 -5h14.5t21.5 1h18.5h12.5q16 0 26 -10.5t10 -26.5
q0 -18 -10.5 -29.5t-27.5 -11.5h-25.5t-45.5 1q-36 1 -55 1h-35q-15 0 -32.5 -0.5t-47.5 -0.5zM601 2q-29 0 -62 -0.5t-59 -1.5q-18 -1 -28 10.5t-10 30.5q0 16 10 26.5t27 10.5h10.5t14.5 -1h13h9q11 0 15.5 4.5t5.5 15.5v28.5v58.5q1 73 1 117.5v86.5q0 98 -0.5 179
t-1.5 113q0 11 -4.5 16t-15.5 5h-5t-9 -1q-9 -1 -14.5 -1.5t-10.5 -0.5q-17 0 -27 10t-10 25q0 17 9 26.5t29 12.5q35 6 56.5 10t29.5 5q4 0 23.5 3t29.5 3q19 0 29 -11t10 -33q-1 -71 -1.5 -170t-0.5 -189v-209t1 -84q1 -11 5.5 -15.5t14.5 -4.5h9t14 1h12.5h8.5
q17 0 27 -10.5t10 -27.5q0 -18 -10.5 -29.5t-27.5 -10.5q-42 1 -71.5 1.5t-55.5 0.5zM800 805q28 0 42 -14.5t14 -43.5q0 -34 -11.5 -74t-29.5 -72q-22 -40 -35.5 -54.5t-29.5 -14.5q-17 0 -23.5 13.5t6.5 30.5q16 25 21 52.5t-4 76.5q-6 33 -5 47.5t7 25.5q8 13 20 20t28 7
z" />
    <glyph glyph-name=".notdef" horiz-adv-x="770" 
d="M234 429q-1 -12 -11 -19t-27 -7q-19 0 -30 11.5t-11 31.5q0 23 18 38.5t47 15.5q26 0 41.5 -8t15.5 -22q0 -8 -5.5 -12.5t-14.5 -4.5q-5 0 -8.5 -1t-7.5 -3q-3 -2 -4.5 -6t-2.5 -14zM92 181q-7 -11 -12.5 -14.5t-12.5 -3.5q-10 0 -15.5 6t-5.5 17q0 9 8 21.5t33 38.5
q23 25 38.5 35.5t27.5 10.5q11 0 18 -6.5t7 -16.5q0 -7 -4 -12.5t-16 -11.5q-11 -6 -14 -9.5t-3 -8.5q0 -3 2 -6t5 -5q28 -20 90 -34.5t132 -14.5q67 0 127.5 20t115.5 62q10 8 15 14t5 10t-2.5 6.5t-12.5 5.5q-12 5 -16 9.5t-4 11.5q0 11 7.5 18t19.5 7q7 0 14 -2.5
t16 -7.5q5 -2 14.5 -8t13.5 -9q29 -17 36 -25t7 -17q0 -10 -6.5 -16t-18.5 -6q-5 0 -9 1.5t-10 5.5q-4 3 -6.5 4t-5.5 1q-4 0 -9.5 -3t-25.5 -21t-38 -31t-37 -23q-11 -5 -14.5 -8.5t-6.5 -7.5q-27 -39 -70.5 -63t-88.5 -24q-50 0 -90.5 16t-66.5 47q-5 6 -11.5 11t-12.5 8
q-13 6 -33.5 16.5t-38.5 20.5q-5 3 -8.5 4t-7.5 1q-5 0 -9 -2.5t-10 -11.5zM554 458q-1 -14 -11 -21.5t-28 -7.5t-29 12t-11 31q0 25 17.5 40t46.5 15q25 0 41 -8t16 -20q0 -9 -5.5 -14.5t-15.5 -5.5q-6 0 -9.5 -0.5t-4.5 -1.5q-3 -3 -4.5 -7.5t-2.5 -11.5zM492 581
q-10 -7 -15 -9t-9 -2q-10 0 -15 5.5t-5 16.5q0 22 25 36.5t57 14.5q34 0 53 -9.5t19 -25.5q0 -10 -5 -15t-17 -5q-4 0 -8.5 1t-13.5 4q-10 2 -14.5 3t-8.5 1q-10 0 -19.5 -3.5t-23.5 -12.5zM173 563q-9 -7 -14 -9t-9 -2q-10 0 -15 5.5t-5 16.5q0 22 25 37t56 15
q32 0 52.5 -10.5t20.5 -25.5q0 -11 -5 -16t-15 -5q-4 0 -9 1t-15 4q-10 4 -15 5t-10 1q-10 0 -19 -3.5t-23 -13.5zM408 331q4 -10 5.5 -14.5t1.5 -8.5q0 -12 -7.5 -19.5t-19.5 -7.5q-19 0 -29 24t-10 68q0 39 7 56t24 17q10 0 15.5 -6t5.5 -16q0 -3 -0.5 -7l-1.5 -12
q-2 -11 -2.5 -17.5t-0.5 -12.5q0 -10 2.5 -19.5t9.5 -24.5z" />
    <glyph glyph-name=".null" horiz-adv-x="0" 
 />
    <glyph glyph-name="nonmarkingreturn" horiz-adv-x="333" 
 />
    <glyph glyph-name="uni000A" unicode="&#xa;" horiz-adv-x="0" 
 />
    <glyph glyph-name="space" unicode=" " horiz-adv-x="221" 
 />
    <glyph glyph-name="exclam" unicode="!" horiz-adv-x="275" 
d="M173 275q-3 -15 -12 -23t-22 -8t-21.5 8.5t-9.5 22.5q-7 68 -16.5 196.5t-10.5 198.5q-1 45 18.5 67t59.5 22q32 0 47.5 -21.5t13.5 -60.5q-5 -78 -21 -210t-26 -192zM225 83q0 -39 -28 -66t-68 -27q-35 0 -56 19t-20 51q0 37 28.5 65t67.5 29q33 0 54.5 -20t21.5 -51z
" />
    <glyph glyph-name="quotedbl" unicode="&#x22;" horiz-adv-x="447" 
d="M42 433zM145 477q-10 -25 -23.5 -34.5t-38.5 -9.5q-23 0 -33 13.5t-4 35.5q42 149 49 174t11 40q8 28 23.5 39.5t44.5 11.5q31 0 42.5 -14t2.5 -41q-8 -27 -34 -103t-40 -112zM327 477q-10 -25 -23.5 -34.5t-38.5 -9.5q-23 0 -33 13.5t-4 35.5q42 149 49 174t11 40
q8 28 23.5 39.5t44.5 11.5q31 0 42.5 -14t2.5 -41q-8 -27 -34 -103t-40 -112z" />
    <glyph glyph-name="numbersign" unicode="#" horiz-adv-x="607" 
d="M193 81q-6 -25 -18.5 -33.5t-37.5 -8.5t-34.5 10.5t-3.5 33.5q4 15 7.5 28t6.5 24q1 5 5.5 25t6.5 32q1 4 -1 6t-7 2h-22.5h-23.5q-29 0 -39 11t-4 35q6 25 19.5 35t41.5 9h9.5t15.5 -1h14.5h8.5q5 0 8.5 2.5t4.5 8.5q10 41 15 64.5t6 28.5q1 6 -1 9t-8 3h-8h-13
q-10 -1 -15.5 -1h-9.5q-32 0 -42.5 11t-3.5 37q7 25 20 34.5t42 8.5h26.5h26.5q6 0 8.5 2t4.5 8q3 11 6.5 29.5t4.5 21.5t1.5 7.5t2.5 11.5q2 13 3 19t2 11q6 31 20 42.5t43 11.5q26 0 36 -14t2 -41q-1 -4 -2.5 -9t-3.5 -15q-2 -11 -3.5 -16t-2.5 -9q-4 -15 -6.5 -27
t-4.5 -22q-1 -6 1.5 -9t8.5 -3h35.5h35.5q5 0 8 2.5t5 8.5q3 12 7 31t5 22q2 7 3.5 14.5t6.5 35.5t19 39.5t43 11.5q28 0 37.5 -13.5t1.5 -40.5q-5 -15 -8 -27t-6 -23q-3 -13 -6 -25.5t-6 -25.5q-1 -4 0.5 -6.5t6.5 -2.5h24h24q25 1 34.5 -10.5t4.5 -35.5
q-5 -23 -17.5 -33.5t-36.5 -10.5h-25.5h-25.5q-6 0 -8.5 -2t-5.5 -9q-5 -14 -12 -43.5t-10 -48.5q-1 -6 1 -9t7 -3h29t21 1q28 1 37.5 -10.5t3.5 -37.5q-5 -22 -18 -32.5t-37 -10.5h-13.5t-20.5 1h-16h-9q-7 0 -10 -2t-4 -8q-5 -22 -7.5 -33.5t-4.5 -21.5q-1 -5 -2.5 -10.5
t-3.5 -16.5q-2 -12 -3.5 -17.5t-2.5 -10.5q-5 -24 -17.5 -33t-39.5 -9q-25 0 -34 10.5t-3 33.5q7 31 9 39.5t4 15.5q5 18 7.5 30.5t4.5 23.5q1 5 -1 7t-6 2h-40.5h-41.5q-5 0 -8 -2t-4 -7q-3 -14 -7 -32.5t-5 -23.5q-2 -10 -4.5 -21.5t-7.5 -33.5zM244 301q-1 -6 1 -8.5
t9 -2.5h38h38q5 0 8.5 2.5t4.5 8.5q2 9 5 21.5t9 40.5q3 14 4.5 20l2.5 10q2 7 -0.5 10t-9.5 3h-36h-36q-7 0 -10.5 -2.5t-4.5 -8.5q-1 -5 -3 -12.5t-6 -25.5q-6 -26 -9 -37.5t-5 -18.5z" />
    <glyph glyph-name="dollar" unicode="$" horiz-adv-x="563" 
d="M322 -68q0 -21 -10.5 -32t-31.5 -11q-22 0 -33 11t-11 32v19v34q1 24 1 35v20q0 5 -2 8t-9 6q-21 7 -27 9.5t-11 5.5q-9 4 -17 6.5t-14 2.5q-7 0 -12 -5.5t-6 -15.5q-2 -14 -12 -21.5t-26 -7.5q-15 0 -25 9.5t-11 25.5q0 5 -0.5 11l-1.5 18q-1 22 -2 34t-2 23
q-1 9 -2 19.5t-4 28.5q-2 15 -3 22t-1 13q-1 21 10 34t30 13q16 0 26.5 -8t15.5 -24q6 -21 18 -40t30 -38q21 -23 54.5 -36t69.5 -13q50 0 78 23.5t28 66.5t-31 66.5t-113 42.5l-39 9q-91 20 -132 61.5t-41 113.5q0 70 45 117t120 55q7 1 9.5 3.5t2.5 8.5v18.5t-1 32.5v31
v17q0 21 11 32t33 11q21 0 31.5 -11t10.5 -32v-49.5v-49.5q0 -9 2.5 -13t8.5 -6q10 -2 21 -5t23 -8q7 -3 12.5 -4.5t10.5 -1.5q8 0 12.5 3.5t8.5 13.5q4 12 13 19t21 7q16 0 26 -11t11 -31q0 -4 0.5 -9.5t0.5 -15.5q0 -19 0.5 -30.5t1.5 -22.5q1 -8 1.5 -17.5t2.5 -27.5
q1 -11 2 -16.5t1 -10.5q1 -20 -9 -31.5t-27 -11.5q-16 0 -26.5 9t-14.5 26q-6 23 -16.5 42t-25.5 32q-23 20 -47 29t-57 9q-50 0 -80.5 -23.5t-30.5 -62.5q0 -40 27 -62t88 -36l36 -9q111 -26 158 -68.5t47 -117.5q0 -77 -48 -127t-132 -57q-8 -1 -11.5 -4t-3.5 -10v-47.5
v-47.5z" />
    <glyph glyph-name="percent" unicode="%" horiz-adv-x="722" 
d="M164 20q-15 -20 -31.5 -24.5t-32.5 8.5q-16 12 -16.5 27t14.5 35q31 39 65 85t99 135q33 46 49.5 68t30.5 41q55 74 105 145t102 147q16 24 33 30t35 -5q20 -12 21 -29.5t-17 -40.5q-75 -99 -123.5 -164t-96.5 -132q-42 -57 -89.5 -122.5t-147.5 -203.5zM317 549
q0 -89 -40 -139t-111 -50q-65 0 -106.5 51.5t-41.5 128.5q0 80 44 135t109 55q68 0 107 -48.5t39 -132.5zM169 427q29 0 45.5 33t16.5 94v2q0 53 -15.5 81t-43.5 28q-29 0 -46 -33t-17 -91v-3q0 -56 15 -83.5t45 -27.5zM704 179q0 -88 -40.5 -138.5t-110.5 -50.5
q-65 0 -106.5 51.5t-41.5 128.5q0 80 44 135t109 55q67 0 106.5 -49t39.5 -132zM556 57q29 0 46 33t17 93v2q0 53 -16 81.5t-44 28.5q-29 0 -46 -32.5t-17 -91.5v-3q0 -56 15 -83.5t45 -27.5z" />
    <glyph glyph-name="ampersand" unicode="&#x26;" horiz-adv-x="817" 
d="M449 90q-43 -54 -92.5 -79t-112.5 -25q-94 0 -148.5 49.5t-54.5 131.5q0 76 44 131.5t136 96.5q6 3 6.5 7.5t-3.5 11.5q-23 41 -32.5 72t-9.5 64q0 82 54.5 133t143.5 51q77 0 123.5 -42.5t46.5 -111.5q0 -58 -35.5 -102t-123.5 -91q-8 -4 -9 -8.5t5 -12.5
q20 -32 39.5 -57.5t39.5 -49.5q3 -3 5.5 -2.5t4.5 3.5q35 56 56.5 87t38.5 51q34 40 63.5 58t62.5 18q35 0 54.5 -19.5t19.5 -53.5q0 -30 -18 -53t-43 -23q-7 0 -14 2t-17 9q-8 6 -13 8t-11 2q-16 0 -29.5 -10.5t-31.5 -35.5q-12 -18 -28 -44.5t-33 -56.5q-4 -7 -4 -11t3 -9
q22 -29 33 -41.5t22 -21.5q19 -16 36 -23.5t37 -7.5t32.5 7.5t22.5 26.5q7 10 14 15t16 5q14 0 23 -11t7 -27q-6 -46 -44.5 -80.5t-96.5 -34.5q-46 0 -84.5 23t-83.5 80q-4 5 -8.5 5.5t-8.5 -4.5zM160 189q0 -47 29.5 -75t80.5 -28q33 0 61.5 16t60.5 54q3 4 3 8t-3 10
q-9 14 -19.5 30t-32.5 46q-29 40 -39 52t-19 22q-3 4 -7.5 4t-10.5 -3q-57 -29 -80.5 -60t-23.5 -76zM324 460q5 -8 11 -10t13 2q62 29 86 55.5t24 66.5q0 37 -20 58t-55 21q-40 0 -63.5 -26t-23.5 -69q0 -28 6.5 -51.5t21.5 -46.5z" />
    <glyph glyph-name="quotesingle" unicode="'" horiz-adv-x="265" 
d="M145 477q-10 -25 -23.5 -34.5t-38.5 -9.5q-23 0 -33 13.5t-4 35.5q42 149 49 174t11 40q8 28 23.5 39.5t44.5 11.5q31 0 42.5 -14t2.5 -41q-8 -27 -34 -103t-40 -112z" />
    <glyph glyph-name="parenleft" unicode="(" horiz-adv-x="453" 
d="M433 -242q0 -17 -13 -29t-30 -12q-15 0 -30 6.5t-64 44.5q-97 76 -152 201.5t-55 274.5q0 146 56 270.5t154 204.5q45 37 60 44t31 7q17 0 29 -11.5t12 -28.5q0 -28 -31.5 -51.5t-40.5 -32.5q-75 -72 -112 -170t-37 -226q0 -125 36.5 -225.5t112.5 -183.5q12 -13 43 -35
t31 -48z" />
    <glyph glyph-name="parenright" unicode=")" horiz-adv-x="453" 
d="M20 729q0 17 13 29t30 12q15 0 30 -6.5t64 -44.5q97 -76 152 -201.5t55 -274.5q0 -146 -56 -270.5t-154 -204.5q-45 -37 -60 -44t-31 -7q-17 0 -29 11.5t-12 28.5q0 28 31.5 51.5t40.5 32.5q75 72 112 170t37 226q0 125 -36.5 225.5t-112.5 183.5q-12 13 -43 35t-31 48z
" />
    <glyph glyph-name="asterisk" unicode="*" horiz-adv-x="448" 
d="M271 308q0 -24 -11.5 -35.5t-34.5 -11.5q-24 0 -35.5 11.5t-11.5 35.5q0 13 3 32t13 58q6 25 7.5 34.5t1.5 13.5q-1 3 -2 4.5t-2 1.5q-3 1 -6 -1t-9 -8q-4 -3 -20.5 -19t-27.5 -25q-16 -14 -29 -23t-24 -14q-21 -8 -36.5 -2t-24.5 26q-8 17 -2 31.5t27 26.5q12 6 30 13
t55 19q17 6 24 8t11 4q3 2 4.5 3.5t1.5 3.5t-1.5 3.5t-4.5 3.5q-3 1 -9.5 3t-21.5 7q-39 12 -58.5 19t-31.5 14q-20 10 -26.5 24.5t1.5 32.5q9 20 24.5 26.5t37.5 -2.5q11 -5 24.5 -14t29.5 -22q13 -11 30.5 -27t18.5 -17q6 -6 9.5 -8.5t5.5 -1.5q1 0 2 1.5t1 4.5
q0 4 -1.5 11.5t-7.5 28.5q-10 40 -13.5 60.5t-3.5 35.5q0 23 12 35t35 12t34.5 -12t11.5 -35q0 -15 -3.5 -35.5t-13.5 -60.5q-6 -21 -7.5 -28.5t-1.5 -11.5q0 -2 1.5 -4t2.5 -2q2 -1 4.5 1t9.5 9q5 4 22 19t28 25q16 13 29.5 22t24.5 14q21 9 37 2.5t24 -26.5
q8 -18 1.5 -32.5t-26.5 -24.5q-12 -6 -30 -13t-55 -18q-18 -6 -25 -8t-11 -4q-3 -2 -4.5 -3.5t-1.5 -3.5t1 -3.5t5 -3.5t11 -4t24 -8q37 -12 55 -19t30 -13q20 -11 26.5 -26t-1.5 -32q-9 -20 -24.5 -26t-36.5 2q-11 5 -24.5 14t-28.5 23q-12 10 -28.5 26t-19.5 18
q-5 5 -8.5 7.5t-5.5 1.5q-2 0 -3 -2t-1 -4q0 -4 1.5 -13.5t7.5 -35.5q9 -38 12 -57t3 -32z" />
    <glyph glyph-name="plus" unicode="+" horiz-adv-x="503" 
d="M300 230q1 -31 -10.5 -44.5t-39.5 -13.5q-24 0 -35.5 13.5t-11.5 41.5q1 11 0.5 34.5t-0.5 30.5q0 9 -4.5 13.5t-12.5 4.5h-33.5h-33.5q-29 0 -41.5 11.5t-12.5 37.5q0 25 13.5 36.5t41.5 10.5h32.5h32.5q10 0 14 4t4 14v43.5t-1 21.5q0 29 12 42.5t38 13.5
q24 0 36 -13.5t11 -39.5v-33.5v-33.5q0 -9 4.5 -13.5t14.5 -4.5h33.5h33.5q27 1 40 -10.5t13 -37.5q0 -25 -13.5 -37t-40.5 -11h-32.5h-32.5q-10 0 -14.5 -4.5t-4.5 -14.5v-30.5v-31.5z" />
    <glyph glyph-name="comma" unicode="," horiz-adv-x="303" 
d="M247 50q0 -67 -34.5 -118.5t-100.5 -80.5q-14 -6 -26 -1.5t-18 16.5q-5 11 -1.5 21t15.5 17q38 20 56.5 42t18.5 48q0 6 -1.5 8.5t-6.5 2.5h-2.5t-5.5 -1q-6 -1 -10 -1.5t-8 -0.5q-30 0 -48 19t-18 52q0 41 27 67t68 26q44 0 69.5 -31t25.5 -85z" />
    <glyph glyph-name="hyphen" unicode="-" horiz-adv-x="341" 
d="M219 320q19 0 27.5 0.5t15.5 0.5q26 0 40 -14t14 -40t-14 -40t-39 -13h-46.5h-46.5h-23t-34 -1h-21h-11q-27 -1 -41.5 13t-14.5 41q0 25 14.5 39t40.5 14q14 -1 32 -1h64q8 0 17 0.5t26 0.5z" />
    <glyph glyph-name="period" unicode="." horiz-adv-x="333" 
d="M258 90q0 -42 -30 -71.5t-72 -29.5q-37 0 -59 20.5t-22 55.5q0 41 30.5 71.5t71.5 31.5q35 0 58 -22t23 -56z" />
    <glyph glyph-name="slash" unicode="/" horiz-adv-x="449" 
d="M408 789q35 0 44.5 -20t-8.5 -60q-22 -51 -70 -165t-105 -250q-22 -52 -47.5 -113.5t-71.5 -171.5q-31 -72 -43 -101t-20 -48q-9 -25 -24.5 -36t-40.5 -11q-35 0 -45 19.5t7 56.5q24 54 59 136.5t126 301.5q49 120 97.5 236t72.5 173q12 29 28 41t41 12z" />
    <glyph glyph-name="zero" unicode="0" horiz-adv-x="713" 
d="M670 367q0 -171 -86 -275.5t-233 -104.5q-142 0 -224.5 98.5t-82.5 262.5q0 166 89.5 274t230.5 108q137 0 221.5 -102t84.5 -261zM361 78q87 0 134 71.5t47 205.5v16q0 131 -47.5 201.5t-133.5 70.5q-85 0 -137.5 -73t-52.5 -199v-16q0 -136 48.5 -206.5t141.5 -70.5z
" />
    <glyph glyph-name="one" unicode="1" horiz-adv-x="474" 
d="M366 1q-42 1 -69 1h-52q-24 0 -50 -0.5t-67 -0.5q-19 -1 -26.5 -1h-12.5q-17 0 -26.5 12t-9.5 32q0 16 10 27t26 11h10h20q19 -1 29.5 -1h19.5q12 0 17 5t6 17q2 24 2.5 66.5t0.5 185.5q0 125 -0.5 161t-1.5 54q-1 12 -8 17t-20 3q-7 -2 -15.5 -4.5t-27.5 -7.5
q-13 -4 -19 -6t-11 -3q-23 -6 -39.5 6t-16.5 33q0 16 8.5 26t29.5 19q7 3 15.5 6.5t27.5 11.5q14 5 21.5 8t13.5 6q21 8 42.5 17t39.5 17q37 16 60.5 2.5t22.5 -47.5q0 -6 -1 -12.5t-3 -20.5q-3 -17 -4 -26.5t-1 -18.5q-1 -26 -1 -71v-170q0 -83 0.5 -147t1.5 -105
q1 -12 6.5 -17t18.5 -5h15t23 1t22.5 1h14.5q16 0 26 -11.5t10 -28.5q0 -19 -9.5 -30.5t-26.5 -11.5h-13h-29z" />
    <glyph glyph-name="two" unicode="2" horiz-adv-x="614" 
d="M138 13q-11 -13 -19 -16.5t-21 -3.5q-27 0 -39 20.5t-12 64.5q0 86 43 148.5t143 115.5l55 27.5t72 39.5q40 26 58.5 53.5t18.5 59.5q0 55 -33 87t-89 32q-42 0 -72.5 -15t-49.5 -45q-4 -7 -10.5 -24t-15.5 -44t-24.5 -38.5t-40.5 -11.5q-29 0 -44 16t-14 46q2 87 76 146
t194 59q112 0 177 -55t65 -148q0 -50 -20 -90t-60 -73q-22 -17 -51.5 -33.5t-116.5 -54.5q-76 -34 -113 -69.5t-37 -74.5q0 -6 2 -8.5t7 -2.5q3 0 6 1.5t11 7.5q13 10 30.5 15.5t38.5 5.5q18 0 38 -4t57 -18q34 -12 51.5 -16t32.5 -4q35 0 50 18.5t17 64.5q1 21 11.5 32.5
t29.5 11.5q22 0 34.5 -15t12.5 -42q0 -88 -40.5 -136.5t-113.5 -48.5q-27 0 -55 5.5t-79 23.5q-40 14 -59.5 18t-36.5 4q-21 0 -36 -7t-29 -25z" />
    <glyph glyph-name="three" unicode="3" horiz-adv-x="627" 
d="M563 210q0 -101 -68.5 -160.5t-189.5 -59.5q-114 0 -183 54.5t-69 136.5q0 30 15 47t42 17q18 0 31 -9.5t25 -31.5q5 -10 15 -33t15 -34q17 -35 45.5 -51.5t73.5 -16.5q60 0 94 32.5t34 90.5q0 62 -46 99t-142 55q-15 3 -22.5 10.5t-7.5 20.5q0 9 3.5 16t13.5 17
q9 10 20.5 22t35.5 36q48 48 71 72.5t40 45.5q12 14 8 24.5t-21 11.5q-34 1 -87.5 0.5t-92.5 -1.5q-16 -1 -23 -5.5t-13 -18.5q-8 -18 -15.5 -37.5t-15.5 -42.5q-7 -18 -17.5 -26t-26.5 -8q-25 0 -37.5 17.5t-5.5 44.5q7 26 15 60.5t14 68.5q6 28 18.5 40.5t35.5 12.5
q4 0 9.5 -0.5t18.5 -3.5q20 -3 32.5 -4.5t25.5 -1.5q48 0 109.5 0.5t169.5 1.5q34 1 51.5 -11.5t17.5 -37.5q0 -16 -6.5 -30t-31.5 -43q-13 -16 -30.5 -35t-54.5 -56q-32 -33 -47 -49t-27 -30q-6 -8 -5 -13t10 -7q88 -23 132 -72t44 -125z" />
    <glyph glyph-name="four" unicode="4" horiz-adv-x="662" 
d="M315 1q-17 -1 -23.5 -1h-10.5q-18 0 -28.5 11.5t-10.5 30.5q0 18 11 29t28 11h11h19q14 -1 22 -1h15q12 0 16.5 5t5.5 17q2 29 2.5 46.5t0.5 24.5q0 11 -4.5 15.5t-15.5 4.5h-52t-81 1h-96h-50q-30 0 -46 14t-16 39q0 13 5.5 25.5t17.5 28.5q29 36 67 82.5t76 92.5
q61 72 97 114.5t47 54.5q41 44 68 62.5t53 18.5q27 0 40.5 -14.5t12.5 -42.5q0 -6 -0.5 -13.5t-2.5 -21.5q-2 -20 -2.5 -31t-0.5 -21q-1 -61 -2 -147.5t-1 -135.5q0 -10 4.5 -14.5t14.5 -4.5h37.5h36.5q23 1 33.5 -10.5t7.5 -34.5q-3 -24 -15 -34t-37 -10q-35 2 -44.5 2
h-18.5q-11 0 -15 -4.5t-4 -15.5q0 -16 0.5 -32.5t1.5 -38.5q0 -12 5.5 -17t18.5 -5h9t15 1t15 1h9q17 0 27 -11.5t10 -29.5t-10 -29.5t-27 -11.5h-11h-24q-37 1 -59.5 1h-44.5q-23 0 -47 -0.5t-60 -0.5zM142 305q-8 -11 -5 -18t16 -8q33 -1 104 -0.5t94 0.5q11 0 16.5 5
t5.5 16v45v75q1 51 1 76v46q0 15 -11 18t-22 -9q-17 -19 -41.5 -47.5t-60.5 -73.5q-28 -34 -54.5 -68t-42.5 -57z" />
    <glyph glyph-name="five" unicode="5" horiz-adv-x="597" 
d="M540 222q0 -107 -67 -169.5t-184 -62.5q-111 0 -178 49.5t-67 121.5q0 28 16 45.5t42 17.5q22 0 36.5 -13.5t23.5 -44.5q14 -48 50.5 -73t92.5 -25q58 0 89.5 33t31.5 94q0 52 -30 88t-88 53q-39 11 -92 20t-104 14q-24 2 -32.5 15t-2.5 42q2 11 4.5 25t8.5 45
q4 25 6.5 37.5t4.5 23.5q7 41 11.5 69t8.5 48q4 24 16 34.5t36 10.5h17t34 -1q45 0 74 -0.5t58 -0.5h37.5t54.5 1q27 1 39.5 1h22.5q22 0 33 -11.5t9 -32.5q0 -5 -1 -10t-4 -22q-2 -23 -15.5 -33.5t-40.5 -9.5q-90 2 -161 3t-109 1q-14 0 -20 -4.5t-8 -15.5l-16 -91
q-2 -14 1.5 -19.5t16.5 -6.5q55 -7 96 -15t72 -18q86 -27 131.5 -81.5t45.5 -131.5z" />
    <glyph glyph-name="six" unicode="6" horiz-adv-x="620" 
d="M577 234q0 -111 -68 -177.5t-184 -66.5q-135 0 -208 92.5t-73 266.5q0 184 76.5 281t218.5 97q89 0 147.5 -40t73.5 -109q6 -29 -8.5 -48.5t-40.5 -19.5q-19 0 -32.5 10t-21.5 30q-18 50 -48 72t-77 22q-82 0 -127 -71.5t-45 -204.5q0 -8 4 -9.5t8 4.5q31 44 80.5 69
t106.5 25q102 0 160 -60t58 -163zM182 220q0 -68 40 -107.5t106 -39.5q59 0 92.5 39.5t33.5 106.5q0 70 -33 109t-92 39q-65 0 -106 -41.5t-41 -105.5z" />
    <glyph glyph-name="seven" unicode="7" horiz-adv-x="614" 
d="M301 65q0 -36 -16 -55.5t-47 -19.5t-47 19.5t-16 56.5q0 71 22 140.5t66 135.5q42 65 80.5 115t82.5 99q13 14 17 21.5t4 15.5q0 10 -7 15t-21 5q-28 1 -94 1t-132 -1q-21 -1 -29 -6t-13 -19q-6 -17 -12 -36t-12 -40q-8 -20 -18.5 -28.5t-28.5 -8.5q-26 0 -38 16.5
t-5 45.5q8 31 16.5 70t14.5 75q4 24 15.5 35t31.5 11q5 0 11 -1t17 -3q15 -4 24 -5t18 -1q41 -1 155 0t176 2q34 1 52.5 -12t18.5 -38q0 -18 -10.5 -37.5t-47.5 -67.5q-51 -63 -89 -116t-76 -114q-34 -55 -48.5 -113t-14.5 -157z" />
    <glyph glyph-name="eight" unicode="8" horiz-adv-x="605" 
d="M570 206q0 -102 -70.5 -159t-200.5 -57q-126 0 -197.5 50.5t-71.5 138.5q0 60 35.5 107t97.5 68q10 4 11 9t-8 9q-51 25 -76.5 64.5t-25.5 92.5q0 87 69.5 142.5t175.5 55.5q105 0 167.5 -48t62.5 -128q0 -50 -28.5 -92t-75.5 -60q-8 -3 -7.5 -8t8.5 -8
q65 -25 99.5 -70.5t34.5 -106.5zM147 196q0 -59 43 -93t119 -34q68 0 104.5 29.5t36.5 82.5q0 37 -18 65t-55 48q-20 11 -42.5 19.5t-46.5 12.5q-53 10 -97 -29.5t-44 -100.5zM249 449q16 -8 33 -14t38 -11q42 -9 77.5 25.5t35.5 87.5q0 54 -37 85t-99 31q-53 0 -85.5 -28
t-32.5 -74q0 -35 17 -59.5t53 -42.5z" />
    <glyph glyph-name="nine" unicode="9" horiz-adv-x="625" 
d="M582 377q0 -190 -75.5 -288.5t-219.5 -98.5q-96 0 -156 39t-74 108q-6 30 9.5 50t42.5 20q18 0 30 -9.5t19 -28.5q19 -51 50 -71.5t84 -20.5q82 0 125.5 73t43.5 211q0 9 -6 10.5t-11 -5.5q-22 -39 -70.5 -64.5t-106.5 -25.5q-105 0 -165 58t-60 157q0 107 70.5 171.5
t191.5 64.5q132 0 205 -91t73 -259zM167 503q0 -65 35 -101.5t97 -36.5q60 0 99.5 38.5t39.5 96.5q0 67 -37.5 106t-99.5 39q-63 0 -98.5 -38t-35.5 -104z" />
    <glyph glyph-name="colon" unicode=":" horiz-adv-x="333" 
d="M258 89q0 -42 -30 -71t-72 -29q-37 0 -59 20.5t-22 54.5q0 41 30.5 71t71.5 31q36 0 58.5 -21.5t22.5 -55.5zM258 485q0 -42 -29.5 -71t-72.5 -29q-37 0 -59 20t-22 55q0 41 30.5 71t71.5 30q35 1 58 -20.5t23 -55.5z" />
    <glyph glyph-name="semicolon" unicode=";" horiz-adv-x="341" 
d="M266 484q0 -42 -30 -71.5t-72 -29.5q-37 0 -59 20.5t-22 55.5q0 41 30.5 71.5t71.5 30.5q35 1 58 -20.5t23 -56.5zM266 50q0 -67 -34.5 -118t-100.5 -80q-14 -6 -26 -2t-18 16q-5 12 -1.5 21.5t15.5 16.5q39 21 57 42.5t18 47.5q0 7 -1.5 9.5t-6.5 2.5h-2.5t-5.5 -1
q-6 -1 -10 -1.5t-8 -0.5q-30 0 -48 19t-18 52q0 41 26.5 66.5t68.5 25.5q44 0 69.5 -31t25.5 -85z" />
    <glyph glyph-name="less" unicode="&#x3c;" horiz-adv-x="584" 
d="M517 170q-7 -24 -29 -33t-49 1q-19 7 -46.5 17t-89.5 34q-69 26 -101 38.5t-55 20.5q-44 16 -63 38t-19 55t19.5 54.5t62.5 37.5q12 5 127 47t164 61q27 10 48 0.5t27 -33.5q6 -25 -5 -43.5t-37 -26.5q-116 -34 -173.5 -52.5t-97.5 -32.5q-10 -4 -12.5 -6.5t-2.5 -6.5
t3 -6.5t13 -5.5q58 -20 135.5 -44.5t134.5 -41.5q29 -8 41 -26.5t5 -45.5z" />
    <glyph glyph-name="equal" unicode="=" horiz-adv-x="543" 
d="M181 183h-44h-25q-23 -1 -34.5 11.5t-11.5 37.5q0 23 12 35.5t34 12.5h99.5h98.5h43t65 1h44.5h24.5q22 0 33 -12t11 -36t-11 -37t-32 -12q-31 1 -103.5 0.5t-98.5 -0.5h-43t-62 -1zM181 393h-44h-25q-23 -1 -34.5 11.5t-11.5 37.5q0 23 12 35.5t34 12.5h99.5h98.5h43
t65 1h44.5h24.5q22 0 33 -12t11 -36t-11 -37t-32 -12q-31 1 -103.5 0.5t-98.5 -0.5h-43t-62 -1z" />
    <glyph glyph-name="greater" unicode="&#x3e;" horiz-adv-x="584" 
d="M67 170q7 -24 29 -33t49 1q19 7 46.5 17t89.5 34q69 26 101 38.5t55 20.5q44 16 63 38t19 55t-19.5 54.5t-62.5 37.5q-12 5 -127 47t-164 61q-27 10 -48 0.5t-27 -33.5q-6 -25 5 -43.5t37 -26.5q116 -34 173.5 -52.5t97.5 -32.5q10 -4 12.5 -6.5t2.5 -6.5t-3 -6.5
t-13 -5.5q-58 -20 -135.5 -44.5t-134.5 -41.5q-29 -8 -41 -26.5t-5 -45.5z" />
    <glyph glyph-name="question" unicode="?" horiz-adv-x="564" 
d="M304 241q0 -11 -8 -17t-23 -6q-29 0 -50 20t-22 52q-1 38 18.5 68t82.5 73q65 43 85 74.5t20 70.5q0 53 -29 82t-81 29q-40 0 -69.5 -17t-50.5 -52q-8 -13 -17.5 -37.5t-12.5 -31.5q-11 -23 -24 -32.5t-32 -9.5q-25 0 -40 16t-15 43q0 83 70 141.5t185 58.5
q105 0 167.5 -54.5t62.5 -145.5q0 -37 -10 -68t-31 -56q-15 -19 -37 -36.5t-69 -43.5q-51 -29 -65.5 -45.5t-14.5 -36.5q0 -7 1 -12.5t5 -12.5q2 -5 3 -8t1 -6zM360 78q0 -37 -28.5 -62.5t-69.5 -25.5q-37 0 -58 18t-21 50q1 37 30 63.5t69 26.5q34 0 56 -19.5t22 -50.5z
" />
    <glyph glyph-name="at" unicode="@" horiz-adv-x="1029" 
d="M778 -83q-42 -44 -129 -72t-192 -28q-196 0 -304 101.5t-108 282.5q0 115 40 214t115 173q75 73 175.5 112.5t212.5 39.5q183 0 289.5 -93.5t106.5 -253.5q0 -162 -80.5 -261t-205.5 -98q-44 1 -72.5 16t-39.5 44q-3 7 -6.5 9t-8.5 -2q-47 -37 -75 -47t-59 -10
q-72 0 -111 53t-33 144q7 121 74 199t163 78q35 0 59.5 -12.5t40.5 -39.5q2 -4 5 -6.5t5 -2.5q4 0 6.5 2.5t4.5 7.5q7 16 14.5 25t18.5 12t23 1.5t20 -6.5q11 -7 14 -17t0 -27q-1 -6 -3 -15t-8 -34q-9 -41 -14.5 -65.5t-10.5 -46.5q-16 -68 -21.5 -96t-6.5 -46q-2 -20 8 -30
t31 -10q74 0 125.5 76.5t51.5 194.5q0 137 -83.5 209.5t-240.5 72.5q-87 0 -167 -34t-141 -97q-60 -62 -92 -142.5t-32 -169.5q0 -162 86 -245.5t252 -83.5q85 0 147 15.5t109 48.5q14 10 20.5 12.5t13.5 2.5q11 0 17.5 -7t6.5 -19q0 -8 -3 -15.5t-8 -13.5zM396 253
q-5 -64 17 -97.5t68 -33.5q31 0 55 16.5t38 47.5q9 19 16 39t12 41q7 28 10 48.5t4 37.5q1 42 -19.5 65t-58.5 23q-57 0 -97.5 -52.5t-44.5 -134.5z" />
    <glyph glyph-name="A" unicode="A" horiz-adv-x="832" 
d="M95 1q-18 -1 -26 -1h-15q-19 0 -30 11t-11 30q0 18 11 29t30 11h8t13 -1q7 -1 10.5 -1h5.5q9 0 14 5.5t10 17.5q42 112 58.5 157t33.5 91q11 30 24 65t37 102q17 46 25 68t14 40q23 63 46 82.5t64 19.5q43 0 63.5 -16t40.5 -71q17 -48 42.5 -119t56.5 -158
q28 -78 55 -151t43 -116q3 -8 9 -12t16 -4h18.5h18.5q19 0 29.5 -10.5t10.5 -28.5t-10 -29.5t-27 -11.5h-22t-36 1q-29 1 -45.5 1h-31.5h-30t-45 -1q-27 -1 -40.5 -1h-25.5q-20 0 -30.5 10.5t-10.5 29.5q0 18 11.5 29.5t29.5 11.5h13t19 -1h16h9q15 0 20.5 8.5t0.5 24.5
l-9 27t-16 45l-9 27t-6 17q-4 11 -11 15t-20 4h-54.5h-55.5h-55.5h-55.5q-14 0 -20 -4t-12 -18q-12 -32 -21.5 -61.5t-17.5 -56.5q-4 -15 0.5 -22t19.5 -7h12.5t19.5 1h18.5h11.5q17 0 27.5 -11t10.5 -29t-10 -29t-28 -11h-14.5t-28.5 1q-32 0 -53 0.5t-41 0.5h-30.5
t-41.5 -1zM304 360q-6 -17 -0.5 -24.5t22.5 -8.5h39.5h38.5h40.5h40.5q14 0 18.5 7.5t-0.5 22.5q-28 84 -47 138t-35 97q-2 6 -6.5 9.5t-10.5 3.5t-10.5 -3t-7.5 -10q-14 -37 -30.5 -84t-51.5 -148z" />
    <glyph glyph-name="B" unicode="B" horiz-adv-x="713" 
d="M107 1q-20 -1 -28 -1h-13q-19 0 -29 11t-10 31q0 18 10.5 29t27.5 11h9.5t13.5 -1h12.5h8.5q12 0 17.5 6t6.5 19q1 22 1 67.5v180.5q1 76 0.5 142.5t-1.5 116.5q-1 13 -6.5 18.5t-19.5 5.5h-8.5t-12.5 -1h-11h-8q-18 0 -28.5 11.5t-10.5 29.5q0 19 10.5 30.5t28.5 11.5
h12t24 -1q36 0 59.5 -0.5t45.5 -0.5h22t39 1q44 0 71.5 0.5t55.5 0.5q128 0 189 -40.5t61 -124.5q0 -53 -28.5 -93.5t-81.5 -62.5q-4 -2 -6 -3.5t-2 -4.5t2 -5t6 -3q72 -21 108 -66t36 -113q0 -105 -77.5 -156.5t-232.5 -48.5q-24 0 -47 1t-59 2q-35 1 -48.5 1h-23.5
q-16 0 -34.5 -0.5t-50.5 -0.5zM291 75q7 -1 18 -1h32q115 0 161.5 29.5t46.5 101.5q0 70 -47.5 102t-153.5 32q-14 0 -28.5 -0.5t-28.5 -1.5q-22 -2 -30.5 -11t-9.5 -32q-1 -29 -1.5 -49t-0.5 -42v-40v-40q0 -24 10 -35.5t32 -12.5zM286 413h21.5h21.5q101 0 145.5 26.5
t44.5 90.5q0 59 -39.5 86t-128.5 28h-38t-28 -1q-18 -1 -26 -9.5t-9 -28.5v-7.5v-14.5q-1 -20 -1 -34v-29v-41.5t1 -22.5q0 -24 8 -33t28 -10z" />
    <glyph glyph-name="C" unicode="C" horiz-adv-x="743" 
d="M689 179q-37 -91 -112.5 -140t-181.5 -49q-159 0 -254.5 98.5t-95.5 263.5q0 173 95 274t252 101q43 0 79.5 -8.5t73.5 -27.5q2 -1 15.5 -8t20.5 -7q8 0 11.5 6t4.5 21q1 19 12.5 29.5t30.5 10.5q20 0 31 -11t12 -32q0 -10 0.5 -21.5t0.5 -40.5q0 -21 0.5 -33.5
t0.5 -24.5q2 -52 2.5 -80t1.5 -48q1 -19 -10.5 -31t-28.5 -12q-18 0 -30.5 10.5t-18.5 32.5q-9 49 -27 83.5t-48 59.5q-26 23 -60 35.5t-71 12.5q-105 0 -166.5 -70.5t-61.5 -193.5q0 -127 69.5 -204t180.5 -77q73 0 122 27t87 90q6 9 13.5 13.5t16.5 4.5q16 0 26.5 -10
t10.5 -25q0 -5 -1 -9.5t-3 -9.5z" />
    <glyph glyph-name="D" unicode="D" horiz-adv-x="803" 
d="M111 1q-20 -1 -28 -1h-13q-20 0 -31.5 11t-11.5 31q0 17 11.5 28.5t30.5 11.5h8t11 -1h10.5h7.5q14 0 20 5t6 18q1 39 1.5 104.5t0.5 144.5v186t-1 68q0 16 -6 23t-21 7h-7.5h-9.5q-7 -1 -11.5 -1h-9.5q-18 0 -29.5 11.5t-11.5 29.5t11 29.5t30 11.5h16.5h31.5
q32 -1 50.5 -1h34.5h27h44q40 1 63.5 1h46.5q181 0 278.5 -90.5t97.5 -257.5q0 -177 -100 -274t-284 -97q-22 0 -44 0.5t-60 1.5q-29 1 -43.5 1h-27.5q-15 0 -34 -0.5t-54 -0.5zM255 126q1 -26 18 -37t54 -11h17.5h16.5q136 0 202 65.5t66 200.5q0 143 -73.5 220t-207.5 77
h-16.5h-16.5q-33 0 -45.5 -9.5t-14.5 -36.5q-1 -29 -1.5 -92.5t-0.5 -155.5q0 -79 0.5 -133t1.5 -88z" />
    <glyph glyph-name="E" unicode="E" horiz-adv-x="707" 
d="M92 719q35 -1 60 -1.5t51 -0.5h128h128q25 0 45.5 2t47.5 7q14 3 20.5 4t12.5 1q21 0 32.5 -10.5t14.5 -32.5q5 -33 12.5 -71.5t14.5 -70.5q6 -25 -6.5 -41.5t-36.5 -16.5q-19 0 -31 9.5t-17 29.5q-10 36 -16.5 58t-8.5 29q-5 13 -13 18t-27 6q-37 1 -116.5 1t-102.5 -1
q-16 -1 -23.5 -9t-8.5 -25q-1 -29 -0.5 -90.5t1.5 -87.5q1 -14 6.5 -20t18.5 -7q16 -1 58.5 -0.5t59.5 1.5q8 0 12.5 4.5t4.5 12.5v8.5v13.5q-1 11 -1 17v12q0 19 11.5 30t30.5 11q20 0 30.5 -11t9.5 -32q-1 -45 -0.5 -113t1.5 -103q1 -21 -10 -33t-31 -12q-19 0 -30.5 12
t-11.5 32v13t1 19v15v9q0 9 -4 13.5t-13 5.5h-29h-87q-15 -1 -20.5 -7.5t-6.5 -22.5q-1 -29 -1.5 -95.5t0.5 -92.5q1 -13 7 -18.5t22 -6.5q29 -1 113.5 -0.5t119.5 1.5q19 0 27 4.5t13 18.5q5 12 9.5 27t16.5 57q6 21 18 31.5t30 10.5q23 0 35 -17t6 -43q-6 -27 -13 -65.5
t-13 -77.5q-4 -23 -15.5 -33.5t-31.5 -10.5q-6 0 -12.5 1t-19.5 5q-17 6 -28.5 8t-23.5 2q-85 1 -171.5 1.5t-140.5 0.5q-20 0 -42 -0.5t-58 -0.5q-17 -1 -24 -1h-11q-18 0 -28 11.5t-10 31.5q0 17 10.5 28t27.5 11h8h13q9 -1 14 -1h10q12 0 17.5 5t5.5 17q1 23 1.5 66
t0.5 188v187.5t-1 66.5q-1 14 -7 20.5t-20 6.5h-8h-12q-9 -1 -13 -1h-8q-18 0 -28 11t-10 30t10.5 30t27.5 11h8h18z" />
    <glyph glyph-name="F" unicode="F" horiz-adv-x="675" 
d="M99 1q-17 -1 -24 -1h-11q-17 0 -27 11.5t-10 30.5q0 17 10.5 28.5t26.5 11.5h8.5h12.5q9 -1 13.5 -1h9.5q12 0 17 5t6 17q2 23 2.5 66t0.5 188q0 85 -0.5 151t-1.5 103q-1 14 -7 20.5t-20 6.5h-8h-11q-8 -1 -12 -1h-8q-18 0 -28 11t-10 30t10.5 30t27.5 11h9.5h20.5
q44 -1 76.5 -1.5t67.5 -0.5h96h96q29 0 54 2t56 8q16 2 23 3t13 1q21 0 32.5 -10.5t15.5 -32.5q6 -40 13 -78t14 -66q5 -24 -7.5 -40t-35.5 -16q-18 0 -29.5 9.5t-17.5 29.5q-5 21 -12 43.5t-15 43.5q-5 13 -12.5 18t-26.5 6q-36 1 -114 1t-101 -1q-16 0 -23.5 -8t-8.5 -25
q0 -74 0.5 -119t0.5 -63q1 -13 6.5 -19.5t17.5 -7.5q13 -1 59.5 -1t72.5 1q9 1 13 5t4 12v7v12q-1 10 -1 16v11q0 19 11 30t30 11t30 -11t10 -31q-1 -42 -0.5 -108.5t1.5 -102.5q1 -21 -9.5 -32.5t-30.5 -11.5q-19 0 -30.5 12t-11.5 32v12.5t1 19.5v15v9q0 8 -4 12t-13 5
q-10 0 -43 0.5t-87 0.5q-14 -1 -19.5 -7.5t-6.5 -22.5v-188v0q0 -12 6 -17t19 -5h20t32 1q20 1 29.5 1h17.5q16 0 26 -11.5t10 -28.5q0 -20 -10 -31.5t-29 -11.5h-19.5t-34.5 1q-41 0 -67 0.5t-53 0.5q-20 0 -42 -0.5t-57 -0.5z" />
    <glyph glyph-name="G" unicode="G" horiz-adv-x="795" 
d="M532 19q-33 -16 -69.5 -24t-79.5 -8q-154 0 -246 98t-92 262q0 177 95.5 278.5t259.5 101.5q45 0 87 -10t74 -27q13 -8 19.5 -10.5t12.5 -2.5q9 0 13 6t5 19q1 19 11.5 30t29.5 11t30 -11.5t12 -31.5q0 -6 0.5 -13t0.5 -22q0 -25 0.5 -40.5t1.5 -30.5q0 -17 0.5 -33.5
t2.5 -43.5q0 -13 0.5 -19.5t0.5 -11.5q1 -19 -10 -30.5t-30 -11.5q-20 0 -31.5 9t-18.5 29q-24 80 -77.5 120t-136.5 40q-102 -1 -163 -74t-61 -199q0 -135 65.5 -211.5t177.5 -76.5q48 0 85.5 8t56.5 22q9 7 12.5 14.5t4.5 23.5v17.5t-1 34.5v31.5v15.5q-1 14 -7 20t-22 6
h-22t-34 -1h-27.5h-15.5q-17 0 -27.5 11.5t-10.5 29.5q0 19 10.5 30.5t27.5 11.5h12t29 -1q52 0 84.5 -0.5t61.5 -0.5h31.5t43.5 1h18h8q17 0 27 -11t10 -30q0 -18 -10 -29.5t-27 -11.5h-4.5t-6.5 1h-6.5h-4.5q-11 0 -15 -4.5t-5 -16.5q-1 -31 0 -99.5t2 -116.5
q0 -20 -9 -31t-25 -11q-7 0 -13.5 3t-13.5 9l-15 13.5t-9 8.5q-6 6 -11.5 9t-10.5 3t-11.5 -2t-43.5 -20z" />
    <glyph glyph-name="H" unicode="H" horiz-adv-x="836" 
d="M97 1q-17 -1 -23 -1h-10q-17 0 -27 11.5t-10 31.5q0 17 10.5 28t26.5 11h8h13q9 -1 14 -1h10q12 0 17.5 5t5.5 17q1 23 1.5 67.5t0.5 192.5v182.5t-1 64.5q-1 14 -7 20.5t-20 6.5h-7h-12q-9 -1 -13.5 -1h-8.5q-17 0 -27 11.5t-10 29.5q0 19 10 30.5t27 11.5h10t23 -1
q34 0 54 -0.5t38 -0.5h34t51 1q23 1 33 1h17q18 0 28 -11.5t10 -31.5q0 -17 -10.5 -28.5t-27.5 -11.5h-7.5h-12.5q-10 1 -15.5 1h-10.5q-13 0 -19 -6.5t-7 -20.5v-9.5v-19.5q-1 -20 -1 -31.5v-21.5v-63t1 -28q0 -17 7.5 -24.5t25.5 -8.5q9 -1 22.5 -1h60.5h111
q23 0 39.5 0.5t32.5 1.5q17 1 24 8t7 24q1 9 1 26.5v61.5v21.5t-1 31.5v21v11q-1 14 -7 20.5t-18 6.5h-6.5h-10.5q-10 -1 -15.5 -1h-10.5q-17 0 -27.5 11t-10.5 29q0 19 10.5 30.5t27.5 11.5h17t34 -1q34 -1 52.5 -1h33.5q18 0 37.5 0.5t51.5 0.5q15 1 21 1h10q16 0 26 -12
t10 -30t-10 -29.5t-26 -11.5h-8t-12 1q-9 1 -13.5 1h-8.5q-14 0 -20 -6.5t-7 -20.5q-1 -24 -1 -66v-182q0 -149 0.5 -193.5t1.5 -65.5q0 -12 5.5 -17t18.5 -5h9.5t14.5 1h13h7q16 0 26.5 -11.5t10.5 -28.5q0 -19 -10 -30.5t-27 -11.5h-10t-22 1q-33 0 -53.5 0.5t-39.5 0.5
h-33t-52 -1q-23 -1 -32.5 -1h-16.5q-17 0 -26.5 11.5t-9.5 31.5q0 17 10.5 28t27.5 11h7h13q9 -1 14 -1h9q13 0 18.5 5t6.5 18q1 26 0.5 95t-1.5 90q-2 19 -8.5 26t-22.5 8q-9 1 -20.5 1h-50.5h-112h-58t-22 -1q-20 -2 -26.5 -9t-7.5 -26q-1 -29 -1 -89t1 -96q0 -12 6 -17
t21 -5h10t14 1h13.5h8.5q16 0 26 -11t10 -29t-10.5 -30t-27.5 -12h-18.5t-34.5 1q-33 1 -50.5 1h-33.5q-18 0 -38 -0.5t-53 -0.5z" />
    <glyph glyph-name="I" unicode="I" horiz-adv-x="392" 
d="M295 1q-36 1 -58.5 1h-43.5q-20 0 -41.5 -0.5t-55.5 -0.5q-16 -1 -22 -1h-10q-17 0 -26.5 11.5t-9.5 30.5q0 18 10 29t26 11h9h14q9 -1 14 -1h10q12 0 17 5t6 17q2 30 2 140v113q0 84 -0.5 151.5t-1.5 103.5q0 14 -6 20t-20 6h-7h-12q-10 -1 -15 -1h-10q-16 0 -26 11.5
t-10 29.5t9.5 29.5t26.5 11.5h10.5t22.5 -1q35 0 56.5 -0.5t41.5 -0.5q21 0 44 0.5t58 0.5q16 1 21.5 1h9.5q17 0 26.5 -11.5t9.5 -30.5q0 -18 -10 -29t-26 -11h-7.5h-12.5q-10 1 -15 1h-9q-13 0 -18.5 -6t-6.5 -20q-1 -21 -1.5 -67t-0.5 -188v-186.5t1 -66.5q1 -12 6.5 -17
t18.5 -5h8.5t14.5 1t14.5 1h8.5q16 0 26 -11.5t10 -29.5t-10 -29.5t-26 -11.5h-10.5h-23.5z" />
    <glyph glyph-name="J" unicode="J" horiz-adv-x="634" 
d="M508 226q0 -111 -65 -173.5t-183 -62.5q-107 0 -166.5 55t-59.5 153q0 60 31 100t78 40q31 0 49.5 -17.5t18.5 -46.5q0 -16 -5.5 -29t-23.5 -29q-23 -22 -27.5 -32t-4.5 -22q0 -40 30 -63.5t83 -23.5q62 0 93 38.5t33 119.5q1 17 1 45.5v99.5v100v41.5t-1 53.5v24.5v12.5
q-1 14 -7.5 20.5t-21.5 6.5h-8.5h-14.5q-12 -1 -18.5 -1h-12.5q-16 0 -26 11t-10 29q0 19 9.5 30.5t26.5 11.5h11t24 -1q36 0 59 -0.5t45 -0.5t45.5 0.5t58.5 0.5q17 1 23 1h10q16 0 26 -12t10 -30q0 -17 -10 -29t-26 -12h-8.5t-12.5 1q-10 1 -15.5 1h-10.5q-14 0 -20 -6.5
t-6 -20.5q-1 -21 -1.5 -57t-0.5 -74v-99v-39t1 -58v-37.5v-19.5z" />
    <glyph glyph-name="K" unicode="K" horiz-adv-x="783" 
d="M96 1q-16 -1 -22 -1h-10q-17 0 -27 11.5t-10 31.5q0 17 10.5 28t26.5 11h8.5h13.5q9 -1 14 -1h10q12 0 17.5 5t5.5 17q1 23 1.5 66t0.5 188v187t-1 66q-1 14 -7 20.5t-20 6.5h-7h-13q-9 -1 -13.5 -1h-8.5q-17 0 -27 11.5t-10 29.5q0 19 10 30.5t27 11.5h10t23 -1
q34 0 54 -0.5t38 -0.5h46t53 1h22.5h11.5q17 0 26.5 -11.5t9.5 -30.5q0 -18 -10 -29t-27 -11h-8h-13q-9 1 -13.5 1h-8.5q-13 0 -19 -6t-7 -20q-1 -7 -1 -20.5v-52.5v-23.5v-23.5v-38.5v-38.5q1 -12 4.5 -18t11.5 -6q5 0 10.5 2.5t15.5 9.5q49 41 117.5 103t114.5 107
q4 4 5.5 7t1.5 6q0 5 -3.5 8t-10.5 3h-24.5h-25.5q-17 0 -27 11t-10 29q0 20 10 31t27 11h12t25 -1q33 0 53 -0.5t38 -0.5t37 0.5t49 0.5q18 1 25 1h12q18 0 28 -11t10 -30t-10.5 -31t-27.5 -12h-4.5t-7.5 1h-6h-4q-10 0 -19.5 -4.5t-20.5 -14.5q-36 -29 -96.5 -82.5
t-103.5 -94.5q-8 -8 -11 -12.5t-3 -8.5t1.5 -8t8.5 -16q35 -51 99 -139.5t114 -154.5q8 -10 15.5 -14t19.5 -4h4.5h6.5q5 1 8 1h5q17 0 27 -11t10 -29q0 -20 -10.5 -31.5t-28.5 -11.5h-11.5t-24.5 1q-30 0 -47 0.5t-32 0.5q-22 0 -44.5 -0.5t-57.5 -0.5q-17 -1 -23.5 -1
h-11.5q-18 0 -28 11.5t-10 30.5q0 18 10.5 29t27.5 11h6.5t9.5 -1h9h6q6 0 10 4t4 9t-2.5 11t-8.5 16q-25 38 -70 101.5t-75 104.5q-4 5 -8.5 7.5t-9.5 2.5t-10.5 -2.5t-12.5 -7.5q-12 -8 -25.5 -19t-27.5 -25q-9 -9 -11.5 -16.5t-2.5 -23.5q-1 -32 -1 -72.5t1 -68.5
q1 -13 5.5 -17.5t16.5 -4.5h8.5t13.5 1t13 1h8q16 0 26.5 -11t10.5 -28q0 -20 -10 -31.5t-27 -11.5h-12t-24 1q-33 0 -53.5 0.5t-41.5 0.5q-18 0 -38 -0.5t-53 -0.5z" />
    <glyph glyph-name="L" unicode="L" horiz-adv-x="654" 
d="M604 49q-1 -26 -14 -39t-39 -13q-5 0 -12.5 0.5t-25.5 0.5q-29 2 -46.5 2.5t-33.5 0.5h-61t-96 1h-59h-28q-28 0 -58 -0.5t-65 -0.5q-18 0 -28.5 11.5t-10.5 30.5q0 18 11 29.5t29 11.5h7t11 -1q9 -1 14 -1h10q12 0 17.5 5t5.5 17q1 23 1.5 66t0.5 187v187t-1 66
q-1 14 -7 20t-20 6h-8h-12q-8 -1 -12 -1h-8q-18 0 -28.5 11.5t-10.5 31.5q0 18 10.5 29.5t28.5 11.5h9t22 -1q36 0 57.5 -0.5t40.5 -0.5q20 0 43 0.5t61 0.5q16 1 22 1h9q19 0 29.5 -11t10.5 -31t-10.5 -31t-29.5 -11h-9.5t-15.5 1h-15h-9q-14 0 -20.5 -6.5t-6.5 -20.5
q-1 -31 -1.5 -89.5t-0.5 -140.5v-86v-131t1 -49q1 -16 7.5 -23t20.5 -7q8 -1 17 -1h30h47.5h47.5h27t14 1q15 2 20.5 6.5t9.5 16.5q3 9 5.5 24.5t5.5 35.5q1 9 3.5 26.5t5.5 43.5q3 25 17 38.5t37 13.5q22 0 34 -15t10 -39q-1 -8 -1.5 -18l-1.5 -30q0 -19 -0.5 -28.5
t-1.5 -17.5q-1 -35 -1.5 -56t-1.5 -35z" />
    <glyph glyph-name="M" unicode="M" horiz-adv-x="1026" 
d="M92 1q-12 -1 -17 -1h-8q-18 0 -29 11t-11 30q0 18 11 29.5t28 11.5h8h11q8 -1 13.5 -1h11.5q13 0 17.5 4.5t5.5 16.5q1 25 1.5 94.5t0.5 157.5v192t-1 64q-1 14 -7 20.5t-20 6.5h-8h-10q-7 -1 -11 -1h-9q-19 0 -29.5 11t-10.5 30q0 20 10.5 31t29.5 11h15t24 -1
q18 -1 26.5 -1h16.5h17h28q19 1 28.5 1h18.5q34 1 50.5 -9.5t28.5 -41.5q36 -94 87.5 -220t99.5 -240q2 -7 9 -7t10 7q18 42 42 101t74 185q21 54 31 79t18 44q11 26 16 37t8 17q15 27 32.5 37.5t46.5 10.5h16t26 -1h25.5h15.5h15.5t25.5 1h25.5h15.5q17 0 27 -11.5
t10 -29.5q0 -19 -10 -30.5t-27 -11.5h-7t-11 1q-8 1 -12.5 1h-8.5q-14 0 -20 -6.5t-7 -20.5q-1 -20 -1 -65.5v-186.5q0 -146 0.5 -190.5t1.5 -64.5q1 -12 6 -17t18 -5h9t14 1h12h8q16 0 26 -11t10 -29q0 -19 -9.5 -30.5t-26.5 -11.5h-9t-21 1q-36 0 -60 0.5t-46 0.5
q-19 0 -40.5 -0.5t-57.5 -0.5q-16 -1 -22 -1h-10q-17 0 -27.5 11.5t-10.5 30.5q0 17 11.5 28.5t28.5 11.5h9h15q10 -1 15 -1h10q14 0 20.5 5t7.5 17q1 29 1.5 95.5t0.5 152.5v97.5v96.5q0 7 -3 11t-9 4q-4 0 -8 -3.5t-6 -9.5q-44 -106 -106 -256.5t-101 -248.5
q-8 -19 -17.5 -26.5t-25.5 -7.5t-25 7.5t-17 26.5q-53 129 -112.5 273.5t-95.5 228.5q-3 6 -7 9.5t-8 3.5q-5 0 -8 -4t-3 -12q-1 -9 -1 -43v-159v-178.5t1 -58.5q1 -12 7 -17t20 -5h14.5t20.5 1q8 1 12 1h7q17 0 27.5 -11t10.5 -29q0 -20 -10 -31t-28 -11h-14.5t-30.5 1
q-35 0 -54.5 0.5t-36.5 0.5t-34.5 -0.5t-44.5 -0.5z" />
    <glyph glyph-name="N" unicode="N" horiz-adv-x="866" 
d="M264 1q-37 0 -57 0.5t-37 0.5t-35 -0.5t-44 -0.5q-13 -1 -18 -1h-8q-17 0 -27.5 11.5t-10.5 30.5q0 18 10.5 29t27.5 11h8h12q8 -1 12 -1h9q14 0 19.5 4.5t6.5 16.5q1 18 1.5 62t0.5 184q0 147 -0.5 190t-1.5 63q-1 19 -8 27.5t-23 8.5h-4.5t-7.5 -1q-9 -1 -14 -1h-10
q-18 0 -28.5 11.5t-10.5 29.5q0 19 10.5 30.5t28.5 11.5h14.5h22.5q16 -1 24 -1h16h15h24q18 1 27 1h17q36 0 54.5 -11.5t39.5 -45.5q190 -312 232 -380.5t70 -111.5q5 -8 8.5 -10.5t8.5 -2.5q6 0 9 3.5t3 10.5v9v20q1 50 1 94v95q0 75 -0.5 131t-1.5 92q-1 15 -6.5 20.5
t-19.5 5.5h-9.5h-17.5q-12 -1 -17.5 -1h-10.5q-17 0 -28 11.5t-11 29.5t10.5 29.5t28.5 11.5h20.5h36.5q33 -1 50.5 -1h32.5h27.5t39.5 1h21.5h11.5q17 0 27 -11.5t10 -29.5t-10.5 -29.5t-26.5 -11.5h-8t-12 1h-10.5h-6.5q-14 0 -20.5 -6.5t-6.5 -20.5q-1 -37 -1.5 -100
t-0.5 -143q-1 -57 -1 -117.5v-150.5q-1 -55 -21 -81t-63 -26q-31 0 -56.5 18.5t-54.5 63.5q-18 28 -45 71.5t-89 144.5q-76 124 -107 173.5t-48 74.5q-6 10 -10 13t-9 3t-8.5 -4t-3.5 -10v-5.5v-13.5q-1 -46 -1 -89v-92q0 -90 0.5 -151t1.5 -87q0 -11 6.5 -16.5t20.5 -5.5
h14.5t20.5 1q10 1 14.5 1h8.5q16 0 26 -11t10 -28q0 -20 -9.5 -31.5t-26.5 -11.5h-15.5t-32.5 1z" />
    <glyph glyph-name="O" unicode="O" horiz-adv-x="821" 
d="M776 373q0 -175 -101 -279t-271 -104q-160 0 -259.5 98.5t-99.5 257.5q0 170 104.5 275.5t269.5 105.5q156 0 256.5 -99t100.5 -255zM176 374q-2 -133 65 -213.5t180 -80.5q102 0 163 74.5t61 198.5q0 134 -63 209.5t-177 75.5q-100 0 -164 -72.5t-65 -191.5z" />
    <glyph glyph-name="P" unicode="P" horiz-adv-x="688" 
d="M112 1q-23 -1 -32.5 -1h-16.5q-16 0 -26 12t-10 30q0 17 10.5 28.5t25.5 11.5h10.5t14.5 -1h12.5h8.5q12 0 17.5 5t5.5 17q1 23 1.5 66t0.5 188v187.5t-1 66.5q-1 14 -7 20t-20 6h-8h-11q-8 -1 -12 -1h-8q-18 0 -28.5 11t-10.5 29q0 20 10.5 31.5t28.5 11.5h22.5t39.5 -1
q28 -1 42.5 -1h26.5h25.5t44.5 1q40 1 62 1h43q138 0 211 -56t73 -161q0 -125 -83 -185t-253 -59l-34 1q-21 0 -28 -5.5t-7 -23.5v-61.5v-61.5q1 -15 7 -20.5t21 -5.5h17t26 1h21h13q17 0 28 -11t11 -28q0 -20 -10.5 -31.5t-28.5 -11.5h-15.5t-35.5 1q-42 0 -64.5 0.5
t-40.5 0.5h-37t-52 -1zM291 333h47q102 0 147.5 36.5t45.5 121.5q0 77 -45 114.5t-138 37.5h-28h-28q-22 -1 -30 -9.5t-8 -30.5q-1 -11 -1 -30.5v-82.5v-58v-58q1 -25 8.5 -33t29.5 -8z" />
    <glyph glyph-name="Q" unicode="Q" horiz-adv-x="821" 
d="M45 346q0 170 104.5 275.5t269.5 105.5q156 0 256.5 -99t100.5 -255q0 -115 -52.5 -203.5t-155.5 -145.5q-6 -4 -8.5 -10t-1.5 -16q5 -49 21 -73t44 -24q21 0 34 7.5t24 27.5q7 13 15 18.5t19 5.5q14 0 24 -11.5t10 -27.5q0 -8 -2.5 -16t-6.5 -16q-18 -32 -50.5 -50
t-75.5 -18q-65 0 -103 34t-48 101q0 2 -0.5 4t-0.5 6q-1 6 -1.5 9.5t-0.5 6.5q-1 6 -4.5 9t-8.5 2q-10 -1 -21.5 -2t-22.5 -1q-157 0 -257.5 99t-100.5 257zM446 171q-12 26 -28.5 38.5t-38.5 12.5q-28 0 -45.5 -18.5t-17.5 -48.5q0 -28 14.5 -44.5t45.5 -24.5
q22 -7 37.5 -9t31.5 -1q9 1 13 7t3 19q-1 22 -5 39t-10 30zM651 353q0 133 -65 209t-181 76q-102 0 -168 -72.5t-67 -191.5q-1 -74 21 -134.5t65 -97.5q3 -3 6 -0.5t2 7.5q-6 17 -6 37.5t6 38.5q13 41 50 64.5t88 23.5q67 0 106.5 -40.5t50.5 -120.5q1 -11 6 -13t11 5
q36 38 55.5 91.5t19.5 117.5z" />
    <glyph glyph-name="R" unicode="R" horiz-adv-x="740" 
d="M726 45q0 -25 -21 -36.5t-64 -11.5q-61 0 -96 27.5t-53 90.5q-4 14 -17.5 73t-35.5 90q-18 24 -45 35.5t-66 11.5h-15h-20.5t-13.5 -1q-13 -1 -18.5 -8t-6.5 -23q-1 -47 -1 -104.5t1 -84.5q1 -14 6 -19t20 -5h10.5t16.5 1t16 1h9q17 0 27 -11t10 -29q0 -19 -10.5 -31
t-28.5 -12h-20.5t-36.5 1q-32 1 -50 1.5t-35 0.5h-30t-46 -1q-22 -1 -31.5 -1h-17.5q-16 0 -26 12t-10 30q0 17 10.5 28.5t25.5 11.5h11.5t15.5 -1h12h8q12 0 17 5t6 17q1 14 1.5 58t0.5 196v187.5t-1 66.5q-1 14 -7 20t-20 6h-8h-12q-9 -1 -13 -1h-8q-17 0 -27.5 11
t-10.5 29q0 20 10 31.5t28 11.5h14.5t29.5 -1q35 0 54.5 -0.5t36.5 -0.5h24.5t42.5 1q43 1 69 1h52q134 0 197 -43.5t63 -135.5q0 -62 -41 -107t-119 -71q-4 -2 -6 -3.5t-2 -4.5t2 -5t6 -3q25 -5 44 -16.5t32 -29.5q21 -29 32.5 -81t18.5 -72q11 -34 24.5 -49.5t34.5 -16.5
q11 -1 18.5 -2t10.5 -2q11 -3 16.5 -11t5.5 -21zM253 432q0 -15 7 -22.5t22 -8.5h8.5h8.5h44q89 0 133.5 31t44.5 93t-42 91t-135 29h-31t-20 -1q-22 -1 -30.5 -9.5t-9.5 -29.5q-1 -10 -1 -21v-30v-72v-31.5t1 -18.5z" />
    <glyph glyph-name="S" unicode="S" horiz-adv-x="631" 
d="M148 9q-3 -16 -14 -25t-29 -9t-28.5 11t-11.5 29q-1 19 -2 40t-4 59q-1 12 -2 25t-4 37q-2 16 -3 23t-1 13q-2 23 10.5 37.5t33.5 14.5q18 0 30.5 -10t17.5 -28q6 -26 19 -48.5t34 -43.5q25 -27 64 -42.5t82 -15.5q60 0 92.5 29t32.5 81q0 51 -37 78.5t-132 49.5l-44 10
q-105 24 -152 71.5t-47 131.5q0 90 64.5 145t167.5 55q34 0 63.5 -5t62.5 -18q12 -5 20 -7t14 -2q10 0 15 4.5t8 14.5q4 14 14.5 22.5t24.5 8.5q18 0 29.5 -12.5t12.5 -34.5q0 -8 0.5 -17.5t0.5 -29.5q0 -17 0.5 -26.5t0.5 -18.5q1 -10 2 -21t3 -32q1 -14 2 -20.5t1 -11.5
q1 -22 -10.5 -35t-30.5 -13q-18 0 -30 10.5t-16 29.5q-5 27 -17.5 49.5t-29.5 38.5q-26 24 -55.5 34.5t-74.5 10.5q-55 0 -89 -28.5t-34 -74.5q0 -47 30.5 -72.5t103.5 -43.5l42 -10q129 -31 182.5 -80.5t53.5 -135.5q0 -95 -63.5 -153t-173.5 -58q-36 0 -70.5 8t-72.5 25
q-11 5 -20 8t-15 3q-9 0 -14 -6t-7 -19z" />
    <glyph glyph-name="T" unicode="T" horiz-adv-x="753" 
d="M259 1q-19 -1 -26 -1h-12q-16 0 -26 12t-10 31q0 17 10 28.5t27 11.5h9.5t16.5 -1q16 -1 25 -1h18q12 0 17 5t6 17q1 14 1.5 76.5t0.5 173.5v124.5v124.5q-1 17 -8.5 25.5t-21.5 8.5h-27.5h-27.5h-26.5h-26.5q-14 0 -21 -5.5t-12 -19.5q-4 -9 -11 -32.5t-17 -60.5
q-5 -20 -17 -30t-30 -10q-24 0 -36.5 16.5t-6.5 42.5t13.5 65.5t15.5 85.5q3 20 14 30.5t29 10.5q5 0 10.5 -1t17.5 -3q16 -4 26 -5.5t20 -1.5h103.5h103.5h100h100q11 0 21 1.5t26 5.5q12 2 17.5 3t10.5 1q18 0 28.5 -9.5t12.5 -28.5q4 -24 10 -55.5t20 -96.5
q5 -27 -7.5 -43.5t-36.5 -16.5q-18 0 -30 9.5t-18 30.5q-2 6 -4 13.5t-6 21.5q-7 25 -10.5 36.5t-7.5 20.5q-5 14 -12 19t-22 6h-28.5h-28.5h-25.5h-25.5t-19 -8t-7 -25v-124.5v-125.5q0 -73 0.5 -144.5t1.5 -105.5q0 -12 5 -17t18 -5h16.5t23.5 1q11 1 16.5 1h9.5
q16 0 26 -11.5t10 -28.5q0 -19 -10 -31t-26 -12h-12.5t-26.5 1q-41 0 -67 0.5t-51 0.5q-24 0 -48.5 -0.5t-64.5 -0.5z" />
    <glyph glyph-name="U" unicode="U" horiz-adv-x="804" 
d="M689 294q0 -150 -71.5 -228t-210.5 -78q-143 0 -215 76.5t-71 227.5q1 71 0 169.5t-2 148.5q-1 14 -7.5 20.5t-20.5 6.5h-6h-10q-8 -1 -12.5 -1h-8.5q-16 0 -26 11t-10 29q0 19 10 31t26 12h10.5t22.5 -1q33 0 54 -0.5t40 -0.5h32.5t49.5 1q24 1 34.5 1h18.5
q17 0 26.5 -12t9.5 -32q0 -17 -10 -28t-26 -11h-8.5h-13.5q-9 1 -14 1h-10q-14 0 -20.5 -6.5t-7.5 -20.5q-1 -41 -0.5 -142.5t1.5 -168.5q2 -107 45.5 -158t131.5 -51q91 0 133.5 49.5t42.5 156.5v223.5t-1 89.5q-1 15 -8 22t-21 7h-10t-14 -1h-13.5h-8.5q-17 0 -27 11
t-10 29q0 19 10 30t27 11h18h34q32 -1 49 -1h32h29t40 1h18.5h9.5q17 0 27 -11.5t10 -29.5t-10 -29.5t-27 -11.5h-6.5t-10.5 1h-10.5h-6.5q-14 0 -20.5 -6.5t-6.5 -20.5q-1 -32 -0.5 -157.5t0.5 -158.5z" />
    <glyph glyph-name="V" unicode="V" horiz-adv-x="826" 
d="M524 86q-21 -54 -45 -75t-63 -21q-42 0 -65.5 19t-45.5 80q-17 50 -49.5 141.5t-40.5 114.5q-38 107 -62.5 175t-35.5 97q-4 11 -10.5 15.5t-19.5 4.5h-6h-9q-8 -1 -12 -1h-8q-18 0 -28.5 11t-10.5 29q0 20 10.5 31.5t28.5 11.5h16t28 -1q30 -1 47.5 -1h34.5h39t55 1
q23 1 33.5 1h18.5q18 0 28.5 -11.5t10.5 -30.5q0 -18 -11 -29.5t-28 -11.5h-13t-20 1h-12h-7q-14 0 -18.5 -7.5t-0.5 -23.5q11 -35 24.5 -78t45.5 -137q38 -114 57 -167.5t34 -93.5q5 -13 15.5 -13t15.5 13q19 52 44 122t54 156q21 63 37 111.5t28 89.5q5 15 0.5 21.5
t-20.5 6.5h-7.5h-13.5q-13 -1 -19.5 -1h-12.5q-18 0 -28.5 11.5t-10.5 29.5q0 19 10.5 30.5t27.5 11.5h14t27 -1q31 0 50 -0.5t37 -0.5q16 0 32 0.5t42 0.5q17 1 24 1h13q19 0 29.5 -12t10.5 -32q0 -17 -11 -28.5t-28 -11.5h-7.5t-12.5 1h-8.5h-4.5q-12 0 -19 -6t-12 -19
q-19 -57 -40.5 -118.5t-44.5 -125.5q-9 -25 -34 -95t-67 -186z" />
    <glyph glyph-name="W" unicode="W" horiz-adv-x="1203" 
d="M471 76q-16 -48 -38.5 -67t-61.5 -19q-45 0 -67.5 19.5t-37.5 71.5q-4 15 -10 35.5t-18 65.5q-18 66 -28 101t-18 64q-5 16 -34 116t-44 150q-4 13 -9.5 18t-14.5 5h-5.5h-11.5q-8 -1 -12.5 -1h-8.5q-17 0 -28 11.5t-11 29.5q0 19 10.5 31t28.5 12h14t27 -1q31 0 49 -0.5
t34 -0.5h33t47 1q23 1 33.5 1h18.5q18 0 29 -11.5t11 -30.5t-11 -30.5t-29 -11.5h-13t-19 1h-10h-5q-12 0 -17 -6t-2 -18q10 -42 32.5 -126t28.5 -107q14 -54 31.5 -117t36.5 -131q4 -12 14 -12t14 12q12 35 30 93.5t47 152.5q29 95 47 153.5t24 80.5q3 12 -2.5 18.5
t-18.5 6.5h-6h-13q-12 -1 -17.5 -1h-9.5q-17 0 -28 12t-11 30q0 19 10.5 30.5t27.5 11.5h15t31 -1q37 0 57.5 -0.5t38.5 -0.5q19 0 39 0.5t54 0.5q21 1 30 1h15q19 0 29.5 -12t10.5 -32q0 -17 -11 -28.5t-29 -11.5h-11t-17 1h-11h-5q-12 0 -17.5 -6.5t-2.5 -18.5
q13 -46 40 -140.5l27 -94.5q16 -55 34.5 -118.5t38.5 -133.5q4 -11 14.5 -10.5t14.5 11.5q4 15 10 35.5t19 68.5q17 58 26 89t16 58q8 29 16.5 61.5t45.5 173.5q3 14 -2 20t-19 6h-6h-15q-13 -1 -18.5 -1h-8.5q-17 0 -28 11.5t-11 29.5q0 19 10.5 30.5t27.5 11.5h13.5h25.5
q29 -1 46 -1h34h24.5t38.5 1h27.5h14.5q18 0 28.5 -11.5t10.5 -30.5q0 -18 -10 -30t-27 -12h-6.5t-12.5 1h-9h-4q-11 0 -17.5 -5.5t-9.5 -17.5q-7 -24 -16 -55.5l-29 -101.5q-11 -43 -17.5 -64.5t-11.5 -40.5q-8 -26 -16.5 -56.5t-25.5 -88.5q-16 -57 -23 -81.5t-12 -41.5
q-15 -53 -37.5 -73t-63.5 -20q-42 0 -65 19t-40 73q-6 20 -16.5 57t-45.5 161q-22 75 -33 113t-19 65q-5 15 -7 17t-5 2t-5 -2.5t-7 -16.5q-31 -96 -39.5 -121.5t-15.5 -50.5q-33 -106 -48 -153.5t-25 -76.5z" />
    <glyph glyph-name="X" unicode="X" horiz-adv-x="804" 
d="M89 0q-15 -1 -21.5 -1h-12.5q-17 0 -27 11.5t-10 30.5q0 17 10.5 28.5t26.5 11.5h15.5h14.5q10 0 15.5 3t12.5 11q17 20 40 48.5t75 92.5l54 67.5t33 40.5q5 6 7.5 12t2.5 10q0 5 -2 9t-6 9q-6 7 -79 101t-109 136q-9 10 -15 13t-15 3h-4.5h-7.5q-6 -1 -8.5 -1h-5.5
q-16 0 -26.5 11.5t-10.5 28.5q0 19 10 31t27 12h13.5t26.5 -1q31 0 49.5 -0.5t35.5 -0.5q19 0 39 0.5t52 0.5q20 1 29 1h16q17 0 27 -12t10 -31q0 -17 -10.5 -28t-26.5 -11h-26.5h-26.5q-9 0 -11.5 -5.5t3.5 -14.5q5 -8 36 -48.5t87 -113.5q4 -4 8 -6.5t9 -2.5q4 0 8.5 2.5
t7.5 7.5q6 8 14.5 18t26.5 33q39 49 56.5 71.5t27.5 37.5q6 9 3.5 15t-12.5 6h-22.5h-22.5q-16 0 -26 11.5t-10 28.5q0 19 9.5 30.5t26.5 11.5h17t30 -1q32 -1 50.5 -1h36.5h24t35 1q17 1 24 1h13q17 0 27 -12t10 -31q0 -17 -10.5 -28.5t-26.5 -11.5h-5.5t-9.5 1h-9.5h-5.5
q-9 0 -14.5 -3t-12.5 -12q-12 -15 -29 -35.5t-53 -64.5q-48 -59 -70 -86t-37 -46q-5 -6 -7 -10t-2 -7q0 -2 1 -4.5t10 -12.5q5 -6 85 -110t118 -150q7 -8 13 -11.5t15 -3.5h6.5t11.5 1h9h5q16 0 26.5 -12t10.5 -29q0 -19 -10 -30.5t-27 -11.5h-13t-28 1q-32 0 -50.5 0.5
t-35.5 0.5h-37.5t-51.5 -1q-23 -1 -32.5 -1h-17.5q-17 0 -27 11.5t-10 29.5t10 29.5t27 11.5h10.5t17.5 -1h16.5h9.5q10 0 13 6.5t-4 15.5q-21 29 -77.5 100t-60.5 77q-4 5 -7.5 7.5t-8.5 2.5q-4 0 -8.5 -2.5t-8.5 -7.5q-61 -75 -93.5 -116t-49.5 -63q-6 -8 -4 -13.5
t11 -5.5h25.5h24.5q16 0 26 -11t10 -28q0 -20 -9.5 -31.5t-26.5 -11.5h-18t-34 1q-33 1 -51 1h-33h-28t-36 -1z" />
    <glyph glyph-name="Y" unicode="Y" horiz-adv-x="753" 
d="M282 0q-16 -1 -22 -1h-10q-17 0 -27 12t-10 31q0 18 10 29t27 11h8.5t13.5 -1q11 -1 17 -1h11q13 0 19 5.5t7 16.5q1 31 1.5 78t0.5 80q0 17 -4 29t-16 31q-49 76 -108.5 165t-93.5 136q-7 11 -12.5 14.5t-15.5 3.5h-5.5h-7.5q-6 -1 -8.5 -1h-5.5q-17 0 -27.5 11.5
t-10.5 29.5t10.5 29t27.5 11h13.5t24.5 -1q28 0 45.5 -0.5t34.5 -0.5q22 0 42.5 0.5t51.5 0.5q19 1 27.5 1h15.5q18 0 28 -11t10 -30q0 -18 -10.5 -29t-27.5 -11h-13t-18 1h-11.5h-6.5q-11 0 -15 -6t2 -16q5 -9 13 -21.5t25 -40.5q12 -17 17.5 -26t10.5 -17q16 -26 35 -54.5
t36 -52.5q4 -6 7 -8t7 -2t7 2.5t7 7.5q12 17 30.5 45t43.5 68q17 28 32.5 53.5t26.5 44.5q6 11 2 17t-15 6h-7h-14q-12 -1 -18 -1h-10q-17 0 -27.5 11.5t-10.5 28.5q0 19 10 30t28 11h16t28 -1q29 -1 48 -1h38h22t35 1q16 1 23.5 1h12.5q17 0 27.5 -11.5t10.5 -30.5
q0 -17 -10.5 -28t-27.5 -11h-5.5t-6.5 1h-5.5h-3.5q-11 0 -17.5 -3.5t-12.5 -12.5q-38 -56 -100 -150.5t-96 -147.5q-8 -13 -10.5 -24.5t-2.5 -34.5v-112t1 -53q0 -11 5.5 -16t19.5 -5h9.5t15.5 1q9 1 13.5 1h7.5q17 0 27 -11.5t10 -29.5q0 -19 -10 -30.5t-27 -11.5h-10.5
t-22.5 1q-36 0 -58.5 0.5t-43.5 0.5q-20 0 -41.5 -0.5t-56.5 -0.5z" />
    <glyph glyph-name="Z" unicode="Z" horiz-adv-x="698" 
d="M624 29q-4 -21 -14.5 -31t-29.5 -10q-5 0 -11 1t-18 4q-16 4 -26.5 5.5t-20.5 1.5h-185.5h-185.5q-45 0 -68.5 18.5t-23.5 52.5q0 18 7.5 34.5t24.5 35.5q26 31 65.5 74t132.5 142q17 18 36.5 39.5t58.5 62.5q50 54 72.5 78.5t38.5 42.5q10 12 14.5 20.5t4.5 16.5
q0 9 -6.5 14t-19.5 5h-123.5h-123.5q-12 0 -20 -6.5t-15 -20.5l-16 -41t-24 -64q-9 -21 -21 -30t-29 -9q-24 0 -36.5 16t-6.5 43q9 38 17 82t13 84q3 20 14 30.5t29 10.5q6 0 11.5 -1t15.5 -5q11 -4 18 -5.5t15 -1.5q27 0 169 -0.5t199 0.5q46 1 70 -16.5t24 -51.5
q0 -19 -7 -35.5t-21 -33.5q-26 -32 -75.5 -86.5t-146.5 -158.5q-15 -16 -32 -34t-49 -53q-50 -53 -71 -76t-36 -40q-9 -10 -12.5 -16.5t-3.5 -13.5q0 -9 6.5 -14t17.5 -5h129.5h129.5q14 0 22.5 5.5t16.5 21.5q9 18 21 46.5t23 59.5q8 22 19.5 31.5t29.5 9.5
q25 0 37.5 -16.5t5.5 -44.5q-5 -25 -13.5 -70.5t-16.5 -97.5z" />
    <glyph glyph-name="bracketleft" unicode="[" horiz-adv-x="417" 
d="M200 -299h-25h-14q-34 0 -50.5 19.5t-17.5 61.5v85.5t1 143.5q1 84 1.5 127t0.5 80q0 48 -0.5 99.5t-2.5 146.5q-2 91 -2 134v79q1 40 11.5 61.5t36.5 32.5q11 5 29 7t81 2q17 0 55.5 0.5t61.5 -0.5q30 0 45 -12.5t14 -36.5q0 -24 -15.5 -35.5t-46.5 -10.5l-114 3
q-23 1 -32.5 -9t-10.5 -34q-1 -33 -0.5 -73.5t2.5 -128.5q1 -81 1.5 -125.5t0.5 -84.5q0 -34 -0.5 -74t-1.5 -119q-2 -85 -2 -125.5v-72.5q1 -26 10 -35t35 -9l113 3q32 0 49 -12t16 -36q-1 -27 -16.5 -39.5t-48.5 -12.5h-17h-28q-22 1 -33.5 1h-22.5h-26t-37 -1z" />
    <glyph glyph-name="backslash" unicode="\" horiz-adv-x="449" 
d="M40 789q-36 0 -45 -20.5t9 -59.5q22 -51 70 -165t105 -250q22 -52 47.5 -113.5t71.5 -171.5q31 -72 43 -101t20 -48q9 -25 24.5 -36t40.5 -11q34 0 44 19.5t-6 56.5q-24 54 -59 136.5t-126 301.5q-49 120 -97.5 236t-72.5 173q-12 29 -28 41t-41 12z" />
    <glyph glyph-name="bracketright" unicode="]" horiz-adv-x="417" 
d="M217 780h25h14q34 0 50.5 -19.5t17.5 -61.5v-85.5t-1 -143.5q-1 -84 -1.5 -127t-0.5 -80q0 -48 0.5 -99.5t2.5 -146.5q2 -91 2 -134v-79q-1 -40 -11.5 -61.5t-36.5 -32.5q-11 -5 -29 -7t-81 -2q-17 0 -55.5 -0.5t-61.5 0.5q-30 0 -45 12.5t-14 36.5q0 24 15.5 35.5
t46.5 10.5l114 -3q23 -1 32.5 9t10.5 34q1 33 0.5 73.5t-2.5 128.5q-1 81 -1.5 125.5t-0.5 84.5q0 34 0.5 74t1.5 119q2 85 2 125.5v72.5q-1 26 -10 35t-35 9l-113 -3q-32 0 -49 12t-16 36q1 27 16.5 39.5t48.5 12.5h17h28q22 -1 33.5 -1h22.5h26t37 1z" />
    <glyph glyph-name="asciicircum" unicode="^" horiz-adv-x="435" 
d="M41 259zM149 304q-23 -19 -32.5 -26t-15.5 -11q-14 -9 -26 -6.5t-23 15.5q-11 12 -10.5 23t11.5 24q5 6 12 12.5t23 20.5q13 11 19.5 17t12.5 12q22 20 37 33.5l25 22.5q12 11 20 14t18 3t17.5 -3.5t18.5 -13.5l45 -42.5t17 -16.5q5 -5 11.5 -11t18.5 -17
q17 -15 24.5 -22t12.5 -13q9 -10 8 -20.5t-12 -23.5q-11 -12 -23.5 -14t-26.5 6q-9 6 -23.5 17t-78.5 64q-1 0 -5 3t-6 3q-3 0 -5 -1t-7 -5q-11 -8 -23 -17.5t-34 -26.5z" />
    <glyph glyph-name="underscore" unicode="_" horiz-adv-x="582" 
d="M276 -162q-74 0 -148.5 -0.5t-159.5 -1.5q-27 0 -40 12t-13 37q0 23 13.5 36t38.5 13q48 -1 112 -1h225q76 0 156.5 0.5t155.5 1.5q25 0 38 -12.5t13 -36.5q0 -23 -13 -36t-37 -13q-58 1 -193.5 1h-147.5z" />
    <glyph glyph-name="grave" unicode="`" horiz-adv-x="366" 
d="M282 641q-6 -9 -16 -13t-20 -2q-18 3 -87 49.5t-106 78.5q-16 13 -15 32.5t17 38.5q13 15 27.5 19.5t28.5 -2.5q19 -9 79 -63t88 -88q11 -12 12 -25t-8 -25z" />
    <glyph glyph-name="a" unicode="a" horiz-adv-x="617" 
d="M383 61q-29 -34 -73 -53t-96 -19q-83 0 -128.5 39t-45.5 110q0 70 47.5 111t146.5 55q14 2 28.5 4t39.5 5q20 2 29 3.5t16 2.5q28 5 38 16t10 38v8q0 46 -29.5 73t-80.5 27t-80.5 -21t-40.5 -64q-6 -24 -22 -37t-40 -13q-25 0 -40 15t-14 39q5 68 73.5 113.5t168.5 45.5
q107 0 162.5 -48.5t55.5 -141.5v-113.5v-113.5q0 -34 11 -49.5t36 -15.5q3 0 6.5 0.5t8.5 2.5l7.5 1.5t5.5 0.5q11 0 18 -8.5t7 -21.5q0 -10 -4.5 -19t-12.5 -15q-16 -12 -38 -18t-48 -6q-31 0 -50.5 7t-33.5 23q-6 7 -10.5 15.5t-8.5 19.5q-2 6 -3.5 8t-4.5 2q-2 0 -4.5 -2
t-6.5 -6zM158 152q0 -38 25 -58.5t72 -20.5q55 0 91 27.5t45 72.5q3 9 4 20t1 23v7q0 16 -6.5 22t-21.5 6h-6q-17 0 -44 -3t-59 -9q-52 -10 -76.5 -31t-24.5 -56z" />
    <glyph glyph-name="b" unicode="b" horiz-adv-x="651" 
d="M610 293q0 -141 -65 -222t-178 -81q-52 0 -93.5 17.5t-68.5 49.5q-2 3 -4.5 4.5t-4.5 1.5q-4 0 -6 -1.5t-5 -5.5q-5 -8 -9.5 -15.5t-8.5 -15.5q-7 -14 -19 -21.5t-28 -7.5q-20 0 -31.5 12t-11.5 33q0 8 1.5 16.5t7.5 23.5q6 17 8 28t2 22q1 32 1 72t-1 92q-1 167 -2 261
t-2 116q0 12 -6.5 18.5t-18.5 6.5h-6.5t-10.5 -1q-10 -1 -15.5 -1.5t-11.5 -0.5q-18 0 -28.5 10t-10.5 26t9.5 25t30.5 13q47 10 64.5 13t33.5 6q21 4 34 5.5t18 1.5q18 0 27.5 -11t8.5 -31v-26v-54q-1 -39 -1 -56v-29v-67t1 -31q0 -6 2.5 -8.5t6.5 -2.5q2 0 4 1t5 4
q29 38 70 57.5t91 19.5q102 0 161.5 -73t59.5 -194zM211 209q1 -64 37.5 -101t95.5 -37q70 0 108 48.5t38 138.5q0 101 -39 155.5t-109 54.5q-56 0 -91 -36t-39 -99q-1 -29 -1.5 -58.5t0.5 -65.5z" />
    <glyph glyph-name="c" unicode="c" horiz-adv-x="598" 
d="M538 132q-23 -64 -82.5 -103t-141.5 -39q-127 0 -200 75t-73 205q0 133 72.5 211.5t189.5 78.5q33 0 62 -7t50 -20q17 -10 21 -11.5t7 -1.5q7 0 11 4.5t5 12.5q1 18 11 27t27 9t26.5 -9.5t10.5 -26.5q0 -7 0.5 -16.5t0.5 -29.5q0 -17 0.5 -26.5t0.5 -18.5q0 -10 0.5 -21
t1.5 -31q2 -25 2.5 -36t0.5 -19q1 -15 -9.5 -25t-27.5 -10t-27.5 8t-14.5 24q-15 67 -54 104t-96 37q-70 0 -110 -49t-40 -137q0 -95 47 -151t124 -56q51 0 84.5 19.5t61.5 65.5q5 8 12.5 12t17.5 4q14 0 24 -9t10 -22q0 -3 -1.5 -9t-3.5 -13z" />
    <glyph glyph-name="d" unicode="d" horiz-adv-x="674" 
d="M428 69q-27 -39 -67 -59t-91 -20q-106 0 -167.5 72.5t-61.5 195.5q0 141 62.5 221.5t171.5 80.5q48 0 86 -18t61 -51q2 -3 4.5 -4.5t5.5 -1.5q4 0 5.5 2t2.5 8q1 36 1 95t-1 87q-1 12 -6.5 18t-17.5 6h-7t-11 -1q-11 -1 -17 -1.5t-12 -0.5q-17 0 -27 10t-10 25
q0 16 10 25.5t31 13.5q2 0 35 6t57 9q3 0 23 3t30 3q19 0 28.5 -11t9.5 -33q-1 -62 -1.5 -168t-0.5 -204v-119t1 -142q0 -14 6.5 -21t19.5 -7h18.5h18.5q16 0 26 -9t10 -24t-9.5 -25t-29.5 -14q-29 -7 -47 -10.5t-35 -6.5q-15 -2 -26.5 -3t-23.5 -1q-21 0 -30 14t-8 45
q1 10 -1 15.5t-6 5.5q-3 0 -5.5 -1.5t-4.5 -4.5zM160 280q0 -98 38.5 -150.5t108.5 -52.5q54 0 89.5 32t40.5 86q4 37 4 80.5t-4 73.5q-7 56 -43 89.5t-87 33.5q-72 0 -109.5 -49.5t-37.5 -142.5z" />
    <glyph glyph-name="e" unicode="e" horiz-adv-x="594" 
d="M542 129q-24 -65 -85.5 -102t-146.5 -37q-127 0 -198 72t-71 203q0 133 78 214t201 81q108 0 169.5 -61t61.5 -167q0 -39 -16.5 -55.5t-55.5 -16.5h-26.5h-46.5q-37 1 -56 1h-35h-64h-64q-15 0 -20.5 -6.5t-4.5 -22.5q4 -68 48.5 -108t115.5 -40q55 0 89.5 17.5
t66.5 61.5q6 8 13.5 12t14.5 4q14 0 24.5 -9.5t10.5 -22.5q0 -4 -1 -9t-2 -9zM165 363q-2 -15 2.5 -20.5t19.5 -6.5h48h48h57.5h56.5q17 0 25 7t8 23q0 47 -34 78t-89 31q-57 0 -95.5 -31.5t-46.5 -80.5z" />
    <glyph glyph-name="f" unicode="f" horiz-adv-x="431" 
d="M95 1q-16 -1 -22.5 -1h-10.5q-16 0 -26 11t-10 29q0 16 10 27t26 11h8h12q7 -1 11 -1h8q14 0 20 5t7 18q2 21 2.5 60t0.5 98v127t-1 57q-1 13 -6.5 18.5t-18.5 5.5h-6.5h-10.5q-8 -1 -12 -1h-8q-21 0 -32 11t-11 31t12.5 31.5t34.5 11.5h9.5t14.5 -1h13h7q6 0 9 2.5
t3 8.5q0 3 -0.5 7t-3.5 13q-5 16 -6.5 27t-1.5 24q0 69 46 111t124 42q60 0 97.5 -24t37.5 -61q0 -23 -14.5 -37.5t-36.5 -14.5q-14 0 -25 4t-20 12q-19 17 -29.5 21.5t-23.5 4.5q-28 0 -45 -18.5t-17 -50.5q0 -36 17 -54t51 -18h21.5t26.5 1q12 1 18.5 1h13.5q22 0 33 -11
t11 -31q-1 -21 -12.5 -32.5t-32.5 -11.5h-18.5t-26.5 1q-16 1 -23.5 1h-13.5q-15 0 -20.5 -5t-6.5 -19q-1 -30 -1.5 -83t-0.5 -99q0 -59 0.5 -98t2.5 -62q1 -13 6.5 -18t17.5 -5h16.5t23.5 1h21h13q16 0 26 -10.5t10 -26.5q0 -18 -10 -29.5t-27 -11.5h-26.5t-45.5 1
q-37 1 -57 1h-37t-35.5 -0.5t-49.5 -0.5z" />
    <glyph glyph-name="g" unicode="g" horiz-adv-x="616" 
d="M577 -55q0 -94 -84.5 -149.5t-237.5 -55.5q-107 0 -162.5 32.5t-55.5 95.5q0 40 24 70.5t81 57.5q3 1 5.5 4t2.5 5q0 3 -2 5t-6 3q-26 7 -39 23t-13 39q0 27 17 45.5t58 34.5q5 2 8 5t3 6q0 4 -2.5 7t-7.5 5q-54 25 -83.5 70.5t-29.5 104.5q0 94 65.5 150.5t169.5 56.5
q25 0 47 -2.5t51 -9.5q14 -4 20.5 -5t11.5 -1q10 0 16 7t9 22q6 26 21.5 38.5t43.5 12.5q35 0 60 -19t25 -48q0 -23 -13 -36.5t-36 -13.5q-5 0 -10.5 0.5t-15.5 2.5t-15 2.5t-9 0.5q-7 0 -11.5 -3.5t-4.5 -9.5q0 -5 3.5 -10.5t15.5 -18.5q20 -23 30.5 -54t10.5 -66
q0 -93 -66 -146.5t-184 -53.5q-36 0 -55 -11t-19 -31q0 -16 14 -24.5t40 -8.5h26.5t43.5 1h41.5h24.5q86 0 129.5 -32.5t43.5 -97.5zM154 -103q0 -37 32.5 -56.5t95.5 -19.5q87 0 133.5 25.5t46.5 71.5q0 32 -21.5 46.5t-67.5 15.5h-67t-40 -1q-55 -2 -84 -23t-28 -59z
M173 368q0 -62 35.5 -101.5t93.5 -39.5q55 0 85.5 29t30.5 83q0 61 -36.5 101t-95.5 40q-53 0 -83 -30t-30 -82z" />
    <glyph glyph-name="h" unicode="h" horiz-adv-x="713" 
d="M88 1q-12 -1 -17 -1h-9q-16 0 -26 11t-10 29q0 16 10 26.5t26 10.5h8.5h11.5q7 -1 11.5 -1h8.5q15 0 21 5.5t6 17.5q1 27 1.5 70t0.5 173q0 79 -1 186.5t-2 148.5q0 12 -6 18t-19 6h-7t-12 -1q-11 -1 -17 -1.5t-12 -0.5q-17 0 -27 10t-10 25q0 17 10 26.5t30 12.5
q7 1 37.5 6.5t52.5 8.5q23 3 37 4.5t18 1.5q20 0 30.5 -11t10.5 -33v-132v-132q0 -6 1.5 -8.5t5.5 -2.5q2 0 5 2t10 11q28 38 67.5 55.5t93.5 17.5q84 0 130.5 -51t46.5 -141v-52.5v-53.5q0 -72 0.5 -105.5t1.5 -59.5q0 -11 4.5 -16t14.5 -5h6.5t10.5 1h8.5h5.5
q16 0 26.5 -10t10.5 -26q0 -18 -10.5 -30t-27.5 -11q-36 1 -63 1.5t-56 0.5q-15 0 -31 -0.5t-41 -0.5q-15 -1 -21 -1h-10q-16 0 -25.5 10.5t-9.5 28.5q0 17 9.5 27.5t26.5 10.5h8.5t11.5 -1h6h3q12 0 17 5t5 17q1 27 2 73t1 89q-1 79 -7.5 114t-21.5 56q-14 20 -35.5 30
t-51.5 10q-28 0 -51 -10.5t-40 -32.5q-18 -22 -26 -56t-8 -97v-120.5t1 -54.5q0 -13 4.5 -18t15.5 -5h6t9 1h8.5h5.5q17 0 27 -9.5t10 -25.5q0 -18 -10.5 -30t-27.5 -12h-21t-34 1q-28 1 -44.5 1h-32.5q-17 0 -34 -0.5t-42 -0.5z" />
    <glyph glyph-name="i" unicode="i" horiz-adv-x="369" 
d="M98 1q-17 -1 -24 -1h-11q-16 0 -26 11t-10 29q0 16 10 26.5t26 10.5h8h12q7 -1 11 -1h8q15 0 21 5t7 18q1 20 1 55v136q0 40 -0.5 75t-1.5 61q-1 17 -7.5 24t-20.5 7q-4 0 -8 -0.5t-12 -0.5q-8 -1 -12.5 -1.5t-8.5 -0.5q-17 0 -27.5 10t-10.5 26t9.5 25.5t29.5 14.5
q6 2 30.5 7.5t66.5 14.5q17 4 27 5t23 1q19 0 29.5 -10.5t10.5 -28.5v-36v-67q-1 -49 -1 -72v-41q0 -65 0.5 -118t1.5 -85q0 -13 5.5 -18.5t17.5 -5.5h9t13 1h11h7q17 0 27 -10t10 -27q0 -18 -10 -29t-27 -11h-20.5t-36.5 1q-30 1 -45.5 1h-29.5q-16 0 -33.5 -0.5
t-48.5 -0.5zM254 715q1 -36 -33 -61.5t-80 -25.5q-31 0 -50 17t-19 44q0 35 32.5 61.5t74.5 26.5q37 0 56 -15.5t19 -46.5z" />
    <glyph glyph-name="j" unicode="j" horiz-adv-x="319" 
d="M122 140q1 90 0.5 154.5t-2.5 131.5q-1 17 -7.5 24t-20.5 7q-4 0 -8 -0.5t-11 -0.5l-12 -1.5t-8 -0.5q-18 0 -28.5 10t-10.5 26q0 15 9 24.5t29 15.5q22 6 42 11t48 11q16 3 29.5 4.5t28.5 1.5q20 0 30 -10t10 -29v-58t-1 -93q-1 -75 -1 -117v-82q0 -57 1 -105.5
t5 -113.5q2 -32 2.5 -47t0.5 -28q0 -66 -41.5 -102t-118.5 -36q-57 0 -89.5 20t-32.5 56q0 24 16.5 40.5t40.5 16.5q16 0 28 -5.5t26 -21.5q11 -13 18 -16.5t16 -3.5q16 0 24.5 10t7.5 29q0 13 -1.5 26t-5.5 39q-8 57 -11 104.5t-2 108.5zM244 715q1 -36 -32.5 -61.5
t-79.5 -25.5q-31 0 -50 17t-19 44q0 35 32.5 61.5t73.5 26.5q37 0 56 -15.5t19 -46.5z" />
    <glyph glyph-name="k" unicode="k" horiz-adv-x="695" 
d="M97 1q-17 -1 -23.5 -1h-10.5q-17 0 -27 11t-10 29q0 16 10 26.5t26 10.5h9h14q8 -1 13 -1h9q12 0 17 4.5t5 14.5q1 27 1.5 76.5t0.5 187.5q0 169 -0.5 233.5t-1.5 84.5q0 12 -5.5 18t-17.5 6h-7t-13 -1q-12 -1 -18.5 -1.5t-12.5 -0.5q-17 0 -27 10t-10 25q0 17 10 27
t29 12q7 1 15 2.5t24 3.5q23 3 35 5t23 4q1 0 22.5 3t31.5 3q20 0 30 -11.5t9 -32.5q-1 -80 -1.5 -220.5t-0.5 -209.5q0 -10 3 -14.5t10 -4.5q4 0 8.5 2.5t11.5 8.5q8 6 17.5 14.5t28.5 26.5q13 12 19.5 17.5t11.5 10.5q12 11 25.5 24t47.5 45q3 3 5 7t2 7q0 5 -4 8t-11 3
h-20h-20q-19 0 -29 10.5t-10 28.5q0 17 11 27t31 10h16h27q28 -1 46 -1h37h24t37 1h29.5h17.5q20 0 30.5 -10t10.5 -29q0 -17 -10.5 -27.5t-27.5 -10.5h-4.5t-8.5 1q-5 1 -7 1h-4q-9 0 -14.5 -2.5t-13.5 -9.5q-13 -11 -28 -24.5t-44 -41.5q-4 -4 -27 -25t-35 -32
q-5 -5 -7.5 -8.5t-2.5 -6.5q0 -4 1 -7t5 -8q1 -1 59.5 -87t93.5 -134q6 -7 10 -9.5t12 -2.5h7t11 1h8h4q17 0 27.5 -10t10.5 -26q0 -19 -10.5 -30t-28.5 -11h-16.5h-30.5q-29 1 -45 1h-30h-27t-33 -1h-21.5h-14.5q-17 0 -27.5 11t-10.5 28q0 16 10 26.5t27 10.5h3h6
q5 -1 7.5 -1h4.5q8 0 9.5 5t-2.5 13q-19 31 -47.5 73t-60.5 88q-3 4 -6.5 6t-6.5 2t-6 -1.5t-5 -3.5q-17 -14 -33.5 -28.5t-23.5 -21.5q-6 -6 -7.5 -11t-1.5 -16v-54t1 -32q0 -10 3 -14.5t11 -4.5h6t9 1h6h4q16 0 25.5 -10t9.5 -25q0 -19 -9.5 -30.5t-26.5 -11.5h-18t-29 1
q-23 1 -35.5 1h-24.5q-15 0 -32.5 -0.5t-47.5 -0.5z" />
    <glyph glyph-name="l" unicode="l" horiz-adv-x="374" 
d="M186 2q-29 0 -61.5 -0.5t-59.5 -1.5q-17 -1 -27 10.5t-10 30.5q0 17 10 27t26 10h10.5t15.5 -1h12.5h8.5q11 0 15.5 4.5t5.5 15.5q1 30 1 85v206q0 98 -0.5 178t-1.5 111q0 12 -6 18t-18 6h-6.5t-10.5 -1l-16.5 -1.5t-11.5 -0.5q-17 0 -27.5 9.5t-10.5 25.5q0 17 10 27
t30 12q16 3 35.5 6t59.5 9q18 3 31 4.5t23 1.5q19 0 28.5 -11t9.5 -33v-47.5v-89.5q-1 -84 -1 -128.5v-82.5v-217t1 -87q0 -11 4.5 -15.5t15.5 -4.5h8.5h12.5q9 1 14 1h9q17 0 27 -10.5t10 -27.5q0 -18 -10.5 -29.5t-27.5 -10.5q-44 1 -73 1.5t-55 0.5z" />
    <glyph glyph-name="m" unicode="m" horiz-adv-x="1040" 
d="M255 475q29 43 70 64t93 21q53 0 88 -20.5t60 -66.5q2 -5 4.5 -7.5t5.5 -2.5q2 0 3.5 0.5t7.5 6.5q35 46 77 68t95 22q45 0 79.5 -16.5t57.5 -49.5q17 -24 25.5 -56t8.5 -70v-52.5v-53.5v-106.5t1 -58.5q1 -12 5 -16.5t15 -4.5h6.5t10.5 1h10h6q17 0 26.5 -10t9.5 -26
q0 -19 -10 -30.5t-27 -10.5q-35 1 -63.5 1.5t-57.5 0.5q-15 0 -30.5 -0.5t-40.5 -0.5q-13 -1 -18.5 -1h-9.5q-17 0 -27 11t-10 29q0 17 10 27t27 10h6.5t9.5 -1h7h3q12 0 17 5t5 17q1 21 1 57v124q0 67 -6 99.5t-21 53.5q-13 19 -32 28t-48 9q-26 0 -48 -12t-37 -35
q-16 -22 -23 -55t-7 -93v-113.5t1 -63.5q0 -11 4.5 -16t15.5 -5h6t10 1h7.5h4.5q17 0 26.5 -10t9.5 -27q0 -19 -10 -30t-27 -10q-39 1 -64 1.5t-52 0.5q-15 0 -30.5 -0.5t-40.5 -0.5q-13 -1 -18.5 -1h-9.5q-16 0 -26 11t-10 29q0 17 10 27t27 10h6.5t10.5 -1h6h4q12 0 17 5
t5 17v25v51q1 43 1 64v36q0 69 -6 102t-22 56q-13 19 -31.5 28t-47.5 9q-27 0 -50 -12.5t-40 -35.5q-15 -22 -22.5 -58t-7.5 -89v-117.5t1 -57.5q0 -13 4 -18t15 -5h5t8 1h8h5q17 0 27 -9.5t10 -26.5q0 -18 -10 -29.5t-27 -11.5h-21t-33 1q-28 1 -44 1h-32t-32 -0.5
t-41 -0.5q-12 -1 -17.5 -1h-9.5q-17 0 -26.5 11t-9.5 30q0 16 10 26t26 10h8h11q8 -1 12 -1h9q14 0 20 5.5t7 17.5q1 23 1 53v115q0 47 -0.5 88.5t-1.5 69.5q-1 17 -8 24.5t-22 7.5q-4 0 -8 -0.5t-12 -0.5q-9 -1 -13 -1.5t-8 -0.5q-18 0 -28 9.5t-10 26.5q0 16 9.5 25.5
t29.5 13.5q10 2 20.5 4.5t28.5 6.5t26.5 5.5t16.5 3.5q31 5 39.5 6t15.5 1q16 0 25 -9.5t9 -26.5v-9t-1 -15v-10.5v-5.5q0 -5 2 -8t6 -3q2 0 4.5 1.5t3.5 4.5z" />
    <glyph glyph-name="n" unicode="n" horiz-adv-x="713" 
d="M90 1q-13 -1 -18 -1h-9q-17 0 -26.5 11t-9.5 30q0 16 10 26t26 10h8h11q8 -1 12 -1h9q14 0 20 5.5t7 17.5q1 22 1 52.5v116.5q0 48 -0.5 90t-1.5 67q-1 16 -8.5 24t-22.5 8q-3 0 -7 -0.5t-12 -0.5q-9 -1 -13 -1.5t-8 -0.5q-18 0 -28 9.5t-10 26.5q0 15 9.5 24.5
t29.5 14.5q17 4 33 7.5t59 12.5q31 5 39.5 6t15.5 1q17 0 25.5 -9t9.5 -27v-9t-1 -13t-1 -11.5v-7.5q0 -6 1.5 -8.5t5.5 -2.5q2 0 3 0.5t6 5.5q38 45 80 65.5t93 20.5q82 0 129 -51t48 -140v-53.5v-53.5v-65.5t1 -99.5q1 -12 5 -16.5t15 -4.5h6.5t10.5 1h8h5q17 0 27 -10
t10 -27q0 -18 -10.5 -29.5t-27.5 -10.5q-36 1 -63 1.5t-56 0.5q-15 0 -30.5 -0.5t-40.5 -0.5q-14 -1 -20 -1h-10q-17 0 -27 11t-10 29q0 17 10 27t27 10h8.5t11.5 -1h6h3q12 0 17 5t6 17q1 20 1 52.5v104.5q-1 84 -7.5 119t-21.5 56q-14 20 -34.5 29t-50.5 9q-29 0 -51 -10
t-39 -31q-20 -23 -28.5 -57t-8.5 -90v-123.5t1 -57.5q1 -12 5 -17.5t14 -5.5h6t9 1h8h6q17 0 27 -9.5t10 -26.5q0 -18 -10.5 -29.5t-27.5 -11.5h-21t-33 1q-28 1 -44.5 1h-32.5t-32.5 -0.5t-41.5 -0.5z" />
    <glyph glyph-name="o" unicode="o" horiz-adv-x="635" 
d="M594 272q0 -127 -79.5 -204.5t-203.5 -77.5q-123 0 -196.5 76.5t-73.5 204.5q0 127 82 208t203 81q120 0 194 -79t74 -209zM162 296q0 -97 46.5 -157t122.5 -60q65 0 103.5 46t38.5 126q0 99 -46.5 160.5t-120.5 61.5q-65 0 -104.5 -48.5t-39.5 -128.5z" />
    <glyph glyph-name="p" unicode="p" horiz-adv-x="692" 
d="M99 -250q-15 -1 -21.5 -1h-11.5q-17 0 -27.5 11t-10.5 30q0 17 10.5 27.5t27.5 10.5h8.5t12.5 -1q7 -1 11 -1h7q13 0 19.5 5.5t6.5 16.5q1 50 1.5 134.5t0.5 182.5v188t-1 73q0 15 -7 22.5t-20 7.5q-4 0 -8.5 -0.5t-13.5 -0.5q-9 -1 -14 -1.5t-9 -0.5q-19 0 -29.5 9.5
t-10.5 27.5q0 16 10.5 25.5t32.5 14.5q27 6 50 10.5t46 8.5q24 4 38.5 6t18.5 2q17 0 25.5 -9.5t9.5 -29.5v-24t-1 -15q-1 -10 5.5 -12t11.5 6q24 40 68 63.5t98 23.5q102 0 160 -74t58 -201q0 -142 -61.5 -220t-174.5 -78q-47 0 -85 15.5t-63 43.5q-2 3 -4 4t-5 1
q-4 0 -6.5 -3t-2.5 -7q-1 -25 -1.5 -94t0.5 -99q1 -11 6 -16.5t16 -5.5h12.5t20.5 1q13 1 19 1h11q17 0 27 -10.5t10 -28.5t-10.5 -29t-27.5 -11h-19.5t-34.5 1q-35 1 -55 1h-40q-19 0 -37.5 -0.5t-46.5 -0.5zM248 196q2 -57 40.5 -92t96.5 -35q72 0 109.5 48t37.5 141
q0 101 -38 153t-110 52q-57 0 -94 -36.5t-41 -96.5q-1 -33 -1.5 -61t0.5 -73z" />
    <glyph glyph-name="q" unicode="q" horiz-adv-x="652" 
d="M558 -248q-6 -1 -31 -4t-36 -3q-25 0 -38 12.5t-12 35.5q1 36 1 75v109v56.5t-1 22.5q-1 5 -3 7t-5 2t-5 -1t-5 -5q-25 -33 -65.5 -51t-90.5 -18q-105 0 -164.5 70t-60.5 190q-2 145 63.5 227.5t181.5 82.5q49 0 88.5 -19t69.5 -58q3 -4 5.5 -5.5t5.5 -1.5t6 2t6 8
q4 6 6.5 11.5t5.5 12.5q10 24 23 35t32 11q20 0 32.5 -13t12.5 -34q0 -8 -2 -18.5t-7 -32.5q-7 -24 -9 -36.5t-2 -23.5v-22.5v-49.5q-1 -80 -1 -130.5v-97.5v-112t1 -126q0 -14 5.5 -20t18.5 -6q2 0 6.5 0.5t15.5 0.5q12 1 17.5 1.5t9.5 0.5q17 0 26.5 -9.5t9.5 -26.5
q0 -18 -9 -28t-28 -12q-32 -4 -46 -6t-28 -3zM162 278q-1 -94 38 -145t110 -51q57 0 92 32.5t39 88.5q2 42 2 72t-1 59q-3 64 -38 99.5t-95 35.5q-69 0 -107.5 -50t-39.5 -141z" />
    <glyph glyph-name="r" unicode="r" horiz-adv-x="491" 
d="M386 560q37 0 58 -19t21 -52t-19.5 -53.5t-50.5 -20.5q-10 0 -20.5 2t-30.5 7q-16 5 -23 6.5t-13 1.5q-10 1 -18.5 -2t-15.5 -9q-10 -9 -15 -23t-6 -33q-1 -58 -1.5 -80.5t-0.5 -46.5q0 -61 0.5 -89.5t1.5 -46.5q1 -13 6.5 -18.5t17.5 -5.5h13.5t23.5 1h22h12
q16 0 26.5 -10.5t10.5 -27.5q0 -18 -11 -29.5t-28 -11.5h-20.5t-37.5 1q-36 1 -56 1h-38h-34t-52 -1q-21 -1 -30 -1h-15q-16 0 -26 11.5t-10 29.5q0 16 10.5 27t26.5 11h6.5h11.5q9 -1 14.5 -1h10.5q13 0 19 5.5t7 18.5q1 40 1.5 80t0.5 86v115.5t-1 43.5q-1 16 -8.5 23
t-23.5 7q-4 0 -8.5 -0.5t-13.5 -0.5l-13.5 -1.5t-8.5 -0.5q-18 0 -28 9.5t-10 26.5q0 15 9.5 24.5t29.5 14.5q17 4 33 7.5t59 12.5q23 5 34.5 6.5t20.5 1.5q17 0 26.5 -10t10.5 -29v-24.5t-1 -11.5q0 -9 6 -11t11 6q12 19 26.5 34.5t31.5 27.5q15 11 32.5 16t36.5 5z" />
    <glyph glyph-name="s" unicode="s" horiz-adv-x="554" 
d="M137 5q-2 -13 -12 -20.5t-26 -7.5q-18 0 -27 10.5t-10 31.5q0 4 -0.5 9.5t-0.5 16.5q0 21 -0.5 32t-1.5 21q-1 9 -2 18.5t-3 25.5l-1.5 21t-1.5 13q-1 21 10 33t29 12q15 0 25 -8t16 -25q9 -27 18.5 -44t22.5 -31q22 -22 52 -33.5t69 -11.5q42 0 67 20.5t25 54.5
q0 37 -26.5 56t-93.5 33l-46 10q-85 19 -124.5 57t-39.5 101q0 74 52.5 117t141.5 43q31 0 58.5 -5t53.5 -16q16 -7 22 -8.5t10 -1.5q8 0 11.5 3.5t5.5 13.5q4 15 13.5 22.5t23.5 7.5q17 0 26.5 -9.5t10.5 -27.5q0 -6 0.5 -13.5t0.5 -24.5q0 -14 0.5 -22t0.5 -15t0.5 -15
t2.5 -23q1 -17 1.5 -24.5t0.5 -14.5q1 -17 -9 -27t-27 -10t-26.5 8t-15.5 27q-6 21 -17 38t-26 29q-20 16 -46.5 24.5t-57.5 8.5q-45 0 -69 -18.5t-24 -52.5t26 -52.5t87 -31.5l47 -10q91 -19 130.5 -56.5t39.5 -107.5q0 -74 -53.5 -119.5t-143.5 -45.5q-34 0 -63 6t-60 20
q-13 7 -18.5 8.5t-9.5 1.5q-8 0 -12 -5t-6 -17z" />
    <glyph glyph-name="t" unicode="t" horiz-adv-x="434" 
d="M384 41q-23 -25 -55 -38t-72 -13q-73 0 -108 39.5t-34 119.5q2 62 2 157.5t-1 136.5q0 13 -5 18t-19 5h-4h-10q-11 -1 -16.5 -1h-8.5q-20 0 -31.5 11t-11.5 30q0 11 3.5 19.5t10.5 14.5q7 5 15 7.5t18 2.5h9t16 -1h11h5q11 0 15.5 4t4.5 14v16t-1 26v24v14q0 13 3.5 22.5
t10.5 15.5q5 5 12.5 9t17.5 6q22 6 26.5 7t8.5 1q7 0 12 -1.5t10 -4.5q8 -5 11.5 -15.5t3.5 -25.5v-19.5t-1 -30.5v-26v-16q0 -12 4.5 -16t17.5 -4h13.5h30.5q27 1 38.5 1h18.5q22 0 34 -11.5t12 -31.5t-12.5 -31.5t-33.5 -11.5h-15.5t-34.5 1q-23 1 -32 1h-14
q-16 0 -21 -5.5t-5 -21.5v-45q-1 -91 -1 -154t1 -94q1 -35 14 -51t42 -16q13 0 24 4.5t28 18.5q5 5 11 7t13 2q15 0 25 -10t10 -25q0 -9 -4 -18t-12 -17z" />
    <glyph glyph-name="u" unicode="u" 
d="M563 556q20 0 30 -10.5t10 -30.5v-31t-1 -58q-1 -54 -1 -82.5v-52.5v-131.5t1 -45.5q0 -16 6 -23t20 -7h8t12 1h10.5h7.5q16 0 25.5 -9.5t9.5 -25.5q0 -17 -9.5 -27t-28.5 -13q-4 -1 -9 -1.5l-15 -1.5q-15 -2 -23 -3.5t-16 -2.5q-17 -3 -32 -4.5t-27 -1.5q-21 0 -33 10
t-14 29q-1 10 -1.5 17t-0.5 13q0 4 -2 6.5t-6 2.5q-3 0 -5 -1t-5 -4q-33 -40 -72 -59t-90 -19q-87 0 -134.5 50t-47.5 142q0 122 -0.5 172t-1.5 76q0 14 -6.5 20.5t-20.5 6.5q-4 0 -8 -0.5t-13 -1.5l-13.5 -1.5t-8.5 -0.5q-18 0 -28.5 10t-10.5 27q0 15 10 24.5t30 14.5
q38 9 57 13t36 7q34 5 42 6t14 1q19 0 29 -10.5t10 -30.5v-31.5v-70.5q-1 -60 -1 -86.5v-43.5q0 -70 6 -105.5t20 -55.5t36 -30t52 -10q31 0 55 10.5t40 30.5q16 21 22.5 56.5t6.5 101.5v74.5v74.5q0 14 -6.5 20.5t-20.5 6.5q-4 0 -8.5 -0.5l-13.5 -1.5t-14 -1.5t-9 -0.5
q-18 0 -28 10t-10 27q0 15 10 24.5t30 14.5q13 3 36 8t57 12q20 4 32.5 5.5t23.5 1.5z" />
    <glyph glyph-name="v" unicode="v" horiz-adv-x="687" 
d="M405 6q-11 -9 -23.5 -12.5t-30.5 -3.5q-25 0 -38.5 3.5t-23.5 11.5q-10 7 -18 20t-22 50q-8 20 -18.5 47t-33.5 87q-46 120 -66 171t-31 79q-4 9 -9 12t-13 3h-3h-7q-5 -1 -8 -1h-6q-18 0 -28 10.5t-10 28.5q0 17 10.5 27.5t28.5 10.5h19t30 -1q25 -1 38.5 -1h26.5h26.5
t38.5 1q21 1 31.5 1h19.5q18 0 28 -11t10 -29q0 -17 -10 -27t-27 -10h-12t-16 1h-7.5h-4.5q-11 0 -16 -6.5t-1 -17.5q43 -123 72 -203t49 -134q3 -6 5.5 -8.5t6.5 -2.5t7.5 2.5t5.5 8.5q33 88 62.5 169.5t46.5 133.5q4 13 7 22t4 15q2 11 -3 16t-18 5h-7h-12q-9 -1 -13.5 -1
h-7.5q-17 0 -27 10.5t-10 27.5t10.5 28t27.5 11h13.5h25.5q26 -1 41.5 -1h30.5h24t32 1h20.5h12.5q16 0 26 -11t10 -28q0 -16 -9 -27t-24 -11h-5t-8 1h-7h-3q-9 0 -14 -3.5t-8 -12.5q-12 -31 -26.5 -69.5t-44.5 -118.5q-34 -90 -49 -130t-26 -68t-20 -42t-22 -24z" />
    <glyph glyph-name="w" unicode="w" horiz-adv-x="1030" 
d="M385 1q-11 -7 -22.5 -9.5t-28.5 -2.5q-20 0 -33 2.5t-23 7.5q-12 7 -21 23t-23 52q-8 23 -19 54t-35 101q-33 99 -49.5 146t-29.5 83q-3 8 -8 12t-12 4h-4.5h-7.5q-6 -1 -9 -1h-6q-17 0 -27.5 11t-10.5 28t10.5 27.5t28.5 10.5h18t30 -1q26 -1 41 -1h29h26t35 1
q19 1 28.5 1h18.5q18 0 28.5 -10.5t10.5 -27.5t-10.5 -28t-27.5 -11h-10.5t-15.5 1h-9.5h-4.5q-9 0 -13 -5.5t-2 -15.5q0 -2 1 -4.5t2 -7.5q2 -6 3 -10t2 -7q17 -54 46.5 -146t54.5 -167q2 -6 4.5 -8.5t7.5 -2.5t8 2.5t5 8.5q25 73 53 160t46 148q3 8 5.5 17.5t4.5 21.5
q2 8 -1.5 12t-11.5 4h-22h-22q-17 0 -26.5 10.5t-9.5 27.5t10 27.5t27 10.5h12t26 -1q33 0 50.5 -0.5t32.5 -0.5h32.5t43.5 1q17 1 24.5 1h13.5q18 0 28 -10t10 -28t-9 -28t-25 -10h-22.5h-22.5q-7 0 -10.5 -5.5t-1.5 -14.5q1 -7 5 -20.5t4 -14.5q13 -45 37.5 -120.5
t61.5 -186.5q3 -7 5.5 -9.5t6.5 -2.5q3 0 5.5 2.5t5.5 8.5q14 40 35 107t65 208q2 8 3.5 14.5t2.5 11.5q2 11 -2.5 17t-15.5 6h-5h-9q-8 -1 -11.5 -1h-7.5q-17 0 -26.5 10t-9.5 28t9.5 28t27.5 10h13.5t23.5 -1q23 -1 37.5 -1h29.5h24.5t33.5 1q14 1 20 1h12q17 0 27 -10.5
t10 -27.5t-9.5 -28t-24.5 -11h-5t-9 1h-7.5h-4.5q-9 0 -14.5 -4t-8.5 -13q-52 -155 -83.5 -247.5t-42.5 -123.5q-11 -33 -21 -52t-22 -30q-9 -8 -21 -11.5t-33 -3.5q-22 0 -37 3t-24 10q-12 8 -21.5 28t-22.5 65q-7 21 -16.5 51t-28.5 92q-12 39 -17.5 56.5t-9.5 30.5
q-2 6 -4 9t-6 3q-2 0 -4.5 -3t-4.5 -9q-39 -121 -52.5 -162.5t-23.5 -69.5q-15 -44 -26.5 -64t-24.5 -28z" />
    <glyph glyph-name="x" unicode="x" horiz-adv-x="680" 
d="M215 0q-24 1 -37.5 1h-27.5h-25t-32 -1q-13 -1 -19 -1h-11q-17 0 -27.5 11t-10.5 28q0 16 10.5 27t25.5 11h5.5t7.5 -1h7.5h4.5q7 0 12 3t12 10q16 17 36 40.5t39 47.5q7 9 15.5 19t23.5 28q13 16 19 23t11 13q7 8 6.5 15.5t-7.5 15.5q-12 16 -25.5 33.5l-40.5 52.5
q-18 24 -36.5 46.5t-31.5 38.5q-7 8 -12.5 10.5t-14.5 2.5h-5t-9 -1h-8.5h-4.5q-16 0 -26.5 10.5t-10.5 26.5q0 18 11 29t29 11h17.5t28.5 -1q25 -1 39.5 -1h28.5h31t39 1q17 1 25 1h16q18 0 28 -10.5t10 -27.5t-9.5 -28t-25.5 -11h-6.5t-9.5 1h-7.5h-4.5q-9 0 -12 -7t3 -15
q8 -13 17.5 -26.5t21.5 -28.5l27 -34.5t18 -22.5q5 -7 11 -7t12 7q11 13 23 27.5t24 30.5q11 14 21 28t19 26q6 9 2.5 16t-12.5 7h-4.5h-7.5q-6 -1 -9 -1h-6q-18 0 -27.5 10t-9.5 28t10 28t29 10h15t24 -1q24 -1 38.5 -1h30.5h21t31 1q15 1 22 1h12q17 0 27 -10.5t10 -27.5
t-10 -28t-25 -11h-6t-9 1h-6h-4q-8 0 -14 -3t-13 -11q-4 -5 -9.5 -12t-19.5 -24q-16 -20 -24.5 -31t-16.5 -21q-19 -22 -36.5 -43.5t-33.5 -42.5q-6 -7 -6 -14t6 -15q27 -33 40 -49.5t24 -30.5q5 -7 22.5 -29t46.5 -59q6 -8 12 -11t15 -3h5t9 1h7.5h4.5q17 0 27 -10.5
t10 -26.5q0 -18 -10.5 -29t-28.5 -11h-18t-31 1q-26 1 -39.5 1h-26.5h-24.5t-34.5 -1q-17 -1 -26 -1h-17q-17 0 -27.5 10.5t-10.5 27.5t10 28t27 11h5.5h6.5q4 -1 7 -1h6q10 0 12.5 6t-3.5 15q-6 8 -15.5 21t-25.5 32q-18 23 -29.5 37t-16.5 20q-6 7 -12 7t-12 -7
q-4 -5 -10 -12l-18 -21q-7 -8 -11 -12.5t-7 -8.5l-22 -27.5t-23 -30.5q-5 -7 -2 -13t11 -6h5h9q6 1 9 1h6q17 0 27 -10.5t10 -28.5q0 -17 -10 -27.5t-28 -10.5h-16.5t-25.5 1z" />
    <glyph glyph-name="y" unicode="y" horiz-adv-x="717" 
d="M393 -111q-37 -78 -83 -111t-118 -33q-55 0 -89 24.5t-34 63.5q0 28 17 45.5t45 17.5q17 0 30 -6t26 -22q15 -17 26 -23t25 -6q32 0 52.5 25t20.5 65q0 21 -5.5 41.5t-31.5 84.5q-76 184 -108.5 262.5t-57.5 135.5q-5 12 -11.5 16.5t-15.5 4.5h-4.5h-7.5q-6 -1 -8.5 -1
h-5.5q-18 0 -28 10t-10 27q0 19 10.5 29.5t28.5 10.5h17t27 -1q26 -1 41 -1h31h28t38 1q21 1 31.5 1h19.5q19 0 29 -10t10 -28t-10 -28.5t-28 -10.5h-9t-15 1h-12.5h-5.5q-9 0 -13 -4.5t-2 -11.5q2 -8 5 -18t7 -21q21 -57 58.5 -152t65.5 -163q2 -6 5 -8.5t8 -2.5q4 0 7 2.5
t5 7.5q21 54 49.5 134t54.5 157q6 17 10.5 33t7.5 27q2 9 -3 14.5t-15 5.5h-6.5h-10.5q-9 -1 -13 -1h-8q-18 0 -27.5 10.5t-9.5 28.5q0 17 10 27.5t28 10.5h14t25 -1q27 -1 42.5 -1h30.5t28.5 0.5t33.5 0.5q12 1 17.5 1h10.5q18 0 28 -10t10 -29q0 -17 -10 -27.5t-26 -10.5
h-5.5t-7.5 1h-6h-4q-8 0 -13.5 -4.5t-9.5 -14.5q-7 -16 -46 -118t-111 -290q-26 -64 -41 -98t-28 -60z" />
    <glyph glyph-name="z" unicode="z" horiz-adv-x="582" 
d="M378 1h-166t-76 -1q-43 -1 -65 15t-22 48q0 17 9.5 34.5t31.5 41.5q29 31 66.5 70t81.5 82q63 64 90.5 93t45.5 48q10 11 14 18t4 13t-4 9t-12 3h-38.5h-38.5h-67t-39 -1q-13 -1 -20.5 -6.5t-13.5 -20.5t-12 -31.5l-14 -38.5q-6 -15 -16 -22.5t-25 -7.5q-21 0 -31.5 14
t-6.5 37q6 29 11.5 55.5t9.5 51.5q4 26 15 37t36 11h11t18 -1q17 -1 27 -1.5t20 -0.5q45 -1 102 -1t135 2q44 1 67 -14.5t23 -47.5q0 -21 -12 -43.5t-40 -54.5q-18 -22 -46.5 -52t-92.5 -94q-55 -57 -88 -91.5t-43 -46.5q-6 -6 -8 -10.5t-1 -8.5q1 -5 5.5 -8t11.5 -3
q5 0 26.5 -0.5t60.5 -0.5h59t35 1t23 6.5t13 19.5q5 15 10 29.5t10 33.5q6 17 16 25.5t25 8.5q20 -1 30.5 -14.5t7.5 -35.5q-1 -9 -3 -20.5t-6 -36.5q-3 -21 -5 -32t-3 -20q-3 -24 -15 -34t-38 -10q-6 0 -13 0.5t-22 1.5q-18 1 -28 1.5t-20 0.5z" />
    <glyph glyph-name="braceleft" unicode="{" horiz-adv-x="441" 
d="M372 -300q-9 0 -47 0.5t-76 -0.5q-71 -2 -105.5 31t-34.5 102q0 30 1.5 62.5t5.5 91.5q3 49 4 73t1 45q0 44 -15.5 68.5t-51.5 40.5q-10 4 -15.5 11t-5.5 17t5 17t16 12q38 19 52.5 42.5t14.5 65.5q0 20 -1 43t-4 70q-4 58 -5.5 91t-1.5 64q0 69 35 102.5t105 31.5
q39 -1 76 -0.5t46 0.5q27 0 41.5 -13t14.5 -37t-13.5 -36.5t-40.5 -12.5h-16.5h-25.5q-22 1 -35 1h-27q-28 0 -39.5 -13t-11.5 -43q0 -23 1 -50.5t4 -80.5q3 -51 4 -75.5t1 -45.5q0 -46 -13.5 -76t-41.5 -46q-5 -3 -6.5 -5t-1.5 -5t1.5 -5.5t6.5 -5.5q29 -19 42 -48.5
t13 -73.5q0 -21 -1 -46.5t-4 -78.5q-3 -54 -4 -81.5t-1 -50.5q0 -31 11.5 -44t39.5 -12q27 1 47.5 1h56.5q27 0 40.5 -12t13.5 -36t-14 -37t-41 -13z" />
    <glyph glyph-name="bar" unicode="|" horiz-adv-x="228" 
d="M173 715q-1 -74 -2 -187t-1 -208q-1 -135 -0.5 -298.5t1.5 -218.5q0 -31 -14.5 -47.5t-41.5 -16.5q-29 0 -42 14.5t-13 48.5q1 45 1.5 191t0.5 286v218v218q-1 33 14 51t44 18q28 0 41 -16.5t12 -52.5z" />
    <glyph glyph-name="braceright" unicode="}" horiz-adv-x="441" 
d="M69 781q9 0 47 -0.5t76 0.5q71 2 105.5 -31t34.5 -102q0 -30 -1.5 -62.5t-5.5 -91.5q-3 -49 -4 -73t-1 -45q0 -44 15.5 -68.5t51.5 -40.5q10 -4 15.5 -11t5.5 -17t-5 -17t-16 -12q-38 -19 -52.5 -42.5t-14.5 -65.5q0 -20 1 -43t4 -70q4 -58 5.5 -91t1.5 -64
q0 -69 -35 -102.5t-105 -31.5q-39 1 -76 0.5t-46 -0.5q-27 0 -41.5 13t-14.5 37t13.5 36.5t40.5 12.5h16.5h25.5q22 -1 35 -1h27q28 0 39.5 13t11.5 43q0 23 -1 50.5t-4 80.5q-3 51 -4 75.5t-1 45.5q0 46 13.5 76t41.5 46q5 3 6.5 5t1.5 5t-1.5 5.5t-6.5 5.5
q-29 19 -42 48.5t-13 73.5q0 21 1 46.5t4 78.5q3 54 4 81.5t1 50.5q0 31 -11.5 44t-39.5 12q-27 -1 -47.5 -1h-56.5q-27 0 -40.5 12t-13.5 36t14 37t41 13z" />
    <glyph glyph-name="asciitilde" unicode="~" horiz-adv-x="444" 
d="M42 280zM103 308q-4 -15 -11.5 -21.5t-21.5 -6.5t-21 6.5t-7 20.5q0 61 29.5 97t79.5 36q22 0 42.5 -8t50.5 -32q22 -18 33 -23t22 -5q18 0 27 10t17 37q4 16 12 22t23 6q12 0 19 -7.5t7 -20.5q0 -63 -29 -97.5t-80 -34.5q-28 0 -50.5 9t-51.5 35q-18 16 -27.5 21
t-19.5 5q-17 0 -27 -11.5t-16 -37.5z" />
    <glyph glyph-name="exclamdown" unicode="&#xa1;" horiz-adv-x="275" 
d="M104 275q2 15 11 23t22 8t22 -8.5t10 -22.5q10 -103 18 -218.5t9 -176.5q1 -45 -18.5 -67t-59.5 -22q-32 0 -48 21.5t-14 60.5q6 80 22 212t26 190zM52 467q0 39 27.5 66t67.5 27q36 0 56.5 -19t20.5 -51q-1 -37 -29.5 -65t-66.5 -29q-34 0 -55 19.5t-21 51.5z" />
    <glyph glyph-name="cent" unicode="&#xa2;" horiz-adv-x="585" 
d="M347 9q0 -20 -10.5 -31t-31.5 -11t-32.5 11t-11.5 31v10t1 16v14.5v8.5q0 9 -3 13t-11 5q-99 19 -153 90t-54 184q0 115 56 190.5t153 94.5q7 1 10 4.5t3 11.5v8.5v14.5q-1 11 -1 16v10q0 20 11 30.5t32 10.5t32 -10.5t11 -30.5v-9v-15q-1 -11 -1 -16v-10q0 -7 2.5 -10.5
t8.5 -5.5q24 -6 35.5 -11t21.5 -11q11 -6 18 -9t10 -3q6 0 9.5 4t4.5 12q1 18 11 27.5t27 9.5t26.5 -9.5t10.5 -26.5v-51.5t1 -38.5q0 -8 1 -34.5t3 -72.5q1 -16 -9.5 -26t-27.5 -10t-28 8.5t-14 24.5q-13 66 -52 103.5t-96 37.5q-72 0 -113.5 -49.5t-41.5 -137.5
q0 -95 47.5 -152t126.5 -57q50 0 83 18.5t66 68.5q5 8 12 12t16 4q14 0 24 -9t10 -22q0 -4 -1 -9.5t-4 -13.5q-17 -52 -63.5 -89t-113.5 -49q-6 -1 -8.5 -4.5t-2.5 -10.5v-24.5v-24.5z" />
    <glyph glyph-name="sterling" unicode="&#xa3;" horiz-adv-x="645" 
d="M184 12q-24 -15 -38 -20t-29 -5q-34 0 -55 20.5t-21 56.5q0 37 21.5 58t57.5 21q7 0 14 -1t19 -3q9 -3 14 -3.5t9 -0.5q21 0 33 16t12 44q0 19 -6.5 39.5t-31.5 69.5q-2 4 -5 6t-7 2h-40.5h-40.5t-31 10.5t-11 31.5t11 31.5t31 10.5h19.5h18.5q6 0 8 3t0 9
q-9 33 -12.5 54t-3.5 41q0 103 68.5 164.5t181.5 61.5q97 0 158.5 -54t63.5 -131q1 -30 -12 -46t-37 -16q-22 0 -35.5 12t-18.5 38q-4 21 -7.5 34t-5.5 18q-12 28 -40 44t-66 16q-64 0 -100.5 -39t-36.5 -107q0 -22 4 -44t14 -50q2 -5 4.5 -7t7.5 -2h34t53 1h51.5h32.5
q20 0 31 -10.5t11 -31.5t-11 -31.5t-31 -10.5h-66.5h-66.5q-5 0 -7.5 -2.5t-1.5 -8.5q14 -36 17 -49.5t3 -25.5q0 -18 -2 -32.5t-8 -34.5q-4 -13 -5 -20t-1 -14q0 -22 26 -34t76 -12q66 0 100.5 28.5t46.5 94.5q3 19 12.5 28t25.5 9q17 0 25.5 -11t8.5 -33v-14t-1 -10
q-10 -87 -65.5 -135.5t-147.5 -48.5q-38 0 -71 6.5t-73 24.5q-16 7 -22.5 9t-11.5 2q-7 0 -15.5 -3t-25.5 -14z" />
    <glyph glyph-name="currency" unicode="&#xa4;" horiz-adv-x="569" 
d="M289 461q-44 0 -72.5 -30t-28.5 -77q0 -46 26 -73.5t68 -27.5q44 0 72.5 30t28.5 77q0 46 -26 73.5t-68 27.5zM457 444q11 -24 15 -42.5t4 -39.5q0 -23 -4.5 -43.5t-15.5 -46.5q-3 -8 -4 -10.5t-1 -4.5q0 -4 5.5 -10.5t56.5 -55.5q8 -8 11.5 -15t3.5 -15q0 -15 -15.5 -30
t-31.5 -15q-8 0 -15 3.5t-14 10.5q-45 48 -53 55t-15 7q-2 0 -5 -1t-11 -4q-25 -10 -45 -14t-42 -4t-41 3.5t-41 11.5q-7 3 -9 3.5t-4 0.5q-7 0 -16.5 -8.5t-49.5 -50.5q-7 -7 -14.5 -11t-15.5 -4q-16 0 -31 15.5t-15 31.5q0 7 3 13.5t10 13.5q50 49 56 55.5t6 11.5
q0 2 -1 4.5t-4 10.5q-11 25 -15 45t-4 42t4.5 41.5t15.5 43.5q3 8 4 10.5t1 4.5q0 5 -9 15t-53 50q-7 7 -11 14.5t-4 15.5q0 15 15 30.5t31 15.5q8 0 15.5 -3.5t14.5 -10.5q46 -48 54 -55t15 -7q2 0 4.5 1t10.5 4q25 10 45 14t43 4q21 0 40 -3t41 -12q7 -3 9.5 -3.5
t4.5 -0.5q6 0 15.5 8.5t49.5 50.5q7 7 14.5 11t15.5 4q16 0 31 -15.5t15 -31.5q0 -7 -3 -13.5t-10 -13.5q-50 -49 -56 -55.5t-6 -11.5q0 -2 1 -4.5t4 -10.5z" />
    <glyph glyph-name="yen" unicode="&#xa5;" horiz-adv-x="753" 
d="M300 0q-22 -1 -32 -1h-18q-17 0 -27 11.5t-10 30.5t10 30t27 11h8.5t14.5 -1q11 -1 16.5 -1h10.5q14 0 19.5 5t6.5 17q1 8 1 19v35q0 5 -2.5 7.5t-7.5 2.5h-24h-39q-29 -1 -43.5 -1h-26.5q-20 0 -31 10.5t-11 31.5q0 20 11 30t31 10h67.5h66.5q5 0 7.5 2t2.5 7
q0 6 -0.5 15.5t-1.5 14.5q0 4 -2.5 6t-8.5 2h-65.5h-65.5q-20 0 -31 10.5t-11 30.5t11 30.5t31 10.5h14.5t22.5 -1h22.5h13.5t8 3.5t-1 8.5q-40 62 -84.5 127.5t-73.5 106.5q-7 11 -12.5 14.5t-15.5 3.5h-5h-8q-6 -1 -9 -1h-5q-17 0 -27.5 11.5t-10.5 29.5t10.5 29t27.5 11
h21t33 -1q25 -1 38.5 -1h25.5h33t46 1q24 1 35.5 1h22.5q18 0 28 -11t10 -30q0 -18 -10.5 -29t-27.5 -11h-11t-16 1h-13.5h-8.5q-11 0 -15 -6t2 -16q5 -9 13 -21.5t25 -40.5q12 -17 17.5 -26t10.5 -17q16 -26 35 -54.5t36 -52.5q4 -6 7 -8t7 -2t7 2.5t7 7.5q27 41 44 66.5
t30 46.5q17 28 32.5 53.5t26.5 44.5q6 11 2 17t-15 6h-8.5h-13.5q-10 -1 -16 -1h-11q-17 0 -27.5 11.5t-10.5 28.5q0 19 10 30t28 11h21.5t33.5 -1q28 -1 44 -1h31h18t29 1t28.5 1h17.5q17 0 27.5 -11.5t10.5 -30.5q0 -17 -10.5 -28t-27.5 -11h-5.5t-6.5 1h-5.5h-3.5
q-11 0 -17.5 -3.5t-12.5 -12.5l-20 -30t-40 -61q-40 -61 -60 -91t-35 -54q-4 -5 -2 -8.5t8 -3.5h16h26q17 1 26 1h17q20 0 30.5 -10.5t10.5 -30.5t-11 -30.5t-30 -10.5h-67.5h-67.5q-4 0 -6.5 -2t-3.5 -7v-14v-14q0 -5 2.5 -7.5t7.5 -2.5h67.5h67.5q20 0 30.5 -10t10.5 -30
t-10.5 -31t-30.5 -11h-26.5t-43.5 1h-40.5h-24.5q-5 0 -7.5 -2.5t-2.5 -7.5v-10.5t1 -16.5v-17.5v-10.5q1 -12 6.5 -16.5t18.5 -4.5h9t16 1q9 1 13.5 1h7.5q17 0 27 -11t10 -30t-10 -30.5t-27 -11.5h-19.5t-32.5 1q-30 1 -48 1h-35h-33.5t-46.5 -1z" />
    <glyph glyph-name="brokenbar" unicode="&#xa6;" horiz-adv-x="230" 
d="M120 784q28 0 41 -16.5t12 -52.5v-11t-1 -26q-1 -36 -1.5 -56t-0.5 -37v-144t1 -52q0 -31 -14.5 -48t-41.5 -17q-29 0 -42 14.5t-13 48.5q1 15 1.5 62.5t0.5 94.5v85.5v85.5q-1 33 14 51t44 18zM120 199q28 0 41 -16.5t12 -52.5v-13.5t-1 -30.5q-1 -43 -1.5 -67.5
t-0.5 -44.5v-125.5t1 -45.5q0 -31 -14.5 -47.5t-41.5 -16.5q-29 0 -42 14.5t-13 48.5q1 11 1.5 52t0.5 79v98.5v98.5q-1 33 14 51t44 18z" />
    <glyph glyph-name="section" unicode="&#xa7;" horiz-adv-x="575" 
d="M154 -101q-3 -14 -12.5 -22t-24.5 -8q-16 0 -25 9.5t-10 27.5q0 6 -0.5 13.5t-0.5 24.5q0 14 -0.5 22t-0.5 15q0 8 -1 17.5t-2 27.5q-2 13 -2.5 19.5t-0.5 11.5q-1 17 9 27.5t28 10.5q16 0 25.5 -8t15.5 -28q5 -19 16.5 -36.5t27.5 -30.5q22 -17 45.5 -25t53.5 -8
q42 0 66 19.5t24 53.5t-26 55t-88 39l-60 18q-92 27 -128 63t-36 98q0 42 23 76t64 51q7 3 7.5 7t-5.5 8q-30 19 -44 49t-14 72q0 73 51 116t135 43q29 0 54 -4.5t55 -15.5q14 -6 20.5 -8t10.5 -2q8 0 11 3.5t6 13.5q3 14 12.5 21.5t24.5 7.5q16 0 25 -9.5t10 -26.5
q0 -6 0.5 -14t0.5 -24q0 -14 0.5 -22t0.5 -15q0 -8 1 -17.5t2 -27.5q2 -13 2.5 -19.5t0.5 -11.5q1 -17 -9 -27.5t-28 -10.5q-16 0 -25.5 8t-15.5 28q-5 19 -16.5 37t-26.5 30q-22 17 -45.5 24.5t-53.5 7.5q-43 0 -67 -19t-24 -52q0 -36 25.5 -56.5t86.5 -38.5l62 -19
q91 -26 127 -62t36 -98q0 -43 -23 -77t-65 -51q-6 -2 -6.5 -6.5t5.5 -8.5q31 -22 45 -51t14 -69q0 -73 -51 -116.5t-135 -43.5q-30 0 -56 5t-53 16q-14 6 -20.5 8t-10.5 2q-7 0 -10.5 -3.5t-6.5 -13.5zM350 210q28 4 46.5 25t18.5 48q0 36 -25.5 58.5t-88.5 41.5l-62 19
q-5 2 -9 2t-9 -2q-27 -5 -43.5 -25t-16.5 -46q0 -36 24.5 -58t87.5 -42l57 -19q4 -2 9.5 -2.5t10.5 0.5z" />
    <glyph glyph-name="dieresis" unicode="&#xa8;" horiz-adv-x="511" 
d="M440 716q0 -35 -28 -57.5t-69 -22.5q-27 0 -43 15t-16 40q0 35 27 58t67 23q29 0 45 -14.5t17 -41.5zM230 716q0 -35 -27.5 -57.5t-68.5 -22.5q-26 0 -42.5 15.5t-16.5 39.5q0 34 27.5 57t66.5 23q28 0 44 -14.5t17 -40.5z" />
    <glyph glyph-name="copyright" unicode="&#xa9;" horiz-adv-x="862" 
d="M817 356q0 -167 -108.5 -274.5t-277.5 -107.5t-277.5 107.5t-108.5 274.5t108.5 274.5t277.5 107.5t277.5 -107.5t108.5 -274.5zM111 356q0 -143 89 -232.5t231 -89.5t231.5 89.5t89.5 232.5t-89.5 232.5t-231.5 89.5t-231 -89.5t-89 -232.5zM613 261q-20 -56 -66 -87
t-112 -31q-92 0 -147.5 56.5t-55.5 150.5q0 97 55.5 155.5t143.5 58.5q23 0 43 -4t39 -13q12 -6 16.5 -7.5t7.5 -1.5q5 0 8 3t4 10q1 10 7.5 15t17.5 5t18 -5.5t8 -15.5q4 -21 5.5 -35t3.5 -30q2 -25 3 -42.5t1 -31.5q0 -15 -8 -24t-21 -9q-10 0 -18 6t-13 17
q-8 25 -19 42.5t-26 30.5q-17 15 -35.5 22.5t-39.5 7.5q-52 0 -83 -35.5t-31 -95.5q0 -66 40 -109t101 -43q38 0 66 14.5t52 47.5q3 5 7.5 7.5t9.5 2.5q9 0 15 -5.5t6 -14.5q0 -3 -0.5 -5t-2.5 -7z" />
    <glyph glyph-name="ordfeminine" unicode="&#xaa;" horiz-adv-x="444" 
d="M276 370q-22 -24 -52.5 -37t-67.5 -13q-60 0 -93.5 28t-33.5 77q0 50 34.5 79t106.5 40q9 2 19.5 3t27.5 3q16 2 22.5 3t11.5 2q19 3 25.5 10.5t6.5 27.5v3q0 31 -20 49t-55 18q-33 0 -52 -13.5t-27 -42.5q-5 -18 -17.5 -27t-32.5 -9q-19 0 -31.5 12.5t-11.5 30.5
q2 46 51.5 77t122.5 31q78 0 118.5 -34t40.5 -99v-78.5v-79.5q0 -23 7.5 -34t23.5 -11h15.5t7.5 -1q6 -1 9.5 -7t3.5 -14q0 -7 -3 -13t-9 -11q-10 -9 -25 -13t-36 -4q-24 0 -38 5t-22 16q-4 6 -7 12t-6 13q-2 4 -3 5t-3 1t-4 -1t-4 -4zM122 434q0 -24 16 -37t47 -13
q38 0 63 17.5t32 47.5q2 6 2.5 12.5t0.5 15.5v5q0 11 -4 15.5t-14 4.5h-5q-10 0 -27 -2t-45 -6q-35 -6 -50.5 -20.5t-15.5 -39.5z" />
    <glyph glyph-name="guillemotleft" unicode="&#xab;" horiz-adv-x="608" 
d="M18 49zM316 91q0 -17 -13 -29.5t-29 -12.5q-10 0 -18.5 5t-19.5 16q-39 38 -58 55.5t-36 32.5q-12 11 -26 24t-40 37q-17 15 -24.5 22t-13.5 13q-10 9 -15 20t-5 22q0 13 5 23t15 18q18 16 43.5 37t60.5 51q12 10 36.5 31.5t62.5 54.5q10 8 17.5 11.5t15.5 3.5
q16 0 28.5 -12t12.5 -28q0 -10 -4 -18t-13 -18l-11.5 -11.5t-21.5 -19.5q-14 -13 -22 -20t-15 -14t-15.5 -15t-23.5 -24q-13 -12 -19 -18l-10 -10q-9 -8 -12.5 -14t-3.5 -12t3.5 -12t12.5 -16q18 -18 35.5 -36.5t33.5 -34.5q10 -10 35.5 -35t37.5 -38q8 -7 11 -13.5t3 -15.5
zM581 91q0 -17 -13 -29.5t-29 -12.5q-10 0 -18.5 5t-19.5 16q-39 38 -58 55.5t-36 32.5q-12 11 -26 24t-40 37q-17 15 -24.5 22t-13.5 13q-10 9 -15 20t-5 22q0 13 5 23t15 18q18 16 43.5 37t60.5 51q12 10 36.5 31.5t62.5 54.5q10 8 17.5 11.5t15.5 3.5q16 0 28.5 -12
t12.5 -28q0 -10 -4 -18t-13 -18l-11.5 -11.5t-21.5 -19.5q-14 -13 -22 -20t-15 -14t-15.5 -15t-23.5 -24q-13 -12 -19 -18l-10 -10q-9 -8 -12.5 -14t-3.5 -12t3.5 -12t12.5 -16q18 -18 35.5 -36.5t33.5 -34.5q10 -10 35.5 -35t37.5 -38q8 -7 11 -13.5t3 -15.5z" />
    <glyph glyph-name="logicalnot" unicode="&#xac;" horiz-adv-x="488" 
d="M426 295q0 -7 0.5 -27t0.5 -49q0 -24 -13 -37t-38 -13q-24 0 -37.5 12.5t-13.5 35.5v53t-1 40q0 9 -4 13t-12 4h-55.5h-55.5h-22t-35 -1h-27.5h-15.5q-25 -1 -38 12.5t-13 39.5q0 23 13.5 37t36.5 14q19 -1 47.5 -1h80.5q13 0 29 0.5t49 0.5t49 0.5t28 0.5
q23 0 35.5 -13.5t12.5 -38.5v-8.5t-1 -14.5v-35v-25z" />
    <glyph glyph-name="uni00AD" unicode="&#xad;" horiz-adv-x="341" 
d="M219 320q19 0 27.5 0.5t15.5 0.5q26 0 40 -14t14 -40t-14 -40t-39 -13h-46.5h-46.5h-23t-34 -1h-21h-11q-27 -1 -41.5 13t-14.5 41q0 25 14.5 39t40.5 14q14 -1 32 -1h64q8 0 17 0.5t26 0.5z" />
    <glyph glyph-name="registered" unicode="&#xae;" horiz-adv-x="862" 
d="M817 356q0 -167 -108.5 -274.5t-277.5 -107.5t-277.5 107.5t-108.5 274.5t108.5 274.5t277.5 107.5t277.5 -107.5t108.5 -274.5zM657 191q0 -16 -16.5 -25.5t-47.5 -9.5q-39 0 -59.5 18t-28.5 60q-12 52 -16 62.5t-10 19.5q-9 12 -23 17.5t-32 5.5h-6h-8h-8q-8 -1 -11 -5
t-3 -13q0 -7 -0.5 -45t0.5 -49q0 -7 2.5 -10t8.5 -4h5h8t7.5 -0.5t4.5 -0.5q11 -1 17.5 -7.5t6.5 -17.5q0 -12 -6.5 -19t-17.5 -8q-16 -1 -45 -1h-32h-55t-24 1q-11 1 -17 7.5t-6 17.5q0 9 5 15.5t14 7.5q2 0 4 0.5t7 0.5q4 0 6.5 0.5t4.5 0.5q7 2 10.5 6t3.5 12v11.5v25.5
q1 36 1 57v40v34.5v103.5q-1 9 -4.5 13t-10.5 5q-2 0 -4 0.5t-7 0.5q-4 0 -6 0.5t-4 0.5q-9 1 -14.5 7.5t-5.5 16.5q0 13 10 20t29 7h14t25 -1q16 -1 24 -1h14h13t23 1q24 1 39 1h30q76 0 112.5 -25t36.5 -76q0 -36 -23 -62.5t-66 -40.5q-3 -2 -3.5 -3t-0.5 -3t1 -3t4 -2
q14 -2 25.5 -8.5t18.5 -16.5t12 -20.5t17 -61.5q3 -12 8.5 -18t18.5 -11q4 -1 7 -3t7 -4q8 -3 12 -8.5t4 -13.5zM388 410q0 -12 4 -17.5t14 -5.5h4h4h17q45 0 67.5 17t22.5 51q0 33 -22.5 49.5t-67.5 16.5h-10h-10q-11 -1 -16 -6t-6 -16q-1 -5 -1 -11v-18v-37v-11.5v-11.5z
M111 356q0 -143 89 -232.5t231 -89.5t231.5 89.5t89.5 232.5t-89.5 232.5t-231.5 89.5t-231 -89.5t-89 -232.5z" />
    <glyph glyph-name="macron" unicode="&#xaf;" horiz-adv-x="414" 
d="M273 640q-28 -1 -42.5 -1h-27.5h-68.5t-32.5 -1q-23 0 -34.5 12.5t-11.5 37.5q0 23 12.5 35.5t34.5 11.5h56.5h56.5h23.5t35.5 1h29.5h16.5q22 1 34 -11.5t12 -36.5q0 -22 -11.5 -35t-32.5 -13h-17.5h-32.5z" />
    <glyph glyph-name="degree" unicode="&#xb0;" horiz-adv-x="464" 
d="M423 553q0 -86 -54 -140t-142 -54q-85 0 -135 50t-50 134q0 83 55.5 138t140.5 55q84 0 134.5 -50.5t50.5 -132.5zM135 545q0 -46 26 -74t69 -28q46 0 73 29t27 79q0 46 -26 73.5t-68 27.5q-44 0 -72.5 -30t-28.5 -77z" />
    <glyph glyph-name="plusminus" unicode="&#xb1;" horiz-adv-x="503" 
d="M299 310q-1 -25 -13 -37t-36 -12q-22 0 -34 12t-11 35v10.5v16.5q-1 8 -1 12.5v8.5q0 9 -4 13.5t-12 4.5q-13 0 -35 -0.5t-34 0.5q-29 1 -41.5 12t-12.5 36q0 24 13.5 35t41.5 10h11h18q15 1 22.5 1h14.5q9 0 13 3.5t5 13.5q1 13 0.5 30.5t-0.5 18.5q0 24 12 35.5
t37 11.5q22 0 34 -11.5t11 -33.5q-1 -9 -0.5 -26t0.5 -23q1 -9 5.5 -13t13.5 -5q18 -1 42.5 -0.5t26.5 0.5q27 -1 39.5 -12t12.5 -35t-13.5 -35.5t-40.5 -10.5h-9.5h-17.5q-15 -1 -23.5 -1h-15.5q-9 0 -13 -4t-6 -15q-1 -11 -0.5 -27t0.5 -19zM250 117h-87t-38 -1
q-26 0 -37.5 11.5t-11.5 36.5q0 23 12.5 34.5t37.5 11.5q14 -1 39.5 -1h85.5q11 0 24.5 0.5t40.5 0.5q31 0 43 0.5t20 0.5q25 0 36.5 -11t11.5 -36q0 -24 -11.5 -35.5t-36.5 -11.5q-17 1 -65 0.5t-64 -0.5z" />
    <glyph glyph-name="two.sup" unicode="&#xb2;" horiz-adv-x="375" 
d="M24 379zM171 379h-44.5h-44.5q-27 0 -42.5 13.5t-15.5 38.5q0 59 27 99t102 74q5 2 27 11.5t34 16.5q19 11 27.5 23t8.5 28q0 24 -17.5 38t-44.5 14q-21 0 -35.5 -7t-26.5 -23q-2 -4 -6.5 -13.5t-10.5 -25.5q-8 -18 -17 -24.5t-23 -6.5q-20 0 -31 12.5t-10 34.5
q1 51 44.5 85t114.5 34q69 0 108 -31.5t39 -86.5q0 -29 -12 -51.5t-38 -40.5q-12 -7 -27 -15t-74 -32q-37 -15 -56.5 -32.5t-19.5 -36.5q0 -10 4.5 -14t16.5 -4h30h30q5 0 27.5 0.5t40.5 -0.5q16 0 21 9.5t5 40.5q-1 20 7.5 30t25.5 10q19 0 27 -13t8 -42q0 -64 -17.5 -88.5
t-63.5 -24.5h-48.5h-49.5z" />
    <glyph glyph-name="three.sup" unicode="&#xb3;" horiz-adv-x="386" 
d="M36 373zM351 503q0 -59 -43 -94.5t-117 -35.5q-70 0 -112.5 32.5t-42.5 77.5q0 21 12 33t32 12q14 0 24 -7.5t26 -42.5q11 -26 27 -37.5t43 -11.5q28 0 44 15t16 42q0 28 -20 46.5t-68 33.5q-12 5 -18.5 9t-10.5 10q-3 5 -2 10.5t6 10.5q18 18 39.5 40.5t46.5 50.5
q8 10 5.5 17.5t-13.5 7.5h-8.5t-18.5 -1q-17 -1 -26 -1h-16q-11 0 -15 -2t-10 -8q-2 -3 -5 -7t-8 -13q-4 -6 -6.5 -10t-4.5 -7q-11 -15 -19 -20t-19 -5q-17 0 -24.5 10.5t-3.5 28.5q4 17 9 37t10 39q6 19 15 28t24 9q4 0 8.5 -0.5t13.5 -2.5q13 -2 20.5 -2.5t14.5 -0.5h90.5
t61.5 1q25 0 37.5 -8t12.5 -25q0 -11 -4.5 -20t-23.5 -29q-8 -9 -18 -19.5t-31 -30.5q-14 -14 -20.5 -21t-12.5 -13q-5 -5 -4.5 -8.5t7.5 -5.5q50 -14 75 -41.5t25 -70.5z" />
    <glyph glyph-name="acute" unicode="&#xb4;" horiz-adv-x="366" 
d="M337 755q-30 -26 -100.5 -73t-89.5 -54q-11 -4 -22 0t-17 14q-8 12 -6.5 24.5t12.5 23.5q31 33 89 85.5t76 62.5q14 9 30 5.5t27 -18.5q16 -19 16.5 -37.5t-15.5 -32.5z" />
    <glyph glyph-name="mu" unicode="&#xb5;" horiz-adv-x="727" 
d="M474 67q-28 -40 -60.5 -58.5t-75.5 -18.5q-31 0 -54.5 11t-38.5 32q-2 3 -3.5 4.5t-4.5 1.5t-4.5 -2t-1.5 -6q0 -15 0.5 -34.5t1.5 -57.5q0 -35 0.5 -50.5t0.5 -27.5q0 -21 -13.5 -32t-38.5 -11t-38 11t-13 32q-1 14 -1 31v56v117.5v116.5q0 124 -0.5 174t-1.5 74
q0 14 -6.5 20.5t-20.5 6.5q-4 0 -8 -0.5t-13 -0.5l-13.5 -1.5t-8.5 -0.5q-18 0 -28.5 10t-10.5 26t10.5 26t29.5 13q38 9 57 13t36 7q34 5 42 6t14 1q19 0 29 -10.5t10 -30.5v-16.5v-46.5q-1 -78 -1 -119v-69q0 -62 5.5 -92t19.5 -51q13 -19 35 -29t53 -10t55.5 10.5
t40.5 30.5q16 22 23 58t7 100v36.5t-1 59.5v36v17q-1 14 -7.5 20.5t-19.5 6.5q-4 0 -8.5 -0.5t-13.5 -0.5q-9 -1 -14 -1.5t-9 -0.5q-18 0 -28 9.5t-10 26.5q0 16 10.5 26t29.5 13q38 9 57 13t36 7q34 5 42 6t14 1q20 0 30 -10.5t10 -30.5v-31t-1 -58q-1 -54 -1 -82.5v-52.5
v-91.5v-91.5q0 -15 7 -22t22 -7h8.5t12.5 1h12h7q16 0 26.5 -10.5t10.5 -25.5q0 -17 -10.5 -27.5t-29.5 -13.5q-7 -1 -14.5 -2t-24.5 -3l-16.5 -1.5t-10.5 -1.5q-19 -2 -34 -3.5t-26 -1.5q-20 0 -32.5 10.5t-14.5 29.5q0 4 -0.5 7.5t-0.5 9.5q-1 7 -1 10v7t-2 6.5t-6 2.5
q-3 0 -5.5 -1.5t-4.5 -4.5z" />
    <glyph glyph-name="paragraph" unicode="&#xb6;" horiz-adv-x="813" 
d="M307 -136q-26 -1 -35 -1h-15q-18 0 -28.5 12.5t-10.5 32.5q0 17 11 28.5t28 11.5h7.5t13.5 -1q10 -1 15.5 -1h10.5q15 0 21.5 6t6.5 19t1 136t-1 210q0 16 -6.5 21.5t-24.5 5.5q-145 -3 -209 42t-64 150q0 89 54 137t155 48h31t55 -1q56 -1 88.5 -1.5t64.5 -0.5
q40 0 92 0.5t136 1.5h34h11q17 0 26.5 -11.5t9.5 -31.5q0 -17 -10 -28.5t-26 -11.5h-7t-12 1q-9 1 -13.5 1h-8.5q-13 0 -19 -6t-7 -20q-1 -21 -1.5 -67t-0.5 -188v-195t1 -196q1 -12 6.5 -17t19.5 -5h8.5h13.5q8 1 12.5 1h8.5q16 0 26 -11.5t10 -29.5t-10 -29.5t-26 -11.5
h-12h-26q-59 1 -104 1h-93q-47 0 -94 -0.5t-114 -0.5zM451 -20q1 -23 12.5 -29.5t47.5 -6.5q35 0 47 6.5t12 28.5q1 34 1.5 94t0.5 263q0 85 -0.5 154t-1.5 109q0 25 -12 33.5t-44 8.5q-37 0 -50 -8t-13 -34q-1 -44 -1.5 -109.5t-0.5 -152.5q0 -123 0.5 -208.5t1.5 -148.5z
" />
    <glyph glyph-name="periodcentered" unicode="&#xb7;" horiz-adv-x="333" 
d="M258 281q0 -42 -29.5 -71t-72.5 -29q-37 0 -59 20t-22 55q0 41 30.5 71.5t71.5 31.5q35 0 58 -22t23 -56z" />
    <glyph glyph-name="cedilla" unicode="&#xb8;" horiz-adv-x="302" 
d="M271 -138q0 -41 -27.5 -65t-76.5 -24q-46 0 -76.5 25t-30.5 61q0 12 6.5 20t17.5 8q6 0 10.5 -3t8.5 -10q11 -18 26.5 -28t32.5 -10t26 7.5t9 22.5q0 14 -12 24.5t-39 19.5q-14 6 -19 11t-5 13q0 9 7.5 15.5t18.5 6.5q15 0 29 -3t31 -11q30 -13 46.5 -33.5t16.5 -46.5z
" />
    <glyph glyph-name="one.sup" unicode="&#xb9;" horiz-adv-x="361" 
d="M47 380zM96 380h-17.5h-6.5q-12 0 -18.5 8.5t-6.5 23.5q0 14 6.5 23t17.5 9h26.5h26.5q9 0 12.5 3.5t3.5 12.5q1 11 1 33.5v90.5v52.5v52.5q-1 8 -4.5 11t-11.5 2q-4 0 -9 -1t-15 -4q-8 -2 -12.5 -3t-7.5 -1q-13 -2 -22.5 6.5t-9.5 21.5q0 11 5.5 17.5t18.5 11.5
q3 1 6.5 2.5t10.5 3.5q17 6 25.5 9.5t16.5 6.5q14 6 26.5 11.5t24.5 9.5q22 9 37.5 0t15.5 -28q0 -4 -0.5 -9t-3.5 -14q-2 -10 -3 -15.5t-1 -10.5v-66v-66v-90t1 -33q0 -9 3.5 -13t10.5 -4h24h24t18.5 -8.5t6.5 -23.5t-7 -23.5t-20 -8.5h-9.5h-21.5q-29 1 -46.5 1h-32.5
h-34.5t-48.5 -1z" />
    <glyph glyph-name="ordmasculine" unicode="&#xba;" horiz-adv-x="469" 
d="M432 518q0 -89 -56.5 -144t-144.5 -55t-141 54t-53 145q0 90 59 147t145 57q85 0 138 -56t53 -148zM131 535q0 -67 30.5 -107t82.5 -40q45 0 69.5 30t24.5 85q0 70 -30 111t-80 41q-45 0 -71 -32t-26 -88z" />
    <glyph glyph-name="guillemotright" unicode="&#xbb;" horiz-adv-x="608" 
d="M28 49zM28 91q0 -17 13 -29.5t29 -12.5q10 0 18.5 5t19.5 16q39 38 58 55.5t36 32.5q12 11 26 24t40 37q17 15 24.5 22t13.5 13q10 9 15 20t5 22q0 13 -5 23t-15 18q-18 16 -43.5 37t-60.5 51q-11 10 -36 31.5t-63 54.5q-10 8 -17.5 11.5t-15.5 3.5q-16 0 -28.5 -12
t-12.5 -28q0 -10 4 -18t13 -18l11.5 -11.5t21.5 -19.5q14 -13 22 -20t15 -14t15.5 -15t23.5 -24q13 -12 19 -18l10 -10q9 -8 12.5 -14t3.5 -12t-3.5 -12t-12.5 -16q-18 -18 -35.5 -36.5t-33.5 -34.5q-10 -10 -35.5 -35t-37.5 -38q-8 -7 -11 -13.5t-3 -15.5zM293 91
q0 -17 13 -29.5t29 -12.5q10 0 18.5 5t19.5 16q39 38 58 55.5t36 32.5q12 11 26 24t40 37q17 15 24.5 22t13.5 13q10 9 15 20t5 22q0 13 -5 23t-15 18q-18 16 -43.5 37t-60.5 51q-11 10 -36 31.5t-63 54.5q-10 8 -17.5 11.5t-15.5 3.5q-16 0 -28.5 -12t-12.5 -28
q0 -10 4 -18t13 -18l11.5 -11.5t21.5 -19.5q14 -13 22 -20t15 -14t15.5 -15t23.5 -24q13 -12 19 -18l10 -10q9 -8 12.5 -14t3.5 -12t-3.5 -12t-12.5 -16q-18 -18 -35.5 -36.5t-33.5 -34.5q-10 -10 -35.5 -35t-37.5 -38q-8 -7 -11 -13.5t-3 -15.5z" />
    <glyph glyph-name="onequarter" unicode="&#xbc;" horiz-adv-x="836" 
d="M47 0zM47 325zM96 325h-17.5h-6.5q-12 0 -18.5 8.5t-6.5 23.5q0 14 6.5 23t17.5 9h26.5h26.5q9 0 12.5 3.5t3.5 12.5q1 11 1 33.5v90.5v52.5v52.5q-1 8 -4.5 11t-11.5 2q-4 0 -9 -1t-15 -4q-8 -2 -12.5 -3t-7.5 -1q-13 -2 -22.5 6.5t-9.5 21.5q0 11 5.5 17.5t18.5 11.5
q3 1 6.5 2.5t10.5 3.5q17 6 25.5 9.5t16.5 6.5q14 6 26.5 11.5t24.5 9.5q22 9 37.5 0t15.5 -28q0 -4 -0.5 -9t-3.5 -14q-2 -10 -3 -15.5t-1 -10.5v-66v-66v-90t1 -33q0 -9 3.5 -13t10.5 -4h24h24t18.5 -8.5t6.5 -23.5t-7 -23.5t-20 -8.5h-9.5h-21.5q-29 1 -46.5 1h-32.5
h-34.5t-48.5 -1zM261 29q-18 -28 -33.5 -37t-36.5 -3q-24 5 -26.5 22.5t17.5 47.5q19 29 90.5 141.5t132.5 208.5q23 37 89.5 144t79.5 129q18 31 33 40.5t38 5.5q27 -4 29 -23t-22 -52q-20 -29 -72.5 -110.5t-107.5 -170.5q-20 -32 -46.5 -75t-77.5 -127
q-47 -78 -63.5 -104.5t-23.5 -36.5zM626 0h-15h-7q-12 0 -18 7t-6 21q0 13 6.5 21t16.5 8h7h13q9 -1 13.5 -1h8.5q7 0 10 3t3 10v5v10q1 8 1 12.5v8.5q0 8 -2.5 11t-8.5 3q-18 0 -78 0.5t-82 -0.5q-18 0 -27.5 7.5t-9.5 22.5q0 7 4 15t15 21q18 22 39 46.5t45 51.5
q27 31 47.5 53.5t36.5 38.5q23 26 39.5 36.5t32.5 10.5t25 -8t9 -23q0 -5 -0.5 -10t-2.5 -15q-2 -11 -2.5 -17.5t-0.5 -12.5q0 -12 -0.5 -51t-0.5 -93q0 -7 2.5 -10t9.5 -3h23.5h23.5q13 0 18 -7t3 -22q-3 -17 -10 -24t-22 -7h-18h-18q-6 0 -9 -3t-3 -9v-8.5t1 -13.5v-10.5
v-6.5q0 -7 3 -9.5t10 -2.5h5t8 1h8h5q11 0 17 -7.5t6 -20.5q0 -14 -6 -21.5t-17 -7.5h-8h-17q-26 1 -40.5 1h-26.5h-25t-34 -1zM562 181h43.5h42.5q6 0 9 3t3 9q1 24 0.5 61.5t-0.5 44.5q0 8 -5.5 10.5t-10.5 -4.5q-10 -11 -26.5 -31t-18.5 -23q-4 -6 -8.5 -12l-13.5 -18
l-13.5 -16.5t-7.5 -10.5q-4 -5 -2.5 -9t8.5 -4z" />
    <glyph glyph-name="onehalf" unicode="&#xbd;" horiz-adv-x="865" 
d="M47 0zM47 325zM96 325h-17.5h-6.5q-12 0 -18.5 8.5t-6.5 23.5q0 14 6.5 23t17.5 9h26.5h26.5q9 0 12.5 3.5t3.5 12.5q1 11 1 33.5v90.5v52.5v52.5q-1 8 -4.5 11t-11.5 2q-4 0 -9 -1t-15 -4q-8 -2 -12.5 -3t-7.5 -1q-13 -2 -22.5 6.5t-9.5 21.5q0 11 5.5 17.5t18.5 11.5
q3 1 6.5 2.5t10.5 3.5q17 6 25.5 9.5t16.5 6.5q14 6 26.5 11.5t24.5 9.5q22 9 37.5 0t15.5 -28q0 -4 -0.5 -9t-3.5 -14q-2 -10 -3 -15.5t-1 -10.5v-66v-66v-90t1 -33q0 -9 3.5 -13t10.5 -4h24h24t18.5 -8.5t6.5 -23.5t-7 -23.5t-20 -8.5h-9.5h-21.5q-29 1 -46.5 1h-32.5
h-34.5t-48.5 -1zM658 -1h-44.5h-44.5q-27 0 -42.5 13.5t-15.5 38.5q0 59 27 99t102 74q5 2 27 11.5t34 16.5q19 11 27.5 23t8.5 28q0 24 -17.5 38t-44.5 14q-21 0 -35.5 -7t-26.5 -23q-2 -4 -6.5 -13.5t-10.5 -25.5q-8 -18 -17 -24.5t-23 -6.5q-20 0 -31 12.5t-10 34.5
q1 51 44.5 85t114.5 34q69 0 108 -31.5t39 -86.5q0 -29 -12 -51.5t-38 -40.5q-12 -7 -27 -15t-74 -32q-37 -15 -56.5 -32.5t-19.5 -36.5q0 -10 4.5 -14t16.5 -4h30h30q5 0 27.5 0.5t40.5 -0.5q16 0 21 9.5t5 40.5q-1 20 7.5 30t25.5 10q19 0 27 -13t8 -42q0 -64 -17.5 -88.5
t-63.5 -24.5h-48.5h-49.5zM262 29q-18 -28 -33.5 -37t-36.5 -3q-24 5 -26.5 22.5t17.5 47.5q19 29 90.5 141.5t132.5 208.5q23 37 89.5 144t79.5 129q18 31 33 40.5t38 5.5q27 -4 29 -23t-22 -52q-20 -29 -72.5 -110.5t-107.5 -170.5q-20 -32 -46.5 -75t-77.5 -127
q-47 -78 -63.5 -104.5t-23.5 -36.5z" />
    <glyph glyph-name="threequarters" unicode="&#xbe;" horiz-adv-x="846" 
d="M36 0zM271 29q-18 -28 -33.5 -37t-36.5 -3q-24 5 -26.5 22.5t17.5 47.5q19 29 90.5 141.5t132.5 208.5q23 37 89.5 144t79.5 129q18 31 33 40.5t38 5.5q27 -4 29 -23t-22 -52q-20 -29 -72.5 -110.5t-107.5 -170.5q-20 -32 -46.5 -75t-77.5 -127q-47 -78 -63.5 -104.5
t-23.5 -36.5zM635 0h-15h-7q-12 0 -18 7t-6 21q0 13 6.5 21t16.5 8h7h13q9 -1 13.5 -1h8.5q7 0 10 3t3 10v5v10q1 8 1 12.5v8.5q0 8 -2.5 11t-8.5 3q-18 0 -78 0.5t-82 -0.5q-18 0 -27.5 7.5t-9.5 22.5q0 7 4 15t15 21q18 22 39 46.5t45 51.5q27 31 47.5 53.5t36.5 38.5
q23 26 39.5 36.5t32.5 10.5t25 -8t9 -23q0 -5 -0.5 -10t-2.5 -15q-2 -11 -2.5 -17.5t-0.5 -12.5q0 -12 -0.5 -51t-0.5 -93q0 -7 2.5 -10t9.5 -3h23.5h23.5q13 0 18 -7t3 -22q-3 -17 -10 -24t-22 -7h-18h-18q-6 0 -9 -3t-3 -9v-8.5t1 -13.5v-10.5v-6.5q0 -7 3 -9.5t10 -2.5h5
t8 1h8h5q11 0 17 -7.5t6 -20.5q0 -14 -6 -21.5t-17 -7.5h-8h-17q-26 1 -40.5 1h-26.5h-25t-34 -1zM571 181h43.5h42.5q6 0 9 3t3 9q1 24 0.5 61.5t-0.5 44.5q0 8 -5.5 10.5t-10.5 -4.5q-10 -11 -26.5 -31t-18.5 -23q-4 -6 -8.5 -12l-13.5 -18l-13.5 -16.5t-7.5 -10.5
q-4 -5 -2.5 -9t8.5 -4zM36 318zM351 448q0 -59 -43 -94.5t-117 -35.5q-70 0 -112.5 32.5t-42.5 77.5q0 21 12 33t32 12q14 0 24 -7.5t26 -42.5q11 -26 27 -37.5t43 -11.5q28 0 44 15t16 42q0 28 -20 46.5t-68 33.5q-12 5 -18.5 9t-10.5 10q-3 5 -2 10.5t6 10.5
q18 18 39.5 40.5t46.5 50.5q8 10 5.5 17.5t-13.5 7.5h-8.5t-18.5 -1q-17 -1 -26 -1h-16q-11 0 -15 -2t-10 -8q-2 -3 -5 -7t-8 -13q-4 -6 -6.5 -10t-4.5 -7q-11 -15 -19 -20t-19 -5q-17 0 -24.5 10.5t-3.5 28.5q4 17 9 37t10 39q6 19 15 28t24 9q4 0 8.5 -0.5t13.5 -2.5
q13 -2 20.5 -2.5t14.5 -0.5h90.5t61.5 1q25 0 37.5 -8t12.5 -25q0 -11 -4.5 -20t-23.5 -29q-8 -9 -18 -19.5t-31 -30.5q-14 -14 -20.5 -21t-12.5 -13q-5 -5 -4.5 -8.5t7.5 -5.5q50 -14 75 -41.5t25 -70.5z" />
    <glyph glyph-name="questiondown" unicode="&#xbf;" horiz-adv-x="564" 
d="M260 309q0 11 8 17t23 6q29 0 50 -20t22 -52q1 -38 -18.5 -68t-82.5 -73q-65 -43 -85 -74.5t-20 -70.5q0 -54 29 -83t81 -29q39 0 69 17t51 53q5 8 26.5 59.5t59.5 51.5q25 0 40 -16t15 -43q0 -84 -70 -142t-185 -58q-106 0 -168 54t-62 146q0 37 10 68t31 56
q15 19 37 36.5t69 43.5q51 29 65.5 45.5t14.5 36.5q0 7 -1 12.5t-5 12.5q-2 5 -3 8t-1 6zM204 472q0 37 28.5 62.5t69.5 25.5q37 0 58 -18t21 -50q-1 -37 -30 -63.5t-69 -26.5q-34 0 -56 19.5t-22 50.5z" />
    <glyph glyph-name="Agrave" unicode="&#xc0;" horiz-adv-x="832" 
d="M13 0zM95 1q-18 -1 -26 -1h-15q-19 0 -30 11t-11 30q0 18 11 29t30 11h8t13 -1q7 -1 10.5 -1h5.5q9 0 14 5.5t10 17.5q42 112 58.5 157t33.5 91q11 30 24 65t37 102q17 46 25 68t14 40q23 63 46 82.5t64 19.5q43 0 63.5 -16t40.5 -71q17 -48 42.5 -119t56.5 -158
q28 -78 55 -151t43 -116q3 -8 9 -12t16 -4h18.5h18.5q19 0 29.5 -10.5t10.5 -28.5t-10 -29.5t-27 -11.5h-22t-36 1q-29 1 -45.5 1h-31.5h-30t-45 -1q-27 -1 -40.5 -1h-25.5q-20 0 -30.5 10.5t-10.5 29.5q0 18 11.5 29.5t29.5 11.5h13t19 -1h16h9q15 0 20.5 8.5t0.5 24.5
l-9 27t-16 45l-9 27t-6 17q-4 11 -11 15t-20 4h-54.5h-55.5h-55.5h-55.5q-14 0 -20 -4t-12 -18q-12 -32 -21.5 -61.5t-17.5 -56.5q-4 -15 0.5 -22t19.5 -7h12.5t19.5 1h18.5h11.5q17 0 27.5 -11t10.5 -29t-10 -29t-28 -11h-14.5t-28.5 1q-32 0 -53 0.5t-41 0.5h-30.5
t-41.5 -1zM304 360q-6 -17 -0.5 -24.5t22.5 -8.5h39.5h38.5h40.5h40.5q14 0 18.5 7.5t-0.5 22.5q-28 84 -47 138t-35 97q-2 6 -6.5 9.5t-10.5 3.5t-10.5 -3t-7.5 -10q-14 -37 -30.5 -84t-51.5 -148zM253 882q38 -22 114 -55.5t95 -36.5q11 -2 21.5 4t14.5 16q6 14 2.5 25.5
t-16.5 21.5q-39 28 -104 69t-84 48q-16 6 -30.5 0t-23.5 -23q-12 -22 -9.5 -40.5t20.5 -28.5z" />
    <glyph glyph-name="Aacute" unicode="&#xc1;" horiz-adv-x="832" 
d="M13 0zM95 1q-18 -1 -26 -1h-15q-19 0 -30 11t-11 30q0 18 11 29t30 11h8t13 -1q7 -1 10.5 -1h5.5q9 0 14 5.5t10 17.5q42 112 58.5 157t33.5 91q11 30 24 65t37 102q17 46 25 68t14 40q23 63 46 82.5t64 19.5q43 0 63.5 -16t40.5 -71q17 -48 42.5 -119t56.5 -158
q28 -78 55 -151t43 -116q3 -8 9 -12t16 -4h18.5h18.5q19 0 29.5 -10.5t10.5 -28.5t-10 -29.5t-27 -11.5h-22t-36 1q-29 1 -45.5 1h-31.5h-30t-45 -1q-27 -1 -40.5 -1h-25.5q-20 0 -30.5 10.5t-10.5 29.5q0 18 11.5 29.5t29.5 11.5h13t19 -1h16h9q15 0 20.5 8.5t0.5 24.5
l-9 27t-16 45l-9 27t-6 17q-4 11 -11 15t-20 4h-54.5h-55.5h-55.5h-55.5q-14 0 -20 -4t-12 -18q-12 -32 -21.5 -61.5t-17.5 -56.5q-4 -15 0.5 -22t19.5 -7h12.5t19.5 1h18.5h11.5q17 0 27.5 -11t10.5 -29t-10 -29t-28 -11h-14.5t-28.5 1q-32 0 -53 0.5t-41 0.5h-30.5
t-41.5 -1zM304 360q-6 -17 -0.5 -24.5t22.5 -8.5h39.5h38.5h40.5h40.5q14 0 18.5 7.5t-0.5 22.5q-28 84 -47 138t-35 97q-2 6 -6.5 9.5t-10.5 3.5t-10.5 -3t-7.5 -10q-14 -37 -30.5 -84t-51.5 -148zM583 882q-38 -22 -114 -55.5t-95 -36.5q-11 -2 -21 3.5t-15 16.5
q-6 14 -3 25.5t17 21.5q39 28 104 69t84 48q16 6 30.5 0t23.5 -23q12 -22 9.5 -40.5t-20.5 -28.5z" />
    <glyph glyph-name="Acircumflex" unicode="&#xc2;" horiz-adv-x="832" 
d="M13 0zM95 1q-18 -1 -26 -1h-15q-19 0 -30 11t-11 30q0 18 11 29t30 11h8t13 -1q7 -1 10.5 -1h5.5q9 0 14 5.5t10 17.5q42 112 58.5 157t33.5 91q11 30 24 65t37 102q17 46 25 68t14 40q23 63 46 82.5t64 19.5q43 0 63.5 -16t40.5 -71q17 -48 42.5 -119t56.5 -158
q28 -78 55 -151t43 -116q3 -8 9 -12t16 -4h18.5h18.5q19 0 29.5 -10.5t10.5 -28.5t-10 -29.5t-27 -11.5h-22t-36 1q-29 1 -45.5 1h-31.5h-30t-45 -1q-27 -1 -40.5 -1h-25.5q-20 0 -30.5 10.5t-10.5 29.5q0 18 11.5 29.5t29.5 11.5h13t19 -1h16h9q15 0 20.5 8.5t0.5 24.5
l-9 27t-16 45l-9 27t-6 17q-4 11 -11 15t-20 4h-54.5h-55.5h-55.5h-55.5q-14 0 -20 -4t-12 -18q-12 -32 -21.5 -61.5t-17.5 -56.5q-4 -15 0.5 -22t19.5 -7h12.5t19.5 1h18.5h11.5q17 0 27.5 -11t10.5 -29t-10 -29t-28 -11h-14.5t-28.5 1q-32 0 -53 0.5t-41 0.5h-30.5
t-41.5 -1zM304 360q-6 -17 -0.5 -24.5t22.5 -8.5h39.5h38.5h40.5h40.5q14 0 18.5 7.5t-0.5 22.5q-28 84 -47 138t-35 97q-2 6 -6.5 9.5t-10.5 3.5t-10.5 -3t-7.5 -10q-14 -37 -30.5 -84t-51.5 -148zM360 830q-29 -22 -40 -30t-18 -13q-14 -9 -26.5 -7t-22.5 15
q-11 14 -10.5 25t11.5 22q5 5 11.5 11t21.5 19l21 18t13 12q22 19 37 32t25 21q12 11 20 14t18 3q11 0 18.5 -3.5t17.5 -12.5l6.5 -6.5t12.5 -10.5q16 -15 25.5 -23.5t17.5 -16.5q5 -4 10.5 -9l16.5 -15q19 -16 27 -23.5t13 -13.5q9 -10 8 -20.5t-12 -22.5t-23.5 -14
t-26.5 6q-16 10 -56 41.5t-46 36.5q-7 6 -8.5 6.5t-2.5 0.5q-3 0 -5 -1t-7 -5q-9 -7 -19 -14.5t-28 -21.5z" />
    <glyph glyph-name="Atilde" unicode="&#xc3;" horiz-adv-x="832" 
d="M13 0zM95 1q-18 -1 -26 -1h-15q-19 0 -30 11t-11 30q0 18 11 29t30 11h8t13 -1q7 -1 10.5 -1h5.5q9 0 14 5.5t10 17.5q42 112 58.5 157t33.5 91q11 30 24 65t37 102q17 46 25 68t14 40q23 63 46 82.5t64 19.5q43 0 63.5 -16t40.5 -71q17 -48 42.5 -119t56.5 -158
q28 -78 55 -151t43 -116q3 -8 9 -12t16 -4h18.5h18.5q19 0 29.5 -10.5t10.5 -28.5t-10 -29.5t-27 -11.5h-22t-36 1q-29 1 -45.5 1h-31.5h-30t-45 -1q-27 -1 -40.5 -1h-25.5q-20 0 -30.5 10.5t-10.5 29.5q0 18 11.5 29.5t29.5 11.5h13t19 -1h16h9q15 0 20.5 8.5t0.5 24.5
l-9 27t-16 45l-9 27t-6 17q-4 11 -11 15t-20 4h-54.5h-55.5h-55.5h-55.5q-14 0 -20 -4t-12 -18q-12 -32 -21.5 -61.5t-17.5 -56.5q-4 -15 0.5 -22t19.5 -7h12.5t19.5 1h18.5h11.5q17 0 27.5 -11t10.5 -29t-10 -29t-28 -11h-14.5t-28.5 1q-32 0 -53 0.5t-41 0.5h-30.5
t-41.5 -1zM304 360q-6 -17 -0.5 -24.5t22.5 -8.5h39.5h38.5h40.5h40.5q14 0 18.5 7.5t-0.5 22.5q-28 84 -47 138t-35 97q-2 6 -6.5 9.5t-10.5 3.5t-10.5 -3t-7.5 -10q-14 -37 -30.5 -84t-51.5 -148zM302 799q-4 -16 -11.5 -21.5t-21.5 -5.5t-21 6.5t-7 19.5q0 58 30 92.5
t80 34.5q22 0 42 -7.5t50 -30.5q22 -17 33.5 -22t22.5 -5q18 0 27 9.5t16 35.5q4 15 12.5 20.5t23.5 5.5q12 0 18.5 -6.5t6.5 -19.5q0 -60 -29 -93t-79 -33q-28 0 -50.5 8.5t-52.5 33.5q-18 15 -27.5 19.5t-19.5 4.5q-17 0 -26.5 -10t-16.5 -36z" />
    <glyph glyph-name="Adieresis" unicode="&#xc4;" horiz-adv-x="832" 
d="M13 0zM95 1q-18 -1 -26 -1h-15q-19 0 -30 11t-11 30q0 18 11 29t30 11h8t13 -1q7 -1 10.5 -1h5.5q9 0 14 5.5t10 17.5q42 112 58.5 157t33.5 91q11 30 24 65t37 102q17 46 25 68t14 40q23 63 46 82.5t64 19.5q43 0 63.5 -16t40.5 -71q17 -48 42.5 -119t56.5 -158
q28 -78 55 -151t43 -116q3 -8 9 -12t16 -4h18.5h18.5q19 0 29.5 -10.5t10.5 -28.5t-10 -29.5t-27 -11.5h-22t-36 1q-29 1 -45.5 1h-31.5h-30t-45 -1q-27 -1 -40.5 -1h-25.5q-20 0 -30.5 10.5t-10.5 29.5q0 18 11.5 29.5t29.5 11.5h13t19 -1h16h9q15 0 20.5 8.5t0.5 24.5
l-9 27t-16 45l-9 27t-6 17q-4 11 -11 15t-20 4h-54.5h-55.5h-55.5h-55.5q-14 0 -20 -4t-12 -18q-12 -32 -21.5 -61.5t-17.5 -56.5q-4 -15 0.5 -22t19.5 -7h12.5t19.5 1h18.5h11.5q17 0 27.5 -11t10.5 -29t-10 -29t-28 -11h-14.5t-28.5 1q-32 0 -53 0.5t-41 0.5h-30.5
t-41.5 -1zM304 360q-6 -17 -0.5 -24.5t22.5 -8.5h39.5h38.5h40.5h40.5q14 0 18.5 7.5t-0.5 22.5q-28 84 -47 138t-35 97q-2 6 -6.5 9.5t-10.5 3.5t-10.5 -3t-7.5 -10q-14 -37 -30.5 -84t-51.5 -148zM606 853q1 -32 -26.5 -52.5t-68.5 -20.5q-26 0 -42 13.5t-16 35.5
q0 32 27 53.5t65 21.5q28 0 44 -13.5t17 -37.5zM401 853q0 -32 -27 -52.5t-67 -20.5q-26 0 -42 14t-16 36q0 31 26.5 52t65.5 21q28 0 43.5 -13t16.5 -37z" />
    <glyph glyph-name="Aring" unicode="&#xc5;" horiz-adv-x="832" 
d="M13 0zM95 1q-18 -1 -26 -1h-15q-19 0 -30 11t-11 30q0 18 11 29t30 11h8t13 -1q7 -1 10.5 -1h5.5q9 0 14 5.5t10 17.5q42 112 58.5 157t33.5 91q11 30 24 65t37 102q17 46 25 68t14 40q23 63 46 82.5t64 19.5q43 0 63.5 -16t40.5 -71q17 -48 42.5 -119t56.5 -158
q28 -78 55 -151t43 -116q3 -8 9 -12t16 -4h18.5h18.5q19 0 29.5 -10.5t10.5 -28.5t-10 -29.5t-27 -11.5h-22t-36 1q-29 1 -45.5 1h-31.5h-30t-45 -1q-27 -1 -40.5 -1h-25.5q-20 0 -30.5 10.5t-10.5 29.5q0 18 11.5 29.5t29.5 11.5h13t19 -1h16h9q15 0 20.5 8.5t0.5 24.5
l-9 27t-16 45l-9 27t-6 17q-4 11 -11 15t-20 4h-54.5h-55.5h-55.5h-55.5q-14 0 -20 -4t-12 -18q-12 -32 -21.5 -61.5t-17.5 -56.5q-4 -15 0.5 -22t19.5 -7h12.5t19.5 1h18.5h11.5q17 0 27.5 -11t10.5 -29t-10 -29t-28 -11h-14.5t-28.5 1q-32 0 -53 0.5t-41 0.5h-30.5
t-41.5 -1zM304 360q-6 -17 -0.5 -24.5t22.5 -8.5h39.5h38.5h40.5h40.5q14 0 18.5 7.5t-0.5 22.5q-28 84 -47 138t-35 97q-2 6 -6.5 9.5t-10.5 3.5t-10.5 -3t-7.5 -10q-14 -37 -30.5 -84t-51.5 -148zM538 878q0 -48 -33 -77t-87 -29q-53 0 -83 27t-30 74q0 46 33.5 75.5
t85.5 29.5t83 -27t31 -73zM373 875q0 -19 13 -31.5t34 -12.5q22 0 35.5 12.5t13.5 32.5q0 18 -13 30t-33 12q-22 0 -36 -12t-14 -31z" />
    <glyph glyph-name="AE" unicode="&#xc6;" horiz-adv-x="1147" 
d="M1076 28q-4 -23 -14.5 -33.5t-30.5 -10.5q-6 0 -12.5 1t-19.5 5q-18 6 -29.5 8t-24.5 2q-84 1 -170.5 1.5t-139.5 0.5q-20 0 -41.5 -0.5t-56.5 -0.5q-18 -1 -25 -1h-11q-18 0 -28 11.5t-10 31.5q0 17 10 28t27 11h8.5h13.5q9 -1 13.5 -1h9.5q12 0 17.5 5t6.5 17
q1 16 1 38v85q0 11 -5.5 16.5t-17.5 5.5q-11 1 -30.5 1h-62.5h-28.5t-41.5 -1h-32h-18q-11 0 -16.5 -3t-15.5 -19q-16 -28 -33.5 -57.5t-34.5 -60.5q-7 -12 -1 -20.5t21 -8.5h12.5t19.5 1h18.5h11.5q18 0 29 -11.5t11 -28.5q0 -18 -11 -30t-29 -12h-15t-29 1
q-34 0 -55.5 0.5t-42.5 0.5h-34t-45 -1q-18 -1 -26.5 -1h-14.5q-19 0 -30 12t-11 31q0 18 11.5 29.5t29.5 11.5h8.5t13.5 -1h10h5q10 0 15 4t13 17q187 314 233.5 393.5t88.5 151.5q23 39 46.5 54.5t63.5 15.5h41.5h41.5h94h94h53.5h53.5q15 0 27.5 2t30.5 7q13 3 19 4t12 1
q21 0 32.5 -10.5t14.5 -32.5q5 -33 12.5 -71.5t14.5 -70.5q6 -25 -6.5 -41.5t-36.5 -16.5q-18 0 -30 9.5t-18 29.5q-6 23 -12.5 46t-12.5 41q-5 13 -13 18t-27 6q-37 1 -115.5 1t-102.5 -1q-17 -1 -24 -9t-7 -25q-1 -25 -1 -87t1 -90q1 -14 7 -20.5t19 -7.5q12 -1 54.5 -0.5
t62.5 1.5q9 1 12.5 4.5t3.5 10.5v8.5v14.5q-1 11 -1 17.5v12.5q0 19 11.5 30t30.5 11q20 0 30.5 -11t9.5 -32q-1 -45 -0.5 -113t1.5 -103q1 -21 -10 -33t-31 -12q-19 0 -30.5 12t-11.5 32v13.5t1 19.5v16v9q0 9 -3.5 12.5t-12.5 3.5q-13 1 -54 1t-61 -1q-15 0 -20.5 -6.5
t-6.5 -23.5q-1 -29 -1.5 -95t0.5 -92q0 -13 6 -18.5t23 -6.5q29 -1 112.5 -0.5t118.5 1.5q19 0 27 4.5t13 18.5q8 22 14.5 43t11.5 41q7 22 18.5 32t29.5 10q23 0 35 -17t6 -43q-6 -27 -13 -65.5t-13 -77.5zM393 327h41.5h40.5q5 0 31.5 -0.5t41.5 0.5q12 1 16.5 5.5
t4.5 15.5v25t-1 39v33.5v19.5v50t-1 57v21v10q-1 16 -5.5 23.5t-14.5 7.5q-8 0 -14 -5t-12 -16q-43 -74 -79.5 -135t-69.5 -117q-9 -15 -3 -24t24 -10z" />
    <glyph glyph-name="Ccedilla" unicode="&#xc7;" horiz-adv-x="743" 
d="M494 -128q0 -41 -27.5 -65t-75.5 -24q-46 0 -77 25.5t-31 60.5q0 12 6.5 20t17.5 8q6 0 10.5 -3t9.5 -10q10 -17 25.5 -27.5t32.5 -10.5t26.5 8t9.5 22t-12 24.5t-39 19.5q-15 6 -20 11t-5 13q0 5 2 9.5t7 11.5q5 6 6.5 9.5t1.5 7.5q0 5 -3 7t-15 4q-138 17 -218.5 113
t-80.5 246q0 173 95 274t252 101q43 0 79.5 -8.5t73.5 -27.5q2 -1 15.5 -8t20.5 -7q8 0 11.5 6t4.5 21q1 19 12.5 29.5t30.5 10.5q20 0 31 -11t12 -32q0 -10 0.5 -21.5t0.5 -40.5q0 -21 0.5 -33.5t0.5 -24.5q2 -52 2.5 -80t1.5 -48q1 -19 -10.5 -31t-28.5 -12
q-19 0 -31.5 11t-17.5 32q-12 54 -29.5 87t-45.5 56q-26 23 -60 35.5t-71 12.5q-105 0 -166.5 -70.5t-61.5 -193.5q0 -127 69.5 -204t180.5 -77q73 0 122 27t87 90q6 9 13.5 13.5t16.5 4.5q16 0 26.5 -10t10.5 -25q0 -5 -1 -9.5t-3 -9.5q-32 -78 -94.5 -126.5t-149.5 -60.5
q-13 -1 -21 -8t-8 -16q0 -6 4.5 -10.5t16.5 -9.5q27 -10 42 -30t15 -46z" />
    <glyph glyph-name="Egrave" unicode="&#xc8;" horiz-adv-x="707" 
d="M27 0zM92 719q35 -1 60 -1.5t51 -0.5h128h128q25 0 45.5 2t47.5 7q14 3 20.5 4t12.5 1q21 0 32.5 -10.5t14.5 -32.5q5 -33 12.5 -71.5t14.5 -70.5q6 -25 -6.5 -41.5t-36.5 -16.5q-19 0 -31 9.5t-17 29.5q-10 36 -16.5 58t-8.5 29q-5 13 -13 18t-27 6q-37 1 -116.5 1
t-102.5 -1q-16 -1 -23.5 -9t-8.5 -25q-1 -29 -0.5 -90.5t1.5 -87.5q1 -14 6.5 -20t18.5 -7q16 -1 58.5 -0.5t59.5 1.5q8 0 12.5 4.5t4.5 12.5v8.5v13.5q-1 11 -1 17v12q0 19 11.5 30t30.5 11q20 0 30.5 -11t9.5 -32q-1 -45 -0.5 -113t1.5 -103q1 -21 -10 -33t-31 -12
q-19 0 -30.5 12t-11.5 32v13t1 19v15v9q0 9 -4 13.5t-13 5.5h-29h-87q-15 -1 -20.5 -7.5t-6.5 -22.5q-1 -29 -1.5 -95.5t0.5 -92.5q1 -13 7 -18.5t22 -6.5q29 -1 113.5 -0.5t119.5 1.5q19 0 27 4.5t13 18.5q5 12 9.5 27t16.5 57q6 21 18 31.5t30 10.5q23 0 35 -17t6 -43
q-6 -27 -13 -65.5t-13 -77.5q-4 -23 -15.5 -33.5t-31.5 -10.5q-6 0 -12.5 1t-19.5 5q-17 6 -28.5 8t-23.5 2q-85 1 -171.5 1.5t-140.5 0.5q-20 0 -42 -0.5t-58 -0.5q-17 -1 -24 -1h-11q-18 0 -28 11.5t-10 31.5q0 17 10.5 28t27.5 11h8h13q9 -1 14 -1h10q12 0 17.5 5t5.5 17
q1 23 1.5 66t0.5 188v187.5t-1 66.5q-1 14 -7 20.5t-20 6.5h-8h-12q-9 -1 -13 -1h-8q-18 0 -28 11t-10 30t10.5 30t27.5 11h8h18zM203 882q38 -22 114 -55.5t95 -36.5q11 -2 21.5 4t14.5 16q6 14 2.5 25.5t-16.5 21.5q-39 28 -104 69t-84 48q-16 6 -30.5 0t-23.5 -23
q-12 -22 -9.5 -40.5t20.5 -28.5z" />
    <glyph glyph-name="Eacute" unicode="&#xc9;" horiz-adv-x="707" 
d="M27 0zM92 719q35 -1 60 -1.5t51 -0.5h128h128q25 0 45.5 2t47.5 7q14 3 20.5 4t12.5 1q21 0 32.5 -10.5t14.5 -32.5q5 -33 12.5 -71.5t14.5 -70.5q6 -25 -6.5 -41.5t-36.5 -16.5q-19 0 -31 9.5t-17 29.5q-10 36 -16.5 58t-8.5 29q-5 13 -13 18t-27 6q-37 1 -116.5 1
t-102.5 -1q-16 -1 -23.5 -9t-8.5 -25q-1 -29 -0.5 -90.5t1.5 -87.5q1 -14 6.5 -20t18.5 -7q16 -1 58.5 -0.5t59.5 1.5q8 0 12.5 4.5t4.5 12.5v8.5v13.5q-1 11 -1 17v12q0 19 11.5 30t30.5 11q20 0 30.5 -11t9.5 -32q-1 -45 -0.5 -113t1.5 -103q1 -21 -10 -33t-31 -12
q-19 0 -30.5 12t-11.5 32v13t1 19v15v9q0 9 -4 13.5t-13 5.5h-29h-87q-15 -1 -20.5 -7.5t-6.5 -22.5q-1 -29 -1.5 -95.5t0.5 -92.5q1 -13 7 -18.5t22 -6.5q29 -1 113.5 -0.5t119.5 1.5q19 0 27 4.5t13 18.5q5 12 9.5 27t16.5 57q6 21 18 31.5t30 10.5q23 0 35 -17t6 -43
q-6 -27 -13 -65.5t-13 -77.5q-4 -23 -15.5 -33.5t-31.5 -10.5q-6 0 -12.5 1t-19.5 5q-17 6 -28.5 8t-23.5 2q-85 1 -171.5 1.5t-140.5 0.5q-20 0 -42 -0.5t-58 -0.5q-17 -1 -24 -1h-11q-18 0 -28 11.5t-10 31.5q0 17 10.5 28t27.5 11h8h13q9 -1 14 -1h10q12 0 17.5 5t5.5 17
q1 23 1.5 66t0.5 188v187.5t-1 66.5q-1 14 -7 20.5t-20 6.5h-8h-12q-9 -1 -13 -1h-8q-18 0 -28 11t-10 30t10.5 30t27.5 11h8h18zM518 882q-38 -22 -114 -55.5t-95 -36.5q-11 -2 -21 3.5t-15 16.5q-6 14 -3 25.5t17 21.5q39 28 104 69t84 48q16 6 30.5 0t23.5 -23
q12 -22 9.5 -40.5t-20.5 -28.5z" />
    <glyph glyph-name="Ecircumflex" unicode="&#xca;" horiz-adv-x="707" 
d="M27 0zM92 719q35 -1 60 -1.5t51 -0.5h128h128q25 0 45.5 2t47.5 7q14 3 20.5 4t12.5 1q21 0 32.5 -10.5t14.5 -32.5q5 -33 12.5 -71.5t14.5 -70.5q6 -25 -6.5 -41.5t-36.5 -16.5q-19 0 -31 9.5t-17 29.5q-10 36 -16.5 58t-8.5 29q-5 13 -13 18t-27 6q-37 1 -116.5 1
t-102.5 -1q-16 -1 -23.5 -9t-8.5 -25q-1 -29 -0.5 -90.5t1.5 -87.5q1 -14 6.5 -20t18.5 -7q16 -1 58.5 -0.5t59.5 1.5q8 0 12.5 4.5t4.5 12.5v8.5v13.5q-1 11 -1 17v12q0 19 11.5 30t30.5 11q20 0 30.5 -11t9.5 -32q-1 -45 -0.5 -113t1.5 -103q1 -21 -10 -33t-31 -12
q-19 0 -30.5 12t-11.5 32v13t1 19v15v9q0 9 -4 13.5t-13 5.5h-29h-87q-15 -1 -20.5 -7.5t-6.5 -22.5q-1 -29 -1.5 -95.5t0.5 -92.5q1 -13 7 -18.5t22 -6.5q29 -1 113.5 -0.5t119.5 1.5q19 0 27 4.5t13 18.5q5 12 9.5 27t16.5 57q6 21 18 31.5t30 10.5q23 0 35 -17t6 -43
q-6 -27 -13 -65.5t-13 -77.5q-4 -23 -15.5 -33.5t-31.5 -10.5q-6 0 -12.5 1t-19.5 5q-17 6 -28.5 8t-23.5 2q-85 1 -171.5 1.5t-140.5 0.5q-20 0 -42 -0.5t-58 -0.5q-17 -1 -24 -1h-11q-18 0 -28 11.5t-10 31.5q0 17 10.5 28t27.5 11h8h13q9 -1 14 -1h10q12 0 17.5 5t5.5 17
q1 23 1.5 66t0.5 188v187.5t-1 66.5q-1 14 -7 20.5t-20 6.5h-8h-12q-9 -1 -13 -1h-8q-18 0 -28 11t-10 30t10.5 30t27.5 11h8h18zM303 830q-29 -22 -40 -30t-18 -13q-14 -9 -26.5 -7t-22.5 15q-11 14 -10.5 25t11.5 22q5 5 11.5 11t21.5 19l21 18t13 12q22 19 37 32t25 21
q12 11 20 14t18 3q11 0 18.5 -3.5t17.5 -12.5l6.5 -6.5t12.5 -10.5q16 -15 25.5 -23.5t17.5 -16.5q5 -4 10.5 -9l16.5 -15q19 -16 27 -23.5t13 -13.5q9 -10 8 -20.5t-12 -22.5t-23.5 -14t-26.5 6q-16 10 -56 41.5t-46 36.5q-7 6 -8.5 6.5t-2.5 0.5q-3 0 -5 -1t-7 -5
q-9 -7 -19 -14.5t-28 -21.5z" />
    <glyph glyph-name="Edieresis" unicode="&#xcb;" horiz-adv-x="707" 
d="M27 0zM92 719q35 -1 60 -1.5t51 -0.5h128h128q25 0 45.5 2t47.5 7q14 3 20.5 4t12.5 1q21 0 32.5 -10.5t14.5 -32.5q5 -33 12.5 -71.5t14.5 -70.5q6 -25 -6.5 -41.5t-36.5 -16.5q-19 0 -31 9.5t-17 29.5q-10 36 -16.5 58t-8.5 29q-5 13 -13 18t-27 6q-37 1 -116.5 1
t-102.5 -1q-16 -1 -23.5 -9t-8.5 -25q-1 -29 -0.5 -90.5t1.5 -87.5q1 -14 6.5 -20t18.5 -7q16 -1 58.5 -0.5t59.5 1.5q8 0 12.5 4.5t4.5 12.5v8.5v13.5q-1 11 -1 17v12q0 19 11.5 30t30.5 11q20 0 30.5 -11t9.5 -32q-1 -45 -0.5 -113t1.5 -103q1 -21 -10 -33t-31 -12
q-19 0 -30.5 12t-11.5 32v13t1 19v15v9q0 9 -4 13.5t-13 5.5h-29h-87q-15 -1 -20.5 -7.5t-6.5 -22.5q-1 -29 -1.5 -95.5t0.5 -92.5q1 -13 7 -18.5t22 -6.5q29 -1 113.5 -0.5t119.5 1.5q19 0 27 4.5t13 18.5q5 12 9.5 27t16.5 57q6 21 18 31.5t30 10.5q23 0 35 -17t6 -43
q-6 -27 -13 -65.5t-13 -77.5q-4 -23 -15.5 -33.5t-31.5 -10.5q-6 0 -12.5 1t-19.5 5q-17 6 -28.5 8t-23.5 2q-85 1 -171.5 1.5t-140.5 0.5q-20 0 -42 -0.5t-58 -0.5q-17 -1 -24 -1h-11q-18 0 -28 11.5t-10 31.5q0 17 10.5 28t27.5 11h8h13q9 -1 14 -1h10q12 0 17.5 5t5.5 17
q1 23 1.5 66t0.5 188v187.5t-1 66.5q-1 14 -7 20.5t-20 6.5h-8h-12q-9 -1 -13 -1h-8q-18 0 -28 11t-10 30t10.5 30t27.5 11h8h18zM544 853q1 -32 -26.5 -52.5t-68.5 -20.5q-26 0 -42 13.5t-16 35.5q0 32 27 53.5t65 21.5q28 0 44 -13.5t17 -37.5zM339 853q0 -32 -27 -52.5
t-67 -20.5q-26 0 -42 14t-16 36q0 31 26.5 52t65.5 21q28 0 43.5 -13t16.5 -37z" />
    <glyph glyph-name="Igrave" unicode="&#xcc;" horiz-adv-x="392" 
d="M11 0zM295 1q-36 1 -58.5 1h-43.5q-20 0 -41.5 -0.5t-55.5 -0.5q-16 -1 -22 -1h-10q-17 0 -26.5 11.5t-9.5 30.5q0 18 10 29t26 11h9h14q9 -1 14 -1h10q12 0 17 5t6 17q2 30 2 140v113q0 84 -0.5 151.5t-1.5 103.5q0 14 -6 20t-20 6h-7h-12q-10 -1 -15 -1h-10
q-16 0 -26 11.5t-10 29.5t9.5 29.5t26.5 11.5h10.5t22.5 -1q35 0 56.5 -0.5t41.5 -0.5q21 0 44 0.5t58 0.5q16 1 21.5 1h9.5q17 0 26.5 -11.5t9.5 -30.5q0 -18 -10 -29t-26 -11h-7.5h-12.5q-10 1 -15 1h-9q-13 0 -18.5 -6t-6.5 -20q-1 -21 -1.5 -67t-0.5 -188v-186.5
t1 -66.5q1 -12 6.5 -17t18.5 -5h8.5t14.5 1t14.5 1h8.5q16 0 26 -11.5t10 -29.5t-10 -29.5t-26 -11.5h-10.5h-23.5zM32 871q38 -22 114 -55.5t95 -36.5q11 -2 21.5 4t14.5 16q6 14 2.5 25.5t-16.5 21.5q-39 28 -104 69t-84 48q-16 6 -30.5 0t-23.5 -23q-12 -22 -9.5 -40.5
t20.5 -28.5z" />
    <glyph glyph-name="Iacute" unicode="&#xcd;" horiz-adv-x="392" 
d="M28 0zM295 1q-36 1 -58.5 1h-43.5q-20 0 -41.5 -0.5t-55.5 -0.5q-16 -1 -22 -1h-10q-17 0 -26.5 11.5t-9.5 30.5q0 18 10 29t26 11h9h14q9 -1 14 -1h10q12 0 17 5t6 17q2 30 2 140v113q0 84 -0.5 151.5t-1.5 103.5q0 14 -6 20t-20 6h-7h-12q-10 -1 -15 -1h-10
q-16 0 -26 11.5t-10 29.5t9.5 29.5t26.5 11.5h10.5t22.5 -1q35 0 56.5 -0.5t41.5 -0.5q21 0 44 0.5t58 0.5q16 1 21.5 1h9.5q17 0 26.5 -11.5t9.5 -30.5q0 -18 -10 -29t-26 -11h-7.5h-12.5q-10 1 -15 1h-9q-13 0 -18.5 -6t-6.5 -20q-1 -21 -1.5 -67t-0.5 -188v-186.5
t1 -66.5q1 -12 6.5 -17t18.5 -5h8.5t14.5 1t14.5 1h8.5q16 0 26 -11.5t10 -29.5t-10 -29.5t-26 -11.5h-10.5h-23.5zM365 872q-38 -22 -114 -55.5t-95 -36.5q-11 -2 -21 3.5t-15 16.5q-6 14 -3 25.5t17 21.5q39 28 104 69t84 48q16 6 30.5 0t23.5 -23q12 -22 9.5 -40.5
t-20.5 -28.5z" />
    <glyph glyph-name="Icircumflex" unicode="&#xce;" horiz-adv-x="392" 
d="M20 0zM295 1q-36 1 -58.5 1h-43.5q-20 0 -41.5 -0.5t-55.5 -0.5q-16 -1 -22 -1h-10q-17 0 -26.5 11.5t-9.5 30.5q0 18 10 29t26 11h9h14q9 -1 14 -1h10q12 0 17 5t6 17q2 30 2 140v113q0 84 -0.5 151.5t-1.5 103.5q0 14 -6 20t-20 6h-7h-12q-10 -1 -15 -1h-10
q-16 0 -26 11.5t-10 29.5t9.5 29.5t26.5 11.5h10.5t22.5 -1q35 0 56.5 -0.5t41.5 -0.5q21 0 44 0.5t58 0.5q16 1 21.5 1h9.5q17 0 26.5 -11.5t9.5 -30.5q0 -18 -10 -29t-26 -11h-7.5h-12.5q-10 1 -15 1h-9q-13 0 -18.5 -6t-6.5 -20q-1 -21 -1.5 -67t-0.5 -188v-186.5
t1 -66.5q1 -12 6.5 -17t18.5 -5h8.5t14.5 1t14.5 1h8.5q16 0 26 -11.5t10 -29.5t-10 -29.5t-26 -11.5h-10.5h-23.5zM138 830q-29 -22 -40 -30t-18 -13q-14 -9 -26.5 -7t-22.5 15q-11 14 -10.5 25t11.5 22q5 5 11.5 11t21.5 19l21 18t13 12q22 19 37 32t25 21q12 11 20 14
t18 3q11 0 18.5 -3.5t17.5 -12.5l6.5 -6.5t12.5 -10.5q16 -15 25.5 -23.5t17.5 -16.5q5 -4 10.5 -9l16.5 -15q19 -16 27 -23.5t13 -13.5q9 -10 8 -20.5t-12 -22.5t-23.5 -14t-26.5 6q-16 10 -56 41.5t-46 36.5q-7 6 -8.5 6.5t-2.5 0.5q-3 0 -5 -1t-7 -5q-9 -7 -19 -14.5
t-28 -21.5z" />
    <glyph glyph-name="Idieresis" unicode="&#xcf;" horiz-adv-x="392" 
d="M15 0zM295 1q-36 1 -58.5 1h-43.5q-20 0 -41.5 -0.5t-55.5 -0.5q-16 -1 -22 -1h-10q-17 0 -26.5 11.5t-9.5 30.5q0 18 10 29t26 11h9h14q9 -1 14 -1h10q12 0 17 5t6 17q2 30 2 140v113q0 84 -0.5 151.5t-1.5 103.5q0 14 -6 20t-20 6h-7h-12q-10 -1 -15 -1h-10
q-16 0 -26 11.5t-10 29.5t9.5 29.5t26.5 11.5h10.5t22.5 -1q35 0 56.5 -0.5t41.5 -0.5q21 0 44 0.5t58 0.5q16 1 21.5 1h9.5q17 0 26.5 -11.5t9.5 -30.5q0 -18 -10 -29t-26 -11h-7.5h-12.5q-10 1 -15 1h-9q-13 0 -18.5 -6t-6.5 -20q-1 -21 -1.5 -67t-0.5 -188v-186.5
t1 -66.5q1 -12 6.5 -17t18.5 -5h8.5t14.5 1t14.5 1h8.5q16 0 26 -11.5t10 -29.5t-10 -29.5t-26 -11.5h-10.5h-23.5zM372 853q1 -32 -26.5 -52.5t-68.5 -20.5q-26 0 -42 13.5t-16 35.5q0 32 27 53.5t65 21.5q28 0 44 -13.5t17 -37.5zM167 853q0 -32 -27 -52.5t-67 -20.5
q-26 0 -42 14t-16 36q0 31 26.5 52t65.5 21q28 0 43.5 -13t16.5 -37z" />
    <glyph glyph-name="Eth" unicode="&#xd0;" horiz-adv-x="803" 
d="M111 1q-20 -1 -28 -1h-13q-20 0 -31.5 11t-11.5 31q0 17 11.5 28.5t30.5 11.5h8t11 -1h10.5h7.5q14 0 20 5t6 18q1 30 1.5 82t0.5 109q0 11 -5 16.5t-15 5.5h-4h-12q-10 -1 -14.5 -1h-7.5q-20 0 -30.5 11t-10.5 32t10.5 32t30.5 11h6.5t13.5 -1h12.5h5.5q10 0 15 5.5
t5 16.5v133.5t-1 50.5q0 16 -6 23t-21 7h-7.5h-9.5q-7 -1 -11.5 -1h-9.5q-18 0 -29.5 11.5t-11.5 29.5t11 29.5t30 11.5h16.5h31.5q32 -1 50.5 -1h34.5h27h44q40 1 63.5 1h46.5q181 0 278.5 -90.5t97.5 -257.5q0 -177 -100 -274t-284 -97q-22 0 -44 0.5t-60 1.5
q-29 1 -43.5 1h-27.5q-15 0 -34 -0.5t-54 -0.5zM255 126q1 -26 18 -37t54 -11h17.5h16.5q136 0 202 65.5t66 200.5q0 143 -73.5 220t-207.5 77h-16.5h-16.5q-33 0 -45.5 -9.5t-14.5 -36.5q-1 -22 -1.5 -67.5t-0.5 -104.5q0 -11 5.5 -16t17.5 -5h64h64q21 0 32 -10.5
t11 -31.5t-11 -32t-32 -11h-64h-64q-12 0 -17.5 -5.5t-5.5 -17.5q0 -56 0.5 -99t1.5 -69z" />
    <glyph glyph-name="Ntilde" unicode="&#xd1;" horiz-adv-x="866" 
d="M26 0zM264 1q-37 0 -57 0.5t-37 0.5t-35 -0.5t-44 -0.5q-13 -1 -18 -1h-8q-17 0 -27.5 11.5t-10.5 30.5q0 18 10.5 29t27.5 11h8h12q8 -1 12 -1h9q14 0 19.5 4.5t6.5 16.5q1 18 1.5 62t0.5 184q0 147 -0.5 190t-1.5 63q-1 19 -8 27.5t-23 8.5h-4.5t-7.5 -1q-9 -1 -14 -1
h-10q-18 0 -28.5 11.5t-10.5 29.5q0 19 10.5 30.5t28.5 11.5h14.5h22.5q16 -1 24 -1h16h15h24q18 1 27 1h17q36 0 54.5 -11.5t39.5 -45.5q190 -312 232 -380.5t70 -111.5q5 -8 8.5 -10.5t8.5 -2.5q6 0 9 3.5t3 10.5v9v20q1 50 1 94v95q0 75 -0.5 131t-1.5 92
q-1 15 -6.5 20.5t-19.5 5.5h-9.5h-17.5q-12 -1 -17.5 -1h-10.5q-17 0 -28 11.5t-11 29.5t10.5 29.5t28.5 11.5h20.5h36.5q33 -1 50.5 -1h32.5h27.5t39.5 1h21.5h11.5q17 0 27 -11.5t10 -29.5t-10.5 -29.5t-26.5 -11.5h-8t-12 1h-10.5h-6.5q-14 0 -20.5 -6.5t-6.5 -20.5
q-1 -37 -1.5 -100t-0.5 -143q-1 -57 -1 -117.5v-150.5q-1 -55 -21 -81t-63 -26q-31 0 -56.5 18.5t-54.5 63.5q-18 28 -45 71.5t-89 144.5q-76 124 -107 173.5t-48 74.5q-6 10 -10 13t-9 3t-8.5 -4t-3.5 -10v-5.5v-13.5q-1 -46 -1 -89v-92q0 -90 0.5 -151t1.5 -87
q0 -11 6.5 -16.5t20.5 -5.5h14.5t20.5 1q10 1 14.5 1h8.5q16 0 26 -11t10 -28q0 -20 -9.5 -31.5t-26.5 -11.5h-15.5t-32.5 1zM323 799q-4 -16 -11.5 -21.5t-21.5 -5.5t-21 6.5t-7 19.5q0 58 30 92.5t80 34.5q22 0 42 -7.5t50 -30.5q22 -17 33.5 -22t22.5 -5q18 0 27 9.5
t16 35.5q4 15 12.5 20.5t23.5 5.5q12 0 18.5 -6.5t6.5 -19.5q0 -60 -29 -93t-79 -33q-28 0 -50.5 8.5t-52.5 33.5q-18 15 -27.5 19.5t-19.5 4.5q-17 0 -26.5 -10t-16.5 -36z" />
    <glyph glyph-name="Ograve" unicode="&#xd2;" horiz-adv-x="821" 
d="M45 0zM776 373q0 -175 -101 -279t-271 -104q-160 0 -259.5 98.5t-99.5 257.5q0 170 104.5 275.5t269.5 105.5q156 0 256.5 -99t100.5 -255zM176 374q-2 -133 65 -213.5t180 -80.5q102 0 163 74.5t61 198.5q0 134 -63 209.5t-177 75.5q-100 0 -164 -72.5t-65 -191.5z
M266 883q38 -22 114 -55.5t95 -36.5q11 -2 21.5 4t14.5 16q6 14 2.5 25.5t-16.5 21.5q-39 28 -104 69t-84 48q-16 6 -30.5 0t-23.5 -23q-12 -22 -9.5 -40.5t20.5 -28.5z" />
    <glyph glyph-name="Oacute" unicode="&#xd3;" horiz-adv-x="821" 
d="M45 0zM776 373q0 -175 -101 -279t-271 -104q-160 0 -259.5 98.5t-99.5 257.5q0 170 104.5 275.5t269.5 105.5q156 0 256.5 -99t100.5 -255zM176 374q-2 -133 65 -213.5t180 -80.5q102 0 163 74.5t61 198.5q0 134 -63 209.5t-177 75.5q-100 0 -164 -72.5t-65 -191.5z
M573 882q-38 -22 -114 -55.5t-95 -36.5q-11 -2 -21 3.5t-15 16.5q-6 14 -3 25.5t17 21.5q39 28 104 69t84 48q16 6 30.5 0t23.5 -23q12 -22 9.5 -40.5t-20.5 -28.5z" />
    <glyph glyph-name="Ocircumflex" unicode="&#xd4;" horiz-adv-x="821" 
d="M45 0zM776 373q0 -175 -101 -279t-271 -104q-160 0 -259.5 98.5t-99.5 257.5q0 170 104.5 275.5t269.5 105.5q156 0 256.5 -99t100.5 -255zM176 374q-2 -133 65 -213.5t180 -80.5q102 0 163 74.5t61 198.5q0 134 -63 209.5t-177 75.5q-100 0 -164 -72.5t-65 -191.5z
M355 830q-29 -22 -40 -30t-18 -13q-14 -9 -26.5 -7t-22.5 15q-11 14 -10.5 25t11.5 22q5 5 11.5 11t21.5 19l21 18t13 12q22 19 37 32t25 21q12 11 20 14t18 3q11 0 18.5 -3.5t17.5 -12.5l6.5 -6.5t12.5 -10.5q16 -15 25.5 -23.5t17.5 -16.5q5 -4 10.5 -9l16.5 -15
q19 -16 27 -23.5t13 -13.5q9 -10 8 -20.5t-12 -22.5t-23.5 -14t-26.5 6q-16 10 -56 41.5t-46 36.5q-7 6 -8.5 6.5t-2.5 0.5q-3 0 -5 -1t-7 -5q-9 -7 -19 -14.5t-28 -21.5z" />
    <glyph glyph-name="Otilde" unicode="&#xd5;" horiz-adv-x="821" 
d="M45 0zM776 373q0 -175 -101 -279t-271 -104q-160 0 -259.5 98.5t-99.5 257.5q0 170 104.5 275.5t269.5 105.5q156 0 256.5 -99t100.5 -255zM176 374q-2 -133 65 -213.5t180 -80.5q102 0 163 74.5t61 198.5q0 134 -63 209.5t-177 75.5q-100 0 -164 -72.5t-65 -191.5z
M296 799q-4 -16 -11.5 -21.5t-21.5 -5.5t-21 6.5t-7 19.5q0 58 30 92.5t80 34.5q22 0 42 -7.5t50 -30.5q22 -17 33.5 -22t22.5 -5q18 0 27 9.5t16 35.5q4 15 12.5 20.5t23.5 5.5q12 0 18.5 -6.5t6.5 -19.5q0 -60 -29 -93t-79 -33q-28 0 -50.5 8.5t-52.5 33.5
q-18 15 -27.5 19.5t-19.5 4.5q-17 0 -26.5 -10t-16.5 -36z" />
    <glyph glyph-name="Odieresis" unicode="&#xd6;" horiz-adv-x="821" 
d="M45 0zM776 373q0 -175 -101 -279t-271 -104q-160 0 -259.5 98.5t-99.5 257.5q0 170 104.5 275.5t269.5 105.5q156 0 256.5 -99t100.5 -255zM176 374q-2 -133 65 -213.5t180 -80.5q102 0 163 74.5t61 198.5q0 134 -63 209.5t-177 75.5q-100 0 -164 -72.5t-65 -191.5z
M604 853q1 -32 -26.5 -52.5t-68.5 -20.5q-26 0 -42 13.5t-16 35.5q0 32 27 53.5t65 21.5q28 0 44 -13.5t17 -37.5zM399 853q0 -32 -27 -52.5t-67 -20.5q-26 0 -42 14t-16 36q0 31 26.5 52t65.5 21q28 0 43.5 -13t16.5 -37z" />
    <glyph glyph-name="multiply" unicode="&#xd7;" horiz-adv-x="429" 
d="M158 234q-21 -23 -39 -24.5t-38 18.5q-17 17 -15.5 34.5t21.5 37.5q9 7 25 24t21 22q6 6 6 12.5t-5 12.5q-12 12 -24 23.5t-24 23.5q-20 21 -21 38t18 35q17 18 35 16.5t37 -22.5q11 -11 23 -22.5t23 -23.5q7 -7 12.5 -7t12.5 7q22 21 31.5 31t14.5 16q20 20 38 21.5
t37 -17.5q17 -17 15.5 -35t-20.5 -36l-23.5 -23.5l-23.5 -23.5q-6 -6 -6 -12.5t7 -13.5l23.5 -23.5l23.5 -23.5q20 -19 21 -36t-17 -36q-18 -18 -36 -16.5t-37 20.5q-11 12 -22.5 23.5t-23.5 22.5q-7 7 -13 7t-13 -7q-11 -10 -22 -21z" />
    <glyph glyph-name="Oslash" unicode="&#xd8;" horiz-adv-x="821" 
d="M776 369q0 -174 -100.5 -276.5t-270.5 -102.5q-56 0 -107 14t-98 43q-5 3 -9.5 2t-10.5 -8l-42 -49q-13 -16 -29.5 -17.5t-33.5 11.5q-16 13 -16 31t16 35l44 47q5 5 5 10t-5 12q-36 50 -55 108t-19 121q0 168 104.5 272.5t268.5 104.5q57 0 105 -12.5t89 -37.5
q11 -6 17 -6t12 6l41 45q13 15 30 16t34 -13q15 -13 15.5 -30.5t-12.5 -30.5l-45 -45q-5 -6 -5 -12.5t4 -12.5q34 -46 53.5 -106t19.5 -119zM407 638q-104 0 -171 -74.5t-67 -195.5q0 -59 16 -109t31 -50q4 0 8 3t12 13l301 340q6 6 8 10.5t2 8.5q0 20 -43.5 37t-96.5 17z
M273 138q0 -19 48 -38.5t97 -19.5q104 0 169.5 75.5t65.5 198.5q0 57 -15.5 107t-31.5 50q-4 0 -8 -2.5t-9 -8.5l-306 -344q-6 -7 -8 -11t-2 -7z" />
    <glyph glyph-name="Ugrave" unicode="&#xd9;" horiz-adv-x="804" 
d="M18 0zM689 294q0 -150 -71.5 -228t-210.5 -78q-143 0 -215 76.5t-71 227.5q1 71 0 169.5t-2 148.5q-1 14 -7.5 20.5t-20.5 6.5h-6h-10q-8 -1 -12.5 -1h-8.5q-16 0 -26 11t-10 29q0 19 10 31t26 12h10.5t22.5 -1q33 0 54 -0.5t40 -0.5h32.5t49.5 1q24 1 34.5 1h18.5
q17 0 26.5 -12t9.5 -32q0 -17 -10 -28t-26 -11h-8.5h-13.5q-9 1 -14 1h-10q-14 0 -20.5 -6.5t-7.5 -20.5q-1 -41 -0.5 -142.5t1.5 -168.5q2 -107 45.5 -158t131.5 -51q91 0 133.5 49.5t42.5 156.5v223.5t-1 89.5q-1 15 -8 22t-21 7h-10t-14 -1h-13.5h-8.5q-17 0 -27 11
t-10 29q0 19 10 30t27 11h18h34q32 -1 49 -1h32h29t40 1h18.5h9.5q17 0 27 -11.5t10 -29.5t-10 -29.5t-27 -11.5h-6.5t-10.5 1h-10.5h-6.5q-14 0 -20.5 -6.5t-6.5 -20.5q-1 -32 -0.5 -157.5t0.5 -158.5zM244 883q38 -22 114 -55.5t95 -36.5q11 -2 21.5 4t14.5 16
q6 14 2.5 25.5t-16.5 21.5q-39 28 -104 69t-84 48q-16 6 -30.5 0t-23.5 -23q-12 -22 -9.5 -40.5t20.5 -28.5z" />
    <glyph glyph-name="Uacute" unicode="&#xda;" horiz-adv-x="804" 
d="M18 0zM689 294q0 -150 -71.5 -228t-210.5 -78q-143 0 -215 76.5t-71 227.5q1 71 0 169.5t-2 148.5q-1 14 -7.5 20.5t-20.5 6.5h-6h-10q-8 -1 -12.5 -1h-8.5q-16 0 -26 11t-10 29q0 19 10 31t26 12h10.5t22.5 -1q33 0 54 -0.5t40 -0.5h32.5t49.5 1q24 1 34.5 1h18.5
q17 0 26.5 -12t9.5 -32q0 -17 -10 -28t-26 -11h-8.5h-13.5q-9 1 -14 1h-10q-14 0 -20.5 -6.5t-7.5 -20.5q-1 -41 -0.5 -142.5t1.5 -168.5q2 -107 45.5 -158t131.5 -51q91 0 133.5 49.5t42.5 156.5v223.5t-1 89.5q-1 15 -8 22t-21 7h-10t-14 -1h-13.5h-8.5q-17 0 -27 11
t-10 29q0 19 10 30t27 11h18h34q32 -1 49 -1h32h29t40 1h18.5h9.5q17 0 27 -11.5t10 -29.5t-10 -29.5t-27 -11.5h-6.5t-10.5 1h-10.5h-6.5q-14 0 -20.5 -6.5t-6.5 -20.5q-1 -32 -0.5 -157.5t0.5 -158.5zM589 882q-38 -22 -114 -55.5t-95 -36.5q-11 -2 -21 3.5t-15 16.5
q-6 14 -3 25.5t17 21.5q39 28 104 69t84 48q16 6 30.5 0t23.5 -23q12 -22 9.5 -40.5t-20.5 -28.5z" />
    <glyph glyph-name="Ucircumflex" unicode="&#xdb;" horiz-adv-x="804" 
d="M18 0zM689 294q0 -150 -71.5 -228t-210.5 -78q-143 0 -215 76.5t-71 227.5q1 71 0 169.5t-2 148.5q-1 14 -7.5 20.5t-20.5 6.5h-6h-10q-8 -1 -12.5 -1h-8.5q-16 0 -26 11t-10 29q0 19 10 31t26 12h10.5t22.5 -1q33 0 54 -0.5t40 -0.5h32.5t49.5 1q24 1 34.5 1h18.5
q17 0 26.5 -12t9.5 -32q0 -17 -10 -28t-26 -11h-8.5h-13.5q-9 1 -14 1h-10q-14 0 -20.5 -6.5t-7.5 -20.5q-1 -41 -0.5 -142.5t1.5 -168.5q2 -107 45.5 -158t131.5 -51q91 0 133.5 49.5t42.5 156.5v223.5t-1 89.5q-1 15 -8 22t-21 7h-10t-14 -1h-13.5h-8.5q-17 0 -27 11
t-10 29q0 19 10 30t27 11h18h34q32 -1 49 -1h32h29t40 1h18.5h9.5q17 0 27 -11.5t10 -29.5t-10 -29.5t-27 -11.5h-6.5t-10.5 1h-10.5h-6.5q-14 0 -20.5 -6.5t-6.5 -20.5q-1 -32 -0.5 -157.5t0.5 -158.5zM355 830q-29 -22 -40 -30t-18 -13q-14 -9 -26.5 -7t-22.5 15
q-11 14 -10.5 25t11.5 22q5 5 11.5 11t21.5 19l21 18t13 12q22 19 37 32t25 21q12 11 20 14t18 3q11 0 18.5 -3.5t17.5 -12.5l6.5 -6.5t12.5 -10.5q16 -15 25.5 -23.5t17.5 -16.5q5 -4 10.5 -9l16.5 -15q19 -16 27 -23.5t13 -13.5q9 -10 8 -20.5t-12 -22.5t-23.5 -14
t-26.5 6q-16 10 -56 41.5t-46 36.5q-7 6 -8.5 6.5t-2.5 0.5q-3 0 -5 -1t-7 -5q-9 -7 -19 -14.5t-28 -21.5z" />
    <glyph glyph-name="Udieresis" unicode="&#xdc;" horiz-adv-x="804" 
d="M18 0zM689 294q0 -150 -71.5 -228t-210.5 -78q-143 0 -215 76.5t-71 227.5q1 71 0 169.5t-2 148.5q-1 14 -7.5 20.5t-20.5 6.5h-6h-10q-8 -1 -12.5 -1h-8.5q-16 0 -26 11t-10 29q0 19 10 31t26 12h10.5t22.5 -1q33 0 54 -0.5t40 -0.5h32.5t49.5 1q24 1 34.5 1h18.5
q17 0 26.5 -12t9.5 -32q0 -17 -10 -28t-26 -11h-8.5h-13.5q-9 1 -14 1h-10q-14 0 -20.5 -6.5t-7.5 -20.5q-1 -41 -0.5 -142.5t1.5 -168.5q2 -107 45.5 -158t131.5 -51q91 0 133.5 49.5t42.5 156.5v223.5t-1 89.5q-1 15 -8 22t-21 7h-10t-14 -1h-13.5h-8.5q-17 0 -27 11
t-10 29q0 19 10 30t27 11h18h34q32 -1 49 -1h32h29t40 1h18.5h9.5q17 0 27 -11.5t10 -29.5t-10 -29.5t-27 -11.5h-6.5t-10.5 1h-10.5h-6.5q-14 0 -20.5 -6.5t-6.5 -20.5q-1 -32 -0.5 -157.5t0.5 -158.5zM605 853q1 -32 -26.5 -52.5t-68.5 -20.5q-26 0 -42 13.5t-16 35.5
q0 32 27 53.5t65 21.5q28 0 44 -13.5t17 -37.5zM400 853q0 -32 -27 -52.5t-67 -20.5q-26 0 -42 14t-16 36q0 31 26.5 52t65.5 21q28 0 43.5 -13t16.5 -37z" />
    <glyph glyph-name="Yacute" unicode="&#xdd;" horiz-adv-x="753" 
d="M13 0zM282 0q-16 -1 -22 -1h-10q-17 0 -27 12t-10 31q0 18 10 29t27 11h8.5t13.5 -1q11 -1 17 -1h11q13 0 19 5.5t7 16.5q1 31 1.5 78t0.5 80q0 17 -4 29t-16 31q-49 76 -108.5 165t-93.5 136q-7 11 -12.5 14.5t-15.5 3.5h-5.5h-7.5q-6 -1 -8.5 -1h-5.5q-17 0 -27.5 11.5
t-10.5 29.5t10.5 29t27.5 11h13.5t24.5 -1q28 0 45.5 -0.5t34.5 -0.5q22 0 42.5 0.5t51.5 0.5q19 1 27.5 1h15.5q18 0 28 -11t10 -30q0 -18 -10.5 -29t-27.5 -11h-13t-18 1h-11.5h-6.5q-11 0 -15 -6t2 -16q5 -9 13 -21.5t25 -40.5q12 -17 17.5 -26t10.5 -17q16 -26 35 -54.5
t36 -52.5q4 -6 7 -8t7 -2t7 2.5t7 7.5q12 17 30.5 45t43.5 68q17 28 32.5 53.5t26.5 44.5q6 11 2 17t-15 6h-7h-14q-12 -1 -18 -1h-10q-17 0 -27.5 11.5t-10.5 28.5q0 19 10 30t28 11h16t28 -1q29 -1 48 -1h38h22t35 1q16 1 23.5 1h12.5q17 0 27.5 -11.5t10.5 -30.5
q0 -17 -10.5 -28t-27.5 -11h-5.5t-6.5 1h-5.5h-3.5q-11 0 -17.5 -3.5t-12.5 -12.5q-38 -56 -100 -150.5t-96 -147.5q-8 -13 -10.5 -24.5t-2.5 -34.5v-112t1 -53q0 -11 5.5 -16t19.5 -5h9.5t15.5 1q9 1 13.5 1h7.5q17 0 27 -11.5t10 -29.5q0 -19 -10 -30.5t-27 -11.5h-10.5
t-22.5 1q-36 0 -58.5 0.5t-43.5 0.5q-20 0 -41.5 -0.5t-56.5 -0.5zM549 882q-38 -22 -114 -55.5t-95 -36.5q-11 -2 -21 3.5t-15 16.5q-6 14 -3 25.5t17 21.5q39 28 104 69t84 48q16 6 30.5 0t23.5 -23q12 -22 9.5 -40.5t-20.5 -28.5z" />
    <glyph glyph-name="Thorn" unicode="&#xde;" horiz-adv-x="655" 
d="M112 0q-22 -1 -31 -1h-15q-18 0 -28.5 12t-10.5 31q0 18 11 29.5t28 11.5h8.5t12.5 -1t12.5 -1h8.5q12 0 17.5 5t6.5 17q1 42 1.5 105t0.5 150q0 85 -0.5 150.5t-1.5 102.5q0 14 -6 20t-21 6h-7.5h-10.5q-8 -1 -12 -1h-9q-18 0 -28.5 11.5t-10.5 29.5q0 19 11 30.5
t29 11.5h22.5t40.5 -1q30 -1 45 -1h27q20 0 44 0.5t67 1.5q25 1 34.5 1h15.5q17 0 27.5 -12.5t10.5 -32.5q0 -17 -10.5 -28.5t-27.5 -11.5h-13.5t-23.5 1q-18 1 -27.5 1h-17.5q-15 0 -20.5 -5.5t-6.5 -19.5v-17.5v-17.5q1 -18 7.5 -23.5t27.5 -5.5h44.5h44.5
q122 0 185.5 -44t63.5 -129q0 -95 -70.5 -141.5t-213.5 -46.5h-26.5h-27.5q-21 0 -27.5 -5.5t-7.5 -23.5q-1 -10 -0.5 -29.5t0.5 -21.5q1 -14 6.5 -19.5t20.5 -5.5h17.5t27.5 1q16 1 23.5 1h13.5q17 0 27.5 -11.5t10.5 -28.5q0 -20 -10.5 -32.5t-27.5 -12.5h-16t-35 1
q-44 0 -67.5 0.5t-43.5 0.5h-36.5t-52.5 -1zM255 297q1 -22 8.5 -29.5t29.5 -7.5h25.5h25.5q82 0 119 25.5t37 85.5q0 52 -36 77.5t-111 25.5h-29.5h-29.5q-21 0 -30 -9t-9 -31v-30.5v-31.5v-37.5v-37.5z" />
    <glyph glyph-name="germandbls" unicode="&#xdf;" horiz-adv-x="780" 
d="M245 1q-24 1 -37.5 1h-26.5q-17 0 -35.5 -0.5t-49.5 -0.5q-17 -1 -23.5 -1h-10.5q-17 0 -27 10.5t-10 28.5q0 17 10 28t26 11h8.5h13.5q8 -1 12.5 -1h8.5q14 0 19.5 5t6.5 18q1 14 1 45v127v72t-2 163q-1 126 70 192t206 66q102 0 160 -40.5t58 -112.5q0 -45 -19.5 -75
t-64.5 -52q-27 -13 -38 -26t-11 -32q0 -20 13.5 -34t47.5 -29l64 -29q65 -28 95.5 -70.5t30.5 -105.5q0 -76 -44.5 -121.5t-122.5 -45.5q-23 0 -44 6t-47 22q-9 7 -13 8.5t-7 1.5q-5 0 -8.5 -4t-6.5 -13q-4 -11 -12.5 -17.5t-21.5 -6.5q-18 0 -29 11t-10 30q1 16 1 36.5
t-1 42.5q0 9 -0.5 17.5t-2.5 24.5l-1.5 22.5t-0.5 13.5q0 18 10.5 29.5t27.5 11.5q15 0 25 -9.5t11 -25.5q2 -22 8 -38.5t17 -33.5q13 -20 34.5 -30.5t50.5 -10.5q34 0 53 20.5t19 57.5q0 35 -20 59.5t-61 40.5l-55 22q-55 22 -81.5 54t-26.5 80q0 36 17 63.5t53 48.5
q29 18 40 35.5t11 43.5q0 38 -29 59.5t-80 21.5q-73 0 -111 -43t-37 -125q1 -108 1.5 -157t0.5 -93v-121.5t1 -46.5q0 -13 4.5 -18t16.5 -5h4t7 1h6h4q16 0 26 -11t10 -28q0 -18 -10 -28.5t-27 -10.5h-17t-28 1z" />
    <glyph glyph-name="agrave" unicode="&#xe0;" horiz-adv-x="617" 
d="M40 0zM383 61q-29 -34 -73 -53t-96 -19q-83 0 -128.5 39t-45.5 110q0 70 47.5 111t146.5 55q14 2 28.5 4t39.5 5q20 2 29 3.5t16 2.5q28 5 38 16t10 38v8q0 46 -29.5 73t-80.5 27t-80.5 -21t-40.5 -64q-6 -24 -22 -37t-40 -13q-25 0 -40 15t-14 39q5 68 73.5 113.5
t168.5 45.5q107 0 162.5 -48.5t55.5 -141.5v-113.5v-113.5q0 -34 11 -49.5t36 -15.5q3 0 6.5 0.5t8.5 2.5l7.5 1.5t5.5 0.5q11 0 18 -8.5t7 -21.5q0 -10 -4.5 -19t-12.5 -15q-16 -12 -38 -18t-48 -6q-31 0 -50.5 7t-33.5 23q-6 7 -10.5 15.5t-8.5 19.5q-2 6 -3.5 8t-4.5 2
q-2 0 -4.5 -2t-6.5 -6zM158 152q0 -38 25 -58.5t72 -20.5q55 0 91 27.5t45 72.5q3 9 4 20t1 23v7q0 16 -6.5 22t-21.5 6h-6q-17 0 -44 -3t-59 -9q-52 -10 -76.5 -31t-24.5 -56zM377 641q-6 -9 -16 -13t-20 -2q-18 3 -87 49.5t-106 78.5q-16 13 -15 32.5t17 38.5
q13 15 27.5 19.5t28.5 -2.5q19 -9 79 -63t88 -88q11 -12 12 -25t-8 -25z" />
    <glyph glyph-name="aacute" unicode="&#xe1;" horiz-adv-x="617" 
d="M40 0zM383 61q-29 -34 -73 -53t-96 -19q-83 0 -128.5 39t-45.5 110q0 70 47.5 111t146.5 55q14 2 28.5 4t39.5 5q20 2 29 3.5t16 2.5q28 5 38 16t10 38v8q0 46 -29.5 73t-80.5 27t-80.5 -21t-40.5 -64q-6 -24 -22 -37t-40 -13q-25 0 -40 15t-14 39q5 68 73.5 113.5
t168.5 45.5q107 0 162.5 -48.5t55.5 -141.5v-113.5v-113.5q0 -34 11 -49.5t36 -15.5q3 0 6.5 0.5t8.5 2.5l7.5 1.5t5.5 0.5q11 0 18 -8.5t7 -21.5q0 -10 -4.5 -19t-12.5 -15q-16 -12 -38 -18t-48 -6q-31 0 -50.5 7t-33.5 23q-6 7 -10.5 15.5t-8.5 19.5q-2 6 -3.5 8t-4.5 2
q-2 0 -4.5 -2t-6.5 -6zM158 152q0 -38 25 -58.5t72 -20.5q55 0 91 27.5t45 72.5q3 9 4 20t1 23v7q0 16 -6.5 22t-21.5 6h-6q-17 0 -44 -3t-59 -9q-52 -10 -76.5 -31t-24.5 -56zM438 749q-30 -26 -100.5 -73t-89.5 -54q-11 -4 -22 0t-17 14q-8 12 -6.5 24.5t12.5 23.5
q31 33 89 85.5t76 62.5q14 9 30 5.5t27 -18.5q16 -19 16.5 -37.5t-15.5 -32.5z" />
    <glyph glyph-name="acircumflex" unicode="&#xe2;" horiz-adv-x="617" 
d="M40 0zM383 61q-29 -34 -73 -53t-96 -19q-83 0 -128.5 39t-45.5 110q0 70 47.5 111t146.5 55q14 2 28.5 4t39.5 5q20 2 29 3.5t16 2.5q28 5 38 16t10 38v8q0 46 -29.5 73t-80.5 27t-80.5 -21t-40.5 -64q-6 -24 -22 -37t-40 -13q-25 0 -40 15t-14 39q5 68 73.5 113.5
t168.5 45.5q107 0 162.5 -48.5t55.5 -141.5v-113.5v-113.5q0 -34 11 -49.5t36 -15.5q3 0 6.5 0.5t8.5 2.5l7.5 1.5t5.5 0.5q11 0 18 -8.5t7 -21.5q0 -10 -4.5 -19t-12.5 -15q-16 -12 -38 -18t-48 -6q-31 0 -50.5 7t-33.5 23q-6 7 -10.5 15.5t-8.5 19.5q-2 6 -3.5 8t-4.5 2
q-2 0 -4.5 -2t-6.5 -6zM158 152q0 -38 25 -58.5t72 -20.5q55 0 91 27.5t45 72.5q3 9 4 20t1 23v7q0 16 -6.5 22t-21.5 6h-6q-17 0 -44 -3t-59 -9q-52 -10 -76.5 -31t-24.5 -56zM220 664q-23 -19 -32.5 -26t-15.5 -11q-14 -9 -26 -6.5t-23 15.5q-11 12 -10.5 23t11.5 24
q5 6 12 12.5t23 20.5q13 11 19.5 17t12.5 12q22 20 37 33.5l25 22.5q12 11 20 14t18 3t17.5 -3.5t18.5 -13.5l45 -42.5t17 -16.5q5 -5 11.5 -11t18.5 -17q17 -15 24.5 -22t12.5 -13q9 -10 8 -20.5t-12 -23.5q-11 -12 -23.5 -14t-26.5 6q-9 6 -23.5 17t-78.5 64q-1 0 -5 3
t-6 3q-3 0 -5 -1t-7 -5q-11 -8 -23 -17.5t-34 -26.5z" />
    <glyph glyph-name="atilde" unicode="&#xe3;" horiz-adv-x="617" 
d="M40 0zM383 61q-29 -34 -73 -53t-96 -19q-83 0 -128.5 39t-45.5 110q0 70 47.5 111t146.5 55q14 2 28.5 4t39.5 5q20 2 29 3.5t16 2.5q28 5 38 16t10 38v8q0 46 -29.5 73t-80.5 27t-80.5 -21t-40.5 -64q-6 -24 -22 -37t-40 -13q-25 0 -40 15t-14 39q5 68 73.5 113.5
t168.5 45.5q107 0 162.5 -48.5t55.5 -141.5v-113.5v-113.5q0 -34 11 -49.5t36 -15.5q3 0 6.5 0.5t8.5 2.5l7.5 1.5t5.5 0.5q11 0 18 -8.5t7 -21.5q0 -10 -4.5 -19t-12.5 -15q-16 -12 -38 -18t-48 -6q-31 0 -50.5 7t-33.5 23q-6 7 -10.5 15.5t-8.5 19.5q-2 6 -3.5 8t-4.5 2
q-2 0 -4.5 -2t-6.5 -6zM158 152q0 -38 25 -58.5t72 -20.5q55 0 91 27.5t45 72.5q3 9 4 20t1 23v7q0 16 -6.5 22t-21.5 6h-6q-17 0 -44 -3t-59 -9q-52 -10 -76.5 -31t-24.5 -56zM176 657q-4 -15 -11.5 -21.5t-21.5 -6.5t-21 6.5t-7 20.5q0 61 29.5 97t79.5 36q22 0 42.5 -8
t50.5 -32q22 -18 33 -23t22 -5q18 0 27 10t17 37q4 16 12 22t23 6q12 0 19 -7.5t7 -20.5q0 -63 -29 -97.5t-80 -34.5q-28 0 -50.5 9t-51.5 35q-18 16 -27.5 21t-19.5 5q-17 0 -27 -11.5t-16 -37.5z" />
    <glyph glyph-name="adieresis" unicode="&#xe4;" horiz-adv-x="617" 
d="M40 0zM383 61q-29 -34 -73 -53t-96 -19q-83 0 -128.5 39t-45.5 110q0 70 47.5 111t146.5 55q14 2 28.5 4t39.5 5q20 2 29 3.5t16 2.5q28 5 38 16t10 38v8q0 46 -29.5 73t-80.5 27t-80.5 -21t-40.5 -64q-6 -24 -22 -37t-40 -13q-25 0 -40 15t-14 39q5 68 73.5 113.5
t168.5 45.5q107 0 162.5 -48.5t55.5 -141.5v-113.5v-113.5q0 -34 11 -49.5t36 -15.5q3 0 6.5 0.5t8.5 2.5l7.5 1.5t5.5 0.5q11 0 18 -8.5t7 -21.5q0 -10 -4.5 -19t-12.5 -15q-16 -12 -38 -18t-48 -6q-31 0 -50.5 7t-33.5 23q-6 7 -10.5 15.5t-8.5 19.5q-2 6 -3.5 8t-4.5 2
q-2 0 -4.5 -2t-6.5 -6zM158 152q0 -38 25 -58.5t72 -20.5q55 0 91 27.5t45 72.5q3 9 4 20t1 23v7q0 16 -6.5 22t-21.5 6h-6q-17 0 -44 -3t-59 -9q-52 -10 -76.5 -31t-24.5 -56zM482 716q0 -35 -28 -57.5t-69 -22.5q-27 0 -43 15t-16 40q0 35 27 58t67 23q29 0 45 -14.5
t17 -41.5zM272 716q0 -35 -27.5 -57.5t-68.5 -22.5q-26 0 -42.5 15.5t-16.5 39.5q0 34 27.5 57t66.5 23q28 0 44 -14.5t17 -40.5z" />
    <glyph glyph-name="aring" unicode="&#xe5;" horiz-adv-x="617" 
d="M40 0zM383 61q-29 -34 -73 -53t-96 -19q-83 0 -128.5 39t-45.5 110q0 70 47.5 111t146.5 55q14 2 28.5 4t39.5 5q20 2 29 3.5t16 2.5q28 5 38 16t10 38v8q0 46 -29.5 73t-80.5 27t-80.5 -21t-40.5 -64q-6 -24 -22 -37t-40 -13q-25 0 -40 15t-14 39q5 68 73.5 113.5
t168.5 45.5q107 0 162.5 -48.5t55.5 -141.5v-113.5v-113.5q0 -34 11 -49.5t36 -15.5q3 0 6.5 0.5t8.5 2.5l7.5 1.5t5.5 0.5q11 0 18 -8.5t7 -21.5q0 -10 -4.5 -19t-12.5 -15q-16 -12 -38 -18t-48 -6q-31 0 -50.5 7t-33.5 23q-6 7 -10.5 15.5t-8.5 19.5q-2 6 -3.5 8t-4.5 2
q-2 0 -4.5 -2t-6.5 -6zM158 152q0 -38 25 -58.5t72 -20.5q55 0 91 27.5t45 72.5q3 9 4 20t1 23v7q0 16 -6.5 22t-21.5 6h-6q-17 0 -44 -3t-59 -9q-52 -10 -76.5 -31t-24.5 -56zM409 731q0 -53 -33 -85t-87 -32q-53 0 -83 30t-30 82q0 50 33.5 82.5t85.5 32.5t83 -30t31 -80z
M244 728q0 -21 13 -34.5t34 -13.5q22 0 35.5 13.5t13.5 35.5q0 21 -13 34t-33 13q-22 0 -36 -13.5t-14 -34.5z" />
    <glyph glyph-name="ae" unicode="&#xe6;" horiz-adv-x="945" 
d="M426 88q-35 -49 -87 -73.5t-118 -24.5q-86 0 -133.5 38t-47.5 107q0 66 45.5 107t136.5 55l38 6t48 6q18 2 25.5 3t13.5 2q28 4 38 15.5t10 37.5v14q0 46 -29.5 73t-80.5 27t-81 -20.5t-40 -63.5q-6 -24 -22 -37.5t-40 -13.5q-25 0 -40.5 15.5t-13.5 39.5q5 69 71 114
t164 45q60 0 105.5 -19.5t74.5 -57.5q2 -3 4 -4t4 -1q3 0 5 1t4 3q37 38 85.5 58t103.5 20q109 0 171 -60t62 -164q0 -34 -15 -48.5t-57 -16.5q-22 -1 -50 -2.5t-87 -3.5q-75 -4 -105.5 -5.5t-48.5 -2.5q-14 -1 -20.5 -8.5t-4.5 -22.5q6 -66 51 -104t116 -38q55 0 88.5 17.5
t63.5 61.5q5 8 12 12t16 4q14 0 24.5 -9.5t10.5 -22.5q0 -4 -1 -9t-2 -9q-24 -65 -83.5 -102t-143.5 -37q-68 0 -124.5 26.5t-95.5 75.5q-2 2 -4 3.5t-4 1.5q-3 0 -4.5 -1t-7.5 -8zM158 149q0 -37 25 -56t72 -19q54 0 90.5 27t45.5 72q3 14 4 20t1 15v3q0 20 -5.5 26
t-22.5 6h-6q-18 0 -45 -3.5t-58 -9.5q-55 -10 -78 -28.5t-23 -52.5zM781 366q0 47 -34.5 78t-89.5 31q-60 0 -99.5 -35t-42.5 -87q-1 -11 3.5 -15.5t16.5 -4.5q9 0 31.5 0.5t181.5 8.5q19 2 26 7t7 17z" />
    <glyph glyph-name="ccedilla" unicode="&#xe7;" horiz-adv-x="597" 
d="M409 -129q0 -41 -27.5 -64.5t-76.5 -23.5q-46 0 -77.5 25.5t-31.5 60.5q0 12 7 20t18 8q5 0 10 -3t9 -10q12 -18 27 -28t32 -10t26 7.5t9 22.5q0 14 -12 24.5t-38 19.5q-13 4 -19 9.5t-6 13.5q0 5 2 10t8 13q5 6 6.5 9.5t1.5 7.5t-2.5 6.5t-7.5 3.5q-107 14 -167 87.5
t-60 189.5q0 133 72.5 211.5t189.5 78.5q33 0 62 -7t51 -20q14 -9 19 -11t9 -2q7 0 11 4.5t5 12.5q1 18 10.5 27t26.5 9t27 -9.5t11 -26.5q0 -7 0.5 -16.5t0.5 -29.5q0 -17 0.5 -26.5t0.5 -18.5q1 -29 2.5 -67.5t1.5 -39.5q1 -15 -9.5 -25t-26.5 -10q-17 0 -28 8t-14 24
q-15 67 -54.5 104t-95.5 37q-70 0 -110 -49t-40 -137q0 -95 46.5 -151t124.5 -56q50 0 83.5 19t62.5 66q5 8 13 12t17 4q14 0 24 -9t10 -22q0 -6 -1 -11.5t-4 -11.5q-22 -55 -68.5 -91.5t-110.5 -46.5q-12 -2 -20 -9.5t-8 -15.5q0 -7 4.5 -11.5t16.5 -8.5q27 -10 42 -30
t15 -47z" />
    <glyph glyph-name="egrave" unicode="&#xe8;" horiz-adv-x="594" 
d="M41 0zM542 129q-24 -65 -85.5 -102t-146.5 -37q-127 0 -198 72t-71 203q0 133 78 214t201 81q108 0 169.5 -61t61.5 -167q0 -39 -16.5 -55.5t-55.5 -16.5h-26.5h-46.5q-37 1 -56 1h-35h-64h-64q-15 0 -20.5 -6.5t-4.5 -22.5q4 -68 48.5 -108t115.5 -40q55 0 89.5 17.5
t66.5 61.5q6 8 13.5 12t14.5 4q14 0 24.5 -9.5t10.5 -22.5q0 -4 -1 -9t-2 -9zM165 363q-2 -15 2.5 -20.5t19.5 -6.5h48h48h57.5h56.5q17 0 25 7t8 23q0 47 -34 78t-89 31q-57 0 -95.5 -31.5t-46.5 -80.5zM396 641q-6 -9 -16 -13t-20 -2q-18 3 -87 49.5t-106 78.5
q-16 13 -15 32.5t17 38.5q13 15 27.5 19.5t28.5 -2.5q19 -9 79 -63t88 -88q11 -12 12 -25t-8 -25z" />
    <glyph glyph-name="eacute" unicode="&#xe9;" horiz-adv-x="594" 
d="M41 0zM542 129q-24 -65 -85.5 -102t-146.5 -37q-127 0 -198 72t-71 203q0 133 78 214t201 81q108 0 169.5 -61t61.5 -167q0 -39 -16.5 -55.5t-55.5 -16.5h-26.5h-46.5q-37 1 -56 1h-35h-64h-64q-15 0 -20.5 -6.5t-4.5 -22.5q4 -68 48.5 -108t115.5 -40q55 0 89.5 17.5
t66.5 61.5q6 8 13.5 12t14.5 4q14 0 24.5 -9.5t10.5 -22.5q0 -4 -1 -9t-2 -9zM165 363q-2 -15 2.5 -20.5t19.5 -6.5h48h48h57.5h56.5q17 0 25 7t8 23q0 47 -34 78t-89 31q-57 0 -95.5 -31.5t-46.5 -80.5zM468 749q-30 -26 -100.5 -73t-89.5 -54q-11 -4 -22 0t-17 14
q-8 12 -6.5 24.5t12.5 23.5q31 33 89 85.5t76 62.5q14 9 30 5.5t27 -18.5q16 -19 16.5 -37.5t-15.5 -32.5z" />
    <glyph glyph-name="ecircumflex" unicode="&#xea;" horiz-adv-x="594" 
d="M41 0zM542 129q-24 -65 -85.5 -102t-146.5 -37q-127 0 -198 72t-71 203q0 133 78 214t201 81q108 0 169.5 -61t61.5 -167q0 -39 -16.5 -55.5t-55.5 -16.5h-26.5h-46.5q-37 1 -56 1h-35h-64h-64q-15 0 -20.5 -6.5t-4.5 -22.5q4 -68 48.5 -108t115.5 -40q55 0 89.5 17.5
t66.5 61.5q6 8 13.5 12t14.5 4q14 0 24.5 -9.5t10.5 -22.5q0 -4 -1 -9t-2 -9zM165 363q-2 -15 2.5 -20.5t19.5 -6.5h48h48h57.5h56.5q17 0 25 7t8 23q0 47 -34 78t-89 31q-57 0 -95.5 -31.5t-46.5 -80.5zM238 664q-23 -19 -32.5 -26t-15.5 -11q-14 -9 -26 -6.5t-23 15.5
q-11 12 -10.5 23t11.5 24q5 6 12 12.5t23 20.5q13 11 19.5 17t12.5 12q22 20 37 33.5l25 22.5q12 11 20 14t18 3t17.5 -3.5t18.5 -13.5l45 -42.5t17 -16.5q5 -5 11.5 -11t18.5 -17q17 -15 24.5 -22t12.5 -13q9 -10 8 -20.5t-12 -23.5q-11 -12 -23.5 -14t-26.5 6
q-9 6 -23.5 17t-78.5 64q-1 0 -5 3t-6 3q-3 0 -5 -1t-7 -5q-11 -8 -23 -17.5t-34 -26.5z" />
    <glyph glyph-name="edieresis" unicode="&#xeb;" horiz-adv-x="594" 
d="M41 0zM542 129q-24 -65 -85.5 -102t-146.5 -37q-127 0 -198 72t-71 203q0 133 78 214t201 81q108 0 169.5 -61t61.5 -167q0 -39 -16.5 -55.5t-55.5 -16.5h-26.5h-46.5q-37 1 -56 1h-35h-64h-64q-15 0 -20.5 -6.5t-4.5 -22.5q4 -68 48.5 -108t115.5 -40q55 0 89.5 17.5
t66.5 61.5q6 8 13.5 12t14.5 4q14 0 24.5 -9.5t10.5 -22.5q0 -4 -1 -9t-2 -9zM165 363q-2 -15 2.5 -20.5t19.5 -6.5h48h48h57.5h56.5q17 0 25 7t8 23q0 47 -34 78t-89 31q-57 0 -95.5 -31.5t-46.5 -80.5zM497 716q0 -35 -28 -57.5t-69 -22.5q-27 0 -43 15t-16 40q0 35 27 58
t67 23q29 0 45 -14.5t17 -41.5zM287 716q0 -35 -27.5 -57.5t-68.5 -22.5q-26 0 -42.5 15.5t-16.5 39.5q0 34 27.5 57t66.5 23q28 0 44 -14.5t17 -40.5z" />
    <glyph glyph-name="igrave" unicode="&#xec;" horiz-adv-x="369" 
d="M0 0zM98 1q-17 -1 -24 -1h-11q-16 0 -26 11t-10 29q0 16 10 26.5t26 10.5h8h12q7 -1 11 -1h8q15 0 21 5t7 18q1 19 1 54v137q0 40 -0.5 76.5t-1.5 59.5q-1 17 -7.5 24t-20.5 7q-4 0 -8 -0.5t-12 -0.5q-8 -1 -12.5 -1.5t-8.5 -0.5q-17 0 -27.5 10t-10.5 26t10 26.5
t29 13.5q28 7 51 12.5t43 9.5q19 3 32.5 4.5t24.5 1.5q18 0 27 -10t9 -29v-36v-67q-1 -49 -1 -72v-41q0 -65 0.5 -118t1.5 -85q0 -13 5.5 -18.5t17.5 -5.5h9t13 1h11h7q17 0 27 -10t10 -27q0 -18 -10 -29t-27 -11h-20.5t-36.5 1q-30 1 -45.5 1h-29.5q-16 0 -33.5 -0.5
t-48.5 -0.5zM223 643q-6 -9 -16 -13t-20 -2q-18 3 -87 49.5t-106 78.5q-16 13 -15 32.5t17 38.5q13 15 27.5 19.5t28.5 -2.5q19 -9 79 -63t88 -88q11 -12 12 -25t-8 -25z" />
    <glyph glyph-name="iacute" unicode="&#xed;" horiz-adv-x="369" 
d="M22 0zM98 1q-17 -1 -24 -1h-11q-16 0 -26 11t-10 29q0 16 10 26.5t26 10.5h8h12q7 -1 11 -1h8q15 0 21 5t7 18q1 19 1 54v137q0 40 -0.5 76.5t-1.5 59.5q-1 17 -7.5 24t-20.5 7q-4 0 -8 -0.5t-12 -0.5q-8 -1 -12.5 -1.5t-8.5 -0.5q-17 0 -27.5 10t-10.5 26t10 26.5
t29 13.5q28 7 51 12.5t43 9.5q19 3 32.5 4.5t24.5 1.5q18 0 27 -10t9 -29v-36v-67q-1 -49 -1 -72v-41q0 -65 0.5 -118t1.5 -85q0 -13 5.5 -18.5t17.5 -5.5h9t13 1h11h7q17 0 27 -10t10 -27q0 -18 -10 -29t-27 -11h-20.5t-36.5 1q-30 1 -45.5 1h-29.5q-16 0 -33.5 -0.5
t-48.5 -0.5zM312 750q-30 -26 -100.5 -73t-89.5 -54q-11 -4 -22 0t-17 14q-8 12 -6.5 24.5t12.5 23.5q31 33 89 85.5t76 62.5q14 9 30 5.5t27 -18.5q16 -19 16.5 -37.5t-15.5 -32.5z" />
    <glyph glyph-name="icircumflex" unicode="&#xee;" horiz-adv-x="369" 
d="M2 0zM98 1q-17 -1 -24 -1h-11q-16 0 -26 11t-10 29q0 16 10 26.5t26 10.5h8h12q7 -1 11 -1h8q15 0 21 5t7 18q1 19 1 54v137q0 40 -0.5 76.5t-1.5 59.5q-1 17 -7.5 24t-20.5 7q-4 0 -8 -0.5t-12 -0.5q-8 -1 -12.5 -1.5t-8.5 -0.5q-17 0 -27.5 10t-10.5 26t10 26.5
t29 13.5q28 7 51 12.5t43 9.5q19 3 32.5 4.5t24.5 1.5q18 0 27 -10t9 -29v-36v-67q-1 -49 -1 -72v-41q0 -65 0.5 -118t1.5 -85q0 -13 5.5 -18.5t17.5 -5.5h9t13 1h11h7q17 0 27 -10t10 -27q0 -18 -10 -29t-27 -11h-20.5t-36.5 1q-30 1 -45.5 1h-29.5q-16 0 -33.5 -0.5
t-48.5 -0.5zM110 666q-23 -19 -32.5 -26t-15.5 -11q-14 -9 -26 -6.5t-23 15.5q-11 12 -10.5 23t11.5 24q5 6 12 12.5t23 20.5q13 11 19.5 17t12.5 12q22 20 37 33.5l25 22.5q12 11 20 14t18 3t17.5 -3.5t18.5 -13.5l45 -42.5t17 -16.5q5 -5 11.5 -11t18.5 -17
q17 -15 24.5 -22t12.5 -13q9 -10 8 -20.5t-12 -23.5q-11 -12 -23.5 -14t-26.5 6q-9 6 -23.5 17t-78.5 64q-1 0 -5 3t-6 3q-3 0 -5 -1t-7 -5q-11 -8 -23 -17.5t-34 -26.5z" />
    <glyph glyph-name="idieresis" unicode="&#xef;" horiz-adv-x="369" 
d="M0 0zM98 1q-17 -1 -24 -1h-11q-16 0 -26 11t-10 29q0 16 10 26.5t26 10.5h8h12q7 -1 11 -1h8q15 0 21 5t7 18q1 19 1 54v137q0 40 -0.5 76.5t-1.5 59.5q-1 17 -7.5 24t-20.5 7q-4 0 -8 -0.5t-12 -0.5q-8 -1 -12.5 -1.5t-8.5 -0.5q-17 0 -27.5 10t-10.5 26t10 26.5
t29 13.5q28 7 51 12.5t43 9.5q19 3 32.5 4.5t24.5 1.5q18 0 27 -10t9 -29v-36v-67q-1 -49 -1 -72v-41q0 -65 0.5 -118t1.5 -85q0 -13 5.5 -18.5t17.5 -5.5h9t13 1h11h7q17 0 27 -10t10 -27q0 -18 -10 -29t-27 -11h-20.5t-36.5 1q-30 1 -45.5 1h-29.5q-16 0 -33.5 -0.5
t-48.5 -0.5zM359 718q0 -35 -28 -57.5t-69 -22.5q-27 0 -43 15t-16 40q0 35 27 58t67 23q29 0 45 -14.5t17 -41.5zM149 718q0 -35 -27.5 -57.5t-68.5 -22.5q-26 0 -42.5 15.5t-16.5 39.5q0 34 27.5 57t66.5 23q28 0 44 -14.5t17 -40.5z" />
    <glyph glyph-name="eth" unicode="&#xf0;" horiz-adv-x="605" 
d="M165 212q0 -62 33.5 -100t90.5 -38q52 0 85 37t33 100q0 61 -35 99.5t-90 38.5q-54 0 -85.5 -36.5t-31.5 -100.5zM538 330q0 -167 -67 -253.5t-195 -86.5q-108 0 -172 60t-64 159q0 101 60.5 164t158.5 64q49 0 91 -20t69 -54q6 -6 11 -4.5t5 10.5q0 43 -10.5 83.5
t-28.5 62.5q-4 5 -8 7.5t-8 2.5q-7 0 -23.5 -14.5t-19.5 -16.5q-16 -14 -25 -18.5t-18 -4.5q-14 0 -29.5 16.5t-15.5 32.5q0 8 4 15t14 14q7 5 26 18t19 18q0 9 -27.5 21.5t-77.5 25.5q-38 9 -50 18t-12 24q0 12 5.5 23t15.5 19q7 5 16 8t18 3q19 0 44 -6.5t61 -20.5
q19 -8 36.5 -16.5t39.5 -22.5q11 -7 15 -9t7 -2q7 0 16.5 6.5t34.5 27.5q14 12 23.5 17t17.5 5q15 0 29.5 -16t14.5 -32q0 -12 -5 -20t-33 -26q-26 -17 -29.5 -20.5t-3.5 -7.5q0 -3 3 -7.5t4 -5.5q31 -45 47 -106t16 -135z" />
    <glyph glyph-name="ntilde" unicode="&#xf1;" horiz-adv-x="713" 
d="M20 0zM90 1q-13 -1 -18 -1h-9q-17 0 -26.5 11t-9.5 30q0 16 10 26t26 10h8h11q8 -1 12 -1h9q14 0 20 5.5t7 17.5q1 22 1 52.5v116.5q0 48 -0.5 90t-1.5 67q-1 16 -8.5 24t-22.5 8q-3 0 -7 -0.5t-12 -0.5q-9 -1 -13 -1.5t-8 -0.5q-18 0 -28 9.5t-10 26.5q0 15 9.5 24.5
t29.5 14.5q17 4 33 7.5t59 12.5q31 5 39.5 6t15.5 1q17 0 25.5 -9t9.5 -27v-9t-1 -13t-1 -11.5v-7.5q0 -6 1.5 -8.5t5.5 -2.5q2 0 3 0.5t6 5.5q38 45 80 65.5t93 20.5q82 0 129 -51t48 -140v-53.5v-53.5v-65.5t1 -99.5q1 -12 5 -16.5t15 -4.5h6.5t10.5 1h8h5q17 0 27 -10
t10 -27q0 -18 -10.5 -29.5t-27.5 -10.5q-36 1 -63 1.5t-56 0.5q-15 0 -30.5 -0.5t-40.5 -0.5q-14 -1 -20 -1h-10q-17 0 -27 11t-10 29q0 17 10 27t27 10h8.5t11.5 -1h6h3q12 0 17 5t6 17q1 20 1 52.5v104.5q-1 84 -7.5 119t-21.5 56q-14 20 -34.5 29t-50.5 9q-29 0 -51 -10
t-39 -31q-20 -23 -28.5 -57t-8.5 -90v-123.5t1 -57.5q1 -12 5 -17.5t14 -5.5h6t9 1h8h6q17 0 27 -9.5t10 -26.5q0 -18 -10.5 -29.5t-27.5 -11.5h-21t-33 1q-28 1 -44.5 1h-32.5t-32.5 -0.5t-41.5 -0.5zM237 657q-4 -15 -11.5 -21.5t-21.5 -6.5t-21 6.5t-7 20.5q0 61 29.5 97
t79.5 36q22 0 42.5 -8t50.5 -32q22 -18 33 -23t22 -5q18 0 27 10t17 37q4 16 12 22t23 6q12 0 19 -7.5t7 -20.5q0 -63 -29 -97.5t-80 -34.5q-28 0 -50.5 9t-51.5 35q-18 16 -27.5 21t-19.5 5q-17 0 -27 -11.5t-16 -37.5z" />
    <glyph glyph-name="ograve" unicode="&#xf2;" horiz-adv-x="635" 
d="M41 0zM594 272q0 -127 -79.5 -204.5t-203.5 -77.5q-123 0 -196.5 76.5t-73.5 204.5q0 127 82 208t203 81q120 0 194 -79t74 -209zM162 296q0 -97 46.5 -157t122.5 -60q65 0 103.5 46t38.5 126q0 99 -46.5 160.5t-120.5 61.5q-65 0 -104.5 -48.5t-39.5 -128.5zM390 641
q-6 -9 -16 -13t-20 -2q-18 3 -87 49.5t-106 78.5q-16 13 -15 32.5t17 38.5q13 15 27.5 19.5t28.5 -2.5q19 -9 79 -63t88 -88q11 -12 12 -25t-8 -25z" />
    <glyph glyph-name="oacute" unicode="&#xf3;" horiz-adv-x="635" 
d="M41 0zM594 272q0 -127 -79.5 -204.5t-203.5 -77.5q-123 0 -196.5 76.5t-73.5 204.5q0 127 82 208t203 81q120 0 194 -79t74 -209zM162 296q0 -97 46.5 -157t122.5 -60q65 0 103.5 46t38.5 126q0 99 -46.5 160.5t-120.5 61.5q-65 0 -104.5 -48.5t-39.5 -128.5zM455 749
q-30 -26 -100.5 -73t-89.5 -54q-11 -4 -22 0t-17 14q-8 12 -6.5 24.5t12.5 23.5q31 33 89 85.5t76 62.5q14 9 30 5.5t27 -18.5q16 -19 16.5 -37.5t-15.5 -32.5z" />
    <glyph glyph-name="ocircumflex" unicode="&#xf4;" horiz-adv-x="635" 
d="M41 0zM594 272q0 -127 -79.5 -204.5t-203.5 -77.5q-123 0 -196.5 76.5t-73.5 204.5q0 127 82 208t203 81q120 0 194 -79t74 -209zM162 296q0 -97 46.5 -157t122.5 -60q65 0 103.5 46t38.5 126q0 99 -46.5 160.5t-120.5 61.5q-65 0 -104.5 -48.5t-39.5 -128.5zM249 664
q-23 -19 -32.5 -26t-15.5 -11q-14 -9 -26 -6.5t-23 15.5q-11 12 -10.5 23t11.5 24q5 6 12 12.5t23 20.5q13 11 19.5 17t12.5 12q22 20 37 33.5l25 22.5q12 11 20 14t18 3t17.5 -3.5t18.5 -13.5l45 -42.5t17 -16.5q5 -5 11.5 -11t18.5 -17q17 -15 24.5 -22t12.5 -13
q9 -10 8 -20.5t-12 -23.5q-11 -12 -23.5 -14t-26.5 6q-9 6 -23.5 17t-78.5 64q-1 0 -5 3t-6 3q-3 0 -5 -1t-7 -5q-11 -8 -23 -17.5t-34 -26.5z" />
    <glyph glyph-name="otilde" unicode="&#xf5;" horiz-adv-x="635" 
d="M41 0zM594 272q0 -127 -79.5 -204.5t-203.5 -77.5q-123 0 -196.5 76.5t-73.5 204.5q0 127 82 208t203 81q120 0 194 -79t74 -209zM162 296q0 -97 46.5 -157t122.5 -60q65 0 103.5 46t38.5 126q0 99 -46.5 160.5t-120.5 61.5q-65 0 -104.5 -48.5t-39.5 -128.5zM204 657
q-4 -15 -11.5 -21.5t-21.5 -6.5t-21 6.5t-7 20.5q0 61 29.5 97t79.5 36q22 0 42.5 -8t50.5 -32q22 -18 33 -23t22 -5q18 0 27 10t17 37q4 16 12 22t23 6q12 0 19 -7.5t7 -20.5q0 -63 -29 -97.5t-80 -34.5q-28 0 -50.5 9t-51.5 35q-18 16 -27.5 21t-19.5 5q-17 0 -27 -11.5
t-16 -37.5z" />
    <glyph glyph-name="odieresis" unicode="&#xf6;" horiz-adv-x="635" 
d="M41 0zM594 272q0 -127 -79.5 -204.5t-203.5 -77.5q-123 0 -196.5 76.5t-73.5 204.5q0 127 82 208t203 81q120 0 194 -79t74 -209zM162 296q0 -97 46.5 -157t122.5 -60q65 0 103.5 46t38.5 126q0 99 -46.5 160.5t-120.5 61.5q-65 0 -104.5 -48.5t-39.5 -128.5zM500 716
q0 -35 -28 -57.5t-69 -22.5q-27 0 -43 15t-16 40q0 35 27 58t67 23q29 0 45 -14.5t17 -41.5zM290 716q0 -35 -27.5 -57.5t-68.5 -22.5q-26 0 -42.5 15.5t-16.5 39.5q0 34 27.5 57t66.5 23q28 0 44 -14.5t17 -40.5z" />
    <glyph glyph-name="divide" unicode="&#xf7;" horiz-adv-x="487" 
d="M163 310h-28h-13q-30 -1 -44.5 11t-14.5 38q0 24 15 36t45 11h60h60h30t49 1h30.5h14.5q30 1 43.5 -10.5t13.5 -37.5q0 -25 -14.5 -37t-42.5 -11h-63h-62h-32t-47 -1zM294 214q0 -28 -20.5 -48t-49.5 -20q-26 0 -41 13.5t-15 37.5q0 28 21 49t49 22q24 0 40 -15t16 -39z
M294 535q0 -28 -20.5 -48t-49.5 -20q-26 0 -41 13.5t-15 37.5q0 28 21 49t49 22q24 0 40 -15t16 -39z" />
    <glyph glyph-name="oslash" unicode="&#xf8;" horiz-adv-x="635" 
d="M241 114q0 -12 28.5 -23.5t58.5 -11.5q69 0 108.5 48t39.5 132q0 39 -7 67t-19 28q-4 0 -8 -3t-11 -12l-183 -210q-4 -5 -5.5 -8t-1.5 -7zM313 473q-69 0 -111 -51t-42 -136q0 -36 8.5 -67t19.5 -31q4 0 7.5 3t10.5 11l184 213q4 5 6 9.5t2 8.5q0 15 -26 27.5t-59 12.5z
M315 -10q-44 0 -79.5 8.5t-65.5 25.5q-7 4 -12.5 3.5t-10.5 -7.5l-34 -40q-13 -15 -30 -16.5t-32 11.5q-16 14 -17 31t13 31l40 44q4 5 4.5 10.5t-3.5 11.5q-23 36 -34.5 77t-11.5 91q0 127 81.5 208t199.5 81q40 0 75.5 -9.5t69.5 -29.5q7 -4 12.5 -3t13.5 9l36 39
q13 15 29 16t32 -13t17 -29.5t-13 -30.5l-41 -45q-5 -5 -6 -10.5t3 -11.5q23 -40 33.5 -81.5t10.5 -88.5q0 -126 -79 -204t-201 -78z" />
    <glyph glyph-name="ugrave" unicode="&#xf9;" 
d="M19 0zM563 556q20 0 30 -10.5t10 -30.5v-31t-1 -58q-1 -54 -1 -82.5v-52.5v-131.5t1 -45.5q0 -16 6 -23t20 -7h8t12 1h10.5h7.5q16 0 25.5 -9.5t9.5 -25.5q0 -17 -9.5 -27t-28.5 -13q-4 -1 -9 -1.5l-15 -1.5q-15 -2 -23 -3.5t-16 -2.5q-17 -3 -32 -4.5t-27 -1.5
q-21 0 -33 10t-14 29q-1 10 -1.5 17t-0.5 13q0 4 -2 6.5t-6 2.5q-3 0 -5 -1t-5 -4q-33 -40 -72 -59t-90 -19q-87 0 -134.5 50t-47.5 142q0 122 -0.5 172t-1.5 76q0 14 -6.5 20.5t-20.5 6.5q-4 0 -8 -0.5t-13 -1.5l-13.5 -1.5t-8.5 -0.5q-18 0 -28.5 10t-10.5 27
q0 15 10 24.5t30 14.5q38 9 57 13t36 7q34 5 42 6t14 1q19 0 29 -10.5t10 -30.5v-31.5v-70.5q-1 -60 -1 -86.5v-43.5q0 -70 6 -105.5t20 -55.5t36 -30t52 -10q31 0 55 10.5t40 30.5q16 21 22.5 56.5t6.5 101.5v74.5v74.5q0 14 -6.5 20.5t-20.5 6.5q-4 0 -8.5 -0.5
l-13.5 -1.5t-14 -1.5t-9 -0.5q-18 0 -28 10t-10 27q0 15 10 24.5t30 14.5q13 3 36 8t57 12q20 4 32.5 5.5t23.5 1.5zM414 641q-6 -9 -16 -13t-20 -2q-18 3 -87 49.5t-106 78.5q-16 13 -15 32.5t17 38.5q13 15 27.5 19.5t28.5 -2.5q19 -9 79 -63t88 -88q11 -12 12 -25t-8 -25
z" />
    <glyph glyph-name="uacute" unicode="&#xfa;" 
d="M19 0zM563 556q20 0 30 -10.5t10 -30.5v-31t-1 -58q-1 -54 -1 -82.5v-52.5v-131.5t1 -45.5q0 -16 6 -23t20 -7h8t12 1h10.5h7.5q16 0 25.5 -9.5t9.5 -25.5q0 -17 -9.5 -27t-28.5 -13q-4 -1 -9 -1.5l-15 -1.5q-15 -2 -23 -3.5t-16 -2.5q-17 -3 -32 -4.5t-27 -1.5
q-21 0 -33 10t-14 29q-1 10 -1.5 17t-0.5 13q0 4 -2 6.5t-6 2.5q-3 0 -5 -1t-5 -4q-33 -40 -72 -59t-90 -19q-87 0 -134.5 50t-47.5 142q0 122 -0.5 172t-1.5 76q0 14 -6.5 20.5t-20.5 6.5q-4 0 -8 -0.5t-13 -1.5l-13.5 -1.5t-8.5 -0.5q-18 0 -28.5 10t-10.5 27
q0 15 10 24.5t30 14.5q38 9 57 13t36 7q34 5 42 6t14 1q19 0 29 -10.5t10 -30.5v-31.5v-70.5q-1 -60 -1 -86.5v-43.5q0 -70 6 -105.5t20 -55.5t36 -30t52 -10q31 0 55 10.5t40 30.5q16 21 22.5 56.5t6.5 101.5v74.5v74.5q0 14 -6.5 20.5t-20.5 6.5q-4 0 -8.5 -0.5
l-13.5 -1.5t-14 -1.5t-9 -0.5q-18 0 -28 10t-10 27q0 15 10 24.5t30 14.5q13 3 36 8t57 12q20 4 32.5 5.5t23.5 1.5zM516 739q-30 -26 -100.5 -73t-89.5 -54q-11 -4 -22 0t-17 14q-8 12 -6.5 24.5t12.5 23.5q31 33 89 85.5t76 62.5q14 9 30 5.5t27 -18.5q16 -19 16.5 -37.5
t-15.5 -32.5z" />
    <glyph glyph-name="ucircumflex" unicode="&#xfb;" 
d="M19 0zM563 556q20 0 30 -10.5t10 -30.5v-31t-1 -58q-1 -54 -1 -82.5v-52.5v-131.5t1 -45.5q0 -16 6 -23t20 -7h8t12 1h10.5h7.5q16 0 25.5 -9.5t9.5 -25.5q0 -17 -9.5 -27t-28.5 -13q-4 -1 -9 -1.5l-15 -1.5q-15 -2 -23 -3.5t-16 -2.5q-17 -3 -32 -4.5t-27 -1.5
q-21 0 -33 10t-14 29q-1 10 -1.5 17t-0.5 13q0 4 -2 6.5t-6 2.5q-3 0 -5 -1t-5 -4q-33 -40 -72 -59t-90 -19q-87 0 -134.5 50t-47.5 142q0 122 -0.5 172t-1.5 76q0 14 -6.5 20.5t-20.5 6.5q-4 0 -8 -0.5t-13 -1.5l-13.5 -1.5t-8.5 -0.5q-18 0 -28.5 10t-10.5 27
q0 15 10 24.5t30 14.5q38 9 57 13t36 7q34 5 42 6t14 1q19 0 29 -10.5t10 -30.5v-31.5v-70.5q-1 -60 -1 -86.5v-43.5q0 -70 6 -105.5t20 -55.5t36 -30t52 -10q31 0 55 10.5t40 30.5q16 21 22.5 56.5t6.5 101.5v74.5v74.5q0 14 -6.5 20.5t-20.5 6.5q-4 0 -8.5 -0.5
l-13.5 -1.5t-14 -1.5t-9 -0.5q-18 0 -28 10t-10 27q0 15 10 24.5t30 14.5q13 3 36 8t57 12q20 4 32.5 5.5t23.5 1.5zM280 664q-23 -19 -32.5 -26t-15.5 -11q-14 -9 -26 -6.5t-23 15.5q-11 12 -10.5 23t11.5 24q5 6 12 12.5t23 20.5q13 11 19.5 17t12.5 12q22 20 37 33.5
l25 22.5q12 11 20 14t18 3t17.5 -3.5t18.5 -13.5l45 -42.5t17 -16.5q5 -5 11.5 -11t18.5 -17q17 -15 24.5 -22t12.5 -13q9 -10 8 -20.5t-12 -23.5q-11 -12 -23.5 -14t-26.5 6q-9 6 -23.5 17t-78.5 64q-1 0 -5 3t-6 3q-3 0 -5 -1t-7 -5q-11 -8 -23 -17.5t-34 -26.5z" />
    <glyph glyph-name="udieresis" unicode="&#xfc;" 
d="M19 0zM563 556q20 0 30 -10.5t10 -30.5v-31t-1 -58q-1 -54 -1 -82.5v-52.5v-131.5t1 -45.5q0 -16 6 -23t20 -7h8t12 1h10.5h7.5q16 0 25.5 -9.5t9.5 -25.5q0 -17 -9.5 -27t-28.5 -13q-4 -1 -9 -1.5l-15 -1.5q-15 -2 -23 -3.5t-16 -2.5q-17 -3 -32 -4.5t-27 -1.5
q-21 0 -33 10t-14 29q-1 10 -1.5 17t-0.5 13q0 4 -2 6.5t-6 2.5q-3 0 -5 -1t-5 -4q-33 -40 -72 -59t-90 -19q-87 0 -134.5 50t-47.5 142q0 122 -0.5 172t-1.5 76q0 14 -6.5 20.5t-20.5 6.5q-4 0 -8 -0.5t-13 -1.5l-13.5 -1.5t-8.5 -0.5q-18 0 -28.5 10t-10.5 27
q0 15 10 24.5t30 14.5q38 9 57 13t36 7q34 5 42 6t14 1q19 0 29 -10.5t10 -30.5v-31.5v-70.5q-1 -60 -1 -86.5v-43.5q0 -70 6 -105.5t20 -55.5t36 -30t52 -10q31 0 55 10.5t40 30.5q16 21 22.5 56.5t6.5 101.5v74.5v74.5q0 14 -6.5 20.5t-20.5 6.5q-4 0 -8.5 -0.5
l-13.5 -1.5t-14 -1.5t-9 -0.5q-18 0 -28 10t-10 27q0 15 10 24.5t30 14.5q13 3 36 8t57 12q20 4 32.5 5.5t23.5 1.5zM530 706q0 -35 -28 -57.5t-69 -22.5q-27 0 -43 15t-16 40q0 35 27 58t67 23q29 0 45 -14.5t17 -41.5zM320 706q0 -35 -27.5 -57.5t-68.5 -22.5
q-26 0 -42.5 15.5t-16.5 39.5q0 34 27.5 57t66.5 23q28 0 44 -14.5t17 -40.5z" />
    <glyph glyph-name="yacute" unicode="&#xfd;" horiz-adv-x="717" 
d="M17 0zM393 -111q-37 -78 -83 -111t-118 -33q-55 0 -89 24.5t-34 63.5q0 28 17 45.5t45 17.5q17 0 30 -6t26 -22q15 -17 26 -23t25 -6q32 0 52.5 25t20.5 65q0 21 -5.5 41.5t-31.5 84.5q-76 184 -108.5 262.5t-57.5 135.5q-5 12 -11.5 16.5t-15.5 4.5h-4.5h-7.5
q-6 -1 -8.5 -1h-5.5q-18 0 -28 10t-10 27q0 19 10.5 29.5t28.5 10.5h17t27 -1q26 -1 41 -1h31h28t38 1q21 1 31.5 1h19.5q19 0 29 -10t10 -28t-10 -28.5t-28 -10.5h-9t-15 1h-12.5h-5.5q-9 0 -13 -4.5t-2 -11.5q2 -8 5 -18t7 -21q21 -57 58.5 -152t65.5 -163q2 -6 5 -8.5
t8 -2.5q4 0 7 2.5t5 7.5q21 54 49.5 134t54.5 157q6 17 10.5 33t7.5 27q2 9 -3 14.5t-15 5.5h-6.5h-10.5q-9 -1 -13 -1h-8q-18 0 -27.5 10.5t-9.5 28.5q0 17 10 27.5t28 10.5h14t25 -1q27 -1 42.5 -1h30.5t28.5 0.5t33.5 0.5q12 1 17.5 1h10.5q18 0 28 -10t10 -29
q0 -17 -10 -27.5t-26 -10.5h-5.5t-7.5 1h-6h-4q-8 0 -13.5 -4.5t-9.5 -14.5q-7 -16 -46 -118t-111 -290q-26 -64 -41 -98t-28 -60zM540 749q-30 -26 -100.5 -73t-89.5 -54q-11 -4 -22 0t-17 14q-8 12 -6.5 24.5t12.5 23.5q31 33 89 85.5t76 62.5q14 9 30 5.5t27 -18.5
q16 -19 16.5 -37.5t-15.5 -32.5z" />
    <glyph glyph-name="thorn" unicode="&#xfe;" horiz-adv-x="690" 
d="M96 -250q-15 -1 -21.5 -1h-11.5q-17 0 -27.5 11t-10.5 30q0 17 10.5 27.5t26.5 10.5h9t14 -1q8 -1 12 -1h7q12 0 18 5t7 17q1 37 1 105v293q0 239 -0.5 317t-1.5 114q-1 13 -6.5 18.5t-18.5 5.5h-6.5t-10.5 -1q-11 -1 -17 -1.5t-12 -0.5q-17 0 -27 10t-10 25q0 17 10 27
t29 12q37 6 61 10t35 5q3 0 23 3t30 3q19 0 29 -11t10 -33v-135.5v-135.5q0 -6 2.5 -9t6.5 -3q3 0 5.5 1.5t3.5 5.5q26 41 69.5 64.5t97.5 23.5q101 0 159 -74.5t59 -201.5q1 -142 -60.5 -220t-175.5 -78q-46 0 -83.5 15t-64.5 44q-3 3 -5 4t-5 1q-4 0 -6 -3t-3 -8
q-1 -36 -1 -98t1 -94q0 -11 5.5 -16.5t16.5 -5.5h12.5t19.5 1t19.5 1h11.5q17 0 27 -11t10 -28q0 -18 -10.5 -29t-27.5 -11h-20t-35 1q-35 1 -56 1h-41q-19 0 -37.5 -0.5t-45.5 -0.5zM247 196q2 -57 40 -92t96 -35q72 0 109 48t38 141q1 100 -37 152.5t-111 52.5
q-56 0 -93 -36.5t-41 -96.5q-2 -34 -2.5 -62.5t1.5 -71.5z" />
    <glyph glyph-name="ydieresis" unicode="&#xff;" horiz-adv-x="717" 
d="M17 0zM393 -111q-37 -78 -83 -111t-118 -33q-55 0 -89 24.5t-34 63.5q0 28 17 45.5t45 17.5q17 0 30 -6t26 -22q15 -17 26 -23t25 -6q32 0 52.5 25t20.5 65q0 21 -5.5 41.5t-31.5 84.5q-76 184 -108.5 262.5t-57.5 135.5q-5 12 -11.5 16.5t-15.5 4.5h-4.5h-7.5
q-6 -1 -8.5 -1h-5.5q-18 0 -28 10t-10 27q0 19 10.5 29.5t28.5 10.5h17t27 -1q26 -1 41 -1h31h28t38 1q21 1 31.5 1h19.5q19 0 29 -10t10 -28t-10 -28.5t-28 -10.5h-9t-15 1h-12.5h-5.5q-9 0 -13 -4.5t-2 -11.5q2 -8 5 -18t7 -21q21 -57 58.5 -152t65.5 -163q2 -6 5 -8.5
t8 -2.5q4 0 7 2.5t5 7.5q21 54 49.5 134t54.5 157q6 17 10.5 33t7.5 27q2 9 -3 14.5t-15 5.5h-6.5h-10.5q-9 -1 -13 -1h-8q-18 0 -27.5 10.5t-9.5 28.5q0 17 10 27.5t28 10.5h14t25 -1q27 -1 42.5 -1h30.5t28.5 0.5t33.5 0.5q12 1 17.5 1h10.5q18 0 28 -10t10 -29
q0 -17 -10 -27.5t-26 -10.5h-5.5t-7.5 1h-6h-4q-8 0 -13.5 -4.5t-9.5 -14.5q-7 -16 -46 -118t-111 -290q-26 -64 -41 -98t-28 -60zM561 716q0 -35 -28 -57.5t-69 -22.5q-27 0 -43 15t-16 40q0 35 27 58t67 23q29 0 45 -14.5t17 -41.5zM351 716q0 -35 -27.5 -57.5
t-68.5 -22.5q-26 0 -42.5 15.5t-16.5 39.5q0 34 27.5 57t66.5 23q28 0 44 -14.5t17 -40.5z" />
    <glyph glyph-name="Amacron" unicode="&#x100;" horiz-adv-x="832" 
d="M13 0zM95 1q-18 -1 -26 -1h-15q-19 0 -30 11t-11 30q0 18 11 29t30 11h8t13 -1q7 -1 10.5 -1h5.5q9 0 14 5.5t10 17.5q42 112 58.5 157t33.5 91q11 30 24 65t37 102q17 46 25 68t14 40q23 63 46 82.5t64 19.5q43 0 63.5 -16t40.5 -71q17 -48 42.5 -119t56.5 -158
q28 -78 55 -151t43 -116q3 -8 9 -12t16 -4h18.5h18.5q19 0 29.5 -10.5t10.5 -28.5t-10 -29.5t-27 -11.5h-22t-36 1q-29 1 -45.5 1h-31.5h-30t-45 -1q-27 -1 -40.5 -1h-25.5q-20 0 -30.5 10.5t-10.5 29.5q0 18 11.5 29.5t29.5 11.5h13t19 -1h16h9q15 0 20.5 8.5t0.5 24.5
l-9 27t-16 45l-9 27t-6 17q-4 11 -11 15t-20 4h-54.5h-55.5h-55.5h-55.5q-14 0 -20 -4t-12 -18q-12 -32 -21.5 -61.5t-17.5 -56.5q-4 -15 0.5 -22t19.5 -7h12.5t19.5 1h18.5h11.5q17 0 27.5 -11t10.5 -29t-10 -29t-28 -11h-14.5t-28.5 1q-32 0 -53 0.5t-41 0.5h-30.5
t-41.5 -1zM304 360q-6 -17 -0.5 -24.5t22.5 -8.5h39.5h38.5h40.5h40.5q14 0 18.5 7.5t-0.5 22.5q-28 84 -47 138t-35 97q-2 6 -6.5 9.5t-10.5 3.5t-10.5 -3t-7.5 -10q-14 -37 -30.5 -84t-51.5 -148zM480 802q-28 -1 -42.5 -1h-27.5h-68.5t-32.5 -1q-23 0 -34.5 12.5
t-11.5 37.5q0 23 12.5 35.5t34.5 11.5h56.5h56.5h23.5t35.5 1h29.5h16.5q22 1 34 -11.5t12 -36.5q0 -22 -11.5 -35t-32.5 -13h-17.5h-32.5z" />
    <glyph glyph-name="amacron" unicode="&#x101;" horiz-adv-x="617" 
d="M40 0zM383 61q-29 -34 -73 -53t-96 -19q-83 0 -128.5 39t-45.5 110q0 70 47.5 111t146.5 55q14 2 28.5 4t39.5 5q20 2 29 3.5t16 2.5q28 5 38 16t10 38v8q0 46 -29.5 73t-80.5 27t-80.5 -21t-40.5 -64q-6 -24 -22 -37t-40 -13q-25 0 -40 15t-14 39q5 68 73.5 113.5
t168.5 45.5q107 0 162.5 -48.5t55.5 -141.5v-113.5v-113.5q0 -34 11 -49.5t36 -15.5q3 0 6.5 0.5t8.5 2.5l7.5 1.5t5.5 0.5q11 0 18 -8.5t7 -21.5q0 -10 -4.5 -19t-12.5 -15q-16 -12 -38 -18t-48 -6q-31 0 -50.5 7t-33.5 23q-6 7 -10.5 15.5t-8.5 19.5q-2 6 -3.5 8t-4.5 2
q-2 0 -4.5 -2t-6.5 -6zM158 152q0 -38 25 -58.5t72 -20.5q55 0 91 27.5t45 72.5q3 9 4 20t1 23v7q0 16 -6.5 22t-21.5 6h-6q-17 0 -44 -3t-59 -9q-52 -10 -76.5 -31t-24.5 -56zM356 640q-28 -1 -42.5 -1h-27.5h-68.5t-32.5 -1q-23 0 -34.5 12.5t-11.5 37.5q0 23 12.5 35.5
t34.5 11.5h56.5h56.5h23.5t35.5 1h29.5h16.5q22 1 34 -11.5t12 -36.5q0 -22 -11.5 -35t-32.5 -13h-17.5h-32.5z" />
    <glyph glyph-name="Abreve" unicode="&#x102;" horiz-adv-x="832" 
d="M13 0zM95 1q-18 -1 -26 -1h-15q-19 0 -30 11t-11 30q0 18 11 29t30 11h8t13 -1q7 -1 10.5 -1h5.5q9 0 14 5.5t10 17.5q42 112 58.5 157t33.5 91q11 30 24 65t37 102q17 46 25 68t14 40q23 63 46 82.5t64 19.5q43 0 63.5 -16t40.5 -71q17 -48 42.5 -119t56.5 -158
q28 -78 55 -151t43 -116q3 -8 9 -12t16 -4h18.5h18.5q19 0 29.5 -10.5t10.5 -28.5t-10 -29.5t-27 -11.5h-22t-36 1q-29 1 -45.5 1h-31.5h-30t-45 -1q-27 -1 -40.5 -1h-25.5q-20 0 -30.5 10.5t-10.5 29.5q0 18 11.5 29.5t29.5 11.5h13t19 -1h16h9q15 0 20.5 8.5t0.5 24.5
l-9 27t-16 45l-9 27t-6 17q-4 11 -11 15t-20 4h-54.5h-55.5h-55.5h-55.5q-14 0 -20 -4t-12 -18q-12 -32 -21.5 -61.5t-17.5 -56.5q-4 -15 0.5 -22t19.5 -7h12.5t19.5 1h18.5h11.5q17 0 27.5 -11t10.5 -29t-10 -29t-28 -11h-14.5t-28.5 1q-32 0 -53 0.5t-41 0.5h-30.5
t-41.5 -1zM304 360q-6 -17 -0.5 -24.5t22.5 -8.5h39.5h38.5h40.5h40.5q14 0 18.5 7.5t-0.5 22.5q-28 84 -47 138t-35 97q-2 6 -6.5 9.5t-10.5 3.5t-10.5 -3t-7.5 -10q-14 -37 -30.5 -84t-51.5 -148zM528 821q-19 -17 -48.5 -25.5t-65.5 -8.5q-68 0 -108.5 33.5t-40.5 90.5
q0 15 4 23.5t12 13.5q5 3 13.5 4t23.5 1q14 0 21.5 -6.5t10.5 -21.5q7 -38 25 -54t53 -16q33 0 52 14.5t27 47.5q4 18 11.5 24.5t23.5 6.5q15 0 21.5 -6.5t6.5 -21.5q0 -31 -10.5 -56t-31.5 -43z" />
    <glyph glyph-name="abreve" unicode="&#x103;" horiz-adv-x="617" 
d="M40 0zM383 61q-29 -34 -73 -53t-96 -19q-83 0 -128.5 39t-45.5 110q0 70 47.5 111t146.5 55q14 2 28.5 4t39.5 5q20 2 29 3.5t16 2.5q28 5 38 16t10 38v8q0 46 -29.5 73t-80.5 27t-80.5 -21t-40.5 -64q-6 -24 -22 -37t-40 -13q-25 0 -40 15t-14 39q5 68 73.5 113.5
t168.5 45.5q107 0 162.5 -48.5t55.5 -141.5v-113.5v-113.5q0 -34 11 -49.5t36 -15.5q3 0 6.5 0.5t8.5 2.5l7.5 1.5t5.5 0.5q11 0 18 -8.5t7 -21.5q0 -10 -4.5 -19t-12.5 -15q-16 -12 -38 -18t-48 -6q-31 0 -50.5 7t-33.5 23q-6 7 -10.5 15.5t-8.5 19.5q-2 6 -3.5 8t-4.5 2
q-2 0 -4.5 -2t-6.5 -6zM158 152q0 -38 25 -58.5t72 -20.5q55 0 91 27.5t45 72.5q3 9 4 20t1 23v7q0 16 -6.5 22t-21.5 6h-6q-17 0 -44 -3t-59 -9q-52 -10 -76.5 -31t-24.5 -56zM403 655q-20 -17 -49 -26.5t-65 -9.5q-67 0 -108 35.5t-41 95.5q0 15 4 24.5t12 13.5
q6 3 14 4.5t23 1.5t22 -6.5t10 -23.5q7 -39 25 -56.5t53 -17.5q33 0 52 15.5t27 50.5q4 19 11.5 25.5t23.5 6.5q15 0 21.5 -6.5t6.5 -22.5q0 -32 -11 -59t-31 -45z" />
    <glyph glyph-name="Aogonek" unicode="&#x104;" horiz-adv-x="832" 
d="M304 360q-6 -17 -0.5 -24.5t22.5 -8.5h39.5h38.5h40.5h40.5q14 0 18.5 7.5t-0.5 22.5q-28 84 -47 138t-35 97q-2 6 -6.5 9.5t-10.5 3.5q-7 0 -11.5 -3.5t-6.5 -9.5q-20 -54 -41.5 -115t-40.5 -117zM95 1q-18 -1 -26 -1h-15q-19 0 -30 11t-11 30q0 18 11 29t30 11h8t13 -1
q7 -1 10.5 -1h5.5q9 0 14 5.5t10 17.5q42 112 58.5 157t33.5 91q11 30 24 65t37 102q17 46 25 68t14 40q23 63 46 82.5t64 19.5q43 0 63.5 -16t40.5 -71q17 -48 42.5 -119t56.5 -158q28 -78 55 -151t43 -116q3 -8 9 -12t16 -4h18.5h18.5q19 0 29.5 -10.5t10.5 -28.5
t-10 -29.5t-27 -11.5h-11t-17 1h-13h-7q-40 0 -74 -25.5t-34 -61.5q0 -16 9 -25.5t24 -9.5q12 0 22 6.5t17 19.5q5 9 10.5 13.5t12.5 4.5q10 0 15 -6.5t5 -17.5q0 -39 -28.5 -65t-68.5 -26q-45 0 -71 23.5t-26 63.5q0 30 18 54t52 41q6 3 5 7.5t-7 4.5h-32t-38 -1
q-16 -1 -23.5 -1h-15.5q-20 0 -30.5 10.5t-10.5 29.5q0 18 11.5 29.5t29.5 11.5h13t19 -1h16h9q15 0 20.5 8.5t0.5 24.5l-9 27t-16 45l-9 27t-6 17q-4 11 -11 15t-20 4h-54.5h-55.5h-55.5h-55.5q-14 0 -20 -4t-12 -18q-12 -32 -21.5 -61.5t-17.5 -56.5q-4 -15 0.5 -22
t19.5 -7h12.5t19.5 1h18.5h11.5q17 0 27.5 -11t10.5 -29t-10 -29t-28 -11h-14.5t-28.5 1q-32 0 -53 0.5t-41 0.5h-30.5t-41.5 -1z" />
    <glyph glyph-name="aogonek" unicode="&#x105;" horiz-adv-x="617" 
d="M383 61q-29 -34 -73 -53t-96 -19q-83 0 -128.5 39t-45.5 110q0 70 47.5 111t146.5 55q14 2 28.5 4t39.5 5q20 2 29 3.5t16 2.5q28 5 38 16t10 38v8q0 46 -29.5 73t-80.5 27q-50 0 -80 -21t-41 -64q-6 -24 -22 -37t-40 -13q-25 0 -40 15t-14 39q5 68 73.5 113.5
t168.5 45.5q107 0 162.5 -48.5t55.5 -141.5v-227q0 -34 11 -49.5t36 -15.5q2 0 5 0.5t9 2.5l9 1.5t5 0.5q11 0 18 -8.5t7 -21.5q0 -10 -4.5 -19t-12.5 -15q-5 -4 -11.5 -7.5t-20.5 -8.5q-41 -17 -62 -39.5t-21 -48.5q0 -16 9 -25.5t24 -9.5q12 0 22 6.5t17 19.5
q5 9 10.5 13.5t12.5 4.5q10 0 15 -6.5t5 -17.5q0 -39 -29 -65t-70 -26q-44 0 -70.5 23.5t-26.5 63.5q0 29 17.5 53t51.5 42q4 2 3.5 6t-4.5 5q-14 2 -24 7.5t-18 15.5q-6 7 -10.5 15.5t-8.5 19.5q-2 6 -3.5 8t-4.5 2q-2 0 -4.5 -2t-6.5 -6zM158 152q0 -38 25 -58.5t72 -20.5
q55 0 91 27.5t45 72.5q2 12 3.5 23t1.5 20v7q0 16 -6.5 22t-21.5 6h-6q-17 0 -44 -3t-59 -9q-52 -10 -76.5 -31t-24.5 -56z" />
    <glyph glyph-name="Cacute" unicode="&#x106;" horiz-adv-x="743" 
d="M45 0zM689 179q-37 -91 -112.5 -140t-181.5 -49q-159 0 -254.5 98.5t-95.5 263.5q0 173 95 274t252 101q43 0 79.5 -8.5t73.5 -27.5q2 -1 15.5 -8t20.5 -7q8 0 11.5 6t4.5 21q1 19 12.5 29.5t30.5 10.5q20 0 31 -11t12 -32q0 -10 0.5 -21.5t0.5 -40.5q0 -21 0.5 -33.5
t0.5 -24.5q2 -52 2.5 -80t1.5 -48q1 -19 -10.5 -31t-28.5 -12q-18 0 -30.5 10.5t-18.5 32.5q-9 49 -27 83.5t-48 59.5q-26 23 -60 35.5t-71 12.5q-105 0 -166.5 -70.5t-61.5 -193.5q0 -127 69.5 -204t180.5 -77q73 0 122 27t87 90q6 9 13.5 13.5t16.5 4.5q16 0 26.5 -10
t10.5 -25q0 -5 -1 -9.5t-3 -9.5zM535 882q-38 -22 -114 -55.5t-95 -36.5q-11 -2 -21 3.5t-15 16.5q-6 14 -3 25.5t17 21.5q39 28 104 69t84 48q16 6 30.5 0t23.5 -23q12 -22 9.5 -40.5t-20.5 -28.5z" />
    <glyph glyph-name="cacute" unicode="&#x107;" horiz-adv-x="598" 
d="M41 0zM538 132q-23 -64 -82.5 -103t-141.5 -39q-127 0 -200 75t-73 205q0 133 72.5 211.5t189.5 78.5q33 0 62 -7t50 -20q17 -10 21 -11.5t7 -1.5q7 0 11 4.5t5 12.5q1 18 11 27t27 9t26.5 -9.5t10.5 -26.5q0 -7 0.5 -16.5t0.5 -29.5q0 -17 0.5 -26.5t0.5 -18.5
q0 -10 0.5 -21t1.5 -31q2 -25 2.5 -36t0.5 -19q1 -15 -9.5 -25t-27.5 -10t-27.5 8t-14.5 24q-15 67 -54 104t-96 37q-70 0 -110 -49t-40 -137q0 -95 47 -151t124 -56q51 0 84.5 19.5t61.5 65.5q5 8 12.5 12t17.5 4q14 0 24 -9t10 -22q0 -3 -1.5 -9t-3.5 -13zM463 749
q-30 -26 -100.5 -73t-89.5 -54q-11 -4 -22 0t-17 14q-8 12 -6.5 24.5t12.5 23.5q31 33 89 85.5t76 62.5q14 9 30 5.5t27 -18.5q16 -19 16.5 -37.5t-15.5 -32.5z" />
    <glyph glyph-name="Ccircumflex" unicode="&#x108;" horiz-adv-x="743" 
d="M45 0zM689 179q-37 -91 -112.5 -140t-181.5 -49q-159 0 -254.5 98.5t-95.5 263.5q0 173 95 274t252 101q43 0 79.5 -8.5t73.5 -27.5q2 -1 15.5 -8t20.5 -7q8 0 11.5 6t4.5 21q1 19 12.5 29.5t30.5 10.5q20 0 31 -11t12 -32q0 -10 0.5 -21.5t0.5 -40.5q0 -21 0.5 -33.5
t0.5 -24.5q2 -52 2.5 -80t1.5 -48q1 -19 -10.5 -31t-28.5 -12q-18 0 -30.5 10.5t-18.5 32.5q-9 49 -27 83.5t-48 59.5q-26 23 -60 35.5t-71 12.5q-105 0 -166.5 -70.5t-61.5 -193.5q0 -127 69.5 -204t180.5 -77q73 0 122 27t87 90q6 9 13.5 13.5t16.5 4.5q16 0 26.5 -10
t10.5 -25q0 -5 -1 -9.5t-3 -9.5zM330 830q-29 -22 -40 -30t-18 -13q-14 -9 -26.5 -7t-22.5 15q-11 14 -10.5 25t11.5 22q5 5 11.5 11t21.5 19l21 18t13 12q22 19 37 32t25 21q12 11 20 14t18 3q11 0 18.5 -3.5t17.5 -12.5l6.5 -6.5t12.5 -10.5q16 -15 25.5 -23.5t17.5 -16.5
q5 -4 10.5 -9l16.5 -15q19 -16 27 -23.5t13 -13.5q9 -10 8 -20.5t-12 -22.5t-23.5 -14t-26.5 6q-16 10 -56 41.5t-46 36.5q-7 6 -8.5 6.5t-2.5 0.5q-3 0 -5 -1t-7 -5q-9 -7 -19 -14.5t-28 -21.5z" />
    <glyph glyph-name="ccircumflex" unicode="&#x109;" horiz-adv-x="598" 
d="M41 0zM538 132q-23 -64 -82.5 -103t-141.5 -39q-127 0 -200 75t-73 205q0 133 72.5 211.5t189.5 78.5q33 0 62 -7t50 -20q17 -10 21 -11.5t7 -1.5q7 0 11 4.5t5 12.5q1 18 11 27t27 9t26.5 -9.5t10.5 -26.5q0 -7 0.5 -16.5t0.5 -29.5q0 -17 0.5 -26.5t0.5 -18.5
q0 -10 0.5 -21t1.5 -31q2 -25 2.5 -36t0.5 -19q1 -15 -9.5 -25t-27.5 -10t-27.5 8t-14.5 24q-15 67 -54 104t-96 37q-70 0 -110 -49t-40 -137q0 -95 47 -151t124 -56q51 0 84.5 19.5t61.5 65.5q5 8 12.5 12t17.5 4q14 0 24 -9t10 -22q0 -3 -1.5 -9t-3.5 -13zM240 664
q-23 -19 -32.5 -26t-15.5 -11q-14 -9 -26 -6.5t-23 15.5q-11 12 -10.5 23t11.5 24q5 6 12 12.5t23 20.5q13 11 19.5 17t12.5 12q22 20 37 33.5l25 22.5q12 11 20 14t18 3t17.5 -3.5t18.5 -13.5l45 -42.5t17 -16.5q5 -5 11.5 -11t18.5 -17q17 -15 24.5 -22t12.5 -13
q9 -10 8 -20.5t-12 -23.5q-11 -12 -23.5 -14t-26.5 6q-9 6 -23.5 17t-78.5 64q-1 0 -5 3t-6 3q-3 0 -5 -1t-7 -5q-11 -8 -23 -17.5t-34 -26.5z" />
    <glyph glyph-name="Cdotaccent" unicode="&#x10a;" horiz-adv-x="743" 
d="M45 0zM689 179q-37 -91 -112.5 -140t-181.5 -49q-159 0 -254.5 98.5t-95.5 263.5q0 173 95 274t252 101q43 0 79.5 -8.5t73.5 -27.5q2 -1 15.5 -8t20.5 -7q8 0 11.5 6t4.5 21q1 19 12.5 29.5t30.5 10.5q20 0 31 -11t12 -32q0 -10 0.5 -21.5t0.5 -40.5q0 -21 0.5 -33.5
t0.5 -24.5q2 -52 2.5 -80t1.5 -48q1 -19 -10.5 -31t-28.5 -12q-18 0 -30.5 10.5t-18.5 32.5q-9 49 -27 83.5t-48 59.5q-26 23 -60 35.5t-71 12.5q-105 0 -166.5 -70.5t-61.5 -193.5q0 -127 69.5 -204t180.5 -77q73 0 122 27t87 90q6 9 13.5 13.5t16.5 4.5q16 0 26.5 -10
t10.5 -25q0 -5 -1 -9.5t-3 -9.5zM483 870q1 -36 -32 -61t-77 -25q-30 0 -48.5 17t-18.5 44q0 35 31 61t72 26q35 0 54 -16t19 -46z" />
    <glyph glyph-name="cdotaccent" unicode="&#x10b;" horiz-adv-x="598" 
d="M41 0zM538 132q-23 -64 -82.5 -103t-141.5 -39q-127 0 -200 75t-73 205q0 133 72.5 211.5t189.5 78.5q33 0 62 -7t50 -20q17 -10 21 -11.5t7 -1.5q7 0 11 4.5t5 12.5q1 18 11 27t27 9t26.5 -9.5t10.5 -26.5q0 -7 0.5 -16.5t0.5 -29.5q0 -17 0.5 -26.5t0.5 -18.5
q0 -10 0.5 -21t1.5 -31q2 -25 2.5 -36t0.5 -19q1 -15 -9.5 -25t-27.5 -10t-27.5 8t-14.5 24q-15 67 -54 104t-96 37q-70 0 -110 -49t-40 -137q0 -95 47 -151t124 -56q51 0 84.5 19.5t61.5 65.5q5 8 12.5 12t17.5 4q14 0 24 -9t10 -22q0 -3 -1.5 -9t-3.5 -13zM395 715
q1 -36 -32 -61t-77 -25q-30 0 -48.5 17t-18.5 44q0 35 31 61t72 26q35 0 54 -16t19 -46z" />
    <glyph glyph-name="Ccaron" unicode="&#x10c;" horiz-adv-x="743" 
d="M45 0zM689 179q-37 -91 -112.5 -140t-181.5 -49q-159 0 -254.5 98.5t-95.5 263.5q0 173 95 274t252 101q43 0 79.5 -8.5t73.5 -27.5q2 -1 15.5 -8t20.5 -7q8 0 11.5 6t4.5 21q1 19 12.5 29.5t30.5 10.5q20 0 31 -11t12 -32q0 -10 0.5 -21.5t0.5 -40.5q0 -21 0.5 -33.5
t0.5 -24.5q2 -52 2.5 -80t1.5 -48q1 -19 -10.5 -31t-28.5 -12q-18 0 -30.5 10.5t-18.5 32.5q-9 49 -27 83.5t-48 59.5q-26 23 -60 35.5t-71 12.5q-105 0 -166.5 -70.5t-61.5 -193.5q0 -127 69.5 -204t180.5 -77q73 0 122 27t87 90q6 9 13.5 13.5t16.5 4.5q16 0 26.5 -10
t10.5 -25q0 -5 -1 -9.5t-3 -9.5zM447 909q29 22 40.5 30t18.5 13q13 8 25.5 6t23.5 -14q12 -12 11.5 -23.5t-12.5 -23.5t-37.5 -34t-29.5 -26q-22 -19 -37 -32t-25 -21q-12 -11 -20 -14t-18 -3t-18 3.5t-18 12.5q-3 3 -7 6.5t-13 11.5q-16 14 -25 22t-17 16q-5 4 -30.5 27.5
t-36.5 34.5q-9 9 -8 20t12 23t23.5 14t26.5 -6q16 -11 58.5 -44t43.5 -34q4 -4 6.5 -5t4.5 -1q3 0 6 1t6 4q9 6 18.5 13.5t27.5 22.5z" />
    <glyph glyph-name="ccaron" unicode="&#x10d;" horiz-adv-x="598" 
d="M41 0zM538 132q-23 -64 -82.5 -103t-141.5 -39q-127 0 -200 75t-73 205q0 133 72.5 211.5t189.5 78.5q33 0 62 -7t50 -20q17 -10 21 -11.5t7 -1.5q7 0 11 4.5t5 12.5q1 18 11 27t27 9t26.5 -9.5t10.5 -26.5q0 -7 0.5 -16.5t0.5 -29.5q0 -17 0.5 -26.5t0.5 -18.5
q0 -10 0.5 -21t1.5 -31q2 -25 2.5 -36t0.5 -19q1 -15 -9.5 -25t-27.5 -10t-27.5 8t-14.5 24q-15 67 -54 104t-96 37q-70 0 -110 -49t-40 -137q0 -95 47 -151t124 -56q51 0 84.5 19.5t61.5 65.5q5 8 12.5 12t17.5 4q14 0 24 -9t10 -22q0 -3 -1.5 -9t-3.5 -13zM320 724
q14 11 52.5 41.5t52.5 39.5t26.5 7t22.5 -15q11 -13 10.5 -24.5t-11.5 -23.5l-11.5 -11.5t-22.5 -20.5q-13 -11 -20 -17.5t-13 -12.5q-12 -11 -25.5 -23t-36.5 -32q-12 -11 -20 -14t-18 -3t-18 3.5t-18 12.5l-11 11t-21 19l-18 18t-12 11q-5 5 -11 10t-17 16
q-19 16 -26.5 23.5t-12.5 13.5q-9 11 -8 21.5t12 22.5q12 13 24 15t26 -7q16 -11 57.5 -44.5t44.5 -35.5q7 -6 8.5 -6.5t2.5 -0.5q3 0 5 1t7 5z" />
    <glyph glyph-name="Dcaron" unicode="&#x10e;" horiz-adv-x="803" 
d="M27 0zM111 1q-20 -1 -28 -1h-13q-20 0 -31.5 11t-11.5 31q0 17 11.5 28.5t30.5 11.5h8t11 -1h10.5h7.5q14 0 20 5t6 18q1 39 1.5 104.5t0.5 144.5v186t-1 68q0 16 -6 23t-21 7h-7.5h-9.5q-7 -1 -11.5 -1h-9.5q-18 0 -29.5 11.5t-11.5 29.5t11 29.5t30 11.5h16.5h31.5
q32 -1 50.5 -1h34.5h27h44q40 1 63.5 1h46.5q181 0 278.5 -90.5t97.5 -257.5q0 -177 -100 -274t-284 -97q-22 0 -44 0.5t-60 1.5q-29 1 -43.5 1h-27.5q-15 0 -34 -0.5t-54 -0.5zM255 126q1 -26 18 -37t54 -11h17.5h16.5q136 0 202 65.5t66 200.5q0 143 -73.5 220t-207.5 77
h-16.5h-16.5q-33 0 -45.5 -9.5t-14.5 -36.5q-1 -29 -1.5 -92.5t-0.5 -155.5q0 -79 0.5 -133t1.5 -88zM460 909q29 22 40.5 30t18.5 13q13 8 25.5 6t23.5 -14q12 -12 11.5 -23.5t-12.5 -23.5t-37.5 -34t-29.5 -26q-22 -19 -37 -32t-25 -21q-12 -11 -20 -14t-18 -3t-18 3.5
t-18 12.5q-3 3 -7 6.5t-13 11.5q-16 14 -25 22t-17 16q-5 4 -30.5 27.5t-36.5 34.5q-9 9 -8 20t12 23t23.5 14t26.5 -6q16 -11 58.5 -44t43.5 -34q4 -4 6.5 -5t4.5 -1q3 0 6 1t6 4q9 6 18.5 13.5t27.5 22.5z" />
    <glyph glyph-name="dcaron" unicode="&#x10f;" horiz-adv-x="703" 
d="M41 0zM428 69q-27 -39 -67 -59t-91 -20q-106 0 -167.5 72.5t-61.5 195.5q0 141 62.5 221.5t171.5 80.5q48 0 86 -18t61 -51q2 -3 4.5 -4.5t5.5 -1.5q4 0 5.5 2t2.5 8q1 36 1 95t-1 87q-1 12 -6.5 18t-17.5 6h-7t-11 -1q-11 -1 -17 -1.5t-12 -0.5q-17 0 -27 10t-10 25
q0 16 10 25.5t31 13.5q2 0 35 6t57 9q3 0 23 3t30 3q19 0 28.5 -11t9.5 -33q-1 -62 -1.5 -168t-0.5 -204v-119t1 -142q0 -14 6.5 -21t19.5 -7h18.5h18.5q16 0 26 -9t10 -24t-9.5 -25t-29.5 -14q-29 -7 -47 -10.5t-35 -6.5q-15 -2 -26.5 -3t-23.5 -1q-21 0 -30 14t-8 45
q1 10 -1 15.5t-6 5.5q-3 0 -5.5 -1.5t-4.5 -4.5zM160 280q0 -98 38.5 -150.5t108.5 -52.5q54 0 89.5 32t40.5 86q4 37 4 80.5t-4 73.5q-7 56 -43 89.5t-87 33.5q-72 0 -109.5 -49.5t-37.5 -142.5zM693 805q28 0 42 -14.5t14 -43.5q0 -34 -11.5 -74t-29.5 -72
q-22 -40 -35.5 -54.5t-29.5 -14.5q-17 0 -23.5 13.5t6.5 30.5q16 25 21 52.5t-4 76.5q-6 33 -5 47.5t7 25.5q8 13 20 20t28 7z" />
    <glyph glyph-name="Dcroat" unicode="&#x110;" horiz-adv-x="803" 
d="M27 0zM111 1q-20 -1 -28 -1h-13q-20 0 -31.5 11t-11.5 31q0 17 11.5 28.5t30.5 11.5h8t11 -1h10.5h7.5q14 0 20 5t6 18q1 30 1.5 82t0.5 109q0 11 -5 16.5t-15 5.5h-4h-12q-10 -1 -14.5 -1h-7.5q-20 0 -30.5 11t-10.5 32t10.5 32t30.5 11h6.5t13.5 -1h12.5h5.5
q10 0 15 5.5t5 16.5v133.5t-1 50.5q0 16 -6 23t-21 7h-7.5h-9.5q-7 -1 -11.5 -1h-9.5q-18 0 -29.5 11.5t-11.5 29.5t11 29.5t30 11.5h16.5h31.5q32 -1 50.5 -1h34.5h27h44q40 1 63.5 1h46.5q181 0 278.5 -90.5t97.5 -257.5q0 -177 -100 -274t-284 -97q-22 0 -44 0.5t-60 1.5
q-29 1 -43.5 1h-27.5q-15 0 -34 -0.5t-54 -0.5zM255 126q1 -26 18 -37t54 -11h17.5h16.5q136 0 202 65.5t66 200.5q0 143 -73.5 220t-207.5 77h-16.5h-16.5q-33 0 -45.5 -9.5t-14.5 -36.5q-1 -22 -1.5 -67.5t-0.5 -104.5q0 -11 5.5 -16t17.5 -5h64h64q21 0 32 -10.5
t11 -31.5t-11 -32t-32 -11h-64h-64q-12 0 -17.5 -5.5t-5.5 -17.5q0 -56 0.5 -99t1.5 -69z" />
    <glyph glyph-name="dcroat" unicode="&#x111;" horiz-adv-x="677" 
d="M272 -10q-106 0 -167 70t-63 191q-3 138 60.5 218.5t175.5 80.5q47 0 85 -18t62 -51q2 -4 4 -5t6 -1t6.5 2t2.5 8q1 4 1 17.5v47.5q0 10 -5 15t-15 5h-10h-22h-30h-15q-20 0 -30.5 10.5t-10.5 31.5q0 20 10.5 30.5t30.5 10.5q5 0 13.5 -0.5t27.5 -0.5h24h12q11 0 15.5 4
t4.5 13q0 3 -0.5 7.5t-0.5 8.5q0 11 -6 16t-18 5q-4 0 -7.5 -0.5t-11.5 -1.5q-11 -1 -17 -1h-11q-17 0 -27 9t-10 24q0 16 9.5 25t28.5 12q6 0 12.5 1l19.5 3q24 4 36.5 6t24.5 4q3 0 22.5 3t29.5 3q19 0 29 -11.5t10 -32.5q-1 -5 -1.5 -36.5t-0.5 -42.5q0 -10 5 -14t16 -4
h5.5h15.5q13 0 18 0.5t7 0.5q20 0 31 -10.5t11 -30.5q0 -21 -11 -31.5t-31 -10.5h-7.5h-19.5h-14h-5q-11 0 -16 -5.5t-5 -17.5q0 -16 -0.5 -36.5t-0.5 -61.5v-46.5v-24.5q0 -134 0.5 -182.5t1.5 -75.5q0 -15 6.5 -21.5t19.5 -6.5h6t13 1h13h6q16 0 26.5 -10t10.5 -25
t-10 -25.5t-27 -12.5q-20 -5 -39 -8.5t-46 -7.5q-20 -3 -32.5 -4.5t-17.5 -1.5q-21 0 -29 14.5t-8 47.5q0 7 -2 11t-6 4q-3 0 -5.5 -1.5t-4.5 -4.5q-28 -39 -68 -59t-91 -20zM307 463q-73 0 -111 -48.5t-39 -141.5q-2 -94 37 -145.5t112 -51.5q55 0 91 31.5t42 86.5
q3 20 3.5 73.5t-3.5 72.5q-7 55 -43.5 89t-88.5 34z" />
    <glyph glyph-name="Emacron" unicode="&#x112;" horiz-adv-x="707" 
d="M27 0zM92 719q35 -1 60 -1.5t51 -0.5h128h128q25 0 45.5 2t47.5 7q14 3 20.5 4t12.5 1q21 0 32.5 -10.5t14.5 -32.5q5 -33 12.5 -71.5t14.5 -70.5q6 -25 -6.5 -41.5t-36.5 -16.5q-19 0 -31 9.5t-17 29.5q-10 36 -16.5 58t-8.5 29q-5 13 -13 18t-27 6q-37 1 -116.5 1
t-102.5 -1q-16 -1 -23.5 -9t-8.5 -25q-1 -29 -0.5 -90.5t1.5 -87.5q1 -14 6.5 -20t18.5 -7q16 -1 58.5 -0.5t59.5 1.5q8 0 12.5 4.5t4.5 12.5v8.5v13.5q-1 11 -1 17v12q0 19 11.5 30t30.5 11q20 0 30.5 -11t9.5 -32q-1 -45 -0.5 -113t1.5 -103q1 -21 -10 -33t-31 -12
q-19 0 -30.5 12t-11.5 32v13t1 19v15v9q0 9 -4 13.5t-13 5.5h-29h-87q-15 -1 -20.5 -7.5t-6.5 -22.5q-1 -29 -1.5 -95.5t0.5 -92.5q1 -13 7 -18.5t22 -6.5q29 -1 113.5 -0.5t119.5 1.5q19 0 27 4.5t13 18.5q5 12 9.5 27t16.5 57q6 21 18 31.5t30 10.5q23 0 35 -17t6 -43
q-6 -27 -13 -65.5t-13 -77.5q-4 -23 -15.5 -33.5t-31.5 -10.5q-6 0 -12.5 1t-19.5 5q-17 6 -28.5 8t-23.5 2q-85 1 -171.5 1.5t-140.5 0.5q-20 0 -42 -0.5t-58 -0.5q-17 -1 -24 -1h-11q-18 0 -28 11.5t-10 31.5q0 17 10.5 28t27.5 11h8h13q9 -1 14 -1h10q12 0 17.5 5t5.5 17
q1 23 1.5 66t0.5 188v187.5t-1 66.5q-1 14 -7 20.5t-20 6.5h-8h-12q-9 -1 -13 -1h-8q-18 0 -28 11t-10 30t10.5 30t27.5 11h8h18zM426 802q-28 -1 -42.5 -1h-27.5h-68.5t-32.5 -1q-23 0 -34.5 12.5t-11.5 37.5q0 23 12.5 35.5t34.5 11.5h56.5h56.5h23.5t35.5 1h29.5h16.5
q22 1 34 -11.5t12 -36.5q0 -22 -11.5 -35t-32.5 -13h-17.5h-32.5z" />
    <glyph glyph-name="emacron" unicode="&#x113;" horiz-adv-x="594" 
d="M41 0zM542 129q-24 -65 -85.5 -102t-146.5 -37q-127 0 -198 72t-71 203q0 133 78 214t201 81q108 0 169.5 -61t61.5 -167q0 -39 -16.5 -55.5t-55.5 -16.5h-26.5h-46.5q-37 1 -56 1h-35h-64h-64q-15 0 -20.5 -6.5t-4.5 -22.5q4 -68 48.5 -108t115.5 -40q55 0 89.5 17.5
t66.5 61.5q6 8 13.5 12t14.5 4q14 0 24.5 -9.5t10.5 -22.5q0 -4 -1 -9t-2 -9zM165 363q-2 -15 2.5 -20.5t19.5 -6.5h48h48h57.5h56.5q17 0 25 7t8 23q0 47 -34 78t-89 31q-57 0 -95.5 -31.5t-46.5 -80.5zM370 640q-28 -1 -42.5 -1h-27.5h-68.5t-32.5 -1q-23 0 -34.5 12.5
t-11.5 37.5q0 23 12.5 35.5t34.5 11.5h56.5h56.5h23.5t35.5 1h29.5h16.5q22 1 34 -11.5t12 -36.5q0 -22 -11.5 -35t-32.5 -13h-17.5h-32.5z" />
    </font>
</defs>
</svg>
