<svg xmlns="http://www.w3.org/2000/svg">
<defs>
<font id="Doyle-Bold" horiz-adv-x="730" >
  <font-face 
    font-family="Doyle"
    font-weight="700"
    font-stretch="normal"
    units-per-em="1000"
    panose-1="2 15 8 4 4 2 6 6 2 3"
    ascent="800"
    descent="-200"
    x-height="556"
    cap-height="728"
    bbox="-136 -412 1293 1029"
    underline-thickness="50"
    underline-position="-150"
    unicode-range="U+000A-FB04"
  />
<missing-glyph horiz-adv-x="780" 
d="M240 426q-1 -14 -11 -21.5t-29 -7.5q-21 0 -33 12.5t-12 34.5q0 26 19.5 44t50.5 18q27 0 44 -10.5t17 -26.5q0 -8 -6.5 -13t-16.5 -5q-6 0 -9 -1t-7 -4q-3 -2 -4.5 -7t-2.5 -13zM100 176q-9 -10 -15 -13t-14 -3q-11 0 -17.5 8t-6.5 22t8.5 31t22.5 32q16 18 37 29.5
t37 11.5q14 0 22 -6.5t8 -18.5q0 -8 -3.5 -13.5t-14.5 -13.5q-8 -6 -10.5 -9.5t-2.5 -7.5q0 -3 1 -5t3 -3q26 -18 89 -32.5t131 -14.5q61 0 118.5 18.5t122.5 61.5q8 6 12 11t4 10q0 3 -2 5t-9 6q-11 6 -15 11.5t-4 12.5q0 13 10.5 21t26.5 8q14 0 30 -5.5t33 -16.5
q15 -10 23.5 -23.5t8.5 -26.5q0 -12 -7.5 -19.5t-20.5 -7.5q-6 0 -10.5 1t-10.5 3q-4 2 -6.5 2.5t-5.5 0.5q-6 0 -12.5 -3.5t-21.5 -16.5q-11 -11 -26.5 -22.5t-40.5 -27.5q-10 -6 -12.5 -8.5t-5.5 -6.5q-32 -41 -77.5 -66.5t-91.5 -25.5q-52 0 -95 17.5t-72 50.5
q-3 4 -7.5 7.5t-12.5 8.5q-2 1 -28 15t-37 19q-3 2 -6 2.5t-9 0.5q-4 0 -8 -2t-10 -9zM560 456q0 -15 -11 -24t-30 -9q-20 0 -32 13.5t-12 33.5q0 27 19.5 45t49.5 18q26 0 43.5 -10t17.5 -24q0 -10 -6 -15.5t-18 -5.5q-5 0 -8 -1t-6 -3q-3 -3 -5 -7.5t-2 -10.5zM494 575
q-11 -6 -16 -8t-10 -2q-10 0 -15 6.5t-5 18.5q0 25 26.5 42.5t59.5 17.5q34 0 55.5 -12.5t21.5 -31.5q0 -11 -4.5 -16t-15.5 -5q-4 0 -9 0.5t-16 2.5t-16 2.5t-10 0.5q-10 0 -20 -3t-26 -13zM174 557q-10 -6 -14.5 -8t-8.5 -2q-10 0 -15.5 7t-5.5 19q0 24 27 42t59 18
q33 0 55 -13.5t22 -32.5q0 -11 -4 -16t-14 -5q-5 0 -10.5 0.5t-16.5 3.5q-12 2 -17.5 2.5t-10.5 0.5q-10 0 -20 -3t-26 -13zM421 330q4 -10 5.5 -15t1.5 -9q0 -13 -9 -21.5t-23 -8.5q-24 0 -37.5 27t-13.5 65q0 41 11 61.5t32 20.5q11 0 17 -6t6 -17v-7t-1 -12
q-1 -12 -1 -18.5v-12.5q0 -11 2.5 -21t9.5 -26z" />
    <glyph glyph-name="uniFB00" unicode="ff" horiz-adv-x="894" 
d="M206 -10q-49 0 -86 2t-54 6t-26 15.5t-9 29.5q0 17 8.5 28t24.5 17q10 3 16 5.5t8 3.5q8 4 11.5 12t4.5 22q1 13 1 35.5v86.5v69.5v69.5q0 12 -5.5 17.5t-18.5 5.5h-13.5t-8.5 1q-26 2 -38 19.5t-10 47.5q2 31 16 47t42 19q6 1 12.5 2t13.5 3q6 2 8.5 7t2.5 13
q0 4 -1 8.5t-3 14.5q-5 18 -6.5 30t-1.5 25q0 74 53 120t146 46q78 0 123 -31t45 -82q0 -36 -23 -61.5t-58 -25.5q-15 0 -26.5 4t-29.5 17q-3 2 -11.5 8.5t-13.5 9.5q-7 4 -14.5 6t-16.5 2q-22 0 -35 -14t-13 -37q0 -30 21.5 -45t64.5 -15h32.5h32.5q27 -1 37 -18t5 -55
q-4 -32 -18 -49t-37 -17h-20h-20q-15 0 -21.5 -7t-6.5 -23v-52.5v-52.5q0 -34 1 -70.5t2 -71.5q1 -14 5.5 -21.5t14.5 -10.5q4 -1 9.5 -2.5t16.5 -3.5t17 -3.5l10 -2.5q18 -5 26.5 -16.5t8.5 -30.5q0 -21 -11.5 -33.5t-33.5 -16.5q-32 -4 -69 -5.5t-81 -1.5zM651 -10
q-49 0 -86.5 2t-54.5 6q-16 3 -25 15t-9 30q0 17 8 28t25 17q5 2 9.5 3.5t13.5 5.5q8 4 11.5 12t4.5 22q1 13 1 35.5v86.5v69.5v69.5q0 12 -5.5 17.5t-17.5 5.5h-13.5t-9.5 1q-22 2 -33 19t-9 48t14.5 47t38.5 19q5 0 9.5 1t16.5 4q6 2 8.5 7t2.5 13q0 4 -1 8.5t-3 14.5
q-5 18 -6.5 30t-1.5 25q0 74 53 120t146 46q82 0 129 -31.5t47 -83.5q0 -36 -24.5 -62t-61.5 -26q-16 0 -29.5 4.5t-29.5 16.5q-2 2 -12 9.5t-16 10.5q-8 5 -16.5 7t-17.5 2q-21 0 -34 -14t-13 -37q0 -30 21.5 -45t65.5 -15h40h40q25 -1 34.5 -18.5t4.5 -54.5
q-4 -32 -18.5 -49t-36.5 -17h-22.5h-23.5q-16 0 -22.5 -7t-6.5 -23v-62.5v-62.5q0 -38 0.5 -67.5t1.5 -54.5q1 -13 6 -21t14 -11q5 -2 11.5 -3.5t18.5 -3.5q9 -3 14 -4t9 -2q18 -6 26.5 -17t8.5 -29q0 -21 -11.5 -33.5t-33.5 -16.5q-32 -4 -69 -5.5t-81 -1.5z" />
    <glyph glyph-name="uniFB01" unicode="fi" horiz-adv-x="816" 
d="M629 -10q-44 0 -79 2t-51 6q-17 3 -26.5 15t-9.5 30q0 16 8.5 27.5t25.5 17.5l6 2t8 3q4 2 5.5 2.5t3.5 1.5q8 4 11.5 12t3.5 22q1 18 1 45v94v71.5t-1 30.5q-1 13 -5.5 20t-13.5 10q-5 2 -9.5 3.5t-16.5 3.5q-16 2 -25 13t-9 27q0 19 14.5 36.5t40.5 31.5q39 19 69 29
t55 12q20 2 34.5 -0.5t26.5 -10.5q17 -8 25 -27t8 -48q0 -28 -0.5 -59.5t-0.5 -84.5q-1 -30 -1 -42v-20v-92.5t1 -39.5q0 -15 3.5 -23.5t10.5 -11.5q5 -3 10.5 -5.5t12.5 -4.5q16 -6 23.5 -17t7.5 -27q0 -18 -9.5 -30.5t-25.5 -16.5q-21 -4 -52.5 -6t-79.5 -2zM732 722
q0 -49 -51.5 -85t-117.5 -36q-41 0 -65 21t-24 55q0 49 50 86.5t111 38.5q48 0 72.5 -20t24.5 -60zM198 -12q-42 0 -70.5 1t-41.5 3q-27 3 -41 16t-14 34q0 15 8 26t25 19q2 1 4.5 2t6.5 2q5 2 8 3t5 2q8 4 11.5 11.5t4.5 22.5q1 14 1 39v95v64v64q0 12 -5.5 17.5t-18.5 5.5
h-10.5h-10.5q-25 0 -38 18t-11 50q2 31 15.5 47t41.5 19q9 1 15 2.5t11 3.5q6 3 8.5 7.5t2.5 11.5q0 5 -1 10.5t-3 15.5q-4 16 -5.5 27t-1.5 23q0 72 49 116t131 44q70 0 110 -29.5t40 -79.5q0 -36 -18.5 -58t-50.5 -22q-14 0 -24.5 3.5t-22.5 13.5q-15 12 -24 15.5t-20 3.5
q-19 0 -31 -13t-12 -34q0 -28 17.5 -42t53.5 -14h44h44q26 0 36 -18t5 -55q-4 -33 -18 -49.5t-37 -16.5h-22.5h-23.5q-17 0 -23.5 -7t-6.5 -23v-56v-56q0 -51 0.5 -83.5t2.5 -52.5q1 -12 6 -19t15 -10q12 -3 29.5 -6.5t21.5 -4.5q19 -4 28.5 -16t9.5 -31q0 -23 -16 -37.5
t-46 -18.5q-23 -3 -56.5 -4.5t-86.5 -1.5z" />
    <glyph glyph-name="uniFB02" unicode="fl" horiz-adv-x="799" 
d="M196 -12q-40 0 -68.5 1t-41.5 3q-27 3 -41 16t-14 34q0 16 8.5 27t24.5 18q3 1 5.5 2l7.5 3q5 1 7 2l4 2q8 3 11.5 11t4.5 23v14v28q1 36 1 58.5v43.5v59.5v58.5q0 12 -5.5 17.5t-18.5 5.5h-10.5h-10.5q-25 0 -38 18t-11 50q2 31 15.5 47t41.5 19q9 1 15 2.5t11 3.5
q6 3 8.5 6.5t2.5 10.5q0 4 -0.5 8.5t-2.5 13.5q-4 17 -5.5 28.5t-1.5 24.5q0 66 47.5 108.5t125.5 42.5q66 0 104.5 -28.5t38.5 -77.5q0 -34 -17 -54.5t-47 -20.5q-12 0 -22 3.5t-23 12.5q-11 8 -20 11t-21 3q-18 0 -30 -12.5t-12 -31.5q0 -25 17.5 -37t53.5 -12h45.5h44.5
q26 0 36 -18t5 -55q-4 -33 -18 -49.5t-37 -16.5h-22.5h-23.5q-17 0 -23.5 -7t-6.5 -23v-50.5v-51.5q0 -31 0.5 -58.5t2.5 -87.5q1 -12 6.5 -19t14.5 -10q6 -2 17 -4.5t28 -6.5q18 -4 27.5 -16t9.5 -31q0 -22 -16.5 -37t-44.5 -19q-22 -3 -54.5 -4.5t-84.5 -1.5zM613 -10
q-45 0 -74.5 1t-46.5 3q-23 3 -35 15.5t-12 32.5q0 17 8.5 28.5t25.5 16.5q10 3 14.5 5t8.5 4q7 3 10.5 11t4.5 22v22.5v47.5q1 64 1 103v75v75t-1 111v41v17q-1 14 -4 21.5t-10 11.5l-8 4t-13 6q-17 7 -24.5 17t-7.5 25q0 20 10.5 33.5t32.5 22.5q30 13 61 20.5t61 10.5
q18 2 32.5 0.5t26.5 -7.5q18 -8 27.5 -28.5t9.5 -51.5v-67t-1 -116q-1 -71 -1 -104v-57v-170t1 -60q0 -14 3 -22.5t10 -12.5q7 -3 12.5 -5.5t12.5 -4.5q15 -5 22.5 -15.5t7.5 -27.5q0 -20 -12.5 -33t-34.5 -16q-23 -3 -50 -4t-68 -1z" />
    <glyph glyph-name="uniFB03" unicode="ffi" horiz-adv-x="1262" 
d="M643 -12q-42 0 -70.5 1t-41.5 3q-27 3 -41 16t-14 34q0 16 8.5 27t25.5 18q13 4 16.5 5.5t6.5 3.5q8 5 11.5 12.5t4.5 21.5t1 37v97v64v64q0 12 -5.5 17.5t-18.5 5.5h-10.5h-10.5q-24 0 -35 17t-9 51q2 31 14.5 47t38.5 19q8 1 14 2.5t12 3.5q5 3 7.5 7.5t2.5 11.5
q0 5 -1 10.5t-3 15.5q-4 16 -5.5 27t-1.5 23q0 72 51 118.5t132 46.5q73 0 114.5 -29.5t41.5 -79.5q0 -35 -21.5 -58.5t-53.5 -23.5q-14 0 -25.5 4t-25.5 16q-19 16 -28 19.5t-19 3.5q-20 0 -33 -15t-13 -38q0 -29 19.5 -44.5t56.5 -15.5h43.5h43.5q25 0 35.5 -18t5.5 -55
q-4 -32 -18.5 -49t-36.5 -17h-21.5h-21.5q-16 0 -22.5 -7t-6.5 -23v-56v-56q0 -75 0.5 -98.5t1.5 -37.5q1 -12 6.5 -19.5t15.5 -9.5q4 -1 8.5 -2t12.5 -3q12 -2 17.5 -3.5t11.5 -2.5q19 -5 28.5 -16.5t9.5 -30.5q0 -23 -16 -37.5t-45 -18.5q-23 -3 -56.5 -4.5t-87.5 -1.5z
M1075 -10q-45 0 -80 2t-51 6q-17 4 -26 15.5t-9 29.5q0 17 8.5 28t24.5 17q13 4 16.5 5.5t6.5 3.5q8 5 11 12.5t4 21.5q1 12 1 36v103v70.5t-1 31.5q-1 12 -5 18.5t-14 11.5q-5 2 -9.5 3.5t-16.5 3.5q-16 2 -25 13t-9 27q0 18 14.5 36t40.5 32q38 19 69 29t55 12
q20 2 34.5 -0.5t26.5 -10.5q17 -11 25 -29.5t8 -45.5v-62.5t-1 -82.5v-40.5v-20.5v-93.5t1 -38.5q1 -17 4 -24.5t9 -10.5t11.5 -5.5t11.5 -4.5q16 -7 24 -17.5t8 -26.5q0 -18 -9.5 -30.5t-26.5 -16.5q-20 -4 -51.5 -6t-79.5 -2zM1182 726q0 -49 -50.5 -85t-114.5 -36
q-38 0 -61.5 21.5t-24.5 56.5q0 48 49.5 86t107.5 39q46 0 70 -21t24 -61zM198 -12q-42 0 -70.5 1t-41.5 3q-27 3 -41 16t-14 34q0 15 8 26t25 19q2 1 4.5 2t6.5 2q5 2 8 3t5 2q8 4 11.5 11.5t4.5 22.5q1 14 1 39v95v64v64q0 12 -5.5 17.5t-18.5 5.5h-10.5h-10.5
q-25 0 -38 18t-11 50q2 31 15.5 47t41.5 19q9 1 15 2.5t11 3.5q6 3 8.5 7.5t2.5 11.5q0 5 -1 10.5t-3 15.5q-4 16 -5.5 27t-1.5 23q0 72 49 116t131 44q70 0 110 -29.5t40 -79.5q0 -36 -18.5 -58t-50.5 -22q-14 0 -24.5 3.5t-22.5 13.5q-15 12 -24 15.5t-20 3.5
q-19 0 -31 -13t-12 -34q0 -28 17.5 -42t53.5 -14h44h44q26 0 36 -18t5 -55q-4 -33 -18 -49.5t-37 -16.5h-22.5h-23.5q-17 0 -23.5 -7t-6.5 -23v-56v-56q0 -51 0.5 -83.5t2.5 -52.5q1 -12 6 -19t15 -10q12 -3 29.5 -6.5t21.5 -4.5q19 -4 28.5 -16t9.5 -31q0 -23 -16 -37.5
t-46 -18.5q-23 -3 -56.5 -4.5t-86.5 -1.5z" />
    <glyph glyph-name="uniFB04" unicode="ffl" horiz-adv-x="1243" 
d="M206 -10q-49 0 -86 2t-54 6t-26 15.5t-9 29.5q0 17 8.5 28t24.5 17q14 5 17.5 6t6.5 3q8 4 11.5 12.5t4.5 21.5t1 35.5v86.5v69.5v69.5q0 12 -5.5 17.5t-18.5 5.5h-13.5t-8.5 1q-26 3 -38 19.5t-10 47.5q2 30 16 46t42 20q2 0 11.5 2t14.5 3q6 2 8.5 7t2.5 13q0 4 -1 8.5
t-3 14.5q-5 18 -6.5 29.5t-1.5 23.5q0 70 50.5 114t134.5 44q71 0 113 -29t42 -77q0 -34 -21 -56.5t-53 -22.5q-13 0 -23 3t-25 13q-17 13 -26 16t-19 3q-21 0 -33 -12t-12 -33q0 -30 21 -44.5t63 -14.5h32.5h32.5q27 -1 37 -18t5 -55q-4 -32 -18 -49t-37 -17h-20h-20
q-15 0 -21 -7t-6 -23v-62.5v-62.5q0 -38 0.5 -67.5t1.5 -54.5q1 -14 5.5 -21.5t14.5 -10.5q5 -2 11.5 -3.5t19.5 -3.5q10 -2 14 -3l8 -2q18 -5 26.5 -16.5t8.5 -30.5q0 -21 -11.5 -33.5t-33.5 -16.5q-32 -4 -69 -5.5t-81 -1.5zM641 -12q-40 0 -68.5 1t-41.5 3q-27 3 -41 16
t-14 34q0 17 8.5 28.5t24.5 16.5q12 4 16 5.5t8 3.5q8 5 11 12.5t4 21.5q1 15 1 39.5v104.5v59.5v58.5q0 12 -5.5 17.5t-17.5 5.5h-12.5t-9.5 1q-24 2 -35 19t-9 48t14.5 47t37.5 19q7 1 13 2t12 4t8 7t2 10q0 4 -0.5 8.5t-2.5 14.5q-4 18 -5 30t-1 25q0 66 47.5 109
t122.5 43q68 0 108 -29t40 -78q0 -35 -18 -55t-50 -20q-12 0 -22 3.5t-24 12.5q-11 8 -21 11.5t-21 3.5q-19 0 -30.5 -13t-11.5 -33q0 -25 20 -38t57 -13h45.5h44.5q26 0 36 -18t5 -55q-4 -33 -18 -49.5t-37 -16.5h-22.5h-23.5q-17 0 -23.5 -7t-6.5 -23v-50.5v-51.5
q0 -78 0.5 -103t1.5 -43q1 -12 6 -19.5t15 -9.5q3 -1 6.5 -1.5t10.5 -2.5q10 -2 16 -3.5t12 -3.5q19 -5 28.5 -16.5t9.5 -30.5q0 -22 -16.5 -37t-44.5 -19q-25 -3 -61.5 -4.5t-77.5 -1.5zM1057 -10q-44 0 -73.5 1t-47.5 3q-23 3 -34.5 15.5t-11.5 32.5q0 17 8.5 28.5
t24.5 16.5q14 5 17.5 6t6.5 3q8 4 12 12t4 21v124v124v81.5t-1 110.5v36.5v15.5q-1 14 -4.5 23t-11.5 13q-3 2 -6.5 3.5t-12.5 3.5q-16 5 -24 15.5t-8 26.5q0 19 10.5 33t31.5 23q31 12 62 20t61 11q18 2 32.5 0.5t26.5 -7.5q18 -8 27.5 -28.5t9.5 -51.5v-68t-1 -115
q-1 -71 -1 -103.5v-57.5v-114.5v-115.5q0 -13 3.5 -22t10.5 -13q6 -3 12 -5.5t12 -4.5q16 -5 23.5 -15.5t7.5 -27.5q0 -20 -12.5 -33t-34.5 -16q-23 -3 -50 -4t-69 -1z" />
    <glyph glyph-name="f_b" unicode="fb" horiz-adv-x="1125" 
d="M198 -12q-42 0 -70.5 1t-41.5 3q-27 3 -41 16t-14 34q0 15 8 26t25 19q2 1 4.5 2t6.5 2q5 2 8 3t5 2q8 4 11.5 11.5t4.5 22.5q1 14 1 39v95v64v64q0 12 -5.5 17.5t-18.5 5.5h-10.5h-10.5q-25 0 -38 18t-11 50q2 31 15.5 47t41.5 19q9 1 15 2.5t11 3.5q6 3 8.5 7.5
t2.5 11.5q0 5 -1 10.5t-3 15.5q-4 16 -5.5 27t-1.5 23q0 72 49 116t131 44q70 0 110 -29.5t40 -79.5q0 -36 -18.5 -58t-50.5 -22q-14 0 -24.5 3.5t-22.5 13.5q-15 12 -24 15.5t-20 3.5q-19 0 -31 -13t-12 -34q0 -28 17.5 -42t53.5 -14h44h44q26 0 36 -18t5 -55
q-4 -33 -18 -49.5t-37 -16.5h-22.5h-23.5q-17 0 -23.5 -7t-6.5 -23v-56v-56q0 -51 0.5 -83.5t2.5 -52.5q1 -12 6 -19t15 -10q12 -3 29.5 -6.5t21.5 -4.5q19 -4 28.5 -16t9.5 -31q0 -23 -16 -37.5t-46 -18.5q-23 -3 -56.5 -4.5t-86.5 -1.5zM1098 280q0 -143 -58.5 -219.5
t-166.5 -76.5q-47 0 -87.5 19t-70.5 55q-2 3 -5 4.5t-7 1.5t-8 -2.5t-9 -7.5q-14 -16 -22 -24t-15 -14q-18 -16 -34.5 -23t-34.5 -7q-25 0 -40 14.5t-15 38.5v13t1 23q1 26 1.5 43t0.5 35v95.5v94.5v135.5v135.5q0 13 -4.5 23t-12.5 15q-7 4 -12 6t-11 3q-16 3 -24 13.5
t-8 28.5q0 19 11 33t34 25q26 12 59.5 20.5t67.5 12.5q22 2 36 -1t26 -11q13 -9 21.5 -28t8.5 -38v-72v-72v-49.5v-49.5q0 -6 2 -8.5t6 -2.5q3 0 5 1.5t4 5.5q28 46 68 70t91 24q94 0 148 -76t54 -207zM720 188q0 -39 22 -61.5t59 -22.5q48 0 74 37t26 104q0 83 -27.5 128.5
t-76.5 45.5q-36 0 -56.5 -23.5t-20.5 -66.5v-70.5v-70.5z" />
    <glyph glyph-name="f_h" unicode="fh" horiz-adv-x="1169" 
d="M618 -10q-43 0 -67 1t-42 3q-23 3 -35 15.5t-12 32.5q0 17 8.5 28.5t25.5 16.5q10 3 14.5 5t8.5 4q8 4 12 12t4 21q1 18 1 63v166v192t-1 68q0 17 -4.5 26t-14.5 13l-9.5 3t-15.5 4q-15 3 -23 14t-8 28q0 19 10.5 33t31.5 23q33 13 66 20.5t64 10.5q19 2 33.5 0.5
t26.5 -7.5q18 -8 27 -27t9 -50v-38.5t-1 -88.5v-78.5v-31.5q0 -6 1.5 -9t5.5 -3q2 0 5.5 2.5t10.5 11.5q33 48 74 69t96 21q78 0 120.5 -48t45.5 -138q1 -19 1 -41.5v-71.5q-1 -34 -1 -68t1 -63q0 -16 2.5 -24t8.5 -11q4 -3 8.5 -5t10.5 -5q17 -6 24.5 -17t7.5 -27
q0 -18 -9.5 -30.5t-26.5 -16.5q-20 -4 -51 -6t-80 -2q-43 0 -70 1.5t-44 5.5q-18 4 -27.5 16t-9.5 30q0 16 8 27.5t22 15.5q7 4 11.5 7t6.5 4q8 3 11 10.5t3 22.5q1 16 1 40.5v81.5q0 59 -6 90.5t-19 48.5q-12 15 -27 22t-36 7q-20 0 -35 -7.5t-26 -23.5q-9 -15 -13.5 -47
t-4.5 -85v-90t1 -39q0 -12 3.5 -20t9.5 -12q3 -3 7 -5.5t10 -4.5q14 -4 21 -14t7 -26q0 -20 -10.5 -32t-31.5 -16q-33 -5 -61 -6.5t-65 -1.5zM198 -12q-42 0 -70.5 1t-41.5 3q-27 3 -41 16t-14 34q0 15 8 26t25 19q2 1 4.5 2t6.5 2q5 2 8 3t5 2q8 4 11.5 11.5t4.5 22.5
q1 14 1 39v95v64v64q0 12 -5.5 17.5t-18.5 5.5h-10.5h-10.5q-25 0 -38 18t-11 50q2 31 15.5 47t41.5 19q9 1 15 2.5t11 3.5q6 3 8.5 7.5t2.5 11.5q0 5 -1 10.5t-3 15.5q-4 16 -5.5 27t-1.5 23q0 72 49 116t131 44q70 0 110 -29.5t40 -79.5q0 -36 -18.5 -58t-50.5 -22
q-14 0 -24.5 3.5t-22.5 13.5q-15 12 -24 15.5t-20 3.5q-19 0 -31 -13t-12 -34q0 -28 17.5 -42t53.5 -14h44h44q26 0 36 -18t5 -55q-4 -33 -18 -49.5t-37 -16.5h-22.5h-23.5q-17 0 -23.5 -7t-6.5 -23v-56v-56q0 -51 0.5 -83.5t2.5 -52.5q1 -12 6 -19t15 -10q12 -3 29.5 -6.5
t21.5 -4.5q19 -4 28.5 -16t9.5 -31q0 -23 -16 -37.5t-46 -18.5q-23 -3 -56.5 -4.5t-86.5 -1.5z" />
    <glyph glyph-name="f_hbar" unicode="f&#x127;" horiz-adv-x="1169" 
d="M618 -10q-43 0 -67 1t-42 3q-23 3 -35 15.5t-12 32.5q0 17 8.5 28.5t25.5 16.5q10 3 14.5 5t8.5 4q8 4 12 12t4 21q1 18 1 57.5v151.5v207t-1 74q0 16 -4.5 24.5t-15.5 13.5q-9 3 -14.5 5t-7.5 2q-16 3 -24.5 13.5t-8.5 28.5q0 19 10.5 33t31.5 23q29 10 56 17.5t51 12.5
q20 3 28.5 4t16.5 1q26 0 42.5 -11t23.5 -32q1 -3 2.5 -9.5t4.5 -28.5q2 -8 7 -12t15 -5h22h22q23 0 34 -13t11 -40q0 -26 -10.5 -38.5t-34.5 -13.5h-7t-17 -1h-15h-6q-10 -1 -15 -6t-5 -16v-18.5t-1 -33.5v-30.5v-16.5q0 -6 1.5 -9t5.5 -3q2 0 5.5 2.5t10.5 11.5
q33 48 74 69t96 21q78 0 120.5 -48t45.5 -138q1 -19 1 -41.5v-71.5q-1 -34 -1 -68t1 -63q0 -16 2.5 -24t8.5 -11q4 -3 8.5 -5t10.5 -5q17 -6 24.5 -17t7.5 -27q0 -18 -9.5 -30.5t-26.5 -16.5q-20 -4 -51 -6t-80 -2q-43 0 -70 1.5t-44 5.5q-18 4 -27.5 16t-9.5 30
q0 16 8 27.5t22 15.5q7 4 11.5 7t6.5 4q8 3 11 10.5t3 22.5q1 18 1 43v79q0 59 -6 90.5t-19 48.5q-12 15 -27 22t-36 7q-20 0 -35 -7.5t-26 -23.5q-9 -15 -13.5 -47t-4.5 -85v-87.5t1 -41.5q0 -12 3.5 -20t9.5 -12q3 -3 7 -5.5t10 -4.5q14 -4 21 -14t7 -26q0 -20 -10.5 -32
t-31.5 -16q-33 -5 -61 -6.5t-65 -1.5zM198 -12q-42 0 -70.5 1t-41.5 3q-27 3 -41 16t-14 34q0 15 8 26t25 19q2 1 4.5 2t6.5 2q5 2 8 3t5 2q8 4 11.5 11.5t4.5 22.5q1 14 1 39v95v64v64q0 12 -5.5 17.5t-18.5 5.5h-10.5h-10.5q-25 0 -38 18t-11 50q2 31 15.5 47t41.5 19
q9 1 15 2.5t11 3.5q6 3 8.5 7.5t2.5 11.5q0 5 -1 10.5t-3 15.5q-4 16 -5.5 27t-1.5 23q0 72 49 116t131 44q70 0 110 -29.5t40 -79.5q0 -36 -18.5 -58t-50.5 -22q-14 0 -24.5 3.5t-22.5 13.5q-15 12 -24 15.5t-20 3.5q-19 0 -31 -13t-12 -34q0 -28 17.5 -42t53.5 -14h44h44
q26 0 36 -18t5 -55q-4 -33 -18 -49.5t-37 -16.5h-22.5h-23.5q-17 0 -23.5 -7t-6.5 -23v-56v-56q0 -51 0.5 -83.5t2.5 -52.5q1 -12 6 -19t15 -10q12 -3 29.5 -6.5t21.5 -4.5q19 -4 28.5 -16t9.5 -31q0 -23 -16 -37.5t-46 -18.5q-23 -3 -56.5 -4.5t-86.5 -1.5z" />
    <glyph glyph-name="f_iacute" unicode="f&#xed;" horiz-adv-x="816" 
d="M629 -10q-44 0 -79 2t-51 6q-17 3 -26.5 15t-9.5 30q0 16 8.5 27.5t25.5 17.5l6 2t8 3q4 2 5.5 2.5t3.5 1.5q8 4 11.5 12t3.5 22q1 18 1 45v94v71.5t-1 30.5q-1 13 -5.5 20t-13.5 10q-5 2 -9.5 3.5t-16.5 3.5q-16 2 -25 13t-9 27q0 19 14.5 36.5t40.5 31.5q39 19 69 29
t55 12q20 2 34.5 -0.5t26.5 -10.5q17 -8 25 -27t8 -48q0 -28 -0.5 -59.5t-0.5 -84.5q-1 -30 -1 -42v-20v-92.5t1 -39.5q0 -15 3.5 -23.5t10.5 -11.5q5 -3 10.5 -5.5t12.5 -4.5q16 -6 23.5 -17t7.5 -27q0 -18 -9.5 -30.5t-25.5 -16.5q-21 -4 -52.5 -6t-79.5 -2zM198 -12
q-42 0 -70.5 1t-41.5 3q-27 3 -41 16t-14 34q0 15 8 26t25 19q2 1 4.5 2t6.5 2q5 2 8 3t5 2q8 4 11.5 11.5t4.5 22.5q1 14 1 39v95v64v64q0 12 -5.5 17.5t-18.5 5.5h-10.5h-10.5q-25 0 -38 18t-11 50q2 31 15.5 47t41.5 19q9 1 15 2.5t11 3.5q6 3 8.5 7.5t2.5 11.5
q0 5 -1 10.5t-3 15.5q-4 16 -5.5 27t-1.5 23q0 72 49 116t131 44q70 0 110 -29.5t40 -79.5q0 -36 -18.5 -58t-50.5 -22q-14 0 -24.5 3.5t-22.5 13.5q-15 12 -24 15.5t-20 3.5q-19 0 -31 -13t-12 -34q0 -28 17.5 -42t53.5 -14h44h44q26 0 36 -18t5 -55q-4 -33 -18 -49.5
t-37 -16.5h-22.5h-23.5q-17 0 -23.5 -7t-6.5 -23v-56v-56q0 -51 0.5 -83.5t2.5 -52.5q1 -12 6 -19t15 -10q12 -3 29.5 -6.5t21.5 -4.5q19 -4 28.5 -16t9.5 -31q0 -23 -16 -37.5t-46 -18.5q-23 -3 -56.5 -4.5t-86.5 -1.5zM756 705q-51 -32 -131 -72.5t-101 -41.5
q-12 -1 -22 4.5t-17 16.5q-12 19 -9 33.5t20 31.5q61 60 117.5 105.5t77.5 49.5q17 3 32.5 -6t30.5 -31q21 -30 22 -53.5t-20 -36.5z" />
    <glyph glyph-name="f_imacron" unicode="f&#x12b;" horiz-adv-x="816" 
d="M629 -10q-44 0 -79 2t-51 6q-17 3 -26.5 15t-9.5 30q0 16 8.5 27.5t25.5 17.5l6 2t8 3q4 2 5.5 2.5t3.5 1.5q8 4 11.5 12t3.5 22q1 18 1 45v94v71.5t-1 30.5q-1 13 -5.5 20t-13.5 10q-5 2 -9.5 3.5t-16.5 3.5q-16 2 -25 13t-9 27q0 19 14.5 36.5t40.5 31.5q39 19 69 29
t55 12q20 2 34.5 -0.5t26.5 -10.5q17 -8 25 -27t8 -48q0 -28 -0.5 -59.5t-0.5 -84.5q-1 -30 -1 -42v-20v-92.5t1 -39.5q0 -15 3.5 -23.5t10.5 -11.5q5 -3 10.5 -5.5t12.5 -4.5q16 -6 23.5 -17t7.5 -27q0 -18 -9.5 -30.5t-25.5 -16.5q-21 -4 -52.5 -6t-79.5 -2zM198 -12
q-42 0 -70.5 1t-41.5 3q-27 3 -41 16t-14 34q0 15 8 26t25 19q2 1 4.5 2t6.5 2q5 2 8 3t5 2q8 4 11.5 11.5t4.5 22.5q1 14 1 39v95v64v64q0 12 -5.5 17.5t-18.5 5.5h-10.5h-10.5q-25 0 -38 18t-11 50q2 31 15.5 47t41.5 19q9 1 15 2.5t11 3.5q6 3 8.5 7.5t2.5 11.5
q0 5 -1 10.5t-3 15.5q-4 16 -5.5 27t-1.5 23q0 72 49 116t131 44q70 0 110 -29.5t40 -79.5q0 -36 -18.5 -58t-50.5 -22q-14 0 -24.5 3.5t-22.5 13.5q-15 12 -24 15.5t-20 3.5q-19 0 -31 -13t-12 -34q0 -28 17.5 -42t53.5 -14h44h44q26 0 36 -18t5 -55q-4 -33 -18 -49.5
t-37 -16.5h-22.5h-23.5q-17 0 -23.5 -7t-6.5 -23v-56v-56q0 -51 0.5 -83.5t2.5 -52.5q1 -12 6 -19t15 -10q12 -3 29.5 -6.5t21.5 -4.5q19 -4 28.5 -16t9.5 -31q0 -23 -16 -37.5t-46 -18.5q-23 -3 -56.5 -4.5t-86.5 -1.5zM746 618q-26 -2 -59 -3t-80 -1q-51 0 -73 0.5
t-38 1.5q-23 1 -33.5 15.5t-10.5 44.5q0 29 12 44t35 16q27 2 61 3t82 1q26 0 52.5 -1t50.5 -2t35 -14.5t11 -42.5q0 -30 -11 -45.5t-34 -16.5z" />
    <glyph glyph-name="f_j" unicode="fj" horiz-adv-x="789" 
d="M535 103v111.5v110.5q0 31 -4.5 48.5t-13.5 23.5q-6 3 -11 4.5t-12 2.5q-18 4 -27.5 14.5t-9.5 26.5t7 28t22 22q17 11 35.5 21t50.5 23q19 8 41 13t41 5q41 0 59 -21t18 -69v-75.5t-1 -103.5q-1 -62 -1 -95.5v-66.5q0 -36 2 -68.5t8 -79.5q4 -34 5.5 -51t1.5 -34
q0 -80 -60 -128t-160 -48q-81 0 -124 26.5t-43 77.5q0 37 26.5 64t65.5 27q24 0 41 -6.5t35 -27.5q11 -13 18.5 -17t16.5 -4q14 0 22 8.5t8 22.5q0 11 -3 21t-15 29q-23 40 -31 77.5t-8 87.5zM732 717q0 -49 -51 -85t-117 -36q-41 0 -65.5 21t-24.5 55q0 49 50 86.5
t111 38.5q48 0 72.5 -20t24.5 -60zM198 -12q-42 0 -70.5 1t-41.5 3q-27 3 -41 16t-14 34q0 15 8 26t25 19q2 1 4.5 2t6.5 2q5 2 8 3t5 2q8 4 11.5 11.5t4.5 22.5q1 14 1 39v95v64v64q0 12 -5.5 17.5t-18.5 5.5h-10.5h-10.5q-25 0 -38 18t-11 50q2 31 15.5 47t41.5 19
q9 1 15 2.5t11 3.5q6 3 8.5 7.5t2.5 11.5q0 5 -1 10.5t-3 15.5q-4 16 -5.5 27t-1.5 23q0 72 49 116t131 44q70 0 110 -29.5t40 -79.5q0 -36 -18.5 -58t-50.5 -22q-14 0 -24.5 3.5t-22.5 13.5q-15 12 -24 15.5t-20 3.5q-19 0 -31 -13t-12 -34q0 -28 17.5 -42t53.5 -14h44h44
q26 0 36 -18t5 -55q-4 -33 -18 -49.5t-37 -16.5h-22.5h-23.5q-17 0 -23.5 -7t-6.5 -23v-56v-56q0 -51 0.5 -83.5t2.5 -52.5q1 -12 6 -19t15 -10q12 -3 29.5 -6.5t21.5 -4.5q19 -4 28.5 -16t9.5 -31q0 -23 -16 -37.5t-46 -18.5q-23 -3 -56.5 -4.5t-86.5 -1.5z" />
    <glyph glyph-name="f_k" unicode="fk" horiz-adv-x="1188" 
d="M630 -10q-45 0 -74.5 1t-47.5 3q-23 3 -34.5 15.5t-11.5 32.5q0 17 8.5 28.5t24.5 16.5q14 4 19 5.5t9 3.5q6 3 8.5 10t3.5 19v23v48q1 65 1 104.5v76.5v75t-1 110v40.5v15.5q-1 17 -5 26t-14 13q-2 0 -4 1t-6 2q-6 2 -9 2.5t-6 1.5q-15 3 -23.5 14t-8.5 28q0 19 10.5 33
t31.5 23q34 13 67 20.5t64 10.5q18 2 32.5 0.5t26.5 -7.5q19 -8 28 -27t9 -50v-76t-1 -133q-1 -80 -1 -115v-60q0 -10 3.5 -14t13.5 -4q4 0 9.5 2t10.5 6q12 8 25.5 19t35.5 30q11 10 21.5 21t20.5 23q4 5 6 10t2 11q0 7 -3 12t-10 8q-4 2 -15 4.5t-12 2.5q-15 3 -22.5 13
t-7.5 28q0 26 18.5 40t57.5 18q24 2 51 2.5t60 0.5q37 0 65 -1t46 -3q25 -3 37 -14.5t12 -32.5q0 -14 -6 -23t-18 -12q-3 -3 -11 -7.5t-9 -4.5q-7 -2 -13.5 -5.5t-13.5 -9.5q-2 -2 -21.5 -17.5t-31.5 -25.5q-11 -8 -23 -17.5t-35 -29.5q-11 -9 -14.5 -15.5t-3.5 -14.5
q0 -7 6 -18t18 -26q45 -63 67 -94.5t42 -58.5q6 -7 10.5 -10.5t10.5 -5.5q2 -1 4 -2.5t6 -3.5q7 -4 11 -6t7 -4q17 -5 26 -17t9 -30q0 -21 -13.5 -35t-38.5 -18q-25 -3 -54.5 -4.5t-79.5 -1.5q-40 0 -66.5 1.5t-48.5 4.5q-19 3 -29.5 16t-10.5 32q0 15 7 25.5t20 14.5
q2 2 4 3.5t4 3.5q6 4 8 9.5t0 14.5q-13 29 -27 52.5t-31 46.5q-7 8 -12 13t-10 7q-4 2 -8 2t-8 -2q-9 -4 -17 -10t-18 -15q-4 -3 -5.5 -6.5t-2.5 -11.5q-2 -10 -3 -20.5t-1 -38.5q0 -14 2 -22.5t7 -12.5q2 -2 5 -3.5t15 -6.5q14 -5 21.5 -16t7.5 -27q0 -20 -12.5 -33
t-34.5 -16q-17 -3 -37.5 -4t-70.5 -1zM198 -12q-42 0 -70.5 1t-41.5 3q-27 3 -41 16t-14 34q0 15 8 26t25 19q2 1 4.5 2t6.5 2q5 2 8 3t5 2q8 4 11.5 11.5t4.5 22.5q1 14 1 39v95v64v64q0 12 -5.5 17.5t-18.5 5.5h-10.5h-10.5q-25 0 -38 18t-11 50q2 31 15.5 47t41.5 19
q9 1 15 2.5t11 3.5q6 3 8.5 7.5t2.5 11.5q0 5 -1 10.5t-3 15.5q-4 16 -5.5 27t-1.5 23q0 72 49 116t131 44q70 0 110 -29.5t40 -79.5q0 -36 -18.5 -58t-50.5 -22q-14 0 -24.5 3.5t-22.5 13.5q-15 12 -24 15.5t-20 3.5q-19 0 -31 -13t-12 -34q0 -28 17.5 -42t53.5 -14h44h44
q26 0 36 -18t5 -55q-4 -33 -18 -49.5t-37 -16.5h-22.5h-23.5q-17 0 -23.5 -7t-6.5 -23v-56v-56q0 -51 0.5 -83.5t2.5 -52.5q1 -12 6 -19t15 -10q12 -3 29.5 -6.5t21.5 -4.5q19 -4 28.5 -16t9.5 -31q0 -23 -16 -37.5t-46 -18.5q-23 -3 -56.5 -4.5t-86.5 -1.5z" />
    <glyph glyph-name="f_lcaron" unicode="f&#x13e;" horiz-adv-x="827" 
d="M9 0zM196 -12q-40 0 -68.5 1t-41.5 3q-27 3 -41 16t-14 34q0 16 8.5 27t24.5 18q3 1 5.5 2l7.5 3q5 1 7 2l4 2q8 3 11.5 11t4.5 23v14v28q1 36 1 58.5v43.5v59.5v58.5q0 12 -5.5 17.5t-18.5 5.5h-10.5h-10.5q-25 0 -38 18t-11 50q2 31 15.5 47t41.5 19q9 1 15 2.5t11 3.5
q6 3 8.5 6.5t2.5 10.5q0 4 -0.5 8.5t-2.5 13.5q-4 17 -5.5 28.5t-1.5 24.5q0 66 47.5 108.5t125.5 42.5q66 0 104.5 -28.5t38.5 -77.5q0 -34 -17 -54.5t-47 -20.5q-12 0 -22 3.5t-23 12.5q-11 8 -20 11t-21 3q-18 0 -30 -12.5t-12 -31.5q0 -25 17.5 -37t53.5 -12h45.5h44.5
q26 0 36 -18t5 -55q-4 -33 -18 -49.5t-37 -16.5h-22.5h-23.5q-17 0 -23.5 -7t-6.5 -23v-50.5v-51.5q0 -31 0.5 -58.5t2.5 -87.5q1 -12 6.5 -19t14.5 -10q6 -2 17 -4.5t28 -6.5q18 -4 27.5 -16t9.5 -31q0 -22 -16.5 -37t-44.5 -19q-22 -3 -54.5 -4.5t-84.5 -1.5zM613 -10
q-45 0 -74.5 1t-46.5 3q-23 3 -35 15.5t-12 32.5q0 17 8.5 28.5t25.5 16.5q10 3 14.5 5t8.5 4q7 3 10.5 11t4.5 22v22.5v47.5q1 64 1 103v75v75t-1 111v41v17q-1 14 -4 21.5t-10 11.5l-8 4t-13 6q-17 7 -24.5 17t-7.5 25q0 20 10.5 33.5t32.5 22.5q30 13 61 20.5t61 10.5
q18 2 32.5 0.5t26.5 -7.5q18 -8 27.5 -28.5t9.5 -51.5v-67t-1 -116q-1 -71 -1 -104v-57v-170t1 -60q0 -14 3 -22.5t10 -12.5q7 -3 12.5 -5.5t12.5 -4.5q15 -5 22.5 -15.5t7.5 -27.5q0 -20 -12.5 -33t-34.5 -16q-23 -3 -50 -4t-68 -1zM839 806q42 0 63.5 -17t21.5 -51
q0 -30 -10.5 -65.5t-29.5 -69.5q-28 -50 -50 -72t-42 -22q-21 0 -32 14t-1 31q16 29 20.5 59.5t-5.5 83.5q-6 36 -5 52t9 29t24 20.5t37 7.5z" />
    <glyph glyph-name=".notdef" horiz-adv-x="780" 
d="M240 426q-1 -14 -11 -21.5t-29 -7.5q-21 0 -33 12.5t-12 34.5q0 26 19.5 44t50.5 18q27 0 44 -10.5t17 -26.5q0 -8 -6.5 -13t-16.5 -5q-6 0 -9 -1t-7 -4q-3 -2 -4.5 -7t-2.5 -13zM100 176q-9 -10 -15 -13t-14 -3q-11 0 -17.5 8t-6.5 22t8.5 31t22.5 32q16 18 37 29.5
t37 11.5q14 0 22 -6.5t8 -18.5q0 -8 -3.5 -13.5t-14.5 -13.5q-8 -6 -10.5 -9.5t-2.5 -7.5q0 -3 1 -5t3 -3q26 -18 89 -32.5t131 -14.5q61 0 118.5 18.5t122.5 61.5q8 6 12 11t4 10q0 3 -2 5t-9 6q-11 6 -15 11.5t-4 12.5q0 13 10.5 21t26.5 8q14 0 30 -5.5t33 -16.5
q15 -10 23.5 -23.5t8.5 -26.5q0 -12 -7.5 -19.5t-20.5 -7.5q-6 0 -10.5 1t-10.5 3q-4 2 -6.5 2.5t-5.5 0.5q-6 0 -12.5 -3.5t-21.5 -16.5q-11 -11 -26.5 -22.5t-40.5 -27.5q-10 -6 -12.5 -8.5t-5.5 -6.5q-32 -41 -77.5 -66.5t-91.5 -25.5q-52 0 -95 17.5t-72 50.5
q-3 4 -7.5 7.5t-12.5 8.5q-2 1 -28 15t-37 19q-3 2 -6 2.5t-9 0.5q-4 0 -8 -2t-10 -9zM560 456q0 -15 -11 -24t-30 -9q-20 0 -32 13.5t-12 33.5q0 27 19.5 45t49.5 18q26 0 43.5 -10t17.5 -24q0 -10 -6 -15.5t-18 -5.5q-5 0 -8 -1t-6 -3q-3 -3 -5 -7.5t-2 -10.5zM494 575
q-11 -6 -16 -8t-10 -2q-10 0 -15 6.5t-5 18.5q0 25 26.5 42.5t59.5 17.5q34 0 55.5 -12.5t21.5 -31.5q0 -11 -4.5 -16t-15.5 -5q-4 0 -9 0.5t-16 2.5t-16 2.5t-10 0.5q-10 0 -20 -3t-26 -13zM174 557q-10 -6 -14.5 -8t-8.5 -2q-10 0 -15.5 7t-5.5 19q0 24 27 42t59 18
q33 0 55 -13.5t22 -32.5q0 -11 -4 -16t-14 -5q-5 0 -10.5 0.5t-16.5 3.5q-12 2 -17.5 2.5t-10.5 0.5q-10 0 -20 -3t-26 -13zM421 330q4 -10 5.5 -15t1.5 -9q0 -13 -9 -21.5t-23 -8.5q-24 0 -37.5 27t-13.5 65q0 41 11 61.5t32 20.5q11 0 17 -6t6 -17v-7t-1 -12
q-1 -12 -1 -18.5v-12.5q0 -11 2.5 -21t9.5 -26z" />
    <glyph glyph-name=".null" horiz-adv-x="0" 
 />
    <glyph glyph-name="nonmarkingreturn" horiz-adv-x="333" 
 />
    <glyph glyph-name="uni000A" unicode="&#xa;" horiz-adv-x="0" 
 />
    <glyph glyph-name="space" unicode=" " horiz-adv-x="221" 
 />
    <glyph glyph-name="exclam" unicode="!" horiz-adv-x="353" 
d="M208 294q-6 -11 -12.5 -15.5t-15.5 -4.5q-8 0 -15.5 5t-12.5 15q-29 55 -59.5 168t-30.5 180q-1 61 35 94t104 33q52 0 78 -27t25 -80q-2 -85 -33 -198t-63 -170zM308 114q0 -56 -42.5 -95.5t-102.5 -39.5q-53 0 -84.5 27.5t-30.5 73.5q1 55 44 95.5t101 41.5
q50 1 82.5 -28t32.5 -75z" />
    <glyph glyph-name="quotedbl" unicode="&#x22;" horiz-adv-x="527" 
d="M32 428zM178 475q-16 -27 -35 -36.5t-52 -10.5q-29 0 -44 12t-13 34q3 27 18 85t37 130q9 31 34 44.5t70 13.5q42 0 62 -12t17 -36q-3 -27 -35 -102t-59 -122zM410 475q-16 -27 -35 -36.5t-52 -10.5q-29 0 -44 12t-13 34q3 27 18 85t37 130q9 31 34 44.5t70 13.5
q42 0 62 -12t17 -36q-3 -27 -35 -102t-59 -122z" />
    <glyph glyph-name="numbersign" unicode="#" horiz-adv-x="648" 
d="M213 82q-6 -29 -22.5 -39t-54.5 -10q-32 0 -43.5 10.5t-7.5 37.5q1 8 3.5 17.5t4.5 17.5q3 13 4.5 21.5t2.5 16.5q1 3 -1 4.5t-7 1.5h-14h-14q-33 0 -42.5 14t-2.5 52q7 37 19.5 49.5t42.5 12.5h18h18q6 1 9 3.5t4 8.5q4 15 11 45t8 37q0 5 -1.5 7.5t-5.5 3.5t-9.5 1
h-18.5q-37 0 -48.5 14.5t-4.5 50.5q8 38 20.5 51t41.5 13q3 0 22.5 -0.5t29.5 0.5q6 1 9 3t4 6q2 6 3.5 12t3.5 16q1 3 1.5 6t2.5 10l1.5 9t1.5 6q10 38 26 50t56 12q33 0 45 -13.5t6 -46.5q-1 -3 -1.5 -6l-1.5 -9q-2 -6 -2.5 -9t-1.5 -6q0 -2 -0.5 -4.5t-2.5 -6.5
q-1 -7 -2 -10.5t-1 -6.5q0 -5 2.5 -7.5t8.5 -2.5q14 -1 33 -1t30 1q6 0 9.5 2t4.5 6q2 5 3 9.5t6 23.5q2 14 3.5 21t3.5 13q7 31 24 42t57 11q37 0 48 -12t3 -45q-4 -15 -5.5 -22.5t-2.5 -13.5q-2 -5 -3.5 -11t-3.5 -17q-1 -5 1 -7t6 -2h6.5h11.5q8 1 12 1h7q26 0 36 -16
t5 -50q-6 -34 -19.5 -48t-38.5 -14h-28t-16 -1q-6 -1 -9.5 -4t-4.5 -8q-5 -13 -11 -41t-7 -39q-1 -7 2 -10.5t8 -3.5q4 -1 11 -1h26q33 0 43 -14t4 -51q-5 -35 -18.5 -49t-40.5 -14q-22 1 -36 1t-25 -1q-7 -1 -11 -4t-6 -9q-2 -12 -4 -20.5t-3 -12.5q-1 -5 -2.5 -11.5
t-3.5 -20.5q-4 -29 -20 -39t-59 -10q-31 0 -43 11.5t-7 36.5q1 4 1.5 8t2.5 12q1 6 2 9t1 6t1 6t2 8q1 8 2 11.5t1 6.5q1 4 -1 6t-7 3q-14 2 -39 2t-35 -2q-5 0 -8 -2t-4 -7q-3 -7 -5 -19l-2 -12q-1 -3 -1.5 -6.5t-2.5 -10.5q-2 -8 -2.5 -11.5t-1.5 -6.5zM267 302
q-1 -5 2.5 -8t9.5 -4q14 -1 31.5 -1t31.5 1q6 1 9.5 3.5t4.5 8.5q4 10 8 30t7 46q1 6 -2 10t-8 5q-12 2 -31.5 2t-31.5 -1q-5 -1 -8 -3.5t-5 -7.5q-5 -15 -11.5 -42.5t-6.5 -38.5z" />
    <glyph glyph-name="dollar" unicode="$" horiz-adv-x="602" 
d="M376 -51q0 -25 -15 -37t-45 -12q-29 0 -43.5 12t-15.5 37v18t-1 28v26.5v15.5t-2 11t-10 8q-2 1 -10 3.5t-14 5.5q-11 4 -16.5 5t-9.5 1q-8 0 -14.5 -4t-11.5 -12q-6 -12 -17 -18t-27 -6q-17 0 -28.5 7t-18.5 21q-5 12 -9.5 26.5t-16.5 57.5q-5 18 -8 38.5t-5 44.5
q-2 32 11.5 50.5t37.5 18.5q15 0 27 -6.5t22 -19.5q28 -32 39.5 -44.5t22.5 -22.5q27 -24 56 -36t58 -12q31 0 48.5 15.5t17.5 43.5q0 29 -25 47.5t-94 38.5l-43 12q-89 25 -129 69.5t-40 115.5q0 80 51 131.5t135 58.5q10 1 13.5 4t3.5 11v36.5v36.5q0 25 14.5 37t44.5 12
t44.5 -11.5t15.5 -37.5v-17.5t1 -27.5v-26.5v-16.5q0 -9 3 -13.5t9 -5.5q5 -2 8.5 -2.5t6.5 -1.5q5 -1 10.5 -1t9.5 1q5 1 9 4t10 10q9 10 17.5 14t18.5 4q20 0 33.5 -12.5t22.5 -39.5q6 -24 9 -38t5 -25t3.5 -25t3.5 -40q1 -29 -10.5 -44.5t-34.5 -15.5q-15 0 -27.5 7
t-25.5 22q-22 24 -36 38t-27 25q-24 18 -45 26t-45 8q-31 0 -49.5 -15.5t-18.5 -40.5q0 -26 24 -44t78 -32l35 -9q107 -28 154.5 -75.5t47.5 -121.5q0 -81 -48 -135.5t-130 -66.5q-7 -1 -10.5 -5t-4.5 -11q-1 -16 -0.5 -42.5t0.5 -33.5z" />
    <glyph glyph-name="percent" unicode="%" horiz-adv-x="736" 
d="M171 26q-20 -25 -34.5 -27.5t-38.5 16.5q-27 21 -28.5 36t18.5 41q130 167 169 216t74 92q21 26 46 57t74 93q49 60 72.5 89.5t43.5 53.5q20 25 35 27t38 -15q27 -20 29 -36t-18 -42q-13 -16 -28 -35.5t-46 -59.5q-65 -82 -97.5 -123.5t-61.5 -77.5q-26 -32 -87.5 -108.5
t-159.5 -196.5zM332 560q0 -82 -42.5 -129.5t-116.5 -47.5q-68 0 -111.5 48.5t-43.5 119.5q0 78 45 128.5t115 50.5q71 0 112.5 -45.5t41.5 -124.5zM176 465q24 0 37.5 26t13.5 74v2q0 40 -12.5 61.5t-35.5 21.5q-24 0 -38 -25.5t-14 -72.5v-3q0 -42 12 -63t37 -21zM718 168
q0 -82 -42.5 -130t-115.5 -48q-69 0 -112 47.5t-43 121.5q0 76 46 127.5t114 51.5q70 0 111.5 -46t41.5 -124zM563 70q24 0 38 26.5t14 73.5v2q0 40 -13 62t-36 22q-24 0 -38 -26t-14 -72v-3q0 -43 12 -64t37 -21z" />
    <glyph glyph-name="ampersand" unicode="&#x26;" horiz-adv-x="873" 
d="M447 82q-46 -53 -99 -79.5t-113 -26.5q-97 0 -153 50t-56 133q0 71 45 130t136 106q7 3 7.5 8.5t-5.5 15.5q-19 35 -28 66t-9 65q0 84 64.5 141.5t162.5 57.5q88 0 139 -45t51 -119q0 -50 -29 -90t-100 -83q-13 -8 -13 -16t11 -22q17 -22 26.5 -32t17.5 -17q2 -1 5 -0.5
t5 2.5q15 19 29.5 39t30.5 43q46 64 88 94t87 30q49 0 75 -28t26 -81q0 -52 -30 -95.5t-70 -43.5q-14 0 -24 5t-23 21q-10 13 -16.5 16.5t-14.5 3.5q-13 0 -23 -7t-27 -28q-6 -8 -13.5 -19.5t-16.5 -27.5q-4 -7 -4 -12.5t3 -11.5q11 -13 24 -25.5t30 -25.5q23 -18 45 -26.5
t44 -8.5q17 0 29.5 7.5t25.5 26.5q8 12 15.5 16.5t15.5 4.5q13 0 21 -9t7 -23q-1 -28 -17 -65t-41 -64q-26 -28 -58.5 -42.5t-69.5 -14.5q-49 0 -90 22.5t-92 79.5q-10 11 -17 11.5t-14 -7.5zM220 216q0 -32 21.5 -53t55.5 -21q19 0 35.5 8t33.5 27q3 3 4 8t-2 10
q-7 11 -15.5 23t-19.5 26q-27 34 -33.5 41.5t-12.5 12.5q-3 3 -7 2.5t-10 -4.5q-26 -14 -38 -33.5t-12 -46.5zM367 502q7 -10 13.5 -12t17.5 3q34 18 49.5 37t15.5 44q0 24 -14 38.5t-38 14.5q-28 0 -45 -17t-17 -44q0 -19 4.5 -34.5t13.5 -29.5z" />
    <glyph glyph-name="quotesingle" unicode="'" horiz-adv-x="295" 
d="M173 475q-16 -27 -35 -36.5t-52 -10.5q-29 0 -44 12t-13 34q3 27 18 85t37 130q9 31 34 44.5t70 13.5q42 0 62 -12t17 -36q-3 -27 -35 -102t-59 -122z" />
    <glyph glyph-name="parenleft" unicode="(" horiz-adv-x="493" 
d="M483 -243q0 -20 -17.5 -36t-38.5 -16q-18 0 -37 7t-69 37q-125 75 -193 203.5t-68 291.5q0 149 70 276t200 217q41 28 60 35.5t38 7.5q21 0 35.5 -14t14.5 -35q0 -33 -33 -58.5t-42 -34.5q-66 -65 -97 -159.5t-31 -228.5q0 -137 32.5 -237t97.5 -166q11 -11 44.5 -34.5
t33.5 -55.5z" />
    <glyph glyph-name="parenright" unicode=")" horiz-adv-x="493" 
d="M10 728q0 20 17.5 36t38.5 16q18 0 37 -7t69 -37q125 -75 193 -203.5t68 -291.5q0 -149 -70 -276t-200 -217q-41 -28 -60 -35.5t-38 -7.5q-21 0 -35.5 14t-14.5 35q0 33 33 58.5t42 34.5q66 65 97 159.5t31 228.5q0 137 -32.5 237t-97.5 166q-11 11 -44.5 34.5
t-33.5 55.5z" />
    <glyph glyph-name="asterisk" unicode="*" horiz-adv-x="461" 
d="M292 329q0 -27 -16 -42t-45 -15q-30 0 -46 15t-16 42q0 14 5.5 32.5t20.5 54.5q9 22 11.5 29.5t2.5 11.5q0 2 -1 3.5t-3 2.5q-5 0 -13.5 -9t-16.5 -23q-23 -34 -44 -50.5t-42 -19.5q-25 -3 -43.5 12.5t-21.5 40.5q-3 19 6.5 33t30.5 23q9 4 35 10.5t69 15.5q7 1 9 2.5
t2 4.5t-2.5 5t-8.5 3q-50 9 -70.5 14.5t-33.5 10.5q-21 8 -30.5 22.5t-6.5 33.5q3 25 21.5 40.5t43.5 11.5q23 -3 45.5 -21t41.5 -48q8 -14 16.5 -23.5t12.5 -8.5q2 0 3 2t1 4q0 4 -2.5 11t-10.5 26q-16 37 -21.5 56.5t-5.5 33.5q0 27 16 42t46 15q29 0 45 -15t16 -42
q0 -14 -5.5 -33.5t-21.5 -56.5q-8 -19 -10.5 -26t-2.5 -11q0 -2 1 -4t3 -2q4 0 10.5 7.5t18.5 24.5q25 34 46 50t42 19q24 4 43 -11.5t22 -40.5q3 -19 -7 -33t-31 -23q-12 -5 -30 -10t-74 -15q-7 -2 -8.5 -3.5t-1.5 -4.5t2 -4.5t8 -2.5q43 -9 69 -15.5t35 -10.5
q21 -9 30.5 -23t6.5 -33q-3 -25 -21.5 -40.5t-43.5 -12.5q-23 4 -45 22t-41 48q-8 13 -16.5 22.5t-12.5 9.5q-2 0 -3 -2t-1 -4q0 -4 2.5 -11.5t10.5 -27.5q16 -37 21 -56t5 -33z" />
    <glyph glyph-name="plus" unicode="+" horiz-adv-x="523" 
d="M324 211q-3 -42 -16 -58t-50 -16q-33 0 -45.5 15t-15.5 54q0 5 -0.5 11t-0.5 19q0 12 -0.5 18.5t-0.5 12.5q0 12 -6 18.5t-18 6.5q-4 0 -29.5 1t-39.5 2q-35 3 -48.5 16t-13.5 47q0 35 14.5 48t52.5 15q19 1 34.5 1.5t30.5 0.5q14 1 19 6t5 19q0 6 0.5 12t0.5 18
q0 13 0.5 19t0.5 11q1 42 15.5 57t52.5 15q33 0 45.5 -15t13.5 -54q1 -18 1.5 -33t0.5 -30q1 -12 8 -18t21 -6q19 -1 35 -1.5t30 -1.5q35 -2 48.5 -14.5t13.5 -46.5q0 -36 -14.5 -48.5t-52.5 -15.5q-13 -1 -29 -1.5t-35 -1.5q-13 0 -19 -6t-6 -18q-1 -16 -1.5 -30.5
t-1.5 -27.5z" />
    <glyph glyph-name="comma" unicode="," horiz-adv-x="376" 
d="M325 79q0 -83 -48 -148.5t-139 -106.5q-21 -9 -37.5 -4t-24.5 23q-7 16 -2 29t23 25q44 27 67.5 52t23.5 45q0 7 -2.5 10t-8.5 3q-2 0 -4.5 -0.5l-7.5 -1.5q-8 -1 -12.5 -1.5t-9.5 -0.5q-42 0 -66.5 26.5t-24.5 73.5q0 58 39 94.5t100 36.5q63 0 98.5 -41t35.5 -114z" />
    <glyph glyph-name="hyphen" unicode="-" horiz-adv-x="361" 
d="M191 340q26 0 48 -0.5t40 -2.5q31 -2 46.5 -20t15.5 -52q0 -31 -15.5 -49t-45.5 -22q-15 -2 -43.5 -3.5t-63.5 -1.5q-28 0 -51.5 1t-39.5 2q-31 2 -46.5 20t-15.5 53q0 31 16 48.5t48 21.5q24 3 50 4t57 1z" />
    <glyph glyph-name="period" unicode="." horiz-adv-x="366" 
d="M315 128q0 -61 -43 -103t-104 -42q-53 0 -84.5 29.5t-31.5 79.5q0 58 43.5 101.5t102.5 44.5q51 1 84 -30t33 -80z" />
    <glyph glyph-name="slash" unicode="/" horiz-adv-x="537" 
d="M453 791q59 0 76.5 -30.5t-7.5 -92.5q-10 -24 -24.5 -58t-47.5 -113q-33 -77 -50 -117.5t-32 -75.5q-52 -125 -103 -242.5t-86 -192.5q-16 -32 -42.5 -47t-70.5 -15q-59 0 -76.5 30.5t6.5 91.5q42 99 89.5 211.5t90.5 211.5q42 100 86.5 202t76.5 173q16 34 43 49t71 15z
" />
    <glyph glyph-name="zero" unicode="0" horiz-adv-x="739" 
d="M705 366q0 -179 -91 -282.5t-250 -103.5q-155 0 -242.5 98t-87.5 269q0 173 94.5 281t248.5 108q149 0 238.5 -101.5t89.5 -268.5zM374 121q61 0 91 58.5t30 174.5v16q0 112 -31 170.5t-90 58.5t-92 -59.5t-33 -169.5v-16q0 -117 31 -175t94 -58z" />
    <glyph glyph-name="one" unicode="1" horiz-adv-x="474" 
d="M387 -7q-20 -3 -63 -4.5t-95 -1.5q-46 0 -86 1.5t-57 3.5q-25 3 -38 15.5t-13 32.5t11.5 33t36.5 21q3 1 6.5 2t12.5 2q9 3 14 4t9 2q8 4 12 11t5 17q1 20 1 66v158v75.5v74.5q-1 11 -5 17.5t-12 9.5q-6 2 -14 4t-27 4q-30 5 -42 16.5t-12 30.5q0 17 8.5 30t27.5 24
q9 6 21 12t68 32q39 19 67 28t51 12q40 8 62.5 -8.5t22.5 -49.5q0 -8 -1.5 -17.5t-4.5 -29.5q-4 -21 -5 -31t-1 -19v-24v-54q-1 -57 -1 -86v-51v-108.5v-108.5q1 -12 5 -19.5t13 -10.5q10 -3 19.5 -5.5t21.5 -5.5q23 -6 33.5 -18t10.5 -31q0 -22 -16.5 -37t-45.5 -19z" />
    <glyph glyph-name="two" unicode="2" horiz-adv-x="670" 
d="M130 1q-18 -15 -25 -17t-17 -2q-27 0 -40 27.5t-13 82.5q0 81 39.5 142t125.5 111q26 15 70.5 37.5t58.5 30.5q50 27 71 51t21 52q0 34 -20.5 54t-56.5 20q-24 0 -42 -9t-31 -26q-10 -13 -22.5 -38.5t-13.5 -26.5q-18 -33 -43 -47.5t-62 -14.5q-48 0 -73.5 25t-24.5 70
q1 91 85.5 152.5t220.5 61.5q135 0 208.5 -55t73.5 -155q0 -91 -59 -147.5t-222 -105.5q-64 -21 -90.5 -38.5t-26.5 -37.5q0 -6 4.5 -9.5t11.5 -3.5q5 0 10 1t14 4q16 6 33 8.5t36 2.5q20 0 39.5 -2.5t51.5 -9.5q26 -6 38.5 -8t24.5 -2q34 0 53 17.5t25 55.5q2 17 13.5 27.5
t27.5 10.5q21 0 32 -13.5t11 -39.5q0 -125 -47 -189.5t-137 -64.5q-35 0 -70 5t-93 21q-43 11 -63.5 14.5t-38.5 3.5q-22 0 -38 -6t-30 -20z" />
    <glyph glyph-name="three" unicode="3" horiz-adv-x="683" 
d="M638 215q0 -106 -82 -170.5t-225 -64.5q-135 0 -212.5 52.5t-77.5 134.5q0 46 26 73.5t71 27.5q39 0 64 -20.5t42 -66.5q17 -48 43 -69.5t68 -21.5q39 0 63.5 23t24.5 62t-27 65.5t-96 54.5q-38 15 -53 22.5t-25 15.5q-9 7 -11.5 16t3.5 18q16 24 46 56t81 77
q38 34 43 40t5 11t-18 6.5t-71 1.5q-23 0 -38 -2.5t-27 -8.5q-17 -8 -32.5 -20.5t-37.5 -35.5q-25 -27 -41.5 -34.5t-37.5 -7.5q-32 0 -47.5 18.5t-11.5 51.5q5 32 15.5 69t25.5 70q17 38 38 58t45 20q9 0 18 -1t28 -6q23 -5 37 -6.5t28 -1.5q28 0 53 0.5t66 1.5
q40 0 65 0.5t52 0.5q70 0 99 -14.5t29 -47.5q0 -25 -12 -46t-48 -56q-11 -12 -44.5 -43t-88.5 -81q-10 -10 -8.5 -15.5t16.5 -9.5q90 -27 133.5 -75t43.5 -122z" />
    <glyph glyph-name="four" unicode="4" horiz-adv-x="696" 
d="M421 -13q-53 0 -87 1t-49 3q-25 3 -38 16t-13 33q0 16 8 26.5t23 15.5q9 3 28.5 6t22.5 3q10 2 16 6.5t9 12.5q4 11 6 23.5t2 27.5q0 13 -4.5 19t-15.5 6h-124.5h-124.5q-29 0 -47 17t-18 45q0 16 6 31.5t19 34.5q26 35 65.5 80t110.5 118q60 63 96 99t65 61
q37 36 63.5 51.5t53.5 15.5q28 0 44.5 -13.5t16.5 -35.5q0 -12 -1.5 -23.5t-5.5 -31.5q-5 -21 -6.5 -33t-1.5 -24v-120.5v-121.5q0 -15 4.5 -20.5t16.5 -5.5h37.5h37.5q24 0 31.5 -13.5t1.5 -44.5q-7 -37 -20 -50.5t-39 -13.5h-24.5h-24.5q-11 0 -16 -5.5t-5 -16.5
q0 -12 1 -24t4 -25q1 -8 4.5 -11.5t14.5 -7.5l8 -2l12 -3l9 -1.5t5 -1.5q17 -4 25.5 -15t8.5 -28q0 -23 -13 -36t-41 -18q-17 -3 -53.5 -4.5t-103.5 -1.5zM192 326q-4 -7 0 -12.5t15 -5.5h60.5h60.5q11 0 16.5 5.5t5.5 17.5v65.5v64.5q0 16 -6.5 22t-15.5 -1
q-20 -18 -38.5 -37t-36.5 -41q-23 -25 -37 -43.5t-24 -34.5z" />
    <glyph glyph-name="five" unicode="5" horiz-adv-x="634" 
d="M590 234q0 -110 -82 -182t-215 -72q-122 0 -191 44t-69 118q0 39 24.5 65t63.5 26q34 0 56.5 -16t36.5 -51q16 -40 43.5 -59t68.5 -19q42 0 65.5 22.5t23.5 63.5q0 38 -25 64t-77 40q-35 9 -80 17t-121 18q-40 6 -52.5 18.5t-9.5 46.5q2 19 6.5 43t23.5 107
q10 49 19 84.5t17 63.5q7 25 23 35.5t48 12.5q16 1 51 1.5t127 0.5h113.5t63.5 -1q36 -1 48.5 -10.5t11.5 -34.5q-1 -17 -4.5 -36t-12.5 -49q-10 -31 -26.5 -40t-59.5 -9q-34 0 -72 0.5t-108 3.5q-45 1 -63.5 1.5t-31.5 0.5q-19 0 -28.5 -5t-11.5 -16l-6 -29q-2 -13 3.5 -20
t20.5 -9q93 -10 143.5 -19.5t90.5 -22.5q75 -24 114.5 -74.5t39.5 -122.5z" />
    <glyph glyph-name="six" unicode="6" horiz-adv-x="682" 
d="M649 248q0 -119 -83 -192t-217 -73q-155 0 -235 93t-80 273q0 184 90 284t254 100q112 0 181.5 -46t73.5 -119q2 -36 -18 -58.5t-56 -22.5q-23 0 -40.5 9.5t-31.5 30.5q-25 39 -51 53.5t-64 14.5q-70 0 -107 -49.5t-37 -142.5q0 -15 2.5 -24t7.5 -9q2 0 3 0.5t3 2.5
q34 34 50 45.5t32 20.5q24 11 50 17t54 6q103 0 161 -56.5t58 -157.5zM248 227q0 -54 28.5 -85.5t76.5 -31.5q42 0 67 31.5t25 83.5q0 51 -24 81t-64 30q-48 0 -78.5 -31.5t-30.5 -77.5z" />
    <glyph glyph-name="seven" unicode="7" horiz-adv-x="672" 
d="M392 131q-2 -76 -33.5 -112t-95.5 -36q-57 0 -86 28t-29 83q0 51 23 106.5t67 110.5q38 47 81.5 88.5t105.5 90.5q18 14 24.5 22t6.5 16q0 7 -7.5 11.5t-21.5 4.5h-63.5h-63.5q-27 0 -40.5 -3t-26.5 -11q-24 -16 -40.5 -29t-30.5 -28q-23 -23 -39 -31t-35 -8
q-32 0 -47.5 18t-11.5 52q4 37 23 87.5t48 101.5q14 23 28 34t30 11q9 0 18 -1.5t24 -5.5q19 -5 30.5 -6.5t23.5 -1.5q17 0 41.5 0.5t82.5 0.5q63 1 92.5 1.5t50.5 0.5q70 0 99.5 -14.5t29.5 -48.5q0 -20 -15 -46t-73 -97q-38 -47 -64 -85t-48 -76q-28 -50 -42 -103
t-16 -125z" />
    <glyph glyph-name="eight" unicode="8" horiz-adv-x="681" 
d="M652 223q0 -110 -85 -175t-236 -65q-139 0 -224 46.5t-85 125.5q0 56 35 96t103 62q18 7 20.5 16t-11.5 17q-57 29 -86.5 69.5t-29.5 91.5q0 100 88.5 163.5t220.5 63.5q116 0 185.5 -41.5t69.5 -108.5q0 -47 -30.5 -85t-80.5 -57q-15 -6 -14 -13.5t17 -15.5
q69 -31 106 -80t37 -110zM206 197q0 -48 40 -78.5t105 -30.5q46 0 71 19t25 53q0 24 -18 46.5t-56 44.5q-31 18 -50 25t-35 7q-31 0 -56.5 -25t-25.5 -61zM329 491q20 -10 34.5 -15t25.5 -6q23 -4 45 20t22 59q0 41 -34 66.5t-86 25.5q-38 0 -61 -17t-23 -46q0 -28 18.5 -48
t58.5 -39z" />
    <glyph glyph-name="nine" unicode="9" horiz-adv-x="697" 
d="M664 371q0 -188 -90.5 -288t-260.5 -100q-122 0 -192 42t-75 114q-2 37 19 61t56 24q22 0 38 -9t29 -28q27 -39 56 -52.5t73 -13.5q68 0 104 48.5t36 142.5q0 19 -5.5 26.5t-15.5 2.5q-3 -1 -29.5 -24t-52.5 -36q-23 -12 -48 -17.5t-52 -5.5q-107 0 -166 57t-59 157
q0 117 85 189t226 72q158 0 241 -93t83 -269zM238 493q0 -48 25.5 -77.5t65.5 -29.5q49 0 79.5 29.5t30.5 72.5q0 55 -28 86.5t-75 31.5q-45 0 -71.5 -30.5t-26.5 -82.5z" />
    <glyph glyph-name="colon" unicode=":" horiz-adv-x="366" 
d="M320 123q0 -58 -43 -99t-104 -41q-54 0 -85 28.5t-31 76.5q0 56 43.5 98t102.5 43q51 1 84 -29t33 -77zM320 460q0 -58 -43 -99t-104 -41q-54 0 -85 28.5t-31 76.5q0 56 43.5 98t102.5 43q51 1 84 -29t33 -77z" />
    <glyph glyph-name="semicolon" unicode=";" horiz-adv-x="373" 
d="M324 459q0 -58 -43 -99t-104 -41q-54 0 -85 28.5t-31 76.5q0 57 43.5 99.5t102.5 43.5q51 0 84 -30t33 -78zM330 73q0 -81 -47.5 -144.5t-139.5 -104.5q-21 -9 -37.5 -4t-24.5 22t-3 29.5t24 23.5q45 28 68 52t23 43q0 7 -2.5 10t-8.5 3q-2 0 -4.5 -0.5l-7.5 -1.5
q-8 -2 -12.5 -2.5t-9.5 -0.5q-42 0 -66.5 26t-24.5 72q0 56 39 91.5t100 35.5q63 0 98.5 -39.5t35.5 -110.5z" />
    <glyph glyph-name="less" unicode="&#x3c;" horiz-adv-x="550" 
d="M508 172q-5 -31 -26 -45.5t-51 -8.5q-62 13 -145.5 41.5t-153.5 61.5q-48 23 -70 52t-22 68q0 41 21.5 68.5t70.5 49.5q79 35 161 63t138 40q31 6 50.5 -8t24.5 -46q6 -33 -6 -53t-45 -31q-12 -4 -27.5 -9t-48.5 -15q-59 -19 -89.5 -29t-55.5 -19q-7 -3 -9.5 -5.5
t-2.5 -6.5t2 -6t10 -5q31 -11 67.5 -23.5t152.5 -48.5q33 -11 46 -31.5t8 -53.5z" />
    <glyph glyph-name="equal" unicode="=" horiz-adv-x="512" 
d="M216 146q-60 0 -85.5 1t-44.5 3q-21 2 -31 18.5t-10 48.5q0 30 11 46.5t32 18.5q22 3 51.5 4t100.5 1q36 0 71.5 -1.5t64.5 -3.5q21 -1 31 -17.5t10 -48.5q0 -30 -11 -46.5t-32 -19.5q-24 -2 -63 -3t-95 -1zM216 386q-60 0 -85.5 1t-44.5 3q-21 2 -31 18.5t-10 48.5
q0 30 11 46.5t32 18.5q22 3 51.5 4t100.5 1q36 0 71.5 -1.5t64.5 -3.5q21 -1 31 -17.5t10 -48.5q0 -30 -11 -46.5t-32 -19.5q-24 -2 -63 -3t-95 -1z" />
    <glyph glyph-name="greater" unicode="&#x3e;" horiz-adv-x="550" 
d="M38 172q5 -31 26 -45.5t51 -8.5q62 13 145.5 41.5t153.5 61.5q48 23 70 52t22 68q0 41 -21.5 68.5t-70.5 49.5q-79 35 -161 63t-138 40q-31 6 -50.5 -8t-24.5 -46q-6 -33 6 -53t45 -31q12 -4 27.5 -9t48.5 -15q59 -19 89.5 -29t55.5 -19q7 -3 9.5 -5.5t2.5 -6.5t-2 -6
t-10 -5q-31 -11 -67.5 -23.5t-152.5 -48.5q-33 -11 -46 -31.5t-8 -53.5z" />
    <glyph glyph-name="question" unicode="?" horiz-adv-x="625" 
d="M352 269q0 -15 -11.5 -23t-33.5 -8q-42 0 -77 27.5t-35 68.5q0 45 24.5 83t100.5 93q56 40 73 62.5t17 46.5q0 30 -17.5 47t-48.5 17q-26 0 -48.5 -16.5t-50.5 -59.5q-19 -28 -31 -44t-16 -21q-16 -15 -33.5 -22.5t-39.5 -7.5q-44 0 -69.5 24t-25.5 63q0 82 78.5 137.5
t210.5 55.5q125 0 200 -54.5t75 -146.5q0 -40 -13.5 -72.5t-40.5 -59.5q-18 -18 -44 -34.5t-79 -40.5q-56 -26 -72 -40.5t-16 -31.5q0 -7 2.5 -12t9.5 -12q7 -6 9 -10t2 -9zM449 100q0 -52 -43.5 -86.5t-108.5 -34.5q-58 0 -90.5 25.5t-31.5 69.5q1 51 45.5 87t107.5 36
q54 1 87.5 -25.5t33.5 -71.5z" />
    <glyph glyph-name="at" unicode="@" horiz-adv-x="1068" 
d="M791 -83q-39 -51 -129.5 -83t-201.5 -32q-201 0 -313 106t-112 296q0 118 43 220t124 177q79 74 183.5 113t222.5 39q196 0 310.5 -100.5t114.5 -273.5q0 -165 -82.5 -261.5t-221.5 -96.5q-56 0 -93 20t-51 57q-3 8 -7.5 8.5t-9.5 -6.5q-28 -37 -65.5 -55.5t-82.5 -18.5
q-77 0 -114.5 62t-24.5 166q15 124 78 198.5t152 74.5q35 0 60.5 -16t41.5 -48q1 -3 3.5 -4.5t4.5 -1.5q4 0 6 1.5t6 5.5q23 23 29.5 28.5t12.5 9.5q16 11 30.5 16.5t29.5 5.5q25 0 38.5 -14.5t11.5 -38.5q-1 -20 -8.5 -64t-17.5 -94q-12 -68 -17 -96.5t-8 -45.5
q-3 -23 6 -34t31 -11q62 0 103.5 66.5t41.5 171.5q0 143 -85.5 216t-251.5 73q-86 0 -164.5 -31.5t-138.5 -90.5q-61 -59 -93.5 -137t-32.5 -164q0 -157 88 -242.5t250 -85.5q82 0 151.5 14.5t110.5 40.5q9 5 14 7t11 2q11 0 17.5 -7t6.5 -18q0 -8 -2 -13.5t-6 -10.5z
M448 276q-10 -62 8 -97t58 -35q30 0 47 15.5t22 46.5q1 5 1.5 11t2.5 18q3 16 4 24.5t2 15.5q1 5 2 11.5l3 19.5l3 22.5t2 14.5q4 31 -10.5 48.5t-42.5 17.5q-37 0 -64.5 -35.5t-37.5 -97.5z" />
    <glyph glyph-name="A" unicode="A" horiz-adv-x="858" 
d="M168 -10q-39 0 -63 1t-42 3q-24 3 -36 15t-12 33q0 18 10 31.5t29 21.5q9 4 17 8.5t13 8.5q8 8 15 19t14 29q7 19 16 41t26 66q18 46 27.5 70t17.5 45q23 56 44.5 110t42.5 106q36 88 65.5 111.5t79.5 23.5q51 0 76 -19t56 -89q14 -34 50 -125.5t39 -99.5q8 -20 17.5 -44
t27.5 -70q27 -68 38 -97t19 -49q5 -12 10 -18.5t13 -10.5q6 -3 12.5 -6.5t17.5 -7.5q20 -8 27.5 -19t7.5 -30q0 -23 -14 -36.5t-41 -16.5q-38 -3 -73.5 -4t-75.5 -1q-54 0 -88.5 1t-57.5 4q-20 3 -31 15.5t-11 31.5t10 32t28 17l10 2t15 2q5 1 8 1.5t5 0.5q12 4 17 12t2 19
q-2 12 -6.5 24.5t-18.5 47.5q-5 10 -13 14t-23 4h-46h-46h-44.5h-45.5q-13 0 -20 -4.5t-11 -15.5q-9 -21 -14.5 -37t-9.5 -33q-2 -9 2 -15.5t12 -8.5q4 -1 8.5 -1.5t12.5 -2.5q11 -1 16 -2t9 -2q19 -4 29.5 -17t10.5 -32q0 -21 -12 -34.5t-33 -16.5q-20 -3 -54 -4.5
t-81 -1.5zM320 354q-6 -17 -0.5 -24.5t22.5 -7.5h26h26h28.5h28.5q15 0 19 8.5t-2 24.5q-11 31 -25 66.5t-29 75.5q-3 8 -8 12.5t-12 4.5t-11.5 -4.5t-8.5 -13.5q-13 -31 -26.5 -67.5t-27.5 -74.5z" />
    <glyph glyph-name="B" unicode="B" horiz-adv-x="780" 
d="M180 -8q-25 -1 -37 -1.5t-22 -0.5q-45 0 -69.5 14t-24.5 41q0 16 7 26.5t22 16.5q6 2 12.5 4.5t17.5 5.5q12 5 17.5 14.5t6.5 24.5q1 30 1.5 94t0.5 126v112v112q-1 15 -6 24t-16 13q-2 1 -4.5 1.5l-7.5 1.5q-8 2 -11.5 3t-6.5 2q-17 5 -24.5 16.5t-7.5 29.5q0 28 25 42
t74 14q19 0 38 -0.5t52 -2.5q26 -1 38 -1.5t23 -0.5q7 0 17.5 0.5t37.5 1.5q51 2 81 2.5t57 0.5q120 0 182.5 -42t62.5 -124q0 -57 -34 -100t-93 -62q-5 -2 -7.5 -4.5t-2.5 -6.5t2.5 -7t8.5 -4q81 -18 121.5 -63.5t40.5 -118.5q0 -102 -79.5 -154.5t-233.5 -52.5
q-43 0 -79 1t-78 3q-16 1 -23 1h-12q-12 0 -26 -0.5t-41 -1.5zM351 108h14.5h14.5q76 0 111 26t35 82q0 53 -37.5 79t-113.5 26h-12.5h-12.5q-23 0 -32 -9t-9 -34v-34.5v-35.5v-39t1 -19q1 -22 11 -32t30 -10zM345 418h16h16q61 0 92.5 25t31.5 74q0 50 -30.5 75t-92.5 25
h-14.5h-14.5q-19 0 -28.5 -8.5t-10.5 -27.5q-1 -13 -1.5 -30t-0.5 -38v-26.5v-27.5q0 -25 8 -33t29 -8z" />
    <glyph glyph-name="C" unicode="C" horiz-adv-x="779" 
d="M744 221q-31 -110 -120 -174t-220 -64q-166 0 -267.5 101t-101.5 265q0 170 101 276t255 106q39 0 71.5 -5.5t62.5 -17.5q2 -1 21.5 -9.5t30.5 -8.5q8 0 13.5 4t11.5 17q6 15 18 22t31 7t32 -8.5t18 -24.5q15 -42 20 -62.5t9 -45.5q7 -46 10 -76.5t3 -56.5
q0 -33 -18 -53.5t-47 -20.5q-18 0 -33 9.5t-30 31.5q-34 49 -50.5 69t-33.5 37q-30 29 -63 43t-70 14q-77 0 -122 -50.5t-45 -136.5q0 -105 71 -177.5t174 -72.5q61 0 106.5 25t89.5 84q6 8 14 12.5t17 4.5q18 0 31 -12t13 -30q0 -8 -0.5 -12.5t-2.5 -9.5z" />
    <glyph glyph-name="D" unicode="D" horiz-adv-x="821" 
d="M180 -8l-36 -1.5t-22 -0.5q-45 0 -70 14t-25 41q0 16 7.5 26.5t22.5 16.5q2 1 4 1.5t6 2.5q7 2 11 3.5t8 2.5q12 5 17.5 14t6.5 26q1 29 1.5 93t0.5 126v112v112q-1 15 -6 24t-16 13q-2 1 -4.5 1.5t-6.5 1.5q-8 2 -11.5 3t-6.5 2q-16 3 -24.5 15.5t-8.5 31.5
q0 27 25.5 41t74.5 14q18 0 37 -0.5t50 -2.5l34.5 -1.5t21.5 -0.5q9 0 18.5 0.5t29.5 0.5q33 2 55.5 2.5t47.5 0.5q170 0 267 -94.5t97 -258.5q0 -178 -102.5 -281t-279.5 -103q-24 0 -47.5 0.5t-59.5 2.5q-22 0 -32 0.5t-18 0.5q-12 0 -26 -0.5t-41 -1.5zM312 149
q0 -24 13 -33.5t44 -9.5h18t11 1q85 3 128 57.5t43 159.5q0 125 -53.5 203t-139.5 85h-5h-8q-6 1 -9 1h-6q-18 0 -26.5 -8t-9.5 -28q-1 -13 -1 -51.5v-184.5v-76.5t1 -86.5v-20.5v-8.5z" />
    <glyph glyph-name="E" unicode="E" horiz-adv-x="723" 
d="M248 726q45 -1 66 -1.5t37 -0.5h76.5h76.5q11 0 20.5 2t24.5 9t23.5 9t18.5 2q21 0 36 -10t23 -29q15 -37 25.5 -77.5t13.5 -79.5q3 -33 -12.5 -53.5t-43.5 -20.5q-21 0 -35.5 8.5t-26.5 29.5q-2 3 -19 34t-29 47q-9 12 -22.5 16t-39.5 4q-27 0 -62.5 -0.5t-52.5 -1.5
q-18 -1 -26.5 -9.5t-9.5 -25.5q-1 -22 -1.5 -61t-0.5 -65q0 -24 5 -33.5t17 -10.5q14 -1 36 -0.5t32 3.5q8 3 11.5 10t4.5 18q0 3 0.5 6.5t0.5 11.5q0 7 0.5 10.5t0.5 6.5q3 22 15.5 33.5t34.5 11.5q25 0 37.5 -12.5t16.5 -42.5q3 -17 4 -45t1 -125q0 -50 -13 -73t-40 -23
q-22 0 -34.5 11t-16.5 35q-1 4 -1.5 9t-0.5 14q0 5 -0.5 7.5t-0.5 4.5q-3 17 -7 23t-12 8q-11 4 -36.5 3t-37.5 -5q-9 -3 -12.5 -11.5t-3.5 -25.5v-63.5v-63.5q1 -18 9 -26.5t25 -9.5q14 -1 65 -0.5t66 0.5q24 0 37 4.5t24 16.5q8 11 16.5 23.5t27.5 46.5q15 28 29.5 38.5
t35.5 10.5q28 0 43.5 -20.5t12.5 -54.5q-3 -40 -12.5 -79.5t-24.5 -79.5q-9 -22 -24.5 -32.5t-37.5 -10.5q-11 0 -20.5 2t-25.5 9t-27 9.5t-24 2.5q-32 0 -66.5 -0.5t-96.5 -1.5q-60 -1 -91 -1.5t-59 -0.5h-34.5h-35.5q-45 0 -69.5 14t-24.5 41q0 17 8 28.5t21 15.5
q2 1 13 4t17 6q13 7 18 15.5t6 23.5q1 29 1.5 93t0.5 126v112v112q-1 15 -6 23.5t-16 13.5q-2 1 -9.5 3t-20.5 5q-15 3 -23.5 15t-8.5 31q0 28 25 42t74 14q21 0 46 -0.5z" />
    <glyph glyph-name="F" unicode="F" horiz-adv-x="715" 
d="M201 -10q-46 0 -85 3t-55 7q-17 5 -25.5 16t-8.5 29q0 16 7.5 27t21.5 16q2 1 12.5 4.5t17.5 5.5q12 5 17.5 14.5t6.5 24.5q1 30 1.5 94t0.5 126v112v112q-1 16 -6 24.5t-16 12.5q-5 2 -10.5 3.5t-19.5 4.5q-16 4 -24 15.5t-8 30.5q0 28 25 42t74 14q21 0 46 -0.5
t74 -2.5q46 -1 68 -1.5t40 -0.5h76.5h76.5q11 0 21 2.5t26 9.5q15 7 24 9t19 2q21 0 36.5 -10t24.5 -30q16 -38 26.5 -81.5t13.5 -90.5q3 -33 -12.5 -53t-43.5 -20q-24 0 -41.5 13t-37.5 48q-20 34 -29 47t-18 23t-22 14t-36 4h-82.5t-33.5 -1q-16 -1 -24 -10t-9 -25
q-1 -12 -1.5 -44t-0.5 -94q0 -15 3 -25t9 -14q7 -3 29 -5.5t40 -2.5q11 0 17.5 3.5t8.5 10.5q2 5 4 13t4 35q2 28 15.5 42t37.5 14q26 0 39 -13t18 -43q3 -25 4.5 -68t1.5 -106q0 -53 -13 -77t-41 -24q-26 0 -40 13.5t-18 43.5q-3 22 -5 34.5t-4 15.5q-3 8 -8.5 10.5
t-15.5 2.5q-22 0 -41.5 -1.5t-27.5 -3.5q-9 -4 -12.5 -14.5t-3.5 -31.5v-46.5v-46.5q0 -19 5 -30t15 -14q6 -2 12.5 -3.5t19.5 -3.5q8 -2 12.5 -2.5t7.5 -1.5q18 -5 26.5 -17t8.5 -32q0 -23 -14.5 -37t-40.5 -17q-26 -2 -61.5 -3t-98.5 -1z" />
    <glyph glyph-name="G" unicode="G" horiz-adv-x="829" 
d="M533 11q-29 -15 -67 -23t-83 -8q-156 0 -252 100.5t-96 262.5q0 176 103.5 282t274.5 106q39 0 75 -6.5t67 -19.5q18 -7 26.5 -9.5t16.5 -2.5q9 0 15 4.5t10 14.5q6 15 17.5 22t27.5 7q18 0 31 -8t19 -24q9 -22 14.5 -40.5t8.5 -40.5q8 -36 11 -62t4 -55
q0 -35 -15.5 -54.5t-43.5 -19.5q-25 0 -43.5 11t-42.5 40q-49 62 -91.5 86.5t-93.5 24.5q-81 0 -127.5 -60.5t-46.5 -166.5q0 -118 57.5 -186.5t147.5 -68.5q31 0 51 5.5t30 16.5q8 10 10.5 18t2.5 21q0 21 -2 38.5t-5 28.5q-3 8 -10.5 12t-20.5 5q-32 1 -46.5 2t-23.5 2
q-20 4 -30.5 16.5t-10.5 32.5q0 24 12 37.5t37 16.5q18 3 64 4t123 1q49 0 80.5 -1t44.5 -3q23 -3 34.5 -15t11.5 -34q0 -17 -8 -28.5t-22 -14.5q-8 -3 -13 -5.5t-9 -5.5q-7 -3 -10.5 -9t-4.5 -17v-24v-56q-1 -55 -1 -79.5v-40.5q0 -30 -9.5 -43.5t-30.5 -13.5
q-9 0 -17.5 2.5t-19.5 8.5l-20 15t-11 8q-14 11 -20.5 13.5t-12.5 2.5q-7 0 -16.5 -2.5t-50.5 -20.5z" />
    <glyph glyph-name="H" unicode="H" horiz-adv-x="840" 
d="M204 -10q-48 0 -80.5 1t-46.5 3q-25 3 -37.5 15.5t-12.5 35.5q0 18 9.5 31t26.5 18q8 2 15.5 5t14.5 7q9 4 13 11t4 18q1 29 1.5 97t0.5 130v158t-1 64q-1 12 -4.5 18t-12.5 10q-12 5 -18.5 7.5t-12.5 4.5q-17 5 -26 17.5t-9 30.5q0 22 13.5 35t39.5 17q15 2 46.5 3
t78.5 1q48 0 80.5 -1t47.5 -3q25 -3 39 -17t14 -36q0 -18 -8.5 -30t-25.5 -18q-9 -2 -15 -4l-9 -3q-10 -5 -14 -13t-5 -21v-31.5v-31.5v-31.5v-31.5t6.5 -23t22.5 -8q9 -1 20 -1h36h62h34t16 1q14 1 21 8.5t7 21.5v31.5v30.5v44.5t-1 22.5q-1 12 -4 18.5t-11 10.5
q-3 2 -9.5 4.5t-16.5 5.5q-18 5 -27.5 18t-9.5 33q0 21 13 34t38 16q14 2 46.5 3t79.5 1q48 0 80.5 -1t48.5 -3q25 -3 38 -16.5t13 -36.5q0 -20 -8.5 -32t-25.5 -16q-7 -2 -14 -4.5t-14 -5.5q-10 -5 -13.5 -11.5t-3.5 -18.5q-1 -21 -1 -66v-156v-111.5v-111.5q1 -13 5 -21
t13 -12q10 -4 16 -6t12 -3q16 -4 24.5 -16t8.5 -32q0 -23 -13.5 -37t-37.5 -17q-15 -2 -48 -3t-82 -1q-47 0 -79 1t-46 3q-25 3 -37.5 16t-12.5 35q0 19 9.5 32.5t26.5 18.5q7 2 13 4t13 6q8 3 12 10.5t4 19.5v70v70q0 15 -6.5 21.5t-20.5 7.5q-7 1 -17.5 1h-33.5h-63h-35
t-19 -1q-16 -1 -23 -7.5t-7 -22.5v-68.5v-69.5q0 -13 5 -21.5t15 -13.5q10 -3 14.5 -4.5t8.5 -2.5q17 -6 25.5 -17.5t8.5 -29.5q0 -23 -13.5 -37t-38.5 -17q-16 -2 -49 -3t-81 -1z" />
    <glyph glyph-name="I" unicode="I" horiz-adv-x="432" 
d="M354 -6q-12 -2 -39 -3t-99 -1q-53 0 -88.5 1t-49.5 3q-25 3 -37.5 15.5t-12.5 35.5q0 17 9 29.5t27 19.5q2 1 13 5t17 7q9 4 12.5 10.5t3.5 18.5q1 30 1.5 95t0.5 127v161.5t-1 65.5q-1 11 -4 17.5t-12 10.5q-4 2 -8 3.5t-23 8.5q-18 6 -26.5 17.5t-8.5 29.5
q0 22 14 35.5t40 17.5q15 2 48.5 3t84.5 1t85.5 -1t48.5 -3q26 -4 39.5 -17t13.5 -34q0 -18 -8.5 -30.5t-26.5 -18.5q-19 -7 -23 -8.5t-8 -3.5q-9 -4 -12 -10.5t-4 -17.5q-1 -21 -1 -65.5v-161.5q0 -62 0.5 -126.5t1.5 -94.5q0 -12 3.5 -19t12.5 -11q5 -3 11.5 -5t18.5 -6
q18 -6 27 -18t9 -30q0 -22 -13 -35.5t-37 -17.5z" />
    <glyph glyph-name="J" unicode="J" horiz-adv-x="695" 
d="M593 254q0 -128 -79 -199.5t-223 -71.5q-125 0 -197.5 63t-72.5 171q0 74 41.5 125t105.5 51q52 0 81.5 -26t29.5 -71q0 -23 -7 -40.5t-24 -33.5q-2 -2 -25 -18.5t-23 -36.5q0 -27 20.5 -42.5t57.5 -15.5q53 0 79.5 40t26.5 121v50v50v93v80.5t-1 35.5q-1 12 -5.5 18.5
t-14.5 10.5q-3 1 -14.5 4t-30.5 7t-29.5 17t-10.5 34q0 22 15.5 36t42.5 18q15 2 55.5 3t96.5 1q52 0 86 -1t49 -3q26 -4 39 -17t13 -34q0 -19 -9 -31.5t-26 -17.5q-7 -2 -14.5 -5t-16.5 -7t-12.5 -10.5t-3.5 -18.5q-1 -40 -1.5 -64.5t-0.5 -55.5v-91v-26t1 -40
q1 -22 1 -32.5v-19.5z" />
    <glyph glyph-name="K" unicode="K" horiz-adv-x="860" 
d="M203 -10q-48 0 -79.5 1t-46.5 3q-25 3 -37.5 15.5t-12.5 35.5q0 18 9.5 31t26.5 18q8 2 15.5 5t14.5 7q9 4 13 11t4 18q1 30 1.5 95t0.5 127v161.5t-1 65.5q-1 12 -4.5 18t-12.5 10q-12 5 -18.5 7.5t-12.5 4.5q-17 5 -26 17.5t-9 30.5q0 22 13.5 35t39.5 17q15 2 45.5 3
t77.5 1q48 0 77 -1t50 -3q25 -3 39 -17t14 -36q0 -17 -8.5 -29t-24.5 -18q-3 -1 -5.5 -2l-7.5 -3q-5 -1 -7 -2l-4 -2q-8 -2 -12 -6.5t-5 -12.5q-1 -10 -1.5 -21.5t-0.5 -24.5v-25.5v-25.5v-26.5v-27.5q0 -18 4.5 -26t15.5 -8q6 0 13 3.5t23 15.5q53 44 90 76t68 61
q11 10 15 16.5t4 14.5q0 6 -3 10t-9 5q-5 1 -19 3.5t-16 2.5q-21 4 -31 16t-10 33t12.5 35t36.5 18q17 3 54 5t89 2q56 0 86.5 -1.5t46.5 -4.5q22 -4 33 -16.5t11 -35.5q0 -15 -7 -26.5t-22 -19.5q-6 -4 -12 -6.5t-12 -4.5q-22 -9 -35 -16t-25 -16q-39 -31 -72 -59.5
t-63 -57.5q-11 -11 -14 -16.5t-3 -12.5q0 -5 2 -10.5t12 -23.5q55 -84 96 -144.5t74 -105.5q9 -13 18.5 -21.5t20.5 -13.5q5 -4 10 -7.5t13 -8.5q16 -5 25 -17.5t9 -29.5q0 -23 -11.5 -37.5t-34.5 -18.5q-20 -3 -58.5 -5t-83.5 -2q-61 0 -96.5 1t-48.5 3q-21 3 -32 16.5
t-11 35.5q0 15 7 26t22 19q11 9 14 12.5t5 7.5q3 4 4 10.5t-1 13.5t-6.5 16.5t-12.5 22.5q-21 33 -39.5 60.5t-39.5 57.5q-4 6 -8.5 10t-9.5 6q-6 3 -12 3t-12 -2q-9 -3 -18 -9.5t-26 -20.5q-12 -10 -16 -18.5t-4 -22.5v-50.5v-50.5q1 -15 4.5 -23t11.5 -12q7 -2 13 -4
t12 -3q17 -6 25.5 -18t8.5 -29q0 -22 -14 -36.5t-39 -17.5q-19 -2 -49.5 -3t-77.5 -1z" />
    <glyph glyph-name="L" unicode="L" horiz-adv-x="687" 
d="M622 26q-12 -25 -25 -34t-34 -9q-9 0 -17 1t-22 4q-20 3 -34 4.5t-30 1.5q-22 0 -49.5 -0.5t-84.5 -1.5q-54 -1 -78.5 -1.5t-43.5 -0.5q-48 0 -80 1t-46 3q-26 3 -38.5 15.5t-12.5 35.5q0 18 9.5 31t27.5 18q7 2 14.5 5.5t14.5 6.5q9 4 13 11t4 18q1 30 1.5 95t0.5 127
v161t-1 65q-1 12 -4.5 18t-12.5 10l-18 7.5t-12 4.5q-18 5 -27 17.5t-9 31.5q0 22 13.5 35t40.5 17q14 2 46.5 3t84.5 1q54 0 92.5 -1t54.5 -3q30 -3 46.5 -17.5t16.5 -37.5q0 -21 -11.5 -34.5t-33.5 -18.5q-13 -3 -23.5 -6t-20.5 -7t-15 -11t-6 -18q-1 -23 -1.5 -70.5
t-0.5 -110.5v-81v-122t1 -41q1 -18 9.5 -26.5t25.5 -10.5h10.5h10.5h21.5h21.5q9 0 19 2t19 5q13 5 20.5 11t14.5 17q6 9 12 20.5t14 26.5q2 4 4.5 8.5t6.5 12.5q5 8 6.5 11.5t3.5 6.5q16 28 32 40t37 12q30 0 45.5 -20t14.5 -56q-1 -23 -3.5 -46t-7.5 -46q-5 -27 -11.5 -50
t-15.5 -41z" />
    <glyph glyph-name="M" unicode="M" horiz-adv-x="1057" 
d="M173 -10q-44 0 -70 1t-36 4q-20 4 -30 16.5t-10 32.5q0 19 12.5 33.5t33.5 21.5q10 3 17 5.5t10 3.5q9 4 12.5 10.5t3.5 17.5q1 34 1.5 98.5t0.5 118.5v165.5t-1 59.5q0 14 -3.5 21t-11.5 10l-10 4t-13 4q-19 8 -27.5 20t-8.5 30q0 19 9.5 32t26.5 17q22 6 51 8.5t65 2.5
q63 0 84 -1t39 -4q32 -4 49.5 -21.5t38.5 -66.5q10 -25 55.5 -138.5t70.5 -173.5q2 -6 7.5 -8t9.5 2q13 28 27.5 63t49.5 121q32 81 40.5 101.5t14.5 34.5q21 47 41 63.5t51 22.5q20 3 45 4.5t63 1.5q30 0 56 -1t44 -2q22 -2 33 -15t11 -35q0 -18 -9 -31t-25 -19
q-6 -2 -11.5 -4.5t-11.5 -5.5q-9 -5 -12.5 -12.5t-3.5 -19.5q-1 -28 -1.5 -97.5t-0.5 -128.5v-161.5t1 -57.5q0 -13 4 -21t13 -12q8 -3 15 -5.5t13 -3.5q17 -4 25.5 -16t8.5 -32q0 -23 -13.5 -37t-37.5 -17q-14 -2 -48 -3t-83 -1q-48 0 -81 1t-47 3q-25 3 -37.5 16t-12.5 35
q0 19 9 32t27 19q11 3 18.5 5.5t10.5 4.5q9 4 13.5 11t4.5 18v96v96v62.5v62.5q-1 8 -3.5 12t-7.5 4q-4 0 -8.5 -4t-6.5 -11q-39 -99 -82 -206t-82 -201q-11 -28 -24 -39t-34 -11q-20 0 -31.5 8.5t-20.5 29.5q-28 62 -57 131t-114 279q-3 8 -7.5 12t-9.5 4t-8 -4.5t-4 -13.5
q-1 -11 -1 -31.5v-85.5v-79.5t1 -80.5v-16.5v-7.5q1 -11 5.5 -18t14.5 -10q8 -3 16 -5.5t18 -5.5q23 -5 35.5 -18.5t12.5 -33.5q0 -23 -14 -37.5t-39 -18.5q-16 -2 -48.5 -3t-80.5 -1z" />
    <glyph glyph-name="N" unicode="N" horiz-adv-x="867" 
d="M309 -5q-15 -2 -48 -3.5t-82 -1.5q-51 0 -70.5 0.5t-30.5 2.5q-24 3 -36 16t-12 36q0 18 9.5 31t26.5 18q7 2 13.5 5t15.5 7t12.5 10.5t4.5 18.5q1 19 1.5 65t0.5 153v162.5t-1 54.5q0 16 -6 26.5t-18 15.5q-7 3 -14 5.5t-11 3.5q-18 5 -27.5 16.5t-9.5 28.5
q0 24 13.5 38t40.5 18q25 3 51 4t54 1q30 0 54 -2t45 -7q38 -9 63 -29t52 -62q15 -24 32.5 -51t51.5 -80q51 -77 76 -116t47 -73q4 -7 8.5 -10t9.5 -3q6 0 9 4.5t3 12.5v69.5v69.5q0 41 -1 75t-3 60q-1 10 -5 15.5t-13 7.5q-7 2 -14 3.5t-16 3.5q-23 5 -35.5 19t-12.5 34
q0 25 11 39t34 17q13 2 48.5 3t76.5 1q46 0 71.5 -1t35.5 -4q19 -4 28.5 -17t9.5 -33t-9.5 -33.5t-27.5 -18.5q-8 -2 -13.5 -3.5t-12.5 -4.5q-9 -3 -13.5 -10.5t-4.5 -19.5v-111.5v-111.5v-110.5v-111.5q0 -80 -25.5 -117t-80.5 -37q-42 0 -72.5 19t-70.5 73q-20 28 -80 118
t-160 242q-7 10 -11.5 14t-9.5 4q-6 0 -9.5 -5.5t-3.5 -16.5v-53.5v-53.5v-147t1 -40q1 -11 6.5 -18.5t16.5 -10.5q7 -3 15 -5.5t22 -5.5q19 -4 30.5 -17.5t11.5 -33.5q0 -21 -11 -35t-31 -17z" />
    <glyph glyph-name="O" unicode="O" horiz-adv-x="831" 
d="M796 368q0 -175 -106 -280.5t-281 -105.5q-167 0 -270.5 99.5t-103.5 262.5q0 171 110 280t279 109q163 0 267.5 -102t104.5 -263zM241 414q-1 -112 62.5 -197.5t146.5 -85.5q63 0 100.5 47.5t37.5 126.5q0 115 -59 198t-144 83q-64 0 -103.5 -47t-40.5 -125z" />
    <glyph glyph-name="P" unicode="P" horiz-adv-x="745" 
d="M214 -10q-57 0 -91.5 1t-49.5 4q-22 4 -34 17t-12 33q0 16 7.5 27.5t21.5 15.5l6 2t10 3l9 3t5 2q12 5 17.5 14.5t6.5 24.5q1 30 1.5 94t0.5 126v112v112q-1 15 -6 23.5t-16 13.5q-2 1 -9.5 3t-20.5 5q-15 3 -23.5 15t-8.5 31q0 28 25 42t74 14q12 0 26.5 -0.5t45.5 -2.5
q29 -1 43 -1.5t25 -0.5q8 0 19 0.5t37 1.5q41 2 64.5 2.5t44.5 0.5q138 0 210.5 -59.5t72.5 -173.5q0 -125 -84.5 -188.5t-252.5 -63.5h-40q-16 0 -22.5 -5.5t-6.5 -20.5v-42.5v-42.5q0 -11 3.5 -16t12.5 -7q10 -3 24.5 -4.5t17.5 -1.5q23 -3 36 -16.5t13 -34.5
q0 -23 -12.5 -37.5t-36.5 -18.5q-19 -3 -61.5 -4.5t-91.5 -1.5zM353 340h21q67 0 99.5 35t32.5 107q0 67 -33.5 102.5t-95.5 35.5h-12.5h-13.5q-19 0 -28.5 -8t-11.5 -25q-1 -13 -1.5 -40.5t-0.5 -53.5v-44.5v-45.5q0 -39 8.5 -51t35.5 -12z" />
    <glyph glyph-name="Q" unicode="Q" horiz-adv-x="832" 
d="M35 344q0 171 110 280t279 109q163 0 267.5 -102t104.5 -263q0 -122 -59 -213.5t-168 -142.5q-5 -3 -7.5 -8t-2.5 -15q1 -33 12.5 -49.5t32.5 -16.5q16 0 25 6t16 21q7 16 15.5 23t21.5 7q18 0 28.5 -14.5t9.5 -36.5q-1 -11 -4.5 -23t-9.5 -25q-18 -33 -51 -51t-77 -18
q-68 0 -107.5 34t-45.5 99q-1 5 -1 10v16q0 6 -2.5 8.5t-8.5 2.5h-2.5h-3.5q-164 0 -267.5 100.5t-104.5 261.5zM453 187q-4 28 -18.5 43.5t-36.5 15.5q-21 0 -34.5 -15t-13.5 -39q0 -17 6 -31t19 -27q11 -10 27 -17t37 -10q7 -1 10.5 4.5t4.5 17.5q2 18 1.5 32t-2.5 26z
M598 361q-10 102 -64.5 164t-136.5 62q-71 0 -116 -50t-46 -130q0 -50 12.5 -97t36.5 -86q2 -4 5 -3t3 7q-1 14 0.5 27t5.5 25q14 42 48.5 65t83.5 23q54 0 93 -33t51 -90q1 -11 5.5 -11.5t7.5 7.5q9 24 12 53.5t-1 66.5z" />
    <glyph glyph-name="R" unicode="R" horiz-adv-x="802" 
d="M785 51q0 -33 -36.5 -50t-108.5 -17q-79 0 -118 38.5t-48 126.5q-4 41 -13 68.5t-25 48.5q-14 16 -33.5 25t-42.5 9h-7h-10h-10q-12 0 -18 -7.5t-6 -23.5v-96t1 -41q1 -12 4 -16.5t11 -6.5l8 -2t13 -2q4 -1 6.5 -1.5t4.5 -0.5q23 -4 35.5 -17.5t12.5 -33.5
q0 -24 -12.5 -38.5t-36.5 -17.5q-21 -3 -48 -4.5t-95 -1.5q-56 0 -90.5 1t-49.5 4q-22 4 -34 17t-12 33q0 16 7.5 27.5t21.5 15.5l6 2t10 3l9 3t5 2q12 5 17.5 14.5t6.5 24.5q1 30 1.5 94t0.5 126v112v112q-1 16 -6 24.5t-16 12.5q-4 1 -8.5 2.5t-21.5 5.5q-16 4 -24 15.5
t-8 30.5q0 28 25 42t74 14q12 0 27 -0.5t46 -2.5q31 -1 45.5 -1.5t25.5 -0.5q7 0 17 0.5t34 1.5q43 2 71 2.5t57 0.5q134 0 200.5 -45t66.5 -135q0 -62 -38 -108.5t-114 -77.5q-5 -2 -7.5 -4.5t-2.5 -5.5q0 -4 3 -6.5t9 -3.5q25 -4 45 -15t35 -28q18 -21 29 -49.5t20 -78.5
q4 -25 11.5 -38.5t20.5 -20.5q2 -1 13 -6t18 -10q16 -11 21 -21t5 -24zM309 445q0 -28 7.5 -39t26.5 -11h3.5h3.5h18q68 0 101 28t33 86q0 54 -35 82.5t-102 28.5h-8.5h-9.5q-17 0 -25.5 -8.5t-10.5 -27.5q0 -4 -0.5 -9t-0.5 -16q0 -10 -0.5 -15.5t-0.5 -10.5v-58v-14.5
v-15.5z" />
    <glyph glyph-name="S" unicode="S" horiz-adv-x="678" 
d="M184 3q-7 -14 -19 -21t-31 -7q-20 0 -33.5 8.5t-19.5 24.5q-8 19 -14.5 41t-14.5 56q-5 23 -9 48t-5 49q-2 36 13 57t42 21q16 0 30 -8t27 -24q26 -32 40.5 -48.5t28.5 -29.5q31 -28 65 -43t69 -15q38 0 59 19.5t21 53.5q0 35 -30 57t-111 44l-49 14q-103 29 -149.5 80.5
t-46.5 133.5q0 98 68 158.5t177 60.5q29 0 55.5 -3.5t78.5 -19.5q14 -4 22.5 -5.5t15.5 -1.5q9 0 16 4t15 15t18 16t23 5q23 0 38 -14.5t24 -44.5q5 -19 9 -38t6 -36q3 -20 5 -39t3 -37q1 -33 -12 -50.5t-39 -17.5q-17 0 -31.5 8.5t-27.5 25.5q-21 27 -38 44t-33 30
q-27 22 -52.5 31.5t-55.5 9.5q-37 0 -59 -18.5t-22 -50.5q0 -30 27 -50.5t92 -38.5l41 -11q126 -34 180 -88.5t54 -139.5q0 -104 -70 -169.5t-186 -65.5q-28 0 -53.5 4t-89.5 27q-12 5 -19.5 7t-13.5 2q-8 0 -15.5 -5t-13.5 -15z" />
    <glyph glyph-name="T" unicode="T" horiz-adv-x="791" 
d="M392 -10q-65 0 -103.5 1t-54.5 3q-25 4 -37.5 17.5t-12.5 38.5q0 20 11 33t32 19q3 1 7 2t11 2q11 3 16 4t10 3q10 3 15 11t6 20q1 37 2 91.5t1 118.5v157t-1 53q-1 13 -6 20.5t-17 12.5q-5 2 -13 3.5t-16 1.5q-6 1 -11.5 1h-14.5q-10 0 -17.5 -4t-13.5 -15
q-4 -7 -8.5 -16.5t-13.5 -29.5q-6 -14 -9.5 -21.5t-6.5 -13.5q-12 -25 -27.5 -36t-36.5 -11q-31 0 -47.5 21t-12.5 58q4 46 15.5 89.5t28.5 80.5q9 18 23 27.5t31 9.5q10 0 17.5 -2t19.5 -8t20.5 -8t18.5 -2h102.5h102.5h96h96q8 0 16 2t21 7q14 7 23.5 9t20.5 2
q15 0 26.5 -7t19.5 -21q19 -34 31.5 -78.5t16.5 -93.5q3 -38 -14.5 -61.5t-47.5 -23.5q-23 0 -39 11.5t-30 41.5q-1 3 -15 31.5t-24 43.5q-5 8 -10 11.5t-15 4.5q-12 1 -17 1.5t-10 0.5q-7 0 -15 -0.5t-16 -1.5q-9 -1 -13.5 -8.5t-5.5 -22.5q-1 -14 -1.5 -50.5t-0.5 -165.5
q0 -75 0.5 -130.5t1.5 -80.5q1 -12 5.5 -18.5t15.5 -11.5q5 -2 10.5 -3.5t15.5 -3.5q7 -2 10 -2.5t6 -1.5q22 -5 32 -17.5t10 -33.5q0 -23 -13.5 -37t-39.5 -18q-17 -3 -58 -4.5t-99 -1.5z" />
    <glyph glyph-name="U" unicode="U" horiz-adv-x="807" 
d="M707 312q0 -161 -78 -245t-230 -84q-153 0 -226.5 75t-73.5 231v212.5t-1 77.5q-1 11 -5 17t-13 10q-7 3 -18 7t-13 5q-16 6 -25.5 18.5t-9.5 29.5q0 24 12 38t35 18q18 3 62 4.5t92 1.5q49 0 87 -1.5t53 -3.5q23 -3 34.5 -15.5t11.5 -35.5q0 -17 -8.5 -29.5t-27.5 -21.5
q-3 -2 -6.5 -3.5l-10.5 -4.5q-6 -2 -8.5 -3.5t-5.5 -2.5q-11 -5 -15.5 -11t-5.5 -16q-3 -28 -3 -123t2 -154q2 -74 35 -111.5t95 -37.5q67 0 98.5 42t31.5 136q0 71 -1.5 142.5t-3.5 103.5q-1 11 -5.5 18t-13.5 11q-7 3 -16.5 6l-9.5 3q-21 7 -32 21t-11 34q0 23 11.5 36
t34.5 16q14 3 41.5 4t75.5 1q36 0 62.5 -1.5t40.5 -3.5q21 -4 31.5 -16t10.5 -34q0 -18 -7.5 -30t-23.5 -18q-14 -5 -19.5 -8t-11.5 -8q-8 -7 -12 -17.5t-5 -28.5v-26v-55q-1 -66 -1 -102.5v-67.5z" />
    <glyph glyph-name="V" unicode="V" horiz-adv-x="847" 
d="M569 106q-34 -78 -62.5 -101t-80.5 -23t-79 21t-60 94q-9 22 -20.5 51t-70.5 182q-38 104 -56.5 153.5t-32.5 88.5q-5 12 -9.5 19t-14.5 13q-7 5 -14.5 8.5t-18.5 7.5q-16 6 -25.5 18.5t-9.5 28.5q0 23 12 37t36 17q23 3 61 5t87 2q53 0 89.5 -1t58.5 -4q24 -3 35.5 -16
t11.5 -35q0 -20 -10 -33t-31 -19q-16 -5 -25 -9.5t-14 -10.5q-6 -6 -6.5 -13.5t2.5 -18.5q4 -13 16.5 -49t33.5 -94q30 -84 48.5 -134t24.5 -65q7 -14 19 -14t17 14q15 37 33 87t37 105q25 70 36 106.5t17 62.5q2 10 -1 16t-12 9q-5 2 -13.5 4.5t-26.5 5.5q-20 4 -30.5 17
t-10.5 34q0 22 13.5 35t40.5 16q15 2 36.5 3t77.5 1q32 0 60 -1t49 -3q23 -3 35 -16t12 -34q0 -19 -9 -32.5t-28 -21.5q-1 -1 -3 -1.5t-5 -1.5q-6 -2 -9 -3.5l-5 -2.5q-9 -6 -16 -15t-12 -22q-14 -37 -35 -93t-50 -132q-46 -121 -63 -166.5t-30 -76.5z" />
    <glyph glyph-name="W" unicode="W" horiz-adv-x="1212" 
d="M496 101q-27 -69 -55.5 -94t-77.5 -25q-52 0 -77.5 22t-48.5 90q-12 37 -28.5 93t-44.5 157q-6 23 -13.5 50t-21.5 80q-11 40 -16 59t-9 35q-4 14 -9 23t-13 14q-3 2 -7.5 4.5t-24.5 10.5q-16 6 -25.5 18.5t-9.5 28.5q0 23 12 37t35 17q21 3 60.5 5t89.5 2
q48 0 82.5 -1.5t56.5 -3.5q22 -3 33 -16t11 -35q0 -20 -9.5 -33.5t-27.5 -18.5q-4 -1 -8.5 -2.5t-10.5 -2.5q-6 -2 -9 -2.5t-5 -1.5q-9 -3 -12 -9t-1 -18q3 -22 9 -50t35 -138q11 -42 23 -85.5t23 -79.5q5 -13 14 -13t14 13q25 70 36.5 103.5t22.5 67.5q24 73 34 108.5
t15 62.5q2 11 -2.5 19.5t-17.5 15.5q-7 4 -16 7t-23 7q-15 4 -23.5 16.5t-8.5 31.5q0 22 11.5 35t34.5 16q25 3 64.5 5t92.5 2q54 0 87.5 -1.5t57.5 -4.5q22 -3 33 -15.5t11 -35.5q0 -19 -9.5 -32t-27.5 -19q-19 -6 -29 -12.5t-16 -15.5t-6.5 -16t2.5 -18q6 -20 13 -44.5
t35 -113.5q16 -54 30.5 -98.5t26.5 -75.5q5 -12 14.5 -12t13.5 13q10 33 22.5 75.5t28.5 99.5q18 66 28.5 108.5t16.5 75.5q2 12 -2 19t-14 10q-2 1 -5.5 1.5t-12.5 2.5q-8 1 -11 2t-5 1q-20 5 -30 18t-10 32q0 21 9.5 32.5t28.5 15.5q21 4 49.5 6t68.5 2q32 0 64 -2t52 -6
q17 -3 26 -15t9 -29q0 -16 -7 -27.5t-20 -17.5q-1 -1 -2.5 -1.5l-4.5 -1.5l-10.5 -4.5t-5.5 -3.5q-13 -9 -22 -25t-18 -45q-14 -47 -28.5 -95t-28.5 -97q-32 -106 -48.5 -157.5t-31.5 -93.5q-28 -81 -54 -103t-76 -22q-52 0 -79 22.5t-53 91.5q-8 21 -18.5 51t-31.5 97
q-10 30 -19.5 60t-19.5 60q-3 8 -6.5 11.5t-8.5 3.5t-9 -4t-6 -11q-10 -31 -21.5 -62.5t-23.5 -63.5q-1 -3 -19.5 -54.5t-30.5 -82.5z" />
    <glyph glyph-name="X" unicode="X" horiz-adv-x="849" 
d="M169 -10q-47 0 -72 1.5t-43 4.5q-18 4 -27 16t-9 31q0 20 10 33.5t31 20.5q6 2 14.5 6t15.5 8q11 5 19 12t17 17q49 58 92 110t67 83q10 13 13.5 20.5t3.5 12.5q0 6 -3 12t-15 21q-66 85 -96 121.5t-64 75.5q-7 8 -13.5 12t-14.5 6q-2 1 -7.5 2.5t-13.5 3.5
q-18 4 -28 16.5t-10 30.5q0 23 12 36.5t36 17.5q20 3 61.5 5t92.5 2q67 0 102.5 -1t54.5 -4q24 -3 36 -16t12 -35q0 -17 -9 -29t-25 -17q-18 -3 -24 -4.5t-11 -2.5q-6 -3 -7.5 -9t1.5 -13q13 -27 47 -72.5l34 -45.5q6 -8 11.5 -12t11.5 -4q5 0 10.5 3.5t10.5 10.5
q52 66 65 85t20 32q4 8 2 13.5t-10 8.5q-3 1 -7.5 2l-13.5 3l-9 1.5t-5 1.5q-20 4 -30 16.5t-10 32.5q0 22 13.5 35.5t38.5 16.5q23 2 52.5 2.5t70.5 0.5q29 0 55.5 -1t50.5 -3q22 -2 34.5 -16t12.5 -35q0 -18 -8 -30.5t-25 -21.5l-4 -2t-8 -3q-7 -3 -10.5 -5t-5.5 -3
q-14 -9 -22.5 -16t-15.5 -16q-27 -31 -69.5 -81.5t-87.5 -104.5q-9 -12 -11.5 -17t-2.5 -10q0 -3 5 -10.5t15 -20.5q30 -40 64.5 -83t96.5 -116q8 -8 15 -13.5t17 -9.5q3 -2 8 -3.5t14 -5.5q5 -2 7 -2.5t4 -1.5q17 -6 25 -18t8 -30q0 -22 -11.5 -35.5t-33.5 -17.5
q-20 -3 -57.5 -4.5t-108.5 -1.5q-59 0 -100.5 1.5t-64.5 4.5q-21 3 -32 16t-11 34q0 18 9.5 30.5t25.5 16.5q3 1 6.5 1.5t11.5 1.5q11 2 15.5 3t7.5 2q8 2 10.5 8.5t-1.5 14.5q-11 21 -33.5 52t-53.5 70q-6 7 -10.5 10t-10.5 3t-11.5 -2.5t-9.5 -7.5q-39 -46 -62 -77.5
t-34 -51.5q-4 -7 -1.5 -12t9.5 -7q5 -2 19 -4.5t16 -2.5q20 -4 30.5 -16.5t10.5 -32.5q0 -21 -11.5 -34t-32.5 -16q-25 -3 -61 -4t-83 -1z" />
    <glyph glyph-name="Y" unicode="Y" horiz-adv-x="809" 
d="M385 -12q-58 0 -94.5 2.5t-50.5 6.5q-18 4 -27.5 17.5t-9.5 35.5q0 20 12.5 34t35.5 19q13 3 22.5 5t18.5 5q11 3 17 10t7 17q1 13 1 34.5v64.5q0 23 -6.5 40t-24.5 43q-46 63 -97.5 137.5t-86.5 128.5q-7 11 -13 16t-14 7q-13 6 -17 7.5t-9 2.5q-15 4 -24.5 16.5
t-9.5 29.5q0 22 12.5 36.5t36.5 17.5q20 3 59.5 5t89.5 2q65 0 100 -1t54 -4q23 -3 34.5 -15.5t11.5 -35.5q0 -18 -11.5 -30.5t-32.5 -16.5q-23 -6 -33.5 -10t-13.5 -9q-6 -4 -7 -10.5t4 -14.5q10 -18 22.5 -37t36.5 -52q14 -21 25.5 -36.5t22.5 -29.5q4 -5 8 -7t9 -2t9 2.5
t8 7.5q16 20 29 39t27 43q18 30 28.5 50t17.5 37q3 10 -1.5 16t-15.5 8q-1 0 -15 1.5t-20 2.5q-18 4 -27 15.5t-9 31.5q0 23 14 37t39 17q22 2 50 2.5t67 0.5q29 0 55 -1t49 -3t35.5 -15.5t12.5 -35.5q0 -20 -9.5 -33.5t-26.5 -18.5q-6 -2 -12.5 -5t-11.5 -6q-12 -8 -19 -15
t-14 -17q-37 -51 -80.5 -115.5t-88.5 -134.5q-12 -20 -16.5 -36.5t-4.5 -37.5q0 -33 0.5 -66t1.5 -48q1 -11 5 -16.5t13 -7.5q11 -3 21 -5.5t22 -4.5q23 -5 33.5 -17.5t10.5 -34.5q0 -24 -15 -38.5t-47 -20.5q-21 -3 -65 -5t-108 -2z" />
    <glyph glyph-name="Z" unicode="Z" horiz-adv-x="726" 
d="M641 7q-9 -16 -23 -25t-31 -9q-12 0 -21.5 2t-23.5 9t-24.5 9.5t-23.5 2.5h-41.5t-82.5 -1q-88 -1 -136 -1h-89q-57 0 -85.5 21t-28.5 64q0 24 9 46.5t28 46.5q30 38 69.5 82.5t98.5 107.5q14 15 30.5 32.5t50.5 52.5l49.5 52.5t30.5 32.5q23 25 31.5 37.5t8.5 22.5
t-7.5 15t-23.5 6h-56.5h-57.5q-12 0 -23.5 -6t-23.5 -19q-4 -5 -18 -24t-38 -53q-24 -31 -42 -41.5t-41 -10.5q-30 0 -46 20t-13 54q4 47 18 94.5t33 83.5q8 15 21 23t29 8q12 0 21.5 -2t23.5 -7q15 -7 26.5 -9t26.5 -2h70.5t113.5 1h95h54q56 0 84 -19.5t28 -59.5
q0 -23 -6.5 -42.5t-20.5 -38.5q-32 -43 -76.5 -94.5t-106.5 -117.5q-19 -22 -50 -55t-116 -125q-14 -16 -18 -24t-4 -16q0 -9 6.5 -14.5t18.5 -6.5q25 -2 64 -1.5t67 3.5q18 2 32.5 11t28.5 28q27 37 43 59t21 29q17 20 31 27.5t31 7.5q30 0 47 -21t13 -56
q-4 -50 -19 -101.5t-36 -88.5z" />
    <glyph glyph-name="bracketleft" unicode="[" horiz-adv-x="451" 
d="M268 -291q-14 0 -45.5 0.5t-81.5 2.5q-33 2 -50 22.5t-18 59.5q-1 157 -1.5 247t-0.5 167q0 45 -0.5 207.5t0.5 252.5q1 47 17 70t54 29q18 3 42.5 4t86.5 1h76.5t42.5 -1q31 -1 45 -19t12 -56q-1 -36 -17.5 -53.5t-47.5 -17.5l-68 1q-25 1 -34.5 -10t-9.5 -37
q-1 -112 -1.5 -192t-0.5 -153q0 -141 0.5 -210t1.5 -124q0 -25 9.5 -34.5t35.5 -9.5h80q31 0 44.5 -17.5t11.5 -54.5q-3 -37 -18.5 -54.5t-47.5 -18.5l-70.5 -1.5t-46.5 -0.5z" />
    <glyph glyph-name="backslash" unicode="\" horiz-adv-x="537" 
d="M82 791q-60 0 -77 -31t8 -92q10 -24 24.5 -58t47.5 -113q33 -77 50 -117.5t32 -75.5q52 -125 103 -242.5t86 -192.5q16 -32 42.5 -47t70.5 -15q59 0 76 30t-6 92q-42 99 -89.5 211.5t-90.5 211.5q-65 153 -102.5 239t-60.5 136q-16 34 -43 49t-71 15z" />
    <glyph glyph-name="bracketright" unicode="]" horiz-adv-x="451" 
d="M183 772q14 0 45.5 -0.5t81.5 -2.5q33 -2 50 -22.5t18 -59.5q1 -157 1.5 -247t0.5 -167q0 -45 0.5 -207.5t-0.5 -252.5q-1 -47 -17 -70t-54 -29q-18 -3 -42.5 -4t-86.5 -1h-76.5t-42.5 1q-31 1 -45 19t-12 56q1 36 17.5 53.5t47.5 17.5l68 -1q25 -1 34.5 10t9.5 37
q1 112 1.5 192t0.5 153q0 141 -0.5 210t-1.5 124q0 25 -9.5 34.5t-35.5 9.5h-80q-31 0 -44.5 17.5t-11.5 54.5q3 37 18.5 54.5t47.5 18.5l70.5 1.5t46.5 0.5z" />
    <glyph glyph-name="asciicircum" unicode="^" horiz-adv-x="434" 
d="M34 247zM214 319q-37 -27 -67 -44t-52 -25q-12 -5 -23.5 -1t-22.5 16t-13 21.5t5 19.5q8 13 24.5 32t42.5 44q18 16 37 32.5t34 28.5q14 10 25 14t23 4t22 -4t21 -13q20 -15 37.5 -30.5t33.5 -31.5q23 -22 40.5 -42.5t25.5 -35.5q5 -10 2 -19.5t-14 -21.5
q-11 -11 -23 -14.5t-26 1.5q-18 6 -44 22t-67 47q-1 0 -4.5 2.5t-5.5 2.5q-3 0 -7 -2.5z" />
    <glyph glyph-name="underscore" unicode="_" horiz-adv-x="577" 
d="M267 -207q-80 0 -153.5 1t-144.5 4q-30 1 -44.5 17.5t-14.5 48.5q0 31 16 47.5t46 18.5q58 3 134.5 4t195.5 1q138 0 200 -1t107 -4q30 -1 44 -17.5t14 -49.5q0 -30 -15.5 -47t-45.5 -18q-50 -3 -130 -4t-209 -1z" />
    <glyph glyph-name="grave" unicode="`" horiz-adv-x="376" 
d="M320 635q-7 -11 -16.5 -16.5t-21.5 -4.5q-21 1 -102 41.5t-131 72.5q-21 13 -20 36.5t22 53.5q15 21 31 30t32 7q21 -2 78 -48t118 -107q17 -18 19.5 -32.5t-9.5 -32.5z" />
    <glyph glyph-name="a" unicode="a" horiz-adv-x="631" 
d="M355 56q-27 -35 -68.5 -54.5t-89.5 -19.5q-78 0 -121.5 39t-43.5 108q0 73 51.5 115t172.5 61q22 3 32.5 5t19.5 4q29 8 41 21.5t12 37.5v3q0 33 -20 52.5t-55 19.5q-30 0 -51 -15.5t-31 -44.5q-14 -34 -36 -50.5t-54 -16.5q-36 0 -58.5 20t-22.5 54q0 70 83 118t190 48
q121 0 183 -53.5t62 -156.5q0 -30 -0.5 -92t0.5 -88q0 -27 5.5 -40.5t23.5 -20.5q1 -1 3 -1.5t5 -1.5q5 -2 8.5 -3.5t7.5 -3.5q12 -6 17.5 -15t5.5 -22q0 -16 -7 -28t-23 -22q-19 -13 -46.5 -20t-60.5 -7t-51 5.5t-34 19.5q-8 7 -15 18.5t-12 25.5q-2 6 -3.5 8.5t-5.5 2.5
q-3 0 -6 -2t-8 -8zM224 165q0 -27 17.5 -43t47.5 -16t49 15t26 45q2 8 3 18t1 22v4q0 19 -6 25.5t-24 3.5l-4 -1q-5 -1 -12.5 -2t-30.5 -6q-35 -8 -51 -23.5t-16 -41.5z" />
    <glyph glyph-name="b" unicode="b" horiz-adv-x="658" 
d="M630 281q0 -142 -58.5 -219.5t-166.5 -77.5q-48 0 -88 19t-70 55q-4 4 -6.5 5.5t-5.5 1.5q-4 0 -8 -2.5t-9 -8.5q-7 -6 -15 -14l-23 -23q-14 -15 -31.5 -23t-36.5 -8q-26 0 -41 14.5t-15 39.5v13t1 23q1 26 1.5 43t0.5 35v94.5v94.5v135.5v135.5q0 14 -5 23.5t-15 14.5
q-6 3 -13 5.5t-16 3.5q-21 3 -31.5 13.5t-10.5 28.5q0 19 15 33.5t46 26.5q34 12 67 20t63 11q22 2 36 -1t26 -11q15 -10 23 -27.5t8 -38.5v-29v-51q-1 -36 -1 -53.5v-30.5v-38.5v-39.5q0 -6 2.5 -9t6.5 -3q2 0 4 1.5t5 5.5q26 46 66.5 70.5t91.5 24.5q95 0 149 -76.5
t54 -206.5zM251 188q0 -39 22 -61t60 -22q47 0 73 36.5t26 103.5q0 83 -27.5 129t-75.5 46q-37 0 -57.5 -23.5t-20.5 -67.5v-70.5v-70.5z" />
    <glyph glyph-name="c" unicode="c" horiz-adv-x="626" 
d="M571 134q-36 -74 -100 -112.5t-153 -38.5q-132 0 -211 78t-79 207q0 133 79 214.5t203 81.5q29 0 53.5 -4.5t50.5 -15.5q14 -6 20.5 -8t11.5 -2q9 0 15.5 3.5t10.5 10.5q7 11 16 16t22 5q16 0 28.5 -9.5t18.5 -26.5q6 -19 11 -41t8 -48q4 -30 6.5 -55t2.5 -45
q1 -15 -7 -26.5t-24 -19.5q-13 -6 -26 -5t-26 9q-9 7 -19.5 17t-30.5 33q-43 50 -70.5 65.5t-57.5 15.5q-46 0 -74 -32.5t-28 -87.5q0 -76 48 -127.5t120 -51.5q37 0 64.5 12.5t51.5 40.5q6 8 15 12t19 4q17 0 29 -11t12 -26q0 -5 -2.5 -13t-7.5 -19z" />
    <glyph glyph-name="d" unicode="d" horiz-adv-x="693" 
d="M391 73q-25 -44 -63.5 -67t-87.5 -23q-101 0 -156.5 73.5t-55.5 205.5q0 143 57.5 222.5t160.5 79.5q47 0 82.5 -19.5t58.5 -56.5q3 -4 5 -5t5 -1q4 0 6.5 3t2.5 8v60.5v60.5q0 14 -4 23t-13 15q-7 5 -15 8t-18 5q-18 4 -27 15t-9 29q0 20 17 36t48 26q30 8 59 13.5
t57 8.5q21 2 37 -1t29 -12q15 -11 22.5 -29t7.5 -45v-58v-98q-1 -79 -1 -120.5v-79.5q0 -26 -0.5 -101t0.5 -98q1 -12 5 -19.5t12 -10.5q6 -3 12 -5.5t14 -3.5q17 -3 25 -13t8 -27q0 -18 -10.5 -31.5t-31.5 -22.5q-29 -12 -56 -19.5t-56 -10.5q-30 -2 -43 0t-25 8
q-21 11 -28.5 25t-10.5 41q-1 11 -3 15t-6 4q-3 0 -6 -2t-5 -6zM225 288q0 -79 28 -123.5t77 -44.5q36 0 56 21t20 59v75.5v74.5t-23 59.5t-58 22.5q-47 0 -73.5 -37.5t-26.5 -106.5z" />
    <glyph glyph-name="e" unicode="e" horiz-adv-x="623" 
d="M574 134q-30 -73 -93.5 -112t-156.5 -39q-139 0 -217.5 75.5t-78.5 206.5q0 133 89 216t226 83q112 0 180 -64t68 -171q0 -41 -23 -60.5t-72 -19.5h-62h-62h-58.5h-59.5q-12 0 -18 -5.5t-5 -17.5q3 -45 43 -72t100 -27q43 0 74.5 13.5t59.5 44.5q6 8 15 12t18 4
q17 0 29 -10.5t12 -25.5q0 -6 -1.5 -12.5t-6.5 -18.5zM218 360q-1 -15 4 -21.5t19 -6.5h29.5h28.5h33.5h33.5q20 0 28 6.5t8 22.5q0 33 -24.5 55t-64.5 22q-39 0 -65.5 -22t-29.5 -56z" />
    <glyph glyph-name="f" unicode="f" horiz-adv-x="449" 
d="M206 -10q-49 0 -86 2t-54 6t-26 15.5t-9 29.5q0 17 8.5 28t24.5 17q14 5 17.5 6t6.5 3q8 4 11.5 12.5t4.5 21.5t1 35.5v86.5v69.5v69.5q0 12 -5.5 17.5t-18.5 5.5h-13.5t-8.5 1q-26 3 -38 19.5t-10 47.5q2 30 15.5 46t42.5 20q2 0 11.5 2t14.5 3q6 2 8.5 7t2.5 13
q0 4 -1 8.5t-3 14.5q-5 18 -6.5 30t-1.5 25q0 74 53 120t146 46q82 0 129 -31.5t47 -83.5q0 -36 -24 -62t-60 -26q-16 0 -29 4.5t-28 16.5q-30 23 -39.5 26t-20.5 3q-21 0 -34 -14t-13 -37q0 -30 21 -45t64 -15h39.5h38.5q24 0 33 -18.5t4 -54.5q-4 -32 -18.5 -49t-36.5 -17
h-22.5h-23.5q-17 0 -23.5 -7t-6.5 -23v-62.5v-62.5q0 -45 0.5 -74.5t2.5 -47.5q2 -14 6.5 -21.5t13.5 -10.5q6 -2 13 -3.5l21 -4.5q8 -2 12 -2.5t7 -1.5q18 -5 26.5 -16.5t8.5 -30.5q0 -21 -11.5 -33.5t-33.5 -16.5q-32 -4 -69 -5.5t-81 -1.5z" />
    <glyph glyph-name="g" unicode="g" horiz-adv-x="631" 
d="M613 -42q0 -102 -99.5 -161.5t-279.5 -59.5q-118 0 -173.5 26t-55.5 81q0 37 24.5 64t84.5 54q4 2 6 4.5t2 5.5t-1.5 4.5t-5.5 2.5q-35 9 -52.5 26t-17.5 43q0 31 22 52t85 46q6 2 8.5 5t2.5 7t-2.5 7t-7.5 6q-61 28 -92 73.5t-31 106.5q0 97 72.5 155t190.5 58
q16 0 31.5 -1t37.5 -5q12 -2 17 -2.5t9 -0.5q12 0 17 7.5t7 29.5q3 32 25 50.5t59 18.5q50 0 82.5 -24.5t32.5 -62.5q0 -25 -15.5 -40t-40.5 -15q-3 0 -7 0.5t-12 0.5q-8 1 -12.5 1.5t-8.5 0.5q-8 0 -13 -4t-5 -10t13 -19.5t16 -17.5q23 -24 34 -54t11 -66
q0 -97 -73.5 -151.5t-207.5 -54.5q-28 0 -42 -7.5t-14 -21.5q0 -13 12.5 -19t41.5 -6h65.5h65.5q96 0 145 -34t49 -99zM199 -94q0 -24 27 -35.5t81 -11.5q62 0 96.5 14.5t34.5 39.5q0 20 -17.5 29t-56.5 9h-49.5h-49.5q-31 0 -48.5 -12t-17.5 -33zM215 379q0 -49 29 -85
t70 -36q35 0 54.5 18t19.5 52q0 49 -30 85t-73 36q-32 0 -51 -19t-19 -51z" />
    <glyph glyph-name="h" unicode="h" horiz-adv-x="737" 
d="M184 -10q-43 0 -72.5 2t-46.5 6q-16 3 -25.5 15t-9.5 30q0 16 8.5 27.5t24.5 17.5q5 2 9.5 3.5t13.5 5.5q8 4 12 12t5 22q1 18 1 57v150v209.5t-1 70.5q0 15 -4.5 23.5t-13.5 12.5q-7 4 -14.5 6.5t-17.5 3.5q-19 3 -29 13.5t-10 28.5q0 20 16.5 36.5t46.5 25.5
q11 3 23.5 6.5t63.5 15.5q15 4 28.5 5.5t27.5 1.5q39 0 57 -21t18 -67v-41t-1 -86v-76v-34q0 -6 1.5 -9t5.5 -3q2 0 6 3.5t9 10.5q37 49 77 69.5t94 20.5q78 0 120 -48t45 -138q1 -42 1.5 -66.5t-0.5 -46.5v-65.5v-65.5q1 -16 3.5 -24t8.5 -11q3 -2 6.5 -4t12.5 -6
q16 -7 24 -17.5t8 -26.5q0 -18 -10 -30.5t-27 -16.5q-20 -4 -50.5 -6t-79.5 -2q-43 0 -70 1.5t-45 5.5q-17 4 -26.5 16t-9.5 30q0 15 7 25t22 18q11 6 13.5 7.5t4.5 3.5q7 6 10.5 13.5t4.5 19.5q1 7 1 37.5v84.5q0 59 -6 90.5t-19 48.5q-12 15 -27.5 22t-35.5 7
q-21 0 -36 -7.5t-25 -23.5q-9 -15 -13.5 -47t-4.5 -85v-86.5t1 -42.5q1 -12 4 -20t8 -12q4 -3 8 -5.5t9 -4.5q14 -4 21.5 -14t7.5 -26q0 -19 -11 -31.5t-31 -16.5q-33 -5 -61.5 -6.5t-65.5 -1.5z" />
    <glyph glyph-name="i" unicode="i" horiz-adv-x="379" 
d="M191 -10q-44 0 -79 2t-52 6q-16 3 -25.5 15t-9.5 30q0 16 8.5 27.5t25.5 17.5q13 4 16.5 5.5t6.5 3.5q7 4 10 11.5t4 22.5q1 20 1.5 46.5t0.5 92.5v70t-1 32q-1 12 -5 19t-14 12q-6 3 -11.5 4t-15.5 2q-18 2 -28 12.5t-10 27.5q0 19 14.5 36.5t41.5 31.5q37 18 68.5 28.5
t56.5 12.5q21 2 36 -0.5t28 -10.5q17 -11 25 -29.5t8 -45.5q0 -28 -0.5 -59.5t-0.5 -84.5q-1 -30 -1 -42v-20v-93t1 -39q0 -14 3.5 -22t10.5 -13l5 -2.5t9 -3.5q3 -2 5 -2.5t4 -1.5q16 -8 23.5 -18.5t7.5 -25.5q0 -18 -9.5 -30.5t-26.5 -16.5q-20 -4 -51.5 -6t-79.5 -2z
M294 722q0 -49 -51.5 -85t-117.5 -36q-41 0 -65.5 21t-24.5 55q0 49 50.5 86.5t111.5 38.5q48 0 72.5 -20t24.5 -60z" />
    <glyph glyph-name="j" unicode="j" horiz-adv-x="349" 
d="M96 222v64.5v43.5q0 35 -4.5 50.5t-15.5 21.5q-3 2 -7 3t-19 4q-19 3 -28.5 13t-9.5 27q0 15 8 27.5t25 23.5q16 10 38.5 21t50.5 23q24 9 43 13.5t36 4.5q41 0 59.5 -21t18.5 -69v-77.5t-1 -104.5q-1 -60 -1 -93v-66q0 -36 2 -68.5t8 -79.5q4 -34 5 -51t1 -34
q0 -80 -60 -128t-159 -48q-82 0 -125 26.5t-43 77.5q0 37 27 64t66 27q24 0 41 -6.5t35 -27.5q11 -13 18.5 -17t16.5 -4q14 0 22 8.5t8 22.5q0 11 -3 21t-15 29q-23 40 -31 77.5t-8 87.5v46.5t1 67.5zM292 722q0 -49 -51.5 -85t-117.5 -36q-41 0 -65 21t-24 55q0 49 50 86.5
t111 38.5q48 0 72.5 -20t24.5 -60z" />
    <glyph glyph-name="k" unicode="k" horiz-adv-x="758" 
d="M199 -10q-45 0 -75 1t-47 3q-23 3 -35 15.5t-12 32.5q0 17 8.5 28.5t25.5 16.5q1 0 12 3t16 6q6 3 9 10t3 19v126v126v178.5t-1 62.5q0 17 -5 26t-16 13q-7 2 -13.5 4t-15.5 3q-19 3 -29 13.5t-10 28.5t12.5 32t37.5 24q32 12 67 20t70 11q20 2 34 0.5t25 -7.5
q18 -8 27.5 -28.5t9.5 -51.5v-77.5t-1 -129.5q-1 -77 -1 -112v-62q0 -10 3.5 -14t12.5 -4q4 0 9 2t12 6q10 7 20.5 15t40.5 34q11 10 21.5 21t20.5 23q4 5 6 10t2 11q0 7 -3 12t-10 8q-2 1 -9 2.5t-19 4.5q-15 3 -22.5 13.5t-7.5 27.5q0 26 18.5 40t58.5 18q23 2 50 2.5
t61 0.5q36 0 64.5 -1t46.5 -3q25 -3 37 -14.5t12 -32.5q0 -13 -5 -21.5t-18 -16.5q-4 -3 -11.5 -5.5t-9.5 -3.5q-11 -5 -16 -8t-11 -7q-2 -1 -22 -15.5t-32 -25.5q-10 -9 -22 -19t-35 -30q-11 -10 -15 -16t-4 -14q0 -6 5 -15t19 -29q6 -9 13.5 -19.5t23.5 -32.5
q30 -43 45 -64t28 -37q6 -8 11 -12t10 -7q8 -5 14.5 -7.5t13.5 -5.5q17 -6 25.5 -17.5t8.5 -29.5q0 -21 -13 -35t-38 -18q-24 -3 -54.5 -4.5t-80.5 -1.5q-40 0 -66.5 1.5t-47.5 4.5q-19 3 -29.5 16t-10.5 32q0 15 6.5 24.5t20.5 15.5q5 2 7.5 3.5t4.5 3.5q5 5 6 10.5
t-2 13.5q-8 22 -21.5 45.5t-36.5 53.5q-7 9 -11.5 13.5t-10.5 6.5q-4 2 -8.5 2t-8.5 -2q-8 -3 -15 -8t-20 -17q-4 -4 -5.5 -8t-2.5 -10q-2 -14 -2.5 -27.5t-0.5 -31.5q0 -14 2 -22t7 -13q2 -2 6.5 -4.5t12.5 -5.5q15 -6 22.5 -17t7.5 -26q0 -20 -12.5 -33t-34.5 -16
q-17 -3 -37.5 -4t-70.5 -1z" />
    <glyph glyph-name="l" unicode="l" horiz-adv-x="386" 
d="M199 -10q-44 0 -73.5 1t-47.5 3q-23 3 -34.5 15.5t-11.5 32.5q0 17 8.5 28.5t24.5 16.5q10 3 14 5l8 4q9 5 11.5 12t3.5 21q1 24 1.5 71t0.5 177v176.5t-1 64.5q-1 18 -5.5 26.5t-15.5 12.5q-7 2 -13.5 4t-15.5 3q-19 4 -29 14.5t-10 27.5q0 18 12.5 32t37.5 24
q34 12 69.5 20t67.5 11q19 2 33.5 0.5t26.5 -7.5q18 -8 27.5 -28.5t9.5 -51.5v-67.5t-1 -110.5q-1 -67 -1 -99v-57v-176t1 -64q0 -14 3 -22.5t10 -12.5q6 -3 12 -5.5t12 -4.5q16 -5 23.5 -15.5t7.5 -27.5q0 -20 -12.5 -33t-34.5 -16q-24 -3 -50.5 -4t-68.5 -1z" />
    <glyph glyph-name="m" unicode="m" horiz-adv-x="1073" 
d="M300 462q36 55 77 78.5t95 23.5q55 0 91.5 -25t59.5 -80q1 -4 3.5 -6.5t5.5 -2.5q2 0 4.5 2t5.5 5q38 58 81 82.5t100 24.5q39 0 70 -14.5t53 -43.5q17 -21 26 -52.5t12 -75.5q1 -26 2 -54.5t1 -58.5v-85.5t1 -45.5q0 -15 2.5 -23t8.5 -12q4 -3 9 -5t12 -5
q17 -6 24.5 -17t7.5 -27q0 -18 -10 -30t-27 -16q-22 -5 -51.5 -7t-72.5 -2q-44 0 -73 2t-46 7q-16 4 -24.5 15.5t-8.5 28.5q0 15 7 25t23 18l10.5 6t5.5 4q5 5 7 11t3 23q1 14 1 41.5v93.5q0 57 -5.5 84t-17.5 43q-12 14 -26.5 20.5t-34.5 6.5t-35.5 -9t-24.5 -26
q-7 -14 -11 -46t-4 -81v-61.5v-61.5q1 -13 4 -21.5t10 -13.5q5 -4 8 -6t7 -4q16 -8 22.5 -18.5t6.5 -25.5q0 -18 -9 -30t-26 -16q-21 -5 -50.5 -7t-72.5 -2q-37 0 -64.5 2t-50.5 7q-17 4 -26 15t-9 29q0 14 6.5 24t22.5 18q10 5 13.5 7t5.5 4q7 7 9 14t2 20v65.5v65.5
q0 58 -5.5 86.5t-18.5 44.5q-11 15 -25 21t-35 6q-19 0 -34.5 -9t-24.5 -25q-8 -13 -12 -45.5t-4 -82.5v-64.5v-64.5q0 -12 3 -20t9 -12q3 -3 7 -6t8 -5q17 -9 22.5 -17.5t5.5 -21.5q0 -20 -10 -32t-29 -16q-20 -4 -43 -6t-82 -2q-42 0 -71.5 2t-46.5 6q-16 3 -25.5 15
t-9.5 30q0 16 8.5 27.5t24.5 17.5q10 3 16 5.5t8 3.5q8 5 11 12.5t4 21.5q1 20 1 46v86v75.5t-1 33.5q-1 13 -5.5 20.5t-14.5 10.5q-7 3 -13 4t-13 2q-18 1 -27.5 11.5t-9.5 28.5q0 20 16 38.5t44 31.5q33 15 62 24t57 12q19 2 32.5 0.5t23.5 -7.5q14 -8 21.5 -18.5
t9.5 -24.5q1 -8 1.5 -17t0.5 -23q0 -5 2.5 -8.5t5.5 -3.5t5.5 2t4.5 7z" />
    <glyph glyph-name="n" unicode="n" horiz-adv-x="732" 
d="M176 -10q-42 0 -71 2t-45 6q-16 3 -25.5 15t-9.5 30q0 16 8.5 27.5t24.5 17.5q14 5 17.5 6t6.5 3q7 4 10.5 12t4.5 22q1 26 1 77v55v76t-1 33q-1 12 -5.5 19t-15.5 12q-6 3 -12 4t-13 2q-18 1 -27.5 11.5t-9.5 28.5q0 20 16 38.5t44 31.5q29 14 60 23.5t59 12.5
q17 2 31.5 0.5t26.5 -7.5q14 -6 21.5 -17t9.5 -26q1 -8 1.5 -16.5t0.5 -22.5q0 -6 2 -9t6 -3q3 0 5 2t5 6q40 55 82.5 78.5t97.5 23.5q78 0 120 -48t45 -137l1.5 -69t0.5 -46v-83.5t1 -46.5q0 -17 2.5 -24.5t7.5 -10.5q4 -3 8.5 -5t10.5 -5q17 -6 24.5 -17t7.5 -27
q0 -18 -9.5 -30.5t-26.5 -16.5q-22 -4 -54 -6t-73 -2q-55 0 -80 2t-41 6t-25 16t-9 29q0 15 6.5 25t23.5 18q6 3 10 5.5t8 5.5q8 6 11.5 14t3.5 19v61.5v60.5q0 62 -6 92.5t-19 46.5q-12 15 -27 22t-35 7q-21 0 -36.5 -8t-25.5 -23q-9 -14 -13 -45t-4 -87v-64.5v-64.5
q0 -10 2.5 -17.5t8.5 -13.5q4 -4 8 -6.5t9 -4.5q15 -6 22 -15.5t7 -24.5q0 -19 -9.5 -31t-28.5 -16q-31 -5 -61 -7t-72 -2z" />
    <glyph glyph-name="o" unicode="o" horiz-adv-x="668" 
d="M639 273q0 -132 -87 -211t-227 -79q-136 0 -216.5 77t-80.5 209q0 131 90 213t225 82q133 0 214.5 -79.5t81.5 -211.5zM218 314q0 -76 43.5 -134.5t100.5 -58.5q42 0 66 28.5t24 80.5q0 77 -43 136.5t-100 59.5q-42 0 -66.5 -30t-24.5 -82z" />
    <glyph glyph-name="p" unicode="p" horiz-adv-x="703" 
d="M196 -258q-46 0 -77.5 1.5t-54.5 4.5q-20 3 -30.5 15.5t-10.5 33.5q0 15 8.5 26.5t25.5 18.5l13.5 6t9.5 5q8 4 12 12t5 20q2 44 3 102t1 183q0 84 -0.5 130.5t-2.5 71.5q-1 13 -5.5 20.5t-14.5 10.5q-9 2 -14 3t-11 2q-19 2 -29 12.5t-10 28.5q0 20 16 38t46 33
q34 15 65.5 24t58.5 11q24 2 40 -1t28 -13q12 -9 18 -23t9 -36q2 -15 2.5 -19t1.5 -7q2 -5 6 -5t7 6q23 51 65 79t97 28q94 0 147.5 -76.5t53.5 -208.5q0 -147 -56 -223t-165 -76q-44 0 -80 16.5t-62 47.5q-2 3 -4.5 4.5t-4.5 1.5q-4 0 -6 -2.5t-2 -7.5v-76v-76
q0 -14 3.5 -21.5t11.5 -10.5l7.5 -2.5t12.5 -3.5l7.5 -1.5t4.5 -1.5q20 -6 30.5 -18.5t10.5 -31.5q0 -21 -12.5 -34t-35.5 -15q-24 -3 -58 -4.5t-81 -1.5zM295 178q0 -35 23.5 -56.5t59.5 -21.5q48 0 74 37.5t26 105.5q0 82 -27.5 126t-77.5 44q-36 0 -57 -23.5t-21 -63.5
v-74v-74z" />
    <glyph glyph-name="q" unicode="q" horiz-adv-x="664" 
d="M587 -241q-30 -8 -50.5 -11t-39.5 -3q-48 0 -70 22t-22 73v71.5v71.5v38v38q0 5 -1.5 7t-5.5 2q-3 0 -4.5 -1.5l-5.5 -5.5q-25 -39 -62.5 -58.5t-87.5 -19.5q-99 0 -153.5 72t-55.5 202q-1 142 60 224.5t167 82.5q46 0 81 -19t63 -61q4 -6 6.5 -8t5.5 -2q4 0 7 2t7 7
q11 14 19 23t17 20q18 20 35.5 29t39.5 9q30 0 46 -20t16 -57q0 -8 -0.5 -18t-0.5 -33q-1 -26 -1.5 -38t-0.5 -22v-160v-160q0 -74 0.5 -100.5t1.5 -46.5q1 -15 5 -22.5t14 -10.5q3 -1 7.5 -2t12.5 -2q5 -1 7 -1.5t4 -0.5q19 -4 28.5 -14t9.5 -27q0 -15 -8 -27t-24 -20
q-14 -6 -30 -11.5t-37 -11.5zM225 286q0 -77 28.5 -120t77.5 -43q36 0 55 19.5t19 55.5v76v76t-21.5 59t-58.5 21q-47 0 -73.5 -38t-26.5 -106z" />
    <glyph glyph-name="r" unicode="r" horiz-adv-x="561" 
d="M434 565q47 0 76 -32.5t29 -84.5q0 -54 -28 -88.5t-73 -34.5q-27 0 -51 9.5t-44 27.5q-3 2 -7.5 6.5l-6.5 6.5q-5 4 -8.5 5t-8.5 0q-9 -2 -14 -13.5t-6 -34.5q-1 -30 -1.5 -48.5t-0.5 -35.5v-78t1 -36q1 -14 5.5 -22t14.5 -11t24.5 -7t17.5 -5q14 -4 22 -15.5t8 -28.5
q0 -20 -12.5 -33t-35.5 -16q-24 -3 -55 -4.5t-86 -1.5q-45 0 -81.5 2t-52.5 6q-16 3 -25.5 15t-9.5 30q0 17 8.5 28t25.5 17q13 4 16.5 5.5t6.5 3.5q8 5 11.5 12t4.5 22q1 20 1 44.5v87.5v75.5t-1 33.5q-1 11 -4 17t-12 12q-3 2 -7.5 3.5t-22.5 4.5t-27.5 13t-9.5 27
q-1 19 15 37t45 33q30 15 59 24t59 12q18 2 30 1.5t22 -3.5q13 -4 21.5 -14t11.5 -25q4 -17 5.5 -27.5t1.5 -18.5q1 -10 7.5 -11.5t10.5 8.5q14 30 29 49.5t33 31.5q15 9 32.5 14t36.5 5z" />
    <glyph glyph-name="s" unicode="s" horiz-adv-x="576" 
d="M149 -2q-6 -9 -15 -14t-22 -5q-15 0 -26 8t-19 24q-10 22 -15.5 38t-9.5 33q-5 21 -7.5 38.5t-3.5 36.5q-1 28 12 45.5t36 17.5q15 0 29 -8t27 -25q17 -20 27.5 -32t15.5 -17q26 -26 50 -37.5t50 -11.5q25 0 39 12.5t14 34.5q0 23 -19 37.5t-85 37.5l-49 17
q-72 23 -106 62.5t-34 97.5q0 81 57.5 128t151.5 47q26 0 50 -3.5t59 -13.5q20 -6 27 -7.5t12 -1.5q6 0 11 2.5t14 12.5q10 11 18.5 15t20.5 4q18 0 31 -11t21 -32q8 -20 12.5 -42.5t5.5 -45.5q0 -28 -1 -40t-3 -22q-3 -13 -13.5 -21t-25.5 -8t-26 6t-22 20
q-11 13 -23.5 25.5t-26.5 23.5q-29 23 -49.5 31.5t-39.5 8.5q-26 0 -40.5 -12.5t-14.5 -33.5q0 -20 21.5 -35t77.5 -32l44 -13q84 -26 119 -66.5t35 -106.5q0 -80 -59.5 -130.5t-156.5 -50.5q-26 0 -49.5 3t-78.5 19q-9 3 -15 4t-11 1q-8 0 -13 -3t-9 -10z" />
    <glyph glyph-name="t" unicode="t" horiz-adv-x="476" 
d="M433 69q-32 -40 -77 -62t-99 -22q-82 0 -121 47t-39 147v45.5t1 77.5v61v30q0 13 -4.5 17.5t-17.5 4.5h-12.5h-13.5q-22 0 -33 15t-11 44q0 23 5 37t15 23q8 7 17.5 10t21.5 3h11.5h10.5q9 0 13.5 4.5t4.5 14.5v28v28q0 15 4 25.5t14 20.5q8 8 21.5 15.5t33.5 16.5
q16 7 31.5 12t27.5 7q7 1 13.5 1t10.5 -1q12 -2 18 -11t6 -23v-56.5v-56.5q0 -13 5 -18t16 -5h48h48q26 0 37.5 -17.5t7.5 -50.5q-4 -32 -19 -49t-38 -17h-38h-38q-17 0 -23 -6.5t-6 -24.5v-45q0 -37 0.5 -78.5t1.5 -72.5q2 -36 13.5 -52t35.5 -16q12 0 22.5 4.5t20.5 13.5
q8 7 14.5 10t13.5 3q17 0 29.5 -11.5t12.5 -27.5q0 -11 -4 -22t-12 -21z" />
    <glyph glyph-name="u" unicode="u" 
d="M598 550q18 -7 27 -24.5t9 -43.5v-96.5v-97.5v-89.5t1 -40.5q1 -18 4.5 -27t13.5 -12q5 -4 11 -6.5t13 -3.5q18 -3 26.5 -13t8.5 -27q0 -18 -10.5 -31t-33.5 -23q-17 -7 -33.5 -12.5t-32.5 -9.5q-17 -4 -31.5 -6t-31.5 -2q-21 0 -39 8.5t-33 26.5q-7 8 -11 19t-7 29
q-1 6 -3 8.5t-5 2.5q-4 0 -6.5 -1t-4.5 -4q-41 -51 -79 -70t-90 -19q-81 0 -125 48t-46 140q-1 23 -1 48.5t1 71.5q1 38 1 53t-1 26q-1 13 -6.5 21t-16.5 11q-7 2 -13 3l-12 2q-18 2 -27.5 12.5t-9.5 27.5q0 19 15.5 37t43.5 31q36 16 66.5 25.5t57.5 12.5q20 2 34 1t25 -5
q18 -8 28 -25.5t10 -43.5v-37t-1 -71q-1 -43 -1 -61v-30q0 -35 3.5 -62t10.5 -45q7 -25 25 -38.5t45 -13.5q25 0 40.5 10t22.5 31q7 22 10 48t3 63q0 27 -0.5 54t-1.5 42q-1 12 -6 19.5t-15 10.5q-6 2 -12.5 3.5t-14.5 2.5q-18 2 -27.5 13t-9.5 28q0 18 15 36t42 31
q39 17 69.5 26.5t56.5 12.5q19 2 33.5 1t25.5 -6z" />
    <glyph glyph-name="v" unicode="v" horiz-adv-x="708" 
d="M431 1q-13 -10 -28.5 -14.5t-37.5 -4.5q-33 0 -50.5 3.5t-30.5 12.5t-24 24.5t-32 58.5q-30 68 -66.5 158.5t-67.5 172.5q-7 17 -12 23.5t-12 10.5l-8.5 4.5t-14.5 6.5q-17 6 -25.5 17.5t-8.5 29.5t12.5 30.5t33.5 15.5q35 4 67.5 6t72.5 2q39 0 71.5 -1.5t61.5 -5.5
q19 -3 30 -15.5t11 -31.5q0 -17 -7.5 -28t-25.5 -18q-3 -1 -5.5 -2t-8.5 -3l-10.5 -4.5t-5.5 -2.5q-8 -5 -10 -13.5t2 -20.5q24 -65 45 -120.5t39 -100.5q4 -7 6.5 -9t6.5 -2t7.5 3t6.5 9q23 59 41 107.5t33 91.5q3 9 5 17t3 15q1 10 -2 16t-10 9q-5 2 -12 4.5t-19 6.5
q-17 5 -25 16t-8 29q0 20 11.5 32.5t34.5 15.5q20 3 45 4.5t58 1.5q26 0 48.5 -1.5t38.5 -3.5q20 -4 30 -16t10 -31q0 -16 -7.5 -28t-23.5 -20q-12 -6 -15 -8t-5 -4q-7 -7 -11 -13.5t-8 -16.5q-24 -62 -54.5 -136t-80.5 -190q-18 -41 -30.5 -59.5t-28.5 -29.5z" />
    <glyph glyph-name="w" unicode="w" horiz-adv-x="1052" 
d="M396 -7q-12 -6 -25 -8.5t-34 -2.5q-26 0 -40 2.5t-24 8.5q-14 9 -25.5 28t-29.5 63q-52 130 -80.5 204t-47.5 129q-3 11 -8 17.5t-13 11.5q-5 3 -10.5 5.5t-12.5 5.5q-17 6 -25 17.5t-8 29.5t12 30.5t32 15.5q35 4 67.5 6t73.5 2q37 0 65 -2t55 -6q20 -4 30.5 -16
t10.5 -30q0 -17 -7.5 -28.5t-22.5 -17.5q-2 -1 -5 -2l-9 -3q-8 -2 -11 -3.5l-5 -2.5q-6 -3 -8.5 -9t-0.5 -14q0 -3 1 -7t6 -18q13 -40 32 -92t43 -115q2 -6 5 -8.5t7 -2.5q5 0 7.5 3t5.5 10q23 64 39 111t28 88q2 6 3 11t2 14q2 10 -1 17t-10 10q-5 3 -13 6.5t-15 5.5
q-15 6 -22 16.5t-7 28.5q0 19 10.5 31.5t30.5 16.5q18 4 50 6t77 2q40 0 69.5 -2t51.5 -6q17 -3 26.5 -15t9.5 -31q0 -17 -7 -28.5t-22 -17.5q-3 -1 -16 -6t-17 -8q-6 -3 -8 -8.5t0 -13.5q1 -4 2 -9t4 -12q12 -37 28.5 -84.5t43.5 -122.5q3 -7 5.5 -9.5t5.5 -2.5t5.5 2.5
t6.5 10.5q18 49 36 100.5t33 101.5q2 7 3.5 13t2.5 12q1 9 -1.5 15t-8.5 9q-10 6 -16 9t-9 4q-16 6 -22.5 16t-6.5 29q0 21 11 32.5t34 15.5q21 3 43.5 4.5t53.5 1.5q28 0 50 -1t39 -4q19 -3 29.5 -15.5t10.5 -31.5q0 -16 -7 -27t-23 -18q-10 -5 -14.5 -7.5t-8.5 -5.5
q-7 -5 -12 -13t-9 -19q-63 -172 -83 -222t-37 -92q-19 -47 -32 -69.5t-29 -34.5q-12 -9 -27 -12.5t-37 -3.5q-25 0 -43.5 4t-29.5 12q-15 12 -27 34t-27 67q-20 51 -31.5 82t-19.5 55q-3 7 -5.5 10t-6.5 3t-7.5 -3t-5.5 -10q-3 -8 -7 -18t-11 -29q-11 -30 -17.5 -46.5
t-13.5 -32.5q-25 -59 -40.5 -84t-31.5 -33z" />
    <glyph glyph-name="x" unicode="x" horiz-adv-x="748" 
d="M267 -6q-22 -2 -46.5 -3t-63.5 -1q-33 0 -53.5 1t-38.5 3q-20 2 -30.5 13.5t-10.5 30.5q0 13 5.5 22.5t17.5 16.5l10 6t13 6q10 5 18.5 11t20.5 16q14 12 27.5 25.5t28.5 29.5q19 19 37 38t37 42q8 9 7 20t-10 22q-10 12 -23 28t-33 39q-15 17 -29.5 32.5t-31.5 32.5
q-9 8 -19 14t-23 11q-11 4 -18 7t-9 4q-9 5 -14 14t-5 20q0 24 15 38t45 19q26 3 56.5 4.5t80.5 1.5q37 0 64 -1.5t51 -4.5q21 -3 32 -15t11 -32q0 -13 -5 -22t-15 -15q-3 -2 -5.5 -3.5t-8.5 -5.5q-7 -5 -9.5 -11t0.5 -13q4 -10 11 -20.5t16 -22.5q7 -9 15 -18.5t16 -18.5
q8 -8 13.5 -9.5t11.5 2.5q8 6 16 14.5t18 19.5q10 12 16.5 22.5t11.5 21.5q3 7 2 12.5t-6 9.5q-2 2 -8 4.5t-15 5.5q-17 6 -24.5 16.5t-7.5 28.5q0 20 11.5 32.5t34.5 16.5q22 3 45.5 4.5t55.5 1.5q34 0 55 -1t37 -3q23 -3 35.5 -15.5t12.5 -32.5q0 -15 -5.5 -25.5
t-15.5 -14.5q-2 -1 -5 -2t-10 -3q-4 -1 -6.5 -1.5t-4.5 -1.5q-8 -2 -14.5 -6.5t-14.5 -12.5q-12 -12 -29.5 -31.5t-20.5 -23.5q-13 -14 -27.5 -31t-49.5 -58q-8 -9 -8 -18.5t9 -20.5q33 -39 52.5 -61.5t25.5 -28.5q19 -20 30 -31.5t20 -20.5q7 -7 13.5 -11t14.5 -7
q2 -1 4 -1.5l6 -1.5q6 -2 8.5 -3t4.5 -2q10 -5 15.5 -14.5t5.5 -23.5q0 -21 -14 -34t-43 -19q-25 -5 -58 -7t-95 -2q-32 0 -56 1.5t-44 4.5q-19 3 -28.5 14.5t-9.5 29.5q0 15 5.5 26t15.5 16q8 5 11.5 7t6.5 5q6 6 7 11.5t-3 11.5q-5 10 -12.5 20t-16.5 21q-13 16 -18.5 22
t-10.5 10q-8 7 -14 8.5t-13 -2.5t-15.5 -12t-20.5 -22q-14 -17 -20 -25.5t-9 -16.5q-2 -6 0 -11t8 -9q7 -5 11.5 -7t9.5 -5q18 -9 24 -18t6 -24q0 -20 -13.5 -33.5t-37.5 -16.5z" />
    <glyph glyph-name="y" unicode="y" horiz-adv-x="733" 
d="M379 -168q-45 -56 -90 -79.5t-104 -23.5q-72 0 -115 33.5t-43 89.5q0 40 27.5 68t69.5 28q25 0 42.5 -7.5t33.5 -26.5q1 -1 18 -23.5t36 -22.5q22 0 36.5 16t14.5 42q0 18 -7 42.5t-40 99.5q-13 29 -50.5 115.5t-99.5 229.5q-7 15 -12.5 22.5t-12.5 10.5q-7 4 -13 7
t-12 4q-16 4 -24.5 16t-8.5 30q0 19 12 31.5t33 15.5q38 5 68.5 6.5t73.5 1.5q41 0 72.5 -2t60.5 -6q18 -3 28.5 -15t10.5 -30q0 -17 -8 -28.5t-24 -18.5q-13 -5 -21 -8t-11 -5q-7 -5 -8.5 -13t2.5 -18q2 -6 6 -16.5t5 -11.5q18 -50 41 -107.5t40 -95.5q2 -6 5 -8t7 -2
t7.5 3t5.5 8q15 37 35 92t36 107q4 13 7 23t4 18t-1.5 14.5t-8.5 9.5q-6 4 -13.5 7t-15.5 5q-15 4 -23 15t-8 29q0 20 11 32t34 16q22 3 46.5 4.5t58.5 1.5q25 0 44 -1.5t41 -4.5q21 -4 31.5 -15t10.5 -31q0 -17 -8.5 -29.5t-24.5 -18.5q-8 -3 -12 -5.5t-10 -6.5
q-5 -3 -9 -9t-10 -21q-53 -137 -89 -226t-54 -131q-42 -92 -69.5 -142.5t-54.5 -84.5z" />
    <glyph glyph-name="z" unicode="z" horiz-adv-x="605" 
d="M269 -7q-53 -1 -79.5 -1h-47.5q-60 0 -85.5 16t-25.5 56q0 20 10 40t32 47q30 35 61 68.5t66 67.5q18 19 39.5 41t64.5 65q14 13 20 22.5t6 18.5q0 6 -3 10t-8 5q-7 2 -18 3t-26 1q-22 0 -37 -1.5t-26 -4.5q-10 -3 -18.5 -9.5t-18.5 -21.5l-22.5 -34.5t-14.5 -20.5
q-11 -13 -23.5 -19.5t-28.5 -6.5q-26 0 -38.5 15.5t-10.5 45.5t10.5 62t21.5 62q10 23 21.5 32.5t28.5 9.5q8 0 15.5 -0.5t21.5 -3.5q17 -3 28 -4t24 -1q26 0 54 0.5t82 1.5q45 0 67 0.5t40 0.5q59 0 88.5 -19.5t29.5 -57.5q0 -28 -16 -56t-55 -71q-7 -8 -41 -43t-95 -98
q-27 -29 -41.5 -45t-26.5 -30q-5 -6 -7.5 -11.5t-1.5 -11.5q1 -8 8 -12t20 -4h12.5h12.5q21 0 39.5 2.5t32.5 6.5q11 3 19.5 10.5t19.5 23.5q2 3 4.5 7t6.5 11q7 10 10.5 15.5t6.5 9.5q12 17 22.5 23.5t24.5 6.5q26 -1 39 -18t11 -47q-1 -32 -8.5 -64t-20.5 -63
q-7 -18 -19.5 -27t-30.5 -9q-11 0 -21 1t-27 3q-18 3 -30 4t-25 1h-45t-78 -1z" />
    <glyph glyph-name="braceleft" unicode="{" horiz-adv-x="486" 
d="M410 -291q-24 -4 -53 -5.5t-72 -1.5q-91 0 -135 38.5t-44 117.5q0 22 0.5 47t2.5 72q1 39 1.5 57t0.5 33q0 51 -15 82t-53 55q-13 8 -19 16.5t-6 18.5t6.5 18.5t19.5 15.5q36 20 51.5 47t15.5 72q0 16 -0.5 34.5t-2.5 58.5q-2 49 -3 76.5t-1 53.5q0 85 43 125t138 40
q55 0 81.5 -2t46.5 -6q30 -7 44.5 -28t14.5 -58q0 -32 -13 -48t-38 -16q-6 0 -12 0.5t-17 1.5q-15 2 -24 2.5t-19 0.5q-33 0 -49.5 -19t-16.5 -58q0 -17 0.5 -36.5t1.5 -56.5q1 -35 1.5 -53t0.5 -33q0 -42 -14 -69t-47 -47q-11 -6 -13.5 -9t-2.5 -7q0 -5 3 -8t13 -8
q32 -18 47 -48t15 -75q0 -13 -0.5 -29.5t-1.5 -51.5l-1.5 -58.5t-0.5 -36.5q0 -34 16.5 -51.5t48.5 -17.5q10 0 19 0.5t24 2.5q11 1 17 1.5t12 0.5q25 0 38.5 -16t13.5 -47q0 -39 -15.5 -61t-47.5 -27z" />
    <glyph glyph-name="bar" unicode="|" horiz-adv-x="314" 
d="M253 698q3 -45 4.5 -142.5t1.5 -246.5q0 -215 -2 -328t-6 -161q-4 -44 -27.5 -65.5t-67.5 -21.5q-46 0 -69 19.5t-26 64.5q-3 44 -4.5 157.5t-1.5 290.5q0 194 2 288.5t6 143.5q3 44 27.5 65.5t68.5 21.5q46 0 68.5 -20t25.5 -66z" />
    <glyph glyph-name="braceright" unicode="}" horiz-adv-x="486" 
d="M76 773q24 4 53 5.5t72 1.5q91 0 135 -38.5t44 -117.5q0 -22 -0.5 -47t-2.5 -72q-1 -39 -1.5 -57t-0.5 -33q0 -51 15 -82t53 -55q13 -8 19 -16.5t6 -18.5t-6.5 -18.5t-19.5 -15.5q-36 -20 -51.5 -47t-15.5 -72q0 -16 0.5 -34.5t2.5 -58.5q2 -49 3 -76.5t1 -53.5
q0 -85 -43 -125t-138 -40q-55 0 -81.5 2t-46.5 6q-30 7 -44.5 28t-14.5 58q0 32 13 48t38 16q6 0 12 -0.5t17 -1.5q15 -2 24 -2.5t19 -0.5q33 0 49.5 19t16.5 58q0 17 -0.5 36.5t-1.5 56.5q-1 35 -1.5 53t-0.5 33q0 42 14 69t47 47q11 6 13.5 9t2.5 7q0 5 -3 8t-13 8
q-32 18 -47 48t-15 75q0 13 0.5 29.5t1.5 51.5l1.5 58.5t0.5 36.5q0 34 -16.5 51.5t-48.5 17.5q-10 0 -19 -0.5t-24 -2.5q-11 -1 -17 -1.5t-12 -0.5q-25 0 -38.5 16t-13.5 47q0 39 15.5 61t47.5 27z" />
    <glyph glyph-name="asciitilde" unicode="~" horiz-adv-x="453" 
d="M33 264zM100 290q-4 -14 -12 -20t-22 -6q-16 0 -24 8.5t-7 24.5q3 73 37 112t95 39q22 0 42.5 -8t51.5 -32q22 -18 34 -23t23 -5q20 0 30.5 9.5t16.5 32.5q4 15 12.5 21t24.5 6q15 0 22 -8.5t6 -24.5q-3 -75 -34.5 -113t-91.5 -38q-29 0 -53 8.5t-55 35.5
q-19 16 -29 20.5t-20 4.5q-19 0 -29.5 -9.5t-17.5 -34.5z" />
    <glyph glyph-name="exclamdown" unicode="&#xa1;" horiz-adv-x="353" 
d="M146 250q5 10 12 15t16 5t16 -5t12 -15q29 -55 59.5 -168.5t30.5 -180.5q1 -61 -35 -94t-104 -33q-52 0 -78 27t-25 80q2 84 32.5 197.5t63.5 171.5zM46 429q0 56 42.5 95.5t102.5 39.5q53 0 84.5 -27.5t30.5 -73.5q-1 -54 -44 -95t-101 -42q-50 -1 -82.5 28t-32.5 75z
" />
    <glyph glyph-name="cent" unicode="&#xa2;" horiz-adv-x="617" 
d="M371 8q0 -24 -14.5 -35t-44.5 -11t-44.5 11t-14.5 35q0 4 -0.5 9t-0.5 14t-0.5 13.5t-0.5 8.5q0 8 -3.5 12.5t-12.5 7.5q-97 22 -151.5 95t-54.5 180q0 110 55 186t151 101q9 2 12.5 6.5t4.5 13.5v27t1 16q1 25 15.5 35.5t43.5 10.5q30 0 44 -10.5t15 -35.5q1 -8 1 -17.5
v-28.5q1 -8 3.5 -12t9.5 -6q9 -2 17.5 -5t15.5 -6q17 -7 21 -8t8 -1q8 0 13.5 3.5t9.5 10.5q4 10 14 15.5t25 5.5q16 0 28 -9.5t18 -26.5q5 -18 10 -40t9 -49q4 -37 6 -59.5t2 -40.5q1 -16 -7.5 -28.5t-23.5 -17.5q-14 -6 -27.5 -5t-24.5 9q-16 12 -42 42t-36 40
q-25 26 -48.5 37.5t-49.5 11.5q-48 0 -77.5 -32.5t-29.5 -87.5q0 -76 49 -128t122 -52q37 0 65 12.5t54 41.5q8 8 16 12t16 4q16 0 28 -11t12 -26q0 -6 -2.5 -14t-6.5 -18q-22 -55 -69.5 -92.5t-111.5 -50.5q-8 -2 -12 -6t-4 -12v-25.5t-1 -19.5z" />
    <glyph glyph-name="sterling" unicode="&#xa3;" horiz-adv-x="701" 
d="M218 20q-30 -23 -50 -31t-42 -8q-46 0 -72 28.5t-26 79.5t28 80t75 29q7 0 13.5 -0.5t17.5 -2.5q9 -2 13 -2.5t8 -0.5q14 0 21.5 9t7.5 26q0 10 -3.5 23.5t-12.5 35.5q-2 5 -6 7.5t-10 2.5h-45.5t-29.5 1q-24 0 -35 13t-10 39t12.5 39t34.5 13h9.5h8.5q7 0 10 4.5t1 11.5
q-9 39 -11 53t-2 27q0 109 79 173.5t210 64.5q117 0 186 -56t70 -150q1 -45 -20 -70t-59 -25q-33 0 -51.5 15.5t-21.5 44.5q-1 7 -0.5 14t2.5 19q2 11 2.5 17t-0.5 11q-5 27 -28.5 43t-59.5 16q-54 0 -88 -35.5t-36 -93.5q-1 -20 1 -37.5t7 -33.5q1 -6 4.5 -9t10.5 -3h83
t55 -1q23 0 33.5 -13t9.5 -39q-1 -27 -12 -39.5t-33 -12.5q-22 -1 -46 -1h-71q-6 0 -9 -3t-2 -10q0 -1 0.5 -3t0.5 -5q1 -7 1.5 -10t0.5 -5v-18.5t-1 -22.5q-1 -12 -1 -18t1 -12q5 -29 31 -43t75 -14q66 0 101 25t50 84q6 24 16 33.5t26 9.5q19 0 28 -14t9 -43v-18t-1 -11
q-10 -104 -64.5 -160.5t-145.5 -56.5q-42 0 -79 9.5t-84 35.5q-20 10 -28 13t-14 3q-7 0 -15.5 -4t-27.5 -18z" />
    <glyph glyph-name="currency" unicode="&#xa4;" horiz-adv-x="550" 
d="M279 432q-38 0 -61.5 -24t-23.5 -63q0 -38 22 -60t58 -22q38 0 62 24t24 63q0 38 -22.5 60t-58.5 22zM468 419q7 -21 9.5 -36t2.5 -30q0 -17 -2.5 -33.5t-10.5 -40.5q-3 -10 -4 -13.5t-1 -6.5q0 -9 19 -28.5t26 -26.5q8 -8 12 -16t4 -16q0 -21 -23.5 -43.5t-44.5 -22.5
q-8 0 -16.5 4t-15.5 11q-33 34 -41 40t-14 6q-2 0 -5 -0.5t-13 -3.5q-25 -7 -43 -10t-35 -3q-18 0 -34.5 2t-37.5 9q-8 2 -11 2.5t-5 0.5q-5 0 -12 -5t-40 -39q-7 -8 -14.5 -11.5t-16.5 -3.5q-22 0 -45 22t-23 44q0 8 3 15t10 15q31 31 37.5 39.5t6.5 15.5q0 3 -1 7t-4 13
q-6 22 -8.5 37.5t-2.5 32.5q0 16 2.5 31.5t9.5 38.5q3 10 4 13.5t1 6.5q0 8 -21.5 30t-24.5 25q-8 8 -11.5 15.5t-3.5 15.5q0 21 23 44.5t44 23.5q8 0 16.5 -4t15.5 -11q38 -38 44.5 -42.5t12.5 -4.5q2 0 5 0.5t11 3.5q25 7 43.5 10t36.5 3t34.5 -2.5t37.5 -8.5
q8 -2 10.5 -2.5t4.5 -0.5q9 0 30.5 22.5l21.5 22.5q8 8 15.5 11.5t15.5 3.5q21 0 44.5 -23t23.5 -45q0 -8 -3 -14.5t-10 -14.5q-35 -36 -39.5 -42.5t-4.5 -12.5q0 -3 1 -7t4 -13z" />
    <glyph glyph-name="yen" unicode="&#xa5;" horiz-adv-x="809" 
d="M385 -12q-51 0 -85.5 2t-59.5 7q-18 5 -27.5 18t-9.5 34q0 22 12.5 36t35.5 19q11 2 24.5 5t29.5 7q11 2 16.5 6t6.5 11q2 6 2.5 11.5t0.5 11.5q0 5 -2.5 7.5t-7.5 2.5q-9 0 -51 -0.5t-70 0.5q-25 1 -36 12t-10 32q1 22 12.5 32.5t35.5 11.5q21 1 45 1h69q6 0 8 3t1 9
q0 2 -0.5 3.5t-0.5 5.5l-1.5 4.5t-0.5 3.5q-1 4 -4 5.5t-8 1.5h-67t-43 1q-24 0 -35.5 11t-10.5 32q1 22 12.5 33t34.5 11h20.5h20.5q7 0 8.5 4t-2.5 9q-10 14 -22 30.5t-36 50.5q-37 50 -54.5 74.5t-31.5 43.5q-7 10 -13 15t-15 7q-2 1 -11.5 3.5t-15.5 5.5q-16 4 -25 16.5
t-9 29.5q0 22 12.5 36t36.5 17q38 4 74.5 6t74.5 2q39 0 77.5 -1.5t76.5 -4.5q23 -3 34.5 -15.5t11.5 -34.5q0 -18 -12 -31t-32 -17q-20 -5 -30.5 -9t-16.5 -10q-6 -4 -7 -10.5t4 -14.5q12 -21 28 -45.5t31 -46.5q12 -19 24.5 -36.5t24.5 -32.5q5 -6 8.5 -8t7.5 -2t8 2.5
t9 8.5q23 31 36 49.5t24 37.5q20 32 31 52.5t18 35.5q3 10 -1.5 16.5t-16.5 8.5q-16 1 -22.5 2t-12.5 2q-20 4 -30.5 16.5t-10.5 32.5q0 21 13.5 34.5t38.5 16.5q25 2 53 3t64 1q23 0 46 -1t58 -3q22 -2 35 -16t13 -35q0 -19 -10 -33t-27 -19q-5 -2 -11 -5t-11 -6
q-9 -4 -17 -11.5t-17 -20.5q-53 -76 -85.5 -122.5t-43.5 -63.5q-4 -6 -2 -10t9 -4h28.5h28.5q25 0 35 -10.5t9 -33.5q-1 -22 -11.5 -32.5t-33.5 -11.5h-58h-58q-5 0 -7.5 -2t-3.5 -7v-4t-1 -6v-4.5v-2.5q-1 -5 1.5 -7.5t7.5 -2.5h74t47 -1q25 -1 34.5 -11.5t8.5 -32.5
t-12 -33t-33 -11h-58.5h-58.5q-5 0 -7.5 -2t-2.5 -7q0 -6 1 -12l2 -12q1 -7 6 -11t14 -6q4 -1 9 -2l15 -3l12 -1.5t7 -1.5q22 -4 33 -17t11 -36q0 -25 -15 -39t-47 -20q-37 -4 -80 -6t-93 -2z" />
    <glyph glyph-name="brokenbar" unicode="&#xa6;" horiz-adv-x="310" 
d="M159 784q46 0 68.5 -20t25.5 -66q1 -15 2 -42.5t1 -62.5q0 -61 -1.5 -116t-3.5 -82q-4 -44 -27.5 -65t-67.5 -21q-47 0 -69.5 19t-25.5 64q-1 19 -2 55t-1 82q0 51 1.5 96.5t3.5 71.5q3 44 27.5 65.5t68.5 21.5zM159 209q46 0 68.5 -20t25.5 -66q1 -19 2 -52.5t1 -77.5
q0 -52 -1.5 -100t-3.5 -73q-4 -44 -27.5 -65.5t-67.5 -21.5q-46 0 -69 19.5t-26 64.5q-1 16 -2 45.5t-1 65.5q0 59 1.5 112t3.5 82q3 44 27.5 65.5t68.5 21.5z" />
    <glyph glyph-name="section" unicode="&#xa7;" horiz-adv-x="605" 
d="M166 -116q-6 -10 -15.5 -15t-22.5 -5q-18 0 -31.5 11t-20.5 33q-7 19 -11 42t-5 46t0 37.5t3 25.5q2 13 12.5 20.5t26.5 7.5q15 0 25 -5.5t22 -20.5q11 -14 24 -26.5t27 -22.5q31 -24 50.5 -32.5t38.5 -8.5q26 0 41 12.5t15 34.5q0 20 -21.5 35t-77.5 32l-44 13
q-93 29 -129 68.5t-36 106.5q0 47 23.5 85t65.5 58q7 3 7.5 7.5t-5.5 9.5q-31 22 -46 52.5t-15 71.5q0 81 55.5 128t146.5 47q30 0 57 -4t52 -13q20 -6 27 -7.5t12 -1.5q7 0 12.5 3t12.5 12q8 11 17 15.5t22 4.5q18 0 30.5 -11t20.5 -33q8 -21 12 -43.5t5 -44.5
q1 -21 0.5 -35.5t-2.5 -26.5q-3 -13 -14 -21t-27 -8q-14 0 -24 5.5t-23 21.5q-14 16 -26.5 28t-23.5 20q-31 24 -51 32.5t-39 8.5q-25 0 -40 -12.5t-15 -33.5q0 -20 21.5 -35t76.5 -32l45 -14q92 -27 128.5 -67.5t36.5 -107.5q0 -46 -24 -84t-66 -58q-7 -4 -7 -8.5t6 -9.5
q31 -23 46 -53.5t15 -70.5q0 -81 -55.5 -128t-147.5 -47q-30 0 -56 4t-53 13q-20 6 -27 7.5t-12 1.5q-6 0 -11 -2.5t-14 -12.5zM375 226q16 6 25 19t9 31q0 27 -19.5 43.5t-79.5 36.5l-59 23q-4 2 -9 2t-10 -2q-15 -7 -24 -20t-9 -30q0 -27 20 -43.5t79 -36.5l60 -23
q5 -1 9 -1t8 1z" />
    <glyph glyph-name="dieresis" unicode="&#xa8;" horiz-adv-x="521" 
d="M489 717q0 -48 -36 -78.5t-90 -30.5q-37 0 -59.5 20t-22.5 52q0 49 36 81t88 32q39 0 61.5 -20.5t22.5 -55.5zM242 717q0 -48 -35.5 -78t-89.5 -30q-37 0 -59.5 19.5t-22.5 51.5q0 49 35.5 80.5t87.5 31.5q39 0 61.5 -20t22.5 -55z" />
    <glyph glyph-name="copyright" unicode="&#xa9;" horiz-adv-x="842" 
d="M807 356q0 -167 -108.5 -274.5t-277.5 -107.5t-277.5 107.5t-108.5 274.5t108.5 274.5t277.5 107.5t277.5 -107.5t108.5 -274.5zM108 356q0 -139 87 -226.5t226 -87.5t226 87.5t87 226.5q0 140 -87 227.5t-226 87.5t-226 -87.5t-87 -227.5zM613 280q-18 -63 -69 -99
t-126 -36q-92 0 -148 55.5t-56 146.5q0 94 55.5 153t139.5 59q22 0 39 -2.5t31 -8.5q5 -2 15.5 -6t16.5 -4t10 2.5t6 7.5q5 8 11.5 11t15.5 3q10 0 16.5 -3.5t11.5 -11.5q8 -15 12.5 -28t8.5 -29q5 -22 7 -40.5t2 -35.5q0 -22 -11.5 -35t-30.5 -13q-9 0 -18 5t-18 16
q-3 3 -19.5 24.5t-29.5 33.5q-16 15 -33.5 22.5t-37.5 7.5q-38 0 -60 -24.5t-22 -65.5q0 -54 39.5 -93.5t94.5 -39.5q31 0 55 12t52 45q3 4 7.5 6t9.5 2q11 0 18 -6.5t7 -16.5q0 -3 -1 -8t-1 -6z" />
    <glyph glyph-name="ordfeminine" unicode="&#xaa;" horiz-adv-x="483" 
d="M266 363q-21 -25 -49 -37.5t-62 -12.5q-59 0 -91.5 27.5t-32.5 76.5q0 50 38.5 80t128.5 44q9 1 18.5 2.5t18.5 3.5q20 4 28 13.5t8 28.5v3q0 22 -13 35t-37 13q-19 0 -32 -9.5t-21 -30.5q-9 -24 -26 -35t-44 -11q-28 0 -46 15t-18 39q0 50 59.5 83t139.5 33
q89 0 135 -38t46 -111v-63.5v-63.5q0 -19 4.5 -28.5t15.5 -14.5q1 -1 2.5 -1.5l4.5 -1.5q5 -2 7.5 -3.5t4.5 -2.5q8 -6 12 -12.5t4 -14.5q0 -10 -5 -18.5t-17 -16.5q-15 -10 -35.5 -15t-44.5 -5q-22 0 -37.5 4.5t-26.5 14.5q-4 4 -7 8.5t-11 20.5q-2 5 -4 6.5t-5 1.5
t-4.5 -1.5zM180 441q0 -17 10.5 -26.5t29.5 -9.5q21 0 35 10.5t18 30.5l2 12t1 11v3q0 13 -3.5 17t-17.5 2l-8 -1q-7 -1 -13 -2t-13 -3q-22 -5 -31.5 -15t-9.5 -29z" />
    <glyph glyph-name="guillemotleft" unicode="&#xab;" horiz-adv-x="623" 
d="M23 43zM326 87q0 -16 -16 -30t-33 -14q-8 0 -15.5 3t-19.5 11q-22 16 -46 36t-50 44q-27 25 -53.5 52t-49.5 52q-10 12 -15 23.5t-5 23.5q0 13 4.5 24t14.5 22q34 36 57.5 60t46.5 44q26 23 49 42.5t43 34.5q11 8 20.5 11.5t19.5 3.5q18 0 32.5 -13.5t14.5 -30.5
q0 -8 -2.5 -15t-8.5 -16q-8 -12 -20.5 -27t-38.5 -45q-17 -20 -29.5 -36t-22.5 -29q-6 -8 -8.5 -15.5t-2.5 -15.5t2.5 -15t9.5 -17q8 -11 19 -25t33 -39q7 -8 14.5 -17t20.5 -26q9 -11 13 -15.5t7 -8.5q9 -13 12 -21t3 -16zM601 87q0 -16 -16 -30t-33 -14q-8 0 -15.5 3
t-19.5 11q-22 16 -46 36t-50 44q-27 25 -53.5 52t-49.5 52q-10 12 -15 23.5t-5 23.5q0 13 4.5 24t14.5 22q34 36 57.5 60t46.5 44q26 23 49 42.5t43 34.5q11 8 20.5 11.5t19.5 3.5q18 0 32.5 -13.5t14.5 -30.5q0 -8 -2.5 -15t-8.5 -16q-8 -12 -20.5 -27t-38.5 -45
q-17 -20 -29.5 -36t-22.5 -29q-6 -8 -8.5 -15.5t-2.5 -15.5t2.5 -15t9.5 -17q8 -11 19 -25t33 -39q7 -8 14.5 -17t20.5 -26q9 -11 13 -15.5t7 -8.5q9 -13 12 -21t3 -16z" />
    <glyph glyph-name="logicalnot" unicode="&#xac;" horiz-adv-x="531" 
d="M490 274q0 -27 -1 -53t-3 -33q-4 -30 -22.5 -44t-52.5 -14q-32 0 -50.5 14.5t-22.5 42.5q-4 25 -5.5 49t-1.5 51q0 6 -2.5 8t-8.5 2h-17.5h-30.5q-25 -1 -38.5 -1h-25.5q-50 0 -75.5 1t-44.5 3q-30 3 -44 21.5t-14 54.5q0 33 15.5 51.5t44.5 21.5q35 3 84 5t103 2
q79 0 104.5 -1t46.5 -4q27 -4 41.5 -20.5t16.5 -47.5q2 -30 3 -57.5t1 -51.5z" />
    <glyph glyph-name="uni00AD" unicode="&#xad;" horiz-adv-x="361" 
d="M191 340q26 0 48 -0.5t40 -2.5q31 -2 46.5 -20t15.5 -52q0 -31 -15.5 -49t-45.5 -22q-15 -2 -43.5 -3.5t-63.5 -1.5q-28 0 -51.5 1t-39.5 2q-31 2 -46.5 20t-15.5 53q0 31 16 48.5t48 21.5q24 3 50 4t57 1z" />
    <glyph glyph-name="registered" unicode="&#xae;" horiz-adv-x="842" 
d="M807 356q0 -167 -108.5 -274.5t-277.5 -107.5t-277.5 107.5t-108.5 274.5t108.5 274.5t277.5 107.5t277.5 -107.5t108.5 -274.5zM653 199q0 -19 -24 -30t-67 -11q-44 0 -64.5 21t-25.5 71q-3 24 -7.5 38t-12.5 25q-6 7 -15 11t-20 4h-4h-4.5h-5.5q-7 0 -10 -4.5t-3 -13.5
v-32v-32q0 -4 1.5 -7t5.5 -5q3 -2 7 -3.5t7 -2.5q14 -3 21.5 -10.5t7.5 -18.5q0 -13 -7.5 -21.5t-22.5 -11.5q-14 -3 -32 -4t-46 -1q-25 0 -45.5 1.5t-32.5 3.5q-13 3 -20 10t-7 17q0 8 3 14t10 9q3 2 7 4.5t8 4.5q7 5 10 11t3 15q1 14 1.5 49.5t0.5 64.5v58.5v58.5
q-1 10 -3.5 16t-8.5 9q-3 2 -6 3.5t-9 3.5q-9 4 -12 10t-3 16q0 16 17.5 24t53.5 8q9 0 19.5 -0.5t28.5 -1.5q14 -1 20 -1.5t10 -0.5h8t16 1q24 2 38.5 2.5t29.5 0.5q73 0 110 -25t37 -75q0 -35 -21 -61t-61 -42q-3 -1 -4.5 -2.5t-1.5 -4.5q0 -2 2 -3.5t6 -2.5
q14 -2 25.5 -8t19.5 -15q11 -12 18 -29.5t11 -43.5q1 -6 3 -10.5t8 -10.5q5 -5 7.5 -7t4.5 -4q14 -10 17 -15.5t3 -13.5zM390 416q0 -19 4 -25.5t16 -6.5h1.5h1.5h7q31 0 48 16t17 46q0 28 -18 44t-49 16h-3.5h-3.5q-9 0 -13.5 -4t-6.5 -15q-1 -3 -1 -8.5v-21.5v-26v-7.5
v-7.5zM108 356q0 -139 87 -226.5t226 -87.5t226 87.5t87 226.5q0 140 -87 227.5t-226 87.5t-226 -87.5t-87 -227.5z" />
    <glyph glyph-name="macron" unicode="&#xaf;" horiz-adv-x="424" 
d="M339 635q-26 -2 -59 -3t-80 -1q-51 0 -73 0.5t-38 1.5q-23 1 -33.5 15.5t-10.5 44.5q0 29 12 44t35 16q27 2 61 3t82 1q26 0 52.5 -1t50.5 -2t35 -14.5t11 -42.5q0 -30 -11 -45.5t-34 -16.5z" />
    <glyph glyph-name="degree" unicode="&#xb0;" horiz-adv-x="461" 
d="M434 544q0 -91 -57.5 -147.5t-151.5 -56.5q-90 0 -143.5 52.5t-53.5 141.5q0 87 59.5 144.5t149.5 57.5q89 0 143 -53t54 -139zM147 536q0 -37 22.5 -59t59.5 -22q40 0 63 23t23 63q0 36 -22.5 58t-58.5 22q-38 0 -62.5 -24t-24.5 -61z" />
    <glyph glyph-name="plusminus" unicode="&#xb1;" horiz-adv-x="523" 
d="M324 299q-4 -32 -18.5 -45t-47.5 -13q-30 0 -44 12t-16 41q0 1 -1.5 18.5t-1.5 29.5q-1 13 -6 18.5t-18 6.5q-7 0 -31.5 0.5t-37.5 2.5q-37 5 -49.5 17.5t-12.5 45.5q0 35 14.5 48t52.5 15q27 2 43.5 2.5t21.5 0.5q14 1 18.5 6t5.5 18q1 19 1.5 31t0.5 16q2 30 17.5 43
t50.5 13q30 0 44 -13t15 -41q1 -11 1.5 -23t1.5 -25q1 -12 7.5 -17.5t20.5 -6.5q20 -1 36.5 -1.5t29.5 -1.5q35 -3 48 -16t13 -46q0 -35 -14.5 -47.5t-52.5 -15.5q-3 0 -7 -0.5t-12 -0.5q-17 -2 -26.5 -2.5t-18.5 -0.5q-12 0 -17.5 -5.5t-6.5 -18.5q0 -4 -0.5 -9t-1.5 -13
q-1 -10 -1 -14.5t-1 -8.5zM245 69q-52 0 -90.5 1t-59.5 3q-25 1 -37 15.5t-12 41.5q0 30 12.5 45t38.5 17q23 2 66 3.5t104 1.5q74 0 110.5 -1t53.5 -4q25 -2 36 -15t11 -41q0 -31 -12 -45t-38 -16q-19 -3 -70 -4.5t-113 -1.5z" />
    <glyph glyph-name="two.sup" unicode="&#xb2;" horiz-adv-x="430" 
d="M23 374zM175 374q-21 0 -44.5 0.5t-49.5 1.5q-28 1 -43 16.5t-15 44.5q0 56 29 94.5t110 74.5q6 3 27 12t32 15q19 10 28 21.5t9 25.5q0 17 -13 28t-32 11q-14 0 -25.5 -5.5t-20.5 -17.5q-2 -3 -4.5 -7t-5.5 -12q-4 -8 -6 -11.5t-4 -6.5q-13 -19 -27.5 -27.5t-32.5 -8.5
q-28 0 -43 15t-15 43q0 53 51.5 89.5t130.5 36.5q81 0 125.5 -32.5t44.5 -90.5q0 -46 -33 -76.5t-122 -59.5q-44 -15 -63 -26t-19 -24q0 -6 4 -9t15 -4q8 -1 22 -1h47q6 0 22.5 1t43.5 2q19 2 27 11.5t11 33.5q2 15 10 23t21 8q19 0 27 -13.5t8 -43.5q0 -74 -23 -103
t-87 -29h-58.5h-58.5z" />
    <glyph glyph-name="three.sup" unicode="&#xb3;" horiz-adv-x="438" 
d="M34 365zM402 506q0 -63 -51.5 -102t-137.5 -39q-83 0 -131 31.5t-48 79.5q0 27 16.5 43.5t44.5 16.5q25 0 42 -12.5t29 -39.5q9 -23 23 -34.5t35 -11.5q22 0 35 12t13 31q0 18 -11.5 31.5t-44.5 30.5q-16 8 -29 14t-25 11q-10 4 -14 10t0 11q8 12 24 27.5t41 36.5
q15 13 21.5 20.5t6.5 11.5q0 5 -5 7t-17 3q-16 1 -26.5 0t-17.5 -4q-11 -5 -19.5 -10.5t-20.5 -16.5q-25 -23 -35.5 -27.5t-23.5 -4.5q-21 0 -31 11.5t-8 31.5t9 42.5t16 42.5q11 24 25 36t30 12q6 0 12.5 -0.5t19.5 -2.5q14 -3 21.5 -3.5t14.5 -0.5q19 0 42 0.5t89 1.5
q47 1 68 -9t21 -33q0 -16 -8 -29t-31 -35q-12 -12 -27.5 -25.5t-45.5 -38.5q-6 -4 -5.5 -7.5t7.5 -5.5q55 -18 81 -45.5t26 -68.5z" />
    <glyph glyph-name="acute" unicode="&#xb4;" horiz-adv-x="376" 
d="M366 728q-51 -32 -131 -72.5t-101 -41.5q-12 -1 -22 4.5t-17 16.5q-12 19 -9 33.5t20 31.5q61 60 117.5 105.5t77.5 49.5q17 3 32.5 -6t30.5 -31q21 -30 22 -53.5t-20 -36.5z" />
    <glyph glyph-name="mu" unicode="&#xb5;" 
d="M430 71q-25 -44 -51.5 -62.5t-62.5 -18.5q-28 0 -47 11t-30 32q-2 3 -3.5 4.5t-4.5 1.5q-4 0 -6 -2.5t-2 -7.5q0 -17 1 -36.5t5 -57.5q3 -33 4 -49t1 -29q0 -30 -17.5 -45t-52.5 -15q-27 0 -42 8.5t-22 27.5q-6 12 -8.5 32t-2.5 52q0 17 1 77.5t2 163.5q1 83 0.5 135.5
t-2.5 78.5q-1 13 -6.5 21t-16.5 11q-7 2 -13 3l-12 2q-18 2 -27.5 12.5t-9.5 27.5q0 19 15.5 37t43.5 31q36 16 66.5 25.5t57.5 12.5q20 2 34 1t25 -5q18 -8 27.5 -25.5t9.5 -43.5v-30.5v-64.5q-1 -48 -1 -69v-35q0 -37 3 -63.5t9 -43.5q8 -25 26.5 -38.5t44.5 -13.5
q25 0 41 10t23 31q7 22 10 48t3 63v19.5t-1 37.5v27v12q-1 12 -6.5 19.5t-15.5 10.5q-6 2 -12.5 3.5t-14.5 2.5q-18 3 -27.5 13.5t-9.5 27.5q0 18 15 36t42 31q39 17 69.5 26.5t56.5 12.5q19 2 33.5 1t25.5 -6q18 -7 27 -24.5t9 -43.5v-96.5v-97.5v-92t1 -43q0 -16 4 -25
t14 -14q6 -3 11.5 -5.5t12.5 -3.5q17 -3 26 -14t9 -28q0 -19 -11 -32t-33 -22q-18 -7 -33.5 -11.5t-31.5 -8.5q-19 -4 -35 -6t-29 -2q-27 0 -44.5 8.5t-27.5 27.5q-8 16 -12 26.5t-6 24.5q-1 6 -3 8.5t-6 2.5q-3 0 -5.5 -2t-4.5 -6z" />
    <glyph glyph-name="paragraph" unicode="&#xb6;" horiz-adv-x="860" 
d="M416 -141q-59 0 -91 1t-49 3q-25 3 -37.5 15.5t-12.5 34.5q0 19 9 32t26 17q8 2 15.5 5t15.5 7q9 4 13 11.5t4 18.5v143.5v143.5q0 13 -5.5 18.5t-18.5 5.5q-136 0 -196.5 49.5t-60.5 160.5q0 96 55 150t152 54q42 0 125 -1.5t64 -1.5h175.5h174.5q28 0 43.5 -14.5
t15.5 -38.5q0 -19 -9 -31.5t-26 -17.5q-7 -2 -14.5 -5t-15.5 -7q-10 -4 -13.5 -10.5t-3.5 -17.5q-1 -24 -1.5 -72t-0.5 -185v-233t1 -89q1 -13 4.5 -19.5t12.5 -10.5q8 -4 15.5 -7t14.5 -5q17 -4 26.5 -16.5t9.5 -30.5q0 -22 -13 -36t-37 -17q-18 -2 -62.5 -3t-164.5 -1h-73
h-67zM500 34q0 -40 10.5 -51.5t42.5 -11.5t42.5 13t10.5 50v22.5v46.5q1 64 1 104.5v79.5v132.5v132.5q0 38 -10.5 51.5t-41.5 13.5q-33 0 -44 -11.5t-11 -53.5q0 -3 -0.5 -97.5t0.5 -169.5v-125.5v-125.5z" />
    <glyph glyph-name="periodcentered" unicode="&#xb7;" horiz-adv-x="366" 
d="M315 292q0 -60 -43 -102t-104 -42q-54 0 -85 29t-31 79q0 59 43.5 102.5t102.5 44.5q51 0 84 -31t33 -80z" />
    <glyph glyph-name="cedilla" unicode="&#xb8;" horiz-adv-x="312" 
d="M287 -138q0 -43 -30 -68t-82 -25q-55 0 -90 29t-35 72q0 14 6.5 22t17.5 8q5 0 9.5 -3t9.5 -9q18 -19 34 -27.5t33 -8.5q15 0 23.5 6.5t8.5 18.5q0 11 -10 19.5t-37 17.5q-14 5 -19.5 11t-5.5 14q0 11 8 18t20 7q18 0 36 -4t38 -12q31 -13 48 -35t17 -51z" />
    <glyph glyph-name="one.sup" unicode="&#xb9;" horiz-adv-x="387" 
d="M42 372zM184 372q-35 0 -59 1t-38 3q-23 2 -34 13t-11 30q0 17 10 27.5t31 14.5q2 0 14 2.5t18 5.5q5 2 7 6t3 14q1 7 1 27v69v59.5t-1 21.5q-1 8 -2.5 11t-5.5 4q-3 1 -7 2t-16 2q-20 3 -31 11t-11 20q0 8 4 14.5t13 12.5q8 5 23 12.5t48 22.5q37 15 55 19.5t30 4.5
q21 0 33.5 -10.5t12.5 -28.5q0 -6 -0.5 -14t-2.5 -22q-2 -10 -2.5 -14.5t-0.5 -7.5q-1 -11 -1 -38v-82q0 -12 -0.5 -50t0.5 -46q1 -9 3 -13.5t6 -6.5q6 -3 14.5 -5.5t18.5 -3.5q20 -3 30 -13.5t10 -27.5q0 -20 -13 -30.5t-41 -13.5q-16 -1 -45 -2t-63 -1z" />
    <glyph glyph-name="ordmasculine" unicode="&#xba;" horiz-adv-x="497" 
d="M469 515q0 -94 -63 -150t-164 -56q-97 0 -155.5 55.5t-58.5 148.5t64.5 151.5t162.5 58.5q96 0 155 -57t59 -151zM170 546q0 -54 29 -94.5t69 -40.5q29 0 44 19.5t15 56.5q0 55 -28.5 96t-67.5 41q-29 0 -45 -20.5t-16 -57.5z" />
    <glyph glyph-name="guillemotright" unicode="&#xbb;" horiz-adv-x="623" 
d="M23 43zM23 87q0 -16 16 -30t33 -14q8 0 15.5 3t19.5 11q22 16 46 36t50 44q27 25 53.5 52t49.5 52q10 12 15 23.5t5 23.5q0 13 -4.5 24t-14.5 22q-34 36 -57.5 60t-46.5 44q-26 23 -49 42.5t-43 34.5q-11 8 -20.5 11.5t-19.5 3.5q-18 0 -32.5 -13.5t-14.5 -30.5
q0 -8 2.5 -15t8.5 -16q8 -12 20.5 -27t38.5 -45q17 -20 29.5 -36t22.5 -29q6 -8 8.5 -15.5t2.5 -15.5t-2.5 -15t-9.5 -17q-8 -11 -19 -25t-33 -39q-7 -8 -14.5 -17t-20.5 -26q-9 -11 -13 -15.5t-7 -8.5q-9 -13 -12 -21t-3 -16zM298 87q0 -16 16 -30t33 -14q8 0 15.5 3
t19.5 11q22 16 46 36t50 44q27 25 53.5 52t49.5 52q10 12 15 23.5t5 23.5q0 13 -4.5 24t-14.5 22q-34 36 -57.5 60t-46.5 44q-26 23 -49 42.5t-43 34.5q-11 8 -20.5 11.5t-19.5 3.5q-18 0 -32.5 -13.5t-14.5 -30.5q0 -8 2.5 -15t8.5 -16q8 -12 20.5 -27t38.5 -45
q17 -20 29.5 -36t22.5 -29q6 -8 8.5 -15.5t2.5 -15.5t-2.5 -15t-9.5 -17q-8 -11 -19 -25t-33 -39q-7 -8 -14.5 -17t-20.5 -26q-9 -11 -13 -15.5t-7 -8.5q-9 -13 -12 -21t-3 -16z" />
    <glyph glyph-name="onequarter" unicode="&#xbc;" horiz-adv-x="928" 
d="M47 0zM47 312zM189 312q-35 0 -59 1t-38 3q-23 2 -34 13t-11 30q0 17 10 27.5t31 14.5q2 0 14 2.5t18 5.5q5 2 7 6t3 14q1 7 1 27v69v59.5t-1 21.5q-1 8 -2.5 11t-5.5 4q-3 1 -7 2t-16 2q-20 3 -31 11t-11 20q0 8 4 14.5t13 12.5q8 5 23 12.5t48 22.5q37 15 55 19.5
t30 4.5q21 0 33.5 -10.5t12.5 -28.5q0 -6 -0.5 -14t-2.5 -22q-2 -10 -2.5 -14.5t-0.5 -7.5q-1 -11 -1 -38v-82q0 -12 -0.5 -50t0.5 -46q1 -9 3 -13.5t6 -6.5q6 -3 14.5 -5.5t18.5 -3.5q20 -3 30 -13.5t10 -27.5q0 -20 -13 -30.5t-41 -13.5q-16 -1 -45 -2t-63 -1zM343 33
q-23 -36 -38 -46t-44 -10q-44 0 -50 20.5t23 75.5q26 48 80 141.5t120 204.5q2 4 61 105.5t89 152.5q24 41 41 53t46 12q47 0 52.5 -20t-25.5 -77q-22 -43 -52.5 -97t-103.5 -181q-50 -87 -107.5 -184t-91.5 -150zM755 -9q-38 0 -52 0.5t-22 1.5q-21 3 -30 10.5t-9 22.5
q0 12 5.5 19t17.5 10q4 1 8.5 1.5t14.5 1.5q7 1 10 1.5t6 0.5q8 1 12 3.5t6 7.5q1 3 1.5 7t0.5 16q0 8 -2.5 11.5t-7.5 3.5h-79.5h-79.5q-20 0 -31 10t-11 27q0 10 3.5 19.5t11.5 21.5q18 24 44 53.5t64 68.5q33 33 57 55.5t43 38.5q19 17 34.5 24.5t31.5 7.5
q18 0 29.5 -9.5t11.5 -23.5q0 -7 -1 -14t-4 -20q-4 -13 -5 -20t-1 -15v-64.5v-65.5q0 -6 2.5 -9.5t7.5 -3.5h24.5h24.5q16 1 21.5 -8.5t1.5 -30.5q-4 -23 -12 -31.5t-26 -8.5h-14.5h-14.5t-10 -3.5t-3 -11.5q0 -10 0.5 -15t1.5 -10q1 -4 4 -6t9 -3q5 -1 13.5 -2t14.5 -2
q11 -2 16 -8.5t5 -18.5q0 -16 -9 -25.5t-28 -11.5q-12 -1 -41 -2t-65 -1zM656 190h26.5h26.5q9 0 12.5 4t3.5 14v33.5v32.5q0 7 -3 10.5t-8 0.5q-7 -4 -14 -11.5t-23 -27.5q-13 -17 -19.5 -26.5t-11.5 -17.5q-2 -5 1 -8.5t9 -3.5z" />
    <glyph glyph-name="onehalf" unicode="&#xbd;" horiz-adv-x="981" 
d="M47 0zM47 312zM189 312q-35 0 -59 1t-38 3q-23 2 -34 13t-11 30q0 17 10 27.5t31 14.5q2 0 14 2.5t18 5.5q5 2 7 6t3 14q1 7 1 27v69v59.5t-1 21.5q-1 8 -2.5 11t-5.5 4q-3 1 -7 2t-16 2q-20 3 -31 11t-11 20q0 8 4 14.5t13 12.5q8 5 23 12.5t48 22.5q37 15 55 19.5
t30 4.5q21 0 33.5 -10.5t12.5 -28.5q0 -6 -0.5 -14t-2.5 -22q-2 -10 -2.5 -14.5t-0.5 -7.5q-1 -11 -1 -38v-82q0 -12 -0.5 -50t0.5 -46q1 -9 3 -13.5t6 -6.5q6 -3 14.5 -5.5t18.5 -3.5q20 -3 30 -13.5t10 -27.5q0 -20 -13 -30.5t-41 -13.5q-16 -1 -45 -2t-63 -1zM728 -6
q-21 0 -44.5 0.5t-49.5 1.5q-28 1 -43 16.5t-15 44.5q0 56 29 94.5t110 74.5q6 3 27 12t32 15q19 10 28 21.5t9 25.5q0 17 -13 28t-32 11q-14 0 -25.5 -5.5t-20.5 -17.5q-2 -3 -4.5 -7t-5.5 -12q-4 -8 -6 -11.5t-4 -6.5q-13 -19 -27.5 -27.5t-32.5 -8.5q-28 0 -43 15t-15 43
q0 53 51.5 89.5t130.5 36.5q81 0 125.5 -32.5t44.5 -90.5q0 -46 -33 -76.5t-122 -59.5q-44 -15 -63 -26t-19 -24q0 -6 4 -9t15 -4q8 -1 22 -1h47q6 0 22.5 1t43.5 2q19 2 27 11.5t11 33.5q2 15 10 23t21 8q19 0 27 -13.5t8 -43.5q0 -74 -23 -103t-87 -29h-58.5h-58.5z
M345 33q-23 -36 -38 -46t-44 -10q-44 0 -50 20.5t23 75.5q26 48 80 141.5t120 204.5q2 4 61 105.5t89 152.5q24 41 41 53t46 12q47 0 52.5 -20t-25.5 -77q-22 -43 -52.5 -97t-103.5 -181q-50 -87 -107.5 -184t-91.5 -150z" />
    <glyph glyph-name="threequarters" unicode="&#xbe;" horiz-adv-x="965" 
d="M39 0zM381 33q-23 -36 -38 -46t-44 -10q-44 0 -50 20.5t23 75.5q26 48 80 141.5t120 204.5q2 4 61 105.5t89 152.5q24 41 41 53t46 12q47 0 52.5 -20t-25.5 -77q-22 -43 -52.5 -97t-103.5 -181q-50 -87 -107.5 -184t-91.5 -150zM792 -9q-38 0 -52 0.5t-22 1.5
q-21 3 -30 10.5t-9 22.5q0 12 5.5 19t17.5 10q4 1 8.5 1.5t14.5 1.5q7 1 10 1.5t6 0.5q8 1 12 3.5t6 7.5q1 3 1.5 7t0.5 16q0 8 -2.5 11.5t-7.5 3.5h-79.5h-79.5q-20 0 -31 10t-11 27q0 10 3.5 19.5t11.5 21.5q18 24 44 53.5t64 68.5q33 33 57 55.5t43 38.5q19 17 34.5 24.5
t31.5 7.5q18 0 29.5 -9.5t11.5 -23.5q0 -7 -1 -14t-4 -20q-4 -13 -5 -20t-1 -15v-64.5v-65.5q0 -6 2.5 -9.5t7.5 -3.5h24.5h24.5q16 1 21.5 -8.5t1.5 -30.5q-4 -23 -12 -31.5t-26 -8.5h-14.5h-14.5t-10 -3.5t-3 -11.5q0 -10 0.5 -15t1.5 -10q1 -4 4 -6t9 -3q5 -1 13.5 -2
t14.5 -2q11 -2 16 -8.5t5 -18.5q0 -16 -9 -25.5t-28 -11.5q-12 -1 -41 -2t-65 -1zM693 190h26.5h26.5q9 0 12.5 4t3.5 14v33.5v32.5q0 7 -3 10.5t-8 0.5q-7 -4 -14 -11.5t-23 -27.5q-13 -17 -19.5 -26.5t-11.5 -17.5q-2 -5 1 -8.5t9 -3.5zM39 305zM407 446q0 -63 -51.5 -102
t-137.5 -39q-83 0 -131 31.5t-48 79.5q0 27 16.5 43.5t44.5 16.5q25 0 42 -12.5t29 -39.5q9 -23 23 -34.5t35 -11.5q22 0 35 12t13 31q0 18 -11.5 31.5t-44.5 30.5q-16 8 -29 14t-25 11q-10 4 -14 10t0 11q8 12 24 27.5t41 36.5q15 13 21.5 20.5t6.5 11.5q0 5 -5 7t-17 3
q-16 1 -26.5 0t-17.5 -4q-11 -5 -19.5 -10.5t-20.5 -16.5q-25 -23 -35.5 -27.5t-23.5 -4.5q-21 0 -31 11.5t-8 31.5t9 42.5t16 42.5q11 24 25 36t30 12q6 0 12.5 -0.5t19.5 -2.5q14 -3 21.5 -3.5t14.5 -0.5q19 0 42 0.5t89 1.5q47 1 68 -9t21 -33q0 -16 -8 -29t-31 -35
q-12 -12 -27.5 -25.5t-45.5 -38.5q-6 -4 -5.5 -7.5t7.5 -5.5q55 -18 81 -45.5t26 -68.5z" />
    <glyph glyph-name="questiondown" unicode="&#xbf;" horiz-adv-x="605" 
d="M273 275q0 14 11.5 22t33.5 8q43 0 77.5 -27t34.5 -68q0 -45 -24.5 -83.5t-100.5 -92.5q-56 -41 -73 -63.5t-17 -46.5q0 -30 17.5 -47t48.5 -17q26 0 48.5 16.5t50.5 59.5q19 28 31 44t16 21q16 15 33.5 22.5t39.5 7.5q44 0 69.5 -24t25.5 -63q0 -82 -78.5 -137.5
t-210.5 -55.5q-125 0 -200 54.5t-75 146.5q0 40 13.5 72.5t40.5 59.5q18 18 44 34.5t79 40.5q56 26 72 40.5t16 31.5q0 7 -2.5 12.5t-9.5 12.5q-7 6 -9 10t-2 9zM176 443q0 52 43.5 86.5t108.5 34.5q58 0 90.5 -25t31.5 -69q-1 -52 -45.5 -87.5t-107.5 -36.5
q-54 0 -87.5 26.5t-33.5 70.5z" />
    <glyph glyph-name="Agrave" unicode="&#xc0;" horiz-adv-x="858" 
d="M15 0zM168 -10q-39 0 -63 1t-42 3q-24 3 -36 15t-12 33q0 18 10 31.5t29 21.5q9 4 17 8.5t13 8.5q8 8 15 19t14 29q7 19 16 41t26 66q18 46 27.5 70t17.5 45q23 56 44.5 110t42.5 106q36 88 65.5 111.5t79.5 23.5q51 0 76 -19t56 -89q14 -34 50 -125.5t39 -99.5
q8 -20 17.5 -44t27.5 -70q27 -68 38 -97t19 -49q5 -12 10 -18.5t13 -10.5q6 -3 12.5 -6.5t17.5 -7.5q20 -8 27.5 -19t7.5 -30q0 -23 -14 -36.5t-41 -16.5q-38 -3 -73.5 -4t-75.5 -1q-54 0 -88.5 1t-57.5 4q-20 3 -31 15.5t-11 31.5t10 32t28 17l10 2t15 2q5 1 8 1.5t5 0.5
q12 4 17 12t2 19q-2 12 -6.5 24.5t-18.5 47.5q-5 10 -13 14t-23 4h-46h-46h-44.5h-45.5q-13 0 -20 -4.5t-11 -15.5q-9 -21 -14.5 -37t-9.5 -33q-2 -9 2 -15.5t12 -8.5q4 -1 8.5 -1.5t12.5 -2.5q11 -1 16 -2t9 -2q19 -4 29.5 -17t10.5 -32q0 -21 -12 -34.5t-33 -16.5
q-20 -3 -54 -4.5t-81 -1.5zM320 354q-6 -17 -0.5 -24.5t22.5 -7.5h26h26h28.5h28.5q15 0 19 8.5t-2 24.5q-11 31 -25 66.5t-29 75.5q-3 8 -8 12.5t-12 4.5t-11.5 -4.5t-8.5 -13.5q-13 -31 -26.5 -67.5t-27.5 -74.5zM257 850q54 -23 140.5 -49t108.5 -23q13 2 21.5 8.5
t12.5 18.5q8 21 3 35t-24 28q-74 50 -136.5 84.5t-83.5 34.5q-16 0 -30 -12t-25 -36q-16 -33 -13 -56t26 -33z" />
    <glyph glyph-name="Aacute" unicode="&#xc1;" horiz-adv-x="858" 
d="M15 0zM168 -10q-39 0 -63 1t-42 3q-24 3 -36 15t-12 33q0 18 10 31.5t29 21.5q9 4 17 8.5t13 8.5q8 8 15 19t14 29q7 19 16 41t26 66q18 46 27.5 70t17.5 45q23 56 44.5 110t42.5 106q36 88 65.5 111.5t79.5 23.5q51 0 76 -19t56 -89q14 -34 50 -125.5t39 -99.5
q8 -20 17.5 -44t27.5 -70q27 -68 38 -97t19 -49q5 -12 10 -18.5t13 -10.5q6 -3 12.5 -6.5t17.5 -7.5q20 -8 27.5 -19t7.5 -30q0 -23 -14 -36.5t-41 -16.5q-38 -3 -73.5 -4t-75.5 -1q-54 0 -88.5 1t-57.5 4q-20 3 -31 15.5t-11 31.5t10 32t28 17l10 2t15 2q5 1 8 1.5t5 0.5
q12 4 17 12t2 19q-2 12 -6.5 24.5t-18.5 47.5q-5 10 -13 14t-23 4h-46h-46h-44.5h-45.5q-13 0 -20 -4.5t-11 -15.5q-9 -21 -14.5 -37t-9.5 -33q-2 -9 2 -15.5t12 -8.5q4 -1 8.5 -1.5t12.5 -2.5q11 -1 16 -2t9 -2q19 -4 29.5 -17t10.5 -32q0 -21 -12 -34.5t-33 -16.5
q-20 -3 -54 -4.5t-81 -1.5zM320 354q-6 -17 -0.5 -24.5t22.5 -7.5h26h26h28.5h28.5q15 0 19 8.5t-2 24.5q-11 31 -25 66.5t-29 75.5q-3 8 -8 12.5t-12 4.5t-11.5 -4.5t-8.5 -13.5q-13 -31 -26.5 -67.5t-27.5 -74.5zM605 850q-54 -23 -140.5 -49t-108.5 -23q-13 2 -21.5 8.5
t-12.5 18.5q-8 21 -3 35t24 28q74 50 136.5 84.5t83.5 34.5q16 0 30 -12t25 -36q16 -33 13 -56t-26 -33z" />
    <glyph glyph-name="Acircumflex" unicode="&#xc2;" horiz-adv-x="858" 
d="M15 0zM168 -10q-39 0 -63 1t-42 3q-24 3 -36 15t-12 33q0 18 10 31.5t29 21.5q9 4 17 8.5t13 8.5q8 8 15 19t14 29q7 19 16 41t26 66q18 46 27.5 70t17.5 45q23 56 44.5 110t42.5 106q36 88 65.5 111.5t79.5 23.5q51 0 76 -19t56 -89q14 -34 50 -125.5t39 -99.5
q8 -20 17.5 -44t27.5 -70q27 -68 38 -97t19 -49q5 -12 10 -18.5t13 -10.5q6 -3 12.5 -6.5t17.5 -7.5q20 -8 27.5 -19t7.5 -30q0 -23 -14 -36.5t-41 -16.5q-38 -3 -73.5 -4t-75.5 -1q-54 0 -88.5 1t-57.5 4q-20 3 -31 15.5t-11 31.5t10 32t28 17l10 2t15 2q5 1 8 1.5t5 0.5
q12 4 17 12t2 19q-2 12 -6.5 24.5t-18.5 47.5q-5 10 -13 14t-23 4h-46h-46h-44.5h-45.5q-13 0 -20 -4.5t-11 -15.5q-9 -21 -14.5 -37t-9.5 -33q-2 -9 2 -15.5t12 -8.5q4 -1 8.5 -1.5t12.5 -2.5q11 -1 16 -2t9 -2q19 -4 29.5 -17t10.5 -32q0 -21 -12 -34.5t-33 -16.5
q-20 -3 -54 -4.5t-81 -1.5zM320 354q-6 -17 -0.5 -24.5t22.5 -7.5h26h26h28.5h28.5q15 0 19 8.5t-2 24.5q-11 31 -25 66.5t-29 75.5q-3 8 -8 12.5t-12 4.5t-11.5 -4.5t-8.5 -13.5q-13 -31 -26.5 -67.5t-27.5 -74.5zM420 837q-35 -24 -65 -40.5t-54 -25.5q-13 -5 -24 -1.5
t-22 15.5t-12.5 21t4.5 19q7 12 22.5 29t44.5 44q17 16 36 31.5t35 27.5q14 10 25 14t23 4t22 -3.5t21 -12.5q17 -13 35.5 -28.5t35.5 -31.5q23 -21 40.5 -41.5t25.5 -35.5q5 -9 2 -18.5t-14 -20.5q-12 -12 -24.5 -15t-24.5 2q-20 8 -47 24.5t-64 42.5q-1 0 -4.5 2.5
t-5.5 2.5q-3 0 -7 -2.5z" />
    <glyph glyph-name="Atilde" unicode="&#xc3;" horiz-adv-x="858" 
d="M15 0zM168 -10q-39 0 -63 1t-42 3q-24 3 -36 15t-12 33q0 18 10 31.5t29 21.5q9 4 17 8.5t13 8.5q8 8 15 19t14 29q7 19 16 41t26 66q18 46 27.5 70t17.5 45q23 56 44.5 110t42.5 106q36 88 65.5 111.5t79.5 23.5q51 0 76 -19t56 -89q14 -34 50 -125.5t39 -99.5
q8 -20 17.5 -44t27.5 -70q27 -68 38 -97t19 -49q5 -12 10 -18.5t13 -10.5q6 -3 12.5 -6.5t17.5 -7.5q20 -8 27.5 -19t7.5 -30q0 -23 -14 -36.5t-41 -16.5q-38 -3 -73.5 -4t-75.5 -1q-54 0 -88.5 1t-57.5 4q-20 3 -31 15.5t-11 31.5t10 32t28 17l10 2t15 2q5 1 8 1.5t5 0.5
q12 4 17 12t2 19q-2 12 -6.5 24.5t-18.5 47.5q-5 10 -13 14t-23 4h-46h-46h-44.5h-45.5q-13 0 -20 -4.5t-11 -15.5q-9 -21 -14.5 -37t-9.5 -33q-2 -9 2 -15.5t12 -8.5q4 -1 8.5 -1.5t12.5 -2.5q11 -1 16 -2t9 -2q19 -4 29.5 -17t10.5 -32q0 -21 -12 -34.5t-33 -16.5
q-20 -3 -54 -4.5t-81 -1.5zM320 354q-6 -17 -0.5 -24.5t22.5 -7.5h26h26h28.5h28.5q15 0 19 8.5t-2 24.5q-11 31 -25 66.5t-29 75.5q-3 8 -8 12.5t-12 4.5t-11.5 -4.5t-8.5 -13.5q-13 -31 -26.5 -67.5t-27.5 -74.5zM305 802q-4 -14 -11.5 -19.5t-22.5 -5.5q-16 0 -24 8
t-7 23q3 70 37 107.5t95 37.5q22 0 42.5 -7.5t51.5 -30.5q22 -17 34 -22t23 -5q20 0 30 9t17 31q4 14 12.5 19.5t23.5 5.5t22.5 -8t6.5 -23q-3 -72 -35 -108t-92 -36q-29 0 -52.5 8.5t-54.5 33.5q-19 15 -29 19.5t-20 4.5q-19 0 -29.5 -9.5t-17.5 -32.5z" />
    <glyph glyph-name="Adieresis" unicode="&#xc4;" horiz-adv-x="858" 
d="M15 0zM168 -10q-39 0 -63 1t-42 3q-24 3 -36 15t-12 33q0 18 10 31.5t29 21.5q9 4 17 8.5t13 8.5q8 8 15 19t14 29q7 19 16 41t26 66q18 46 27.5 70t17.5 45q23 56 44.5 110t42.5 106q36 88 65.5 111.5t79.5 23.5q51 0 76 -19t56 -89q14 -34 50 -125.5t39 -99.5
q8 -20 17.5 -44t27.5 -70q27 -68 38 -97t19 -49q5 -12 10 -18.5t13 -10.5q6 -3 12.5 -6.5t17.5 -7.5q20 -8 27.5 -19t7.5 -30q0 -23 -14 -36.5t-41 -16.5q-38 -3 -73.5 -4t-75.5 -1q-54 0 -88.5 1t-57.5 4q-20 3 -31 15.5t-11 31.5t10 32t28 17l10 2t15 2q5 1 8 1.5t5 0.5
q12 4 17 12t2 19q-2 12 -6.5 24.5t-18.5 47.5q-5 10 -13 14t-23 4h-46h-46h-44.5h-45.5q-13 0 -20 -4.5t-11 -15.5q-9 -21 -14.5 -37t-9.5 -33q-2 -9 2 -15.5t12 -8.5q4 -1 8.5 -1.5t12.5 -2.5q11 -1 16 -2t9 -2q19 -4 29.5 -17t10.5 -32q0 -21 -12 -34.5t-33 -16.5
q-20 -3 -54 -4.5t-81 -1.5zM320 354q-6 -17 -0.5 -24.5t22.5 -7.5h26h26h28.5h28.5q15 0 19 8.5t-2 24.5q-11 31 -25 66.5t-29 75.5q-3 8 -8 12.5t-12 4.5t-11.5 -4.5t-8.5 -13.5q-13 -31 -26.5 -67.5t-27.5 -74.5zM651 873q3 -43 -30.5 -71.5t-84.5 -28.5q-33 0 -53.5 16.5
t-22.5 44.5q-3 42 30.5 72t81.5 31q35 0 56 -17t23 -47zM423 873q3 -43 -30.5 -71.5t-83.5 -28.5q-32 0 -53 17t-23 44q-3 42 30.5 71.5t81.5 30.5q35 0 55.5 -16.5t22.5 -46.5z" />
    <glyph glyph-name="Aring" unicode="&#xc5;" horiz-adv-x="858" 
d="M15 0zM168 -10q-39 0 -63 1t-42 3q-24 3 -36 15t-12 33q0 18 10 31.5t29 21.5q9 4 17 8.5t13 8.5q8 8 15 19t14 29q7 19 16 41t26 66q18 46 27.5 70t17.5 45q23 56 44.5 110t42.5 106q36 88 65.5 111.5t79.5 23.5q51 0 76 -19t56 -89q14 -34 50 -125.5t39 -99.5
q8 -20 17.5 -44t27.5 -70q27 -68 38 -97t19 -49q5 -12 10 -18.5t13 -10.5q6 -3 12.5 -6.5t17.5 -7.5q20 -8 27.5 -19t7.5 -30q0 -23 -14 -36.5t-41 -16.5q-38 -3 -73.5 -4t-75.5 -1q-54 0 -88.5 1t-57.5 4q-20 3 -31 15.5t-11 31.5t10 32t28 17l10 2t15 2q5 1 8 1.5t5 0.5
q12 4 17 12t2 19q-2 12 -6.5 24.5t-18.5 47.5q-5 10 -13 14t-23 4h-46h-46h-44.5h-45.5q-13 0 -20 -4.5t-11 -15.5q-9 -21 -14.5 -37t-9.5 -33q-2 -9 2 -15.5t12 -8.5q4 -1 8.5 -1.5t12.5 -2.5q11 -1 16 -2t9 -2q19 -4 29.5 -17t10.5 -32q0 -21 -12 -34.5t-33 -16.5
q-20 -3 -54 -4.5t-81 -1.5zM320 354q-6 -17 -0.5 -24.5t22.5 -7.5h26h26h28.5h28.5q15 0 19 8.5t-2 24.5q-11 31 -25 66.5t-29 75.5q-3 8 -8 12.5t-12 4.5t-11.5 -4.5t-8.5 -13.5q-13 -31 -26.5 -67.5t-27.5 -74.5zM565 892q0 -54 -37 -87t-98 -33q-60 0 -94 30.5t-34 83.5
q0 52 38 85.5t97 33.5t93.5 -31t34.5 -82zM385 888q0 -19 13.5 -31t33.5 -12q22 0 35.5 12t13.5 32q0 19 -13 31t-33 12q-21 0 -35.5 -12.5t-14.5 -31.5z" />
    <glyph glyph-name="AE" unicode="&#xc6;" horiz-adv-x="1181" 
d="M1113 14q-9 -22 -23.5 -32.5t-36.5 -10.5q-10 0 -20 2t-26 9q-18 7 -29 9.5t-24 2.5q-31 0 -63.5 -0.5t-92.5 -2.5q-56 -1 -86 -1.5t-57 -0.5q-43 0 -85.5 2t-59.5 4q-19 3 -28.5 15.5t-7.5 32.5q2 18 12.5 31t28.5 17q3 1 6 1.5t9 2.5l9 1.5t6 1.5q11 3 15.5 9.5
t5.5 18.5q1 19 1 34t-1 28q-1 16 -7.5 23t-20.5 7h-46.5h-47.5h-48.5h-49.5q-11 0 -18 -4t-15 -16q-12 -20 -20.5 -36.5t-16.5 -33.5q-4 -9 -0.5 -16t12.5 -9q4 -1 8.5 -1.5t13.5 -2.5t13.5 -2.5t8.5 -1.5q19 -3 28.5 -16t7.5 -33q-2 -21 -15 -34.5t-34 -16.5
q-27 -3 -66 -4.5t-82 -1.5q-42 0 -67 1t-44 3q-22 3 -33.5 15.5t-9.5 32.5q1 19 12 32.5t32 21.5q13 5 20.5 8.5t12.5 7.5q11 8 19.5 19.5t18.5 28.5q15 26 35.5 60.5t66.5 111.5q73 123 108 183t60 104q38 67 69.5 88.5t82.5 20.5q9 0 48.5 -1.5t63.5 -1.5h89.5h89.5h54.5
h54.5q11 0 20.5 2t24.5 9t23.5 9t18.5 2q21 0 36 -10t23 -29q15 -37 25.5 -77.5t13.5 -79.5q3 -33 -12.5 -53.5t-43.5 -20.5q-21 0 -35.5 8.5t-26.5 29.5q-2 3 -19 34t-29 47q-9 12 -22.5 16t-39.5 4q-27 0 -62 -0.5t-52 -1.5t-26 -9.5t-10 -25.5q-1 -39 -1 -85t2 -66
q1 -9 5.5 -14t13.5 -5l25 -0.5t35 0.5q6 0 9.5 2.5t6.5 8.5q3 7 4.5 18t2.5 28q2 27 15.5 40.5t36.5 13.5q25 0 37.5 -12.5t16.5 -42.5q3 -21 4 -57t1 -113q0 -50 -13 -73t-40 -23q-24 0 -37 13t-17 42q-3 21 -4.5 30.5t-4.5 17.5q-2 7 -7 9.5t-15 2.5q-20 0 -37 -1.5
t-23 -3.5q-9 -4 -13 -13t-4 -24v-60.5v-61.5q0 -21 8 -30t26 -11q14 -1 64.5 -0.5t65.5 0.5q24 0 37 4.5t24 16.5q7 9 14.5 20t29.5 50q15 28 29.5 38.5t35.5 10.5q28 0 43.5 -20.5t12.5 -54.5q-3 -40 -12.5 -79.5t-24.5 -79.5zM408 321h35.5h35.5h31.5h31.5q12 0 17.5 6.5
t6.5 22.5t1 36.5v62.5v95t-1 35q-1 13 -5 19t-13 6q-7 0 -12.5 -5t-14.5 -19q-48 -78 -78 -129.5t-53 -95.5q-9 -16 -4 -25t22 -9z" />
    <glyph glyph-name="Ccedilla" unicode="&#xc7;" horiz-adv-x="779" 
d="M525 -150q0 -42 -30.5 -66.5t-81.5 -24.5q-55 0 -90 29t-35 72q0 14 6.5 22t17.5 8q5 0 9.5 -3t9.5 -9q13 -17 30.5 -26.5t36.5 -9.5q15 0 23.5 6.5t8.5 18.5q0 11 -10 19.5t-37 17.5q-14 5 -19.5 11t-5.5 14q0 6 3 11.5t12 15.5q8 8 10 12t2 7q0 4 -2.5 6t-11.5 3
q-152 10 -244 110t-92 255q0 170 101 276t255 106q39 0 71.5 -5.5t62.5 -17.5q2 -1 21.5 -9.5t30.5 -8.5q8 0 13.5 4t11.5 17q7 15 19 22t30 7q19 0 30.5 -7.5t19.5 -25.5q10 -23 16.5 -47.5t12.5 -60.5q7 -46 10 -76.5t3 -56.5q0 -33 -18 -53.5t-47 -20.5q-18 0 -33 9.5
t-30 31.5q-34 49 -50.5 69t-33.5 37q-30 29 -63 43t-70 14q-77 0 -122 -50.5t-45 -136.5q0 -105 71 -177.5t174 -72.5q61 0 106.5 25t89.5 84q6 8 14 12.5t17 4.5q18 0 31 -12t13 -30q0 -8 -0.5 -12.5t-2.5 -9.5q-26 -92 -95 -153t-170 -79q-17 -3 -27 -12t-10 -21
q0 -9 6.5 -15.5t21.5 -12.5q27 -11 41 -30.5t14 -47.5z" />
    <glyph glyph-name="Egrave" unicode="&#xc8;" horiz-adv-x="723" 
d="M27 0zM248 726q45 -1 66 -1.5t37 -0.5h76.5h76.5q11 0 20.5 2t24.5 9t23.5 9t18.5 2q21 0 36 -10t23 -29q15 -37 25.5 -77.5t13.5 -79.5q3 -33 -12.5 -53.5t-43.5 -20.5q-21 0 -35.5 8.5t-26.5 29.5q-2 3 -19 34t-29 47q-9 12 -22.5 16t-39.5 4q-27 0 -62.5 -0.5
t-52.5 -1.5q-18 -1 -26.5 -9.5t-9.5 -25.5q-1 -22 -1.5 -61t-0.5 -65q0 -24 5 -33.5t17 -10.5q14 -1 36 -0.5t32 3.5q8 3 11.5 10t4.5 18q0 3 0.5 6.5t0.5 11.5q0 7 0.5 10.5t0.5 6.5q3 22 15.5 33.5t34.5 11.5q25 0 37.5 -12.5t16.5 -42.5q3 -17 4 -45t1 -125
q0 -50 -13 -73t-40 -23q-22 0 -34.5 11t-16.5 35q-1 4 -1.5 9t-0.5 14q0 5 -0.5 7.5t-0.5 4.5q-3 17 -7 23t-12 8q-11 4 -36.5 3t-37.5 -5q-9 -3 -12.5 -11.5t-3.5 -25.5v-63.5v-63.5q1 -18 9 -26.5t25 -9.5q14 -1 65 -0.5t66 0.5q24 0 37 4.5t24 16.5q8 11 16.5 23.5
t27.5 46.5q15 28 29.5 38.5t35.5 10.5q28 0 43.5 -20.5t12.5 -54.5q-3 -40 -12.5 -79.5t-24.5 -79.5q-9 -22 -24.5 -32.5t-37.5 -10.5q-11 0 -20.5 2t-25.5 9t-27 9.5t-24 2.5q-32 0 -66.5 -0.5t-96.5 -1.5q-60 -1 -91 -1.5t-59 -0.5h-34.5h-35.5q-45 0 -69.5 14t-24.5 41
q0 17 8 28.5t21 15.5q2 1 13 4t17 6q13 7 18 15.5t6 23.5q1 29 1.5 93t0.5 126v112v112q-1 15 -6 23.5t-16 13.5q-2 1 -9.5 3t-20.5 5q-15 3 -23.5 15t-8.5 31q0 28 25 42t74 14q21 0 46 -0.5zM185 850q54 -23 140.5 -49t108.5 -23q13 2 21.5 8.5t12.5 18.5q8 21 3 35
t-24 28q-74 50 -136.5 84.5t-83.5 34.5q-16 0 -30 -12t-25 -36q-16 -33 -13 -56t26 -33z" />
    <glyph glyph-name="Eacute" unicode="&#xc9;" horiz-adv-x="723" 
d="M27 0zM248 726q45 -1 66 -1.5t37 -0.5h76.5h76.5q11 0 20.5 2t24.5 9t23.5 9t18.5 2q21 0 36 -10t23 -29q15 -37 25.5 -77.5t13.5 -79.5q3 -33 -12.5 -53.5t-43.5 -20.5q-21 0 -35.5 8.5t-26.5 29.5q-2 3 -19 34t-29 47q-9 12 -22.5 16t-39.5 4q-27 0 -62.5 -0.5
t-52.5 -1.5q-18 -1 -26.5 -9.5t-9.5 -25.5q-1 -22 -1.5 -61t-0.5 -65q0 -24 5 -33.5t17 -10.5q14 -1 36 -0.5t32 3.5q8 3 11.5 10t4.5 18q0 3 0.5 6.5t0.5 11.5q0 7 0.5 10.5t0.5 6.5q3 22 15.5 33.5t34.5 11.5q25 0 37.5 -12.5t16.5 -42.5q3 -17 4 -45t1 -125
q0 -50 -13 -73t-40 -23q-22 0 -34.5 11t-16.5 35q-1 4 -1.5 9t-0.5 14q0 5 -0.5 7.5t-0.5 4.5q-3 17 -7 23t-12 8q-11 4 -36.5 3t-37.5 -5q-9 -3 -12.5 -11.5t-3.5 -25.5v-63.5v-63.5q1 -18 9 -26.5t25 -9.5q14 -1 65 -0.5t66 0.5q24 0 37 4.5t24 16.5q8 11 16.5 23.5
t27.5 46.5q15 28 29.5 38.5t35.5 10.5q28 0 43.5 -20.5t12.5 -54.5q-3 -40 -12.5 -79.5t-24.5 -79.5q-9 -22 -24.5 -32.5t-37.5 -10.5q-11 0 -20.5 2t-25.5 9t-27 9.5t-24 2.5q-32 0 -66.5 -0.5t-96.5 -1.5q-60 -1 -91 -1.5t-59 -0.5h-34.5h-35.5q-45 0 -69.5 14t-24.5 41
q0 17 8 28.5t21 15.5q2 1 13 4t17 6q13 7 18 15.5t6 23.5q1 29 1.5 93t0.5 126v112v112q-1 15 -6 23.5t-16 13.5q-2 1 -9.5 3t-20.5 5q-15 3 -23.5 15t-8.5 31q0 28 25 42t74 14q21 0 46 -0.5zM535 850q-54 -23 -140.5 -49t-108.5 -23q-13 2 -21.5 8.5t-12.5 18.5
q-8 21 -3 35t24 28q74 50 136.5 84.5t83.5 34.5q16 0 30 -12t25 -36q16 -33 13 -56t-26 -33z" />
    <glyph glyph-name="Ecircumflex" unicode="&#xca;" horiz-adv-x="723" 
d="M27 0zM248 726q45 -1 66 -1.5t37 -0.5h76.5h76.5q11 0 20.5 2t24.5 9t23.5 9t18.5 2q21 0 36 -10t23 -29q15 -37 25.5 -77.5t13.5 -79.5q3 -33 -12.5 -53.5t-43.5 -20.5q-21 0 -35.5 8.5t-26.5 29.5q-2 3 -19 34t-29 47q-9 12 -22.5 16t-39.5 4q-27 0 -62.5 -0.5
t-52.5 -1.5q-18 -1 -26.5 -9.5t-9.5 -25.5q-1 -22 -1.5 -61t-0.5 -65q0 -24 5 -33.5t17 -10.5q14 -1 36 -0.5t32 3.5q8 3 11.5 10t4.5 18q0 3 0.5 6.5t0.5 11.5q0 7 0.5 10.5t0.5 6.5q3 22 15.5 33.5t34.5 11.5q25 0 37.5 -12.5t16.5 -42.5q3 -17 4 -45t1 -125
q0 -50 -13 -73t-40 -23q-22 0 -34.5 11t-16.5 35q-1 4 -1.5 9t-0.5 14q0 5 -0.5 7.5t-0.5 4.5q-3 17 -7 23t-12 8q-11 4 -36.5 3t-37.5 -5q-9 -3 -12.5 -11.5t-3.5 -25.5v-63.5v-63.5q1 -18 9 -26.5t25 -9.5q14 -1 65 -0.5t66 0.5q24 0 37 4.5t24 16.5q8 11 16.5 23.5
t27.5 46.5q15 28 29.5 38.5t35.5 10.5q28 0 43.5 -20.5t12.5 -54.5q-3 -40 -12.5 -79.5t-24.5 -79.5q-9 -22 -24.5 -32.5t-37.5 -10.5q-11 0 -20.5 2t-25.5 9t-27 9.5t-24 2.5q-32 0 -66.5 -0.5t-96.5 -1.5q-60 -1 -91 -1.5t-59 -0.5h-34.5h-35.5q-45 0 -69.5 14t-24.5 41
q0 17 8 28.5t21 15.5q2 1 13 4t17 6q13 7 18 15.5t6 23.5q1 29 1.5 93t0.5 126v112v112q-1 15 -6 23.5t-16 13.5q-2 1 -9.5 3t-20.5 5q-15 3 -23.5 15t-8.5 31q0 28 25 42t74 14q21 0 46 -0.5zM355 837q-35 -24 -65 -40.5t-54 -25.5q-13 -5 -24 -1.5t-22 15.5t-12.5 21
t4.5 19q7 12 22.5 29t44.5 44q17 16 36 31.5t35 27.5q14 10 25 14t23 4t22 -3.5t21 -12.5q17 -13 35.5 -28.5t35.5 -31.5q23 -21 40.5 -41.5t25.5 -35.5q5 -9 2 -18.5t-14 -20.5q-12 -12 -24.5 -15t-24.5 2q-20 8 -47 24.5t-64 42.5q-1 0 -4.5 2.5t-5.5 2.5q-3 0 -7 -2.5z
" />
    <glyph glyph-name="Edieresis" unicode="&#xcb;" horiz-adv-x="723" 
d="M27 0zM248 726q45 -1 66 -1.5t37 -0.5h76.5h76.5q11 0 20.5 2t24.5 9t23.5 9t18.5 2q21 0 36 -10t23 -29q15 -37 25.5 -77.5t13.5 -79.5q3 -33 -12.5 -53.5t-43.5 -20.5q-21 0 -35.5 8.5t-26.5 29.5q-2 3 -19 34t-29 47q-9 12 -22.5 16t-39.5 4q-27 0 -62.5 -0.5
t-52.5 -1.5q-18 -1 -26.5 -9.5t-9.5 -25.5q-1 -22 -1.5 -61t-0.5 -65q0 -24 5 -33.5t17 -10.5q14 -1 36 -0.5t32 3.5q8 3 11.5 10t4.5 18q0 3 0.5 6.5t0.5 11.5q0 7 0.5 10.5t0.5 6.5q3 22 15.5 33.5t34.5 11.5q25 0 37.5 -12.5t16.5 -42.5q3 -17 4 -45t1 -125
q0 -50 -13 -73t-40 -23q-22 0 -34.5 11t-16.5 35q-1 4 -1.5 9t-0.5 14q0 5 -0.5 7.5t-0.5 4.5q-3 17 -7 23t-12 8q-11 4 -36.5 3t-37.5 -5q-9 -3 -12.5 -11.5t-3.5 -25.5v-63.5v-63.5q1 -18 9 -26.5t25 -9.5q14 -1 65 -0.5t66 0.5q24 0 37 4.5t24 16.5q8 11 16.5 23.5
t27.5 46.5q15 28 29.5 38.5t35.5 10.5q28 0 43.5 -20.5t12.5 -54.5q-3 -40 -12.5 -79.5t-24.5 -79.5q-9 -22 -24.5 -32.5t-37.5 -10.5q-11 0 -20.5 2t-25.5 9t-27 9.5t-24 2.5q-32 0 -66.5 -0.5t-96.5 -1.5q-60 -1 -91 -1.5t-59 -0.5h-34.5h-35.5q-45 0 -69.5 14t-24.5 41
q0 17 8 28.5t21 15.5q2 1 13 4t17 6q13 7 18 15.5t6 23.5q1 29 1.5 93t0.5 126v112v112q-1 15 -6 23.5t-16 13.5q-2 1 -9.5 3t-20.5 5q-15 3 -23.5 15t-8.5 31q0 28 25 42t74 14q21 0 46 -0.5zM576 873q3 -43 -30.5 -71.5t-84.5 -28.5q-33 0 -53.5 16.5t-22.5 44.5
q-3 42 30.5 72t81.5 31q35 0 56 -17t23 -47zM348 873q3 -43 -30.5 -71.5t-83.5 -28.5q-32 0 -53 17t-23 44q-3 42 30.5 71.5t81.5 30.5q35 0 55.5 -16.5t22.5 -46.5z" />
    <glyph glyph-name="Igrave" unicode="&#xcc;" horiz-adv-x="432" 
d="M26 0zM354 -6q-12 -2 -39 -3t-99 -1q-53 0 -88.5 1t-49.5 3q-25 3 -37.5 15.5t-12.5 35.5q0 17 9 29.5t27 19.5q2 1 13 5t17 7q9 4 12.5 10.5t3.5 18.5q1 30 1.5 95t0.5 127v161.5t-1 65.5q-1 11 -4 17.5t-12 10.5q-4 2 -8 3.5t-23 8.5q-18 6 -26.5 17.5t-8.5 29.5
q0 22 14 35.5t40 17.5q15 2 48.5 3t84.5 1t85.5 -1t48.5 -3q26 -4 39.5 -17t13.5 -34q0 -18 -8.5 -30.5t-26.5 -18.5q-19 -7 -23 -8.5t-8 -3.5q-9 -4 -12 -10.5t-4 -17.5q-1 -21 -1 -65.5v-161.5q0 -62 0.5 -126.5t1.5 -94.5q0 -12 3.5 -19t12.5 -11q5 -3 11.5 -5t18.5 -6
q18 -6 27 -18t9 -30q0 -22 -13 -35.5t-37 -17.5zM53 850q54 -23 140.5 -49t108.5 -23q13 2 21.5 8.5t12.5 18.5q8 21 3 35t-24 28q-74 50 -136.5 84.5t-83.5 34.5q-16 0 -30 -12t-25 -36q-16 -33 -13 -56t26 -33z" />
    <glyph glyph-name="Iacute" unicode="&#xcd;" horiz-adv-x="432" 
d="M28 0zM354 -6q-12 -2 -39 -3t-99 -1q-53 0 -88.5 1t-49.5 3q-25 3 -37.5 15.5t-12.5 35.5q0 17 9 29.5t27 19.5q2 1 13 5t17 7q9 4 12.5 10.5t3.5 18.5q1 30 1.5 95t0.5 127v161.5t-1 65.5q-1 11 -4 17.5t-12 10.5q-4 2 -8 3.5t-23 8.5q-18 6 -26.5 17.5t-8.5 29.5
q0 22 14 35.5t40 17.5q15 2 48.5 3t84.5 1t85.5 -1t48.5 -3q26 -4 39.5 -17t13.5 -34q0 -18 -8.5 -30.5t-26.5 -18.5q-19 -7 -23 -8.5t-8 -3.5q-9 -4 -12 -10.5t-4 -17.5q-1 -21 -1 -65.5v-161.5q0 -62 0.5 -126.5t1.5 -94.5q0 -12 3.5 -19t12.5 -11q5 -3 11.5 -5t18.5 -6
q18 -6 27 -18t9 -30q0 -22 -13 -35.5t-37 -17.5zM381 850q-54 -23 -140.5 -49t-108.5 -23q-13 2 -21.5 8.5t-12.5 18.5q-8 21 -3 35t24 28q74 50 136.5 84.5t83.5 34.5q16 0 30 -12t25 -36q16 -33 13 -56t-26 -33z" />
    <glyph glyph-name="Icircumflex" unicode="&#xce;" horiz-adv-x="432" 
d="M28 0zM354 -6q-12 -2 -39 -3t-99 -1q-53 0 -88.5 1t-49.5 3q-25 3 -37.5 15.5t-12.5 35.5q0 17 9 29.5t27 19.5q2 1 13 5t17 7q9 4 12.5 10.5t3.5 18.5q1 30 1.5 95t0.5 127v161.5t-1 65.5q-1 11 -4 17.5t-12 10.5q-4 2 -8 3.5t-23 8.5q-18 6 -26.5 17.5t-8.5 29.5
q0 22 14 35.5t40 17.5q15 2 48.5 3t84.5 1t85.5 -1t48.5 -3q26 -4 39.5 -17t13.5 -34q0 -18 -8.5 -30.5t-26.5 -18.5q-19 -7 -23 -8.5t-8 -3.5q-9 -4 -12 -10.5t-4 -17.5q-1 -21 -1 -65.5v-161.5q0 -62 0.5 -126.5t1.5 -94.5q0 -12 3.5 -19t12.5 -11q5 -3 11.5 -5t18.5 -6
q18 -6 27 -18t9 -30q0 -22 -13 -35.5t-37 -17.5zM206 837q-35 -24 -65 -40.5t-54 -25.5q-13 -5 -24 -1.5t-22 15.5t-12.5 21t4.5 19q7 12 22.5 29t44.5 44q17 16 36 31.5t35 27.5q14 10 25 14t23 4t22 -3.5t21 -12.5q17 -13 35.5 -28.5t35.5 -31.5q23 -21 40.5 -41.5
t25.5 -35.5q5 -9 2 -18.5t-14 -20.5q-12 -12 -24.5 -15t-24.5 2q-20 8 -47 24.5t-64 42.5q-1 0 -4.5 2.5t-5.5 2.5q-3 0 -7 -2.5z" />
    <glyph glyph-name="Idieresis" unicode="&#xcf;" horiz-adv-x="432" 
d="M13 0zM354 -6q-12 -2 -39 -3t-99 -1q-53 0 -88.5 1t-49.5 3q-25 3 -37.5 15.5t-12.5 35.5q0 17 9 29.5t27 19.5q2 1 13 5t17 7q9 4 12.5 10.5t3.5 18.5q1 30 1.5 95t0.5 127v161.5t-1 65.5q-1 11 -4 17.5t-12 10.5q-4 2 -8 3.5t-23 8.5q-18 6 -26.5 17.5t-8.5 29.5
q0 22 14 35.5t40 17.5q15 2 48.5 3t84.5 1t85.5 -1t48.5 -3q26 -4 39.5 -17t13.5 -34q0 -18 -8.5 -30.5t-26.5 -18.5q-19 -7 -23 -8.5t-8 -3.5q-9 -4 -12 -10.5t-4 -17.5q-1 -21 -1 -65.5v-161.5q0 -62 0.5 -126.5t1.5 -94.5q0 -12 3.5 -19t12.5 -11q5 -3 11.5 -5t18.5 -6
q18 -6 27 -18t9 -30q0 -22 -13 -35.5t-37 -17.5zM432 873q3 -43 -30.5 -71.5t-84.5 -28.5q-33 0 -53.5 16.5t-22.5 44.5q-3 42 30.5 72t81.5 31q35 0 56 -17t23 -47zM204 873q3 -43 -30.5 -71.5t-83.5 -28.5q-32 0 -53 17t-23 44q-3 42 30.5 71.5t81.5 30.5q35 0 55.5 -16.5
t22.5 -46.5z" />
    <glyph glyph-name="Eth" unicode="&#xd0;" horiz-adv-x="821" 
d="M180 -8l-36 -1.5t-22 -0.5q-45 0 -70 14t-25 41q0 16 8 27.5t22 15.5q6 3 13 5.5t16 4.5q13 5 18.5 14.5t5.5 25.5q1 20 1.5 60t0.5 79q0 10 -4 15.5t-14 6.5h-12h-12q-23 2 -33 16.5t-10 43.5q0 30 10 44.5t33 15.5h12h12q8 0 13 6t5 16v70v70q-1 15 -6 24t-16 13
q-2 1 -4.5 1.5t-6.5 1.5q-8 2 -11.5 3t-6.5 2q-16 3 -24.5 15.5t-8.5 31.5q0 27 25.5 41t74.5 14q18 0 37 -0.5t50 -2.5l34.5 -1.5t21.5 -0.5q9 0 18.5 0.5t29.5 0.5q33 2 55.5 2.5t47.5 0.5q170 0 267 -94.5t97 -258.5q0 -178 -102.5 -281t-279.5 -103q-24 0 -47.5 0.5
t-59.5 2.5q-22 0 -32 0.5t-18 0.5q-12 0 -26 -0.5t-41 -1.5zM311 149q0 -24 13.5 -33.5t44.5 -9.5h18t11 1q85 3 128 57.5t43 159.5q0 125 -53.5 203t-139.5 85h-5h-8q-6 1 -9 1h-6q-18 0 -26.5 -8t-9.5 -28q-1 -9 -1 -32.5v-102.5q0 -12 5 -17t17 -5h75v0q24 0 35.5 -15
t11.5 -46q0 -30 -11 -44.5t-36 -15.5h-36.5h-37.5q-13 0 -18 -5.5t-5 -18.5v-62.5v-63.5z" />
    <glyph glyph-name="Ntilde" unicode="&#xd1;" horiz-adv-x="867" 
d="M27 0zM309 -5q-15 -2 -48 -3.5t-82 -1.5q-51 0 -70.5 0.5t-30.5 2.5q-24 3 -36 16t-12 36q0 18 9.5 31t26.5 18q7 2 13.5 5t15.5 7t12.5 10.5t4.5 18.5q1 19 1.5 65t0.5 153v162.5t-1 54.5q0 16 -6 26.5t-18 15.5q-7 3 -14 5.5t-11 3.5q-18 5 -27.5 16.5t-9.5 28.5
q0 24 13.5 38t40.5 18q25 3 51 4t54 1q30 0 54 -2t45 -7q38 -9 63 -29t52 -62q15 -24 32.5 -51t51.5 -80q51 -77 76 -116t47 -73q4 -7 8.5 -10t9.5 -3q6 0 9 4.5t3 12.5v69.5v69.5q0 41 -1 75t-3 60q-1 10 -5 15.5t-13 7.5q-7 2 -14 3.5t-16 3.5q-23 5 -35.5 19t-12.5 34
q0 25 11 39t34 17q13 2 48.5 3t76.5 1q46 0 71.5 -1t35.5 -4q19 -4 28.5 -17t9.5 -33t-9.5 -33.5t-27.5 -18.5q-8 -2 -13.5 -3.5t-12.5 -4.5q-9 -3 -13.5 -10.5t-4.5 -19.5v-111.5v-111.5v-110.5v-111.5q0 -80 -25.5 -117t-80.5 -37q-42 0 -72.5 19t-70.5 73q-20 28 -80 118
t-160 242q-7 10 -11.5 14t-9.5 4q-6 0 -9.5 -5.5t-3.5 -16.5v-53.5v-53.5v-147t1 -40q1 -11 6.5 -18.5t16.5 -10.5q7 -3 15 -5.5t22 -5.5q19 -4 30.5 -17.5t11.5 -33.5q0 -21 -11 -35t-31 -17zM319 802q-4 -14 -11.5 -19.5t-22.5 -5.5q-16 0 -24 8t-7 23q3 70 37 107.5
t95 37.5q22 0 42.5 -7.5t51.5 -30.5q22 -17 34 -22t23 -5q20 0 30 9t17 31q4 14 12.5 19.5t23.5 5.5t22.5 -8t6.5 -23q-3 -72 -35 -108t-92 -36q-29 0 -52.5 8.5t-54.5 33.5q-19 15 -29 19.5t-20 4.5q-19 0 -29.5 -9.5t-17.5 -32.5z" />
    <glyph glyph-name="Ograve" unicode="&#xd2;" horiz-adv-x="831" 
d="M35 0zM796 368q0 -175 -106 -280.5t-281 -105.5q-167 0 -270.5 99.5t-103.5 262.5q0 171 110 280t279 109q163 0 267.5 -102t104.5 -263zM241 414q-1 -112 62.5 -197.5t146.5 -85.5q63 0 100.5 47.5t37.5 126.5q0 115 -59 198t-144 83q-64 0 -103.5 -47t-40.5 -125z
M239 851q54 -23 140.5 -49t108.5 -23q13 2 21.5 8.5t12.5 18.5q8 21 3 35t-24 28q-74 50 -136.5 84.5t-83.5 34.5q-16 0 -30 -12t-25 -36q-16 -33 -13 -56t26 -33z" />
    <glyph glyph-name="Oacute" unicode="&#xd3;" horiz-adv-x="831" 
d="M35 0zM796 368q0 -175 -106 -280.5t-281 -105.5q-167 0 -270.5 99.5t-103.5 262.5q0 171 110 280t279 109q163 0 267.5 -102t104.5 -263zM241 414q-1 -112 62.5 -197.5t146.5 -85.5q63 0 100.5 47.5t37.5 126.5q0 115 -59 198t-144 83q-64 0 -103.5 -47t-40.5 -125z
M572 850q-54 -23 -140.5 -49t-108.5 -23q-13 2 -21.5 8.5t-12.5 18.5q-8 21 -3 35t24 28q74 50 136.5 84.5t83.5 34.5q16 0 30 -12t25 -36q16 -33 13 -56t-26 -33z" />
    <glyph glyph-name="Ocircumflex" unicode="&#xd4;" horiz-adv-x="831" 
d="M35 0zM796 368q0 -175 -106 -280.5t-281 -105.5q-167 0 -270.5 99.5t-103.5 262.5q0 171 110 280t279 109q163 0 267.5 -102t104.5 -263zM241 414q-1 -112 62.5 -197.5t146.5 -85.5q63 0 100.5 47.5t37.5 126.5q0 115 -59 198t-144 83q-64 0 -103.5 -47t-40.5 -125z
M407 837q-35 -24 -65 -40.5t-54 -25.5q-13 -5 -24 -1.5t-22 15.5t-12.5 21t4.5 19q7 12 22.5 29t44.5 44q17 16 36 31.5t35 27.5q14 10 25 14t23 4t22 -3.5t21 -12.5q17 -13 35.5 -28.5t35.5 -31.5q23 -21 40.5 -41.5t25.5 -35.5q5 -9 2 -18.5t-14 -20.5q-12 -12 -24.5 -15
t-24.5 2q-20 8 -47 24.5t-64 42.5q-1 0 -4.5 2.5t-5.5 2.5q-3 0 -7 -2.5z" />
    <glyph glyph-name="Otilde" unicode="&#xd5;" horiz-adv-x="831" 
d="M35 0zM796 368q0 -175 -106 -280.5t-281 -105.5q-167 0 -270.5 99.5t-103.5 262.5q0 171 110 280t279 109q163 0 267.5 -102t104.5 -263zM241 414q-1 -112 62.5 -197.5t146.5 -85.5q63 0 100.5 47.5t37.5 126.5q0 115 -59 198t-144 83q-64 0 -103.5 -47t-40.5 -125z
M289 802q-4 -14 -11.5 -19.5t-22.5 -5.5q-16 0 -24 8t-7 23q3 70 37 107.5t95 37.5q22 0 42.5 -7.5t51.5 -30.5q22 -17 34 -22t23 -5q20 0 30 9t17 31q4 14 12.5 19.5t23.5 5.5t22.5 -8t6.5 -23q-3 -72 -35 -108t-92 -36q-29 0 -52.5 8.5t-54.5 33.5q-19 15 -29 19.5
t-20 4.5q-19 0 -29.5 -9.5t-17.5 -32.5z" />
    <glyph glyph-name="Odieresis" unicode="&#xd6;" horiz-adv-x="831" 
d="M35 0zM796 368q0 -175 -106 -280.5t-281 -105.5q-167 0 -270.5 99.5t-103.5 262.5q0 171 110 280t279 109q163 0 267.5 -102t104.5 -263zM241 414q-1 -112 62.5 -197.5t146.5 -85.5q63 0 100.5 47.5t37.5 126.5q0 115 -59 198t-144 83q-64 0 -103.5 -47t-40.5 -125z
M633 873q3 -43 -30.5 -71.5t-84.5 -28.5q-33 0 -53.5 16.5t-22.5 44.5q-3 42 30.5 72t81.5 31q35 0 56 -17t23 -47zM405 873q3 -43 -30.5 -71.5t-83.5 -28.5q-32 0 -53 17t-23 44q-3 42 30.5 71.5t81.5 30.5q35 0 55.5 -16.5t22.5 -46.5z" />
    <glyph glyph-name="multiply" unicode="&#xd7;" horiz-adv-x="444" 
d="M165 203q-32 -27 -52.5 -29.5t-46.5 23.5q-23 24 -21 43.5t27 48.5q3 4 7 8.5t13 13.5t13 14t9 9q8 8 8.5 17t-8.5 18q-2 2 -19.5 21t-26.5 29q-23 27 -23.5 46t23.5 43q25 25 44.5 23.5t47.5 -26.5q14 -13 25.5 -23.5t22.5 -21.5q10 -9 17 -9t17 10q5 4 9.5 8t12.5 13
q9 9 14 13t8 7q31 29 51.5 29.5t47.5 -26.5q24 -23 22 -42.5t-29 -47.5q-12 -14 -22 -25t-21 -21q-8 -10 -7 -19t11 -19q12 -14 23 -25.5t20 -22.5q24 -26 24.5 -44.5t-23.5 -42.5q-25 -25 -44.5 -24t-48.5 26q-9 9 -21 20t-26 23q-9 9 -17.5 9t-17.5 -8
q-12 -11 -22.5 -20.5t-20.5 -18.5z" />
    <glyph glyph-name="Oslash" unicode="&#xd8;" horiz-adv-x="831" 
d="M796 365q0 -173 -106 -278t-280 -105q-53 0 -103 12.5t-94 37.5q-11 6 -17.5 4.5t-13.5 -10.5l-40 -48q-14 -17 -33.5 -18.5t-38.5 14.5t-20 35.5t15 36.5l42 46q6 6 6 13.5t-5 14.5q-35 47 -54 105t-19 122q0 169 110 277.5t278 108.5q50 0 96 -11.5t89 -35.5
q15 -7 23 -6.5t15 9.5l41 48q16 17 35 19t38 -14t20 -35.5t-15 -37.5l-44 -46q-7 -8 -7.5 -14t4.5 -13q38 -51 58 -110t20 -121zM387 588q-67 0 -109.5 -48t-42.5 -126q0 -41 9 -77.5t23 -55.5q4 -6 10.5 -5t14.5 10l200 229q5 5 5.5 11.5t-2.5 12.5q-12 21 -42.5 35
t-65.5 14zM338 179q10 -19 44.5 -34.5t65.5 -15.5q66 0 106 47.5t40 127.5q0 42 -8.5 79t-22.5 51q-5 5 -11.5 3.5t-13.5 -9.5l-195 -226q-5 -6 -6.5 -12t1.5 -11z" />
    <glyph glyph-name="Ugrave" unicode="&#xd9;" horiz-adv-x="807" 
d="M14 0zM707 312q0 -161 -78 -245t-230 -84q-153 0 -226.5 75t-73.5 231v212.5t-1 77.5q-1 11 -5 17t-13 10q-7 3 -18 7t-13 5q-16 6 -25.5 18.5t-9.5 29.5q0 24 12 38t35 18q18 3 62 4.5t92 1.5q49 0 87 -1.5t53 -3.5q23 -3 34.5 -15.5t11.5 -35.5q0 -17 -8.5 -29.5
t-27.5 -21.5q-3 -2 -6.5 -3.5l-10.5 -4.5q-6 -2 -8.5 -3.5t-5.5 -2.5q-11 -5 -15.5 -11t-5.5 -16q-3 -28 -3 -123t2 -154q2 -74 35 -111.5t95 -37.5q67 0 98.5 42t31.5 136q0 71 -1.5 142.5t-3.5 103.5q-1 11 -5.5 18t-13.5 11q-7 3 -16.5 6l-9.5 3q-21 7 -32 21t-11 34
q0 23 11.5 36t34.5 16q14 3 41.5 4t75.5 1q36 0 62.5 -1.5t40.5 -3.5q21 -4 31.5 -16t10.5 -34q0 -18 -7.5 -30t-23.5 -18q-14 -5 -19.5 -8t-11.5 -8q-8 -7 -12 -17.5t-5 -28.5v-26v-55q-1 -66 -1 -102.5v-67.5zM242 851q54 -23 140.5 -49t108.5 -23q13 2 21.5 8.5
t12.5 18.5q8 21 3 35t-24 28q-74 50 -136.5 84.5t-83.5 34.5q-16 0 -30 -12t-25 -36q-16 -33 -13 -56t26 -33z" />
    <glyph glyph-name="Uacute" unicode="&#xda;" horiz-adv-x="807" 
d="M14 0zM707 312q0 -161 -78 -245t-230 -84q-153 0 -226.5 75t-73.5 231v212.5t-1 77.5q-1 11 -5 17t-13 10q-7 3 -18 7t-13 5q-16 6 -25.5 18.5t-9.5 29.5q0 24 12 38t35 18q18 3 62 4.5t92 1.5q49 0 87 -1.5t53 -3.5q23 -3 34.5 -15.5t11.5 -35.5q0 -17 -8.5 -29.5
t-27.5 -21.5q-3 -2 -6.5 -3.5l-10.5 -4.5q-6 -2 -8.5 -3.5t-5.5 -2.5q-11 -5 -15.5 -11t-5.5 -16q-3 -28 -3 -123t2 -154q2 -74 35 -111.5t95 -37.5q67 0 98.5 42t31.5 136q0 71 -1.5 142.5t-3.5 103.5q-1 11 -5.5 18t-13.5 11q-7 3 -16.5 6l-9.5 3q-21 7 -32 21t-11 34
q0 23 11.5 36t34.5 16q14 3 41.5 4t75.5 1q36 0 62.5 -1.5t40.5 -3.5q21 -4 31.5 -16t10.5 -34q0 -18 -7.5 -30t-23.5 -18q-14 -5 -19.5 -8t-11.5 -8q-8 -7 -12 -17.5t-5 -28.5v-26v-55q-1 -66 -1 -102.5v-67.5zM600 850q-54 -23 -140.5 -49t-108.5 -23q-13 2 -21.5 8.5
t-12.5 18.5q-8 21 -3 35t24 28q74 50 136.5 84.5t83.5 34.5q16 0 30 -12t25 -36q16 -33 13 -56t-26 -33z" />
    <glyph glyph-name="Ucircumflex" unicode="&#xdb;" horiz-adv-x="807" 
d="M14 0zM707 312q0 -161 -78 -245t-230 -84q-153 0 -226.5 75t-73.5 231v212.5t-1 77.5q-1 11 -5 17t-13 10q-7 3 -18 7t-13 5q-16 6 -25.5 18.5t-9.5 29.5q0 24 12 38t35 18q18 3 62 4.5t92 1.5q49 0 87 -1.5t53 -3.5q23 -3 34.5 -15.5t11.5 -35.5q0 -17 -8.5 -29.5
t-27.5 -21.5q-3 -2 -6.5 -3.5l-10.5 -4.5q-6 -2 -8.5 -3.5t-5.5 -2.5q-11 -5 -15.5 -11t-5.5 -16q-3 -28 -3 -123t2 -154q2 -74 35 -111.5t95 -37.5q67 0 98.5 42t31.5 136q0 71 -1.5 142.5t-3.5 103.5q-1 11 -5.5 18t-13.5 11q-7 3 -16.5 6l-9.5 3q-21 7 -32 21t-11 34
q0 23 11.5 36t34.5 16q14 3 41.5 4t75.5 1q36 0 62.5 -1.5t40.5 -3.5q21 -4 31.5 -16t10.5 -34q0 -18 -7.5 -30t-23.5 -18q-14 -5 -19.5 -8t-11.5 -8q-8 -7 -12 -17.5t-5 -28.5v-26v-55q-1 -66 -1 -102.5v-67.5zM409 837q-35 -24 -65 -40.5t-54 -25.5q-13 -5 -24 -1.5
t-22 15.5t-12.5 21t4.5 19q7 12 22.5 29t44.5 44q17 16 36 31.5t35 27.5q14 10 25 14t23 4t22 -3.5t21 -12.5q17 -13 35.5 -28.5t35.5 -31.5q23 -21 40.5 -41.5t25.5 -35.5q5 -9 2 -18.5t-14 -20.5q-12 -12 -24.5 -15t-24.5 2q-20 8 -47 24.5t-64 42.5q-1 0 -4.5 2.5
t-5.5 2.5q-3 0 -7 -2.5z" />
    <glyph glyph-name="Udieresis" unicode="&#xdc;" horiz-adv-x="807" 
d="M14 0zM707 312q0 -161 -78 -245t-230 -84q-153 0 -226.5 75t-73.5 231v212.5t-1 77.5q-1 11 -5 17t-13 10q-7 3 -18 7t-13 5q-16 6 -25.5 18.5t-9.5 29.5q0 24 12 38t35 18q18 3 62 4.5t92 1.5q49 0 87 -1.5t53 -3.5q23 -3 34.5 -15.5t11.5 -35.5q0 -17 -8.5 -29.5
t-27.5 -21.5q-3 -2 -6.5 -3.5l-10.5 -4.5q-6 -2 -8.5 -3.5t-5.5 -2.5q-11 -5 -15.5 -11t-5.5 -16q-3 -28 -3 -123t2 -154q2 -74 35 -111.5t95 -37.5q67 0 98.5 42t31.5 136q0 71 -1.5 142.5t-3.5 103.5q-1 11 -5.5 18t-13.5 11q-7 3 -16.5 6l-9.5 3q-21 7 -32 21t-11 34
q0 23 11.5 36t34.5 16q14 3 41.5 4t75.5 1q36 0 62.5 -1.5t40.5 -3.5q21 -4 31.5 -16t10.5 -34q0 -18 -7.5 -30t-23.5 -18q-14 -5 -19.5 -8t-11.5 -8q-8 -7 -12 -17.5t-5 -28.5v-26v-55q-1 -66 -1 -102.5v-67.5zM639 873q3 -43 -30.5 -71.5t-84.5 -28.5q-33 0 -53.5 16.5
t-22.5 44.5q-3 42 30.5 72t81.5 31q35 0 56 -17t23 -47zM411 873q3 -43 -30.5 -71.5t-83.5 -28.5q-32 0 -53 17t-23 44q-3 42 30.5 71.5t81.5 30.5q35 0 55.5 -16.5t22.5 -46.5z" />
    <glyph glyph-name="Yacute" unicode="&#xdd;" horiz-adv-x="809" 
d="M15 0zM385 -12q-58 0 -94.5 2.5t-50.5 6.5q-18 4 -27.5 17.5t-9.5 35.5q0 20 12.5 34t35.5 19q13 3 22.5 5t18.5 5q11 3 17 10t7 17q1 13 1 34.5v64.5q0 23 -6.5 40t-24.5 43q-46 63 -97.5 137.5t-86.5 128.5q-7 11 -13 16t-14 7q-13 6 -17 7.5t-9 2.5q-15 4 -24.5 16.5
t-9.5 29.5q0 22 12.5 36.5t36.5 17.5q20 3 59.5 5t89.5 2q65 0 100 -1t54 -4q23 -3 34.5 -15.5t11.5 -35.5q0 -18 -11.5 -30.5t-32.5 -16.5q-23 -6 -33.5 -10t-13.5 -9q-6 -4 -7 -10.5t4 -14.5q10 -18 22.5 -37t36.5 -52q14 -21 25.5 -36.5t22.5 -29.5q4 -5 8 -7t9 -2t9 2.5
t8 7.5q16 20 29 39t27 43q18 30 28.5 50t17.5 37q3 10 -1.5 16t-15.5 8q-1 0 -15 1.5t-20 2.5q-18 4 -27 15.5t-9 31.5q0 23 14 37t39 17q22 2 50 2.5t67 0.5q29 0 55 -1t49 -3t35.5 -15.5t12.5 -35.5q0 -20 -9.5 -33.5t-26.5 -18.5q-6 -2 -12.5 -5t-11.5 -6q-12 -8 -19 -15
t-14 -17q-37 -51 -80.5 -115.5t-88.5 -134.5q-12 -20 -16.5 -36.5t-4.5 -37.5q0 -33 0.5 -66t1.5 -48q1 -11 5 -16.5t13 -7.5q11 -3 21 -5.5t22 -4.5q23 -5 33.5 -17.5t10.5 -34.5q0 -24 -15 -38.5t-47 -20.5q-21 -3 -65 -5t-108 -2zM606 850q-54 -23 -140.5 -49t-108.5 -23
q-13 2 -21.5 8.5t-12.5 18.5q-8 21 -3 35t24 28q74 50 136.5 84.5t83.5 34.5q16 0 30 -12t25 -36q16 -33 13 -56t-26 -33z" />
    <glyph glyph-name="Thorn" unicode="&#xde;" horiz-adv-x="679" 
d="M216 -10q-58 0 -93 1t-50 4q-22 4 -34 17t-12 33q0 16 7.5 27.5t21.5 15.5q6 2 12.5 4.5t17.5 5.5q13 6 18 15t6 24q1 30 1.5 94t0.5 126v112v112q-1 15 -6 24t-16 13q-1 0 -12.5 3.5t-17.5 4.5q-16 4 -24 16t-8 30q0 19 9 31t26 16q15 4 51.5 6.5t84.5 2.5q62 0 103 -2
t60 -5q21 -4 31 -15.5t10 -31.5q0 -18 -10 -30.5t-29 -16.5q-5 -1 -10 -1.5l-15 -1.5q-8 -1 -12 -2t-8 -1q-8 -1 -11.5 -5.5t-4.5 -14.5v-13.5v-13.5q0 -15 5.5 -20t20.5 -5h13.5h25.5q21 1 31.5 1h18.5q113 0 173.5 -46t60.5 -132q0 -99 -68.5 -149.5t-203.5 -50.5h-24.5
h-25.5q-15 0 -20.5 -5t-5.5 -20v-14.5v-14.5q1 -11 4 -15t11 -6q11 -1 20.5 -2t22.5 -2q25 -7 35.5 -18.5t10.5 -28.5q0 -22 -10 -34.5t-29 -15.5t-60.5 -4.5t-92.5 -1.5zM302 316q1 -20 9 -28.5t26 -8.5h14.5h14.5q51 0 75 20.5t24 63.5q0 39 -25 58.5t-74 19.5h-13.5
h-13.5q-16 0 -24.5 -6.5t-10.5 -20.5q-2 -11 -2.5 -22.5t-0.5 -25.5v-33t1 -17z" />
    <glyph glyph-name="germandbls" unicode="&#xdf;" horiz-adv-x="787" 
d="M301 -3q-20 -5 -47.5 -7t-64.5 -2q-34 0 -66 1t-50 3q-26 3 -39.5 15t-13.5 34q0 17 8 28t26 18q7 3 12 5.5l13 6.5q6 3 9 10t4 19q1 16 1 76v73v107.5v106.5q0 134 77.5 200t235.5 66q114 0 178.5 -39t64.5 -109q0 -34 -14.5 -58.5t-53.5 -52.5q-21 -14 -28.5 -25
t-7.5 -25q0 -15 9 -26.5t39 -30.5l51 -31q59 -37 85.5 -82.5t26.5 -109.5q0 -80 -46 -129.5t-123 -49.5q-16 0 -29.5 3.5t-33.5 13.5q-10 5 -14.5 6.5t-8.5 1.5t-7.5 -1.5t-14.5 -9.5q-10 -8 -17 -10.5t-17 -2.5q-26 0 -42 16t-23 49q-3 16 -5 34.5t-3 42.5q0 26 0.5 38
t2.5 22q3 17 13.5 26.5t26.5 9.5q12 0 22 -7.5t15 -20.5q16 -30 20 -36t9 -11q10 -11 22 -17t26 -6q21 0 33 12.5t12 33.5q0 24 -14.5 42t-50.5 37l-54 29q-38 20 -57 50t-19 71q0 31 12.5 56.5t42.5 51.5q22 20 30 35.5t8 36.5q0 31 -20 48t-55 17q-56 0 -83.5 -35.5
t-27.5 -108.5v-110.5v-110.5v-76v-76q0 -11 2 -18t7 -12q3 -3 7 -5.5t13 -6.5q17 -8 24 -18.5t7 -26.5q0 -19 -11.5 -31.5t-33.5 -17.5z" />
    <glyph glyph-name="agrave" unicode="&#xe0;" horiz-adv-x="631" 
d="M32 0zM355 56q-27 -35 -68.5 -54.5t-89.5 -19.5q-78 0 -121.5 39t-43.5 108q0 73 51.5 115t172.5 61q22 3 32.5 5t19.5 4q29 8 41 21.5t12 37.5v3q0 33 -20 52.5t-55 19.5q-30 0 -51 -15.5t-31 -44.5q-14 -34 -36 -50.5t-54 -16.5q-36 0 -58.5 20t-22.5 54q0 70 83 118
t190 48q121 0 183 -53.5t62 -156.5q0 -30 -0.5 -92t0.5 -88q0 -27 5.5 -40.5t23.5 -20.5q1 -1 3 -1.5t5 -1.5q5 -2 8.5 -3.5t7.5 -3.5q12 -6 17.5 -15t5.5 -22q0 -16 -7 -28t-23 -22q-19 -13 -46.5 -20t-60.5 -7t-51 5.5t-34 19.5q-8 7 -15 18.5t-12 25.5q-2 6 -3.5 8.5
t-5.5 2.5q-3 0 -6 -2t-8 -8zM224 165q0 -27 17.5 -43t47.5 -16t49 15t26 45q2 8 3 18t1 22v4q0 19 -6 25.5t-24 3.5l-4 -1q-5 -1 -12.5 -2t-30.5 -6q-35 -8 -51 -23.5t-16 -41.5zM413 635q-7 -11 -16.5 -16.5t-21.5 -4.5q-21 1 -102 41.5t-131 72.5q-21 13 -20 36.5t22 53.5
q15 21 31 30t32 7q21 -2 78 -48t118 -107q17 -18 19.5 -32.5t-9.5 -32.5z" />
    <glyph glyph-name="aacute" unicode="&#xe1;" horiz-adv-x="631" 
d="M32 0zM355 56q-27 -35 -68.5 -54.5t-89.5 -19.5q-78 0 -121.5 39t-43.5 108q0 73 51.5 115t172.5 61q22 3 32.5 5t19.5 4q29 8 41 21.5t12 37.5v3q0 33 -20 52.5t-55 19.5q-30 0 -51 -15.5t-31 -44.5q-14 -34 -36 -50.5t-54 -16.5q-36 0 -58.5 20t-22.5 54q0 70 83 118
t190 48q121 0 183 -53.5t62 -156.5q0 -30 -0.5 -92t0.5 -88q0 -27 5.5 -40.5t23.5 -20.5q1 -1 3 -1.5t5 -1.5q5 -2 8.5 -3.5t7.5 -3.5q12 -6 17.5 -15t5.5 -22q0 -16 -7 -28t-23 -22q-19 -13 -46.5 -20t-60.5 -7t-51 5.5t-34 19.5q-8 7 -15 18.5t-12 25.5q-2 6 -3.5 8.5
t-5.5 2.5q-3 0 -6 -2t-8 -8zM224 165q0 -27 17.5 -43t47.5 -16t49 15t26 45q2 8 3 18t1 22v4q0 19 -6 25.5t-24 3.5l-4 -1q-5 -1 -12.5 -2t-30.5 -6q-35 -8 -51 -23.5t-16 -41.5zM476 724q-51 -32 -131 -72.5t-101 -41.5q-12 -1 -22 4.5t-17 16.5q-12 19 -9 33.5t20 31.5
q61 60 117.5 105.5t77.5 49.5q17 3 32.5 -6t30.5 -31q21 -30 22 -53.5t-20 -36.5z" />
    <glyph glyph-name="acircumflex" unicode="&#xe2;" horiz-adv-x="631" 
d="M32 0zM355 56q-27 -35 -68.5 -54.5t-89.5 -19.5q-78 0 -121.5 39t-43.5 108q0 73 51.5 115t172.5 61q22 3 32.5 5t19.5 4q29 8 41 21.5t12 37.5v3q0 33 -20 52.5t-55 19.5q-30 0 -51 -15.5t-31 -44.5q-14 -34 -36 -50.5t-54 -16.5q-36 0 -58.5 20t-22.5 54q0 70 83 118
t190 48q121 0 183 -53.5t62 -156.5q0 -30 -0.5 -92t0.5 -88q0 -27 5.5 -40.5t23.5 -20.5q1 -1 3 -1.5t5 -1.5q5 -2 8.5 -3.5t7.5 -3.5q12 -6 17.5 -15t5.5 -22q0 -16 -7 -28t-23 -22q-19 -13 -46.5 -20t-60.5 -7t-51 5.5t-34 19.5q-8 7 -15 18.5t-12 25.5q-2 6 -3.5 8.5
t-5.5 2.5q-3 0 -6 -2t-8 -8zM224 165q0 -27 17.5 -43t47.5 -16t49 15t26 45q2 8 3 18t1 22v4q0 19 -6 25.5t-24 3.5l-4 -1q-5 -1 -12.5 -2t-30.5 -6q-35 -8 -51 -23.5t-16 -41.5zM301 684q-37 -27 -67 -44t-52 -25q-12 -5 -23.5 -1t-22.5 16t-13 21.5t5 19.5q8 13 24.5 32
t42.5 44q18 16 37 32.5t34 28.5q14 10 25 14t23 4t22 -4t21 -13q20 -15 37.5 -30.5t33.5 -31.5q23 -22 40.5 -42.5t25.5 -35.5q5 -10 2 -19.5t-14 -21.5q-11 -11 -23 -14.5t-26 1.5q-18 6 -44 22t-67 47q-1 0 -4.5 2.5t-5.5 2.5q-3 0 -7 -2.5z" />
    <glyph glyph-name="atilde" unicode="&#xe3;" horiz-adv-x="631" 
d="M32 0zM355 56q-27 -35 -68.5 -54.5t-89.5 -19.5q-78 0 -121.5 39t-43.5 108q0 73 51.5 115t172.5 61q22 3 32.5 5t19.5 4q29 8 41 21.5t12 37.5v3q0 33 -20 52.5t-55 19.5q-30 0 -51 -15.5t-31 -44.5q-14 -34 -36 -50.5t-54 -16.5q-36 0 -58.5 20t-22.5 54q0 70 83 118
t190 48q121 0 183 -53.5t62 -156.5q0 -30 -0.5 -92t0.5 -88q0 -27 5.5 -40.5t23.5 -20.5q1 -1 3 -1.5t5 -1.5q5 -2 8.5 -3.5t7.5 -3.5q12 -6 17.5 -15t5.5 -22q0 -16 -7 -28t-23 -22q-19 -13 -46.5 -20t-60.5 -7t-51 5.5t-34 19.5q-8 7 -15 18.5t-12 25.5q-2 6 -3.5 8.5
t-5.5 2.5q-3 0 -6 -2t-8 -8zM224 165q0 -27 17.5 -43t47.5 -16t49 15t26 45q2 8 3 18t1 22v4q0 19 -6 25.5t-24 3.5l-4 -1q-5 -1 -12.5 -2t-30.5 -6q-35 -8 -51 -23.5t-16 -41.5zM177 650q-4 -14 -12 -20t-22 -6q-16 0 -24 8.5t-7 24.5q3 73 37 112t95 39q22 0 42.5 -8
t51.5 -32q22 -18 34 -23t23 -5q20 0 30.5 9.5t16.5 32.5q4 15 12.5 21t24.5 6q15 0 22 -8.5t6 -24.5q-3 -75 -34.5 -113t-91.5 -38q-29 0 -53 8.5t-55 35.5q-19 16 -29 20.5t-20 4.5q-19 0 -29.5 -9.5t-17.5 -34.5z" />
    <glyph glyph-name="adieresis" unicode="&#xe4;" horiz-adv-x="631" 
d="M32 0zM355 56q-27 -35 -68.5 -54.5t-89.5 -19.5q-78 0 -121.5 39t-43.5 108q0 73 51.5 115t172.5 61q22 3 32.5 5t19.5 4q29 8 41 21.5t12 37.5v3q0 33 -20 52.5t-55 19.5q-30 0 -51 -15.5t-31 -44.5q-14 -34 -36 -50.5t-54 -16.5q-36 0 -58.5 20t-22.5 54q0 70 83 118
t190 48q121 0 183 -53.5t62 -156.5q0 -30 -0.5 -92t0.5 -88q0 -27 5.5 -40.5t23.5 -20.5q1 -1 3 -1.5t5 -1.5q5 -2 8.5 -3.5t7.5 -3.5q12 -6 17.5 -15t5.5 -22q0 -16 -7 -28t-23 -22q-19 -13 -46.5 -20t-60.5 -7t-51 5.5t-34 19.5q-8 7 -15 18.5t-12 25.5q-2 6 -3.5 8.5
t-5.5 2.5q-3 0 -6 -2t-8 -8zM224 165q0 -27 17.5 -43t47.5 -16t49 15t26 45q2 8 3 18t1 22v4q0 19 -6 25.5t-24 3.5l-4 -1q-5 -1 -12.5 -2t-30.5 -6q-35 -8 -51 -23.5t-16 -41.5zM543 717q0 -48 -36 -78.5t-90 -30.5q-37 0 -59.5 20t-22.5 52q0 49 36 81t88 32
q39 0 61.5 -20.5t22.5 -55.5zM296 717q0 -48 -35.5 -78t-89.5 -30q-37 0 -59.5 19.5t-22.5 51.5q0 49 35.5 80.5t87.5 31.5q39 0 61.5 -20t22.5 -55z" />
    <glyph glyph-name="aring" unicode="&#xe5;" horiz-adv-x="631" 
d="M32 0zM355 56q-27 -35 -68.5 -54.5t-89.5 -19.5q-78 0 -121.5 39t-43.5 108q0 73 51.5 115t172.5 61q22 3 32.5 5t19.5 4q29 8 41 21.5t12 37.5v3q0 33 -20 52.5t-55 19.5q-30 0 -51 -15.5t-31 -44.5q-14 -34 -36 -50.5t-54 -16.5q-36 0 -58.5 20t-22.5 54q0 70 83 118
t190 48q121 0 183 -53.5t62 -156.5q0 -30 -0.5 -92t0.5 -88q0 -27 5.5 -40.5t23.5 -20.5q1 -1 3 -1.5t5 -1.5q5 -2 8.5 -3.5t7.5 -3.5q12 -6 17.5 -15t5.5 -22q0 -16 -7 -28t-23 -22q-19 -13 -46.5 -20t-60.5 -7t-51 5.5t-34 19.5q-8 7 -15 18.5t-12 25.5q-2 6 -3.5 8.5
t-5.5 2.5q-3 0 -6 -2t-8 -8zM224 165q0 -27 17.5 -43t47.5 -16t49 15t26 45q2 8 3 18t1 22v4q0 19 -6 25.5t-24 3.5l-4 -1q-5 -1 -12.5 -2t-30.5 -6q-35 -8 -51 -23.5t-16 -41.5zM436 747q0 -60 -37 -96t-98 -36q-60 0 -94 33.5t-34 91.5t38 94.5t97 36.5t93.5 -33.5
t34.5 -90.5zM256 743q0 -21 13 -34.5t34 -13.5q22 0 35.5 13.5t13.5 35.5q0 21 -13 34t-33 13q-21 0 -35.5 -13.5t-14.5 -34.5z" />
    <glyph glyph-name="ae" unicode="&#xe6;" horiz-adv-x="945" 
d="M411 64q-40 -42 -90.5 -61.5t-118.5 -19.5q-80 0 -125 38.5t-45 105.5q0 69 49.5 110t162.5 61q10 2 19 3.5t24 3.5q9 2 13 2.5t8 1.5q29 8 41 21t12 37v10q0 32 -20.5 51.5t-54.5 19.5q-30 0 -51 -15t-31 -44q-13 -35 -35.5 -51.5t-54.5 -16.5q-36 0 -58.5 20.5
t-22.5 54.5q0 70 81 118t186 48q55 0 99 -14.5t72 -41.5q3 -3 5.5 -4t5.5 -1t5.5 1t5.5 3q32 29 76 44t96 15q112 0 180 -63.5t68 -168.5q0 -37 -22 -54t-72 -19q-49 -3 -114.5 -6.5t-126.5 -6.5q-12 -1 -19 -8t-5 -17q4 -42 44 -68t98 -26q45 0 76.5 13.5t57.5 44.5
q7 8 15 12t18 4q17 0 29 -10.5t12 -25.5q0 -5 -1 -10t-7 -21q-27 -72 -91.5 -111.5t-158.5 -39.5q-69 0 -121.5 21t-86.5 63q-3 3 -6 5t-6 2t-5 -1t-10 -9zM224 162q0 -27 17 -41.5t48 -14.5q30 0 49 15.5t26 45.5q3 10 3.5 15.5t0.5 15.5v4q0 19 -6 25.5t-24 3.5l-4 -1
q-5 -1 -12.5 -2t-30.5 -6q-38 -9 -52.5 -22.5t-14.5 -37.5zM724 361q0 33 -24.5 55t-64.5 22q-42 0 -69 -25.5t-27 -62.5q0 -12 5 -17t17 -5q8 0 24.5 1t99.5 8q21 1 30 6.5t9 17.5z" />
    <glyph glyph-name="ccedilla" unicode="&#xe7;" horiz-adv-x="626" 
d="M430 -150q0 -42 -30.5 -66.5t-81.5 -24.5q-55 0 -90.5 29t-35.5 72q0 14 6.5 22t17.5 8q5 0 9.5 -3t9.5 -9q15 -18 31.5 -27t35.5 -9q15 0 23.5 6.5t8.5 18.5t-10 20t-36 17q-15 5 -20.5 11t-5.5 14q0 6 3 11.5t13 15.5q7 8 9.5 12t2.5 8t-3 6t-8 3q-116 13 -183.5 89
t-67.5 194q0 133 79 214.5t203 81.5q29 0 53.5 -4.5t50.5 -15.5q14 -6 20.5 -8t11.5 -2q9 0 15.5 3.5t10.5 10.5q7 11 16 16t22 5q17 0 29 -9t18 -27t11 -40t8 -49q4 -30 6.5 -55t2.5 -45q1 -16 -7 -28t-24 -18q-15 -6 -28 -5t-24 9q-9 7 -19.5 17t-30.5 33
q-43 50 -70.5 65.5t-57.5 15.5q-47 0 -74.5 -32.5t-27.5 -87.5q0 -76 48 -127.5t120 -51.5q38 0 65.5 12.5t50.5 40.5q6 8 15 12t19 4q17 0 29 -11t12 -26q0 -6 -2.5 -14t-7.5 -18q-31 -61 -78.5 -97.5t-112.5 -48.5q-15 -3 -24 -11.5t-9 -20.5q0 -9 6.5 -15.5t21.5 -12.5
q28 -12 41.5 -31t13.5 -47z" />
    <glyph glyph-name="egrave" unicode="&#xe8;" horiz-adv-x="623" 
d="M28 0zM574 134q-30 -73 -93.5 -112t-156.5 -39q-139 0 -217.5 75.5t-78.5 206.5q0 133 89 216t226 83q112 0 180 -64t68 -171q0 -41 -23 -60.5t-72 -19.5h-62h-62h-58.5h-59.5q-12 0 -18 -5.5t-5 -17.5q3 -45 43 -72t100 -27q43 0 74.5 13.5t59.5 44.5q6 8 15 12t18 4
q17 0 29 -10.5t12 -25.5q0 -6 -1.5 -12.5t-6.5 -18.5zM218 360q-1 -15 4 -21.5t19 -6.5h29.5h28.5h33.5h33.5q20 0 28 6.5t8 22.5q0 33 -24.5 55t-64.5 22q-39 0 -65.5 -22t-29.5 -56zM432 635q-7 -11 -16.5 -16.5t-21.5 -4.5q-21 1 -102 41.5t-131 72.5q-21 13 -20 36.5
t22 53.5q15 21 31 30t32 7q21 -2 78 -48t118 -107q17 -18 19.5 -32.5t-9.5 -32.5z" />
    <glyph glyph-name="eacute" unicode="&#xe9;" horiz-adv-x="623" 
d="M28 0zM574 134q-30 -73 -93.5 -112t-156.5 -39q-139 0 -217.5 75.5t-78.5 206.5q0 133 89 216t226 83q112 0 180 -64t68 -171q0 -41 -23 -60.5t-72 -19.5h-62h-62h-58.5h-59.5q-12 0 -18 -5.5t-5 -17.5q3 -45 43 -72t100 -27q43 0 74.5 13.5t59.5 44.5q6 8 15 12t18 4
q17 0 29 -10.5t12 -25.5q0 -6 -1.5 -12.5t-6.5 -18.5zM218 360q-1 -15 4 -21.5t19 -6.5h29.5h28.5h33.5h33.5q20 0 28 6.5t8 22.5q0 33 -24.5 55t-64.5 22q-39 0 -65.5 -22t-29.5 -56zM500 724q-51 -32 -131 -72.5t-101 -41.5q-12 -1 -22 4.5t-17 16.5q-12 19 -9 33.5
t20 31.5q61 60 117.5 105.5t77.5 49.5q17 3 32.5 -6t30.5 -31q21 -30 22 -53.5t-20 -36.5z" />
    <glyph glyph-name="ecircumflex" unicode="&#xea;" horiz-adv-x="623" 
d="M28 0zM574 134q-30 -73 -93.5 -112t-156.5 -39q-139 0 -217.5 75.5t-78.5 206.5q0 133 89 216t226 83q112 0 180 -64t68 -171q0 -41 -23 -60.5t-72 -19.5h-62h-62h-58.5h-59.5q-12 0 -18 -5.5t-5 -17.5q3 -45 43 -72t100 -27q43 0 74.5 13.5t59.5 44.5q6 8 15 12t18 4
q17 0 29 -10.5t12 -25.5q0 -6 -1.5 -12.5t-6.5 -18.5zM218 360q-1 -15 4 -21.5t19 -6.5h29.5h28.5h33.5h33.5q20 0 28 6.5t8 22.5q0 33 -24.5 55t-64.5 22q-39 0 -65.5 -22t-29.5 -56zM309 684q-37 -27 -67 -44t-52 -25q-12 -5 -23.5 -1t-22.5 16t-13 21.5t5 19.5
q8 13 24.5 32t42.5 44q18 16 37 32.5t34 28.5q14 10 25 14t23 4t22 -4t21 -13q20 -15 37.5 -30.5t33.5 -31.5q23 -22 40.5 -42.5t25.5 -35.5q5 -10 2 -19.5t-14 -21.5q-11 -11 -23 -14.5t-26 1.5q-18 6 -44 22t-67 47q-1 0 -4.5 2.5t-5.5 2.5q-3 0 -7 -2.5z" />
    <glyph glyph-name="edieresis" unicode="&#xeb;" horiz-adv-x="623" 
d="M28 0zM574 134q-30 -73 -93.5 -112t-156.5 -39q-139 0 -217.5 75.5t-78.5 206.5q0 133 89 216t226 83q112 0 180 -64t68 -171q0 -41 -23 -60.5t-72 -19.5h-62h-62h-58.5h-59.5q-12 0 -18 -5.5t-5 -17.5q3 -45 43 -72t100 -27q43 0 74.5 13.5t59.5 44.5q6 8 15 12t18 4
q17 0 29 -10.5t12 -25.5q0 -6 -1.5 -12.5t-6.5 -18.5zM218 360q-1 -15 4 -21.5t19 -6.5h29.5h28.5h33.5h33.5q20 0 28 6.5t8 22.5q0 33 -24.5 55t-64.5 22q-39 0 -65.5 -22t-29.5 -56zM557 717q0 -48 -36 -78.5t-90 -30.5q-37 0 -59.5 20t-22.5 52q0 49 36 81t88 32
q39 0 61.5 -20.5t22.5 -55.5zM310 717q0 -48 -35.5 -78t-89.5 -30q-37 0 -59.5 19.5t-22.5 51.5q0 49 35.5 80.5t87.5 31.5q39 0 61.5 -20t22.5 -55z" />
    <glyph glyph-name="igrave" unicode="&#xec;" horiz-adv-x="379" 
d="M0 0zM191 -10q-44 0 -79 2t-52 6q-16 3 -25.5 15t-9.5 30q0 16 8.5 27.5t25.5 17.5q13 4 16.5 5.5t6.5 3.5q7 4 10 11.5t4 22.5q1 20 1.5 46.5t0.5 92.5v70t-1 32q-1 12 -5 19t-14 12q-6 3 -11.5 4t-15.5 2q-18 2 -28 12.5t-10 27.5q0 19 14.5 36.5t41.5 31.5
q37 18 68.5 28.5t56.5 12.5q21 2 36 -0.5t28 -10.5q17 -11 25 -29.5t8 -45.5q0 -28 -0.5 -59.5t-0.5 -84.5q-1 -30 -1 -42v-20v-93t1 -39q0 -14 3.5 -22t10.5 -13l5 -2.5t9 -3.5q3 -2 5 -2.5t4 -1.5q16 -8 23.5 -18.5t7.5 -25.5q0 -18 -9.5 -30.5t-26.5 -16.5
q-20 -4 -51.5 -6t-79.5 -2zM269 635q-7 -11 -16.5 -16.5t-21.5 -4.5q-21 1 -102 41.5t-131 72.5q-21 13 -20 36.5t22 53.5q15 21 31 30t32 7q21 -2 78 -48t118 -107q17 -18 19.5 -32.5t-9.5 -32.5z" />
    <glyph glyph-name="iacute" unicode="&#xed;" horiz-adv-x="379" 
d="M13 0zM191 -10q-44 0 -79 2t-52 6q-16 3 -25.5 15t-9.5 30q0 16 8.5 27.5t25.5 17.5q13 4 16.5 5.5t6.5 3.5q7 4 10 11.5t4 22.5q1 20 1.5 46.5t0.5 92.5v70t-1 32q-1 12 -5 19t-14 12q-6 3 -11.5 4t-15.5 2q-18 2 -28 12.5t-10 27.5q0 19 14.5 36.5t41.5 31.5
q37 18 68.5 28.5t56.5 12.5q21 2 36 -0.5t28 -10.5q17 -11 25 -29.5t8 -45.5q0 -28 -0.5 -59.5t-0.5 -84.5q-1 -30 -1 -42v-20v-93t1 -39q0 -14 3.5 -22t10.5 -13l5 -2.5t9 -3.5q3 -2 5 -2.5t4 -1.5q16 -8 23.5 -18.5t7.5 -25.5q0 -18 -9.5 -30.5t-26.5 -16.5
q-20 -4 -51.5 -6t-79.5 -2zM335 724q-51 -32 -131 -72.5t-101 -41.5q-12 -1 -22 4.5t-17 16.5q-12 19 -9 33.5t20 31.5q61 60 117.5 105.5t77.5 49.5q17 3 32.5 -6t30.5 -31q21 -30 22 -53.5t-20 -36.5z" />
    <glyph glyph-name="icircumflex" unicode="&#xee;" horiz-adv-x="379" 
d="M0 0zM191 -10q-44 0 -79 2t-52 6q-16 3 -25.5 15t-9.5 30q0 16 8.5 27.5t25.5 17.5q13 4 16.5 5.5t6.5 3.5q7 4 10 11.5t4 22.5q1 20 1.5 46.5t0.5 92.5v70t-1 32q-1 12 -5 19t-14 12q-6 3 -11.5 4t-15.5 2q-18 2 -28 12.5t-10 27.5q0 19 14.5 36.5t41.5 31.5
q37 18 68.5 28.5t56.5 12.5q21 2 36 -0.5t28 -10.5q17 -11 25 -29.5t8 -45.5q0 -28 -0.5 -59.5t-0.5 -84.5q-1 -30 -1 -42v-20v-93t1 -39q0 -14 3.5 -22t10.5 -13l5 -2.5t9 -3.5q3 -2 5 -2.5t4 -1.5q16 -8 23.5 -18.5t7.5 -25.5q0 -18 -9.5 -30.5t-26.5 -16.5
q-20 -4 -51.5 -6t-79.5 -2zM179 684q-37 -27 -67 -44t-52 -25q-12 -5 -23.5 -1t-22.5 16t-13 21.5t5 19.5q8 13 24.5 32t42.5 44q18 16 37 32.5t34 28.5q14 10 25 14t23 4t22 -4t21 -13q20 -15 37.5 -30.5t33.5 -31.5q23 -22 40.5 -42.5t25.5 -35.5q5 -10 2 -19.5t-14 -21.5
q-11 -11 -23 -14.5t-26 1.5q-18 6 -44 22t-67 47q-1 0 -4.5 2.5t-5.5 2.5q-3 0 -7 -2.5z" />
    <glyph glyph-name="idieresis" unicode="&#xef;" horiz-adv-x="379" 
d="M0 0zM191 -10q-44 0 -79 2t-52 6q-16 3 -25.5 15t-9.5 30q0 16 8.5 27.5t25.5 17.5q13 4 16.5 5.5t6.5 3.5q7 4 10 11.5t4 22.5q1 20 1.5 46.5t0.5 92.5v70t-1 32q-1 12 -5 19t-14 12q-6 3 -11.5 4t-15.5 2q-18 2 -28 12.5t-10 27.5q0 19 14.5 36.5t41.5 31.5
q37 18 68.5 28.5t56.5 12.5q21 2 36 -0.5t28 -10.5q17 -11 25 -29.5t8 -45.5q0 -28 -0.5 -59.5t-0.5 -84.5q-1 -30 -1 -42v-20v-93t1 -39q0 -14 3.5 -22t10.5 -13l5 -2.5t9 -3.5q3 -2 5 -2.5t4 -1.5q16 -8 23.5 -18.5t7.5 -25.5q0 -18 -9.5 -30.5t-26.5 -16.5
q-20 -4 -51.5 -6t-79.5 -2zM419 717q0 -48 -36 -78.5t-90 -30.5q-37 0 -59.5 20t-22.5 52q0 49 36 81t88 32q39 0 61.5 -20.5t22.5 -55.5zM172 717q0 -48 -35.5 -78t-89.5 -30q-37 0 -59.5 19.5t-22.5 51.5q0 49 35.5 80.5t87.5 31.5q39 0 61.5 -20t22.5 -55z" />
    <glyph glyph-name="eth" unicode="&#xf0;" horiz-adv-x="629" 
d="M221 221q0 -49 24.5 -80t63.5 -31q37 0 59 29.5t22 80.5q0 49 -23.5 78t-62.5 29q-37 0 -60 -29t-23 -77zM583 321q0 -166 -74 -252t-217 -86q-123 0 -193.5 62.5t-70.5 171.5q0 104 58 164t156 60q40 0 74 -11.5t75 -44.5q7 -5 10 -1t3 17q0 26 -8 52.5t-21 42.5
q-4 5 -7.5 7t-6.5 2q-6 0 -20.5 -11.5t-15.5 -12.5q-12 -10 -19.5 -13.5t-15.5 -3.5q-18 0 -37 22t-19 41q0 8 4 15t15 17q11 9 16 14.5t5 8.5q0 7 -11.5 13t-48.5 17q-35 11 -46.5 20t-11.5 22q0 14 10 28.5t33 32.5q19 15 34.5 22t30.5 7q14 0 34 -6t43 -17q10 -4 19.5 -9
t23.5 -12q12 -7 16 -8.5t7 -1.5q8 0 23 12.5t16 13.5q12 11 19.5 14.5t14.5 3.5q18 0 37 -22.5t19 -41.5q0 -10 -4 -17t-20 -20q-12 -10 -15.5 -14t-3.5 -8q0 -2 1 -4.5t9 -11.5q41 -54 60.5 -119.5t19.5 -154.5z" />
    <glyph glyph-name="ntilde" unicode="&#xf1;" horiz-adv-x="732" 
d="M14 0zM176 -10q-42 0 -71 2t-45 6q-16 3 -25.5 15t-9.5 30q0 16 8.5 27.5t24.5 17.5q14 5 17.5 6t6.5 3q7 4 10.5 12t4.5 22q1 26 1 77v55v76t-1 33q-1 12 -5.5 19t-15.5 12q-6 3 -12 4t-13 2q-18 1 -27.5 11.5t-9.5 28.5q0 20 16 38.5t44 31.5q29 14 60 23.5t59 12.5
q17 2 31.5 0.5t26.5 -7.5q14 -6 21.5 -17t9.5 -26q1 -8 1.5 -16.5t0.5 -22.5q0 -6 2 -9t6 -3q3 0 5 2t5 6q40 55 82.5 78.5t97.5 23.5q78 0 120 -48t45 -137l1.5 -69t0.5 -46v-83.5t1 -46.5q0 -17 2.5 -24.5t7.5 -10.5q4 -3 8.5 -5t10.5 -5q17 -6 24.5 -17t7.5 -27
q0 -18 -9.5 -30.5t-26.5 -16.5q-22 -4 -54 -6t-73 -2q-55 0 -80 2t-41 6t-25 16t-9 29q0 15 6.5 25t23.5 18q6 3 10 5.5t8 5.5q8 6 11.5 14t3.5 19v61.5v60.5q0 62 -6 92.5t-19 46.5q-12 15 -27 22t-35 7q-21 0 -36.5 -8t-25.5 -23q-9 -14 -13 -45t-4 -87v-64.5v-64.5
q0 -10 2.5 -17.5t8.5 -13.5q4 -4 8 -6.5t9 -4.5q15 -6 22 -15.5t7 -24.5q0 -19 -9.5 -31t-28.5 -16q-31 -5 -61 -7t-72 -2zM234 650q-4 -14 -12 -20t-22 -6q-16 0 -24 8.5t-7 24.5q3 73 37 112t95 39q22 0 42.5 -8t51.5 -32q22 -18 34 -23t23 -5q20 0 30.5 9.5t16.5 32.5
q4 15 12.5 21t24.5 6q15 0 22 -8.5t6 -24.5q-3 -75 -34.5 -113t-91.5 -38q-29 0 -53 8.5t-55 35.5q-19 16 -29 20.5t-20 4.5q-19 0 -29.5 -9.5t-17.5 -34.5z" />
    <glyph glyph-name="ograve" unicode="&#xf2;" horiz-adv-x="668" 
d="M28 0zM639 273q0 -132 -87 -211t-227 -79q-136 0 -216.5 77t-80.5 209q0 131 90 213t225 82q133 0 214.5 -79.5t81.5 -211.5zM218 314q0 -76 43.5 -134.5t100.5 -58.5q42 0 66 28.5t24 80.5q0 77 -43 136.5t-100 59.5q-42 0 -66.5 -30t-24.5 -82zM426 635
q-7 -11 -16.5 -16.5t-21.5 -4.5q-21 1 -102 41.5t-131 72.5q-21 13 -20 36.5t22 53.5q15 21 31 30t32 7q21 -2 78 -48t118 -107q17 -18 19.5 -32.5t-9.5 -32.5z" />
    <glyph glyph-name="oacute" unicode="&#xf3;" horiz-adv-x="668" 
d="M28 0zM639 273q0 -132 -87 -211t-227 -79q-136 0 -216.5 77t-80.5 209q0 131 90 213t225 82q133 0 214.5 -79.5t81.5 -211.5zM218 314q0 -76 43.5 -134.5t100.5 -58.5q42 0 66 28.5t24 80.5q0 77 -43 136.5t-100 59.5q-42 0 -66.5 -30t-24.5 -82zM488 724
q-51 -32 -131 -72.5t-101 -41.5q-12 -1 -22 4.5t-17 16.5q-12 19 -9 33.5t20 31.5q61 60 117.5 105.5t77.5 49.5q17 3 32.5 -6t30.5 -31q21 -30 22 -53.5t-20 -36.5z" />
    <glyph glyph-name="ocircumflex" unicode="&#xf4;" horiz-adv-x="668" 
d="M28 0zM324 684q-37 -27 -67 -44t-52 -25q-12 -5 -23.5 -1t-22.5 16t-13 21.5t5 19.5q8 13 24.5 32t42.5 44q18 16 37 32.5t34 28.5q14 10 25 14t23 4t22 -4t21 -13q20 -15 37.5 -30.5t33.5 -31.5q23 -22 40.5 -42.5t25.5 -35.5q5 -10 2 -19.5t-14 -21.5
q-11 -11 -23 -14.5t-26 1.5q-18 6 -44 22t-67 47q-1 0 -4.5 2.5t-5.5 2.5q-3 0 -7 -2.5zM639 273q0 -132 -87 -211t-227 -79q-136 0 -216.5 77t-80.5 209q0 131 90 213t225 82q133 0 214.5 -79.5t81.5 -211.5zM218 314q0 -76 43.5 -134.5t100.5 -58.5q42 0 66 28.5t24 80.5
q0 77 -43 136.5t-100 59.5q-42 0 -66.5 -30t-24.5 -82z" />
    <glyph glyph-name="otilde" unicode="&#xf5;" horiz-adv-x="668" 
d="M28 0zM639 273q0 -132 -87 -211t-227 -79q-136 0 -216.5 77t-80.5 209q0 131 90 213t225 82q133 0 214.5 -79.5t81.5 -211.5zM218 314q0 -76 43.5 -134.5t100.5 -58.5q42 0 66 28.5t24 80.5q0 77 -43 136.5t-100 59.5q-42 0 -66.5 -30t-24.5 -82zM208 650q-4 -14 -12 -20
t-22 -6q-16 0 -24 8.5t-7 24.5q3 73 37 112t95 39q22 0 42.5 -8t51.5 -32q22 -18 34 -23t23 -5q20 0 30.5 9.5t16.5 32.5q4 15 12.5 21t24.5 6q15 0 22 -8.5t6 -24.5q-3 -75 -34.5 -113t-91.5 -38q-29 0 -53 8.5t-55 35.5q-19 16 -29 20.5t-20 4.5q-19 0 -29.5 -9.5
t-17.5 -34.5z" />
    <glyph glyph-name="odieresis" unicode="&#xf6;" horiz-adv-x="668" 
d="M28 0zM639 273q0 -132 -87 -211t-227 -79q-136 0 -216.5 77t-80.5 209q0 131 90 213t225 82q133 0 214.5 -79.5t81.5 -211.5zM218 314q0 -76 43.5 -134.5t100.5 -58.5q42 0 66 28.5t24 80.5q0 77 -43 136.5t-100 59.5q-42 0 -66.5 -30t-24.5 -82zM559 717
q0 -48 -36 -78.5t-90 -30.5q-37 0 -59.5 20t-22.5 52q0 49 36 81t88 32q39 0 61.5 -20.5t22.5 -55.5zM312 717q0 -48 -35.5 -78t-89.5 -30q-37 0 -59.5 19.5t-22.5 51.5q0 49 35.5 80.5t87.5 31.5q39 0 61.5 -20t22.5 -55z" />
    <glyph glyph-name="divide" unicode="&#xf7;" horiz-adv-x="479" 
d="M228 299q-63 0 -90 1t-42 3q-26 1 -38.5 16t-12.5 43q0 31 13 46.5t41 17.5q23 3 65 4.5t87 1.5q51 0 89.5 -1.5t56.5 -4.5q26 -2 37.5 -15.5t11.5 -42.5q0 -32 -12.5 -46.5t-39.5 -17.5q-18 -2 -66 -3.5t-100 -1.5zM321 188q0 -38 -27 -64t-65 -26q-34 0 -53 18t-19 49
q0 37 27 64t64 28q32 0 52.5 -19.5t20.5 -49.5zM321 575q0 -38 -27 -64t-65 -26q-34 0 -53 18t-19 49q0 37 27 64t64 28q32 0 52.5 -19.5t20.5 -49.5z" />
    <glyph glyph-name="oslash" unicode="&#xf8;" horiz-adv-x="668" 
d="M294 146q0 -11 22 -20.5t47 -9.5q44 1 69 31.5t25 84.5q0 34 -6 55t-16 21q-4 0 -7 -2.5t-10 -9.5l-117 -136q-4 -5 -5.5 -8t-1.5 -6zM310 430q-45 0 -71.5 -32t-26.5 -87q0 -31 6.5 -55.5t16.5 -24.5q3 0 5.5 1.5t9.5 9.5l119 139q4 5 5.5 8.5t1.5 8.5q0 12 -21 22
t-45 10zM327 -17q-40 0 -77.5 7.5t-71.5 22.5q-7 3 -12 2.5t-11 -6.5l-38 -42q-14 -15 -33 -15.5t-36 14.5q-21 18 -23.5 35.5t14.5 36.5l33 39q5 6 5.5 12.5t-3.5 12.5q-23 34 -34.5 76t-11.5 91q0 131 89.5 213t224.5 82q37 0 72.5 -7.5t72.5 -24.5q6 -3 12.5 -1.5
t12.5 7.5l39 41q15 16 33 16t36 -16q21 -18 23 -35.5t-14 -35.5l-35 -39q-5 -6 -6 -12t3 -12q25 -39 36.5 -81t11.5 -91q0 -132 -86 -211t-226 -79z" />
    <glyph glyph-name="ugrave" unicode="&#xf9;" 
d="M5 0zM598 550q18 -7 27 -24.5t9 -43.5v-96.5v-97.5v-89.5t1 -40.5q1 -18 4.5 -27t13.5 -12q5 -4 11 -6.5t13 -3.5q18 -3 26.5 -13t8.5 -27q0 -18 -10.5 -31t-33.5 -23q-17 -7 -33.5 -12.5t-32.5 -9.5q-17 -4 -31.5 -6t-31.5 -2q-21 0 -39 8.5t-33 26.5q-7 8 -11 19t-7 29
q-1 6 -3 8.5t-5 2.5q-4 0 -6.5 -1t-4.5 -4q-41 -51 -79 -70t-90 -19q-81 0 -125 48t-46 140q-1 23 -1 48.5t1 71.5q1 38 1 53t-1 26q-1 13 -6.5 21t-16.5 11q-7 2 -13 3l-12 2q-18 2 -27.5 12.5t-9.5 27.5q0 19 15.5 37t43.5 31q36 16 66.5 25.5t57.5 12.5q20 2 34 1t25 -5
q18 -8 28 -25.5t10 -43.5v-37t-1 -71q-1 -43 -1 -61v-30q0 -35 3.5 -62t10.5 -45q7 -25 25 -38.5t45 -13.5q25 0 40.5 10t22.5 31q7 22 10 48t3 63q0 27 -0.5 54t-1.5 42q-1 12 -6 19.5t-15 10.5q-6 2 -12.5 3.5t-14.5 2.5q-18 2 -27.5 13t-9.5 28q0 18 15 36t42 31
q39 17 69.5 26.5t56.5 12.5q19 2 33.5 1t25.5 -6zM449 635q-7 -11 -16.5 -16.5t-21.5 -4.5q-21 1 -102 41.5t-131 72.5q-21 13 -20 36.5t22 53.5q15 21 31 30t32 7q21 -2 78 -48t118 -107q17 -18 19.5 -32.5t-9.5 -32.5z" />
    <glyph glyph-name="uacute" unicode="&#xfa;" 
d="M5 0zM598 550q18 -7 27 -24.5t9 -43.5v-96.5v-97.5v-89.5t1 -40.5q1 -18 4.5 -27t13.5 -12q5 -4 11 -6.5t13 -3.5q18 -3 26.5 -13t8.5 -27q0 -18 -10.5 -31t-33.5 -23q-17 -7 -33.5 -12.5t-32.5 -9.5q-17 -4 -31.5 -6t-31.5 -2q-21 0 -39 8.5t-33 26.5q-7 8 -11 19t-7 29
q-1 6 -3 8.5t-5 2.5q-4 0 -6.5 -1t-4.5 -4q-41 -51 -79 -70t-90 -19q-81 0 -125 48t-46 140q-1 23 -1 48.5t1 71.5q1 38 1 53t-1 26q-1 13 -6.5 21t-16.5 11q-7 2 -13 3l-12 2q-18 2 -27.5 12.5t-9.5 27.5q0 19 15.5 37t43.5 31q36 16 66.5 25.5t57.5 12.5q20 2 34 1t25 -5
q18 -8 28 -25.5t10 -43.5v-37t-1 -71q-1 -43 -1 -61v-30q0 -35 3.5 -62t10.5 -45q7 -25 25 -38.5t45 -13.5q25 0 40.5 10t22.5 31q7 22 10 48t3 63q0 27 -0.5 54t-1.5 42q-1 12 -6 19.5t-15 10.5q-6 2 -12.5 3.5t-14.5 2.5q-18 2 -27.5 13t-9.5 28q0 18 15 36t42 31
q39 17 69.5 26.5t56.5 12.5q19 2 33.5 1t25.5 -6zM551 724q-51 -32 -131 -72.5t-101 -41.5q-12 -1 -22 4.5t-17 16.5q-12 19 -9 33.5t20 31.5q61 60 117.5 105.5t77.5 49.5q17 3 32.5 -6t30.5 -31q21 -30 22 -53.5t-20 -36.5z" />
    <glyph glyph-name="ucircumflex" unicode="&#xfb;" 
d="M5 0zM598 550q18 -7 27 -24.5t9 -43.5v-96.5v-97.5v-89.5t1 -40.5q1 -18 4.5 -27t13.5 -12q5 -4 11 -6.5t13 -3.5q18 -3 26.5 -13t8.5 -27q0 -18 -10.5 -31t-33.5 -23q-17 -7 -33.5 -12.5t-32.5 -9.5q-17 -4 -31.5 -6t-31.5 -2q-21 0 -39 8.5t-33 26.5q-7 8 -11 19t-7 29
q-1 6 -3 8.5t-5 2.5q-4 0 -6.5 -1t-4.5 -4q-41 -51 -79 -70t-90 -19q-81 0 -125 48t-46 140q-1 23 -1 48.5t1 71.5q1 38 1 53t-1 26q-1 13 -6.5 21t-16.5 11q-7 2 -13 3l-12 2q-18 2 -27.5 12.5t-9.5 27.5q0 19 15.5 37t43.5 31q36 16 66.5 25.5t57.5 12.5q20 2 34 1t25 -5
q18 -8 28 -25.5t10 -43.5v-37t-1 -71q-1 -43 -1 -61v-30q0 -35 3.5 -62t10.5 -45q7 -25 25 -38.5t45 -13.5q25 0 40.5 10t22.5 31q7 22 10 48t3 63q0 27 -0.5 54t-1.5 42q-1 12 -6 19.5t-15 10.5q-6 2 -12.5 3.5t-14.5 2.5q-18 2 -27.5 13t-9.5 28q0 18 15 36t42 31
q39 17 69.5 26.5t56.5 12.5q19 2 33.5 1t25.5 -6zM345 684q-37 -27 -67 -44t-52 -25q-12 -5 -23.5 -1t-22.5 16t-13 21.5t5 19.5q8 13 24.5 32t42.5 44q18 16 37 32.5t34 28.5q14 10 25 14t23 4t22 -4t21 -13q20 -15 37.5 -30.5t33.5 -31.5q23 -22 40.5 -42.5t25.5 -35.5
q5 -10 2 -19.5t-14 -21.5q-11 -11 -23 -14.5t-26 1.5q-18 6 -44 22t-67 47q-1 0 -4.5 2.5t-5.5 2.5q-3 0 -7 -2.5z" />
    <glyph glyph-name="udieresis" unicode="&#xfc;" 
d="M5 0zM598 550q18 -7 27 -24.5t9 -43.5v-96.5v-97.5v-89.5t1 -40.5q1 -18 4.5 -27t13.5 -12q5 -4 11 -6.5t13 -3.5q18 -3 26.5 -13t8.5 -27q0 -18 -10.5 -31t-33.5 -23q-17 -7 -33.5 -12.5t-32.5 -9.5q-17 -4 -31.5 -6t-31.5 -2q-21 0 -39 8.5t-33 26.5q-7 8 -11 19t-7 29
q-1 6 -3 8.5t-5 2.5q-4 0 -6.5 -1t-4.5 -4q-41 -51 -79 -70t-90 -19q-81 0 -125 48t-46 140q-1 23 -1 48.5t1 71.5q1 38 1 53t-1 26q-1 13 -6.5 21t-16.5 11q-7 2 -13 3l-12 2q-18 2 -27.5 12.5t-9.5 27.5q0 19 15.5 37t43.5 31q36 16 66.5 25.5t57.5 12.5q20 2 34 1t25 -5
q18 -8 28 -25.5t10 -43.5v-37t-1 -71q-1 -43 -1 -61v-30q0 -35 3.5 -62t10.5 -45q7 -25 25 -38.5t45 -13.5q25 0 40.5 10t22.5 31q7 22 10 48t3 63q0 27 -0.5 54t-1.5 42q-1 12 -6 19.5t-15 10.5q-6 2 -12.5 3.5t-14.5 2.5q-18 2 -27.5 13t-9.5 28q0 18 15 36t42 31
q39 17 69.5 26.5t56.5 12.5q19 2 33.5 1t25.5 -6zM579 717q0 -48 -36 -78.5t-90 -30.5q-37 0 -59.5 20t-22.5 52q0 49 36 81t88 32q39 0 61.5 -20.5t22.5 -55.5zM332 717q0 -48 -35.5 -78t-89.5 -30q-37 0 -59.5 19.5t-22.5 51.5q0 49 35.5 80.5t87.5 31.5q39 0 61.5 -20
t22.5 -55z" />
    <glyph glyph-name="yacute" unicode="&#xfd;" horiz-adv-x="733" 
d="M25 0zM379 -168q-45 -56 -90 -79.5t-104 -23.5q-72 0 -115 33.5t-43 89.5q0 40 27.5 68t69.5 28q25 0 42.5 -7.5t33.5 -26.5q1 -1 18 -23.5t36 -22.5q22 0 36.5 16t14.5 42q0 18 -7 42.5t-40 99.5q-13 29 -50.5 115.5t-99.5 229.5q-7 15 -12.5 22.5t-12.5 10.5
q-7 4 -13 7t-12 4q-16 4 -24.5 16t-8.5 30q0 19 12 31.5t33 15.5q38 5 68.5 6.5t73.5 1.5q41 0 72.5 -2t60.5 -6q18 -3 28.5 -15t10.5 -30q0 -17 -8 -28.5t-24 -18.5q-13 -5 -21 -8t-11 -5q-7 -5 -8.5 -13t2.5 -18q2 -6 6 -16.5t5 -11.5q18 -50 41 -107.5t40 -95.5
q2 -6 5 -8t7 -2t7.5 3t5.5 8q15 37 35 92t36 107q4 13 7 23t4 18t-1.5 14.5t-8.5 9.5q-6 4 -13.5 7t-15.5 5q-15 4 -23 15t-8 29q0 20 11 32t34 16q22 3 46.5 4.5t58.5 1.5q25 0 44 -1.5t41 -4.5q21 -4 31.5 -15t10.5 -31q0 -17 -8.5 -29.5t-24.5 -18.5q-8 -3 -12 -5.5
t-10 -6.5q-5 -3 -9 -9t-10 -21q-53 -137 -89 -226t-54 -131q-42 -92 -69.5 -142.5t-54.5 -84.5zM588 724q-51 -32 -131 -72.5t-101 -41.5q-12 -1 -22 4.5t-17 16.5q-12 19 -9 33.5t20 31.5q61 60 117.5 105.5t77.5 49.5q17 3 32.5 -6t30.5 -31q21 -30 22 -53.5t-20 -36.5z
" />
    <glyph glyph-name="thorn" unicode="&#xfe;" horiz-adv-x="708" 
d="M201 -258q-45 0 -77 1.5t-55 4.5q-20 3 -30.5 15.5t-10.5 33.5q0 15 8.5 26.5t25.5 18.5q6 2 11 4.5t11 6.5q9 4 13 11.5t5 20.5q2 39 3 86t1 304q0 198 -0.5 255t-1.5 88q-1 17 -6 26t-16 13q-7 2 -13.5 4t-15.5 3q-19 3 -29 13.5t-10 28.5t12.5 32t37.5 24
q31 12 66.5 20t70.5 11q20 2 34.5 0.5t25.5 -7.5q18 -8 27.5 -28.5t9.5 -51.5v-49t1 -82v-73v-41q0 -5 2 -8t6 -3q3 0 5.5 1.5t4.5 5.5q24 52 66 80t97 28q93 0 146 -76.5t54 -209.5q1 -147 -55 -223t-165 -76q-41 0 -75 15t-67 49q-2 3 -4.5 4.5t-5.5 1.5q-4 0 -6 -2.5
t-2 -7.5v-76v-76q0 -13 4 -21t12 -12q4 -2 10 -3.5t22 -4.5q20 -6 30 -19t10 -31q0 -21 -12.5 -34t-34.5 -15q-24 -3 -58 -4.5t-82 -1.5zM300 178q0 -34 24 -56t60 -22q47 0 73 37t26 106q1 82 -26.5 126t-77.5 44q-37 0 -58 -23.5t-21 -63.5v-74v-74z" />
    <glyph glyph-name="ydieresis" unicode="&#xff;" horiz-adv-x="733" 
d="M25 0zM379 -168q-45 -56 -90 -79.5t-104 -23.5q-72 0 -115 33.5t-43 89.5q0 40 27.5 68t69.5 28q25 0 42.5 -7.5t33.5 -26.5q1 -1 18 -23.5t36 -22.5q22 0 36.5 16t14.5 42q0 18 -7 42.5t-40 99.5q-13 29 -50.5 115.5t-99.5 229.5q-7 15 -12.5 22.5t-12.5 10.5
q-7 4 -13 7t-12 4q-16 4 -24.5 16t-8.5 30q0 19 12 31.5t33 15.5q38 5 68.5 6.5t73.5 1.5q41 0 72.5 -2t60.5 -6q18 -3 28.5 -15t10.5 -30q0 -17 -8 -28.5t-24 -18.5q-13 -5 -21 -8t-11 -5q-7 -5 -8.5 -13t2.5 -18q2 -6 6 -16.5t5 -11.5q18 -50 41 -107.5t40 -95.5
q2 -6 5 -8t7 -2t7.5 3t5.5 8q15 37 35 92t36 107q4 13 7 23t4 18t-1.5 14.5t-8.5 9.5q-6 4 -13.5 7t-15.5 5q-15 4 -23 15t-8 29q0 20 11 32t34 16q22 3 46.5 4.5t58.5 1.5q25 0 44 -1.5t41 -4.5q21 -4 31.5 -15t10.5 -31q0 -17 -8.5 -29.5t-24.5 -18.5q-8 -3 -12 -5.5
t-10 -6.5q-5 -3 -9 -9t-10 -21q-53 -137 -89 -226t-54 -131q-42 -92 -69.5 -142.5t-54.5 -84.5zM628 717q0 -48 -36 -78.5t-90 -30.5q-37 0 -59.5 20t-22.5 52q0 49 36 81t88 32q39 0 61.5 -20.5t22.5 -55.5zM381 717q0 -48 -35.5 -78t-89.5 -30q-37 0 -59.5 19.5
t-22.5 51.5q0 49 35.5 80.5t87.5 31.5q39 0 61.5 -20t22.5 -55z" />
    <glyph glyph-name="Amacron" unicode="&#x100;" horiz-adv-x="858" 
d="M15 0zM168 -10q-39 0 -63 1t-42 3q-24 3 -36 15t-12 33q0 18 10 31.5t29 21.5q9 4 17 8.5t13 8.5q8 8 15 19t14 29q7 19 16 41t26 66q18 46 27.5 70t17.5 45q23 56 44.5 110t42.5 106q36 88 65.5 111.5t79.5 23.5q51 0 76 -19t56 -89q14 -34 50 -125.5t39 -99.5
q8 -20 17.5 -44t27.5 -70q27 -68 38 -97t19 -49q5 -12 10 -18.5t13 -10.5q6 -3 12.5 -6.5t17.5 -7.5q20 -8 27.5 -19t7.5 -30q0 -23 -14 -36.5t-41 -16.5q-38 -3 -73.5 -4t-75.5 -1q-54 0 -88.5 1t-57.5 4q-20 3 -31 15.5t-11 31.5t10 32t28 17l10 2t15 2q5 1 8 1.5t5 0.5
q12 4 17 12t2 19q-2 12 -6.5 24.5t-18.5 47.5q-5 10 -13 14t-23 4h-46h-46h-44.5h-45.5q-13 0 -20 -4.5t-11 -15.5q-9 -21 -14.5 -37t-9.5 -33q-2 -9 2 -15.5t12 -8.5q4 -1 8.5 -1.5t12.5 -2.5q11 -1 16 -2t9 -2q19 -4 29.5 -17t10.5 -32q0 -21 -12 -34.5t-33 -16.5
q-20 -3 -54 -4.5t-81 -1.5zM320 354q-6 -17 -0.5 -24.5t22.5 -7.5h26h26h28.5h28.5q15 0 19 8.5t-2 24.5q-11 31 -25 66.5t-29 75.5q-3 8 -8 12.5t-12 4.5t-11.5 -4.5t-8.5 -13.5q-13 -31 -26.5 -67.5t-27.5 -74.5zM556 796q-26 -2 -59 -3t-80 -1q-51 0 -73 0.5t-38 1.5
q-23 1 -33.5 15t-10.5 42q0 27 12 41.5t35 15.5q30 2 64.5 2.5t78.5 0.5q42 0 64 -0.5t39 -1.5q24 -1 35 -14t11 -41t-11 -42.5t-34 -15.5z" />
    <glyph glyph-name="amacron" unicode="&#x101;" horiz-adv-x="631" 
d="M32 0zM355 56q-27 -35 -68.5 -54.5t-89.5 -19.5q-78 0 -121.5 39t-43.5 108q0 73 51.5 115t172.5 61q22 3 32.5 5t19.5 4q29 8 41 21.5t12 37.5v3q0 33 -20 52.5t-55 19.5q-30 0 -51 -15.5t-31 -44.5q-14 -34 -36 -50.5t-54 -16.5q-36 0 -58.5 20t-22.5 54q0 70 83 118
t190 48q121 0 183 -53.5t62 -156.5q0 -30 -0.5 -92t0.5 -88q0 -27 5.5 -40.5t23.5 -20.5q1 -1 3 -1.5t5 -1.5q5 -2 8.5 -3.5t7.5 -3.5q12 -6 17.5 -15t5.5 -22q0 -16 -7 -28t-23 -22q-19 -13 -46.5 -20t-60.5 -7t-51 5.5t-34 19.5q-8 7 -15 18.5t-12 25.5q-2 6 -3.5 8.5
t-5.5 2.5q-3 0 -6 -2t-8 -8zM224 165q0 -27 17.5 -43t47.5 -16t49 15t26 45q2 8 3 18t1 22v4q0 19 -6 25.5t-24 3.5l-4 -1q-5 -1 -12.5 -2t-30.5 -6q-35 -8 -51 -23.5t-16 -41.5zM433 635q-26 -2 -59 -3t-80 -1q-51 0 -73 0.5t-38 1.5q-23 1 -33.5 15.5t-10.5 44.5
q0 29 12 44t35 16q27 2 61 3t82 1q26 0 52.5 -1t50.5 -2t35 -14.5t11 -42.5q0 -30 -11 -45.5t-34 -16.5z" />
    <glyph glyph-name="Abreve" unicode="&#x102;" horiz-adv-x="858" 
d="M15 0zM168 -10q-39 0 -63 1t-42 3q-24 3 -36 15t-12 33q0 18 10 31.5t29 21.5q9 4 17 8.5t13 8.5q8 8 15 19t14 29q7 19 16 41t26 66q18 46 27.5 70t17.5 45q23 56 44.5 110t42.5 106q36 88 65.5 111.5t79.5 23.5q51 0 76 -19t56 -89q14 -34 50 -125.5t39 -99.5
q8 -20 17.5 -44t27.5 -70q27 -68 38 -97t19 -49q5 -12 10 -18.5t13 -10.5q6 -3 12.5 -6.5t17.5 -7.5q20 -8 27.5 -19t7.5 -30q0 -23 -14 -36.5t-41 -16.5q-38 -3 -73.5 -4t-75.5 -1q-54 0 -88.5 1t-57.5 4q-20 3 -31 15.5t-11 31.5t10 32t28 17l10 2t15 2q5 1 8 1.5t5 0.5
q12 4 17 12t2 19q-2 12 -6.5 24.5t-18.5 47.5q-5 10 -13 14t-23 4h-46h-46h-44.5h-45.5q-13 0 -20 -4.5t-11 -15.5q-9 -21 -14.5 -37t-9.5 -33q-2 -9 2 -15.5t12 -8.5q4 -1 8.5 -1.5t12.5 -2.5q11 -1 16 -2t9 -2q19 -4 29.5 -17t10.5 -32q0 -21 -12 -34.5t-33 -16.5
q-20 -3 -54 -4.5t-81 -1.5zM320 354q-6 -17 -0.5 -24.5t22.5 -7.5h26h26h28.5h28.5q15 0 19 8.5t-2 24.5q-11 31 -25 66.5t-29 75.5q-3 8 -8 12.5t-12 4.5t-11.5 -4.5t-8.5 -13.5q-13 -31 -26.5 -67.5t-27.5 -74.5zM550 822q-22 -18 -54 -28t-69 -10q-75 0 -120 37.5
t-45 100.5q0 14 3.5 22t12.5 12q5 3 15 4.5t28 1.5q29 0 40.5 -5.5t14.5 -20.5q6 -28 23 -40.5t48 -12.5t49 12.5t24 39.5q3 14 12.5 19.5t31.5 5.5q18 0 26 -6t8 -21q0 -35 -12.5 -63.5t-35.5 -47.5z" />
    <glyph glyph-name="abreve" unicode="&#x103;" horiz-adv-x="631" 
d="M32 0zM355 56q-27 -35 -68.5 -54.5t-89.5 -19.5q-78 0 -121.5 39t-43.5 108q0 73 51.5 115t172.5 61q22 3 32.5 5t19.5 4q29 8 41 21.5t12 37.5v3q0 33 -20 52.5t-55 19.5q-30 0 -51 -15.5t-31 -44.5q-14 -34 -36 -50.5t-54 -16.5q-36 0 -58.5 20t-22.5 54q0 70 83 118
t190 48q121 0 183 -53.5t62 -156.5q0 -30 -0.5 -92t0.5 -88q0 -27 5.5 -40.5t23.5 -20.5q1 -1 3 -1.5t5 -1.5q5 -2 8.5 -3.5t7.5 -3.5q12 -6 17.5 -15t5.5 -22q0 -16 -7 -28t-23 -22q-19 -13 -46.5 -20t-60.5 -7t-51 5.5t-34 19.5q-8 7 -15 18.5t-12 25.5q-2 6 -3.5 8.5
t-5.5 2.5q-3 0 -6 -2t-8 -8zM224 165q0 -27 17.5 -43t47.5 -16t49 15t26 45q2 8 3 18t1 22v4q0 19 -6 25.5t-24 3.5l-4 -1q-5 -1 -12.5 -2t-30.5 -6q-35 -8 -51 -23.5t-16 -41.5zM424 653q-23 -20 -55 -31t-69 -11q-75 0 -120 40.5t-45 109.5q0 15 3.5 24t11.5 13
q7 3 16.5 4.5t27.5 1.5q28 0 38.5 -5.5t13.5 -21.5q7 -34 24.5 -48.5t49.5 -14.5q31 0 49.5 15t25.5 46q3 16 12 21.5t30 5.5q18 0 26 -6.5t8 -21.5q0 -38 -12 -69t-35 -52z" />
    <glyph glyph-name="Aogonek" unicode="&#x104;" horiz-adv-x="858" 
d="M320 354q-6 -17 -0.5 -24.5t22.5 -7.5h26h26h28.5h28.5q15 0 19 8.5t-2 24.5q-5 13 -11 29t-18 47q-11 29 -16 42t-9 24q-3 8 -8 12.5t-12 4.5t-11.5 -4.5t-8.5 -13.5q-32 -81 -39.5 -102t-14.5 -40zM168 -10q-39 0 -63 1t-42 3q-24 3 -36 15t-12 33q0 18 10 31.5
t29 21.5q9 4 17 8.5t13 8.5q8 8 15 19t14 29q7 19 16 41t26 66q18 46 27.5 70t17.5 45q23 56 44.5 110t42.5 106q36 88 65.5 111.5t79.5 23.5q51 0 76 -19t56 -89q14 -34 50 -125.5t39 -99.5q8 -20 17.5 -44t27.5 -70q27 -68 38 -97t19 -49q5 -12 10 -18.5t13 -10.5
q6 -3 17.5 -8t12.5 -6q21 -10 28 -20.5t7 -28.5t-9.5 -30t-25.5 -16q-7 -2 -15 -3.5t-24 -3.5q-55 -9 -88.5 -34t-33.5 -58q0 -16 9 -24.5t25 -8.5q13 0 23.5 6.5t19.5 20.5q6 9 12.5 14t13.5 5q9 0 14 -7t5 -19q0 -47 -35.5 -79t-86.5 -32q-50 0 -78 24.5t-28 68.5
q0 30 18.5 56.5t54.5 48.5q7 4 5.5 8.5t-9.5 4.5q-40 0 -65.5 1t-51.5 4q-20 3 -31 15.5t-11 31.5t10 32t28 17l10 2t15 2q5 1 8 1.5t5 0.5q11 2 16 10t3 21q-2 9 -4.5 19t-20.5 53q-5 10 -13 14t-23 4h-46h-46h-44.5h-45.5q-13 0 -20 -4.5t-11 -15.5q-9 -21 -14.5 -37
t-9.5 -33q-2 -9 2 -16t12 -8q4 -1 8.5 -1.5t12.5 -2.5q11 -1 16 -2t9 -2q19 -4 29.5 -17t10.5 -32q0 -21 -11.5 -34t-33.5 -17q-17 -3 -47.5 -4.5t-87.5 -1.5z" />
    <glyph glyph-name="aogonek" unicode="&#x105;" horiz-adv-x="631" 
d="M355 56q-27 -35 -68.5 -54.5t-89.5 -19.5q-78 0 -121.5 39t-43.5 108q0 73 51.5 115t172.5 61q22 3 32.5 5t19.5 4q29 8 41 21.5t12 37.5v3q0 33 -20 52.5t-55 19.5q-30 0 -51 -15.5t-31 -44.5q-14 -34 -36 -50.5t-54 -16.5q-36 0 -58.5 20t-22.5 54q0 70 83 118t190 48
q121 0 183 -53.5t62 -156.5q0 -1 -0.5 -84.5t0.5 -95.5q0 -25 5.5 -39.5t18.5 -21.5q3 -1 7 -2.5t10 -4.5q3 -1 4 -1.5t2 -0.5q17 -7 23 -15t6 -23q0 -16 -7.5 -28.5t-22.5 -21.5q-7 -4 -13.5 -7.5t-12.5 -6.5q-45 -21 -69 -46t-24 -50q0 -16 9 -24.5t25 -8.5q13 0 23.5 6.5
t20.5 20.5q6 10 12 14.5t13 4.5q9 0 14 -7t5 -19q0 -47 -36 -79t-87 -32q-50 0 -78.5 24.5t-28.5 68.5q0 31 19.5 59t57.5 50q4 2 4 5.5t-4 4.5q-12 2 -21.5 6.5t-20.5 13.5q-8 7 -15 18.5t-12 25.5q-3 8 -4.5 9.5t-4.5 1.5t-6 -2t-8 -8zM224 165q0 -27 17.5 -43t47.5 -16
t49 15t26 45q2 8 3 18t1 22v4q0 19 -6 25.5t-24 3.5l-4 -1q-5 -1 -12.5 -2t-30.5 -6q-35 -8 -51 -23.5t-16 -41.5z" />
    <glyph glyph-name="Cacute" unicode="&#x106;" horiz-adv-x="779" 
d="M35 0zM744 221q-31 -110 -120 -174t-220 -64q-166 0 -267.5 101t-101.5 265q0 170 101 276t255 106q39 0 71.5 -5.5t62.5 -17.5q2 -1 21.5 -9.5t30.5 -8.5q8 0 13.5 4t11.5 17q6 15 18 22t31 7t32 -8.5t18 -24.5q15 -42 20 -62.5t9 -45.5q7 -46 10 -76.5t3 -56.5
q0 -33 -18 -53.5t-47 -20.5q-18 0 -33 9.5t-30 31.5q-34 49 -50.5 69t-33.5 37q-30 29 -63 43t-70 14q-77 0 -122 -50.5t-45 -136.5q0 -105 71 -177.5t174 -72.5q61 0 106.5 25t89.5 84q6 8 14 12.5t17 4.5q18 0 31 -12t13 -30q0 -8 -0.5 -12.5t-2.5 -9.5zM568 850
q-54 -23 -140.5 -49t-108.5 -23q-13 2 -21.5 8.5t-12.5 18.5q-8 21 -3 35t24 28q74 50 136.5 84.5t83.5 34.5q16 0 30 -12t25 -36q16 -33 13 -56t-26 -33z" />
    <glyph glyph-name="cacute" unicode="&#x107;" horiz-adv-x="626" 
d="M28 0zM571 134q-36 -74 -100 -112.5t-153 -38.5q-132 0 -211 78t-79 207q0 133 79 214.5t203 81.5q29 0 53.5 -4.5t50.5 -15.5q14 -6 20.5 -8t11.5 -2q9 0 15.5 3.5t10.5 10.5q7 11 16 16t22 5q16 0 28.5 -9.5t18.5 -26.5q6 -19 11 -41t8 -48q4 -30 6.5 -55t2.5 -45
q1 -15 -7 -26.5t-24 -19.5q-13 -6 -26 -5t-26 9q-9 7 -19.5 17t-30.5 33q-43 50 -70.5 65.5t-57.5 15.5q-46 0 -74 -32.5t-28 -87.5q0 -76 48 -127.5t120 -51.5q37 0 64.5 12.5t51.5 40.5q6 8 15 12t19 4q17 0 29 -11t12 -26q0 -5 -2.5 -13t-7.5 -19zM499 724
q-51 -32 -131 -72.5t-101 -41.5q-12 -1 -22 4.5t-17 16.5q-12 19 -9 33.5t20 31.5q61 60 117.5 105.5t77.5 49.5q17 3 32.5 -6t30.5 -31q21 -30 22 -53.5t-20 -36.5z" />
    <glyph glyph-name="Ccircumflex" unicode="&#x108;" horiz-adv-x="779" 
d="M35 0zM744 221q-31 -110 -120 -174t-220 -64q-166 0 -267.5 101t-101.5 265q0 170 101 276t255 106q39 0 71.5 -5.5t62.5 -17.5q2 -1 21.5 -9.5t30.5 -8.5q8 0 13.5 4t11.5 17q6 15 18 22t31 7t32 -8.5t18 -24.5q15 -42 20 -62.5t9 -45.5q7 -46 10 -76.5t3 -56.5
q0 -33 -18 -53.5t-47 -20.5q-18 0 -33 9.5t-30 31.5q-34 49 -50.5 69t-33.5 37q-30 29 -63 43t-70 14q-77 0 -122 -50.5t-45 -136.5q0 -105 71 -177.5t174 -72.5q61 0 106.5 25t89.5 84q6 8 14 12.5t17 4.5q18 0 31 -12t13 -30q0 -8 -0.5 -12.5t-2.5 -9.5zM393 837
q-35 -24 -65 -40.5t-54 -25.5q-13 -5 -24 -1.5t-22 15.5t-12.5 21t4.5 19q7 12 22.5 29t44.5 44q17 16 36 31.5t35 27.5q14 10 25 14t23 4t22 -3.5t21 -12.5q17 -13 35.5 -28.5t35.5 -31.5q23 -21 40.5 -41.5t25.5 -35.5q5 -9 2 -18.5t-14 -20.5q-12 -12 -24.5 -15t-24.5 2
q-20 8 -47 24.5t-64 42.5q-1 0 -4.5 2.5t-5.5 2.5q-3 0 -7 -2.5z" />
    <glyph glyph-name="ccircumflex" unicode="&#x109;" horiz-adv-x="626" 
d="M28 0zM571 134q-36 -74 -100 -112.5t-153 -38.5q-132 0 -211 78t-79 207q0 133 79 214.5t203 81.5q29 0 53.5 -4.5t50.5 -15.5q14 -6 20.5 -8t11.5 -2q9 0 15.5 3.5t10.5 10.5q7 11 16 16t22 5q16 0 28.5 -9.5t18.5 -26.5q6 -19 11 -41t8 -48q4 -30 6.5 -55t2.5 -45
q1 -15 -7 -26.5t-24 -19.5q-13 -6 -26 -5t-26 9q-9 7 -19.5 17t-30.5 33q-43 50 -70.5 65.5t-57.5 15.5q-46 0 -74 -32.5t-28 -87.5q0 -76 48 -127.5t120 -51.5q37 0 64.5 12.5t51.5 40.5q6 8 15 12t19 4q17 0 29 -11t12 -26q0 -5 -2.5 -13t-7.5 -19zM309 684
q-37 -27 -67 -44t-52 -25q-12 -5 -23.5 -1t-22.5 16t-13 21.5t5 19.5q8 13 24.5 32t42.5 44q18 16 37 32.5t34 28.5q14 10 25 14t23 4t22 -4t21 -13q20 -15 37.5 -30.5t33.5 -31.5q23 -22 40.5 -42.5t25.5 -35.5q5 -10 2 -19.5t-14 -21.5q-11 -11 -23 -14.5t-26 1.5
q-18 6 -44 22t-67 47q-1 0 -4.5 2.5t-5.5 2.5q-3 0 -7 -2.5z" />
    <glyph glyph-name="Cdotaccent" unicode="&#x10a;" horiz-adv-x="779" 
d="M35 0zM744 221q-31 -110 -120 -174t-220 -64q-166 0 -267.5 101t-101.5 265q0 170 101 276t255 106q39 0 71.5 -5.5t62.5 -17.5q2 -1 21.5 -9.5t30.5 -8.5q8 0 13.5 4t11.5 17q6 15 18 22t31 7t32 -8.5t18 -24.5q15 -42 20 -62.5t9 -45.5q7 -46 10 -76.5t3 -56.5
q0 -33 -18 -53.5t-47 -20.5q-18 0 -33 9.5t-30 31.5q-34 49 -50.5 69t-33.5 37q-30 29 -63 43t-70 14q-77 0 -122 -50.5t-45 -136.5q0 -105 71 -177.5t174 -72.5q61 0 106.5 25t89.5 84q6 8 14 12.5t17 4.5q18 0 31 -12t13 -30q0 -8 -0.5 -12.5t-2.5 -9.5zM547 902
q0 -50 -50.5 -86t-115.5 -36q-40 0 -64.5 21.5t-24.5 55.5q0 48 50 86t109 38q48 0 72 -20t24 -59z" />
    <glyph glyph-name="cdotaccent" unicode="&#x10b;" horiz-adv-x="626" 
d="M28 0zM571 134q-36 -74 -100 -112.5t-153 -38.5q-132 0 -211 78t-79 207q0 133 79 214.5t203 81.5q29 0 53.5 -4.5t50.5 -15.5q14 -6 20.5 -8t11.5 -2q9 0 15.5 3.5t10.5 10.5q7 11 16 16t22 5q16 0 28.5 -9.5t18.5 -26.5q6 -19 11 -41t8 -48q4 -30 6.5 -55t2.5 -45
q1 -15 -7 -26.5t-24 -19.5q-13 -6 -26 -5t-26 9q-9 7 -19.5 17t-30.5 33q-43 50 -70.5 65.5t-57.5 15.5q-46 0 -74 -32.5t-28 -87.5q0 -76 48 -127.5t120 -51.5q37 0 64.5 12.5t51.5 40.5q6 8 15 12t19 4q17 0 29 -11t12 -26q0 -5 -2.5 -13t-7.5 -19zM449 722q0 -49 -51 -85
t-116 -36q-40 0 -64 21t-24 55q0 49 49.5 86.5t109.5 38.5q47 0 71.5 -20t24.5 -60z" />
    <glyph glyph-name="Ccaron" unicode="&#x10c;" horiz-adv-x="779" 
d="M35 0zM744 221q-31 -110 -120 -174t-220 -64q-166 0 -267.5 101t-101.5 265q0 170 101 276t255 106q39 0 71.5 -5.5t62.5 -17.5q2 -1 21.5 -9.5t30.5 -8.5q8 0 13.5 4t11.5 17q6 15 18 22t31 7t32 -8.5t18 -24.5q15 -42 20 -62.5t9 -45.5q7 -46 10 -76.5t3 -56.5
q0 -33 -18 -53.5t-47 -20.5q-18 0 -33 9.5t-30 31.5q-34 49 -50.5 69t-33.5 37q-30 29 -63 43t-70 14q-77 0 -122 -50.5t-45 -136.5q0 -105 71 -177.5t174 -72.5q61 0 106.5 25t89.5 84q6 8 14 12.5t17 4.5q18 0 31 -12t13 -30q0 -8 -0.5 -12.5t-2.5 -9.5zM417 901
q39 27 68 42.5t51 22.5q14 4 25 1t21 -14t12 -20.5t-4 -19.5q-8 -13 -24.5 -31t-42.5 -43q-23 -20 -41 -35t-30 -24q-14 -10 -25 -14t-23 -4q-11 0 -21 4t-22 13q-17 12 -35 27.5t-36 32.5q-24 22 -41 42t-25 34q-5 9 -2 18.5t14 20.5q12 12 24.5 15.5t24.5 -2.5
q25 -12 53 -28.5t58 -37.5q6 -5 7.5 -5.5t2.5 -0.5q2 0 3.5 0.5t7.5 5.5z" />
    <glyph glyph-name="ccaron" unicode="&#x10d;" horiz-adv-x="626" 
d="M28 0zM571 134q-36 -74 -100 -112.5t-153 -38.5q-132 0 -211 78t-79 207q0 133 79 214.5t203 81.5q29 0 53.5 -4.5t50.5 -15.5q14 -6 20.5 -8t11.5 -2q9 0 15.5 3.5t10.5 10.5q7 11 16 16t22 5q16 0 28.5 -9.5t18.5 -26.5q6 -19 11 -41t8 -48q4 -30 6.5 -55t2.5 -45
q1 -15 -7 -26.5t-24 -19.5q-13 -6 -26 -5t-26 9q-9 7 -19.5 17t-30.5 33q-43 50 -70.5 65.5t-57.5 15.5q-46 0 -74 -32.5t-28 -87.5q0 -76 48 -127.5t120 -51.5q37 0 64.5 12.5t51.5 40.5q6 8 15 12t19 4q17 0 29 -11t12 -26q0 -5 -2.5 -13t-7.5 -19zM330 750q42 30 70 46
t49 22q14 4 25 0.5t21 -14.5t12 -20.5t-4 -20.5q-7 -12 -22.5 -30t-44.5 -46q-18 -16 -37 -32.5t-34 -28.5q-14 -10 -25 -14t-23 -4t-22 4t-21 13q-20 15 -37.5 30.5t-33.5 31.5q-25 23 -42 43.5t-24 34.5q-5 10 -2 19.5t14 21.5q12 12 24 15t25 -2q21 -9 48.5 -26t62.5 -43
q1 0 4.5 -2.5t5.5 -2.5q3 0 7 2.5z" />
    <glyph glyph-name="Dcaron" unicode="&#x10e;" horiz-adv-x="821" 
d="M27 0zM180 -8l-36 -1.5t-22 -0.5q-45 0 -70 14t-25 41q0 16 7.5 26.5t22.5 16.5q2 1 4 1.5t6 2.5q7 2 11 3.5t8 2.5q12 5 17.5 14t6.5 26q1 29 1.5 93t0.5 126v112v112q-1 15 -6 24t-16 13q-2 1 -4.5 1.5t-6.5 1.5q-8 2 -11.5 3t-6.5 2q-16 3 -24.5 15.5t-8.5 31.5
q0 27 25.5 41t74.5 14q18 0 37 -0.5t50 -2.5l34.5 -1.5t21.5 -0.5q9 0 18.5 0.5t29.5 0.5q33 2 55.5 2.5t47.5 0.5q170 0 267 -94.5t97 -258.5q0 -178 -102.5 -281t-279.5 -103q-24 0 -47.5 0.5t-59.5 2.5q-22 0 -32 0.5t-18 0.5q-12 0 -26 -0.5t-41 -1.5zM312 149
q0 -24 13 -33.5t44 -9.5h18t11 1q85 3 128 57.5t43 159.5q0 125 -53.5 203t-139.5 85h-5h-8q-6 1 -9 1h-6q-18 0 -26.5 -8t-9.5 -28q-1 -13 -1 -51.5v-184.5v-76.5t1 -86.5v-20.5v-8.5zM420 901q39 27 68 42.5t51 22.5q14 4 25 1t21 -14t12 -20.5t-4 -19.5q-8 -13 -24.5 -31
t-42.5 -43q-23 -20 -41 -35t-30 -24q-14 -10 -25 -14t-23 -4q-11 0 -21 4t-22 13q-17 12 -35 27.5t-36 32.5q-24 22 -41 42t-25 34q-5 9 -2 18.5t14 20.5q12 12 24.5 15.5t24.5 -2.5q25 -12 53 -28.5t58 -37.5q6 -5 7.5 -5.5t2.5 -0.5q2 0 3.5 0.5t7.5 5.5z" />
    <glyph glyph-name="dcaron" unicode="&#x10f;" horiz-adv-x="721" 
d="M28 0zM391 73q-25 -44 -63.5 -67t-87.5 -23q-101 0 -156.5 73.5t-55.5 205.5q0 143 57.5 222.5t160.5 79.5q47 0 82.5 -19.5t58.5 -56.5q3 -4 5 -5t5 -1q4 0 6.5 3t2.5 8v60.5v60.5q0 14 -4 23t-13 15q-7 5 -15 8t-18 5q-18 4 -27 15t-9 29q0 20 17 36t48 26
q30 8 59 13.5t57 8.5q21 2 37 -1t29 -12q15 -11 22.5 -29t7.5 -45v-58v-98q-1 -79 -1 -120.5v-79.5q0 -26 -0.5 -101t0.5 -98q1 -12 5 -19.5t12 -10.5q6 -3 12 -5.5t14 -3.5q17 -3 25 -13t8 -27q0 -18 -10.5 -31.5t-31.5 -22.5q-29 -12 -56 -19.5t-56 -10.5q-30 -2 -43 0
t-25 8q-21 11 -28.5 25t-10.5 41q-1 11 -3 15t-6 4q-3 0 -6 -2t-5 -6zM225 288q0 -79 28 -123.5t77 -44.5q36 0 56 21t20 59v75.5v74.5t-23 59.5t-58 22.5q-47 0 -73.5 -37.5t-26.5 -106.5zM726 806q42 0 63.5 -17t21.5 -51q0 -30 -10.5 -65.5t-29.5 -69.5q-28 -50 -50 -72
t-42 -22q-21 0 -32 14t-1 31q16 29 20.5 59.5t-5.5 83.5q-6 36 -5 52t9 29t24 20.5t37 7.5z" />
    <glyph glyph-name="Dcroat" unicode="&#x110;" horiz-adv-x="821" 
d="M27 0zM180 -8l-36 -1.5t-22 -0.5q-45 0 -70 14t-25 41q0 16 8 27.5t22 15.5q6 3 13 5.5t16 4.5q13 5 18.5 14.5t5.5 25.5q1 20 1.5 60t0.5 79q0 10 -4 15.5t-14 6.5h-12h-12q-23 2 -33 16.5t-10 43.5q0 30 10 44.5t33 15.5h12h12q8 0 13 6t5 16v70v70q-1 15 -6 24t-16 13
q-2 1 -4.5 1.5t-6.5 1.5q-8 2 -11.5 3t-6.5 2q-16 3 -24.5 15.5t-8.5 31.5q0 27 25.5 41t74.5 14q18 0 37 -0.5t50 -2.5l34.5 -1.5t21.5 -0.5q9 0 18.5 0.5t29.5 0.5q33 2 55.5 2.5t47.5 0.5q170 0 267 -94.5t97 -258.5q0 -178 -102.5 -281t-279.5 -103q-24 0 -47.5 0.5
t-59.5 2.5q-22 0 -32 0.5t-18 0.5q-12 0 -26 -0.5t-41 -1.5zM311 149q0 -24 13.5 -33.5t44.5 -9.5h18t11 1q85 3 128 57.5t43 159.5q0 125 -53.5 203t-139.5 85h-5h-8q-6 1 -9 1h-6q-18 0 -26.5 -8t-9.5 -28q-1 -9 -1 -32.5v-102.5q0 -12 5 -17t17 -5h75v0q24 0 35.5 -15
t11.5 -46q0 -30 -11 -44.5t-36 -15.5h-36.5h-37.5q-13 0 -18 -5.5t-5 -18.5v-62.5v-63.5z" />
    <glyph glyph-name="dcroat" unicode="&#x111;" horiz-adv-x="693" 
d="M225 288q0 -79 28 -123.5t77 -44.5q36 0 56 21t20 59v150q0 37 -23 59.5t-58 22.5q-47 0 -73.5 -37.5t-26.5 -106.5zM597 706v-17.5v-17.5q0 -10 4.5 -15t14.5 -5h34q24 0 35 -13t11 -40q0 -29 -11.5 -43.5t-34.5 -14.5h-33q-11 0 -16 -5.5t-5 -18.5v-82.5v-83.5
q0 -26 -0.5 -101t0.5 -98q1 -12 5 -19.5t12 -10.5q6 -3 12 -5.5t14 -3.5q17 -3 25 -13t8 -27q0 -18 -10.5 -31.5t-31.5 -22.5q-29 -12 -56 -19.5t-56 -10.5q-30 -2 -43 0t-25 8q-21 11 -28.5 25t-10.5 41q-1 11 -3 15t-6 4q-3 0 -6 -2t-5 -6q-25 -44 -63.5 -67t-87.5 -23
q-101 0 -156.5 73.5t-55.5 205.5q0 143 57.5 222.5t160.5 79.5q47 0 82.5 -19.5t58.5 -56.5q3 -4 5 -5t5 -1q4 0 6.5 3t2.5 8v121q0 14 -4 23t-13 15q-7 5 -15 8t-18 5q-18 4 -27 15t-9 29q0 20 17 36t48 26q30 8 59 13.5t57 8.5q21 2 37 -1t29 -12q15 -11 22.5 -29t7.5 -45
z" />
    <glyph glyph-name="Emacron" unicode="&#x112;" horiz-adv-x="723" 
d="M27 0zM248 726q45 -1 66 -1.5t37 -0.5h76.5h76.5q11 0 20.5 2t24.5 9t23.5 9t18.5 2q21 0 36 -10t23 -29q15 -37 25.5 -77.5t13.5 -79.5q3 -33 -12.5 -53.5t-43.5 -20.5q-21 0 -35.5 8.5t-26.5 29.5q-2 3 -19 34t-29 47q-9 12 -22.5 16t-39.5 4q-27 0 -62.5 -0.5
t-52.5 -1.5q-18 -1 -26.5 -9.5t-9.5 -25.5q-1 -22 -1.5 -61t-0.5 -65q0 -24 5 -33.5t17 -10.5q14 -1 36 -0.5t32 3.5q8 3 11.5 10t4.5 18q0 3 0.5 6.5t0.5 11.5q0 7 0.5 10.5t0.5 6.5q3 22 15.5 33.5t34.5 11.5q25 0 37.5 -12.5t16.5 -42.5q3 -17 4 -45t1 -125
q0 -50 -13 -73t-40 -23q-22 0 -34.5 11t-16.5 35q-1 4 -1.5 9t-0.5 14q0 5 -0.5 7.5t-0.5 4.5q-3 17 -7 23t-12 8q-11 4 -36.5 3t-37.5 -5q-9 -3 -12.5 -11.5t-3.5 -25.5v-63.5v-63.5q1 -18 9 -26.5t25 -9.5q14 -1 65 -0.5t66 0.5q24 0 37 4.5t24 16.5q8 11 16.5 23.5
t27.5 46.5q15 28 29.5 38.5t35.5 10.5q28 0 43.5 -20.5t12.5 -54.5q-3 -40 -12.5 -79.5t-24.5 -79.5q-9 -22 -24.5 -32.5t-37.5 -10.5q-11 0 -20.5 2t-25.5 9t-27 9.5t-24 2.5q-32 0 -66.5 -0.5t-96.5 -1.5q-60 -1 -91 -1.5t-59 -0.5h-34.5h-35.5q-45 0 -69.5 14t-24.5 41
q0 17 8 28.5t21 15.5q2 1 13 4t17 6q13 7 18 15.5t6 23.5q1 29 1.5 93t0.5 126v112v112q-1 15 -6 23.5t-16 13.5q-2 1 -9.5 3t-20.5 5q-15 3 -23.5 15t-8.5 31q0 28 25 42t74 14q21 0 46 -0.5zM494 796q-26 -2 -59 -3t-80 -1q-51 0 -73 0.5t-38 1.5q-23 1 -33.5 15t-10.5 42
q0 27 12 41.5t35 15.5q30 2 64.5 2.5t78.5 0.5q42 0 64 -0.5t39 -1.5q24 -1 35 -14t11 -41t-11 -42.5t-34 -15.5z" />
    <glyph glyph-name="emacron" unicode="&#x113;" horiz-adv-x="623" 
d="M28 0zM574 134q-30 -73 -93.5 -112t-156.5 -39q-139 0 -217.5 75.5t-78.5 206.5q0 133 89 216t226 83q112 0 180 -64t68 -171q0 -41 -23 -60.5t-72 -19.5h-62h-62h-58.5h-59.5q-12 0 -18 -5.5t-5 -17.5q3 -45 43 -72t100 -27q43 0 74.5 13.5t59.5 44.5q6 8 15 12t18 4
q17 0 29 -10.5t12 -25.5q0 -6 -1.5 -12.5t-6.5 -18.5zM218 360q-1 -15 4 -21.5t19 -6.5h29.5h28.5h33.5h33.5q20 0 28 6.5t8 22.5q0 33 -24.5 55t-64.5 22q-39 0 -65.5 -22t-29.5 -56zM450 635q-26 -2 -59 -3t-80 -1q-51 0 -73 0.5t-38 1.5q-23 1 -33.5 15.5t-10.5 44.5
q0 29 12 44t35 16q27 2 61 3t82 1q26 0 52.5 -1t50.5 -2t35 -14.5t11 -42.5q0 -30 -11 -45.5t-34 -16.5z" />
    <glyph glyph-name="Ebreve" unicode="&#x114;" horiz-adv-x="723" 
d="M27 0zM248 726q45 -1 66 -1.5t37 -0.5h76.5h76.5q11 0 20.5 2t24.5 9t23.5 9t18.5 2q21 0 36 -10t23 -29q15 -37 25.5 -77.5t13.5 -79.5q3 -33 -12.5 -53.5t-43.5 -20.5q-21 0 -35.5 8.5t-26.5 29.5q-2 3 -19 34t-29 47q-9 12 -22.5 16t-39.5 4q-27 0 -62.5 -0.5
t-52.5 -1.5q-18 -1 -26.5 -9.5t-9.5 -25.5q-1 -22 -1.5 -61t-0.5 -65q0 -24 5 -33.5t17 -10.5q14 -1 36 -0.5t32 3.5q8 3 11.5 10t4.5 18q0 3 0.5 6.5t0.5 11.5q0 7 0.5 10.5t0.5 6.5q3 22 15.5 33.5t34.5 11.5q25 0 37.5 -12.5t16.5 -42.5q3 -17 4 -45t1 -125
q0 -50 -13 -73t-40 -23q-22 0 -34.5 11t-16.5 35q-1 4 -1.5 9t-0.5 14q0 5 -0.5 7.5t-0.5 4.5q-3 17 -7 23t-12 8q-11 4 -36.5 3t-37.5 -5q-9 -3 -12.5 -11.5t-3.5 -25.5v-63.5v-63.5q1 -18 9 -26.5t25 -9.5q14 -1 65 -0.5t66 0.5q24 0 37 4.5t24 16.5q8 11 16.5 23.5
t27.5 46.5q15 28 29.5 38.5t35.5 10.5q28 0 43.5 -20.5t12.5 -54.5q-3 -40 -12.5 -79.5t-24.5 -79.5q-9 -22 -24.5 -32.5t-37.5 -10.5q-11 0 -20.5 2t-25.5 9t-27 9.5t-24 2.5q-32 0 -66.5 -0.5t-96.5 -1.5q-60 -1 -91 -1.5t-59 -0.5h-34.5h-35.5q-45 0 -69.5 14t-24.5 41
q0 17 8 28.5t21 15.5q2 1 13 4t17 6q13 7 18 15.5t6 23.5q1 29 1.5 93t0.5 126v112v112q-1 15 -6 23.5t-16 13.5q-2 1 -9.5 3t-20.5 5q-15 3 -23.5 15t-8.5 31q0 28 25 42t74 14q21 0 46 -0.5zM496 822q-22 -18 -54 -28t-69 -10q-75 0 -120 37.5t-45 100.5q0 14 3.5 22
t12.5 12q5 3 15 4.5t28 1.5q29 0 40.5 -5.5t14.5 -20.5q6 -28 23 -40.5t48 -12.5t49 12.5t24 39.5q3 14 12.5 19.5t31.5 5.5q18 0 26 -6t8 -21q0 -35 -12.5 -63.5t-35.5 -47.5z" />
    <glyph glyph-name="ebreve" unicode="&#x115;" horiz-adv-x="623" 
d="M28 0zM574 134q-30 -73 -93.5 -112t-156.5 -39q-139 0 -217.5 75.5t-78.5 206.5q0 133 89 216t226 83q112 0 180 -64t68 -171q0 -41 -23 -60.5t-72 -19.5h-62h-62h-58.5h-59.5q-12 0 -18 -5.5t-5 -17.5q3 -45 43 -72t100 -27q43 0 74.5 13.5t59.5 44.5q6 8 15 12t18 4
q17 0 29 -10.5t12 -25.5q0 -6 -1.5 -12.5t-6.5 -18.5zM218 360q-1 -15 4 -21.5t19 -6.5h29.5h28.5h33.5h33.5q20 0 28 6.5t8 22.5q0 33 -24.5 55t-64.5 22q-39 0 -65.5 -22t-29.5 -56zM440 653q-23 -20 -55 -31t-69 -11q-75 0 -120 40.5t-45 109.5q0 15 3.5 24t11.5 13
q7 3 16.5 4.5t27.5 1.5q28 0 38.5 -5.5t13.5 -21.5q7 -34 24.5 -48.5t49.5 -14.5q31 0 49.5 15t25.5 46q3 16 12 21.5t30 5.5q18 0 26 -6.5t8 -21.5q0 -38 -12 -69t-35 -52z" />
    <glyph glyph-name="Edotaccent" unicode="&#x116;" horiz-adv-x="723" 
d="M27 0zM248 726q45 -1 66 -1.5t37 -0.5h76.5h76.5q11 0 20.5 2t24.5 9t23.5 9t18.5 2q21 0 36 -10t23 -29q15 -37 25.5 -77.5t13.5 -79.5q3 -33 -12.5 -53.5t-43.5 -20.5q-21 0 -35.5 8.5t-26.5 29.5q-2 3 -19 34t-29 47q-9 12 -22.5 16t-39.5 4q-27 0 -62.5 -0.5
t-52.5 -1.5q-18 -1 -26.5 -9.5t-9.5 -25.5q-1 -22 -1.5 -61t-0.5 -65q0 -24 5 -33.5t17 -10.5q14 -1 36 -0.5t32 3.5q8 3 11.5 10t4.5 18q0 3 0.5 6.5t0.5 11.5q0 7 0.5 10.5t0.5 6.5q3 22 15.5 33.5t34.5 11.5q25 0 37.5 -12.5t16.5 -42.5q3 -17 4 -45t1 -125
q0 -50 -13 -73t-40 -23q-22 0 -34.5 11t-16.5 35q-1 4 -1.5 9t-0.5 14q0 5 -0.5 7.5t-0.5 4.5q-3 17 -7 23t-12 8q-11 4 -36.5 3t-37.5 -5q-9 -3 -12.5 -11.5t-3.5 -25.5v-63.5v-63.5q1 -18 9 -26.5t25 -9.5q14 -1 65 -0.5t66 0.5q24 0 37 4.5t24 16.5q8 11 16.5 23.5
t27.5 46.5q15 28 29.5 38.5t35.5 10.5q28 0 43.5 -20.5t12.5 -54.5q-3 -40 -12.5 -79.5t-24.5 -79.5q-9 -22 -24.5 -32.5t-37.5 -10.5q-11 0 -20.5 2t-25.5 9t-27 9.5t-24 2.5q-32 0 -66.5 -0.5t-96.5 -1.5q-60 -1 -91 -1.5t-59 -0.5h-34.5h-35.5q-45 0 -69.5 14t-24.5 41
q0 17 8 28.5t21 15.5q2 1 13 4t17 6q13 7 18 15.5t6 23.5q1 29 1.5 93t0.5 126v112v112q-1 15 -6 23.5t-16 13.5q-2 1 -9.5 3t-20.5 5q-15 3 -23.5 15t-8.5 31q0 28 25 42t74 14q21 0 46 -0.5zM512 902q0 -50 -50.5 -86t-115.5 -36q-40 0 -64.5 21.5t-24.5 55.5q0 48 50 86
t109 38q48 0 72 -20t24 -59z" />
    <glyph glyph-name="edotaccent" unicode="&#x117;" horiz-adv-x="623" 
d="M28 0zM574 134q-30 -73 -93.5 -112t-156.5 -39q-139 0 -217.5 75.5t-78.5 206.5q0 133 89 216t226 83q112 0 180 -64t68 -171q0 -41 -23 -60.5t-72 -19.5h-62h-62h-58.5h-59.5q-12 0 -18 -5.5t-5 -17.5q3 -45 43 -72t100 -27q43 0 74.5 13.5t59.5 44.5q6 8 15 12t18 4
q17 0 29 -10.5t12 -25.5q0 -6 -1.5 -12.5t-6.5 -18.5zM218 360q-1 -15 4 -21.5t19 -6.5h29.5h28.5h33.5h33.5q20 0 28 6.5t8 22.5q0 33 -24.5 55t-64.5 22q-39 0 -65.5 -22t-29.5 -56zM457 722q0 -49 -51 -85t-116 -36q-40 0 -64 21t-24 55q0 49 49.5 86.5t109.5 38.5
q47 0 71.5 -20t24.5 -60z" />
    <glyph glyph-name="Eogonek" unicode="&#x118;" horiz-adv-x="723" 
d="M408 -128q0 35 22.5 64.5t62.5 48.5q5 2 4 5.5t-6 3.5q-31 0 -63.5 -0.5t-92.5 -1.5q-58 -1 -87.5 -1.5t-56.5 -0.5h-34.5h-35.5q-45 0 -69.5 14t-24.5 41q0 17 8 28.5t21 15.5q2 1 12.5 4t17.5 6q13 5 18 14t6 25q1 29 1.5 93t0.5 126v112v112q-1 15 -6 24t-16 13
q-1 0 -12.5 3.5t-17.5 4.5q-16 4 -24 16t-8 30q0 28 25 42t74 14q21 0 46 -0.5l75 -1.5q45 -1 66 -1.5t37 -0.5h76.5h76.5q11 0 20.5 2t24.5 9t23.5 9t18.5 2q21 0 36 -10t23 -29q15 -37 25.5 -77.5t13.5 -79.5q3 -33 -12.5 -53.5t-43.5 -20.5q-21 0 -35.5 8.5t-26.5 29.5
q-2 3 -19 34t-29 47q-9 12 -22.5 16t-39.5 4q-27 0 -62.5 -0.5t-52.5 -1.5q-18 -1 -26.5 -9.5t-9.5 -25.5q-1 -22 -1.5 -61t-0.5 -65q0 -24 5 -33.5t17 -10.5q14 -1 36 -0.5t32 3.5q8 3 11.5 10t4.5 18q0 3 0.5 6.5t0.5 11.5q0 7 0.5 10.5t0.5 6.5q3 22 15.5 33.5t34.5 11.5
q25 0 37.5 -12.5t16.5 -42.5q3 -17 4 -44.5t1 -125.5q0 -50 -13 -73t-40 -23q-22 0 -34.5 11t-16.5 35q-1 4 -1.5 9t-0.5 14q0 5 -0.5 7.5t-0.5 4.5q-2 16 -6 23t-13 8q-18 2 -41 2t-33 -4q-9 -3 -12.5 -11.5t-3.5 -25.5v-63.5v-63.5q1 -18 9 -26.5t25 -9.5q14 -1 65 -0.5
t66 0.5q26 0 39 4.5t22 16.5q8 11 16.5 23.5t27.5 46.5q15 28 29.5 38.5t35.5 10.5q28 0 43.5 -20.5t12.5 -54.5q-3 -38 -11.5 -75t-21.5 -72q-8 -20 -21 -29.5t-35 -12.5q-44 -6 -70 -28t-26 -53q0 -16 8.5 -24.5t24.5 -8.5q13 0 24 6.5t20 20.5q6 10 12 14.5t13 4.5
q9 0 14.5 -7t5.5 -19q0 -47 -36 -79t-87 -32q-49 0 -77.5 25t-28.5 68z" />
    <glyph glyph-name="eogonek" unicode="&#x119;" horiz-adv-x="623" 
d="M362 -13q-7 -2 -16.5 -3t-21.5 -1q-139 0 -217.5 75t-78.5 207q0 133 89 216t226 83q112 0 180 -64t68 -171q0 -41 -23 -60.5t-72 -19.5h-62h-62h-58.5h-59.5q-12 0 -18 -5.5t-5 -17.5q3 -45 43 -72t100 -27q42 0 74 13.5t60 44.5q8 8 16.5 12t16.5 4q17 0 29 -10.5
t12 -25.5q0 -7 -1.5 -15t-5.5 -17q-11 -26 -28 -50t-40 -43q-57 -50 -77 -79t-20 -57q0 -16 9 -25t25 -9q13 0 23.5 6.5t20.5 20.5q6 10 12 14.5t13 4.5q9 0 14 -7t5 -19q0 -47 -36 -79t-87 -32q-50 0 -78.5 24.5t-28.5 68.5q0 27 16 53t47 52q4 3 2.5 7t-5.5 3zM218 360
q-1 -15 4 -21.5t19 -6.5h29.5h28.5h33.5h33.5q20 0 28 6.5t8 22.5q0 33 -24.5 55t-64.5 22q-39 0 -65.5 -22t-29.5 -56z" />
    </font>
</defs>
</svg>
