<svg xmlns="http://www.w3.org/2000/svg">
<defs>
<font id="DoyleLight-Regular" horiz-adv-x="706" >
  <font-face 
    font-family="Doyle Light"
    font-weight="300"
    font-stretch="normal"
    units-per-em="1000"
    panose-1="2 15 3 4 4 2 6 6 2 3"
    ascent="800"
    descent="-200"
    x-height="550"
    cap-height="719"
    bbox="-196.519 -304.095 1243 1001.04"
    underline-thickness="50"
    underline-position="-150"
    unicode-range="U+000A-FB04"
  />
<missing-glyph horiz-adv-x="770" 
d="M536 157q-27 -38 -69 -61t-87 -23q-48 0 -86.5 15.5t-66.5 45.5q-5 6 -13.5 12.5t-14.5 9.5q-10 5 -26.5 13t-44.5 23l-7.5 4t-12.5 4q-4 0 -8 -3t-9 -13q-7 -12 -12 -15.5t-11 -3.5q-8 0 -13 5t-5 13q0 6 5 13.5t16 19.5q4 4 14 13.5t15 14.5q35 36 42 40.5t14 4.5
q9 0 16 -5.5t7 -14.5q0 -7 -4 -11.5t-18 -10.5q-12 -6 -16 -10t-4 -9q0 -3 2.5 -6t7.5 -7q32 -22 92 -36t131 -14q69 0 128.5 19.5t115.5 63.5q11 9 16 14.5t5 10.5q0 4 -3 7t-14 7q-12 4 -16 8t-4 10q0 9 6 15t15 6q11 0 30 -12t24 -15l28 -14t22 -24q0 -9 -6 -14t-16 -5
q-4 0 -7.5 1.5t-9.5 5.5q-4 4 -7 5t-6 1q-6 0 -19 -11.5t-16 -13.5q-14 -13 -32.5 -26.5t-43.5 -28.5q-10 -6 -16 -10.5t-8 -7.5zM234 432q-1 -11 -10.5 -18t-26.5 -7q-18 0 -28.5 11.5t-10.5 29.5q0 22 17 36t45 14q25 0 40 -7.5t15 -20.5q0 -7 -5.5 -11.5t-13.5 -4.5
q-7 0 -11 -0.5t-5 -1.5q-2 -2 -3 -4.5t-3 -15.5zM409 310q0 -12 -6 -18.5t-17 -6.5q-17 0 -25 20.5t-8 67.5q0 38 6 53.5t20 15.5q9 0 14 -6t5 -15q0 -3 -0.5 -7t-2.5 -12q-2 -11 -3 -17.5t-1 -12.5q0 -9 2 -18t9 -22q4 -9 5.5 -13.5t1.5 -8.5zM175 569q-10 -8 -15 -10
t-10 -2q-9 0 -13.5 5t-4.5 14q0 20 24 33.5t55 13.5q32 0 52 -9t20 -23q0 -9 -5 -14t-14 -5q-4 0 -9 1t-15 5t-15 5.5t-10 1.5q-10 0 -18.5 -3t-21.5 -13zM553 460q0 -12 -10 -20t-27 -8t-28 12t-11 29q0 23 16.5 37t44.5 14q25 0 40.5 -7t15.5 -18q0 -9 -6 -14t-15 -5h-6
t-8 -1q-3 -2 -4.5 -6.5t-1.5 -12.5zM492 585q-10 -6 -14.5 -8t-8.5 -2q-9 0 -14 5t-5 14q0 20 25 33.5t56 13.5q34 0 52 -8t18 -22q0 -11 -5.5 -16t-16.5 -5q-4 0 -8.5 1t-13.5 4q-9 4 -13.5 5t-8.5 1q-10 0 -19.5 -3t-23.5 -13z" />
    <glyph glyph-name="uniFB00" unicode="ff" horiz-adv-x="838" 
d="M89 1q-15 -1 -21 -1h-11q-15 0 -24 9.5t-9 24.5t9 24.5t24 9.5h11.5t14.5 -1t14 -1h10q16 0 22.5 5t8.5 19q3 20 4.5 62t1.5 108q0 62 -1 117t-2 78q-1 13 -6.5 18.5t-18.5 5.5h-9t-13 -1q-9 -1 -14.5 -1h-10.5q-18 0 -28.5 10t-10.5 26q0 18 10.5 27.5t30.5 9.5h11.5
t18.5 -1t17.5 -1h9.5q6 0 8 1.5t2 5.5q0 3 -0.5 6t-3.5 11q-5 17 -7 29.5t-2 26.5q0 70 44.5 110t120.5 40q50 0 83 -19t33 -48q0 -18 -10.5 -29.5t-27.5 -11.5q-12 0 -21.5 3t-17.5 9q-16 13 -27.5 17.5t-27.5 4.5q-34 0 -54 -22t-20 -60q0 -39 15 -57t48 -18
q13 0 24.5 0.5t29.5 1.5q13 1 20 1h14q18 0 28.5 -9.5t10.5 -25.5q0 -18 -10.5 -28.5t-28.5 -10.5q-10 0 -21.5 0.5t-31.5 1.5q-18 0 -26.5 0.5t-15.5 0.5q-17 0 -23 -5.5t-7 -20.5q-2 -27 -3 -84.5t-1 -108.5q0 -65 1.5 -107.5t4.5 -62.5q2 -14 7 -19t17 -5h17t26 1
q15 1 23 1h15q14 0 23.5 -9.5t9.5 -22.5q0 -15 -9 -25.5t-24 -10.5q-14 0 -30.5 0.5t-49.5 0.5q-37 1 -56.5 1.5t-37.5 0.5q-15 0 -30 -0.5t-40 -1.5zM508 1q-15 -1 -21 -1h-11q-15 0 -24 9.5t-9 24.5t9 24.5t24 9.5h11.5t14.5 -1t14.5 -1h10.5q16 0 22 5t8 19q3 20 4.5 62
t1.5 108q0 62 -1 117t-2 78q-1 13 -6.5 18.5t-18.5 5.5h-9t-13 -1q-9 -1 -14.5 -1h-10.5q-18 0 -28 9.5t-10 26.5q0 18 10.5 27.5t29.5 9.5h11.5t18.5 -1t17.5 -1h9.5q6 0 8 1.5t2 5.5q0 3 -0.5 6t-3.5 11q-5 17 -7 29.5t-2 26.5q0 70 45 110t121 40q49 0 82 -19t33 -48
q0 -18 -10.5 -29.5t-27.5 -11.5q-12 0 -21 3t-17 9q-17 14 -29 18t-27 4q-33 0 -53.5 -22t-20.5 -60q0 -39 15.5 -57t48.5 -18q13 0 24.5 0.5t28.5 1.5q13 1 20 1h14q18 0 28.5 -9.5t10.5 -25.5q0 -18 -10.5 -28.5t-28.5 -10.5q-10 0 -21 0.5t-32 1.5q-17 0 -25.5 0.5
t-16.5 0.5q-17 0 -23 -5.5t-7 -20.5q-1 -42 -2 -96.5t-1 -96.5q0 -61 1.5 -104.5t3.5 -65.5q2 -14 7 -19t17 -5h17t26 1q15 1 23 1h15q14 0 23.5 -9.5t9.5 -22.5q0 -15 -9 -25.5t-24 -10.5q-14 0 -30.5 0.5t-49.5 0.5q-37 1 -56.5 1.5t-37.5 0.5q-15 0 -30 -0.5t-40 -1.5z
" />
    <glyph glyph-name="uniFB01" unicode="fi" horiz-adv-x="777" 
d="M89 1q-15 -1 -21 -1h-11q-15 0 -24 9.5t-9 24.5t9 24.5t24 9.5h11.5t14.5 -1t14 -1h10q16 0 22.5 5t8.5 19q3 20 4.5 62t1.5 108q0 62 -1 117t-2 78q-1 13 -6.5 18.5t-18.5 5.5h-9t-13 -1q-9 -1 -14.5 -1h-10.5q-18 0 -28.5 10t-10.5 26q0 18 10.5 27.5t30.5 9.5h11.5
t18.5 -1t17.5 -1h9.5q6 0 8 1.5t2 5.5q0 3 -0.5 6t-3.5 11q-5 17 -7 29.5t-2 26.5q0 70 44.5 110t120.5 40q50 0 83 -19t33 -48q0 -18 -10.5 -29.5t-27.5 -11.5q-12 0 -21.5 3t-17.5 9q-16 13 -27.5 17.5t-27.5 4.5q-34 0 -54 -22t-20 -60q0 -39 15 -57t48 -18
q13 0 24.5 0.5t29.5 1.5q13 1 20 1h14q18 0 28.5 -9.5t10.5 -25.5q0 -18 -10.5 -28.5t-28.5 -10.5q-10 0 -21.5 0.5t-31.5 1.5q-18 0 -26.5 0.5t-15.5 0.5q-17 0 -23 -5.5t-7 -20.5q-2 -27 -3 -84.5t-1 -108.5q0 -65 1.5 -107.5t4.5 -62.5q2 -14 7 -19t17 -5h17t26 1
q15 1 23 1h15q14 0 23.5 -9.5t9.5 -22.5q0 -15 -9 -25.5t-24 -10.5q-14 0 -30.5 0.5t-49.5 0.5q-37 1 -56.5 1.5t-37.5 0.5q-15 0 -30 -0.5t-40 -1.5zM511 1q-15 -1 -21.5 -1h-11.5q-16 0 -25 9t-9 25q0 15 9.5 24t24.5 9h11.5t14.5 -1q8 -1 13 -1h10q18 0 25.5 5.5
t8.5 18.5q1 18 1.5 55.5t0.5 154.5q0 55 -1 95t-2 57q-1 18 -8 25t-22 7q-4 0 -9.5 -0.5t-16.5 -2.5t-16.5 -2.5t-10.5 -0.5q-18 0 -28 9t-10 26q0 16 10 25t27 9q22 1 36.5 2t29.5 2q6 0 13 1t20 2q14 2 21 2.5t12 0.5q18 0 27 -9.5t9 -28.5v-28t-1 -57q-1 -55 -1 -83v-50
q0 -81 0.5 -133.5t2.5 -76.5q1 -13 7.5 -19t19.5 -6h11t16 1t15 1h10q15 0 24 -9t9 -24q0 -16 -8.5 -25t-24.5 -9q-12 0 -25.5 0.5t-40.5 0.5q-30 1 -46 1.5t-30 0.5q-15 0 -30.5 -0.5t-40.5 -1.5zM651 715q1 -30 -24 -51t-61 -21q-27 0 -43.5 15t-16.5 40q0 30 24 51t57 21
q31 0 47 -13.5t17 -41.5z" />
    <glyph glyph-name="uniFB02" unicode="fl" horiz-adv-x="800" 
d="M89 1q-15 -1 -21 -1h-11q-15 0 -24 9.5t-9 24.5t9 24.5t24 9.5h11.5t14.5 -1t14 -1h10q16 0 22.5 5t8.5 19q3 20 4.5 62.5t1.5 108.5q0 62 -1 116.5t-2 77.5q-1 13 -6.5 18.5t-18.5 5.5h-9t-13 -1q-9 -1 -14.5 -1h-10.5q-18 0 -28.5 10t-10.5 26q0 18 10.5 27.5t30.5 9.5
h11.5t18.5 -1t17.5 -1h9.5q6 0 8 1.5t2 5.5q0 2 -0.5 5.5t-3.5 10.5q-5 17 -7 29.5t-2 27.5q0 69 44.5 108.5t120.5 39.5q49 0 82 -18.5t33 -47.5q0 -18 -10.5 -29.5t-27.5 -11.5q-12 0 -21 3t-17 10q-18 13 -29.5 17t-26.5 4q-33 0 -53 -22t-20 -60q0 -39 15 -56.5
t48 -17.5q13 0 24.5 0.5t29.5 1.5q13 1 20 1h14q18 0 28.5 -9.5t10.5 -25.5q0 -18 -10.5 -28.5t-28.5 -10.5q-10 0 -21.5 0.5t-31.5 1.5q-18 0 -26.5 0.5t-15.5 0.5q-17 0 -23 -5.5t-7 -20.5q-2 -26 -3 -83.5t-1 -108.5q0 -66 1.5 -108t4.5 -63q2 -14 7 -19t17 -5h17t25 1
q15 1 23 1h15q14 0 23.5 -9.5t9.5 -22.5q0 -15 -9 -25.5t-24 -10.5q-14 0 -30.5 0.5t-49.5 0.5q-37 1 -56.5 1.5t-36.5 0.5q-15 0 -30 -0.5t-40 -1.5zM540 2l-30 -1.5t-19 -0.5q-16 -1 -25 8.5t-9 27.5q0 14 9 23t25 9h15.5t21.5 -1q12 -1 18 -1h11q11 0 15.5 4t5.5 15
q1 51 1.5 132.5t0.5 172.5q0 136 -0.5 210.5t-2.5 97.5q-1 11 -6.5 16t-15.5 5q-3 0 -7 -0.5t-13 -1.5q-13 -3 -21.5 -3.5t-16.5 -0.5q-18 0 -28.5 9.5t-10.5 24.5q0 17 9.5 26t27.5 10q7 0 14.5 0.5t23.5 0.5q12 1 19 1.5t13 0.5t12.5 0.5t18.5 2.5q12 1 17.5 1.5t10.5 0.5
q21 0 30.5 -11.5t8.5 -35.5q-2 -44 -2.5 -131t-0.5 -223q0 -160 0.5 -217.5t1.5 -87.5q1 -10 5.5 -14.5t14.5 -4.5h11t19 1q12 1 18 1h11q16 0 26 -9.5t10 -24.5t-10 -25t-26 -9q-9 0 -19.5 0.5l-31.5 1.5q-33 1 -50.5 1.5t-32.5 0.5q-12 0 -26 -0.5t-41 -1.5z" />
    <glyph glyph-name="uniFB03" unicode="ffi" horiz-adv-x="1196" 
d="M89 1q-15 -1 -21 -1h-11q-15 0 -24 9.5t-9 24.5t9 24.5t24 9.5h11.5t14.5 -1t14 -1h10q16 0 22.5 5t8.5 19q3 20 4.5 62t1.5 108q0 62 -1 117t-2 78q-1 13 -6.5 18.5t-18.5 5.5h-9t-13 -1q-9 -1 -14.5 -1h-10.5q-18 0 -28.5 10t-10.5 26q0 18 10.5 27.5t30.5 9.5h11.5
t18.5 -1t17.5 -1h9.5q6 0 8 1.5t2 5.5q0 3 -0.5 6t-3.5 11q-5 17 -7 29.5t-2 26.5q0 70 44.5 110t120.5 40q49 0 82.5 -19t33.5 -48q0 -18 -10.5 -30t-27.5 -12q-12 0 -21.5 3t-17.5 10q-16 13 -27.5 17.5t-27.5 4.5q-34 0 -54 -22t-20 -60q0 -39 15 -57t48 -18
q13 0 24.5 0.5t29.5 1.5q13 1 20 1h14q18 0 28.5 -9.5t10.5 -25.5q0 -18 -10.5 -28.5t-28.5 -10.5h-21.5t-31.5 1q-18 1 -26.5 1h-15.5q-17 0 -23 -5t-7 -20q-2 -27 -3 -84.5t-1 -108.5q0 -65 1.5 -107.5t4.5 -62.5q2 -14 7 -19t17 -5h17t26 1q15 1 23 1h15q15 0 24 -9.5
t9 -23.5q0 -15 -9 -25t-24 -10q-14 0 -30.5 0.5t-49.5 0.5q-37 1 -56.5 1.5t-37.5 0.5q-15 0 -30 -0.5t-40 -1.5zM508 1q-15 -1 -21 -1h-11q-15 0 -24 9.5t-9 24.5t9 24.5t24 9.5h11.5t14.5 -1t14.5 -1h10.5q16 0 22 5t8 19q3 20 4.5 62t1.5 108q0 62 -1 117t-2 78
q-1 13 -6.5 18.5t-18.5 5.5h-9t-13 -1q-9 -1 -14.5 -1h-10.5q-18 0 -28 9.5t-10 26.5q0 18 10.5 27.5t29.5 9.5h11.5t18.5 -1t17.5 -1h9.5q6 0 8 1.5t2 5.5q0 3 -0.5 6t-3.5 11q-5 17 -7 29.5t-2 26.5q0 70 45 110t121 40q49 0 82 -19t33 -48q0 -18 -10.5 -29.5t-27.5 -11.5
q-12 0 -21 3t-17 9q-17 14 -29 18t-27 4q-33 0 -53.5 -22t-20.5 -60q0 -39 15.5 -57t48.5 -18q13 0 24.5 0.5t28.5 1.5q13 1 20 1h14q18 0 28.5 -9.5t10.5 -25.5q0 -18 -10.5 -28.5t-28.5 -10.5q-10 0 -21 0.5t-32 1.5q-17 0 -25.5 0.5t-16.5 0.5q-17 0 -23 -5.5t-7 -20.5
q-1 -42 -2 -96.5t-1 -96.5q0 -61 1.5 -104.5t3.5 -65.5q2 -14 7 -19t17 -5h17t26 1q15 1 23 1h15q14 0 23.5 -9.5t9.5 -22.5q0 -15 -9 -25.5t-24 -10.5q-14 0 -30.5 0.5t-49.5 0.5q-37 1 -56.5 1.5t-37.5 0.5q-15 0 -30 -0.5t-40 -1.5zM930 1q-15 -1 -21.5 -1h-11.5
q-16 0 -25 9t-9 25q0 14 9.5 23.5t24.5 9.5h11.5t14.5 -1q8 -1 13.5 -1h10.5q18 0 25 5.5t8 18.5q1 18 1.5 55.5t0.5 154.5q0 55 -1 95t-2 57q-1 18 -8 25t-22 7q-4 0 -9.5 -0.5t-16.5 -2.5t-16.5 -2.5t-10.5 -0.5q-18 0 -28 9.5t-10 25.5t10 25t28 9q28 1 40.5 2t25.5 2
q6 0 13 1t19 2q15 2 21.5 2.5t11.5 0.5q18 0 27 -9.5t9 -28.5v-28v-57q-1 -55 -1 -83v-50q0 -70 0.5 -125t1.5 -85q1 -13 7.5 -19t19.5 -6h11t16 1t15 1h10q15 0 24 -9t9 -24q0 -16 -8.5 -25t-24.5 -9q-11 0 -24.5 0.5t-39.5 0.5q-31 1 -47 1.5t-31 0.5t-30.5 -0.5
t-40.5 -1.5zM1070 715q1 -30 -24 -51t-60 -21q-28 0 -44.5 15t-16.5 40q0 30 24 51t57 21q31 0 47 -13.5t17 -41.5z" />
    <glyph glyph-name="uniFB04" unicode="ffl" horiz-adv-x="1220" 
d="M89 1q-15 -1 -21 -1h-11q-15 0 -24 9.5t-9 24.5t9 24.5t24 9.5h11.5t14.5 -1t14 -1h10q16 0 22.5 5t8.5 19q3 20 4.5 62t1.5 108q0 62 -1 117t-2 78q-1 13 -6.5 18.5t-18.5 5.5h-9t-13 -1q-9 -1 -14.5 -1h-10.5q-18 0 -28.5 10t-10.5 26q0 18 10.5 27.5t30.5 9.5h11.5
t18.5 -1t17.5 -1h9.5q6 0 8 1.5t2 5.5q0 3 -0.5 6t-3.5 11q-5 17 -7 29.5t-2 26.5q0 70 44.5 109.5t120.5 39.5q50 0 83 -19t33 -48q0 -17 -11 -29t-27 -12q-12 0 -21 3t-18 10q-17 14 -28.5 18t-26.5 4q-34 0 -54 -22t-20 -60q0 -39 15 -57t48 -18q13 0 24.5 0.5t29.5 1.5
q13 1 20 1h14q18 0 28.5 -9.5t10.5 -25.5q0 -18 -10.5 -28.5t-28.5 -10.5q-10 0 -21.5 0.5t-31.5 1.5q-18 0 -26.5 0.5t-15.5 0.5q-17 0 -23 -5.5t-7 -20.5q-2 -27 -3 -84.5t-1 -108.5q0 -65 1.5 -107.5t4.5 -62.5q2 -14 7 -19t17 -5h17t26 1q15 1 23 1h15q14 0 23.5 -9.5
t9.5 -22.5q0 -15 -9 -25.5t-24 -10.5q-14 0 -30.5 0.5t-49.5 0.5q-37 1 -56.5 1.5t-37.5 0.5q-15 0 -30 -0.5t-40 -1.5zM508 1q-15 -1 -21 -1h-11q-15 0 -24 9.5t-9 24.5t9 24.5t24 9.5h11.5t14.5 -1t14.5 -1h10.5q16 0 22 5t8 19q3 20 4.5 62.5t1.5 108.5q0 62 -1 116.5
t-2 77.5q-1 13 -6.5 18.5t-18.5 5.5h-9t-13 -1q-9 -1 -14.5 -1h-10.5q-18 0 -28 9.5t-10 26.5q0 18 10.5 27.5t29.5 9.5h11.5t18.5 -1t17.5 -1h9.5q6 0 8 1.5t2 5.5q0 2 -0.5 5.5t-3.5 10.5q-5 17 -7 29.5t-2 27.5q0 69 44.5 108.5t120.5 39.5q49 0 82 -18.5t33 -47.5
q0 -18 -10.5 -29.5t-27.5 -11.5q-12 0 -21 3t-17 9q-17 14 -28.5 18t-26.5 4q-34 0 -54 -22t-20 -60q0 -39 15 -56.5t48 -17.5q13 0 24.5 0.5t29.5 1.5q13 1 20 1h14q18 0 28.5 -9.5t10.5 -25.5q0 -18 -10.5 -28.5t-28.5 -10.5q-10 0 -21 0.5t-32 1.5q-17 0 -25.5 0.5
t-16.5 0.5q-17 0 -23 -5.5t-7 -20.5q-1 -40 -2 -95t-1 -97q0 -62 1.5 -105t3.5 -66q2 -14 7 -19t17 -5h17t25 1q15 1 23 1h15q14 0 23.5 -9.5t9.5 -22.5q0 -15 -9 -25.5t-24 -10.5q-14 0 -30 0.5t-49 0.5q-37 1 -56.5 1.5t-37.5 0.5q-15 0 -30 -0.5t-40 -1.5zM959 2
q-19 -1 -29 -1.5t-19 -0.5q-17 -1 -26 9t-9 27q0 14 9.5 23t25.5 9h14.5t21.5 -1q12 -1 18 -1h12q10 0 14.5 4t5.5 15q1 41 2 119.5t1 185.5q0 120 -1 200.5t-3 107.5q-1 11 -6.5 16t-15.5 5q-3 0 -7 -0.5t-13 -1.5q-13 -3 -21.5 -3.5t-16.5 -0.5q-18 0 -28.5 9.5
t-10.5 24.5q0 17 9.5 26t27.5 10q7 0 14.5 0.5t23.5 0.5q12 1 19 1.5t13 0.5t12.5 0.5t18.5 2.5q12 1 17.5 1.5t10.5 0.5q21 0 30.5 -11.5t8.5 -35.5q-2 -44 -2.5 -131t-0.5 -223q0 -160 0.5 -217.5t1.5 -87.5q1 -10 5.5 -14.5t14.5 -4.5h11t18 1q13 1 19 1h12
q16 0 25.5 -9.5t9.5 -24.5q0 -16 -9.5 -25.5t-25.5 -8.5q-9 0 -20 0.5l-33 1.5q-33 1 -50 1.5t-32 0.5q-12 0 -25.5 -0.5t-41.5 -1.5z" />
    <glyph glyph-name="f_b" unicode="fb" horiz-adv-x="1102" 
d="M89 1q-15 -1 -21 -1h-11q-15 0 -24 9.5t-9 24.5t9 24.5t24 9.5h11.5t14.5 -1t14 -1h10q16 0 22.5 5t8.5 19q3 20 4.5 62t1.5 108q0 62 -1 117t-2 78q-1 13 -6.5 18.5t-18.5 5.5h-9t-13 -1q-9 -1 -14.5 -1h-10.5q-18 0 -28.5 10t-10.5 26q0 18 10.5 27.5t30.5 9.5h11.5
t18.5 -1t17.5 -1h9.5q6 0 8 1.5t2 5.5q0 3 -0.5 6t-3.5 11q-5 17 -7 29.5t-2 26.5q0 70 44.5 110t120.5 40q50 0 83 -19t33 -48q0 -18 -10.5 -29.5t-27.5 -11.5q-12 0 -21.5 3t-17.5 9q-16 13 -27.5 17.5t-27.5 4.5q-34 0 -54 -22t-20 -60q0 -39 15 -57t48 -18
q13 0 24.5 0.5t29.5 1.5q13 1 20 1h14q18 0 28.5 -9.5t10.5 -25.5q0 -18 -10.5 -28.5t-28.5 -10.5q-10 0 -21.5 0.5t-31.5 1.5q-18 0 -26.5 0.5t-15.5 0.5q-17 0 -23 -5.5t-7 -20.5q-2 -27 -3 -84.5t-1 -108.5q0 -65 1.5 -107.5t4.5 -62.5q2 -14 7 -19t17 -5h17t26 1
q15 1 23 1h15q14 0 23.5 -9.5t9.5 -22.5q0 -15 -9 -25.5t-24 -10.5q-14 0 -30.5 0.5t-49.5 0.5q-37 1 -56.5 1.5t-37.5 0.5q-15 0 -30 -0.5t-40 -1.5zM1052 296q3 -142 -63 -224t-183 -82q-53 0 -94.5 17t-65.5 48l-5.5 5.5t-4.5 1.5t-5 -1.5t-4 -5.5q-1 -2 -4 -9.5
t-7 -19.5q-5 -15 -16 -22.5t-28 -7.5q-19 0 -30.5 11t-11.5 28q0 9 3 17.5t13 23.5q12 18 16 30.5t5 26.5v70.5v70.5q-1 41 -3 207t-5 216q-1 11 -6.5 16.5t-15.5 5.5q-3 0 -7 -0.5t-14 -1.5q-15 -3 -23.5 -3.5t-16.5 -0.5q-18 0 -28.5 9.5t-10.5 24.5q0 17 10 26t28 9
q5 0 10.5 0.5l16.5 1.5q17 1 26 1.5t18 0.5q6 0 12.5 0.5t18.5 2.5q12 1 17.5 1.5t10.5 0.5q20 0 29.5 -11.5t8.5 -34.5q-1 -30 -1.5 -77t-0.5 -77q0 -15 0.5 -31.5t0.5 -43.5q1 -13 1 -18v-8q0 -5 2 -8t6 -3q2 0 3.5 0.5t6.5 5.5q33 37 74 55.5t91 18.5q103 0 163.5 -71.5
t62.5 -191.5zM645 213q4 -72 47 -115.5t108 -43.5q81 0 123.5 54t44.5 158q1 105 -43.5 163t-124.5 58q-64 0 -105 -40t-48 -110q-3 -27 -3.5 -54.5t1.5 -69.5z" />
    <glyph glyph-name="f_h" unicode="fh" horiz-adv-x="1135" 
d="M89 1q-15 -1 -21 -1h-11q-15 0 -24 9.5t-9 24.5t9 24.5t24 9.5h11.5t14.5 -1t14 -1h10q16 0 22.5 5t8.5 19q3 20 4.5 62t1.5 108q0 62 -1 117t-2 78q-1 13 -6.5 18.5t-18.5 5.5h-9t-13 -1q-9 -1 -14.5 -1h-10.5q-18 0 -28.5 10t-10.5 26q0 18 10.5 27.5t30.5 9.5h11.5
t18.5 -1t17.5 -1h9.5q6 0 8 1.5t2 5.5q0 3 -0.5 6t-3.5 11q-5 17 -7 29.5t-2 26.5q0 70 44.5 110t120.5 40q50 0 83 -19t33 -48q0 -18 -10.5 -29.5t-27.5 -11.5q-12 0 -21.5 3t-17.5 9q-16 13 -27.5 17.5t-27.5 4.5q-34 0 -54 -22t-20 -60q0 -39 15 -57t48 -18
q13 0 24.5 0.5t29.5 1.5q13 1 20 1h14q18 0 28.5 -9.5t10.5 -25.5q0 -18 -10.5 -28.5t-28.5 -10.5q-10 0 -21.5 0.5t-31.5 1.5q-18 0 -26.5 0.5t-15.5 0.5q-17 0 -23 -5.5t-7 -20.5q-2 -27 -3 -84.5t-1 -108.5q0 -65 1.5 -107.5t4.5 -62.5q2 -14 7 -19t17 -5h17t26 1
q15 1 23 1h15q14 0 23.5 -9.5t9.5 -22.5q0 -15 -9 -25.5t-24 -10.5q-14 0 -30.5 0.5t-49.5 0.5q-37 1 -56.5 1.5t-37.5 0.5q-15 0 -30 -0.5t-40 -1.5zM523 1q-14 0 -20 -0.5t-11 -0.5q-15 0 -24 9.5t-9 24.5q0 14 9 23.5t24 9.5h11.5t15.5 -1q9 -1 14 -1h10q18 0 24.5 5.5
t7.5 18.5q2 34 2.5 84t0.5 203q0 101 -2 193t-4 129q-1 10 -7.5 15.5t-17.5 5.5q-3 0 -7 -0.5t-14 -1.5q-15 -2 -23.5 -3t-17.5 -1q-18 0 -28.5 9.5t-10.5 24.5q0 17 10 26t29 10q6 0 13.5 0.5t22.5 0.5q12 1 18.5 1.5t13.5 0.5q6 0 13 0.5t19 2.5q12 1 17.5 1.5t10.5 0.5
q20 0 29.5 -11.5t9.5 -35.5v-130v-130q0 -5 2 -7.5t5 -2.5t5 1.5t4 5.5q27 40 67 59t96 19q88 0 136 -52t48 -145v-50.5v-51.5q0 -108 0.5 -131.5t2.5 -43.5q1 -12 6 -16t17 -4h9t14 1q8 1 11.5 1h6.5q14 0 23.5 -9.5t9.5 -22.5q0 -16 -9 -26t-24 -9q-43 2 -68.5 3t-51.5 1
q-14 0 -28 -0.5t-38 -2.5q-15 0 -21 -0.5t-11 -0.5q-14 0 -22 9.5t-8 23.5q0 15 8.5 24.5t23.5 9.5q6 0 12.5 -0.5t15.5 -0.5q6 -1 8.5 -1h4.5q13 0 18 4.5t6 17.5q3 40 4.5 91.5t0.5 84.5q-2 85 -8.5 121.5t-22.5 58.5q-16 23 -41.5 35t-60.5 12q-32 0 -59 -12t-47 -36
q-22 -27 -31 -65.5t-9 -116.5q0 -91 0.5 -120t1.5 -51q1 -14 5.5 -19t16.5 -5h9.5t13.5 1q8 1 11.5 1h7.5q14 0 23.5 -8.5t9.5 -21.5q0 -16 -9 -26.5t-24 -10.5q-11 0 -23 0.5l-36 1.5q-28 1 -42.5 1.5t-28.5 0.5q-15 0 -30.5 -0.5t-39.5 -2.5z" />
    <glyph glyph-name="f_hbar" unicode="f&#x127;" horiz-adv-x="1135" 
d="M89 1q-15 -1 -21 -1h-11q-15 0 -24 9.5t-9 24.5t9 24.5t24 9.5h11.5t14.5 -1t14 -1h10q16 0 22.5 5t8.5 19q3 20 4.5 62t1.5 108q0 62 -1 117t-2 78q-1 13 -6.5 18.5t-18.5 5.5h-9t-13 -1q-9 -1 -14.5 -1h-10.5q-18 0 -28.5 10t-10.5 26q0 18 10.5 27.5t30.5 9.5h11.5
t18.5 -1t17.5 -1h9.5q6 0 8 1.5t2 5.5q0 3 -0.5 6t-3.5 11q-5 17 -7 29.5t-2 26.5q0 70 44.5 110t120.5 40q50 0 83 -19t33 -48q0 -18 -10.5 -29.5t-27.5 -11.5q-12 0 -21.5 3t-17.5 9q-16 13 -27.5 17.5t-27.5 4.5q-34 0 -54 -22t-20 -60q0 -39 15 -57t48 -18
q13 0 24.5 0.5t29.5 1.5q13 1 20 1h14q18 0 28.5 -9.5t10.5 -25.5q0 -18 -10.5 -28.5t-28.5 -10.5q-10 0 -21.5 0.5t-31.5 1.5q-18 0 -26.5 0.5t-15.5 0.5q-17 0 -23 -5.5t-7 -20.5q-2 -27 -3 -84.5t-1 -108.5q0 -65 1.5 -107.5t4.5 -62.5q2 -14 7 -19t17 -5h17t26 1
q15 1 23 1h15q14 0 23.5 -9.5t9.5 -22.5q0 -15 -9 -25.5t-24 -10.5q-14 0 -30.5 0.5t-49.5 0.5q-37 1 -56.5 1.5t-37.5 0.5q-15 0 -30 -0.5t-40 -1.5zM523 0q-14 0 -20 -0.5t-11 -0.5q-15 0 -24 9.5t-9 24.5q0 14 9 23.5t24 9.5h11.5t15.5 -1q9 -1 14 -1h10q18 0 24.5 5.5
t7.5 18.5q2 34 2.5 84t0.5 204q0 101 -2 193t-4 129q-1 10 -7.5 15.5t-17.5 5.5q-3 0 -7 -0.5t-14 -1.5q-15 -2 -23.5 -3t-17.5 -1q-18 0 -28.5 9.5t-10.5 24.5q0 17 10 26t29 10q7 0 14.5 0.5t22.5 0.5q12 1 19 1.5t13 0.5t12.5 0.5t18.5 2.5q12 1 17.5 1.5t10.5 0.5
q20 0 29.5 -11.5t9.5 -34.5v-26v-26q0 -9 4 -13t14 -4h18t30 1q22 1 33.5 1h21.5q18 0 28 -8.5t10 -23.5q0 -17 -10 -26t-28 -9h-23.5t-36.5 1h-28.5h-14.5q-10 0 -14.5 -6.5t-4.5 -20.5v-50.5v-50.5q0 -5 2 -7.5t6 -2.5q3 0 5 1.5t4 5.5q27 40 67 59t96 19q88 0 136 -52
t48 -145v-50.5v-51.5q0 -109 0.5 -132.5t2.5 -43.5q1 -12 6 -16t17 -4h9t14 1q8 1 11.5 1h6.5q14 0 23.5 -9.5t9.5 -22.5q0 -16 -9 -26t-24 -9q-43 2 -68.5 3t-51.5 1q-14 0 -28 -0.5t-38 -2.5q-15 0 -21 -0.5t-11 -0.5q-14 0 -22 9.5t-8 23.5q0 15 8.5 24.5t23.5 9.5
q6 0 12.5 -0.5t15.5 -0.5q6 -1 8.5 -1h4.5q13 0 18 4.5t6 17.5q3 40 4.5 92t0.5 85q-2 85 -8.5 121.5t-22.5 58.5q-16 23 -41.5 35t-60.5 12q-32 0 -59 -12t-47 -36q-22 -27 -31 -65.5t-9 -116.5q0 -91 0.5 -120.5t1.5 -51.5q1 -14 5.5 -19t16.5 -5h9.5t13.5 1q8 1 11.5 1
h7.5q14 0 23.5 -8.5t9.5 -20.5q0 -17 -9 -27.5t-24 -10.5q-11 0 -23 0.5l-36 1.5q-28 1 -42.5 1.5t-28.5 0.5q-15 0 -30.5 -0.5t-39.5 -2.5z" />
    <glyph glyph-name="f_iacute" unicode="f&#xed;" horiz-adv-x="777" 
d="M89 1q-15 -1 -21 -1h-11q-15 0 -24 9.5t-9 24.5t9 24.5t24 9.5h11.5t14.5 -1t14 -1h10q16 0 22.5 5t8.5 19q3 20 4.5 62t1.5 108q0 62 -1 117t-2 78q-1 13 -6.5 18.5t-18.5 5.5h-9t-13 -1q-9 -1 -14.5 -1h-10.5q-18 0 -28.5 10t-10.5 26q0 18 10.5 27.5t30.5 9.5h11.5
t18.5 -1t17.5 -1h9.5q6 0 8 1.5t2 5.5q0 3 -0.5 6t-3.5 11q-5 17 -7 29.5t-2 26.5q0 70 44.5 110t120.5 40q50 0 83 -19t33 -48q0 -18 -10.5 -29.5t-27.5 -11.5q-12 0 -21.5 3t-17.5 9q-16 13 -27.5 17.5t-27.5 4.5q-34 0 -54 -22t-20 -60q0 -39 15 -57t48 -18
q13 0 24.5 0.5t29.5 1.5q13 1 20 1h14q18 0 28.5 -9.5t10.5 -25.5q0 -18 -10.5 -28.5t-28.5 -10.5q-10 0 -21.5 0.5t-31.5 1.5q-18 0 -26.5 0.5t-15.5 0.5q-17 0 -23 -5.5t-7 -20.5q-2 -27 -3 -84.5t-1 -108.5q0 -65 1.5 -107.5t4.5 -62.5q2 -14 7 -19t17 -5h17t26 1
q15 1 23 1h15q14 0 23.5 -9.5t9.5 -22.5q0 -15 -9 -25.5t-24 -10.5q-14 0 -30.5 0.5t-49.5 0.5q-37 1 -56.5 1.5t-37.5 0.5q-15 0 -30 -0.5t-40 -1.5zM511 1q-15 -1 -21.5 -1h-11.5q-16 0 -25 9t-9 25q0 15 9.5 24t24.5 9h11.5t14.5 -1q8 -1 13 -1h10q18 0 25.5 5.5
t8.5 18.5q1 18 1.5 55.5t0.5 154.5q0 55 -1 95t-2 57q-1 18 -8 25t-22 7q-4 0 -9.5 -0.5t-16.5 -2.5t-16.5 -2.5t-10.5 -0.5q-18 0 -28 9t-10 26q0 16 10 25t27 9q22 1 36.5 2t29.5 2q6 0 13 1t20 2q14 2 21 2.5t12 0.5q18 0 27 -9.5t9 -28.5v-28t-1 -57q-1 -55 -1 -83v-50
q0 -81 0.5 -133.5t2.5 -76.5q1 -13 7.5 -19t19.5 -6h11t16 1t15 1h10q15 0 24 -9t9 -24q0 -16 -8.5 -25t-24.5 -9q-12 0 -25.5 0.5t-40.5 0.5q-30 1 -46 1.5t-30 0.5q-15 0 -30.5 -0.5t-40.5 -1.5zM738 789q-27 -24 -89.5 -72.5t-79.5 -58.5q-11 -6 -22.5 -3t-18.5 12
q-6 10 -5 20.5t9 19.5q20 21 74 72t77 71q13 12 29 12t26 -12q13 -15 13 -32t-13 -29z" />
    <glyph glyph-name="f_imacron" unicode="f&#x12b;" horiz-adv-x="777" 
d="M89 1q-15 -1 -21 -1h-11q-15 0 -24 9.5t-9 24.5t9 24.5t24 9.5h11.5t14.5 -1t14 -1h10q16 0 22.5 5t8.5 19q3 20 4.5 62t1.5 108q0 62 -1 117t-2 78q-1 13 -6.5 18.5t-18.5 5.5h-9t-13 -1q-9 -1 -14.5 -1h-10.5q-18 0 -28.5 10t-10.5 26q0 18 10.5 27.5t30.5 9.5h11.5
t18.5 -1t17.5 -1h9.5q6 0 8 1.5t2 5.5q0 3 -0.5 6t-3.5 11q-5 17 -7 29.5t-2 26.5q0 70 44.5 110t120.5 40q50 0 83 -19t33 -48q0 -18 -11 -29.5t-28 -11.5q-12 0 -21 3t-17 9q-17 14 -28.5 18t-26.5 4q-34 0 -54 -22t-20 -60q0 -39 15 -57t48 -18q13 0 24.5 0.5t29.5 1.5
q13 1 20 1h14q18 0 28.5 -9.5t10.5 -25.5q0 -18 -10.5 -28.5t-28.5 -10.5q-10 0 -21.5 0.5t-31.5 1.5q-18 0 -26.5 0.5t-15.5 0.5q-17 0 -23 -5.5t-7 -20.5q-2 -27 -3 -84.5t-1 -108.5q0 -65 1.5 -107.5t4.5 -62.5q2 -14 7 -19t17 -5h17t26 1q15 1 23 1h15q14 0 23.5 -9.5
t9.5 -22.5q0 -15 -9 -25.5t-24 -10.5q-14 0 -30.5 0.5t-49.5 0.5q-37 1 -56.5 1.5t-37.5 0.5q-15 0 -30 -0.5t-40 -1.5zM511 1q-15 -1 -21.5 -1h-11.5q-16 0 -25 9t-9 25q0 15 9.5 24t24.5 9h11.5t14.5 -1q8 -1 13 -1h10q18 0 25.5 5.5t8.5 18.5q1 18 1.5 55.5t0.5 154.5
q0 55 -1 95t-2 57q-1 18 -8 25t-22 7q-4 0 -9.5 -0.5t-16.5 -2.5t-16.5 -2.5t-10.5 -0.5q-18 0 -28 9t-10 26q0 16 10 25t27 9q22 1 36.5 2t29.5 2q6 0 13 1t20 2q14 2 21 2.5t12 0.5q18 0 27 -9.5t9 -28.5v-28t-1 -57q-1 -55 -1 -83v-50q0 -81 0.5 -133.5t2.5 -76.5
q1 -13 7.5 -19t19.5 -6h11t16 1t15 1h10q15 0 24 -9t9 -24q0 -16 -8.5 -25t-24.5 -9q-12 0 -25.5 0.5t-40.5 0.5q-30 1 -46 1.5t-30 0.5q-15 0 -30.5 -0.5t-40.5 -1.5zM690 635q-18 1 -57.5 0.5t-50.5 -0.5q-24 0 -48.5 -0.5t-46.5 -1.5q-21 -1 -31 10t-10 33q0 19 10.5 30
t29.5 10q14 -1 33.5 -1h64.5q47 1 68 1.5t36 1.5q19 1 29 -10t10 -32q0 -20 -9.5 -31t-27.5 -10z" />
    <glyph glyph-name="f_j" unicode="fj" horiz-adv-x="738" 
d="M89 1q-15 -1 -21 -1h-11q-15 0 -24 9.5t-9 24.5t9 24.5t24 9.5h11.5t14.5 -1t14 -1h10q16 0 22.5 5t8.5 19q3 20 4.5 62t1.5 108q0 62 -1 117t-2 78q-1 13 -6.5 18.5t-18.5 5.5h-9t-13 -1q-9 -1 -14.5 -1h-10.5q-18 0 -28.5 10t-10.5 26q0 18 10.5 27.5t30.5 9.5h11.5
t18.5 -1t17.5 -1h9.5q6 0 8 1.5t2 5.5q0 3 -0.5 6t-3.5 11q-5 17 -7 29.5t-2 26.5q0 70 44.5 110t120.5 40q50 0 83 -19t33 -48q0 -18 -10.5 -29.5t-27.5 -11.5q-12 0 -21.5 3t-17.5 9q-16 13 -27.5 17.5t-27.5 4.5q-34 0 -54 -22t-20 -60q0 -39 15 -57t48 -18
q13 0 24.5 0.5t29.5 1.5q13 1 20 1h14q18 0 28.5 -9.5t10.5 -25.5q0 -18 -10.5 -28.5t-28.5 -10.5q-10 0 -21.5 0.5t-31.5 1.5q-18 0 -26.5 0.5t-15.5 0.5q-17 0 -23 -5.5t-7 -20.5q-2 -27 -3 -84.5t-1 -108.5q0 -65 1.5 -107.5t4.5 -62.5q2 -14 7 -19t17 -5h17t26 1
q15 1 23 1h15q14 0 23.5 -9.5t9.5 -22.5q0 -15 -9 -25.5t-24 -10.5q-14 0 -30.5 0.5t-49.5 0.5q-37 1 -56.5 1.5t-37.5 0.5q-15 0 -30 -0.5t-40 -1.5zM566 165q1 121 0 189t-3 97q-2 17 -8.5 24.5t-21.5 7.5q-4 0 -9.5 -0.5t-15.5 -2.5t-15.5 -2.5t-10.5 -0.5
q-19 0 -28.5 8.5t-9.5 25.5q0 16 10 25t27 10q25 1 41 2t23 2q6 0 13 1t20 2q14 2 21 2.5t12 0.5q18 0 27 -9.5t9 -28.5v-40t-1 -79q-2 -81 -2.5 -131t-0.5 -100q0 -61 1 -115t4 -125q1 -32 1.5 -45.5t0.5 -24.5q0 -61 -31.5 -90t-97.5 -29q-45 0 -71.5 15.5t-26.5 43.5
q0 19 12 31.5t30 12.5q11 0 20 -3t21 -13q11 -8 18 -10.5t15 -2.5q18 0 25.5 10t6.5 34q-6 138 -6 189.5t1 118.5zM652 714q1 -30 -24 -50.5t-61 -20.5q-27 0 -43.5 15t-16.5 39q0 30 24 51t57 21q31 0 47 -13.5t17 -41.5z" />
    <glyph glyph-name="f_k" unicode="fk" horiz-adv-x="1094" 
d="M89 1q-15 -1 -21 -1h-11q-15 0 -24 9.5t-9 24.5t9 24.5t24 9.5h11.5t14.5 -1t14 -1h10q16 0 22.5 5t8.5 19q3 20 4.5 62t1.5 108q0 62 -1 117t-2 78q-1 13 -6.5 18.5t-18.5 5.5h-9t-13 -1q-9 -1 -14.5 -1h-10.5q-18 0 -28.5 10t-10.5 26q0 18 10.5 27.5t30.5 9.5h11.5
t18.5 -1t17.5 -1h9.5q6 0 8 1.5t2 5.5q0 3 -0.5 6t-3.5 11q-5 17 -7 29.5t-2 26.5q0 70 44.5 110t120.5 40q50 0 83 -19t33 -48q0 -18 -10.5 -29.5t-27.5 -11.5q-12 0 -21.5 3t-17.5 9q-16 13 -27.5 17.5t-27.5 4.5q-34 0 -54 -22t-20 -60q0 -39 15 -57t48 -18
q13 0 24.5 0.5t29.5 1.5q13 1 20 1h14q18 0 28.5 -9.5t10.5 -25.5q0 -18 -10.5 -28.5t-28.5 -10.5q-10 0 -21.5 0.5t-31.5 1.5q-18 0 -26.5 0.5t-15.5 0.5q-17 0 -23 -5.5t-7 -20.5q-2 -27 -3 -84.5t-1 -108.5q0 -65 1.5 -107.5t4.5 -62.5q2 -14 7 -19t17 -5h17t26 1
q15 1 23 1h15q14 0 23.5 -9.5t9.5 -22.5q0 -15 -9 -25.5t-24 -10.5q-14 0 -30.5 0.5t-49.5 0.5q-37 1 -56.5 1.5t-37.5 0.5q-15 0 -30 -0.5t-40 -1.5zM522 1q-14 0 -20 -0.5t-11 -0.5q-15 0 -24 9.5t-9 24.5q0 14 9 23.5t24 9.5h11.5t15.5 -1q9 -1 14.5 -1h10.5
q17 0 23.5 5.5t7.5 18.5q2 35 3.5 99t1.5 145q0 149 -1 246.5t-3 119.5q-1 10 -6.5 15t-14.5 5q-3 0 -7 -0.5t-14 -1.5q-15 -2 -24 -3t-18 -1q-18 0 -28.5 9.5t-10.5 24.5q0 17 10 26t28 10q7 0 14.5 0.5t23.5 0.5q12 1 19 1.5t13 0.5t13 0.5t19 2.5q12 1 17.5 1.5t9.5 0.5
q21 0 30.5 -11.5t8.5 -35.5q-1 -50 -2 -154t-1 -268q0 -11 2.5 -15.5t9.5 -4.5q5 0 9.5 2.5t11.5 8.5q14 11 35 29t50 44q34 31 54.5 50.5t27.5 26.5q3 3 4.5 6.5t1.5 6.5q0 4 -4 7t-10 3h-7.5h-13.5q-11 -1 -16 -1h-9q-18 0 -27.5 9t-9.5 25q0 15 9.5 23.5t25.5 8.5h15.5
t26.5 -1q30 -1 50.5 -1.5t43.5 -0.5q10 0 20 0.5t27 1.5q15 0 23 0.5t15 0.5q17 0 26.5 -9t9.5 -26q0 -14 -10 -23t-26 -9q-3 0 -6 0.5l-9 1.5q-5 0 -7.5 0.5t-5.5 0.5q-8 0 -13.5 -2t-13.5 -9q-9 -7 -19.5 -16.5t-32.5 -28.5l-21 -19.5t-14 -12.5q-9 -9 -18 -17.5
t-25 -22.5q-9 -8 -13 -11.5t-7 -6.5q-6 -6 -8 -9.5t-2 -7.5q0 -3 0.5 -5t4.5 -8q19 -30 59.5 -87.5t105.5 -145.5q6 -8 9.5 -10t13.5 -2h9.5t15.5 1q7 1 10.5 1h5.5q15 0 24.5 -9t9.5 -22q0 -16 -9 -26t-25 -10h-12.5t-23.5 1q-25 1 -39.5 1.5t-27.5 0.5q-16 0 -30.5 -0.5
t-34.5 -1.5q-14 -1 -21 -1h-14q-16 0 -25 9t-9 24q0 14 9 23.5t25 9.5h6.5t10.5 -1t11 -1h8q7 0 9 4t-3 12q-14 24 -41 63t-86 122q-5 6 -8 8t-6 2q-1 0 -3 -0.5t-7 -4.5q-8 -6 -34 -28.5t-31 -27.5q-5 -4 -7 -9t-2 -13q0 -52 0.5 -69t1.5 -35q0 -14 3.5 -19t12.5 -5h9.5
t10.5 1q4 1 6.5 1h4.5q13 0 21.5 -8.5t8.5 -21.5q0 -18 -7.5 -27.5t-22.5 -9.5q-10 0 -20.5 0.5t-29.5 1.5q-22 1 -35 1.5t-26 0.5q-15 0 -30 -0.5t-39 -2.5z" />
    <glyph glyph-name="f_lcaron" unicode="f&#x13e;" horiz-adv-x="800" 
d="M24 0zM89 1q-15 -1 -21 -1h-11q-15 0 -24 9.5t-9 24.5t9 24.5t24 9.5h11.5t14.5 -1t14 -1h10q16 0 22.5 5t8.5 19q3 20 4.5 62.5t1.5 108.5q0 62 -1 116.5t-2 77.5q-1 13 -6.5 18.5t-18.5 5.5h-9t-13 -1q-9 -1 -14.5 -1h-10.5q-18 0 -28.5 10t-10.5 26q0 18 10.5 27.5
t30.5 9.5h11.5t18.5 -1t17.5 -1h9.5q6 0 8 1.5t2 5.5q0 2 -0.5 5.5t-3.5 10.5q-5 17 -7 29.5t-2 27.5q0 69 44.5 108.5t120.5 39.5q49 0 82 -18.5t33 -47.5q0 -18 -10.5 -29.5t-27.5 -11.5q-12 0 -21 3t-17 10q-18 13 -29.5 17t-26.5 4q-33 0 -53 -22t-20 -60
q0 -39 15 -56.5t48 -17.5q13 0 24.5 0.5t29.5 1.5q13 1 20 1h14q18 0 28.5 -9.5t10.5 -25.5q0 -18 -10.5 -28.5t-28.5 -10.5q-10 0 -21.5 0.5t-31.5 1.5q-18 0 -26.5 0.5t-15.5 0.5q-17 0 -23 -5.5t-7 -20.5q-2 -26 -3 -83.5t-1 -108.5q0 -66 1.5 -108t4.5 -63q2 -14 7 -19
t17 -5h17t25 1q15 1 23 1h15q14 0 23.5 -9.5t9.5 -22.5q0 -15 -9 -25.5t-24 -10.5q-14 0 -30.5 0.5t-49.5 0.5q-37 1 -56.5 1.5t-36.5 0.5q-15 0 -30 -0.5t-40 -1.5zM540 2l-30 -1.5t-19 -0.5q-16 -1 -25 8.5t-9 27.5q0 14 9 23t25 9h15.5t21.5 -1q12 -1 18 -1h11
q11 0 15.5 4t5.5 15q1 51 1.5 132.5t0.5 172.5q0 136 -0.5 210.5t-2.5 97.5q-1 11 -6.5 16t-15.5 5q-3 0 -7 -0.5t-13 -1.5q-13 -3 -21.5 -3.5t-16.5 -0.5q-18 0 -28.5 9.5t-10.5 24.5q0 17 9.5 26t27.5 10q7 0 14.5 0.5t23.5 0.5q12 1 19 1.5t13 0.5t12.5 0.5t18.5 2.5
q12 1 17.5 1.5t10.5 0.5q21 0 30.5 -11.5t8.5 -35.5q-2 -44 -2.5 -131t-0.5 -223q0 -160 0.5 -217.5t1.5 -87.5q1 -10 5.5 -14.5t14.5 -4.5h11t19 1q12 1 18 1h11q16 0 26 -9.5t10 -24.5t-10 -25t-26 -9q-9 0 -19.5 0.5l-31.5 1.5q-33 1 -50.5 1.5t-32.5 0.5q-12 0 -26 -0.5
t-41 -1.5zM794 809q24 0 36 -14t12 -42q0 -41 -11.5 -85t-29.5 -76q-12 -21 -24.5 -32t-23.5 -11q-17 0 -22 14.5t13 32.5q19 21 23.5 45.5t-9.5 71.5q-9 32 -9 46.5t5 26.5q6 11 16 17t24 6z" />
    <glyph glyph-name=".notdef" horiz-adv-x="770" 
d="M536 157q-27 -38 -69 -61t-87 -23q-48 0 -86.5 15.5t-66.5 45.5q-5 6 -13.5 12.5t-14.5 9.5q-10 5 -26.5 13t-44.5 23l-7.5 4t-12.5 4q-4 0 -8 -3t-9 -13q-7 -12 -12 -15.5t-11 -3.5q-8 0 -13 5t-5 13q0 6 5 13.5t16 19.5q4 4 14 13.5t15 14.5q35 36 42 40.5t14 4.5
q9 0 16 -5.5t7 -14.5q0 -7 -4 -11.5t-18 -10.5q-12 -6 -16 -10t-4 -9q0 -3 2.5 -6t7.5 -7q32 -22 92 -36t131 -14q69 0 128.5 19.5t115.5 63.5q11 9 16 14.5t5 10.5q0 4 -3 7t-14 7q-12 4 -16 8t-4 10q0 9 6 15t15 6q11 0 30 -12t24 -15l28 -14t22 -24q0 -9 -6 -14t-16 -5
q-4 0 -7.5 1.5t-9.5 5.5q-4 4 -7 5t-6 1q-6 0 -19 -11.5t-16 -13.5q-14 -13 -32.5 -26.5t-43.5 -28.5q-10 -6 -16 -10.5t-8 -7.5zM234 432q-1 -11 -10.5 -18t-26.5 -7q-18 0 -28.5 11.5t-10.5 29.5q0 22 17 36t45 14q25 0 40 -7.5t15 -20.5q0 -7 -5.5 -11.5t-13.5 -4.5
q-7 0 -11 -0.5t-5 -1.5q-2 -2 -3 -4.5t-3 -15.5zM409 310q0 -12 -6 -18.5t-17 -6.5q-17 0 -25 20.5t-8 67.5q0 38 6 53.5t20 15.5q9 0 14 -6t5 -15q0 -3 -0.5 -7t-2.5 -12q-2 -11 -3 -17.5t-1 -12.5q0 -9 2 -18t9 -22q4 -9 5.5 -13.5t1.5 -8.5zM175 569q-10 -8 -15 -10
t-10 -2q-9 0 -13.5 5t-4.5 14q0 20 24 33.5t55 13.5q32 0 52 -9t20 -23q0 -9 -5 -14t-14 -5q-4 0 -9 1t-15 5t-15 5.5t-10 1.5q-10 0 -18.5 -3t-21.5 -13zM553 460q0 -12 -10 -20t-27 -8t-28 12t-11 29q0 23 16.5 37t44.5 14q25 0 40.5 -7t15.5 -18q0 -9 -6 -14t-15 -5h-6
t-8 -1q-3 -2 -4.5 -6.5t-1.5 -12.5zM492 585q-10 -6 -14.5 -8t-8.5 -2q-9 0 -14 5t-5 14q0 20 25 33.5t56 13.5q34 0 52 -8t18 -22q0 -11 -5.5 -16t-16.5 -5q-4 0 -8.5 1t-13.5 4q-9 4 -13.5 5t-8.5 1q-10 0 -19.5 -3t-23.5 -13z" />
    <glyph glyph-name=".null" horiz-adv-x="0" 
 />
    <glyph glyph-name="nonmarkingreturn" horiz-adv-x="333" 
 />
    <glyph glyph-name="uni000A" unicode="&#xa;" horiz-adv-x="0" 
 />
    <glyph glyph-name="space" unicode=" " horiz-adv-x="221" 
 />
    <glyph glyph-name="exclam" unicode="!" horiz-adv-x="245" 
d="M158 266q-1 -16 -11 -25.5t-25 -9.5t-24.5 10t-8.5 26q2 62 2.5 201.5t-1.5 213.5q-1 38 11 55t40 17q23 0 34.5 -19t8.5 -52q-7 -74 -15.5 -214t-10.5 -203zM189 64q0 -31 -21.5 -52.5t-52.5 -21.5q-27 0 -43 15t-16 41q0 30 22 52.5t52 22.5q26 0 42.5 -16t16.5 -41z
" />
    <glyph glyph-name="quotedbl" unicode="&#x22;" horiz-adv-x="414" 
d="M49 435zM134 478q-7 -23 -19 -33t-33 -10q-20 0 -27.5 14t0.5 36q12 36 31 102.5t31 111.5q7 27 18.5 37.5t33.5 10.5q25 0 32.5 -15t-2.5 -43q-3 -8 -19.5 -60.5t-45.5 -150.5zM294 478q-7 -23 -19 -33t-33 -10q-20 0 -27.5 14t0.5 36q12 36 31 102.5t31 111.5
q7 27 18.5 37.5t33.5 10.5q25 0 32.5 -15t-2.5 -43q-3 -8 -19.5 -60.5t-45.5 -150.5z" />
    <glyph glyph-name="numbersign" unicode="#" horiz-adv-x="593" 
d="M186 80q-4 -21 -15 -30t-32 -9q-22 0 -30.5 11t-1.5 32q5 18 9.5 33t7.5 28q6 27 8.5 40t4.5 24q1 6 -1 8t-7 2h-9.5h-16.5q-11 -1 -16.5 -1h-10.5q-29 0 -39 9t-4 28q7 22 20.5 30.5t40.5 6.5q21 -1 33 -1.5t21 -0.5q6 0 8.5 2t3.5 8q6 23 12 48t11 50q1 6 -0.5 8.5
t-8.5 2.5h-10.5t-16.5 -1q-12 -1 -17.5 -1h-10.5q-30 0 -40 10t-3 32q6 20 20 28t41 6q9 -1 20 -1h34q6 0 8.5 2.5t4.5 8.5q3 10 5.5 22.5t7.5 38.5q5 25 7 36.5t3 20.5q4 27 16.5 38.5t37.5 11.5q24 0 32.5 -13.5t0.5 -38.5q-2 -7 -4.5 -16t-11.5 -41q-2 -7 -4 -15.5
t-9 -43.5q-1 -6 1.5 -9t8.5 -3h37.5h37.5q6 0 8.5 2.5t4.5 8.5q6 26 9 38.5t5 23.5q6 29 7.5 39t2.5 18q4 27 16.5 38.5t37.5 11.5q24 0 32.5 -13.5t0.5 -38.5q-4 -11 -7.5 -24t-8.5 -33q-2 -11 -5 -23t-9 -37q-1 -5 0 -7.5t6 -2.5h35t18 1q25 2 34.5 -7.5t4.5 -30.5
q-4 -19 -16 -27.5t-37 -8.5h-11t-18 1h-16h-9q-5 0 -7.5 -1.5t-5.5 -9.5q-8 -21 -14 -46t-10 -52q-1 -6 0.5 -8t6.5 -2q8 0 18.5 0.5t36.5 1.5q26 2 35.5 -8.5t3.5 -32.5q-5 -17 -17 -25t-36 -8h-12.5t-19.5 1h-16.5h-9.5q-6 0 -9 -2t-4 -8q-3 -13 -8 -35.5t-6 -26.5l-9 -42
t-6 -26q-4 -21 -15 -30t-32 -9q-22 0 -30 10.5t-2 32.5q1 6 3 12.5l6 19.5q3 12 5 18.5t3 12.5q3 10 5.5 22t8.5 43q1 5 -0.5 7t-5.5 2h-42.5h-43.5q-6 0 -8.5 -2.5t-3.5 -7.5q-2 -11 -5 -24.5l-9 -40.5q-1 -6 -2.5 -12.5t-4.5 -20.5t-4.5 -20.5t-2.5 -12.5zM236 300
q-1 -6 0.5 -8.5t8.5 -2.5h40.5h40.5q6 0 9 2.5t4 7.5q10 43 16 68t8 32q1 6 -1 8.5t-9 2.5h-38.5h-38.5q-8 0 -10.5 -2t-4.5 -9q-5 -16 -11 -39t-14 -60z" />
    <glyph glyph-name="dollar" unicode="$" horiz-adv-x="543" 
d="M295 -82q0 -18 -9 -28.5t-26 -10.5q-18 0 -27.5 10t-9.5 29v20t1 39q1 28 1 40.5v21.5q0 5 -2 7.5t-7 3.5q-12 3 -22.5 7.5t-23.5 10.5q-11 6 -18.5 8.5t-12.5 2.5q-8 0 -11.5 -5.5t-4.5 -18.5q-1 -14 -10.5 -21.5t-24.5 -7.5q-13 0 -22 10t-8 24q3 35 3 49v31
q0 13 -1 26.5t-4 36.5q-1 13 -1.5 18.5t-0.5 9.5q-1 16 9 26t26 10t25.5 -9t10.5 -25q2 -24 11 -44t28 -39q21 -23 55.5 -35.5t74.5 -12.5q58 0 89.5 28t31.5 79q0 48 -34 74.5t-119 45.5l-35 8q-90 20 -130.5 60t-40.5 111q0 67 43 112t115 54q6 1 8.5 4t2.5 10v20t-1 37
q-1 23 -1 33v17q0 19 9.5 29t27.5 10q17 0 26 -10.5t9 -28.5v-15v-30q-1 -26 -1 -39v-24q0 -7 2.5 -10t7.5 -4q17 -3 32.5 -7t29.5 -11q9 -4 14 -5.5t9 -1.5q9 0 12.5 3.5t4.5 13.5q2 13 11.5 21t21.5 8q14 0 23 -10t9 -26v-9t-1 -15q-2 -20 -2 -33.5v-28.5q0 -9 1 -19.5
t3 -28.5q1 -12 1.5 -17.5t0.5 -10.5q1 -16 -8.5 -26t-24.5 -10q-14 0 -23.5 9.5t-10.5 25.5q-1 25 -10 47t-25 37q-22 20 -47 29t-62 9q-58 0 -93 -27.5t-35 -72.5t29 -69.5t96 -40.5l34 -8q110 -26 155.5 -67.5t45.5 -116.5q0 -73 -48.5 -120.5t-135.5 -53.5
q-10 -1 -13.5 -4t-3.5 -11v-25.5t1 -39.5v-28.5v-14.5z" />
    <glyph glyph-name="percent" unicode="%" horiz-adv-x="722" 
d="M164 18q-12 -18 -29 -23t-32 5q-13 10 -13 25t13 32q62 80 149 202.5t95 133.5q47 65 92.5 132t105.5 160q14 23 32 30.5t35 -1.5q18 -10 18.5 -28t-16.5 -40q-77 -102 -123.5 -165t-93.5 -130q-80 -112 -131 -185.5t-102 -147.5zM318 547q0 -89 -40 -140t-111 -51
q-64 0 -105.5 52t-41.5 130q0 81 43.5 136.5t108.5 55.5q68 0 107 -49t39 -134zM170 418q32 0 49.5 34.5t17.5 99.5v2q0 57 -16.5 86.5t-47.5 29.5t-49.5 -35t-18.5 -96v-3q0 -59 16 -88.5t49 -29.5zM702 181q0 -88 -40.5 -139.5t-110.5 -51.5q-65 0 -106 51.5t-41 130.5
q0 81 43.5 136.5t108.5 55.5q67 0 106.5 -49.5t39.5 -133.5zM554 52q32 0 50 34.5t18 98.5v2q0 57 -17 87t-48 30t-49.5 -34.5t-18.5 -96.5v-3q0 -59 16 -88.5t49 -29.5z" />
    <glyph glyph-name="ampersand" unicode="&#x26;" horiz-adv-x="796" 
d="M452 93q-40 -54 -89 -78.5t-113 -24.5q-92 0 -146 49.5t-54 130.5q0 78 43 131.5t136 93.5q6 2 7 6.5t-3 10.5q-26 45 -35.5 75.5t-9.5 62.5q0 81 50.5 129t135.5 48q72 0 116 -41.5t44 -107.5q0 -62 -38 -108t-134 -94q-5 -2 -6 -5.5t2 -8.5q18 -30 40.5 -61.5
t53.5 -70.5q3 -4 5.5 -4t4.5 4q40 66 65.5 103.5t45.5 59.5q27 29 51 41.5t53 12.5q28 0 45 -15t17 -41q0 -21 -12.5 -35t-31.5 -14q-5 0 -10 1t-13 4q-9 3 -13.5 4t-8.5 1q-17 0 -32 -12t-33 -38q-13 -19 -32.5 -51.5t-43.5 -74.5q-4 -6 -3.5 -9.5t3.5 -8.5
q24 -33 35 -46.5t20 -21.5q16 -16 31.5 -22.5t34.5 -6.5q20 0 33 7.5t22 26.5q5 9 12.5 14t16.5 5q15 0 24.5 -11.5t6.5 -28.5q-5 -35 -37.5 -59.5t-82.5 -24.5q-45 0 -82.5 23.5t-79.5 79.5q-2 3 -5.5 3t-5.5 -3zM135 177q0 -54 33.5 -85t91.5 -31q40 0 73.5 19.5
t72.5 66.5q3 4 3 7.5t-4 9.5q-12 18 -26.5 39t-33.5 49q-15 21 -30.5 42t-32.5 42q-4 4 -8 4.5t-11 -2.5q-70 -35 -99 -72t-29 -89zM307 441q4 -6 9.5 -8t11.5 1q75 34 102.5 63.5t27.5 76.5q0 42 -23 66t-62 24q-45 0 -72 -30t-27 -80q0 -32 7.5 -58.5t25.5 -54.5z" />
    <glyph glyph-name="quotesingle" unicode="'" horiz-adv-x="254" 
d="M134 478q-7 -23 -19 -33t-33 -10q-20 0 -27.5 14t0.5 36q12 36 31 102.5t31 111.5q7 27 18.5 37.5t33.5 10.5q25 0 32.5 -15t-2.5 -43q-3 -8 -19.5 -60.5t-45.5 -150.5z" />
    <glyph glyph-name="parenleft" unicode="(" horiz-adv-x="453" 
d="M413 -243q0 -16 -11 -26t-29 -10q-14 0 -28 7t-58 47q-88 79 -138.5 202.5t-50.5 264.5t50.5 264.5t138.5 202.5q46 42 59.5 48.5t27.5 6.5q16 0 27 -10.5t11 -26.5q0 -25 -31 -48.5t-40 -31.5q-79 -72 -118.5 -172t-39.5 -227q0 -118 36.5 -216t120.5 -195
q7 -8 15.5 -15t23.5 -19q22 -15 28 -24.5t6 -21.5z" />
    <glyph glyph-name="parenright" unicode=")" horiz-adv-x="453" 
d="M40 728q0 16 11 26t29 10q14 0 28 -7t58 -47q88 -79 138.5 -202.5t50.5 -264.5t-50.5 -264.5t-138.5 -202.5q-46 -42 -59.5 -48.5t-27.5 -6.5q-16 0 -27 10.5t-11 26.5q0 25 31 48.5t40 31.5q79 72 118.5 172t39.5 227q0 118 -36.5 216t-120.5 195q-7 8 -15.5 15
t-23.5 19q-22 15 -28 24.5t-6 21.5z" />
    <glyph glyph-name="asterisk" unicode="*" horiz-adv-x="437" 
d="M258 297q0 -22 -9.5 -31.5t-30.5 -9.5t-30.5 10t-9.5 31q0 13 2 31.5t9 56.5q5 30 6.5 41t0.5 15q-1 3 -2 4.5t-2 2.5q-2 1 -4 1t-4 -1q-3 -2 -9.5 -7t-25.5 -21q-29 -26 -44.5 -38t-27.5 -19q-21 -12 -35 -9t-25 20q-10 17 -5 31.5t25 26.5q12 7 30 14.5t54 20.5
q23 9 31 12.5t12 5.5q2 1 3 2.5t1 3.5t-1 4t-3 3q-3 2 -10.5 5t-29.5 10q-39 14 -57.5 21.5t-30.5 14.5q-20 11 -25 26t5 32t24.5 20t35.5 -9q11 -7 26 -18t44 -36q21 -17 29 -23t12 -8q2 -1 4.5 -1t3.5 1q2 1 2.5 2.5t0.5 3.5q0 4 -1 11.5t-6 29.5q-8 42 -10.5 63.5
t-2.5 36.5q0 21 10 31.5t30 10.5t30 -10t10 -32q0 -15 -2.5 -36.5t-10.5 -63.5q-5 -22 -6 -29.5t-1 -11.5q0 -2 1 -3.5t3 -2.5t4 -1t3 1q4 2 12.5 8t30.5 25q28 24 42.5 35t25.5 17q21 12 35.5 9t24.5 -20t5 -32t-25 -26q-12 -7 -29.5 -14.5t-55.5 -19.5q-23 -8 -31 -11.5
t-12 -5.5q-2 -1 -3 -3t-1 -4q0 -1 1 -2.5t3 -3.5q4 -3 13 -6.5t34 -13.5q35 -12 51.5 -19.5t28.5 -13.5q20 -11 25.5 -26t-5.5 -32q-10 -17 -24.5 -20t-35.5 9q-12 7 -27 18.5t-43 36.5q-19 17 -26 22.5t-11 7.5q-2 1 -4 1t-4 -1t-3 -3t-1 -4q-1 -4 0.5 -15t6.5 -41
q7 -38 9 -56.5t2 -31.5z" />
    <glyph glyph-name="plus" unicode="+" horiz-adv-x="501" 
d="M293 238q1 -25 -9.5 -37.5t-33.5 -12.5q-20 0 -30.5 12.5t-9.5 36.5q1 11 0.5 35t-0.5 31t-3 10.5t-10 3.5h-19.5t-24.5 -1h-14.5h-8.5q-26 0 -38 10.5t-12 32.5q0 20 12.5 30.5t36.5 9.5q14 -1 30.5 -1t34.5 1q8 0 11.5 3t3.5 11v46t-1 22q-1 24 10 36t32 12
q20 0 31 -12t10 -34q-1 -12 -0.5 -36t0.5 -32t3.5 -11.5t10.5 -3.5h45.5t22.5 1q23 1 35.5 -9.5t12.5 -32.5q0 -20 -12.5 -31t-35.5 -10q-11 1 -34.5 0.5t-30.5 -0.5q-8 0 -12 -4t-4 -12v-42t1 -22z" />
    <glyph glyph-name="comma" unicode="," horiz-adv-x="263" 
d="M213 32q0 -56 -31 -100t-88 -68q-13 -5 -23 -2t-15 14q-5 10 -1 18.5t16 14.5q39 18 54.5 37t15.5 48q0 6 -1.5 8t-5.5 2h-2.5t-4.5 -1q-7 0 -11 -0.5t-9 -0.5q-26 0 -41.5 15.5t-15.5 42.5q0 33 23.5 54t58.5 21q38 0 59.5 -27.5t21.5 -75.5z" />
    <glyph glyph-name="hyphen" unicode="-" horiz-adv-x="331" 
d="M168 308q49 1 65.5 2t28.5 1q19 1 29 -10t10 -32q0 -20 -9.5 -31t-27.5 -10q-17 1 -52.5 0.5t-45.5 -0.5q-24 0 -48.5 -0.5t-46.5 -1.5q-21 -1 -31 10t-10 33q0 19 10.5 30t29.5 10q14 -1 33.5 -1h64.5z" />
    <glyph glyph-name="period" unicode="." horiz-adv-x="323" 
d="M235 71q0 -34 -24 -57.5t-58 -23.5q-30 0 -47.5 16.5t-17.5 44.5q0 33 24.5 58t57.5 25q28 0 46.5 -17.5t18.5 -45.5z" />
    <glyph glyph-name="slash" unicode="/" horiz-adv-x="424" 
d="M401 788q26 0 32 -19.5t-10 -53.5q-5 -10 -63 -150t-119 -290q-23 -57 -50.5 -124t-74.5 -179q-29 -71 -37.5 -91.5t-9.5 -24.5q-8 -23 -18.5 -33t-26.5 -10q-26 0 -32.5 19t7.5 49q16 34 54.5 126t118.5 291q23 58 50 125t72 181q34 83 43.5 106.5t10.5 27.5
q10 27 22 38.5t31 11.5z" />
    <glyph glyph-name="zero" unicode="0" horiz-adv-x="716" 
d="M666 367q0 -168 -85 -272.5t-229 -104.5q-138 0 -220 99t-82 259q0 163 88.5 271t226.5 108q134 0 217.5 -102t83.5 -258zM362 69q99 0 154 75t55 211v16q0 134 -55.5 207.5t-153.5 73.5q-97 0 -158.5 -76.5t-61.5 -204.5v-16q0 -139 57 -212.5t163 -73.5z" />
    <glyph glyph-name="one" unicode="1" horiz-adv-x="478" 
d="M368 2q-40 1 -67.5 1.5t-56.5 0.5q-27 0 -52 -0.5t-60 -2.5q-19 -1 -26.5 -1h-14.5q-15 0 -24 11t-9 28q0 14 9 23.5t24 9.5h12.5t24.5 -1q24 -1 36.5 -1.5t22.5 -0.5q12 0 17 5t6 17q3 25 4 66.5t1 197.5q0 145 -1 187.5t-3 62.5q-1 13 -10 18t-23 0q-6 -2 -27.5 -12.5
t-58.5 -28.5q-23 -11 -41.5 0.5t-18.5 33.5q0 16 7 25t25 15q11 4 31.5 11t45.5 17q24 9 46 18t39 17q34 16 54 4t18 -48q-1 -27 -1.5 -42.5t-1.5 -30.5q-1 -28 -1.5 -72.5t-0.5 -174.5q0 -116 1 -174t3 -89q1 -12 6.5 -17t19.5 -5q8 0 17 0.5t27 0.5l28.5 1.5t17.5 0.5
q15 0 24 -10t9 -25q0 -16 -9 -26.5t-24 -10.5h-16t-29 1z" />
    <glyph glyph-name="two" unicode="2" horiz-adv-x="594" 
d="M143 20q-8 -13 -17 -17.5t-25 -4.5q-25 0 -36 17.5t-11 56.5q0 88 45.5 152t150.5 116q81 40 97 49.5t29 18.5q36 26 53 54.5t17 62.5q0 64 -38 101t-104 37q-50 0 -86 -18t-57 -53q-5 -8 -9 -18.5t-13 -50.5q-6 -25 -17 -35t-31 -10t-30.5 12.5t-9.5 35.5q3 86 72 143.5
t182 57.5q102 0 163 -55t61 -145q0 -48 -19 -87t-57 -71q-18 -15 -41 -28.5t-117 -57.5q-81 -38 -122.5 -84t-41.5 -99q0 -4 1.5 -6t4.5 -2q2 0 5.5 3t8.5 8q12 13 29 19t40 6q18 0 38 -5t59 -20q38 -16 57 -20.5t36 -4.5q36 0 50.5 19.5t12.5 64.5q-1 25 9.5 37.5
t30.5 12.5q22 0 36 -17t14 -45q0 -71 -37.5 -111t-103.5 -40q-23 0 -48 5.5t-72 23.5q-41 16 -60.5 20.5t-36.5 4.5q-22 0 -37 -8t-25 -25z" />
    <glyph glyph-name="three" unicode="3" horiz-adv-x="606" 
d="M540 208q0 -101 -64.5 -159.5t-179.5 -58.5q-111 0 -178.5 57t-67.5 140q0 24 10.5 37t29.5 13q16 0 26 -10t23 -47q12 -31 21 -47.5t20 -29.5q21 -23 51 -34.5t72 -11.5q72 0 111 37t39 106t-50.5 110t-147.5 50q-15 1 -23 8.5t-8 20.5q0 9 4 16.5t14 18.5
q11 11 24.5 25t42.5 43q52 49 75 74t39 46q11 15 7.5 24.5t-21.5 10.5q-41 2 -109 1.5t-115 -3.5q-15 -1 -21 -6t-10 -20q-6 -21 -9.5 -41.5t-6.5 -45.5q-2 -16 -12 -25t-25 -9q-22 0 -33 14t-6 36q7 29 13.5 67t8.5 65q2 22 12 32.5t29 10.5q3 0 7 -0.5t14 -1.5
q18 -2 30 -3t24 -1q51 0 138 1t154 3q31 1 47.5 -11t16.5 -35q0 -14 -5 -26.5t-23 -35.5q-14 -17 -32.5 -37.5t-59.5 -61.5q-38 -39 -55.5 -57.5t-29.5 -34.5q-5 -6 -4 -10.5t8 -6.5q92 -23 138.5 -72.5t46.5 -124.5z" />
    <glyph glyph-name="four" unicode="4" horiz-adv-x="656" 
d="M317 1q-15 -1 -22 -1h-12q-16 0 -25.5 10t-9.5 25q0 16 9.5 26.5t25.5 10.5q7 0 14.5 -0.5t21.5 -0.5q15 -1 23 -1.5t15 -0.5q12 0 17 5t6 17q3 35 4 52t1 35q0 10 -4.5 14.5t-14.5 4.5q-24 0 -52 0.5t-83 0.5q-72 1 -104.5 1.5t-57.5 -0.5q-29 -1 -44.5 11.5t-15.5 35.5
q0 10 5 22t17 28q20 28 60 79.5t83 104.5q58 71 98.5 119t59.5 67q33 33 56 47t44 14q23 0 34 -15t9 -47q-1 -16 -1.5 -36.5t-1.5 -47.5q-3 -71 -4.5 -161t-1.5 -135q0 -9 4 -13t13 -4h50.5t26.5 1q22 1 34 -9t12 -29t-11.5 -29t-34.5 -9q-6 0 -33 1.5t-42 1.5
q-10 0 -14 -4.5t-4 -14.5q0 -12 0.5 -24t2.5 -61q1 -12 6.5 -17t19.5 -5q5 0 11 0.5t18 0.5l19.5 1.5t11.5 0.5q15 0 24 -10.5t9 -27.5q0 -14 -9.5 -24t-23.5 -10h-13t-24 1q-33 1 -56 1.5t-47 0.5q-25 0 -47 -0.5t-52 -2.5zM118 292q-7 -12 -3.5 -19t16.5 -8q40 -2 124 -1
t108 1q11 0 16.5 5t5.5 15v52.5t1 91.5q1 63 1 94.5v56.5q0 15 -12 18.5t-23 -7.5q-17 -17 -46.5 -52t-71.5 -88q-41 -52 -72.5 -95t-43.5 -64z" />
    <glyph glyph-name="five" unicode="5" horiz-adv-x="585" 
d="M527 216q0 -106 -61.5 -166t-172.5 -60q-47 0 -87 10t-72 30q-39 25 -61.5 61.5t-22.5 73.5q0 23 11.5 36t31.5 13q18 0 28.5 -11t18.5 -41q14 -50 55.5 -76.5t106.5 -26.5q67 0 103 37.5t36 107.5q0 58 -32.5 97.5t-95.5 57.5q-42 12 -97.5 22.5t-96.5 13.5
q-23 1 -30.5 13t-1.5 38q4 18 11 53t14 77q4 26 8.5 53.5t7.5 49.5q4 24 13.5 33.5t30.5 9.5h17.5t32.5 -1q44 -1 73.5 -1.5t60.5 -0.5q19 0 38.5 0.5t49.5 1.5q19 1 27.5 1h15.5q23 0 35.5 -12t12.5 -34v-1.5v-1.5q0 -21 -15.5 -34t-39.5 -12q-57 4 -136.5 6.5t-122.5 2.5
q-14 0 -21 -5.5t-9 -17.5l-21 -123q-2 -13 1 -18t15 -7q50 -7 89 -14.5t63 -14.5q92 -28 140.5 -84.5t48.5 -135.5z" />
    <glyph glyph-name="six" unicode="6" horiz-adv-x="597" 
d="M547 222q0 -106 -61 -169t-169 -63q-130 0 -198.5 91.5t-68.5 267.5q0 182 71.5 280t200.5 98q77 0 129 -36.5t72 -104.5q7 -24 -4.5 -41.5t-32.5 -17.5q-17 0 -28 9t-17 27q-17 55 -46 78t-79 23q-88 0 -136 -80t-48 -229q0 -5 3.5 -6t6.5 4q30 46 81.5 73t108.5 27
q100 0 157.5 -63t57.5 -168zM154 217q0 -75 45.5 -119.5t119.5 -44.5q66 0 103.5 43.5t37.5 118.5q0 79 -37 122.5t-103 43.5q-72 0 -119 -46.5t-47 -117.5z" />
    <glyph glyph-name="seven" unicode="7" horiz-adv-x="592" 
d="M267 41q0 -24 -12 -37.5t-33 -13.5q-22 0 -34 14t-12 39q0 80 23 156.5t69 150.5q37 60 74 113.5t90 122.5q12 15 15.5 22.5t3.5 14.5q0 9 -7 14t-21 6q-40 2 -129 1.5t-137 -2.5q-16 -1 -22.5 -6.5t-10.5 -19.5q-3 -14 -6 -32.5t-8 -54.5q-2 -17 -12.5 -26t-26.5 -9
q-22 0 -33 13.5t-5 35.5q8 29 14.5 69t8.5 69q2 22 12 32.5t29 10.5q3 0 8 -0.5t17 -1.5q15 -2 23.5 -3t16.5 -1q39 -1 165.5 0.5t167.5 3.5q33 1 50.5 -11t17.5 -35q0 -20 -9.5 -38.5t-36.5 -52.5q-49 -62 -92 -123t-95 -144q-34 -54 -48.5 -113t-14.5 -164z" />
    <glyph glyph-name="eight" unicode="8" horiz-adv-x="575" 
d="M540 200q0 -101 -64.5 -155.5t-186.5 -54.5q-123 0 -188.5 50t-65.5 143q0 62 35 110.5t97 72.5q6 2 6 6t-6 6q-50 23 -75.5 63.5t-25.5 96.5q0 83 62.5 136t158.5 53q101 0 160.5 -50.5t59.5 -134.5q0 -54 -27 -97t-74 -61q-4 -1 -4 -4.5t4 -5.5q65 -24 99.5 -68.5
t34.5 -105.5zM123 192q0 -66 44 -102t125 -36q79 0 120 32.5t41 95.5q0 42 -18 73t-54 51q-18 11 -41 19t-50 13q-62 13 -114.5 -31.5t-52.5 -114.5zM215 437q15 -8 34 -14.5t42 -11.5q52 -12 93 25t41 98q0 62 -37.5 96.5t-104.5 34.5q-60 0 -97 -32.5t-37 -87.5
q0 -39 16 -64.5t50 -43.5z" />
    <glyph glyph-name="nine" unicode="9" horiz-adv-x="597" 
d="M547 380q0 -192 -69.5 -291t-201.5 -99q-84 0 -138.5 36t-72.5 104q-6 24 6.5 41t33.5 17q16 0 26.5 -8.5t15.5 -25.5q16 -51 47 -73.5t85 -22.5q89 0 137.5 84t48.5 240q0 5 -4 6t-6 -4q-23 -47 -71.5 -73.5t-108.5 -26.5q-105 0 -165 58.5t-60 157.5q0 104 64 165.5
t176 61.5q122 0 189.5 -90t67.5 -257zM137 507q0 -72 39.5 -111.5t110.5 -39.5q66 0 109.5 42t43.5 107q0 73 -41.5 116t-110.5 43q-71 0 -111 -42t-40 -115z" />
    <glyph glyph-name="colon" unicode=":" horiz-adv-x="323" 
d="M235 71q0 -34 -24 -57.5t-58 -23.5q-30 0 -47.5 16.5t-17.5 44.5q0 33 24.5 58t57.5 25q28 0 46.5 -17.5t18.5 -45.5zM235 499q0 -34 -24 -57.5t-58 -23.5q-30 0 -47.5 16.5t-17.5 44.5q0 33 24.5 58t57.5 25q28 0 46.5 -17.5t18.5 -45.5z" />
    <glyph glyph-name="semicolon" unicode=";" horiz-adv-x="339" 
d="M251 499q0 -34 -24 -57.5t-58 -23.5q-30 0 -47.5 16.5t-17.5 44.5q0 33 24.5 58t57.5 25q28 0 46.5 -17.5t18.5 -45.5zM251 33q0 -56 -31 -100t-88 -68q-13 -5 -23 -2t-15 14q-5 10 -1 18.5t16 14.5q39 18 54.5 37t15.5 48q0 6 -1.5 8t-5.5 2h-2.5t-4.5 -1q-7 0 -11 -0.5
t-9 -0.5q-26 0 -41.5 15.5t-15.5 42.5q0 33 23.5 54t58.5 21q38 0 59.5 -27.5t21.5 -75.5z" />
    <glyph glyph-name="less" unicode="&#x3c;" horiz-adv-x="606" 
d="M523 170q-7 -20 -26 -26t-43 3l-27.5 11t-63.5 25q-95 37 -139.5 54t-69.5 26q-40 14 -57 32.5t-17 45.5q0 26 17 44t57 33q21 8 52.5 19.5t100.5 37.5q73 28 102 38.5t44 16.5q24 9 41.5 2.5t23.5 -27.5q5 -21 -4 -36.5t-31 -21.5q-108 -31 -178.5 -54.5t-111.5 -39.5
q-10 -4 -12.5 -6.5t-2.5 -6.5t2.5 -6.5t13.5 -6.5q61 -22 153 -52t136 -42q27 -7 37.5 -23.5t2.5 -39.5z" />
    <glyph glyph-name="equal" unicode="=" horiz-adv-x="561" 
d="M80 199zM349 203q-31 0 -66 -0.5t-162 -2.5q-21 -1 -31 8.5t-10 29.5q0 18 10.5 28t29.5 9q32 -1 77.5 -1h151.5q31 0 65.5 0.5t153.5 2.5q19 1 29 -9t10 -28t-10 -28.5t-27 -9.5q-36 1 -126.5 1h-94.5zM349 403q-31 0 -66 -0.5t-162 -2.5q-21 -1 -31 8.5t-10 29.5
q0 18 10.5 28t29.5 9q32 -1 77.5 -1h151.5q31 0 65.5 0.5t153.5 2.5q19 1 29 -9t10 -28t-10 -28.5t-27 -9.5q-36 1 -126.5 1h-94.5z" />
    <glyph glyph-name="greater" unicode="&#x3e;" horiz-adv-x="606" 
d="M84 170q7 -20 26 -26t43 3l27.5 11t63.5 25q95 37 139.5 54t69.5 26q40 14 57 32.5t17 45.5q0 26 -17 44t-57 33q-21 8 -52.5 19.5t-100.5 37.5q-73 28 -102 38.5t-44 16.5q-24 9 -41.5 2.5t-23.5 -27.5q-5 -21 4 -36.5t31 -21.5q108 -31 178.5 -54.5t111.5 -39.5
q10 -4 12.5 -6.5t2.5 -6.5t-2.5 -6.5t-13.5 -6.5q-61 -22 -153 -52t-136 -42q-27 -7 -37.5 -23.5t-2.5 -39.5z" />
    <glyph glyph-name="question" unicode="?" horiz-adv-x="541" 
d="M285 228q0 -9 -6.5 -14t-18.5 -5q-23 0 -38 16.5t-16 44.5q-1 35 16.5 62t75.5 65q68 43 89 78t21 81q0 64 -34 98.5t-96 34.5q-46 0 -78 -16.5t-51 -50.5q-4 -6 -10 -23.5t-14 -45.5q-9 -27 -19.5 -37.5t-27.5 -10.5q-18 0 -28 12t-10 34q0 84 67 143.5t174 59.5
q97 0 153.5 -54t56.5 -146q0 -36 -9 -66t-27 -55q-14 -19 -34.5 -36.5t-63.5 -44.5q-49 -30 -63 -48t-14 -39q0 -6 0.5 -11.5t2.5 -12.5l1.5 -7.5t0.5 -5.5zM322 64q0 -31 -21.5 -52.5t-52.5 -21.5q-27 0 -43 15t-16 41q0 30 22 52.5t52 22.5q26 0 42.5 -16t16.5 -41z" />
    <glyph glyph-name="at" unicode="@" horiz-adv-x="1012" 
d="M767 -80q-42 -43 -125.5 -69.5t-182.5 -26.5q-195 0 -302 101t-107 282q0 112 38.5 209t110.5 169q73 72 170 110.5t207 38.5q177 0 281.5 -90.5t104.5 -244.5q0 -161 -81.5 -260.5t-205.5 -97.5q-46 1 -74 16t-38 44q-3 8 -5.5 10t-7.5 2q-2 0 -5.5 -2t-12.5 -9
q-30 -25 -55 -34.5t-52 -9.5q-63 0 -98 41.5t-35 115.5q0 123 72 211.5t167 88.5q28 0 49.5 -10t43.5 -37q5 -7 7.5 -9.5t4.5 -2.5q3 0 5 2.5t4 7.5q8 24 17.5 34t25.5 10q14 0 23 -7.5t10 -19.5q1 -6 0 -13t-8 -26q-13 -35 -25 -75.5t-24 -84.5q-20 -75 -24 -95t-6 -38
q-2 -24 12.5 -36.5t42.5 -12.5q81 0 139 82t58 208q0 134 -83.5 206.5t-237.5 72.5q-87 0 -168.5 -34.5t-142.5 -97.5q-62 -63 -94.5 -144t-32.5 -171q0 -165 86.5 -250t254.5 -85q82 0 139.5 16t109.5 55q15 11 22 14t15 3q12 0 18.5 -7t6.5 -20q0 -9 -3 -16.5t-9 -13.5z
M366 228q0 -53 20.5 -79.5t61.5 -26.5q27 0 51.5 11.5t42.5 32.5q13 15 24.5 39.5t22.5 61.5q10 34 14.5 60.5t3.5 46.5q-2 38 -23.5 59.5t-55.5 21.5q-65 0 -113.5 -67.5t-48.5 -159.5z" />
    <glyph glyph-name="A" unicode="A" horiz-adv-x="830" 
d="M97 2q-19 -1 -27 -1.5t-15 -0.5q-20 0 -30 9t-10 26t11 27t29 10q5 0 10 -0.5l15 -1.5q8 -1 11.5 -1.5t6.5 -0.5q10 0 16.5 6t11.5 19q42 115 57 156.5t32 89.5q11 33 24 70t37 105q19 56 28 81t15 43q20 57 38.5 73t58.5 16q39 0 57.5 -15t38.5 -72q17 -48 52 -152
t47 -140q27 -80 52.5 -151t41.5 -111q3 -8 10.5 -12.5t17.5 -4.5h6.5h11.5q10 1 15.5 1h10.5q19 0 28.5 -8.5t9.5 -25.5t-8.5 -26.5t-24.5 -9.5q-9 0 -19 0.5t-32 0.5q-26 1 -40 1.5t-27 0.5t-27.5 -0.5t-41.5 -0.5q-29 -1 -44.5 -1.5t-29.5 -0.5q-19 0 -28.5 9t-9.5 26
q0 15 10.5 25.5t27.5 10.5h15.5t22.5 -1q10 -1 15 -1h9q17 0 22.5 10t-0.5 30q-7 26 -23.5 74t-20.5 61q-3 9 -9.5 13t-20.5 5q-12 1 -36 1h-85h-23h-34q-24 -1 -37.5 -1h-26.5q-14 0 -19.5 -4t-11.5 -19q-13 -37 -24 -71.5t-20 -64.5q-6 -19 0 -27t26 -8h11t18 1q14 1 22 1
h15q16 0 25 -9.5t9 -25.5q0 -17 -8.5 -26t-25.5 -9q-6 0 -14.5 0.5t-27.5 0.5q-32 2 -52 2.5t-40 0.5q-16 0 -32 -0.5t-43 -1.5zM300 365q-6 -17 -1 -25t22 -9q14 -1 31.5 -1h57.5h57.5t35.5 1q14 1 18.5 8t0.5 21q-25 79 -50 151.5t-45 126.5q-2 7 -6 10t-10 3q-7 0 -11 -3
t-6 -10q-14 -38 -32.5 -90.5t-61.5 -182.5z" />
    <glyph glyph-name="B" unicode="B" horiz-adv-x="689" 
d="M115 2l-28.5 -1.5t-18.5 -0.5q-19 0 -28.5 9t-9.5 26t9.5 27t26.5 10q6 0 12 -0.5t17 -1.5q9 0 13.5 -0.5t8.5 -0.5q12 0 17.5 6.5t6.5 21.5q1 30 2 136t1 117q1 103 0 167.5t-3 103.5q-1 16 -7 22t-20 6q-4 0 -8.5 -0.5t-13.5 -0.5l-13.5 -1.5t-8.5 -0.5
q-18 0 -28.5 10.5t-10.5 27.5q0 16 10.5 26t28.5 10h13.5t22.5 -1q28 -2 49 -2.5t45 -0.5q11 0 24.5 0.5t43.5 1.5q36 2 55.5 2.5t36.5 0.5q131 0 193.5 -42t62.5 -130q0 -54 -26 -92.5t-76 -59.5q-4 -1 -5.5 -3t-1.5 -4t1.5 -4t4.5 -3q67 -23 101.5 -68t34.5 -110
q0 -109 -78.5 -161.5t-233.5 -46.5q-19 1 -37.5 2t-50.5 2q-31 2 -44 2.5t-23 0.5q-14 0 -28 -0.5t-39 -1.5zM263 64q11 -1 30.5 -2t37.5 -1q126 0 176.5 31.5t50.5 109.5q0 76 -50.5 110.5t-162.5 34.5q-27 0 -46.5 -1t-31.5 -2q-23 -3 -32 -12t-10 -27q-2 -22 -2.5 -46
t-0.5 -57v-45.5v-45.5t9 -33.5t32 -13.5zM262 414q10 -1 19 -1h26q118 0 168 27.5t50 96.5q0 61 -41 89.5t-134 30.5q-33 0 -52.5 -0.5t-36.5 -1.5q-19 -1 -27.5 -8.5t-9.5 -26.5t-1.5 -42t-0.5 -54v-48.5t1 -25.5q1 -19 9.5 -27t29.5 -9z" />
    <glyph glyph-name="C" unicode="C" horiz-adv-x="728" 
d="M663 151q-40 -79 -109.5 -120t-166.5 -41q-155 0 -246 97t-91 265q0 176 91.5 275.5t247.5 99.5q44 0 81.5 -9.5t74.5 -30.5q4 -2 15.5 -8.5t16.5 -6.5q8 0 11 6.5t3 21.5q0 19 10 30t27 11q18 0 27.5 -11t8.5 -31q-3 -69 -3.5 -85t-0.5 -32q-1 -45 -0.5 -78t2.5 -58
q1 -17 -9 -28.5t-26 -11.5q-17 0 -28 11t-11 28q0 62 -20 107.5t-59 71.5q-23 16 -55 25t-65 9q-117 0 -184.5 -77.5t-67.5 -216.5q0 -136 68.5 -214.5t184.5 -78.5q80 0 128.5 26t86.5 88q5 9 13 14t17 5q14 0 23.5 -9t9.5 -23q0 -6 -1 -11t-4 -10z" />
    <glyph glyph-name="D" unicode="D" horiz-adv-x="796" 
d="M126 2q-24 -1 -34.5 -1.5t-18.5 -0.5q-21 0 -32 9t-11 26q0 16 11 26.5t30 10.5q6 0 11 -0.5t12 -1.5q6 0 10 -0.5t8 -0.5q15 0 21 5.5t7 18.5q2 42 3 108t1 148q0 87 -0.5 159.5t-1.5 101.5q-1 21 -8 30t-23 9h-6.5t-8.5 -1q-9 -1 -14.5 -1.5t-12.5 -0.5q-18 0 -28.5 10
t-10.5 27q0 16 11 26t29 10q12 0 24.5 -0.5t37.5 -0.5q26 -1 40 -1.5t28 -0.5q13 0 27.5 0.5t43.5 0.5q35 1 54.5 1.5t38.5 0.5q185 0 283.5 -90.5t98.5 -260.5q0 -179 -99 -274.5t-286 -95.5q-19 0 -38.5 0.5t-53.5 2.5q-30 2 -44.5 2.5t-28.5 0.5q-12 0 -26.5 -0.5z
M230 115q2 -29 24 -41t71 -12h13.5h12.5q156 0 230.5 71.5t74.5 219.5t-81.5 226t-235.5 78h-14h-14q-46 0 -62 -10.5t-18 -43.5q-2 -32 -3 -96.5t-1 -157.5q0 -95 0.5 -147.5t2.5 -86.5z" />
    <glyph glyph-name="E" unicode="E" 
d="M89 720q30 -2 56.5 -3t58.5 -1h112h112q36 0 67 1t67 3q12 1 16.5 1h7.5q20 0 30 -9.5t12 -31.5q3 -32 9.5 -70.5t12.5 -60.5q6 -21 -5.5 -35t-32.5 -14q-14 0 -24.5 9t-12.5 25q-4 32 -8 53.5t-8 36.5q-4 14 -10.5 19.5t-23.5 6.5q-39 2 -139 2t-128 -1q-16 -1 -22.5 -8
t-7.5 -24q-2 -29 -1.5 -97.5t2.5 -93.5q1 -17 7.5 -23t23.5 -8q18 -2 69.5 -1.5t69.5 2.5q7 1 11.5 6.5t4.5 12.5v10.5t-1 16.5q-1 13 -1 19.5v13.5q0 15 10.5 24.5t25.5 9.5t25 -9.5t9 -24.5q-2 -39 -1.5 -114.5t3.5 -111.5q1 -17 -8.5 -27.5t-25.5 -10.5q-17 0 -27.5 10
t-10.5 26v14t1 20q1 11 1 17v11q0 8 -4 13t-11 6q-16 1 -68.5 1.5t-71.5 -0.5q-17 -1 -23 -7.5t-7 -25.5q-2 -25 -2.5 -98t0.5 -103q1 -13 7.5 -19t22.5 -7q33 -2 137.5 -2t138.5 2q16 1 22.5 6t11.5 20q6 19 10.5 40.5t6.5 44.5q1 17 11 26.5t27 9.5q20 0 30.5 -15t4.5 -36
t-12.5 -60.5t-9.5 -72.5q-2 -22 -12 -31.5t-29 -9.5q-3 0 -7.5 0.5t-14.5 1.5q-19 3 -30.5 4t-22.5 1q-36 1 -144.5 2t-178.5 1q-21 0 -41.5 -0.5t-51.5 -1.5q-17 -1 -24.5 -1h-13.5q-17 0 -26.5 10t-9.5 27q0 16 9.5 25.5t25.5 9.5q5 0 10.5 -0.5t15.5 -0.5q11 -1 17 -1.5
t11 -0.5q12 0 17 5t6 17q2 33 3 89t1 177q0 109 -0.5 170t-2.5 90q-1 17 -8 25t-22 8h-7t-13 -1q-10 -1 -15.5 -1h-9.5q-18 0 -27.5 10t-9.5 28q0 16 10 25.5t27 9.5h7t14 -1z" />
    <glyph glyph-name="F" unicode="F" horiz-adv-x="664" 
d="M101 1q-17 0 -24.5 -0.5t-13.5 -0.5q-15 0 -24 10.5t-9 25.5t9 25.5t24 10.5q5 0 10.5 -0.5t15.5 -0.5q10 -1 15.5 -1.5t10.5 -0.5q12 0 17 5t6 17q4 30 5 82t1 184q0 86 -1 151t-4 109q-1 17 -8 25t-22 8h-7t-11 -1q-9 -1 -14 -1h-9q-18 0 -27.5 10t-9.5 28
q0 16 10 25.5t27 9.5h10.5t20.5 -1q45 -2 85.5 -3t89.5 -1h48.5h48.5q46 0 84.5 1t83.5 3q14 1 20 1h10q20 0 30.5 -9.5t12.5 -31.5q3 -32 9.5 -70.5t12.5 -60.5q6 -21 -5.5 -35t-32.5 -14q-15 0 -25.5 9t-11.5 25q-2 24 -6.5 48t-9.5 42q-4 14 -10.5 19.5t-23.5 6.5
q-36 2 -132 2t-123 -1q-16 -1 -22.5 -8t-7.5 -24q-1 -36 -0.5 -105.5t2.5 -92.5q1 -15 7.5 -21.5t20.5 -8.5q18 -2 77 -1.5t80 2.5q7 1 10.5 4.5t3.5 9.5v9t-1 16t-1 17.5v11.5q0 15 10 24.5t26 9.5q14 0 24 -9.5t9 -24.5q-2 -34 -1.5 -106t2.5 -108q1 -16 -9 -26.5
t-25 -10.5t-25.5 10t-10.5 26v14t1 20q1 12 1 18v11q0 7 -3 10t-10 4q-16 2 -75.5 2.5t-83.5 -0.5q-14 -1 -20 -8t-7 -24q-1 -37 -1.5 -105.5t0.5 -94.5q1 -12 6 -17t17 -5q10 0 22 0.5t37 1.5q24 0 36 0.5t22 0.5q15 0 24 -10t9 -25q0 -17 -9 -27.5t-24 -10.5
q-9 0 -19.5 0.5t-34.5 0.5q-41 2 -67 2.5t-53 0.5q-21 0 -41 -0.5t-49 -2.5z" />
    <glyph glyph-name="G" unicode="G" horiz-adv-x="769" 
d="M517 14q-33 -13 -64.5 -18.5t-66.5 -5.5q-157 0 -246.5 94.5t-89.5 263.5q0 178 91 278.5t248 100.5q49 0 92 -10.5t76 -29.5q16 -9 21 -11.5t10 -2.5q8 0 11 6.5t3 21.5q0 19 10 30t27 11t25.5 -10t8.5 -30v-14t-1 -27q-1 -28 -1 -44v-31q0 -32 0.5 -59.5t1.5 -50.5
q1 -18 -8.5 -28t-26.5 -10q-18 0 -27.5 9.5t-10.5 28.5q-7 90 -62 136.5t-156 45.5q-112 -1 -178 -80t-66 -217q0 -140 68 -218.5t186 -78.5q54 0 100.5 9.5t69.5 24.5q11 7 15.5 16.5t5.5 25.5q1 13 0 47t-2 56q-1 17 -8.5 24.5t-25.5 7.5h-21.5t-33.5 -1q-20 -1 -29.5 -1
h-17.5q-16 0 -26 10.5t-10 26.5t10 26.5t26 10.5h12.5t25.5 -1q45 -2 76.5 -3t64.5 -1q13 0 26 0.5t32 1.5q11 1 16 1h9q16 0 25 -10t9 -25q0 -17 -9.5 -27t-25.5 -10h-4.5t-7.5 1q-4 1 -6 1h-4q-9 0 -13 -4.5t-5 -16.5q-1 -27 0 -95t3 -123q1 -17 -6 -26.5t-21 -9.5
q-5 0 -10.5 2t-10.5 7l-4 4l-7 7q-5 4 -7 6l-4 4q-5 4 -9 6t-8 2q-10 0 -34 -10.5t-31 -13.5z" />
    <glyph glyph-name="H" unicode="H" horiz-adv-x="839" 
d="M96 1q-15 0 -21.5 -0.5t-11.5 -0.5q-15 0 -24 10t-9 27q0 15 9 25t24 10q5 0 10.5 -0.5t15.5 -0.5q11 -1 17 -1.5t11 -0.5q12 0 17 5t6 17q2 33 3 89t1 177q0 109 -0.5 169.5t-2.5 89.5q-1 17 -8 24.5t-22 7.5h-6t-11 -1q-11 -1 -17 -1h-11q-16 0 -25.5 10.5t-9.5 28.5
q0 15 9.5 25t25.5 10h11.5t21.5 -1q28 -2 45 -2.5t33 -0.5q14 0 28.5 0.5t40.5 1.5t40 1.5t27 0.5q17 0 26 -10t9 -28q0 -15 -10 -25.5t-25 -10.5q-4 0 -9.5 0.5t-16.5 0.5q-13 1 -20 1.5t-13 0.5q-14 0 -20 -7.5t-7 -25.5t-1.5 -38.5t-0.5 -43.5v-72.5t1 -29.5
q1 -18 8 -25.5t24 -9.5q12 -1 28 -1.5t81 -0.5h119q38 0 58.5 0.5t36.5 2.5q18 2 24.5 9.5t7.5 23.5q1 9 1 29.5v72.5q0 23 -0.5 44.5t-1.5 38.5q-1 16 -7.5 24t-20.5 8h-5t-11 -1q-12 0 -20.5 -0.5t-16.5 -0.5q-16 0 -26 10.5t-10 26.5q0 15 10 25.5t26 10.5q12 0 26 -0.5
l42 -1.5q29 -1 44 -1.5t28 -0.5q17 0 33 0.5t41 2.5q14 1 19.5 1h10.5q14 0 23.5 -10.5t9.5 -25.5q0 -17 -9 -27.5t-24 -10.5q-4 0 -9 0.5t-14 1.5q-10 0 -15 0.5t-9 0.5q-15 0 -22 -7.5t-8 -24.5q-2 -29 -2.5 -89.5t-0.5 -169.5q0 -121 1 -177t3 -89q1 -12 6 -17t18 -5
q5 0 11.5 0.5t18.5 1.5q10 0 14.5 0.5t8.5 0.5q15 0 24 -10.5t9 -25.5t-9 -25.5t-24 -10.5h-11.5t-21.5 1q-28 1 -46 1.5t-36 0.5q-13 0 -27.5 -0.5t-41.5 -1.5q-27 0 -40 -0.5t-24 -0.5q-15 0 -24 10t-9 27q0 15 10 25t26 10q4 0 9 -0.5t16 -0.5l18 -1.5t11 -0.5q14 0 20 5
t7 17q2 30 1 103.5t-3 92.5q-3 22 -9 29t-22 9q-13 1 -26.5 1.5t-66.5 0.5h-119q-62 0 -77 -0.5t-28 -1.5q-20 -2 -26.5 -9.5t-7.5 -28.5q-1 -18 -1 -91t1 -105q1 -13 7 -17.5t23 -4.5q5 0 11.5 0.5l19.5 1.5q11 0 16.5 0.5t10.5 0.5q15 0 23.5 -10t8.5 -26q0 -15 -10 -25.5
t-25 -10.5q-14 0 -28.5 0.5t-41.5 1.5t-41 1.5t-28 0.5q-17 0 -33.5 -0.5t-44.5 -2.5z" />
    <glyph glyph-name="I" unicode="I" horiz-adv-x="381" 
d="M283 2q-33 1 -55 1.5t-45 0.5q-20 0 -39.5 -0.5t-47.5 -2.5q-15 -1 -21 -1h-11q-15 0 -24 10.5t-9 25.5t9 25.5t24 10.5q5 0 11 -0.5t18 -0.5l18 -1.5t11 -0.5q12 0 17.5 5t6.5 17q2 18 3 47t1 217q0 92 -1 160.5t-3 102.5q-1 16 -8.5 23.5t-22.5 7.5h-5.5t-11.5 -1
q-13 0 -20 -0.5t-14 -0.5q-15 0 -24 10t-9 27q0 15 9 25t24 10h11.5t21.5 -1q29 -2 49 -2.5t42 -0.5q24 0 45.5 0.5t52.5 2.5q14 1 20 1h11q14 0 23 -10.5t9 -26.5q0 -15 -9 -25.5t-23 -10.5q-4 0 -9 0.5t-16 0.5q-12 1 -17.5 1.5t-10.5 0.5q-13 0 -19.5 -7t-8.5 -24
q-2 -25 -3 -86.5t-1 -176.5q0 -153 0.5 -196t2.5 -67q1 -12 7 -17t20 -5q4 0 9.5 0.5t17.5 0.5q13 1 18.5 1.5t10.5 0.5q15 0 24 -10.5t9 -27.5q0 -14 -9.5 -24t-23.5 -10h-12t-23 1z" />
    <glyph glyph-name="J" unicode="J" horiz-adv-x="619" 
d="M481 211q0 -103 -58.5 -162t-164.5 -59q-101 0 -156 50.5t-55 142.5q0 55 26.5 91.5t65.5 36.5q23 0 37 -12.5t14 -33.5q0 -13 -4.5 -23t-26.5 -31q-12 -11 -17.5 -24t-5.5 -29q0 -44 34 -70.5t93 -26.5q65 0 98 36.5t37 115.5q1 17 1.5 50t0.5 119v88q0 47 -0.5 81.5
t-1.5 65.5q-1 16 -9 23.5t-24 7.5h-7t-13 -1q-16 0 -24.5 -0.5t-16.5 -0.5q-15 0 -24 10.5t-9 25.5q0 16 9 26.5t24 10.5h12.5t22.5 -1q29 -2 50 -2.5t45 -0.5q25 0 48 0.5t54 2.5q15 1 21.5 1h11.5q14 0 23 -10.5t9 -26.5t-9 -26.5t-23 -10.5q-5 0 -10 0.5t-16 0.5
q-12 1 -18.5 1.5t-12.5 0.5q-14 0 -21 -7.5t-8 -23.5q-1 -31 -2 -69.5t-1 -74.5v-91v-46.5t1 -68.5v-37v-19z" />
    <glyph glyph-name="K" unicode="K" horiz-adv-x="753" 
d="M96 1q-15 0 -21.5 -0.5t-11.5 -0.5q-15 0 -24 10t-9 27q0 15 9 25t24 10q5 0 10.5 -0.5t16.5 -0.5l18 -1.5t11 -0.5q12 0 17 5t6 17q2 33 3 89t1 177q0 109 -0.5 169.5t-2.5 89.5q-1 17 -8 24.5t-22 7.5h-6.5t-11.5 -1q-11 -1 -17.5 -1h-11.5q-16 0 -25.5 10.5t-9.5 28.5
q0 15 9.5 25t25.5 10h11.5t22.5 -1q29 -2 46.5 -2.5t33.5 -0.5q26 0 49 0.5t54 1.5q14 1 20 1h11q16 0 24.5 -10t8.5 -27q0 -16 -9.5 -26t-24.5 -10q-4 0 -9.5 0.5t-16.5 0.5q-12 1 -18.5 1.5t-12.5 0.5q-13 0 -19 -7t-8 -24q-1 -12 -1.5 -34t-0.5 -49v-50v-59.5t1 -24.5
q1 -9 5 -14.5t10 -5.5q5 0 9 1.5t8 5.5q46 38 132 116t128 120q3 3 4.5 6t1.5 6q0 5 -3.5 8t-10.5 3h-9h-16q-12 -1 -18 -1h-11q-16 0 -25.5 10t-9.5 26q0 17 9.5 27t25.5 10q6 0 14.5 -0.5t26.5 -0.5q29 -2 47 -2.5t36 -0.5q17 0 34 0.5t44 2.5q16 0 23 0.5t13 0.5
q16 0 25.5 -10t9.5 -27q0 -18 -10 -28.5t-27 -10.5h-6.5t-9.5 1t-9 1h-5q-8 0 -15 -3t-14 -9q-49 -43 -118 -105t-103 -94q-8 -8 -11 -13t-3 -9q0 -5 1.5 -8.5t6.5 -11.5q30 -45 111.5 -156t113.5 -151q7 -8 13 -11t16 -3h6.5t10.5 1q8 1 12 1h7q16 0 25.5 -9.5t9.5 -25.5
q0 -17 -10.5 -27.5t-27.5 -10.5h-11.5t-22.5 1q-25 1 -40 1.5t-29 0.5q-24 0 -44.5 -0.5t-47.5 -1.5q-15 -1 -22 -1h-14q-17 0 -26.5 10t-9.5 26q0 15 10 25.5t26 10.5h10t13 -1q7 -1 11 -1h8q7 0 10.5 2.5t3.5 7.5q0 4 -2.5 9.5t-7.5 14.5q-13 21 -77.5 111.5t-94.5 128.5
q-4 5 -8 7.5t-8 2.5t-8.5 -2t-11.5 -7q-13 -9 -28 -22t-29 -27q-9 -9 -12 -18t-4 -32q-1 -43 -1 -86.5t2 -69.5q1 -12 6.5 -17t19.5 -5q4 0 9 0.5t15 0.5q11 1 16 1.5t10 0.5q14 0 23.5 -10t9.5 -24q0 -17 -9 -27t-24 -10h-12t-22 1q-31 2 -53 2.5t-45 0.5q-17 0 -33.5 -0.5
t-44.5 -2.5z" />
    <glyph glyph-name="L" unicode="L" horiz-adv-x="654" 
d="M606 47q1 -23 -11.5 -35t-38.5 -12h-13h-27q-33 1 -52 1h-36q-24 0 -54.5 0.5t-88.5 0.5q-56 1 -77 1h-32q-13 0 -26 -0.5t-34 -0.5q-24 -1 -33.5 -1h-16.5q-17 0 -26.5 10t-9.5 26t10.5 27t26.5 11q4 0 8.5 -0.5t13.5 -0.5l16.5 -1.5t11.5 -0.5q12 0 17 5t6 17
q2 33 3 88.5t1 174.5q0 108 -0.5 168.5t-2.5 89.5q-1 17 -8 24.5t-22 7.5h-7t-12 -1q-11 -1 -16 -1h-10q-17 0 -26.5 10.5t-9.5 28.5q0 16 10 26.5t26 10.5q4 0 10.5 -0.5t22.5 -1.5q32 -2 52 -2.5t38 -0.5q19 0 39.5 0.5t52.5 2.5q16 1 22.5 1.5t10.5 0.5q18 0 28 -10.5
t10 -28.5q0 -17 -10 -27.5t-28 -10.5h-12t-20 1q-11 1 -15.5 1h-7.5q-15 0 -22 -7.5t-8 -24.5q-2 -35 -3 -100.5t-1 -156.5v-70q0 -69 0.5 -113t2.5 -68q1 -19 8 -26.5t23 -8.5q10 -1 21.5 -1h40.5h59.5h59.5q14 0 28.5 0.5t28.5 1.5t20.5 6t7.5 16q1 10 1 21v38
q0 13 -0.5 28.5t-3.5 63.5q-1 22 11.5 34.5t33.5 12.5q18 0 29 -12t10 -32q-1 -17 -1 -38v-63v-70.5t1 -29.5z" />
    <glyph glyph-name="M" unicode="M" horiz-adv-x="1005" 
d="M96 1q-11 -1 -16.5 -1h-9.5q-19 0 -29.5 9t-10.5 25q0 17 10.5 27.5t27.5 10.5h9.5t11.5 -1q10 -1 16 -1.5t14 -0.5q12 0 17 4.5t6 16.5q2 47 3 109.5t1 157.5q0 108 -0.5 168.5t-2.5 89.5q-1 17 -8 25t-22 8h-7.5t-9.5 -1q-7 -1 -12.5 -1h-12.5q-18 0 -28 10t-10 27
t10 27t28 10q5 0 11.5 -0.5t19.5 -0.5q14 -1 21.5 -1.5t13.5 -0.5q13 0 27 0.5t53 1.5q31 1 46.5 -8t23.5 -31q31 -86 90.5 -232t123.5 -294q2 -5 7.5 -5t7.5 5q17 40 43 103.5t82 204.5q28 73 40.5 104.5t21.5 52.5q14 34 20 47.5t8 17.5q11 19 25.5 27t41.5 8
q6 0 13.5 -0.5t22.5 -0.5l22.5 -1.5t13.5 -0.5t13 0.5t22 1.5q15 0 22 0.5t13 0.5q14 0 23.5 -10.5t9.5 -25.5q0 -17 -9 -27.5t-24 -10.5q-4 0 -8.5 0.5t-12.5 1.5q-9 0 -13.5 0.5t-8.5 0.5q-15 0 -22 -7.5t-8 -24.5q-2 -29 -2.5 -89.5t-0.5 -169.5q0 -121 1 -177t3 -89
q1 -12 6 -17t18 -5q5 0 11 0.5t17 1.5q9 0 13.5 0.5t8.5 0.5q15 0 24 -10.5t9 -25.5t-9 -25.5t-24 -10.5h-11t-20 1q-31 1 -54.5 1.5t-48.5 0.5q-20 0 -40 -0.5t-50 -1.5q-15 -1 -21.5 -1h-10.5q-16 0 -26 10t-10 25t11.5 26t28.5 11q5 0 11 -0.5t19 -0.5l18 -1.5t11 -0.5
q16 0 23 5t8 17q2 42 3.5 113.5t1.5 155.5v87t-1 93v27.5v13.5t-3 9.5t-7 3.5q-5 0 -7.5 -2t-4.5 -7q-35 -82 -108.5 -260t-113.5 -278q-8 -19 -16 -25t-23 -6q-14 0 -22.5 6.5t-15.5 23.5q-47 116 -120.5 294.5t-104.5 249.5q-2 5 -5 8t-7 3q-5 0 -7 -3t-3 -11
q-1 -14 -1.5 -80.5t-0.5 -161.5q0 -148 0.5 -189t2.5 -67q1 -11 7.5 -16t21.5 -5q11 0 22 0.5t28 1.5q10 1 14.5 1h8.5q17 0 26.5 -9.5t9.5 -26.5t-9.5 -26t-26.5 -9q-9 0 -20 0.5t-35 1.5q-31 1 -49.5 1.5t-35.5 0.5q-22 0 -40.5 -0.5t-42.5 -2.5z" />
    <glyph glyph-name="N" unicode="N" horiz-adv-x="866" 
d="M269 2q-35 1 -54 1.5t-36 0.5q-21 0 -40 -0.5t-45 -2.5q-13 -1 -18.5 -1h-9.5q-16 0 -26 10t-10 25q0 16 10 26.5t26 10.5q5 0 10 -0.5t14 -0.5q9 -1 14 -1.5t10 -0.5q15 0 21 4.5t7 16.5q2 17 2.5 58t0.5 198q0 159 -0.5 201.5t-2.5 64.5q-1 21 -7.5 28.5t-23.5 7.5
h-5.5t-8.5 -1q-11 -1 -18 -1.5t-15 -0.5q-16 0 -26.5 10.5t-10.5 25.5q0 16 10 26.5t27 10.5h10.5t15.5 -1q12 -1 18.5 -1h12.5h11.5t21.5 1q22 1 34.5 1h23.5q31 0 46 -9.5t35 -41.5q52 -87 174.5 -290.5t166.5 -275.5q6 -9 9 -11.5t7 -2.5q5 0 7.5 3.5t2.5 9.5v7.5v18.5
q1 59 1.5 115t0.5 120q0 88 -1 151t-3 104q-1 18 -7.5 25.5t-21.5 7.5q-5 0 -11.5 -0.5t-21.5 -0.5l-25.5 -1.5t-15.5 -0.5q-17 0 -27 11t-10 28q0 14 10.5 24t26.5 10q15 0 31.5 -0.5t46.5 -1.5q28 0 42 -0.5t27 -0.5q14 0 27.5 0.5t36.5 1.5q17 1 25 1h15q15 0 24.5 -10
t9.5 -24q0 -17 -9.5 -28t-24.5 -11h-10t-14 1q-7 1 -10 1h-6q-15 0 -22 -7t-8 -24q-1 -30 -2 -84t-2 -162q0 -28 -0.5 -58t-0.5 -84q0 -65 -0.5 -93.5t-0.5 -50.5q-1 -48 -18.5 -69.5t-58.5 -21.5q-25 0 -46 13.5t-38 40.5q-25 41 -72.5 119.5t-149.5 249.5
q-55 92 -72.5 121.5t-22.5 37.5q-6 9 -12 14.5t-10 5.5q-5 0 -8 -5t-3 -11v-5.5v-14.5q-1 -52 -1.5 -103t-0.5 -111q0 -114 0.5 -173t2.5 -84q1 -11 8 -16t22 -5q11 0 22 0.5t30 1.5q13 1 18.5 1.5t9.5 0.5q15 0 24 -10t9 -25q0 -16 -9 -26.5t-24 -10.5q-10 0 -22 0.5
t-39 1.5z" />
    <glyph glyph-name="O" unicode="O" horiz-adv-x="817" 
d="M767 374q0 -177 -99 -280.5t-266 -103.5q-156 0 -254 99.5t-98 258.5q0 169 102 274t263 105q153 0 252.5 -99t99.5 -254zM141 373q-4 -141 70.5 -226.5t200.5 -85.5q118 0 191 81.5t73 216.5q0 140 -71.5 218.5t-199.5 78.5q-113 0 -187 -77t-77 -206z" />
    <glyph glyph-name="P" unicode="P" horiz-adv-x="664" 
d="M125 2q-25 -1 -38 -1.5t-25 -0.5q-14 0 -23 10.5t-9 25.5q0 14 9 25t22 11q8 0 15 -0.5t18 -1.5q9 -1 13.5 -1h9.5q12 0 17 5t6 17q2 33 3 89t1 177q0 109 -0.5 170t-2.5 90q-1 17 -8 24.5t-22 7.5q-4 0 -8 -0.5t-12 -0.5l-12 -1.5t-9 -0.5q-18 0 -28.5 10t-10.5 27
t10.5 27t28.5 10q19 0 36.5 -0.5t44.5 -1.5q17 -1 25 -1.5t15 -0.5q12 0 26.5 0.5t42.5 1.5q35 1 54 1.5t38 0.5q135 0 207.5 -56t72.5 -159q0 -127 -81.5 -187.5t-245.5 -57.5l-46 1q-20 1 -26.5 -4.5t-7.5 -23.5q-1 -28 -1 -60.5t1 -73.5q1 -16 9 -23t26 -7q9 0 19.5 0.5
t29.5 1.5q17 0 25 0.5t14 0.5q17 0 27 -9.5t10 -24.5q0 -17 -10 -27.5t-27 -10.5q-9 0 -20.5 0.5t-37.5 1.5q-37 1 -56.5 1.5t-36.5 0.5q-15 0 -30 -0.5t-42 -1.5zM265 325h62q114 0 165 39t51 130q0 82 -50 121.5t-154 39.5h-44t-26 -1q-24 -1 -32 -8.5t-9 -32.5
q-1 -26 -1.5 -54t-0.5 -71v-97t1 -35q1 -18 8.5 -24.5t29.5 -6.5z" />
    <glyph glyph-name="Q" unicode="Q" horiz-adv-x="817" 
d="M50 348q0 169 102 274t263 105q153 0 252.5 -99t99.5 -254q0 -115 -48 -202.5t-140 -142.5q-4 -2 -5.5 -5.5t-0.5 -7.5q11 -61 31.5 -90t53.5 -29q24 0 39.5 7.5t32.5 30.5q5 8 12.5 12t15.5 4q12 0 21 -9t9 -21q0 -6 -2 -12.5t-5 -11.5q-20 -32 -51.5 -49t-73.5 -17
q-62 0 -101 32.5t-56 100.5q-1 6 -2.5 12t-3.5 12q-1 5 -4 7.5t-8 1.5q-22 -4 -41.5 -5.5t-37.5 -1.5q-156 0 -254 99.5t-98 258.5zM455 153q-13 26 -31 38.5t-43 12.5q-31 0 -50.5 -19t-19.5 -51q0 -39 24 -58.5t73 -19.5q16 0 27 1t32 5q5 1 7 3.5t1 8.5q-4 26 -9 46.5
t-11 32.5zM676 359q0 140 -71.5 218.5t-199.5 78.5q-114 0 -187.5 -77.5t-76.5 -205.5q-2 -91 29 -161.5t90 -110.5q4 -3 7 0t1 7q-10 18 -12 41t6 44q14 39 47.5 60.5t81.5 21.5q69 0 107 -37t55 -124q1 -6 5 -8t8 2q54 45 82 109t28 142z" />
    <glyph glyph-name="R" unicode="R" horiz-adv-x="719" 
d="M702 42q0 -20 -17 -31.5t-49 -11.5q-51 0 -81.5 18.5t-47.5 58.5q-7 18 -13 38t-13 59q-9 46 -16.5 67.5t-19.5 39.5q-16 25 -45.5 36.5t-77.5 11.5h-21h-29t-16 -1q-14 -1 -20 -9.5t-7 -27.5q-2 -41 -2 -99.5t2 -96.5q1 -15 6.5 -20.5t22.5 -5.5q5 0 11 0.5t20 1.5
q13 0 19 0.5t10 0.5q16 0 25 -9.5t9 -25.5t-10 -26.5t-27 -10.5q-9 0 -20.5 0.5t-36.5 1.5q-33 2 -50.5 2.5t-32.5 0.5q-11 0 -22 -0.5t-31 -1.5q-21 -1 -34 -1.5t-26 -0.5q-14 0 -23 10.5t-9 25.5q0 14 9 25t22 11q9 0 16.5 -0.5t18.5 -1.5q9 -1 13.5 -1h9.5q12 0 17 5
t6 17q2 33 3 89t1 177q0 109 -0.5 170t-2.5 90q-1 17 -7.5 24t-22.5 7h-8.5t-13.5 -1t-13.5 -1h-9.5q-17 0 -27 10t-10 27q0 18 9.5 27.5t27.5 9.5q9 0 19 -0.5l30 -1.5q27 -1 42.5 -1.5t30.5 -0.5q12 0 26.5 0.5t46.5 1.5q40 2 62 2.5t42 0.5q129 0 191 -44.5t62 -137.5
q0 -63 -45 -110t-120 -66q-4 -1 -6 -3t-2 -5t2 -5t7 -3q25 -5 45 -17.5t32 -31.5q12 -18 19.5 -39t15.5 -63q6 -33 11 -50.5t12 -33.5q10 -21 26 -31.5t38 -10.5h4.5t6.5 1h5h4q12 0 19.5 -8t7.5 -21zM226 430q1 -17 7.5 -23.5t22.5 -8.5q5 -1 10 -1h15h57q91 0 141.5 34.5
t50.5 98.5q0 66 -44.5 96.5t-140.5 30.5q-29 0 -45.5 -0.5t-28.5 -1.5q-25 -3 -34 -11.5t-10 -29.5q-1 -13 -1.5 -26t-0.5 -31v-68v-39t1 -20z" />
    <glyph glyph-name="S" unicode="S" horiz-adv-x="606" 
d="M128 6q-1 -15 -12 -24t-28 -9q-15 0 -25 11.5t-8 27.5q3 31 4.5 54t1.5 37q0 15 -1 31.5t-4 43.5q-2 14 -2.5 20.5t-0.5 11.5q-1 18 10.5 29t28.5 11q19 0 29.5 -10.5t11.5 -29.5q1 -28 11 -51.5t32 -45.5q25 -27 65 -41.5t87 -14.5q69 0 106 33.5t37 94.5q0 56 -40 87.5
t-139 54.5l-39 9q-105 24 -151.5 69.5t-46.5 126.5q0 88 63 141.5t164 53.5q38 0 70 -6t62 -20q13 -5 17.5 -6.5t7.5 -1.5q10 0 14 4.5t5 15.5q2 15 12.5 24.5t24.5 9.5q16 0 26 -11t10 -29q0 -5 -0.5 -11t-0.5 -19q-2 -23 -2.5 -38.5t-0.5 -32.5q0 -12 0.5 -25t3.5 -35
q1 -13 1.5 -19t0.5 -11q1 -17 -10 -28t-27 -11t-27 11t-11 29q0 29 -10.5 55.5t-28.5 43.5q-25 24 -56.5 34.5t-83.5 10.5q-61 0 -100 -33.5t-39 -86.5t34 -82t113 -48l38 -9q128 -30 180 -77.5t52 -134.5q0 -91 -62.5 -145.5t-173.5 -54.5q-36 0 -73.5 8.5t-65.5 23.5
q-14 7 -21.5 10t-13.5 3q-10 0 -14 -6.5t-5 -22.5z" />
    <glyph glyph-name="T" unicode="T" horiz-adv-x="753" 
d="M256 1q-18 -1 -26 -1h-15q-15 0 -24 10.5t-9 26.5t9.5 26t24.5 10q5 0 11.5 -0.5l19.5 -1.5q21 -1 34 -1.5t26 -0.5q12 0 18 5t7 17q2 16 3 52.5t1 209.5v204t-1 62q-1 16 -7.5 23t-20.5 8q-8 1 -20.5 1h-54.5h-44t-29 -1t-23 -7t-11 -21q-4 -20 -8.5 -46t-7.5 -52
q-2 -16 -12.5 -25.5t-25.5 -9.5q-20 0 -32 13.5t-7 34.5q7 29 13.5 71t8.5 71q2 22 12 32.5t29 10.5h9t19 -1q17 -1 27.5 -1.5t20.5 -0.5q78 -1 124 -1.5t85 -0.5q38 0 82 0.5t122 1.5q10 0 20.5 0.5t27.5 1.5q14 1 19 1h9q19 0 29 -10.5t12 -32.5q2 -29 8.5 -71t13.5 -71
q5 -21 -7 -34.5t-33 -13.5q-15 0 -25.5 9t-11.5 25q-3 31 -7 56t-9 43q-4 15 -12 21.5t-23 7.5q-16 1 -30.5 1h-47.5h-47t-21 -1q-14 -2 -20.5 -9t-7.5 -23q-1 -21 -1 -62v-204q0 -134 0.5 -187t2.5 -74q1 -12 7.5 -17t20.5 -5q12 0 24 0.5t33 1.5q13 1 19 1h11q15 0 24 -10
t9 -25q0 -16 -9 -26.5t-24 -10.5h-15.5t-28.5 1q-40 1 -68 1.5t-58 0.5q-27 0 -51.5 -0.5t-60.5 -2.5z" />
    <glyph glyph-name="U" unicode="U" horiz-adv-x="790" 
d="M677 283q0 -143 -70.5 -220t-201.5 -77q-138 0 -209 76t-69 223q1 74 -1 175.5t-4 155.5q-1 17 -8 24.5t-22 7.5h-4.5t-8.5 -1q-9 0 -15 -0.5t-11 -0.5q-14 0 -23 10.5t-9 26.5t8.5 26.5t23.5 10.5q6 0 12.5 -0.5t19.5 -0.5q22 -2 38 -2.5t34 -0.5q14 0 28.5 0.5
l43.5 1.5q28 1 42.5 1.5t27.5 0.5q15 0 23.5 -10.5t8.5 -28.5q0 -15 -9 -25t-23 -10q-5 0 -11 0.5t-17 0.5l-18 1.5t-12 0.5q-14 0 -20.5 -7.5t-7.5 -25.5q-2 -39 -1.5 -140.5t2.5 -183.5q3 -121 50.5 -176t145.5 -55t145.5 55t47.5 170q0 106 -1 202.5t-2 128.5
q-1 17 -8 25t-23 8h-12t-19 -1q-12 -1 -18 -1h-11q-16 0 -25 9.5t-9 26.5q0 16 9 25.5t25 9.5q13 0 28 -0.5t43 -0.5q28 -1 43 -1.5t28 -0.5t26 0.5t32 1.5q12 1 17.5 1h9.5q15 0 24.5 -10t9.5 -25q0 -18 -9 -28t-25 -10h-7t-10 1q-7 1 -9.5 1h-5.5q-14 0 -20.5 -7.5
t-7.5 -24.5q-1 -16 -1 -51t1 -130q1 -64 1 -95.5v-56.5z" />
    <glyph glyph-name="V" unicode="V" horiz-adv-x="827" 
d="M506 70q-16 -44 -38 -62t-54 -18q-38 0 -59 16t-39 70q-7 20 -15.5 46.5t-28.5 83.5q-18 53 -27.5 81t-17.5 53q-39 114 -65 187t-38 104q-3 8 -10.5 12.5t-17.5 4.5h-6.5t-11.5 -1q-10 -1 -15 -1h-10q-18 0 -28 10.5t-10 26.5q0 17 10.5 27t27.5 10q9 0 18.5 -0.5
t30.5 -0.5q24 -1 37.5 -1.5t26.5 -0.5q14 0 30.5 0.5t48.5 1.5q30 0 44 0.5t25 0.5q17 0 27.5 -10.5t10.5 -25.5q0 -16 -10.5 -27t-27.5 -11q-8 0 -15.5 0.5t-21.5 1.5q-10 1 -15 1h-9q-17 0 -22.5 -10t0.5 -31q15 -52 34 -113.5t40 -124.5q24 -73 50 -147.5t50 -135.5
q5 -13 14.5 -13t14.5 13q28 74 57 156t55 157q18 54 36 109t33 105q6 19 0 27t-25 8q-5 0 -11 -0.5t-18 -0.5q-14 -1 -21.5 -1.5t-14.5 -0.5q-17 0 -27.5 10.5t-10.5 27.5q0 15 10.5 25.5t26.5 10.5h14.5t27.5 -1q32 -1 52 -1.5t40 -0.5q16 0 31.5 0.5t41.5 1.5q18 1 26 1
h15q19 0 29.5 -10.5t10.5 -28.5q0 -16 -10.5 -26t-27.5 -10q-6 0 -12 0.5t-16 0.5q-6 1 -8.5 1h-4.5q-12 0 -19.5 -6t-11.5 -17q-37 -108 -54 -156.5t-31 -89.5q-26 -75 -54.5 -154.5t-56.5 -153.5z" />
    <glyph glyph-name="W" unicode="W" horiz-adv-x="1191" 
d="M458 66q-15 -42 -34 -59t-50 -17q-42 0 -60.5 15.5t-32.5 60.5q-4 12 -9.5 31.5t-19.5 68.5q-19 69 -30 106.5t-20 69.5q-37 123 -56.5 186t-32.5 101q-3 10 -7.5 13.5t-12.5 3.5h-4.5t-9.5 -1q-10 -1 -15.5 -1h-9.5q-17 0 -27.5 11.5t-10.5 27.5t10.5 26.5t27.5 10.5
h15.5t28.5 -1q24 -1 36.5 -1.5t23.5 -0.5q12 0 26 0.5l42 1.5q25 0 37.5 0.5t22.5 0.5q18 0 29.5 -10.5t11.5 -25.5q0 -17 -11 -28.5t-30 -11.5q-7 0 -16 0.5t-25 0.5q-8 1 -11 1h-5q-12 0 -17 -7t-2 -19q7 -31 21 -82t49 -172q21 -74 45.5 -156.5t38.5 -125.5q4 -11 13 -11
t13 11q10 28 31.5 98t56.5 185q47 153 57 190t15 61q3 13 -2 20.5t-15 7.5h-6.5h-16.5q-12 -1 -17.5 -1h-7.5q-17 0 -27.5 11t-10.5 28q0 16 10.5 26.5t26.5 10.5q6 0 16 -0.5t36 -1.5q34 -1 49 -1.5t24 -0.5q12 0 28.5 0.5t51.5 1.5q24 1 33 1.5t14 0.5q18 0 28.5 -11
t10.5 -29q0 -15 -11 -25.5t-28 -10.5h-9.5t-18.5 1h-11h-4q-13 0 -18.5 -7.5t-2.5 -20.5q6 -25 18 -67.5t54 -185.5q37 -127 56 -192.5t27 -91.5q3 -10 13 -9.5t13 10.5q12 39 36 121.5t47 163.5q20 71 37.5 139t27.5 112q4 16 -2.5 23t-23.5 7h-7h-14q-13 -1 -19.5 -1
h-11.5q-17 0 -27.5 10.5t-10.5 26.5t10 26.5t27 10.5h14t26 -1q30 0 48 -0.5t35 -0.5h19t31 1q18 1 27 1h16q16 0 26.5 -10.5t10.5 -25.5q0 -18 -9 -29t-25 -11h-7.5t-14.5 1q-7 1 -10 1h-5q-9 0 -13.5 -4t-7.5 -14q-13 -41 -42.5 -146t-38.5 -136q-24 -87 -47.5 -168
t-33.5 -114q-12 -42 -31 -58.5t-52 -16.5q-38 0 -57.5 15t-33.5 58q-3 10 -9.5 32.5t-23.5 85.5q-17 62 -25 93t-15 54q-5 19 -11 40.5t-17 60.5q-12 45 -17 63.5t-9 30.5q-6 18 -7.5 20t-3.5 2q-4 0 -5.5 -3.5t-6.5 -18.5q-21 -68 -34.5 -112.5t-19.5 -65.5
q-29 -101 -51.5 -174.5t-33.5 -104.5z" />
    <glyph glyph-name="X" unicode="X" horiz-adv-x="781" 
d="M81 -1q-12 -1 -18 -1h-12q-15 0 -24 10.5t-9 25.5t9.5 25.5t23.5 10.5h5h9q8 -1 12.5 -1h8.5q8 0 13 2t9 7q13 15 34.5 42t73.5 95q45 59 68 88.5t42 53.5q3 4 4.5 7.5t1.5 7.5t-1.5 8t-4.5 8q-13 16 -47 60t-52 66q-36 46 -60.5 75.5t-39.5 46.5q-7 8 -12 10.5t-13 2.5
h-5t-8 -1q-6 -1 -9.5 -1h-6.5q-16 0 -25.5 10.5t-9.5 25.5q0 16 9.5 26.5t25.5 10.5h15t26 -1q22 -1 35 -1.5t25 -0.5q15 0 30 0.5t41 1.5q20 1 29.5 1h17.5q15 0 24 -10.5t9 -26.5q0 -15 -9 -25t-24 -10h-12t-17 1h-12.5h-7.5q-9 0 -11.5 -6t3.5 -15q13 -21 48 -67t96 -122
q3 -4 5.5 -5.5t6.5 -1.5q3 0 5.5 1.5t5.5 5.5q62 77 96 122t46 66q5 9 2 15.5t-12 6.5h-7h-11q-11 -1 -17 -1h-12q-15 0 -23.5 10.5t-8.5 26.5t8.5 25.5t23.5 9.5h20t34 -1q28 -1 44 -1.5t30 -0.5q9 0 18.5 0.5t27.5 1.5q15 0 22 0.5t13 0.5q15 0 24.5 -11t9.5 -26
t-9.5 -25.5t-24.5 -10.5h-6.5t-9.5 1t-9.5 1h-6.5q-7 0 -11 -2.5t-9 -8.5q-8 -11 -20 -26t-40 -49q-62 -79 -89 -114t-42 -55q-4 -5 -5.5 -9t-1.5 -8t1.5 -7.5t4.5 -7.5q15 -19 34.5 -44t60.5 -79q58 -77 82.5 -108.5t40.5 -48.5q7 -8 12 -10.5t13 -2.5h7.5t10.5 1t10 1h6
q15 0 24.5 -11t9.5 -27q0 -15 -9.5 -25t-24.5 -10h-13.5t-25.5 1q-25 1 -38 1.5t-24 0.5q-14 0 -29 -0.5t-41 -1.5q-21 -1 -31.5 -1h-19.5q-15 0 -24.5 9.5t-9.5 23.5q0 17 9 28t25 11h10t15 -1t16 -1h11q9 0 12 6t-3 15q-8 12 -50 66t-119 150q-3 4 -5.5 5.5t-6.5 1.5
q-3 0 -5.5 -1.5t-5.5 -5.5q-16 -21 -36 -47t-59 -76q-40 -50 -54 -68.5t-21 -28.5q-5 -7 -4 -11.5t7 -4.5h10t18 1h15.5h8.5q14 0 23 -10t9 -24q0 -17 -8.5 -27.5t-23.5 -10.5q-9 0 -21.5 0.5t-38.5 0.5q-27 1 -39.5 1.5t-22.5 0.5q-14 0 -26.5 -0.5t-31.5 -1.5z" />
    <glyph glyph-name="Y" unicode="Y" horiz-adv-x="726" 
d="M274 0q-13 -1 -19 -1h-10q-16 0 -25 10.5t-9 26.5q0 15 9 25t25 10q4 0 9 -0.5t15 -0.5l18 -1.5t12 -0.5q13 0 18 4.5t6 15.5q2 27 3 74t1 100q0 17 -2.5 26.5t-11.5 24.5q-25 44 -100 158.5t-111 165.5q-6 9 -10.5 12t-13.5 3h-5t-9 -1t-9 -1h-5q-16 0 -25.5 10t-9.5 27
q0 14 9.5 23.5t25.5 9.5h15t24 -1q20 -1 32 -1.5t24 -0.5q20 0 38 0.5t44 1.5q18 1 26.5 1h16.5q16 0 26 -10t10 -25t-10 -24.5t-26 -9.5h-12.5t-18.5 1h-12h-7q-10 0 -13 -5.5t2 -16.5q7 -16 35 -60l35 -55q18 -29 39.5 -62t39.5 -59q3 -5 6 -7t6 -2q4 0 6.5 2t6.5 7
q13 19 36.5 55t46.5 73q21 34 38 63t24 44q5 10 2 16.5t-12 6.5h-8h-13q-11 -1 -17.5 -1h-12.5q-15 0 -25 9.5t-10 24.5q0 16 9 25.5t26 9.5h18.5t29.5 -1q28 -1 46 -1.5t38 -0.5q7 0 15.5 0.5t24.5 1.5q16 0 23.5 0.5t13.5 0.5q16 0 25.5 -10t9.5 -26q0 -15 -9.5 -24.5
t-25.5 -9.5h-6t-8 1q-4 1 -6 1h-4q-10 0 -16.5 -3t-10.5 -9q-29 -42 -105 -160t-101 -161q-7 -12 -9.5 -22.5t-2.5 -29.5q0 -79 0.5 -118t2.5 -61q1 -11 7 -15.5t20 -4.5q4 0 10 0.5l18 1.5q10 0 14.5 0.5t7.5 0.5q16 0 24.5 -10t8.5 -28q0 -14 -9.5 -24t-23.5 -10h-11.5
t-21.5 1q-29 1 -49.5 1.5t-42.5 0.5q-21 0 -40.5 -0.5t-47.5 -1.5z" />
    <glyph glyph-name="Z" unicode="Z" horiz-adv-x="689" 
d="M619 36q-2 -22 -12 -31.5t-29 -9.5q-5 0 -10 0.5t-16 1.5q-15 2 -25.5 3t-21.5 1q-39 1 -175 0.5t-203 -1.5q-38 -1 -58.5 15.5t-20.5 46.5q0 16 7 30.5t23 34.5q13 16 65.5 73t143.5 155q21 22 109.5 116.5t116.5 128.5q7 8 10.5 15.5t3.5 13.5q0 9 -5.5 13t-17.5 5
q-41 3 -154 2t-165 -4q-15 -1 -22 -6.5t-10 -18.5q-4 -17 -8 -40t-10 -67q-2 -16 -13 -25t-27 -9q-21 0 -32.5 13t-6.5 36q8 40 14 80t8 75q2 22 11.5 32.5t28.5 10.5q5 0 10 -0.5t13 -3.5q9 -2 14.5 -3t11.5 -1q19 0 172 -0.5t199 0.5q45 1 67.5 -15t22.5 -49
q0 -17 -4.5 -29.5t-14.5 -27.5q-16 -24 -73 -88.5t-177 -191.5q-17 -19 -37.5 -40t-57.5 -61q-50 -52 -68 -72t-28 -31q-6 -7 -8.5 -12t-2.5 -11q0 -7 4 -11t13 -5q36 -3 161 -2.5t178 3.5q16 1 23.5 6.5t10.5 20.5q6 25 10 50.5t6 49.5q2 18 12 28t26 10q23 0 34.5 -14.5
t5.5 -38.5q-5 -19 -11.5 -64t-10.5 -87z" />
    <glyph glyph-name="bracketleft" unicode="[" horiz-adv-x="417" 
d="M208 -298q-15 -1 -22 -1h-13q-35 0 -50.5 19t-16.5 62q-1 38 -0.5 84t3.5 142q2 86 2.5 130.5t0.5 83.5q0 50 -1 103.5t-5 147.5q-3 87 -4 128t0 76q1 36 9 56.5t29 34.5q9 6 26 8.5t76 2.5h23.5t34.5 1h40.5h23.5q30 -1 42 -10t12 -30t-13 -30.5t-42 -8.5l-137 4
q-22 1 -31 -8t-10 -32q-1 -34 -0.5 -75.5t3.5 -133.5q2 -86 3 -133t1 -90q0 -35 -1 -75.5t-3 -119.5q-3 -92 -3.5 -134.5t0.5 -76.5q1 -26 10 -35.5t34 -8.5l131 4q31 1 46.5 -9.5t15.5 -31.5q0 -24 -14 -34.5t-46 -10.5q-7 0 -15.5 0.5t-26.5 0.5q-22 1 -34 1.5t-22 0.5
q-11 0 -23 -0.5t-33 -1.5z" />
    <glyph glyph-name="backslash" unicode="\" horiz-adv-x="424" 
d="M21 788q-26 0 -32 -19.5t10 -53.5q5 -10 63 -150t119 -290q23 -57 50.5 -124t74.5 -179q29 -71 37.5 -91.5t9.5 -24.5q8 -23 18.5 -33t26.5 -10q26 0 32.5 19t-7.5 49q-16 34 -54.5 126t-118.5 291q-23 58 -50 125t-72 181q-34 83 -43.5 106.5t-10.5 27.5
q-10 27 -22 38.5t-31 11.5z" />
    <glyph glyph-name="bracketright" unicode="]" horiz-adv-x="417" 
d="M210 779q15 1 22 1h13q35 0 50.5 -19t16.5 -62q1 -38 0.5 -84t-3.5 -142q-2 -86 -2.5 -130.5t-0.5 -83.5q0 -50 1 -103.5t5 -147.5q3 -87 4 -128t0 -76q-1 -36 -9 -56.5t-29 -34.5q-9 -6 -26 -8.5t-76 -2.5h-23.5t-34.5 -1h-40.5h-23.5q-30 1 -42 10t-12 30t13 30.5
t42 8.5l137 -4q22 -1 31 8t10 32q1 34 0.5 75.5t-3.5 133.5q-2 86 -3 133t-1 90q0 35 1 75.5t3 119.5q3 92 3.5 134.5t-0.5 76.5q-1 26 -10 35.5t-34 8.5l-131 -4q-31 -1 -46.5 9.5t-15.5 31.5q0 24 14 34.5t46 10.5q7 0 15.5 -0.5t26.5 -0.5q22 -1 34 -1.5t22 -0.5
q11 0 23 0.5t33 1.5z" />
    <glyph glyph-name="asciicircum" unicode="^" horiz-adv-x="450" 
d="M49 264zM137 300q-21 -18 -28.5 -24t-10.5 -8q-10 -6 -21.5 -3t-18.5 12q-8 10 -7 22t11 22q4 4 10 9.5t23 20.5q15 13 23.5 20t15.5 14q19 17 37 32.5t27 22.5q10 7 16.5 10t14.5 3q7 0 14 -3t14 -9q29 -26 40.5 -36.5t22.5 -20.5q6 -6 13.5 -12.5t21.5 -19.5
q19 -16 26 -23l11 -11q8 -9 8.5 -19t-6.5 -20q-8 -10 -19.5 -12.5t-22.5 3.5q-12 7 -63 50l-51 43q-5 4 -7.5 5.5t-4.5 1.5q-3 0 -5 -1t-7 -5q-16 -12 -32.5 -26t-44.5 -38z" />
    <glyph glyph-name="underscore" unicode="_" horiz-adv-x="587" 
d="M299 -139q-45 0 -96 -0.5t-242 -2.5q-21 -1 -31 8.5t-10 29.5q0 18 10.5 28t29.5 9q47 -1 115 -1h224q101 0 187 1t142 2q19 1 29 -9t10 -28t-10 -28.5t-27 -9.5q-51 2 -179.5 1.5t-151.5 -0.5z" />
    <glyph glyph-name="grave" unicode="`" horiz-adv-x="366" 
d="M264 644q-6 -8 -16 -11.5t-19 -1.5q-17 4 -81 53.5t-95 80.5q-13 13 -12 31.5t14 31.5q12 12 26 14.5t27 -6.5q20 -14 77 -68t78 -81q8 -10 8 -22t-7 -21z" />
    <glyph glyph-name="a" unicode="a" horiz-adv-x="610" 
d="M397 63q-28 -35 -73.5 -54t-101.5 -19q-86 0 -132.5 39t-46.5 111q0 66 42 105.5t129 54.5q22 4 45 7t61 6q20 2 29 3t15 2q30 4 39 14.5t9 40.5v11q0 51 -33.5 80.5t-92.5 29.5q-63 0 -98 -24t-45 -74q-4 -20 -17 -31.5t-32 -11.5q-20 0 -32 14t-9 34q10 71 73 114.5
t159 43.5q100 0 152 -45t52 -129v-131.5v-131.5q0 -26 11.5 -40.5t31.5 -14.5q4 0 8.5 1t12.5 4t12.5 4t9.5 1q11 0 18 -8.5t7 -20.5q0 -9 -4.5 -17.5t-12.5 -14.5q-13 -9 -31.5 -14.5t-39.5 -5.5q-32 0 -51 7t-32 23q-6 7 -9.5 15t-6.5 19q-1 4 -3 6.5t-4 2.5t-4 -1.5
t-5 -4.5zM127 147q0 -43 29 -66.5t84 -23.5q67 0 111.5 32t55.5 81q3 11 4 22.5t1 22.5v11q0 16 -6.5 23t-20.5 7h-8q-25 0 -62 -4t-79 -11q-55 -10 -82 -33t-27 -61z" />
    <glyph glyph-name="b" unicode="b" horiz-adv-x="650" 
d="M600 296q0 -144 -65.5 -225t-181.5 -81q-51 0 -91.5 17t-65.5 48q-3 4 -5 5.5t-4 1.5q-3 0 -5 -1.5t-4 -5.5q-2 -3 -4 -7.5t-8 -21.5q-5 -15 -16 -22.5t-28 -7.5q-18 0 -30 11t-12 28q0 9 3 17.5t13 23.5q12 18 16 30.5t5 26.5q1 19 0.5 67.5t-0.5 73.5q0 176 -1 276
t-4 147q-1 12 -6 17t-15 5q-3 0 -7.5 -0.5t-14.5 -1.5q-16 -3 -25 -3.5t-17 -0.5q-18 0 -28.5 9.5t-10.5 24.5q0 17 9.5 26t27.5 9q5 0 11 0.5l18 1.5q16 1 24.5 1.5t17.5 0.5q6 0 12.5 0.5t18.5 2.5q12 1 17.5 1.5t10.5 0.5q20 0 29.5 -11.5t8.5 -34.5q-1 -20 -1 -54.5
v-99.5q0 -15 0.5 -31.5t0.5 -43.5q1 -13 1 -18v-8q0 -5 2 -8t6 -3q2 0 3.5 0.5t6.5 5.5q33 38 72.5 56t88.5 18q104 0 165.5 -72t61.5 -191zM193 215q3 -72 46 -116.5t108 -44.5q81 0 124.5 54.5t43.5 157.5q0 106 -44 163.5t-124 57.5q-64 0 -105 -40t-48 -110
q-2 -27 -2.5 -54t1.5 -68z" />
    <glyph glyph-name="c" unicode="c" horiz-adv-x="591" 
d="M523 116q-23 -56 -80 -91t-133 -35q-121 0 -190.5 74t-69.5 204q0 134 69 212.5t182 78.5q36 0 68 -8t53 -23q9 -6 14 -8t10 -2t8 4t3 11q0 22 9 33t27 11q16 0 24.5 -9.5t8.5 -26.5v-8.5t-1 -15.5q-1 -21 -1.5 -34.5t-0.5 -26.5q0 -32 0.5 -59.5t1.5 -49.5q1 -16 -9 -26
t-24 -10q-17 0 -27 9.5t-10 25.5q-1 65 -42 104.5t-106 39.5q-81 0 -125.5 -54t-44.5 -154q0 -103 47.5 -160.5t131.5 -57.5q54 0 89 21t63 71q5 10 14 15t19 5q13 0 21.5 -8.5t8.5 -21.5q0 -6 -2 -13.5t-6 -16.5z" />
    <glyph glyph-name="d" unicode="d" horiz-adv-x="665" 
d="M447 70q-29 -40 -69.5 -60t-92.5 -20q-108 0 -171.5 72t-63.5 191q0 143 63.5 224.5t176.5 81.5q50 0 90 -18.5t63 -52.5q2 -3 4.5 -4.5t5.5 -1.5t4 2t2 8q3 31 3 99t-3 107q-1 11 -6.5 16t-15.5 5q-3 0 -7 -0.5t-13 -1.5q-15 -3 -23.5 -3.5t-16.5 -0.5q-18 0 -28.5 9.5
t-10.5 24.5q0 17 10 26t28 10q6 0 13.5 0.5t22.5 0.5q13 1 20 1.5t14 0.5q6 0 13 0.5t18 2.5l16.5 1.5t9.5 0.5q20 0 29 -11t8 -36q-2 -44 -3 -150t-1 -205q0 -154 0.5 -209t1.5 -86q1 -14 6.5 -20t18.5 -6h8.5t14.5 1t15 1h9q16 0 25.5 -9.5t9.5 -23.5q0 -15 -10 -25
t-26 -11h-11t-18 1h-18h-11q-31 -2 -39 -2h-15q-22 0 -31 15t-5 47q1 7 0 10.5t-4 3.5t-5.5 -1.5t-4.5 -4.5zM135 275q0 -105 41.5 -160t120.5 -55q62 0 103.5 33.5t52.5 92.5q8 42 8 89t-8 82q-14 62 -53.5 96.5t-96.5 34.5q-83 0 -125.5 -54t-42.5 -159z" />
    <glyph glyph-name="e" unicode="e" horiz-adv-x="590" 
d="M532 114q-26 -58 -86 -91t-140 -33q-122 0 -189 71t-67 202q0 136 73.5 216t191.5 80q104 0 163 -57.5t59 -157.5q0 -42 -16.5 -60t-57.5 -18h-27.5h-49.5q-38 1 -57 1h-35h-88.5t-38.5 -1q-17 -1 -23.5 -7.5t-6.5 -24.5q1 -76 48.5 -124t124.5 -48q60 0 95 19t67 67
q6 9 14.5 14t17.5 5q14 0 23.5 -9t9.5 -22q0 -7 -1 -12.5t-4 -9.5zM145 362q-2 -17 2.5 -22.5t20.5 -6.5q13 -1 34 -1h75q36 0 76.5 0.5t61.5 1.5q17 1 24.5 8t7.5 23q0 55 -38.5 90t-100.5 35q-66 0 -110.5 -36t-52.5 -92z" />
    <glyph glyph-name="f" unicode="f" horiz-adv-x="419" 
d="M89 1q-15 -1 -21 -1h-11q-15 0 -24 9.5t-9 24.5t9 24.5t24 9.5h11.5t14.5 -1t14 -1h10q16 0 22.5 5t8.5 19q3 20 4.5 62t1.5 108q0 62 -1 117t-2 78q-1 13 -6.5 18.5t-18.5 5.5h-9t-13 -1q-9 -1 -14.5 -1h-10.5q-18 0 -28.5 10t-10.5 26q0 18 10.5 27.5t30.5 9.5h11.5
t18.5 -1t17.5 -1h9.5q6 0 8 1.5t2 5.5q0 3 -0.5 6t-3.5 11q-5 17 -7 29.5t-2 26.5q0 70 44.5 110t120.5 40q50 0 83 -19t33 -48q0 -18 -10.5 -29.5t-27.5 -11.5q-12 0 -21.5 3t-17.5 9q-16 13 -27.5 17.5t-27.5 4.5q-34 0 -54 -22t-20 -60q0 -39 15 -57t48 -18
q13 0 24.5 0.5t29.5 1.5q13 1 20 1h14q18 0 28.5 -9.5t10.5 -25.5q0 -18 -10.5 -28.5t-28.5 -10.5q-10 0 -21.5 0.5t-31.5 1.5q-18 0 -26.5 0.5t-15.5 0.5q-17 0 -23 -5.5t-7 -20.5q-2 -27 -3 -84.5t-1 -108.5q0 -65 1.5 -107.5t4.5 -62.5q2 -14 7 -19t17 -5h17t26 1
q15 1 23 1h15q14 0 23.5 -9.5t9.5 -22.5q0 -15 -9 -25.5t-24 -10.5q-14 0 -30.5 0.5t-49.5 0.5q-37 1 -56.5 1.5t-37.5 0.5q-15 0 -30 -0.5t-40 -1.5z" />
    <glyph glyph-name="g" unicode="g" horiz-adv-x="616" 
d="M563 -60q0 -92 -77.5 -146t-217.5 -54q-102 0 -158 35.5t-56 102.5q0 42 24.5 73t79.5 56q4 2 6 4.5t2 4.5q0 3 -2 4.5t-6 3.5q-21 7 -32.5 23t-11.5 38q0 25 14.5 43t45.5 31q5 2 8 5t3 6t-2.5 6t-7.5 5q-52 24 -80 69t-28 104q0 92 62 148.5t159 56.5q30 0 54 -3
t53 -12q13 -4 19 -5t12 -1q11 0 17 6t9 18q4 22 18 32t40 10q29 0 50.5 -16.5t21.5 -40.5q0 -21 -12.5 -34t-33.5 -13q-5 0 -10 0.5t-16 2.5q-10 2 -15 2.5t-9 0.5q-6 0 -10 -3.5t-4 -9.5q0 -5 2.5 -9.5t10.5 -14.5q18 -23 28.5 -54.5t10.5 -66.5q0 -91 -62.5 -144
t-172.5 -53q-39 0 -60.5 -13t-21.5 -36q0 -17 14.5 -27t41.5 -10h26t43 1q28 1 41.5 1h25.5q82 0 123 -31.5t41 -95.5zM139 -108q1 -44 36.5 -66.5t104.5 -22.5q97 0 148.5 30.5t51.5 87.5q0 36 -23 53t-72 18q-33 1 -60 0.5t-52 -1.5q-66 -4 -100.5 -29.5t-33.5 -69.5z
M156 363q0 -68 39 -109t105 -41q65 0 100.5 34t35.5 96q0 67 -39.5 109.5t-106.5 42.5q-63 0 -98.5 -35.5t-35.5 -96.5z" />
    <glyph glyph-name="h" unicode="h" 
d="M94 1q-15 0 -21 -0.5t-11 -0.5q-15 0 -23.5 9.5t-8.5 24.5q0 14 9 23.5t23 9.5h11.5t15.5 -1q9 -1 14.5 -1h10.5q17 0 23.5 5.5t7.5 18.5q2 34 2.5 84t0.5 203q0 101 -2 193t-4 129q0 10 -6.5 15.5t-18.5 5.5q-3 0 -7 -0.5t-14 -1.5q-15 -2 -23.5 -3t-17.5 -1
q-18 0 -28.5 9.5t-10.5 24.5q0 17 10 26t29 10q6 0 13 0.5t22 0.5q13 1 20 1.5t14 0.5q6 0 12.5 0.5t18.5 2.5q12 1 17.5 1.5t10.5 0.5q20 0 29.5 -11t9.5 -36v-130v-130q0 -5 2 -7.5t5 -2.5t4.5 1.5l5.5 5.5q27 40 66.5 59t95.5 19q89 0 137 -52t48 -145v-50.5v-51.5
q0 -108 0.5 -131.5t2.5 -43.5q1 -11 5.5 -15.5t16.5 -4.5h9t14 1q8 1 11.5 1h6.5q15 0 24.5 -9.5t9.5 -22.5q0 -15 -9.5 -25.5t-24.5 -9.5q-43 2 -68.5 3t-51.5 1q-13 0 -27 -0.5t-38 -2.5q-14 0 -20.5 -0.5t-11.5 -0.5q-14 0 -22.5 9t-8.5 24t9 24.5t24 9.5q6 0 12 -0.5
t16 -0.5q6 -1 8 -1h4q13 0 18 4.5t6 17.5q3 40 4.5 91.5t0.5 84.5q-2 85 -8.5 121.5t-22.5 58.5q-16 23 -41 35t-60 12q-33 0 -60 -12t-47 -36q-22 -26 -30.5 -63.5t-8.5 -118.5q0 -91 0.5 -120t1.5 -51q1 -14 5.5 -19t16.5 -5h9t14 1q7 1 11 1h7q15 0 24.5 -8.5t9.5 -21.5
q0 -16 -9.5 -26.5t-24.5 -10.5q-11 0 -23 0.5l-36 1.5q-27 1 -42 1.5t-29 0.5q-15 0 -30 -0.5t-39 -2.5z" />
    <glyph glyph-name="i" unicode="i" horiz-adv-x="363" 
d="M97 1q-16 -1 -22.5 -1h-11.5q-16 0 -24.5 9t-8.5 25q0 15 9 24t24 9h11.5t14.5 -1q8 -1 13.5 -1h10.5q18 0 25 5.5t8 18.5q1 18 1.5 55.5t0.5 154.5q0 55 -1 95t-2 57q-1 18 -8 25t-22 7q-4 0 -9 -0.5t-16 -2.5t-16.5 -2.5t-10.5 -0.5q-18 0 -28 9t-10 26q0 16 10 25
t27 9q22 1 36.5 2t29.5 2q6 0 12.5 1t18.5 2q16 2 22.5 2.5t12.5 0.5q18 0 27 -9.5t9 -28.5v-28t-1 -57q-1 -55 -1 -83v-50q0 -81 0.5 -133.5t2.5 -76.5q1 -13 7 -19t19 -6h11t17 1q10 1 15 1h9q16 0 25 -9t9 -24q0 -16 -9 -25t-25 -9q-11 0 -24.5 0.5t-39.5 0.5
q-31 1 -47 1.5t-31 0.5t-30 -0.5t-40 -1.5zM237 715q1 -30 -24 -51t-61 -21q-28 0 -44.5 15t-16.5 40q0 30 24.5 51t57.5 21q31 0 47 -14t17 -41z" />
    <glyph glyph-name="j" unicode="j" horiz-adv-x="303" 
d="M130 165q1 107 0.5 179t-3.5 107q-1 18 -8 25t-22 7q-4 0 -9 -0.5t-15 -2.5q-11 -2 -16 -2.5t-10 -0.5q-18 0 -28 9t-10 26q0 16 10 25t27 9q17 1 31.5 2t32.5 2q6 0 12.5 1t18.5 2q16 2 22.5 2.5t12.5 0.5q18 0 27 -9.5t9 -28.5v-40t-1 -78q-2 -81 -2.5 -131.5
t-0.5 -100.5q0 -61 0.5 -115t3.5 -125q1 -31 1.5 -44.5t0.5 -24.5q0 -62 -31.5 -90.5t-97.5 -28.5q-45 0 -71 15.5t-26 43.5q0 19 12 31.5t29 12.5q11 0 20 -3t21 -13q11 -9 18 -11.5t16 -2.5q17 0 25 10.5t7 34.5q0 10 -3 58.5t-3 94.5q-1 32 -1 70t1 84zM217 715
q1 -30 -24 -51t-61 -21q-27 0 -44 15.5t-17 39.5q0 30 24.5 51t57.5 21q31 0 47 -14t17 -41z" />
    <glyph glyph-name="k" unicode="k" horiz-adv-x="665" 
d="M94 1q-14 0 -20.5 -0.5t-11.5 -0.5q-15 0 -23.5 9.5t-8.5 24.5q0 14 9 23.5t23 9.5h11.5t15.5 -1t15 -1h10q17 0 23.5 5t7.5 19q2 24 2.5 69.5t0.5 174.5q0 202 -0.5 275t-2.5 91q-1 10 -6.5 15t-14.5 5q-3 0 -7.5 -0.5t-15.5 -1.5q-18 -2 -27.5 -3t-18.5 -1
q-18 0 -28.5 9.5t-10.5 24.5q0 17 9.5 26t27.5 10q16 0 33.5 0.5t41.5 2.5q7 1 28.5 3t32.5 2q21 0 31 -11.5t9 -35.5q-1 -70 -2.5 -213t-1.5 -209q0 -10 3.5 -15t10.5 -5q4 0 8.5 2t12.5 9q10 8 23.5 19.5t60.5 53.5q22 20 43.5 40t38.5 37q3 3 4.5 6.5t1.5 6.5q0 4 -4 7
t-10 3h-7.5h-14.5q-10 -1 -15 -1h-8q-18 0 -28 9t-10 25q0 15 9.5 23.5t26.5 8.5h15.5t26.5 -1q30 -1 50.5 -1.5t43.5 -0.5q10 0 19.5 0.5t26.5 1.5q15 0 23 0.5t15 0.5q17 0 26.5 -9t9.5 -26q0 -14 -10 -23t-25 -9q-3 0 -6.5 0.5t-9.5 1.5q-5 0 -7.5 0.5t-5.5 0.5
q-8 0 -13.5 -2t-13.5 -9q-19 -15 -50.5 -44t-35.5 -33q-6 -6 -12.5 -12t-18.5 -16q-15 -14 -21 -19.5t-11 -10.5q-6 -6 -8 -9.5t-2 -7.5q0 -3 0.5 -5t4.5 -8q22 -35 69.5 -102t95.5 -131q6 -8 9.5 -10t13.5 -2h9t15 1q8 1 11 1h5q16 0 25.5 -9t9.5 -22q0 -16 -9.5 -26
t-25.5 -10h-12t-23 1q-26 1 -40.5 1.5t-27.5 0.5q-16 0 -30 -0.5t-34 -1.5q-14 -1 -21.5 -1h-14.5q-16 0 -25 9t-9 24q0 14 9 23.5t25 9.5h6.5t10.5 -1q8 -1 12 -1h7q7 0 9 4t-3 12q-19 31 -53.5 81.5t-73.5 103.5q-5 6 -8 8t-6 2q-1 0 -3 -0.5t-7 -4.5q-31 -27 -47.5 -41
t-17.5 -15q-5 -5 -7 -10t-2 -12q0 -52 0.5 -69t1.5 -35q1 -14 4.5 -19t12.5 -5h9t10 1q4 1 6.5 1h4.5q14 0 22.5 -8.5t8.5 -21.5q0 -17 -8 -27t-23 -10q-10 0 -20.5 0.5t-29.5 1.5q-21 1 -34 1.5t-26 0.5q-15 0 -30 -0.5t-39 -2.5z" />
    <glyph glyph-name="l" unicode="l" horiz-adv-x="373" 
d="M113 2l-30 -1.5t-19 -0.5q-16 -1 -25 8.5t-9 27.5q0 14 9 23t25 9h15t21 -1q12 -1 18 -1h12q10 0 14.5 4t5.5 15q1 41 2 119.5t1 185.5q0 120 -1 200.5t-3 107.5q-1 11 -6.5 16t-15.5 5q-3 0 -7 -0.5t-13 -1.5q-14 -3 -22.5 -3.5t-16.5 -0.5q-18 0 -28.5 9.5t-10.5 24.5
q0 17 10 26t28 10q7 0 14.5 0.5t23.5 0.5q12 1 19 1.5t13 0.5t13 0.5t19 2.5q12 1 17.5 1.5t10.5 0.5q20 0 29.5 -11.5t8.5 -35.5q-1 -56 -1.5 -146.5t-0.5 -206.5q0 -160 0.5 -218t1.5 -88q0 -10 5 -14.5t15 -4.5h10.5t17.5 1t18.5 1h12.5q16 0 25.5 -9.5t9.5 -24.5
q0 -16 -9.5 -25.5t-25.5 -8.5q-9 0 -19.5 0.5t-32.5 1.5q-33 1 -50 1.5t-32 0.5q-12 0 -26 -0.5t-41 -1.5z" />
    <glyph glyph-name="m" unicode="m" horiz-adv-x="1020" 
d="M236 479q29 40 68.5 60t90.5 20q48 0 83.5 -18t60.5 -57q6 -10 8.5 -12.5t6.5 -2.5q3 0 5.5 1.5t7.5 7.5q37 42 76.5 61.5t85.5 19.5q48 0 83.5 -18t58.5 -54q14 -23 21.5 -54t7.5 -71v-50.5v-51.5q0 -50 0.5 -91.5t2.5 -83.5q1 -12 6 -16t17 -4h9t14 1q8 1 11.5 1h6.5
q15 0 24 -8.5t9 -23.5q0 -17 -9 -26.5t-24 -8.5q-43 2 -68.5 3t-51.5 1q-14 0 -28 -0.5t-37 -2.5q-13 0 -19 -0.5t-10 -0.5q-16 0 -25 9t-9 25q0 15 9 24t25 9h9.5t14.5 -1q7 -1 10 -1h5q13 0 18.5 5t6.5 17q1 26 1.5 62.5t0.5 124.5q0 71 -6.5 108t-22.5 63
q-13 22 -35.5 32.5t-54.5 10.5t-56 -11.5t-41 -36.5q-20 -26 -28 -63t-8 -116q0 -78 0.5 -113t1.5 -63q1 -12 6 -16t17 -4h9t15 1q7 1 10.5 1h6.5q16 0 24.5 -8.5t8.5 -24.5q0 -17 -9 -26t-25 -8q-6 0 -13.5 0.5l-22.5 1.5q-29 1 -46.5 1.5t-34.5 0.5q-14 0 -28 -0.5
t-38 -2.5q-13 0 -19 -0.5t-11 -0.5q-15 0 -23.5 9.5t-8.5 24.5t9 24t25 9q6 0 12 -0.5t16 -0.5q6 -1 8.5 -1h4.5q14 0 19.5 5t5.5 17v28.5v54.5q1 44 1 65v38q0 74 -6 110.5t-22 61.5q-14 21 -37 32t-55 11q-34 0 -61 -13t-45 -39q-18 -25 -26 -65.5t-8 -110.5
q0 -87 0.5 -117.5t1.5 -53.5q1 -13 5.5 -18.5t16.5 -5.5h8t12 1t12 1h8q15 0 24.5 -8.5t9.5 -23.5t-9.5 -25t-24.5 -10q-11 0 -22.5 0.5t-35.5 0.5q-27 1 -42 1.5t-29 0.5q-15 0 -29.5 -0.5t-38.5 -1.5q-14 -1 -20.5 -1h-11.5q-16 0 -24.5 9t-8.5 26q0 14 9 23t24 9h11.5
t14.5 -1t14.5 -1h10.5q17 0 24 5.5t8 18.5q1 22 1.5 52.5t0.5 125.5q0 66 -1 113.5t-2 67.5q-1 19 -9 27t-25 8q-4 0 -9.5 -0.5t-16.5 -2.5t-16.5 -2.5t-10.5 -0.5q-18 0 -28 9t-10 26q0 16 9.5 25t27.5 9l23.5 1t42.5 3q6 0 13 1t19 2q14 2 20.5 2.5t11.5 0.5
q19 0 27.5 -8.5t8.5 -27.5q0 -6 -1 -15.5t-2 -18.5q-1 -5 1.5 -8t6.5 -3q3 0 5 1t3 3z" />
    <glyph glyph-name="n" unicode="n" 
d="M95 1q-14 -1 -20.5 -1h-11.5q-16 0 -24.5 9t-8.5 26q0 14 9 23t24 9h11.5t14.5 -1t14.5 -1h10.5q17 0 24 5.5t8 18.5q1 21 1.5 53t0.5 128q0 65 -1 111.5t-2 66.5q-1 19 -9 27t-25 8q-4 0 -9.5 -0.5t-16.5 -2.5t-16.5 -2.5t-10.5 -0.5q-18 0 -28 9t-10 26q0 16 9.5 25
t27.5 9l23.5 1t42.5 3q6 0 13 1t19 2q14 2 20.5 2.5t11.5 0.5q18 0 27 -9t9 -27q0 -7 -0.5 -15.5t-2.5 -21.5q-1 -5 0.5 -8t5.5 -3q2 0 4 1t5 4q39 44 79 63t89 19q87 0 135 -52t48 -143v-52v-52q0 -108 0.5 -131.5t2.5 -43.5q1 -11 5.5 -15.5t16.5 -4.5h10t14 1q7 1 10 1h6
q17 0 26 -8.5t9 -24.5t-10 -25.5t-26 -8.5q-42 2 -67 3t-51 1q-14 0 -27.5 -0.5t-36.5 -2.5q-14 0 -20 -0.5t-11 -0.5q-15 0 -24 9.5t-9 24.5t9 24t24 9q6 0 12.5 -0.5t16.5 -0.5q6 -1 8 -1h4q13 0 18.5 5t6.5 17q2 35 2.5 78.5t-0.5 87.5q-1 92 -8 129t-23 61
q-15 22 -38.5 32.5t-58.5 10.5q-34 0 -60.5 -11t-44.5 -32q-24 -28 -34 -67t-10 -103q0 -97 0.5 -129.5t1.5 -54.5q1 -13 5.5 -18.5t16.5 -5.5h8t13 1q8 1 12 1h7q16 0 25.5 -8.5t9.5 -23.5t-9.5 -25t-25.5 -10q-11 0 -22.5 0.5t-35.5 0.5q-27 1 -42 1.5t-29 0.5
q-15 0 -29.5 -0.5t-38.5 -1.5z" />
    <glyph glyph-name="o" unicode="o" horiz-adv-x="626" 
d="M576 272q0 -130 -72.5 -206t-194.5 -76q-118 0 -188.5 75t-70.5 202q0 130 76.5 211t193.5 81q113 0 184.5 -80t71.5 -207zM137 283q0 -103 49.5 -163.5t135.5 -60.5q78 0 122 52.5t44 146.5q0 109 -48.5 170.5t-133.5 61.5q-75 0 -122 -57t-47 -150z" />
    <glyph glyph-name="p" unicode="p" horiz-adv-x="689" 
d="M100 -250q-15 0 -22 -0.5t-12 -0.5q-17 0 -26 9.5t-9 26.5q0 15 10 24.5t25 9.5q6 0 12.5 -0.5l19.5 -1.5q9 -1 13.5 -1h8.5q14 0 21 5t7 16q1 37 1.5 125.5t0.5 200.5q0 89 -0.5 159.5t-1.5 128.5q-1 16 -7 24t-19 8q-6 0 -12.5 -0.5t-18.5 -2.5q-13 -2 -19.5 -2.5
t-12.5 -0.5q-19 0 -29 9t-10 26q0 16 10.5 25t29.5 9q21 1 37.5 2t35.5 2q7 0 14 1t19 3t17.5 2.5t10.5 0.5q18 0 27 -8.5t9 -26.5q0 -9 -0.5 -18t-1.5 -18q-2 -10 4.5 -12.5t12.5 5.5q26 36 71 58t97 22q105 0 165.5 -74.5t60.5 -201.5q0 -138 -63.5 -215.5t-178.5 -77.5
q-46 0 -85 15t-66 44q-3 3 -5 4t-4 1q-3 0 -5.5 -3t-3.5 -8q-2 -11 -2.5 -94t1.5 -112q1 -11 7 -16t19 -5q8 0 17 0.5t26 1.5q15 0 22.5 0.5t13.5 0.5q15 0 23.5 -9.5t8.5 -24.5q0 -16 -8.5 -26t-23.5 -10q-13 0 -27 0.5l-42 1.5q-33 1 -51.5 1.5t-35.5 0.5t-33.5 -0.5
t-42.5 -2.5zM227 208q4 -68 47 -108.5t111 -40.5q84 0 126.5 53t42.5 157q0 106 -42.5 160.5t-123.5 54.5q-66 0 -109 -39t-50 -105q-3 -33 -3.5 -62.5t1.5 -69.5z" />
    <glyph glyph-name="q" unicode="q" horiz-adv-x="656" 
d="M528 -253q-12 -1 -17.5 -1.5t-10.5 -0.5q-22 0 -32 11.5t-8 35.5q1 20 1.5 58t0.5 121q0 44 -0.5 59.5t-1.5 22.5q-1 5 -3 7t-6 2q-3 0 -5 -1.5t-5 -4.5q-24 -30 -66 -48t-92 -18q-106 0 -168 70t-64 188q-3 146 64 228.5t188 82.5q50 0 92.5 -21.5t69.5 -58.5
q3 -4 5.5 -5.5t4.5 -1.5q3 0 5.5 2.5t4.5 7.5q0 1 0.5 2t0.5 3q2 3 2.5 5t0.5 4q6 29 18 42t33 13q18 0 29.5 -11.5t11.5 -29.5q0 -10 -3.5 -21t-14.5 -32q-11 -20 -14.5 -31.5t-3.5 -21.5v-20t-1 -47q0 -80 -0.5 -132t-0.5 -100q0 -119 0.5 -185.5t1.5 -81.5q0 -11 5 -16
t17 -5q3 0 8.5 0.5t19.5 2.5q16 2 23 2.5t12 0.5q18 0 27 -9t9 -26t-9.5 -26t-27.5 -9q-6 0 -13 -0.5t-22 -0.5q-13 -1 -20 -1.5t-14 -0.5q-6 0 -13 -0.5t-19 -2.5zM136 273q-1 -102 41.5 -156t121.5 -54q67 0 110.5 38.5t50.5 105.5q4 33 4.5 59.5t-1.5 57.5
q-6 78 -47.5 120.5t-109.5 42.5q-79 0 -124 -56t-46 -158z" />
    <glyph glyph-name="r" unicode="r" horiz-adv-x="479" 
d="M377 559q35 0 53.5 -14.5t18.5 -42.5q0 -26 -16.5 -41t-43.5 -15q-7 0 -15 1t-23 4t-23 4t-15 1q-14 0 -25.5 -4.5t-20.5 -14.5q-11 -11 -18 -29.5t-9 -40.5q-3 -44 -4 -76t-1 -70q0 -39 1 -70.5t3 -56.5q1 -14 7 -20t19 -6q5 0 13.5 0.5t29.5 1.5q20 0 28 0.5t13 0.5
q16 0 25.5 -9.5t9.5 -25.5t-9.5 -26t-25.5 -10h-20t-36 1q-36 1 -57 1.5t-42 0.5q-15 0 -31.5 -0.5t-45.5 -1.5q-23 -1 -33.5 -1h-19.5q-15 0 -24 10t-9 26q0 14 10 24t25 10h8.5t14.5 -1q13 -1 20 -1h14q15 0 21 5.5t8 20.5q3 31 4 73t1 103q0 106 -0.5 137t-2.5 46
q-1 16 -9.5 23t-26.5 7q-5 0 -11.5 -0.5t-18.5 -2.5t-18.5 -2.5t-11.5 -0.5q-19 0 -28.5 9t-9.5 26q0 16 9.5 25t27.5 9l23.5 1t42.5 3q7 0 14 1t20 3t19 2.5t11 0.5q19 0 29 -10.5t10 -29.5q0 -7 -0.5 -14.5t-1.5 -19.5q-1 -9 4.5 -11t11.5 5q22 27 34 38.5t25 19.5
q16 12 36 18t42 6z" />
    <glyph glyph-name="s" unicode="s" horiz-adv-x="547" 
d="M129 4q-1 -14 -10 -21t-25 -7q-18 0 -27.5 11.5t-4.5 29.5q2 13 3.5 36t0.5 46q0 12 -1 23.5t-2 30.5q-1 14 -1.5 20.5t-0.5 12.5q0 16 9 25t24 9t24 -8t10 -23q4 -32 11 -51.5t21 -35.5q21 -24 55.5 -36t81.5 -12q52 0 83.5 25t31.5 66q0 44 -30.5 65t-105.5 33l-45 7
q-87 14 -129.5 52t-42.5 102q0 72 51.5 113.5t139.5 41.5q33 0 60.5 -5t52.5 -16q13 -6 20 -8.5t12 -2.5q6 0 8.5 4t3.5 15q1 16 10 24t24 8q16 0 24.5 -9t8.5 -25v-8.5t-1 -15.5q-1 -19 -1.5 -31.5t-0.5 -25.5q0 -9 0.5 -19.5t1.5 -28.5l1.5 -18t0.5 -10q1 -15 -7.5 -24
t-24.5 -9t-24.5 8t-9.5 24q-1 21 -8.5 39t-20.5 31q-23 20 -53.5 30t-70.5 10q-55 0 -85 -22.5t-30 -63.5q0 -40 29.5 -60t99.5 -32l45 -7q94 -15 135.5 -51.5t41.5 -108.5q0 -73 -53 -117t-144 -44q-37 0 -68.5 7t-54.5 21q-14 8 -19 10t-9 2q-7 0 -10.5 -6t-4.5 -20z" />
    <glyph glyph-name="t" unicode="t" horiz-adv-x="417" 
d="M359 19q-18 -14 -44 -21.5t-59 -7.5q-67 0 -100 35t-31 104q3 69 3.5 175.5t-1.5 150.5q-1 14 -5.5 19t-18.5 5h-6.5t-11.5 -1q-11 -1 -18 -1h-13q-18 0 -29.5 10t-11.5 25q0 8 3 15.5t8 12.5t12 7.5t16 2.5h14t18 -1q7 -1 11 -1h7q15 0 20 4.5t5 16.5v13t-1 24
q-1 18 -1 27v16q0 13 4 24.5t12 18.5q5 4 11 6.5t14 3.5h1.5t1.5 1h0.5h1.5q6 0 11.5 -1.5t10.5 -5.5q8 -6 12 -16.5t4 -26.5v-16t-1 -27t-1 -26.5v-15.5q0 -12 4.5 -16t18.5 -4h18t26 1q22 1 35 1h27q18 0 29 -10.5t11 -27.5q0 -15 -11.5 -25.5t-28.5 -10.5
q-10 0 -21.5 0.5t-32.5 1.5q-19 0 -29 0.5t-19 0.5q-14 0 -19.5 -5.5t-5.5 -18.5l-1 -44q-2 -145 -1.5 -202t1.5 -86q2 -35 15.5 -50t43.5 -15q9 0 16.5 1.5t14.5 4.5t15.5 9.5t10.5 7.5q7 4 12.5 6t12.5 2q14 0 22 -9.5t8 -23.5q0 -11 -5 -20.5t-15 -16.5z" />
    <glyph glyph-name="u" unicode="u" horiz-adv-x="711" 
d="M541 555q23 0 33.5 -11t10.5 -34v-19.5t-1 -41.5q-2 -57 -2.5 -91.5t-0.5 -65.5v-147.5t1 -46.5q1 -17 6.5 -23t17.5 -6h12t16 1t14.5 1h9.5q15 0 24 -9.5t9 -25.5t-9.5 -25.5t-26.5 -9.5h-10t-15 1q-11 1 -16.5 1h-10.5q-4 0 -8.5 -0.5t-14.5 -0.5q-14 -1 -20.5 -1.5
t-11.5 -0.5q-17 0 -26 7t-12 22q-1 7 -2 18.5t-1 13.5q0 5 -2 7.5t-6 2.5q-3 0 -4.5 -1t-4.5 -5q-25 -36 -66.5 -55.5t-94.5 -19.5q-87 0 -134 49t-47 139q0 100 -1 174.5t-3 106.5q-1 13 -7 18.5t-19 5.5q-5 0 -11 -0.5t-18 -2.5q-12 -3 -18.5 -3.5t-11.5 -0.5q-19 0 -29 9
t-10 26q0 16 10.5 25.5t27.5 9.5q19 1 33.5 2t31.5 2q6 0 12 0.5t16 2.5q16 1 22.5 1.5t12.5 0.5q21 0 31.5 -11t10.5 -34v-19.5t-1 -45.5q0 -54 -0.5 -81t-0.5 -46q0 -111 7 -150.5t22 -61.5q17 -23 41 -34t58 -11q37 0 66 13t48 39q18 26 26 66.5t8 112.5q0 34 -0.5 66
t-2.5 101q-1 13 -7 18.5t-19 5.5q-5 0 -11 -0.5t-18 -2.5q-12 -3 -18.5 -3.5t-11.5 -0.5q-18 0 -28.5 9.5t-10.5 26.5q0 15 10.5 24.5t27.5 9.5q19 1 33.5 2t31.5 2q6 0 12 0.5t16 2.5q16 1 22.5 1.5t12.5 0.5z" />
    <glyph glyph-name="v" unicode="v" horiz-adv-x="680" 
d="M394 4q-9 -7 -21 -10.5t-27 -3.5q-18 0 -31 4t-23 13q-10 8 -17.5 21.5t-14.5 35.5q-6 16 -15 40.5t-31 84.5q-56 151 -77.5 208.5t-28.5 72.5q-4 8 -9 11.5t-13 3.5h-4.5t-7.5 -1q-7 -1 -11 -1h-8q-16 0 -25.5 9.5t-9.5 24.5t9.5 24t25.5 9q7 0 16 -0.5t28 -0.5
q22 -1 33.5 -1.5t21.5 -0.5q12 0 24.5 0.5t34.5 1.5q21 0 32 0.5t21 0.5q17 0 26.5 -9.5t9.5 -25.5q0 -13 -10 -22t-26 -9h-14.5t-17.5 1h-8.5h-4.5q-12 0 -17.5 -7t-1.5 -19q23 -73 65 -190t70 -190q2 -5 4.5 -7.5t7.5 -2.5t8 2.5t5 7.5q25 64 64 174.5t56 166.5
q5 18 7.5 28.5t2.5 15.5q1 12 -5.5 17t-20.5 5h-6t-10 -1q-9 -1 -14.5 -1h-10.5q-15 0 -24.5 9t-9.5 23q0 15 9 24.5t24 9.5h13.5t24.5 -1q25 -1 40.5 -1h30.5h23t32 1q16 1 23.5 1h14.5q16 0 25 -9.5t9 -24.5q0 -14 -8.5 -23.5t-22.5 -9.5h-6.5t-10.5 1q-6 1 -8 1h-4
q-9 0 -15 -4t-9 -13q-13 -35 -30.5 -84t-53.5 -152q-30 -85 -42.5 -119t-19.5 -54q-8 -21 -16.5 -34t-19.5 -21z" />
    <glyph glyph-name="w" unicode="w" horiz-adv-x="1023" 
d="M375 -1q-8 -5 -19 -7t-25 -2q-18 0 -31 3t-23 10q-9 6 -16.5 19t-15.5 36q-6 17 -15 44.5t-31 96.5q-38 119 -56.5 176t-31.5 95q-2 7 -8 11t-14 4h-4.5t-8.5 -1q-8 -1 -12.5 -1h-8.5q-16 0 -25.5 9.5t-9.5 24.5q0 14 9.5 23.5t25.5 9.5h15t26 -1q22 -1 35 -1.5t25 -0.5
t24 0.5t34 1.5q21 0 31.5 0.5t20.5 0.5q17 0 27 -9.5t10 -24.5t-10 -24t-27 -9q-7 0 -14 0.5t-18 0.5q-6 1 -8.5 1h-4.5q-9 0 -14.5 -5t-5.5 -14q0 -3 1.5 -8t6.5 -24q11 -40 41.5 -137t72.5 -225q1 -5 4 -7.5t8 -2.5t8 2.5t5 7.5q28 80 62.5 187t50.5 165q5 18 8 31.5
t4 22.5q0 5 -2.5 6.5t-9.5 1.5h-11.5t-19.5 -1h-17h-10q-16 0 -25 9t-9 24q0 14 9 23t24 9h11t24 -1q30 -1 47.5 -1.5t33.5 -0.5t32.5 0.5t43.5 1.5q16 1 23.5 1h13.5q16 0 25 -9t9 -24t-8 -23.5t-23 -8.5h-10.5t-15.5 1h-12.5h-8.5q-6 0 -10 -4.5t-4 -12.5q0 -7 2 -15.5
t9 -32.5q13 -46 48 -153t65 -195q2 -6 4.5 -8t7.5 -2q3 0 6 2t5 7q17 48 53 166.5t57 193.5q3 11 4.5 19t1.5 13q0 12 -5.5 17.5t-17.5 5.5h-7t-12 -1q-10 -1 -15 -1h-10q-16 0 -25 9t-9 24q0 14 9 23t24 9h13.5t24.5 -1q25 -1 40 -1.5t29 -0.5q12 0 24 0.5t32 1.5
q15 1 22.5 1h14.5q16 0 25.5 -9t9.5 -24q0 -14 -9 -24t-23 -10h-6.5t-10.5 1q-6 1 -8 1h-4q-9 0 -15.5 -4.5t-9.5 -13.5q-4 -12 -57.5 -181.5t-73.5 -225.5q-8 -22 -15 -35t-16 -20q-9 -8 -20.5 -11.5t-28.5 -3.5q-20 0 -33 3t-22 10q-9 6 -15.5 18t-15.5 42
q-27 82 -55 171.5t-40 131.5q-4 8 -5.5 9t-2.5 1q-2 0 -4 -2.5t-3 -7.5q-16 -56 -46 -151.5t-50 -153.5q-9 -28 -18 -42t-21 -20z" />
    <glyph glyph-name="x" unicode="x" horiz-adv-x="649" 
d="M203 -1q-22 1 -35 1.5t-25 0.5t-23.5 -0.5t-29.5 -1.5q-14 -1 -21 -1h-13q-16 0 -25.5 10t-9.5 25q0 12 10 21.5t25 9.5h6h8q5 -1 8 -1h6q7 0 12 2.5t10 7.5q9 8 32.5 35.5t49.5 61.5q4 5 33.5 41.5t38.5 50.5q6 7 6 13t-6 14q-13 18 -28 37t-43 55q-27 35 -47 60t-29 34
q-5 5 -10 7.5t-12 2.5h-6.5t-10.5 -1q-6 -1 -8.5 -1h-5.5q-15 0 -24.5 9t-9.5 22q0 16 9.5 26t24.5 10h14t20 -1q19 -1 31.5 -1.5t25.5 -0.5q18 0 34 0.5t41 1.5q17 1 25.5 1h16.5q16 0 25.5 -9t9.5 -24q0 -14 -9.5 -23.5t-24.5 -9.5h-10.5t-14.5 1h-11.5h-6.5q-9 0 -12 -6
t2 -14q9 -15 19 -29t25 -33q11 -15 21.5 -28.5t33.5 -40.5q5 -6 10.5 -6t9.5 6l18 22.5t38 46.5q16 21 27 37t15 24q6 10 2.5 16.5t-13.5 6.5h-6t-10 -1q-8 -1 -13 -1h-10q-16 0 -25.5 9t-9.5 23q0 15 9.5 24t25.5 9h17t28 -1q25 -1 41 -1.5t33 -0.5q7 0 15.5 0.5t26.5 1.5
q17 0 25 0.5t15 0.5q15 0 24 -9.5t9 -24.5q0 -14 -9 -23.5t-24 -9.5h-7.5t-8.5 1t-7.5 1h-4.5q-10 0 -16.5 -2.5t-12.5 -9.5q-5 -5 -18.5 -22t-61.5 -80q-18 -21 -35 -42.5t-32 -42.5q-4 -5 -3.5 -11.5t5.5 -13.5q4 -5 9 -11.5t15 -18.5q18 -24 26.5 -35.5t15.5 -20.5
q24 -32 46.5 -60t32.5 -39q6 -7 12 -10t15 -3h7t13 1q7 1 10 1h6q15 0 24 -9t9 -23q0 -15 -9 -25t-25 -10h-14t-25 1q-24 1 -38 1.5t-27 0.5q-12 0 -24.5 -0.5t-33.5 -1.5q-18 0 -27.5 -0.5t-18.5 -0.5q-16 0 -25.5 9.5t-9.5 23.5t9.5 23.5t25.5 9.5h7.5t10.5 -1q8 -1 12 -1
h9q10 0 12.5 6t-2.5 15q-4 7 -22 30.5t-23 30.5q-14 17 -28.5 34t-29.5 36q-4 5 -10 5t-11 -5q-3 -4 -7.5 -9.5l-13.5 -16.5q-13 -15 -20 -23.5t-13 -16.5q-5 -7 -11 -15t-18 -23q-12 -16 -16 -22t-6 -8q-4 -7 -1.5 -12t10.5 -5h6.5h10.5q10 1 15 1h9q15 0 24.5 -9.5
t9.5 -23.5t-9.5 -23.5t-24.5 -9.5q-9 0 -19 0.5t-29 0.5z" />
    <glyph glyph-name="y" unicode="y" horiz-adv-x="711" 
d="M383 -113q-32 -75 -74 -105.5t-110 -30.5q-44 0 -72 20.5t-28 50.5q0 22 13 36t33 14q12 0 21.5 -4.5t20.5 -15.5q10 -11 22 -16t27 -5q36 0 58.5 29t22.5 76q0 20 -6 42.5t-25 70.5q-44 110 -91 223.5t-78 184.5q-8 16 -14.5 22t-16.5 6h-4.5t-7.5 -1q-8 -1 -12 -1h-8
q-16 0 -25 8.5t-9 23.5q0 17 9.5 26t26.5 9h14.5t26.5 -1q23 -1 36 -1.5t24 -0.5q14 0 27.5 0.5t37.5 1.5q20 0 30.5 0.5t20.5 0.5q19 0 28 -8.5t9 -25.5q0 -16 -9.5 -24.5t-27.5 -8.5q-7 0 -14.5 0.5t-18.5 0.5q-7 1 -9.5 1h-4.5q-10 0 -15 -3.5t-5 -10.5q1 -8 3.5 -17.5
t6.5 -21.5q16 -44 55.5 -142.5t86.5 -212.5q2 -6 5.5 -9t7.5 -3t7 2.5t5 8.5q24 61 55.5 146t60.5 170q9 25 14 43t6 27q0 12 -6.5 17.5t-19.5 5.5h-6t-11 -1q-9 -1 -14 -1h-10q-16 0 -25.5 9t-9.5 24t9.5 24.5t24.5 9.5h14t25 -1q24 -1 38.5 -1.5t28.5 -0.5q13 0 26.5 0.5
t35.5 1.5q16 1 23 1h14q18 0 27 -9t9 -26q0 -15 -8.5 -23.5t-24.5 -8.5h-6.5t-10.5 1q-6 1 -8 1h-4q-7 0 -12.5 -4.5t-11.5 -17.5q-7 -15 -29 -71t-79 -209q-26 -67 -36.5 -95.5t-18.5 -48.5q-29 -75 -39.5 -102t-20.5 -50z" />
    <glyph glyph-name="z" unicode="z" horiz-adv-x="574" 
d="M372 1h-166.5t-65.5 -1q-38 -1 -58.5 14.5t-20.5 44.5q0 16 7 31t24 35q16 19 40.5 44.5t116.5 117.5q66 66 103 104t45 49q11 13 15.5 21.5t4.5 14.5t-4.5 9t-13.5 3h-47.5h-47.5q-31 0 -63 -1t-61 -2q-15 -1 -22.5 -6.5t-11.5 -19.5q-6 -26 -9 -40.5t-6 -29.5
q-2 -15 -12 -23.5t-25 -8.5q-19 0 -29 12t-6 31q11 45 14.5 65t6.5 39q4 29 16 39.5t39 8.5q5 0 11.5 -0.5t21.5 -0.5q13 0 20 -0.5t13 -0.5q50 -2 119 -1t107 3q42 3 63.5 -12t21.5 -47q0 -14 -6 -28.5t-19 -32.5q-21 -28 -62 -72.5t-100 -101.5q-75 -75 -105 -106t-46 -49
q-5 -5 -8.5 -12t-2.5 -11q1 -5 5 -8.5t12 -4.5t34 -1.5t70 -0.5q29 0 58.5 1t55.5 2q17 1 24 6.5t11 18.5q3 15 5.5 31.5t4.5 36.5q1 15 11 24t24 9q18 0 29.5 -11.5t8.5 -29.5q-6 -37 -9.5 -59.5t-6.5 -43.5q-3 -28 -15.5 -39t-44.5 -11h-8h-15q-17 1 -26.5 1h-18.5z" />
    <glyph glyph-name="braceleft" unicode="{" horiz-adv-x="441" 
d="M372 -301q-13 0 -50.5 1t-71.5 -1q-61 -3 -95.5 26.5t-34.5 85.5q0 31 2.5 65t10.5 99q7 59 9 88.5t2 54.5q0 43 -14.5 62t-53.5 29q-12 3 -19 12t-7 22q0 12 6.5 20.5t19.5 13.5q43 16 55.5 34t12.5 57q0 24 -2 51.5t-9 82.5q-8 63 -10.5 97.5t-2.5 67.5q0 57 34.5 87
t95.5 27q34 -2 71.5 -1t49.5 1q23 0 35 -10t12 -29q0 -20 -11.5 -29.5t-34.5 -9.5h-20.5t-31.5 1q-27 1 -43 1.5t-32 0.5q-24 0 -33.5 -11t-9.5 -38q0 -24 2 -53t8 -87t8 -86.5t2 -52.5q0 -47 -14.5 -81t-38.5 -47q-4 -2 -5 -3t-1 -3q0 -1 0.5 -2t5.5 -5q25 -19 39 -52
t14 -75q0 -25 -2 -55.5t-8 -92.5q-6 -60 -8 -89t-2 -52q0 -27 10 -38.5t33 -10.5q56 2 79.5 2.5t47.5 0.5q22 0 34 -9.5t12 -27.5q0 -19 -12 -29t-34 -10z" />
    <glyph glyph-name="bar" unicode="|" horiz-adv-x="195" 
d="M146 719q-2 -41 -4 -169t-3 -260q-1 -128 0 -291t2 -201q1 -27 -9.5 -42.5t-30.5 -15.5q-21 0 -31 14t-9 44q1 38 2.5 199.5t1.5 292.5v308t-1 121t10 48t33 17q21 0 31 -16.5t8 -48.5z" />
    <glyph glyph-name="braceright" unicode="}" horiz-adv-x="441" 
d="M69 781q13 0 50.5 -1t71.5 1q61 3 95.5 -26.5t34.5 -85.5q0 -31 -2.5 -65t-10.5 -99q-7 -59 -9 -88.5t-2 -54.5q0 -43 14.5 -62t53.5 -29q12 -3 19 -12t7 -22q0 -12 -6.5 -20.5t-19.5 -13.5q-43 -16 -55.5 -34t-12.5 -57q0 -24 2 -51.5t9 -82.5q8 -63 10.5 -97.5
t2.5 -67.5q0 -57 -34.5 -87t-95.5 -27q-34 2 -71.5 1t-49.5 -1q-23 0 -35 10t-12 29q0 20 11.5 29.5t34.5 9.5h20.5t31.5 -1q27 -1 43 -1.5t32 -0.5q24 0 33.5 11t9.5 38q0 24 -2 53t-8 87t-8 86.5t-2 52.5q0 47 14.5 81t38.5 47q4 2 5 3t1 3q0 1 -0.5 2t-5.5 5
q-25 19 -39 52t-14 75q0 25 2 55.5t8 92.5q6 60 8 89t2 52q0 27 -10 38.5t-33 10.5q-56 -2 -79.5 -2.5t-47.5 -0.5q-22 0 -34 9.5t-12 27.5q0 19 12 29t34 10z" />
    <glyph glyph-name="asciitilde" unicode="~" horiz-adv-x="449" 
d="M50 290zM111 321q-4 -18 -11 -24.5t-21 -6.5q-15 0 -22 7.5t-7 22.5q0 52 27.5 84.5t72.5 32.5q23 0 43.5 -8.5t52.5 -33.5q20 -16 30 -21t19 -5q18 0 26.5 9.5t16.5 38.5q5 17 12.5 23.5t20.5 6.5t20.5 -8.5t7.5 -22.5q0 -54 -27.5 -85t-74.5 -31q-27 0 -49.5 9
t-51.5 36q-18 15 -26.5 19.5t-16.5 4.5q-16 0 -26 -11t-16 -37z" />
    <glyph glyph-name="exclamdown" unicode="&#xa1;" horiz-adv-x="245" 
d="M87 283q1 16 11 25.5t25 9.5t24.5 -10t8.5 -26q-2 -62 -2.5 -201.5t1.5 -213.5q1 -38 -11 -55t-40 -17q-23 0 -34.5 19t-8.5 52q7 74 15.5 214t10.5 203zM56 485q0 31 21.5 52.5t52.5 21.5q27 0 43 -15t16 -41q0 -30 -22 -52.5t-52 -22.5q-26 0 -42.5 16t-16.5 41z" />
    <glyph glyph-name="cent" unicode="&#xa2;" horiz-adv-x="584" 
d="M341 9q0 -18 -9 -28t-26 -10q-18 0 -27.5 10t-9.5 28v10.5t1 17.5v13.5v7.5q0 9 -3 12t-10 4q-100 17 -153.5 87.5t-53.5 186.5q0 122 57.5 198.5t155.5 90.5q6 1 8 3.5t2 8.5q0 3 -0.5 7.5t-0.5 14.5q-1 11 -1.5 17t-0.5 11q0 18 9.5 28t27.5 10q17 0 26 -10t9 -28v-9
t-1 -15q-1 -11 -1 -16.5v-10.5t2.5 -8.5t7.5 -4.5q38 -9 50.5 -15t23.5 -13q9 -6 13 -7.5t8 -1.5q5 0 8 3.5t3 9.5q0 23 9 34.5t27 11.5q15 0 23.5 -9.5t8.5 -26.5v-7.5t-1 -15.5q-1 -20 -1.5 -33.5t-0.5 -27.5q0 -33 0.5 -60t1.5 -49q1 -16 -9 -26t-24 -10q-17 0 -27 9.5
t-10 25.5q0 65 -40.5 104.5t-107.5 39.5q-81 0 -126 -54.5t-45 -155.5q0 -104 47.5 -161.5t131.5 -57.5q53 0 88.5 21t64.5 72q5 10 14 15t19 5q13 0 21.5 -8.5t8.5 -21.5q0 -6 -2 -14t-6 -17q-21 -48 -65 -79.5t-107 -42.5q-5 -1 -7 -4t-2 -10v-9v-15q1 -10 1 -15v-10z" />
    <glyph glyph-name="sterling" unicode="&#xa3;" horiz-adv-x="620" 
d="M166 9q-20 -11 -32 -15t-23 -4q-29 0 -46.5 17.5t-17.5 46.5q0 30 17.5 47.5t47.5 17.5q7 0 14 -1t18 -5q9 -2 14 -3t10 -1q21 0 35.5 19t14.5 50q0 25 -7 50t-40 89q-2 3 -4 4.5t-5 1.5h-38.5h-38.5q-18 0 -28 9.5t-10 27.5q0 17 10 26t28 9h23.5h22.5q5 0 6.5 2t0.5 7
q-7 24 -10 49t-3 53q0 101 62.5 161t166.5 60q87 0 144 -53.5t59 -122.5q1 -23 -9 -35.5t-29 -12.5q-16 0 -26.5 11t-16.5 35q-3 11 -8 23.5t-11 24.5q-16 29 -45 45t-67 16q-68 0 -104 -39.5t-36 -114.5q0 -25 4 -49t14 -54q1 -4 3 -5.5t6 -1.5h36t57 1h54h34q18 0 28 -9
t10 -26q0 -18 -10 -27.5t-28 -9.5h-31t-50 1h-42.5h-24.5q-4 0 -5.5 -2.5t0.5 -6.5q27 -66 32 -87.5t5 -42.5q0 -16 -2.5 -29.5t-9.5 -31.5q-5 -12 -6.5 -18t-1.5 -12q0 -18 26.5 -28t73.5 -10q66 0 98.5 30t42.5 99q2 17 11.5 26.5t24.5 9.5q16 0 25 -10.5t9 -29.5v-12
t-1 -10q-9 -79 -65 -124t-150 -45q-35 0 -66.5 5.5t-70.5 19.5q-15 6 -21 7.5t-10 1.5q-7 0 -14.5 -3t-23.5 -12z" />
    <glyph glyph-name="currency" unicode="&#xa4;" horiz-adv-x="577" 
d="M292 475q-47 0 -77.5 -32.5t-30.5 -84.5q0 -51 28 -81t72 -30q47 0 77.5 32.5t30.5 84.5q0 51 -28 81t-72 30zM453 452q11 -24 15.5 -43.5t4.5 -42.5q0 -25 -5 -46.5t-18 -47.5q-4 -7 -5 -10t-1 -5q0 -6 10 -16t56 -53q7 -6 10.5 -13t3.5 -15q0 -13 -12.5 -25t-24.5 -12
q-7 0 -13 2.5t-14 10.5q-49 52 -57.5 59.5t-15.5 7.5q-2 0 -5 -1t-10 -5q-24 -11 -44.5 -15.5t-44.5 -4.5q-23 0 -43 4t-43 14q-7 3 -9.5 4t-4.5 1q-7 0 -19 -11t-51 -54q-6 -7 -13 -10.5t-15 -3.5q-12 0 -24 12.5t-12 24.5q0 8 3.5 15t10.5 13q46 43 56 53t10 16q0 2 -1 5
t-5 11q-11 25 -15.5 45t-4.5 43q0 25 5 46t18 45q4 8 5 10.5t1 4.5q0 6 -10 16t-56 53q-7 6 -10.5 13t-3.5 15q0 13 12.5 25t24.5 12q7 0 13 -2.5t14 -10.5q49 -52 57.5 -59.5t15.5 -7.5q2 0 5 1t10 5q24 11 44.5 15.5t44.5 4.5q23 0 43 -4t43 -14q7 -3 9.5 -4t4.5 -1
q7 0 19 11t51 54q6 7 13 10.5t15 3.5q12 0 24 -12.5t12 -24.5q0 -8 -3.5 -15t-10.5 -13q-46 -43 -56 -53t-10 -16q0 -2 1 -5t5 -10z" />
    <glyph glyph-name="yen" unicode="&#xa5;" horiz-adv-x="726" 
d="M274 0q-13 -1 -19 -1h-10q-16 0 -25 10.5t-9 26.5q0 15 9 25t25 10q4 0 9 -0.5t15 -0.5l18 -1.5t12 -0.5q12 0 17.5 4.5t6.5 15.5q1 15 2 34t1 41q0 5 -2 7t-7 2h-23.5h-41.5q-31 -1 -47.5 -1h-29.5q-18 0 -28 9.5t-10 27.5q0 17 10 26t28 9h30t47 -1h41h25q4 0 6.5 2.5
t2.5 6.5q0 10 -1 23t-2 18q-1 4 -3.5 5.5t-7.5 1.5h-23.5h-40.5q-31 -1 -46 -1h-28q-18 0 -28 9.5t-10 27.5q0 17 10 26t28 9h18.5t29.5 -1h27h16q5 0 7 3.5t-1 7.5q-15 22 -34.5 51.5t-59.5 90.5q-38 58 -53 80.5l-23 34.5q-6 9 -10.5 12t-13.5 3h-5t-9 -1t-9 -1h-5
q-16 0 -25.5 10t-9.5 27q0 14 9.5 23.5t25.5 9.5h15t24 -1q20 -1 32 -1.5t24 -0.5q20 0 38 0.5t44 1.5q18 1 26.5 1h16.5q16 0 26 -10t10 -25t-10 -24.5t-26 -9.5h-12.5t-18.5 1h-12h-7q-10 0 -13 -5.5t2 -16.5q7 -16 35 -60l35 -55q18 -29 39.5 -62t39.5 -59q3 -5 6 -7
t6 -2q4 0 6.5 2t6.5 7q21 30 43.5 65t39.5 63q21 34 38 63t24 44q5 10 2 16.5t-12 6.5h-8h-13q-11 -1 -17.5 -1h-12.5q-15 0 -25 9.5t-10 24.5q0 16 9 25.5t26 9.5h18.5t29.5 -1q28 -1 46 -1.5t38 -0.5q7 0 15.5 0.5t24.5 1.5q16 0 23.5 0.5t13.5 0.5q16 0 25.5 -10t9.5 -26
q0 -15 -9.5 -24.5t-25.5 -9.5h-6t-8 1q-4 1 -6 1h-4q-10 0 -16.5 -3t-10.5 -9q-6 -9 -17 -26t-41 -65q-46 -72 -69.5 -107.5t-40.5 -61.5q-3 -4 -1 -7.5t7 -3.5h17h28q19 1 29 1h18q18 0 28 -9t10 -26q0 -18 -10 -27.5t-28 -9.5h-27t-45 1h-40.5h-24.5q-4 0 -6.5 -2t-3.5 -6
t-1 -13.5v-26.5q0 -4 2.5 -6.5t6.5 -2.5h24.5h41.5q29 1 44.5 1h28.5q18 0 28 -9t10 -26q0 -18 -10 -27.5t-28 -9.5h-28t-45 1h-41.5h-24.5q-4 0 -6.5 -2t-2.5 -7q1 -19 1.5 -37.5t1.5 -37.5q1 -11 7 -15.5t20 -4.5q4 0 10 0.5l18 1.5q10 0 14.5 0.5t7.5 0.5q16 0 24.5 -10
t8.5 -28q0 -14 -9.5 -24t-23.5 -10h-11.5t-21.5 1q-29 1 -49.5 1.5t-42.5 0.5q-21 0 -40.5 -0.5t-47.5 -1.5z" />
    <glyph glyph-name="brokenbar" unicode="&#xa6;" horiz-adv-x="205" 
d="M107 784q21 0 31 -16.5t8 -48.5q-3 -84 -5 -126t-2 -43q0 -44 0.5 -97t1.5 -65q1 -27 -9.5 -42.5t-30.5 -15.5q-21 0 -31 14t-9 44q1 19 2.5 73.5t1.5 88.5v46t-1 74v35v14q-1 31 10 48t33 17zM107 194q21 0 31 -16.5t8 -48.5q-3 -84 -5 -126t-2 -43q0 -44 0.5 -97
t1.5 -65q1 -27 -9.5 -42.5t-30.5 -15.5q-21 0 -31 14t-9 44q1 19 2.5 73.5t1.5 88.5v46t-1 74v35v14q-1 31 10 48t33 17z" />
    <glyph glyph-name="section" unicode="&#xa7;" horiz-adv-x="574" 
d="M157 -108q-1 -16 -10 -24t-24 -8t-23.5 9t-8.5 25v8.5t1 14.5q1 19 1.5 31.5t0.5 26.5q0 10 -0.5 20t-1.5 27q-1 12 -1.5 17.5t-0.5 9.5q0 16 8.5 25t23.5 9q16 0 24.5 -8.5t8.5 -24.5q0 -20 8 -39.5t22 -31.5q25 -21 50.5 -29.5t64.5 -8.5q49 0 77.5 23.5t28.5 63.5
q0 41 -30 66t-101 48l-70 23q-87 29 -120 63t-33 91q0 42 23.5 75t64.5 48q6 2 7 6t-4 8q-25 18 -37.5 46.5t-12.5 69.5q0 70 49 112.5t129 42.5q30 0 55.5 -5t49.5 -16q13 -6 20 -8.5t12 -2.5q6 0 8.5 4t3.5 15q1 16 10 24t24 8t23.5 -9t8.5 -25v-8.5t-1 -14.5
q-1 -19 -1.5 -31.5t-0.5 -26.5q0 -10 0.5 -20t1.5 -27q1 -12 1.5 -17.5t0.5 -9.5q0 -16 -8.5 -25t-23.5 -9q-16 0 -24.5 8.5t-8.5 24.5q0 21 -8 40.5t-21 31.5q-24 21 -49.5 29t-63.5 8q-50 0 -79.5 -23t-29.5 -63q0 -43 28.5 -68t98.5 -47l74 -24q86 -28 119 -61.5
t33 -90.5q0 -42 -23.5 -75.5t-66.5 -49.5q-6 -2 -6.5 -6t4.5 -8q27 -23 39.5 -50.5t12.5 -64.5q0 -70 -49 -112.5t-129 -42.5q-30 0 -55.5 5t-49.5 16q-13 6 -20 8.5t-12 2.5q-6 0 -8.5 -4t-3.5 -15zM363 192q35 0 60 24.5t25 57.5q0 36 -26.5 60t-86.5 43l-110 34
q-6 2 -9.5 2.5t-7.5 0.5q-33 -1 -55 -24.5t-22 -54.5q0 -36 24 -59t86 -45l100 -35q5 -2 11.5 -3t10.5 -1z" />
    <glyph glyph-name="dieresis" unicode="&#xa8;" horiz-adv-x="511" 
d="M425 717q1 -29 -24 -49t-62 -20q-23 0 -36.5 13.5t-13.5 35.5q0 29 24 49t59 20q25 0 38.5 -12.5t14.5 -36.5zM223 717q1 -29 -24 -49t-62 -20q-23 0 -36.5 13.5t-13.5 35.5q0 29 24 49t59 20q25 0 38.5 -12.5t14.5 -36.5z" />
    <glyph glyph-name="copyright" unicode="&#xa9;" horiz-adv-x="872" 
d="M822 356q0 -167 -108.5 -274.5t-277.5 -107.5t-277.5 107.5t-108.5 274.5t108.5 274.5t277.5 107.5t277.5 -107.5t108.5 -274.5zM108 356q0 -146 91 -237.5t237 -91.5t237 91.5t91 237.5t-91 237.5t-237 91.5t-237 -91.5t-91 -237.5zM611 243q-21 -52 -64.5 -79.5
t-105.5 -27.5q-92 0 -147.5 57.5t-55.5 154.5q0 101 55.5 160t146.5 59q25 0 47 -5t43 -17q8 -4 13 -6t7 -2q5 0 7 3.5t2 11.5q1 11 7.5 17.5t17.5 6.5t17.5 -6.5t6.5 -18.5v-37.5t1 -32.5q0 -14 0.5 -39.5t1.5 -35.5q0 -12 -6 -18.5t-17 -6.5q-10 0 -17 6t-10 18
q-4 30 -15 51.5t-29 36.5q-15 13 -35 20t-41 7q-62 0 -99 -42t-37 -116q0 -75 40.5 -120.5t106.5 -45.5q43 0 72.5 15.5t52.5 50.5q3 5 7 7.5t10 2.5q8 0 14 -5t6 -13q0 -3 -0.5 -5.5t-2.5 -5.5z" />
    <glyph glyph-name="ordfeminine" unicode="&#xaa;" horiz-adv-x="428" 
d="M283 374q-26 -26 -56.5 -38.5t-66.5 -12.5q-62 0 -96 28t-34 78q0 47 30 75.5t92 39.5q14 2 29.5 4t41.5 5q17 1 24 2t12 2q20 3 26 10t6 28v4q0 33 -23.5 52t-65.5 19q-43 0 -66 -15t-30 -48q-3 -14 -12.5 -21.5t-24.5 -7.5q-16 0 -25 10.5t-7 25.5q5 46 50.5 76.5
t114.5 30.5q72 0 109.5 -31t37.5 -89v-90.5v-91.5q0 -18 7 -27.5t20 -9.5q3 0 5.5 0.5t8.5 1.5q5 0 7.5 0.5t5.5 0.5q8 0 12.5 -6t4.5 -15q0 -7 -3 -13.5t-9 -10.5q-8 -6 -20 -9.5t-25 -3.5q-21 0 -35 5t-23 16q-4 5 -7 11t-5 13q-1 3 -2 4t-3 1q-1 0 -2 -0.5t-3 -2.5z
M94 432q0 -27 20 -41.5t57 -14.5q47 0 78 20.5t38 52.5q2 9 3 16.5t1 14.5v6q0 11 -4 16.5t-13 5.5h-6q-16 0 -42 -3t-58 -8q-40 -8 -57 -23t-17 -42z" />
    <glyph glyph-name="guillemotleft" unicode="&#xab;" horiz-adv-x="581" 
d="M20 51zM301 92q0 -16 -12.5 -28.5t-27.5 -12.5q-10 0 -18.5 5t-19.5 18q-18 21 -39 43.5t-42 41.5q-49 47 -70 67t-33 32q-9 9 -14 19.5t-5 20.5q0 12 5 22t14 18q6 5 13.5 11.5t26.5 22.5q24 21 37 32.5t24 20.5q29 25 50.5 45t40.5 39q8 8 15 11.5t15 3.5
q16 0 28 -12.5t12 -28.5q0 -8 -3.5 -15t-10.5 -14q-4 -4 -9 -8.5t-18 -14.5q-19 -15 -30.5 -25t-22.5 -20q-16 -14 -34 -31t-40 -37q-9 -8 -12.5 -13.5t-3.5 -11.5q0 -5 4 -11.5t12 -14.5q24 -24 41.5 -41t32.5 -32q15 -14 29 -27.5t35 -32.5q7 -7 10.5 -10t6.5 -6
q7 -6 10 -12t3 -14zM551 92q0 -16 -12.5 -28.5t-27.5 -12.5q-10 0 -18.5 5t-19.5 18q-18 21 -39 43.5t-42 41.5q-49 47 -70 67t-33 32q-9 9 -14 19.5t-5 20.5q0 12 5 22t14 18q6 5 13.5 11.5t26.5 22.5q24 21 37 32.5t24 20.5q29 25 50.5 45t40.5 39q8 8 15 11.5t15 3.5
q16 0 28 -12.5t12 -28.5q0 -8 -3.5 -15t-10.5 -14q-4 -4 -9 -8.5t-18 -14.5q-19 -15 -30.5 -25t-22.5 -20q-16 -14 -34 -31t-40 -37q-9 -8 -12.5 -13.5t-3.5 -11.5q0 -5 4 -11.5t12 -14.5q24 -24 41.5 -41t32.5 -32q15 -14 29 -27.5t35 -32.5q7 -7 10.5 -10t6.5 -6
q7 -6 10 -12t3 -14z" />
    <glyph glyph-name="logicalnot" unicode="&#xac;" horiz-adv-x="489" 
d="M416 313q1 -21 2 -41.5t1 -36.5q0 -22 -11 -33.5t-31 -11.5t-31 11.5t-10 31.5t1 39t-1 43q0 12 -5 17.5t-15 5.5h-54.5h-54.5t-54.5 -0.5t-52.5 -1.5q-22 -1 -33 10t-11 33q0 19 11.5 30t31.5 10q33 -1 59 -1.5t51 0.5q6 0 71 1t96 2q20 1 30.5 -10t10.5 -32v-7.5
t-1 -13.5v-26.5v-18.5z" />
    <glyph glyph-name="uni00AD" unicode="&#xad;" horiz-adv-x="331" 
d="M168 308q49 1 65.5 2t28.5 1q19 1 29 -10t10 -32q0 -20 -9.5 -31t-27.5 -10q-17 1 -52.5 0.5t-45.5 -0.5q-24 0 -48.5 -0.5t-46.5 -1.5q-21 -1 -31 10t-10 33q0 19 10.5 30t29.5 10q14 -1 33.5 -1h64.5z" />
    <glyph glyph-name="registered" unicode="&#xae;" horiz-adv-x="872" 
d="M822 356q0 -167 -108.5 -274.5t-277.5 -107.5t-277.5 107.5t-108.5 274.5t108.5 274.5t277.5 107.5t277.5 -107.5t108.5 -274.5zM653 180q0 -14 -12.5 -22t-34.5 -8q-36 0 -56 15.5t-29 49.5q-3 8 -5 16l-6 24q-6 26 -10.5 38t-10.5 22q-10 14 -26.5 20.5t-40.5 6.5h-9
h-10.5h-10.5q-8 -1 -11 -5t-3 -14q-1 -39 -1.5 -69t0.5 -43q0 -8 3.5 -11.5t10.5 -3.5h6.5t10.5 1t10 1h6q10 0 15.5 -6.5t5.5 -16.5q0 -11 -6 -17.5t-16 -6.5h-12.5t-20.5 1q-16 1 -25 1h-17h-20.5t-30.5 -1q-13 -1 -19 -1h-10q-10 0 -16 7t-6 17t6 16.5t16 6.5h6t9 -1
q5 -1 8 -1h5q7 0 10.5 3.5t3.5 11.5q1 22 1.5 61.5t0.5 85.5q1 46 0.5 85t-1.5 68q-1 8 -4.5 11.5t-11.5 3.5h-4.5h-7.5q-6 -1 -8.5 -1h-5.5q-11 0 -17 6.5t-6 16.5q0 11 6.5 17.5t17.5 6.5h13.5h22.5q16 -1 24 -1h15h16.5h26.5q25 1 39.5 1h29.5q77 0 113.5 -25t36.5 -79
q0 -37 -24.5 -64t-69.5 -40l-3 -3t-1 -2q0 -2 1 -3t3 -2q15 -3 26.5 -10t18.5 -17t11.5 -21t9.5 -34q3 -15 5.5 -23t4.5 -15q4 -14 12 -21.5t23 -10.5q3 0 6.5 -0.5t8.5 -2.5q6 -1 10 -6t4 -13zM378 405q0 -9 4 -13.5t13 -5.5h5.5h5.5h25q52 0 79 18.5t27 55.5q0 36 -25 53
t-79 17h-15.5h-15.5q-13 -1 -18 -6t-6 -18v-14.5v-15.5v-42v-14.5v-14.5zM108 356q0 -146 91 -237.5t237 -91.5t237 91.5t91 237.5t-91 237.5t-237 91.5t-237 -91.5t-91 -237.5z" />
    <glyph glyph-name="macron" unicode="&#xaf;" horiz-adv-x="414" 
d="M314 646q-18 1 -57.5 0.5t-50.5 -0.5q-24 0 -48.5 -0.5t-46.5 -1.5q-21 -1 -31 10t-10 33q0 19 10.5 30t29.5 10q14 -1 33.5 -1h64.5q47 1 68 1.5t36 1.5q19 1 29 -10t10 -32q0 -20 -9.5 -31t-27.5 -10z" />
    <glyph glyph-name="degree" unicode="&#xb0;" horiz-adv-x="470" 
d="M420 557q0 -84 -52.5 -137t-137.5 -53q-83 0 -131.5 48.5t-48.5 131.5q0 81 54 135t136 54t131 -49.5t49 -129.5zM131 549q0 -51 28 -81.5t73 -30.5q49 0 78 32t29 86q0 51 -28 81t-72 30q-47 0 -77.5 -32.5t-30.5 -84.5z" />
    <glyph glyph-name="plusminus" unicode="&#xb1;" horiz-adv-x="501" 
d="M290 313q1 -22 -9.5 -33.5t-30.5 -11.5q-18 0 -28 12t-9 32q1 9 0.5 26t-0.5 23q0 7 -3 10.5t-10 3.5h-21t-25 -1h-15h-9q-26 0 -38 9.5t-12 30.5q0 19 13 28.5t36 8.5q13 -1 37 -0.5t31 0.5q8 0 11 3t4 11q1 7 1 15t-1 22q-1 6 -1 9v5q0 21 10.5 32t28.5 11t28.5 -11.5
t9.5 -29.5q-1 -9 -0.5 -27t0.5 -24q0 -8 3.5 -11.5t10.5 -3.5h48t23 1q23 1 35.5 -9t12.5 -30q0 -19 -13 -29t-35 -9q-11 1 -35.5 0.5t-32.5 -0.5t-11.5 -3.5t-4.5 -12.5q-1 -6 -1 -13t2 -34zM246 151q-29 0 -59 -0.5t-56 -1.5q-21 -1 -31 9t-10 31q0 18 10.5 28t29.5 9
q34 -1 63 -1.5t55 0.5q63 1 85.5 2t38.5 1q19 1 29 -9.5t10 -29.5q0 -18 -10 -28.5t-27 -9.5q-22 1 -68.5 0.5t-59.5 -0.5z" />
    <glyph glyph-name="two.sup" unicode="&#xb2;" horiz-adv-x="370" 
d="M35 378zM178 379h-40.5h-41.5q-29 0 -45 13t-16 37q0 58 27.5 97t106.5 75q55 25 71.5 43t16.5 42q0 27 -18 43t-49 16q-24 0 -40.5 -8.5t-29.5 -28.5q-5 -9 -9 -18t-7 -22q-4 -15 -11 -21t-19 -6q-18 0 -27 10.5t-8 30.5q2 51 42.5 84.5t108.5 33.5q63 0 99.5 -31.5
t36.5 -85.5q0 -28 -12 -50.5t-36 -39.5q-9 -7 -33 -19t-63 -29q-34 -15 -56.5 -37t-22.5 -42q0 -13 5 -17.5t20 -4.5h28.5h28.5h37.5h36.5q14 0 18 8.5t2 38.5q-1 25 6.5 36.5t26.5 11.5q17 0 25 -11t8 -35q0 -61 -17.5 -88t-55.5 -27h-22t-35 1h-24.5h-12.5z" />
    <glyph glyph-name="three.sup" unicode="&#xb3;" horiz-adv-x="368" 
d="M34 375zM329 502q0 -58 -39.5 -92.5t-108.5 -34.5q-64 0 -105.5 34.5t-41.5 78.5q0 16 8.5 25t24.5 9q19 0 30.5 -24.5t12.5 -26.5q14 -25 31 -35.5t45 -10.5q32 0 50.5 17t18.5 47q0 35 -25 56t-79 32q-10 2 -14 6.5t-4 11.5q0 5 2 9t7 10q26 25 50.5 50.5t44.5 48.5
q6 8 3.5 14.5t-11.5 6.5h-13t-27 -1l-36 -1.5t-21 -0.5t-13 -2t-9 -10q-2 -5 -4.5 -10.5t-14.5 -34.5q-4 -9 -10.5 -13.5t-15.5 -4.5q-16 0 -22.5 9.5t-2.5 26.5q1 4 2 9l3 15q4 21 6.5 31.5t4.5 18.5q4 16 12 23.5t22 7.5q3 0 6.5 -0.5t11.5 -1.5q11 -2 18 -2.5t14 -0.5
h96.5t62.5 1q19 0 29 -7.5t10 -22.5q0 -8 -2.5 -14.5t-20.5 -28.5q-7 -7 -15 -15.5t-24 -26.5q-21 -21 -31 -32t-18 -20q-4 -5 -3 -7.5t7 -4.5q49 -13 73.5 -41t24.5 -71z" />
    <glyph glyph-name="acute" unicode="&#xb4;" horiz-adv-x="366" 
d="M334 767q-27 -24 -89.5 -72.5t-79.5 -58.5q-11 -6 -22.5 -3t-18.5 12q-6 10 -5 20.5t9 19.5q20 21 74 72t77 71q13 12 29 12t26 -12q13 -15 13 -32t-13 -29z" />
    <glyph glyph-name="mu" unicode="&#xb5;" horiz-adv-x="722" 
d="M490 65q-26 -38 -63 -56.5t-86 -18.5q-35 0 -63.5 14t-44.5 38q-4 6 -5.5 7t-3.5 1q-3 0 -4.5 -2t-1.5 -7q0 -16 0.5 -35t2.5 -57q2 -35 2.5 -51.5t0.5 -29.5q0 -17 -11 -26.5t-29 -9.5q-16 0 -26.5 10t-10.5 26v46.5v47.5v41v66q1 45 1 67.5v41.5q0 100 -1 174.5
t-3 106.5q-1 13 -7 18.5t-19 5.5q-5 0 -11 -0.5t-18 -2.5t-18.5 -2.5t-11.5 -0.5q-19 0 -29 9t-10 26q0 15 10.5 24.5t27.5 9.5q19 1 33.5 2t31.5 2q6 0 12 0.5t16 2.5q16 1 22.5 1.5t12.5 0.5q21 0 31.5 -11t10.5 -34v-16t-1 -39q0 -64 -0.5 -103t-0.5 -72
q0 -79 6.5 -114.5t22.5 -59.5q14 -22 39 -33.5t60 -11.5q37 0 66 13t48 39q18 26 26 66.5t8 112.5q0 34 -0.5 66t-2.5 101q-1 13 -7 18.5t-19 5.5q-5 0 -11 -0.5t-18 -2.5t-18.5 -2.5t-11.5 -0.5q-19 0 -29 9t-10 26q0 15 10.5 24.5t27.5 9.5q19 1 33.5 2t31.5 2q6 0 12 0.5
t16 2.5q16 1 22.5 1.5t12.5 0.5q23 0 33.5 -11t10.5 -34v-19.5t-1 -41.5q-2 -57 -2.5 -91.5t-0.5 -65.5v-98.5v-99.5q0 -13 7 -19.5t22 -6.5h12.5t18.5 1q11 1 16 1h9q16 0 26 -9.5t10 -23.5q0 -16 -10.5 -26.5t-28.5 -11.5h-11h-18q-13 1 -19.5 1h-11.5q-23 -1 -35 -1.5
t-20 -0.5q-16 0 -25.5 7t-12.5 23q-1 9 -2 20t-1 13q0 5 -2 7.5t-6 2.5q-3 0 -4.5 -1t-4.5 -5z" />
    <glyph glyph-name="paragraph" unicode="&#xb6;" horiz-adv-x="792" 
d="M294 -132q-19 -1 -26.5 -1h-13.5q-17 0 -27 11.5t-10 29.5q0 15 10.5 25.5t26.5 10.5q4 0 9 -0.5t16 -1.5q13 -1 20 -1.5t13 -0.5q19 0 26 6.5t7 22.5t2 143t-2 217q-1 18 -7.5 23.5t-26.5 4.5q-148 -6 -214.5 38.5t-66.5 149.5q0 86 54 132t156 46h25.5t41.5 -1
q56 -2 99 -2.5t95 -0.5q65 0 114 0.5t91 1.5q10 1 14.5 1h7.5q14 0 23 -10.5t9 -26.5q0 -15 -9 -25.5t-23 -10.5q-4 0 -8.5 0.5t-13.5 0.5l-15 1.5t-10 0.5q-13 0 -19.5 -7t-8.5 -24q-2 -25 -3 -86.5t-1 -176.5q0 -175 1 -274.5t2 -123.5q1 -12 7 -17t20 -5q4 0 9 0.5
t15 0.5q11 1 16 1.5t10 0.5q15 0 24 -10.5t9 -27.5q0 -14 -9.5 -24t-23.5 -10h-8.5h-16.5q-45 1 -94 1.5t-113 0.5q-55 0 -101.5 -0.5t-101.5 -2.5zM430 -39q1 -15 14 -19.5t53 -4.5q39 0 52 4t14 18q2 37 3 102t1 297q0 92 -1 160.5t-3 102.5q-1 19 -14 25t-48 6
q-41 0 -56 -6t-16 -26q-2 -29 -2.5 -90t-0.5 -170q0 -181 1 -265.5t3 -133.5z" />
    <glyph glyph-name="periodcentered" unicode="&#xb7;" horiz-adv-x="323" 
d="M235 275q0 -34 -24 -57.5t-58 -23.5q-30 0 -47.5 16.5t-17.5 44.5q0 33 24.5 58t57.5 25q28 0 46.5 -17.5t18.5 -45.5z" />
    <glyph glyph-name="cedilla" unicode="&#xb8;" horiz-adv-x="302" 
d="M264 -140q0 -41 -26 -64t-73 -23q-41 0 -70 24t-29 56q0 12 6.5 20t16.5 8q6 0 11.5 -3.5t8.5 -10.5q9 -19 24 -30t31 -11q18 0 27.5 8.5t9.5 23.5q0 16 -13.5 28t-39.5 20q-13 4 -18.5 9.5t-5.5 13.5t7 14t17 6q15 0 28 -3t29 -10q28 -12 43.5 -32t15.5 -44z" />
    <glyph glyph-name="one.sup" unicode="&#xb9;" horiz-adv-x="357" 
d="M50 380zM101 381q-13 -1 -17.5 -1h-7.5q-11 0 -16.5 7t-5.5 20q0 12 6.5 20.5t15.5 8.5h8h16q15 -1 23 -1h14q7 0 10 3t3 9q1 13 1.5 37t0.5 100v58.5v58.5q-2 8 -5.5 10.5t-11.5 1.5q-4 -1 -9.5 -2.5t-16.5 -6.5t-17 -7t-10 -3q-13 -3 -22.5 6t-9.5 23q0 10 4.5 15
t20.5 11q26 9 37 13t21 9q3 1 6.5 2.5l10.5 4.5q12 5 18 8t11 5q22 10 36 2t13 -28q0 -3 -0.5 -6.5t-2.5 -11.5q-2 -9 -3 -15t-1 -11v-68.5v-68.5v-99.5t1 -37.5q0 -7 3 -9.5t11 -2.5h11t17 1h16h10q10 0 16 -8.5t6 -21.5q0 -12 -6 -19t-16 -7h-7.5t-17.5 1q-28 0 -46 0.5
t-34 0.5q-17 0 -35.5 -0.5t-48.5 -0.5z" />
    <glyph glyph-name="ordmasculine" unicode="&#xba;" horiz-adv-x="459" 
d="M415 520q0 -91 -50.5 -144t-136.5 -53q-84 0 -134 52.5t-50 141.5q0 91 53.5 147.5t137.5 56.5q80 0 130 -56t50 -145zM110 527q0 -70 33.5 -110t92.5 -40q53 0 83 35t30 99q0 73 -33 114.5t-90 41.5q-52 0 -84 -38.5t-32 -101.5z" />
    <glyph glyph-name="guillemotright" unicode="&#xbb;" horiz-adv-x="581" 
d="M30 51zM30 92q0 -16 12.5 -28.5t27.5 -12.5q10 0 18.5 5t19.5 18q18 21 39 43.5t42 41.5q49 47 70 67t33 32q9 9 14 19.5t5 20.5q0 12 -5 22t-14 18q-6 5 -13.5 11.5t-26.5 22.5q-24 21 -37 32.5t-24 20.5q-29 25 -50.5 45t-40.5 39q-8 8 -15 11.5t-15 3.5
q-16 0 -28 -12.5t-12 -28.5q0 -8 3.5 -15t10.5 -14q4 -4 9 -8.5t18 -14.5q19 -15 30.5 -25t22.5 -20q16 -14 34 -31t40 -37q9 -8 12.5 -13.5t3.5 -11.5q0 -5 -4 -11.5t-12 -14.5q-24 -24 -41.5 -41t-32.5 -32q-15 -14 -29 -27.5t-35 -32.5q-7 -7 -10.5 -10t-6.5 -6
q-7 -6 -10 -12t-3 -14zM280 92q0 -16 12.5 -28.5t27.5 -12.5q10 0 18.5 5t19.5 18q18 21 39 43.5t42 41.5q49 47 70 67t33 32q9 9 14 19.5t5 20.5q0 12 -5 22t-14 18q-6 5 -13.5 11.5t-26.5 22.5q-24 21 -37 32.5t-24 20.5q-29 25 -50.5 45t-40.5 39q-8 8 -15 11.5t-15 3.5
q-16 0 -28 -12.5t-12 -28.5q0 -8 3.5 -15t10.5 -14q4 -4 9 -8.5t18 -14.5q19 -15 30.5 -25t22.5 -20q16 -14 34 -31t40 -37q9 -8 12.5 -13.5t3.5 -11.5q0 -5 -4 -11.5t-12 -14.5q-24 -24 -41.5 -41t-32.5 -32q-15 -14 -29 -27.5t-35 -32.5q-7 -7 -10.5 -10t-6.5 -6
q-7 -6 -10 -12t-3 -14z" />
    <glyph glyph-name="onequarter" unicode="&#xbc;" horiz-adv-x="828" 
d="M50 0zM50 330zM101 331q-13 -1 -17.5 -1h-7.5q-11 0 -16.5 7t-5.5 20q0 12 6.5 20.5t15.5 8.5h8h16q15 -1 23 -1h14q7 0 10 3t3 9q1 13 1.5 37t0.5 100v58.5v58.5q-2 8 -5.5 10.5t-11.5 1.5q-4 -1 -9.5 -2.5t-16.5 -6.5t-17 -7t-10 -3q-13 -3 -22.5 6t-9.5 23
q0 10 4.5 15t20.5 11q26 9 37 13t21 9q3 1 6.5 2.5l10.5 4.5q12 5 18 8t11 5q22 10 36 2t13 -28q0 -3 -0.5 -6.5t-2.5 -11.5q-2 -9 -3 -15t-1 -11v-68.5v-68.5v-99.5t1 -37.5q0 -7 3 -9.5t11 -2.5h11t17 1h16h10q10 0 16 -8.5t6 -21.5q0 -12 -6 -19t-16 -7h-7.5t-17.5 1
q-28 0 -46 0.5t-34 0.5q-17 0 -35.5 -0.5t-48.5 -0.5zM241 23q-15 -26 -34 -35.5t-37 1.5q-14 9 -14.5 26.5t12.5 35.5q34 47 99 144t118 182q7 11 93.5 149t95.5 156q18 34 34 44t37 1q19 -8 18.5 -29.5t-21.5 -46.5q-17 -20 -79 -113.5t-125 -193.5q-49 -78 -105 -169.5
t-92 -151.5zM625 0h-15.5h-7.5q-10 0 -16 7t-6 18t6.5 19.5t15.5 8.5h8.5t13.5 -1q11 -1 16.5 -1h11.5q7 0 9.5 3t2.5 10v8.5v13.5q1 11 1 16.5v10.5q0 7 -2.5 9.5t-8.5 2.5q-20 0 -79.5 0.5t-84.5 -0.5q-19 0 -27 6t-8 20q0 5 5.5 13.5t16.5 21.5t29 35.5t42 51.5
q22 26 43.5 50.5t38.5 42.5q24 28 40.5 39.5t31.5 11.5q16 0 24 -8.5t8 -24.5q0 -4 -0.5 -8l-1.5 -12q-2 -12 -2.5 -18t-0.5 -12q0 -24 -0.5 -60t-0.5 -86q0 -6 3 -8.5t9 -2.5h46q13 0 19 -6.5t4 -19.5q-2 -15 -9 -21t-22 -6h-8.5t-12.5 1h-10.5h-6.5q-6 0 -9 -3t-3 -9
v-10.5t1 -16.5v-13.5v-8.5q0 -7 3.5 -10t10.5 -3h6t10 1q6 1 9 1h5q9 0 15.5 -9t6.5 -19q0 -11 -6 -18t-16 -7h-7h-14q-23 1 -36.5 1h-26.5h-28t-36 -1zM554 179h51.5h50.5q6 0 9 2.5t3 8.5q1 26 0.5 71t-0.5 54t-6 11t-12 -6q-10 -11 -28.5 -33.5t-24.5 -29.5l-13.5 -18
t-21.5 -28q-6 -8 -9 -11.5t-5 -6.5q-4 -7 -2.5 -10.5t8.5 -3.5z" />
    <glyph glyph-name="onehalf" unicode="&#xbd;" horiz-adv-x="837" 
d="M50 0zM50 330zM101 331q-13 -1 -17.5 -1h-7.5q-11 0 -16.5 7t-5.5 20q0 12 6.5 20.5t15.5 8.5h8h16q15 -1 23 -1h14q7 0 10 3t3 9q1 13 1.5 37t0.5 100v58.5v58.5q-2 8 -5.5 10.5t-11.5 1.5q-4 -1 -9.5 -2.5t-16.5 -6.5t-17 -7t-10 -3q-13 -3 -22.5 6t-9.5 23
q0 10 4.5 15t20.5 11q26 9 37 13t21 9q3 1 6.5 2.5l10.5 4.5q12 5 18 8t11 5q22 10 36 2t13 -28q0 -3 -0.5 -6.5t-2.5 -11.5q-2 -9 -3 -15t-1 -11v-68.5v-68.5v-99.5t1 -37.5q0 -7 3 -9.5t11 -2.5h11t17 1h16h10q10 0 16 -8.5t6 -21.5q0 -12 -6 -19t-16 -7h-7.5t-17.5 1
q-28 0 -46 0.5t-34 0.5q-17 0 -35.5 -0.5t-48.5 -0.5zM645 -1h-40.5h-41.5q-29 0 -45 13t-16 37q0 58 27.5 97t106.5 75q55 25 71.5 43t16.5 42q0 27 -18 43t-49 16q-24 0 -40.5 -8.5t-29.5 -28.5q-5 -9 -9 -18t-7 -22q-4 -15 -11 -21t-19 -6q-18 0 -27 10.5t-8 30.5
q2 51 42.5 84.5t108.5 33.5q63 0 99.5 -31.5t36.5 -85.5q0 -28 -12 -50.5t-36 -39.5q-9 -7 -33 -19t-63 -29q-34 -15 -56.5 -37t-22.5 -42q0 -13 5 -17.5t20 -4.5h28.5h28.5h37.5h36.5q14 0 18 8.5t2 38.5q-1 25 6.5 36.5t26.5 11.5q17 0 25 -11t8 -35q0 -61 -17.5 -88
t-55.5 -27h-22t-35 1h-24.5h-12.5zM241 23q-15 -26 -34 -35.5t-37 1.5q-14 9 -14.5 26.5t12.5 35.5q34 47 99 144t118 182q7 11 93.5 149t95.5 156q18 34 34 44t37 1q19 -8 18.5 -29.5t-21.5 -46.5q-17 -20 -79 -113.5t-125 -193.5q-49 -78 -105 -169.5t-92 -151.5z" />
    <glyph glyph-name="threequarters" unicode="&#xbe;" horiz-adv-x="818" 
d="M34 0zM232 23q-15 -26 -34 -35.5t-37 1.5q-14 9 -14.5 26.5t12.5 35.5q34 47 99 144t118 182q7 11 93.5 149t95.5 156q18 34 34 44t37 1q19 -8 18.5 -29.5t-21.5 -46.5q-17 -20 -79 -113.5t-125 -193.5q-49 -78 -105 -169.5t-92 -151.5zM615 0h-15.5h-7.5q-10 0 -16 7
t-6 18t6.5 19.5t15.5 8.5h8.5t13.5 -1q11 -1 16.5 -1h11.5q7 0 9.5 3t2.5 10v8.5v13.5q1 11 1 16.5v10.5q0 7 -2.5 9.5t-8.5 2.5q-20 0 -79.5 0.5t-84.5 -0.5q-19 0 -27 6t-8 20q0 5 5.5 13.5t16.5 21.5t29 35.5t42 51.5q22 26 43.5 50.5t38.5 42.5q24 28 40.5 39.5
t31.5 11.5q16 0 24 -8.5t8 -24.5q0 -4 -0.5 -8l-1.5 -12q-2 -12 -2.5 -18t-0.5 -12q0 -24 -0.5 -60t-0.5 -86q0 -6 3 -8.5t9 -2.5h46q13 0 19 -6.5t4 -19.5q-2 -15 -9 -21t-22 -6h-8.5t-12.5 1h-10.5h-6.5q-6 0 -9 -3t-3 -9v-10.5t1 -16.5v-13.5v-8.5q0 -7 3.5 -10t10.5 -3
h6t10 1q6 1 9 1h5q9 0 15.5 -9t6.5 -19q0 -11 -6 -18t-16 -7h-7h-14q-23 1 -36.5 1h-26.5h-28t-36 -1zM544 179h51.5h50.5q6 0 9 2.5t3 8.5q1 26 0.5 71t-0.5 54t-6 11t-12 -6q-10 -11 -28.5 -33.5t-24.5 -29.5l-13.5 -18t-21.5 -28q-6 -8 -9 -11.5t-5 -6.5
q-4 -7 -2.5 -10.5t8.5 -3.5zM34 325zM329 452q0 -58 -39.5 -92.5t-108.5 -34.5q-64 0 -105.5 34.5t-41.5 78.5q0 16 8.5 25t24.5 9q19 0 30.5 -24.5t12.5 -26.5q14 -25 31 -35.5t45 -10.5q32 0 50.5 17t18.5 47q0 35 -25 56t-79 32q-10 2 -14 6.5t-4 11.5q0 5 2 9t7 10
q26 25 50.5 50.5t44.5 48.5q6 8 3.5 14.5t-11.5 6.5h-13t-27 -1l-36 -1.5t-21 -0.5t-13 -2t-9 -10q-2 -5 -4.5 -10.5t-14.5 -34.5q-4 -9 -10.5 -13.5t-15.5 -4.5q-16 0 -22.5 9.5t-2.5 26.5q1 4 2 9l3 15q4 21 6.5 31.5t4.5 18.5q4 16 12 23.5t22 7.5q3 0 6.5 -0.5
t11.5 -1.5q11 -2 18 -2.5t14 -0.5h96.5t62.5 1q19 0 29 -7.5t10 -22.5q0 -8 -2.5 -14.5t-20.5 -28.5q-7 -7 -15 -15.5t-24 -26.5q-21 -21 -31 -32t-18 -20q-4 -5 -3 -7.5t7 -4.5q49 -13 73.5 -41t24.5 -71z" />
    <glyph glyph-name="questiondown" unicode="&#xbf;" horiz-adv-x="541" 
d="M256 321q0 9 6.5 14t18.5 5q23 0 38 -16.5t16 -44.5q1 -35 -16.5 -62t-75.5 -65q-68 -43 -89 -78t-21 -81q0 -64 34 -98.5t96 -34.5q46 0 78 16.5t51 50.5q4 6 10 23.5t14 45.5q9 27 19.5 37.5t27.5 10.5q18 0 28 -12t10 -34q0 -84 -67 -143.5t-174 -59.5
q-97 0 -153.5 54t-56.5 146q0 36 9 66t27 55q14 19 34.5 36.5t63.5 44.5q49 30 63 48t14 39q0 6 -0.5 11.5t-2.5 12.5l-1.5 7.5t-0.5 5.5zM219 485q0 31 21.5 52.5t52.5 21.5q27 0 43 -15t16 -41q0 -30 -22 -52.5t-52 -22.5q-26 0 -42.5 16t-16.5 41z" />
    <glyph glyph-name="Agrave" unicode="&#xc0;" horiz-adv-x="830" 
d="M15 0zM97 2q-19 -1 -27 -1.5t-15 -0.5q-20 0 -30 9t-10 26t11 27t29 10q5 0 10 -0.5l15 -1.5q8 -1 11.5 -1.5t6.5 -0.5q10 0 16.5 6t11.5 19q42 115 57 156.5t32 89.5q11 33 24 70t37 105q19 56 28 81t15 43q20 57 38.5 73t58.5 16q39 0 57.5 -15t38.5 -72
q17 -48 52 -152t47 -140q27 -80 52.5 -151t41.5 -111q3 -8 10.5 -12.5t17.5 -4.5h6.5h11.5q10 1 15.5 1h10.5q19 0 28.5 -8.5t9.5 -25.5t-8.5 -26.5t-24.5 -9.5q-9 0 -19 0.5t-32 0.5q-26 1 -40 1.5t-27 0.5t-27.5 -0.5t-41.5 -0.5q-29 -1 -44.5 -1.5t-29.5 -0.5
q-19 0 -28.5 9t-9.5 26q0 15 10.5 25.5t27.5 10.5h15.5t22.5 -1q10 -1 15 -1h9q17 0 22.5 10t-0.5 30q-7 26 -23.5 74t-20.5 61q-3 9 -9.5 13t-20.5 5q-12 1 -36 1h-85h-23h-34q-24 -1 -37.5 -1h-26.5q-14 0 -19.5 -4t-11.5 -19q-13 -37 -24 -71.5t-20 -64.5q-6 -19 0 -27
t26 -8h11t18 1q14 1 22 1h15q16 0 25 -9.5t9 -25.5q0 -17 -8.5 -26t-25.5 -9q-6 0 -14.5 0.5t-27.5 0.5q-32 2 -52 2.5t-40 0.5q-16 0 -32 -0.5t-43 -1.5zM300 365q-6 -17 -1 -25t22 -9q14 -1 31.5 -1h57.5h57.5t35.5 1q14 1 18.5 8t0.5 21q-25 79 -50 151.5t-45 126.5
q-2 7 -6 10t-10 3q-7 0 -11 -3t-6 -10q-14 -38 -32.5 -90.5t-61.5 -182.5zM254 895q30 -19 100 -56t89 -44q11 -4 22.5 1t16.5 15t2 20.5t-13 18.5q-23 17 -85 57.5t-89 56.5q-15 9 -30 6.5t-24 -15.5q-10 -17 -7.5 -34t18.5 -26z" />
    <glyph glyph-name="Aacute" unicode="&#xc1;" horiz-adv-x="830" 
d="M15 0zM97 2q-19 -1 -27 -1.5t-15 -0.5q-20 0 -30 9t-10 26t11 27t29 10q5 0 10 -0.5l15 -1.5q8 -1 11.5 -1.5t6.5 -0.5q10 0 16.5 6t11.5 19q42 115 57 156.5t32 89.5q11 33 24 70t37 105q19 56 28 81t15 43q20 57 38.5 73t58.5 16q39 0 57.5 -15t38.5 -72
q17 -48 52 -152t47 -140q27 -80 52.5 -151t41.5 -111q3 -8 10.5 -12.5t17.5 -4.5h6.5h11.5q10 1 15.5 1h10.5q19 0 28.5 -8.5t9.5 -25.5t-8.5 -26.5t-24.5 -9.5q-9 0 -19 0.5t-32 0.5q-26 1 -40 1.5t-27 0.5t-27.5 -0.5t-41.5 -0.5q-29 -1 -44.5 -1.5t-29.5 -0.5
q-19 0 -28.5 9t-9.5 26q0 15 10.5 25.5t27.5 10.5h15.5t22.5 -1q10 -1 15 -1h9q17 0 22.5 10t-0.5 30q-7 26 -23.5 74t-20.5 61q-3 9 -9.5 13t-20.5 5q-12 1 -36 1h-85h-23h-34q-24 -1 -37.5 -1h-26.5q-14 0 -19.5 -4t-11.5 -19q-13 -37 -24 -71.5t-20 -64.5q-6 -19 0 -27
t26 -8h11t18 1q14 1 22 1h15q16 0 25 -9.5t9 -25.5q0 -17 -8.5 -26t-25.5 -9q-6 0 -14.5 0.5t-27.5 0.5q-32 2 -52 2.5t-40 0.5q-16 0 -32 -0.5t-43 -1.5zM300 365q-6 -17 -1 -25t22 -9q14 -1 31.5 -1h57.5h57.5t35.5 1q14 1 18.5 8t0.5 21q-25 79 -50 151.5t-45 126.5
q-2 7 -6 10t-10 3q-7 0 -11 -3t-6 -10q-14 -38 -32.5 -90.5t-61.5 -182.5zM581 895q-30 -19 -100 -56t-89 -44q-11 -4 -22.5 1t-16.5 15t-2 20.5t13 18.5q23 17 85 57.5t89 56.5q15 9 30 6.5t24 -15.5q10 -17 7.5 -34t-18.5 -26z" />
    <glyph glyph-name="Acircumflex" unicode="&#xc2;" horiz-adv-x="830" 
d="M15 0zM97 2q-19 -1 -27 -1.5t-15 -0.5q-20 0 -30 9t-10 26t11 27t29 10q5 0 10 -0.5l15 -1.5q8 -1 11.5 -1.5t6.5 -0.5q10 0 16.5 6t11.5 19q42 115 57 156.5t32 89.5q11 33 24 70t37 105q19 56 28 81t15 43q20 57 38.5 73t58.5 16q39 0 57.5 -15t38.5 -72
q17 -48 52 -152t47 -140q27 -80 52.5 -151t41.5 -111q3 -8 10.5 -12.5t17.5 -4.5h6.5h11.5q10 1 15.5 1h10.5q19 0 28.5 -8.5t9.5 -25.5t-8.5 -26.5t-24.5 -9.5q-9 0 -19 0.5t-32 0.5q-26 1 -40 1.5t-27 0.5t-27.5 -0.5t-41.5 -0.5q-29 -1 -44.5 -1.5t-29.5 -0.5
q-19 0 -28.5 9t-9.5 26q0 15 10.5 25.5t27.5 10.5h15.5t22.5 -1q10 -1 15 -1h9q17 0 22.5 10t-0.5 30q-7 26 -23.5 74t-20.5 61q-3 9 -9.5 13t-20.5 5q-12 1 -36 1h-85h-23h-34q-24 -1 -37.5 -1h-26.5q-14 0 -19.5 -4t-11.5 -19q-13 -37 -24 -71.5t-20 -64.5q-6 -19 0 -27
t26 -8h11t18 1q14 1 22 1h15q16 0 25 -9.5t9 -25.5q0 -17 -8.5 -26t-25.5 -9q-6 0 -14.5 0.5t-27.5 0.5q-32 2 -52 2.5t-40 0.5q-16 0 -32 -0.5t-43 -1.5zM300 365q-6 -17 -1 -25t22 -9q14 -1 31.5 -1h57.5h57.5t35.5 1q14 1 18.5 8t0.5 21q-25 79 -50 151.5t-45 126.5
q-2 7 -6 10t-10 3q-7 0 -11 -3t-6 -10q-14 -38 -32.5 -90.5t-61.5 -182.5zM325 819q-19 -16 -25.5 -21t-9.5 -7q-10 -6 -21.5 -3t-18.5 12q-8 10 -7 21.5t11 21.5q3 3 9 8.5t22 18.5q16 14 24.5 21t16.5 14q17 15 34.5 29.5t29.5 23.5q10 7 16.5 10t14.5 3q7 0 14 -3t14 -9
q2 -1 4 -3.5t9 -7.5q17 -15 28.5 -25t21.5 -19q6 -5 13 -11.5t21 -18.5q19 -17 26.5 -23.5t11.5 -10.5q8 -9 8.5 -18.5t-6.5 -19.5q-8 -10 -19.5 -12.5t-22.5 3.5q-12 6 -57.5 43.5t-56.5 46.5q-5 4 -7.5 5.5t-4.5 1.5q-3 0 -5 -1t-7 -5q-17 -13 -34.5 -27t-46.5 -38z" />
    <glyph glyph-name="Atilde" unicode="&#xc3;" horiz-adv-x="830" 
d="M15 0zM97 2q-19 -1 -27 -1.5t-15 -0.5q-20 0 -30 9t-10 26t11 27t29 10q5 0 10 -0.5l15 -1.5q8 -1 11.5 -1.5t6.5 -0.5q10 0 16.5 6t11.5 19q42 115 57 156.5t32 89.5q11 33 24 70t37 105q19 56 28 81t15 43q20 57 38.5 73t58.5 16q39 0 57.5 -15t38.5 -72
q17 -48 52 -152t47 -140q27 -80 52.5 -151t41.5 -111q3 -8 10.5 -12.5t17.5 -4.5h6.5h11.5q10 1 15.5 1h10.5q19 0 28.5 -8.5t9.5 -25.5t-8.5 -26.5t-24.5 -9.5q-9 0 -19 0.5t-32 0.5q-26 1 -40 1.5t-27 0.5t-27.5 -0.5t-41.5 -0.5q-29 -1 -44.5 -1.5t-29.5 -0.5
q-19 0 -28.5 9t-9.5 26q0 15 10.5 25.5t27.5 10.5h15.5t22.5 -1q10 -1 15 -1h9q17 0 22.5 10t-0.5 30q-7 26 -23.5 74t-20.5 61q-3 9 -9.5 13t-20.5 5q-12 1 -36 1h-85h-23h-34q-24 -1 -37.5 -1h-26.5q-14 0 -19.5 -4t-11.5 -19q-13 -37 -24 -71.5t-20 -64.5q-6 -19 0 -27
t26 -8h11t18 1q14 1 22 1h15q16 0 25 -9.5t9 -25.5q0 -17 -8.5 -26t-25.5 -9q-6 0 -14.5 0.5t-27.5 0.5q-32 2 -52 2.5t-40 0.5q-16 0 -32 -0.5t-43 -1.5zM300 365q-6 -17 -1 -25t22 -9q14 -1 31.5 -1h57.5h57.5t35.5 1q14 1 18.5 8t0.5 21q-25 79 -50 151.5t-45 126.5
q-2 7 -6 10t-10 3q-7 0 -11 -3t-6 -10q-14 -38 -32.5 -90.5t-61.5 -182.5zM307 802q-4 -17 -11.5 -23.5t-20.5 -6.5q-15 0 -22 7t-7 22q0 50 27.5 80.5t72.5 30.5q23 0 43.5 -8t52.5 -31q20 -16 30 -20.5t19 -4.5q18 0 26.5 9t16.5 36q5 16 12.5 22.5t20.5 6.5t20.5 -8.5
t7.5 -21.5q0 -52 -27.5 -81t-74.5 -29q-27 0 -49.5 8.5t-51.5 34.5q-18 14 -26.5 18.5t-16.5 4.5q-16 0 -26 -11t-16 -35z" />
    <glyph glyph-name="Adieresis" unicode="&#xc4;" horiz-adv-x="830" 
d="M15 0zM97 2q-19 -1 -27 -1.5t-15 -0.5q-20 0 -30 9t-10 26t11 27t29 10q5 0 10 -0.5l15 -1.5q8 -1 11.5 -1.5t6.5 -0.5q10 0 16.5 6t11.5 19q42 115 57 156.5t32 89.5q11 33 24 70t37 105q19 56 28 81t15 43q20 57 38.5 73t58.5 16q39 0 57.5 -15t38.5 -72
q17 -48 52 -152t47 -140q27 -80 52.5 -151t41.5 -111q3 -8 10.5 -12.5t17.5 -4.5h6.5h11.5q10 1 15.5 1h10.5q19 0 28.5 -8.5t9.5 -25.5t-8.5 -26.5t-24.5 -9.5q-9 0 -19 0.5t-32 0.5q-26 1 -40 1.5t-27 0.5t-27.5 -0.5t-41.5 -0.5q-29 -1 -44.5 -1.5t-29.5 -0.5
q-19 0 -28.5 9t-9.5 26q0 15 10.5 25.5t27.5 10.5h15.5t22.5 -1q10 -1 15 -1h9q17 0 22.5 10t-0.5 30q-7 26 -23.5 74t-20.5 61q-3 9 -9.5 13t-20.5 5q-12 1 -36 1h-85h-23h-34q-24 -1 -37.5 -1h-26.5q-14 0 -19.5 -4t-11.5 -19q-13 -37 -24 -71.5t-20 -64.5q-6 -19 0 -27
t26 -8h11t18 1q14 1 22 1h15q16 0 25 -9.5t9 -25.5q0 -17 -8.5 -26t-25.5 -9q-6 0 -14.5 0.5t-27.5 0.5q-32 2 -52 2.5t-40 0.5q-16 0 -32 -0.5t-43 -1.5zM300 365q-6 -17 -1 -25t22 -9q14 -1 31.5 -1h57.5h57.5t35.5 1q14 1 18.5 8t0.5 21q-25 79 -50 151.5t-45 126.5
q-2 7 -6 10t-10 3q-7 0 -11 -3t-6 -10q-14 -38 -32.5 -90.5t-61.5 -182.5zM584 847q1 -27 -23 -45t-59 -18q-21 0 -34.5 12.5t-13.5 31.5q0 27 23 45t56 18q24 0 37 -11t14 -33zM392 847q1 -27 -23 -45t-59 -18q-22 0 -35 12.5t-13 31.5q0 27 23 45t56 18q24 0 37 -11
t14 -33z" />
    <glyph glyph-name="Aring" unicode="&#xc5;" horiz-adv-x="830" 
d="M15 0zM97 2q-19 -1 -27 -1.5t-15 -0.5q-20 0 -30 9t-10 26t11 27t29 10q5 0 10 -0.5l15 -1.5q8 -1 11.5 -1.5t6.5 -0.5q10 0 16.5 6t11.5 19q42 115 57 156.5t32 89.5q11 33 24 70t37 105q19 56 28 81t15 43q20 57 38.5 73t58.5 16q39 0 57.5 -15t38.5 -72
q17 -48 52 -152t47 -140q27 -80 52.5 -151t41.5 -111q3 -8 10.5 -12.5t17.5 -4.5h6.5h11.5q10 1 15.5 1h10.5q19 0 28.5 -8.5t9.5 -25.5t-8.5 -26.5t-24.5 -9.5q-9 0 -19 0.5t-32 0.5q-26 1 -40 1.5t-27 0.5t-27.5 -0.5t-41.5 -0.5q-29 -1 -44.5 -1.5t-29.5 -0.5
q-19 0 -28.5 9t-9.5 26q0 15 10.5 25.5t27.5 10.5h15.5t22.5 -1q10 -1 15 -1h9q17 0 22.5 10t-0.5 30q-7 26 -23.5 74t-20.5 61q-3 9 -9.5 13t-20.5 5q-12 1 -36 1h-85h-23h-34q-24 -1 -37.5 -1h-26.5q-14 0 -19.5 -4t-11.5 -19q-13 -37 -24 -71.5t-20 -64.5q-6 -19 0 -27
t26 -8h11t18 1q14 1 22 1h15q16 0 25 -9.5t9 -25.5q0 -17 -8.5 -26t-25.5 -9q-6 0 -14.5 0.5t-27.5 0.5q-32 2 -52 2.5t-40 0.5q-16 0 -32 -0.5t-43 -1.5zM300 365q-6 -17 -1 -25t22 -9q14 -1 31.5 -1h57.5h57.5t35.5 1q14 1 18.5 8t0.5 21q-25 79 -50 151.5t-45 126.5
q-2 7 -6 10t-10 3q-7 0 -11 -3t-6 -10q-14 -38 -32.5 -90.5t-61.5 -182.5zM535 872q0 -45 -31 -72.5t-82 -27.5q-50 0 -78.5 25.5t-28.5 69.5q0 43 32 71t81 28t78 -25.5t29 -68.5zM377 869q0 -20 13 -32t34 -12q22 0 35.5 12.5t13.5 32.5q0 18 -13 30t-33 12q-22 0 -36 -12
t-14 -31z" />
    <glyph glyph-name="AE" unicode="&#xc6;" horiz-adv-x="1125" 
d="M1055 34q-2 -22 -12 -31.5t-29 -9.5q-3 0 -7.5 0.5t-14.5 1.5q-19 3 -30.5 4t-22.5 1q-36 1 -144.5 2t-178.5 1q-21 0 -41.5 -0.5t-51.5 -1.5q-17 -1 -24.5 -1h-13.5q-17 0 -26.5 10t-9.5 27q0 16 9.5 25.5t25.5 9.5q5 0 10.5 -0.5t15.5 -0.5q11 -1 17 -1.5t11 -0.5
q12 0 17 5t6 17q2 30 3 65t1 85q0 10 -5 15t-15 6q-15 1 -53 1h-41h-22h-37q-26 -1 -39 -1h-24q-10 0 -15 -3t-16 -20q-10 -16 -20.5 -34l-59.5 -102q-9 -16 -1.5 -25.5t27.5 -9.5h11t18 1q14 1 22 1h15q17 0 27.5 -10t10.5 -25q0 -17 -10.5 -27.5t-27.5 -10.5h-14.5
t-27.5 1q-32 1 -52 1.5t-40 0.5q-16 0 -33 -0.5t-46 -1.5q-19 -1 -27 -1h-15q-19 0 -29.5 10t-10.5 28q0 17 11 27.5t29 10.5q5 0 10.5 -0.5t16.5 -0.5q6 -1 8.5 -1h4.5q12 0 17.5 4.5t13.5 17.5q91 151 170.5 286.5t150.5 260.5q26 45 45 60.5t53 15.5h39.5h38.5h112h112
h49.5t24.5 1q12 1 24 1.5t30 1.5q15 1 20.5 1h9.5q20 0 30 -9.5t12 -31.5q3 -32 9.5 -70.5t12.5 -60.5q6 -21 -5.5 -35t-32.5 -14q-14 0 -24.5 9t-12.5 25q-4 32 -8 53.5t-8 36.5q-4 14 -10.5 19.5t-23.5 6.5q-39 2 -139 2t-128 -1q-16 -1 -22.5 -8t-7.5 -24
q-2 -29 -1.5 -97t2.5 -93q1 -17 7.5 -23t23.5 -8q18 -2 71 -1.5t71 2.5q7 1 10 4t3 10v11t-1 18q-1 14 -1 21v14q0 15 10.5 24.5t25.5 9.5t25 -9.5t9 -24.5q-2 -44 -1.5 -119t3.5 -107q1 -17 -8.5 -27.5t-25.5 -10.5q-17 0 -27.5 10t-10.5 26v14.5t1 21.5q1 12 1 18.5v11.5
q0 7 -3 10t-10 4q-14 2 -66 2t-76 -1q-17 -1 -23 -7.5t-7 -25.5q-2 -25 -2.5 -97.5t0.5 -102.5q1 -13 7.5 -19t22.5 -7q33 -2 137.5 -2t138.5 2q16 1 22.5 6t11.5 20q6 19 10.5 40.5t6.5 44.5q1 17 11 26.5t27 9.5q20 0 30.5 -15t4.5 -36t-12.5 -60.5t-9.5 -72.5zM385 331
q12 -1 28 -1h51q34 0 54.5 0.5t27.5 0.5q11 1 15 4.5t4 16.5v63.5v63.5q-1 47 -1.5 80.5t-1.5 55.5q-1 18 -5.5 25.5t-13.5 7.5q-7 0 -12 -3.5t-11 -14.5q-11 -19 -66.5 -113t-89.5 -152q-9 -16 -3.5 -24.5t24.5 -9.5z" />
    <glyph glyph-name="Ccedilla" unicode="&#xc7;" horiz-adv-x="728" 
d="M480 -120q0 -41 -26 -64t-73 -23q-41 0 -70 24t-29 56q0 12 6.5 20t16.5 8q6 0 11.5 -3.5t8.5 -10.5q9 -19 24 -30t31 -11q18 0 27.5 8.5t9.5 23.5q0 16 -13.5 28t-39.5 20q-13 4 -18.5 9.5t-5.5 13.5q0 4 1.5 8t7.5 10q4 6 5.5 9t1.5 6q0 5 -3 7t-16 4q-135 16 -211 111
t-76 248q0 176 91.5 275.5t247.5 99.5q44 0 81.5 -9.5t74.5 -30.5q4 -2 15.5 -8.5t16.5 -6.5q8 0 11 6.5t3 21.5q0 19 10 30t27 11q18 0 27.5 -11t8.5 -31q-3 -69 -3.5 -85t-0.5 -32q-1 -45 -0.5 -78t2.5 -58q1 -17 -9 -28.5t-26 -11.5q-17 0 -28 11t-11 28q0 62 -20 107.5
t-59 71.5q-23 16 -55 25t-65 9q-117 0 -184.5 -77.5t-67.5 -216.5q0 -136 68.5 -214.5t184.5 -78.5q80 0 128.5 26t86.5 88q5 9 13 14t17 5q14 0 23.5 -9t9.5 -23q0 -6 -1 -11t-4 -10q-35 -69 -93 -109t-138 -50q-11 -1 -18 -7t-7 -13q0 -6 3 -9.5t11 -6.5
q28 -11 43.5 -30.5t15.5 -45.5z" />
    <glyph glyph-name="Egrave" unicode="&#xc8;" 
d="M30 0zM89 720q30 -2 56.5 -3t58.5 -1h112h112q36 0 67 1t67 3q12 1 16.5 1h7.5q20 0 30 -9.5t12 -31.5q3 -32 9.5 -70.5t12.5 -60.5q6 -21 -5.5 -35t-32.5 -14q-14 0 -24.5 9t-12.5 25q-4 32 -8 53.5t-8 36.5q-4 14 -10.5 19.5t-23.5 6.5q-39 2 -139 2t-128 -1
q-16 -1 -22.5 -8t-7.5 -24q-2 -29 -1.5 -97.5t2.5 -93.5q1 -17 7.5 -23t23.5 -8q18 -2 69.5 -1.5t69.5 2.5q7 1 11.5 6.5t4.5 12.5v10.5t-1 16.5q-1 13 -1 19.5v13.5q0 15 10.5 24.5t25.5 9.5t25 -9.5t9 -24.5q-2 -39 -1.5 -114.5t3.5 -111.5q1 -17 -8.5 -27.5t-25.5 -10.5
q-17 0 -27.5 10t-10.5 26v14t1 20q1 11 1 17v11q0 8 -4 13t-11 6q-16 1 -68.5 1.5t-71.5 -0.5q-17 -1 -23 -7.5t-7 -25.5q-2 -25 -2.5 -98t0.5 -103q1 -13 7.5 -19t22.5 -7q33 -2 137.5 -2t138.5 2q16 1 22.5 6t11.5 20q6 19 10.5 40.5t6.5 44.5q1 17 11 26.5t27 9.5
q20 0 30.5 -15t4.5 -36t-12.5 -60.5t-9.5 -72.5q-2 -22 -12 -31.5t-29 -9.5q-3 0 -7.5 0.5t-14.5 1.5q-19 3 -30.5 4t-22.5 1q-36 1 -144.5 2t-178.5 1q-21 0 -41.5 -0.5t-51.5 -1.5q-17 -1 -24.5 -1h-13.5q-17 0 -26.5 10t-9.5 27q0 16 9.5 25.5t25.5 9.5q5 0 10.5 -0.5
t15.5 -0.5q11 -1 17 -1.5t11 -0.5q12 0 17 5t6 17q2 33 3 89t1 177q0 109 -0.5 170t-2.5 90q-1 17 -8 25t-22 8h-7t-13 -1q-10 -1 -15.5 -1h-9.5q-18 0 -27.5 10t-9.5 28q0 16 10 25.5t27 9.5h7t14 -1zM235 895q30 -19 100 -56t89 -44q11 -4 22.5 1t16.5 15t2 20.5t-13 18.5
q-23 17 -85 57.5t-89 56.5q-15 9 -30 6.5t-24 -15.5q-10 -17 -7.5 -34t18.5 -26z" />
    <glyph glyph-name="Eacute" unicode="&#xc9;" 
d="M30 0zM89 720q30 -2 56.5 -3t58.5 -1h112h112q36 0 67 1t67 3q12 1 16.5 1h7.5q20 0 30 -9.5t12 -31.5q3 -32 9.5 -70.5t12.5 -60.5q6 -21 -5.5 -35t-32.5 -14q-14 0 -24.5 9t-12.5 25q-4 32 -8 53.5t-8 36.5q-4 14 -10.5 19.5t-23.5 6.5q-39 2 -139 2t-128 -1
q-16 -1 -22.5 -8t-7.5 -24q-2 -29 -1.5 -97.5t2.5 -93.5q1 -17 7.5 -23t23.5 -8q18 -2 69.5 -1.5t69.5 2.5q7 1 11.5 6.5t4.5 12.5v10.5t-1 16.5q-1 13 -1 19.5v13.5q0 15 10.5 24.5t25.5 9.5t25 -9.5t9 -24.5q-2 -39 -1.5 -114.5t3.5 -111.5q1 -17 -8.5 -27.5t-25.5 -10.5
q-17 0 -27.5 10t-10.5 26v14t1 20q1 11 1 17v11q0 8 -4 13t-11 6q-16 1 -68.5 1.5t-71.5 -0.5q-17 -1 -23 -7.5t-7 -25.5q-2 -25 -2.5 -98t0.5 -103q1 -13 7.5 -19t22.5 -7q33 -2 137.5 -2t138.5 2q16 1 22.5 6t11.5 20q6 19 10.5 40.5t6.5 44.5q1 17 11 26.5t27 9.5
q20 0 30.5 -15t4.5 -36t-12.5 -60.5t-9.5 -72.5q-2 -22 -12 -31.5t-29 -9.5q-3 0 -7.5 0.5t-14.5 1.5q-19 3 -30.5 4t-22.5 1q-36 1 -144.5 2t-178.5 1q-21 0 -41.5 -0.5t-51.5 -1.5q-17 -1 -24.5 -1h-13.5q-17 0 -26.5 10t-9.5 27q0 16 9.5 25.5t25.5 9.5q5 0 10.5 -0.5
t15.5 -0.5q11 -1 17 -1.5t11 -0.5q12 0 17 5t6 17q2 33 3 89t1 177q0 109 -0.5 170t-2.5 90q-1 17 -8 25t-22 8h-7t-13 -1q-10 -1 -15.5 -1h-9.5q-18 0 -27.5 10t-9.5 28q0 16 10 25.5t27 9.5h7t14 -1zM522 895q-30 -19 -100 -56t-89 -44q-11 -4 -22.5 1t-16.5 15t-2 20.5
t13 18.5q23 17 85 57.5t89 56.5q15 9 30 6.5t24 -15.5q10 -17 7.5 -34t-18.5 -26z" />
    <glyph glyph-name="Ecircumflex" unicode="&#xca;" 
d="M30 0zM89 720q30 -2 56.5 -3t58.5 -1h112h112q36 0 67 1t67 3q12 1 16.5 1h7.5q20 0 30 -9.5t12 -31.5q3 -32 9.5 -70.5t12.5 -60.5q6 -21 -5.5 -35t-32.5 -14q-14 0 -24.5 9t-12.5 25q-4 32 -8 53.5t-8 36.5q-4 14 -10.5 19.5t-23.5 6.5q-39 2 -139 2t-128 -1
q-16 -1 -22.5 -8t-7.5 -24q-2 -29 -1.5 -97.5t2.5 -93.5q1 -17 7.5 -23t23.5 -8q18 -2 69.5 -1.5t69.5 2.5q7 1 11.5 6.5t4.5 12.5v10.5t-1 16.5q-1 13 -1 19.5v13.5q0 15 10.5 24.5t25.5 9.5t25 -9.5t9 -24.5q-2 -39 -1.5 -114.5t3.5 -111.5q1 -17 -8.5 -27.5t-25.5 -10.5
q-17 0 -27.5 10t-10.5 26v14t1 20q1 11 1 17v11q0 8 -4 13t-11 6q-16 1 -68.5 1.5t-71.5 -0.5q-17 -1 -23 -7.5t-7 -25.5q-2 -25 -2.5 -98t0.5 -103q1 -13 7.5 -19t22.5 -7q33 -2 137.5 -2t138.5 2q16 1 22.5 6t11.5 20q6 19 10.5 40.5t6.5 44.5q1 17 11 26.5t27 9.5
q20 0 30.5 -15t4.5 -36t-12.5 -60.5t-9.5 -72.5q-2 -22 -12 -31.5t-29 -9.5q-3 0 -7.5 0.5t-14.5 1.5q-19 3 -30.5 4t-22.5 1q-36 1 -144.5 2t-178.5 1q-21 0 -41.5 -0.5t-51.5 -1.5q-17 -1 -24.5 -1h-13.5q-17 0 -26.5 10t-9.5 27q0 16 9.5 25.5t25.5 9.5q5 0 10.5 -0.5
t15.5 -0.5q11 -1 17 -1.5t11 -0.5q12 0 17 5t6 17q2 33 3 89t1 177q0 109 -0.5 170t-2.5 90q-1 17 -8 25t-22 8h-7t-13 -1q-10 -1 -15.5 -1h-9.5q-18 0 -27.5 10t-9.5 28q0 16 10 25.5t27 9.5h7t14 -1zM272 819q-19 -16 -25.5 -21t-9.5 -7q-10 -6 -21.5 -3t-18.5 12
q-8 10 -7 21.5t11 21.5q3 3 9 8.5t22 18.5q16 14 24.5 21t16.5 14q17 15 34.5 29.5t29.5 23.5q10 7 16.5 10t14.5 3q7 0 14 -3t14 -9q2 -1 4 -3.5t9 -7.5q17 -15 28.5 -25t21.5 -19q6 -5 13 -11.5t21 -18.5q19 -17 26.5 -23.5t11.5 -10.5q8 -9 8.5 -18.5t-6.5 -19.5
q-8 -10 -19.5 -12.5t-22.5 3.5q-12 6 -57.5 43.5t-56.5 46.5q-5 4 -7.5 5.5t-4.5 1.5q-3 0 -5 -1t-7 -5q-17 -13 -34.5 -27t-46.5 -38z" />
    <glyph glyph-name="Edieresis" unicode="&#xcb;" 
d="M30 0zM89 720q30 -2 56.5 -3t58.5 -1h112h112q36 0 67 1t67 3q12 1 16.5 1h7.5q20 0 30 -9.5t12 -31.5q3 -32 9.5 -70.5t12.5 -60.5q6 -21 -5.5 -35t-32.5 -14q-14 0 -24.5 9t-12.5 25q-4 32 -8 53.5t-8 36.5q-4 14 -10.5 19.5t-23.5 6.5q-39 2 -139 2t-128 -1
q-16 -1 -22.5 -8t-7.5 -24q-2 -29 -1.5 -97.5t2.5 -93.5q1 -17 7.5 -23t23.5 -8q18 -2 69.5 -1.5t69.5 2.5q7 1 11.5 6.5t4.5 12.5v10.5t-1 16.5q-1 13 -1 19.5v13.5q0 15 10.5 24.5t25.5 9.5t25 -9.5t9 -24.5q-2 -39 -1.5 -114.5t3.5 -111.5q1 -17 -8.5 -27.5t-25.5 -10.5
q-17 0 -27.5 10t-10.5 26v14t1 20q1 11 1 17v11q0 8 -4 13t-11 6q-16 1 -68.5 1.5t-71.5 -0.5q-17 -1 -23 -7.5t-7 -25.5q-2 -25 -2.5 -98t0.5 -103q1 -13 7.5 -19t22.5 -7q33 -2 137.5 -2t138.5 2q16 1 22.5 6t11.5 20q6 19 10.5 40.5t6.5 44.5q1 17 11 26.5t27 9.5
q20 0 30.5 -15t4.5 -36t-12.5 -60.5t-9.5 -72.5q-2 -22 -12 -31.5t-29 -9.5q-3 0 -7.5 0.5t-14.5 1.5q-19 3 -30.5 4t-22.5 1q-36 1 -144.5 2t-178.5 1q-21 0 -41.5 -0.5t-51.5 -1.5q-17 -1 -24.5 -1h-13.5q-17 0 -26.5 10t-9.5 27q0 16 9.5 25.5t25.5 9.5q5 0 10.5 -0.5
t15.5 -0.5q11 -1 17 -1.5t11 -0.5q12 0 17 5t6 17q2 33 3 89t1 177q0 109 -0.5 170t-2.5 90q-1 17 -8 25t-22 8h-7t-13 -1q-10 -1 -15.5 -1h-9.5q-18 0 -27.5 10t-9.5 28q0 16 10 25.5t27 9.5h7t14 -1zM531 847q1 -27 -23 -45t-59 -18q-21 0 -34.5 12.5t-13.5 31.5
q0 27 23 45t56 18q24 0 37 -11t14 -33zM339 847q1 -27 -23 -45t-59 -18q-22 0 -35 12.5t-13 31.5q0 27 23 45t56 18q24 0 37 -11t14 -33z" />
    <glyph glyph-name="Igrave" unicode="&#xcc;" horiz-adv-x="381" 
d="M0 0zM283 2q-33 1 -55 1.5t-45 0.5q-20 0 -39.5 -0.5t-47.5 -2.5q-15 -1 -21 -1h-11q-15 0 -24 10.5t-9 25.5t9 25.5t24 10.5q5 0 11 -0.5t18 -0.5l18 -1.5t11 -0.5q12 0 17.5 5t6.5 17q2 18 3 47t1 217q0 92 -1 160.5t-3 102.5q-1 16 -8.5 23.5t-22.5 7.5h-5.5t-11.5 -1
q-13 0 -20 -0.5t-14 -0.5q-15 0 -24 10t-9 27q0 15 9 25t24 10h11.5t21.5 -1q29 -2 49 -2.5t42 -0.5q24 0 45.5 0.5t52.5 2.5q14 1 20 1h11q14 0 23 -10.5t9 -26.5q0 -15 -9 -25.5t-23 -10.5q-4 0 -9 0.5t-16 0.5q-12 1 -17.5 1.5t-10.5 0.5q-13 0 -19.5 -7t-8.5 -24
q-2 -25 -3 -86.5t-1 -176.5q0 -153 0.5 -196t2.5 -67q1 -12 7 -17t20 -5q4 0 9.5 0.5t17.5 0.5q13 1 18.5 1.5t10.5 0.5q15 0 24 -10.5t9 -27.5q0 -14 -9.5 -24t-23.5 -10h-12t-23 1zM17 873q30 -19 100 -56t89 -44q11 -4 22.5 1t16.5 15t2 20.5t-13 18.5q-23 17 -85 57.5
t-89 56.5q-15 9 -30 6.5t-24 -15.5q-10 -17 -7.5 -34t18.5 -26z" />
    <glyph glyph-name="Iacute" unicode="&#xcd;" horiz-adv-x="381" 
d="M31 0zM283 2q-33 1 -55 1.5t-45 0.5q-20 0 -39.5 -0.5t-47.5 -2.5q-15 -1 -21 -1h-11q-15 0 -24 10.5t-9 25.5t9 25.5t24 10.5q5 0 11 -0.5t18 -0.5l18 -1.5t11 -0.5q12 0 17.5 5t6.5 17q2 18 3 47t1 217q0 92 -1 160.5t-3 102.5q-1 16 -8.5 23.5t-22.5 7.5h-5.5
t-11.5 -1q-13 0 -20 -0.5t-14 -0.5q-15 0 -24 10t-9 27q0 15 9 25t24 10h11.5t21.5 -1q29 -2 49 -2.5t42 -0.5q24 0 45.5 0.5t52.5 2.5q14 1 20 1h11q14 0 23 -10.5t9 -26.5q0 -15 -9 -25.5t-23 -10.5q-4 0 -9 0.5t-16 0.5q-12 1 -17.5 1.5t-10.5 0.5q-13 0 -19.5 -7
t-8.5 -24q-2 -25 -3 -86.5t-1 -176.5q0 -153 0.5 -196t2.5 -67q1 -12 7 -17t20 -5q4 0 9.5 0.5t17.5 0.5q13 1 18.5 1.5t10.5 0.5q15 0 24 -10.5t9 -27.5q0 -14 -9.5 -24t-23.5 -10h-12t-23 1zM369 875q-30 -19 -100 -56t-89 -44q-11 -4 -22.5 1t-16.5 15t-2 20.5t13 18.5
q23 17 85 57.5t89 56.5q15 9 30 6.5t24 -15.5q10 -17 7.5 -34t-18.5 -26z" />
    <glyph glyph-name="Icircumflex" unicode="&#xce;" horiz-adv-x="381" 
d="M12 0zM283 2q-33 1 -55 1.5t-45 0.5q-20 0 -39.5 -0.5t-47.5 -2.5q-15 -1 -21 -1h-11q-15 0 -24 10.5t-9 25.5t9 25.5t24 10.5q5 0 11 -0.5t18 -0.5l18 -1.5t11 -0.5q12 0 17.5 5t6.5 17q2 18 3 47t1 217q0 92 -1 160.5t-3 102.5q-1 16 -8.5 23.5t-22.5 7.5h-5.5
t-11.5 -1q-13 0 -20 -0.5t-14 -0.5q-15 0 -24 10t-9 27q0 15 9 25t24 10h11.5t21.5 -1q29 -2 49 -2.5t42 -0.5q24 0 45.5 0.5t52.5 2.5q14 1 20 1h11q14 0 23 -10.5t9 -26.5q0 -15 -9 -25.5t-23 -10.5q-4 0 -9 0.5t-16 0.5q-12 1 -17.5 1.5t-10.5 0.5q-13 0 -19.5 -7
t-8.5 -24q-2 -25 -3 -86.5t-1 -176.5q0 -153 0.5 -196t2.5 -67q1 -12 7 -17t20 -5q4 0 9.5 0.5t17.5 0.5q13 1 18.5 1.5t10.5 0.5q15 0 24 -10.5t9 -27.5q0 -14 -9.5 -24t-23.5 -10h-12t-23 1zM96 819q-19 -16 -25.5 -21t-9.5 -7q-10 -6 -21.5 -3t-18.5 12q-8 10 -7 21.5
t11 21.5q3 3 9 8.5t22 18.5q16 14 24.5 21t16.5 14q17 15 34.5 29.5t29.5 23.5q10 7 16.5 10t14.5 3q7 0 14 -3t14 -9q2 -1 4 -3.5t9 -7.5q17 -15 28.5 -25t21.5 -19q6 -5 13 -11.5t21 -18.5q19 -17 26.5 -23.5t11.5 -10.5q8 -9 8.5 -18.5t-6.5 -19.5q-8 -10 -19.5 -12.5
t-22.5 3.5q-12 6 -57.5 43.5t-56.5 46.5q-5 4 -7.5 5.5t-4.5 1.5q-3 0 -5 -1t-7 -5q-17 -13 -34.5 -27t-46.5 -38z" />
    <glyph glyph-name="Idieresis" unicode="&#xcf;" horiz-adv-x="381" 
d="M19 0zM283 2q-33 1 -55 1.5t-45 0.5q-20 0 -39.5 -0.5t-47.5 -2.5q-15 -1 -21 -1h-11q-15 0 -24 10.5t-9 25.5t9 25.5t24 10.5q5 0 11 -0.5t18 -0.5l18 -1.5t11 -0.5q12 0 17.5 5t6.5 17q2 18 3 47t1 217q0 92 -1 160.5t-3 102.5q-1 16 -8.5 23.5t-22.5 7.5h-5.5
t-11.5 -1q-13 0 -20 -0.5t-14 -0.5q-15 0 -24 10t-9 27q0 15 9 25t24 10h11.5t21.5 -1q29 -2 49 -2.5t42 -0.5q24 0 45.5 0.5t52.5 2.5q14 1 20 1h11q14 0 23 -10.5t9 -26.5q0 -15 -9 -25.5t-23 -10.5q-4 0 -9 0.5t-16 0.5q-12 1 -17.5 1.5t-10.5 0.5q-13 0 -19.5 -7
t-8.5 -24q-2 -25 -3 -86.5t-1 -176.5q0 -153 0.5 -196t2.5 -67q1 -12 7 -17t20 -5q4 0 9.5 0.5t17.5 0.5q13 1 18.5 1.5t10.5 0.5q15 0 24 -10.5t9 -27.5q0 -14 -9.5 -24t-23.5 -10h-12t-23 1zM341 847q1 -27 -23 -45t-59 -18q-21 0 -34.5 12.5t-13.5 31.5q0 27 23 45t56 18
q24 0 37 -11t14 -33zM149 847q1 -27 -23 -45t-59 -18q-22 0 -35 12.5t-13 31.5q0 27 23 45t56 18q24 0 37 -11t14 -33z" />
    <glyph glyph-name="Eth" unicode="&#xd0;" horiz-adv-x="796" 
d="M126 2q-24 -1 -34.5 -1.5t-18.5 -0.5q-21 0 -32 9t-11 26q0 16 11 26.5t30 10.5q6 0 11 -0.5t12 -1.5q6 0 10 -0.5t8 -0.5q15 0 21 5.5t7 18.5q2 37 3 92t1 120q0 9 -5 14t-14 5h-7h-13q-11 -1 -16.5 -1h-10.5q-18 0 -28 9.5t-10 27.5q0 17 10 26t28 9h10t15 -1h13.5h8.5
q10 0 14.5 4t4.5 13q0 66 -0.5 120t-1.5 79q-1 21 -8 30t-23 9h-6.5t-8.5 -1q-9 -1 -14.5 -1.5t-12.5 -0.5q-18 0 -28.5 10t-10.5 27q0 16 11 26t29 10q12 0 24.5 -0.5t37.5 -0.5q26 -1 40 -1.5t28 -0.5q13 0 27.5 0.5t43.5 0.5q35 1 54.5 1.5t38.5 0.5q185 0 283.5 -90.5
t98.5 -260.5q0 -179 -99 -274.5t-286 -95.5q-19 0 -38.5 0.5t-53.5 2.5q-30 2 -44.5 2.5t-28.5 0.5q-12 0 -26.5 -0.5zM230 115q2 -29 24 -41t71 -12h26q156 0 230.5 71.5t74.5 219.5t-81.5 226t-235.5 78h-28q-46 0 -62 -10.5t-18 -43.5q-2 -27 -3 -76.5t-1 -116.5
q0 -8 5.5 -12.5t15.5 -4.5h36.5t59.5 1q29 1 41 1h20q18 0 28.5 -9t10.5 -26q0 -18 -10 -27t-29 -9h-21.5h-46.5q-40 1 -58 1h-31q-10 0 -15.5 -5.5t-5.5 -16.5q0 -73 0.5 -116t2.5 -72z" />
    <glyph glyph-name="Ntilde" unicode="&#xd1;" horiz-adv-x="866" 
d="M27 0zM269 2q-35 1 -54 1.5t-36 0.5q-21 0 -40 -0.5t-45 -2.5q-13 -1 -18.5 -1h-9.5q-16 0 -26 10t-10 25q0 16 10 26.5t26 10.5q5 0 10 -0.5t14 -0.5q9 -1 14 -1.5t10 -0.5q15 0 21 4.5t7 16.5q2 17 2.5 58t0.5 198q0 159 -0.5 201.5t-2.5 64.5q-1 21 -7.5 28.5
t-23.5 7.5h-5.5t-8.5 -1q-11 -1 -18 -1.5t-15 -0.5q-16 0 -26.5 10.5t-10.5 25.5q0 16 10 26.5t27 10.5h10.5t15.5 -1q12 -1 18.5 -1h12.5h11.5t21.5 1q22 1 34.5 1h23.5q31 0 46 -9.5t35 -41.5q52 -87 174.5 -290.5t166.5 -275.5q6 -9 9 -11.5t7 -2.5q5 0 7.5 3.5t2.5 9.5
v7.5v18.5q1 59 1.5 115t0.5 120q0 88 -1 151t-3 104q-1 18 -7.5 25.5t-21.5 7.5q-5 0 -11.5 -0.5t-21.5 -0.5l-25.5 -1.5t-15.5 -0.5q-17 0 -27 11t-10 28q0 14 10.5 24t26.5 10q15 0 31.5 -0.5t46.5 -1.5q28 0 42 -0.5t27 -0.5q14 0 27.5 0.5t36.5 1.5q17 1 25 1h15
q15 0 24.5 -10t9.5 -24q0 -17 -9.5 -28t-24.5 -11h-10t-14 1q-7 1 -10 1h-6q-15 0 -22 -7t-8 -24q-1 -30 -2 -84t-2 -162q0 -28 -0.5 -58t-0.5 -84q0 -65 -0.5 -93.5t-0.5 -50.5q-1 -48 -18.5 -69.5t-58.5 -21.5q-25 0 -46 13.5t-38 40.5q-25 41 -72.5 119.5t-149.5 249.5
q-55 92 -72.5 121.5t-22.5 37.5q-6 9 -12 14.5t-10 5.5q-5 0 -8 -5t-3 -11v-5.5v-14.5q-1 -52 -1.5 -103t-0.5 -111q0 -114 0.5 -173t2.5 -84q1 -11 8 -16t22 -5q11 0 22 0.5t30 1.5q13 1 18.5 1.5t9.5 0.5q15 0 24 -10t9 -25q0 -16 -9 -26.5t-24 -10.5q-10 0 -22 0.5
t-39 1.5zM331 802q-4 -17 -11.5 -23.5t-20.5 -6.5q-15 0 -22 7t-7 22q0 50 27.5 80.5t72.5 30.5q23 0 43.5 -8t52.5 -31q20 -16 30 -20.5t19 -4.5q18 0 26.5 9t16.5 36q5 16 12.5 22.5t20.5 6.5t20.5 -8.5t7.5 -21.5q0 -52 -27.5 -81t-74.5 -29q-27 0 -49.5 8.5t-51.5 34.5
q-18 14 -26.5 18.5t-16.5 4.5q-16 0 -26 -11t-16 -35z" />
    <glyph glyph-name="Ograve" unicode="&#xd2;" horiz-adv-x="817" 
d="M50 0zM767 374q0 -177 -99 -280.5t-266 -103.5q-156 0 -254 99.5t-98 258.5q0 169 102 274t263 105q153 0 252.5 -99t99.5 -254zM141 373q-4 -141 70.5 -226.5t200.5 -85.5q118 0 191 81.5t73 216.5q0 140 -71.5 218.5t-199.5 78.5q-113 0 -187 -77t-77 -206zM275 895
q30 -19 100 -56t89 -44q11 -4 22.5 1t16.5 15t2 20.5t-13 18.5q-23 17 -85 57.5t-89 56.5q-15 9 -30 6.5t-24 -15.5q-10 -17 -7.5 -34t18.5 -26z" />
    <glyph glyph-name="Oacute" unicode="&#xd3;" horiz-adv-x="817" 
d="M50 0zM767 374q0 -177 -99 -280.5t-266 -103.5q-156 0 -254 99.5t-98 258.5q0 169 102 274t263 105q153 0 252.5 -99t99.5 -254zM141 373q-4 -141 70.5 -226.5t200.5 -85.5q118 0 191 81.5t73 216.5q0 140 -71.5 218.5t-199.5 78.5q-113 0 -187 -77t-77 -206zM575 895
q-30 -19 -100 -56t-89 -44q-11 -4 -22.5 1t-16.5 15t-2 20.5t13 18.5q23 17 85 57.5t89 56.5q15 9 30 6.5t24 -15.5q10 -17 7.5 -34t-18.5 -26z" />
    <glyph glyph-name="Ocircumflex" unicode="&#xd4;" horiz-adv-x="817" 
d="M50 0zM767 374q0 -177 -99 -280.5t-266 -103.5q-156 0 -254 99.5t-98 258.5q0 169 102 274t263 105q153 0 252.5 -99t99.5 -254zM141 373q-4 -141 70.5 -226.5t200.5 -85.5q118 0 191 81.5t73 216.5q0 140 -71.5 218.5t-199.5 78.5q-113 0 -187 -77t-77 -206zM319 819
q-19 -16 -25.5 -21t-9.5 -7q-10 -6 -21.5 -3t-18.5 12q-8 10 -7 21.5t11 21.5q3 3 9 8.5t22 18.5q16 14 24.5 21t16.5 14q17 15 34.5 29.5t29.5 23.5q10 7 16.5 10t14.5 3q7 0 14 -3t14 -9q2 -1 4 -3.5t9 -7.5q17 -15 28.5 -25t21.5 -19q6 -5 13 -11.5t21 -18.5
q19 -17 26.5 -23.5t11.5 -10.5q8 -9 8.5 -18.5t-6.5 -19.5q-8 -10 -19.5 -12.5t-22.5 3.5q-12 6 -57.5 43.5t-56.5 46.5q-5 4 -7.5 5.5t-4.5 1.5q-3 0 -5 -1t-7 -5q-17 -13 -34.5 -27t-46.5 -38z" />
    <glyph glyph-name="Otilde" unicode="&#xd5;" horiz-adv-x="817" 
d="M50 0zM767 374q0 -177 -99 -280.5t-266 -103.5q-156 0 -254 99.5t-98 258.5q0 169 102 274t263 105q153 0 252.5 -99t99.5 -254zM141 373q-4 -141 70.5 -226.5t200.5 -85.5q118 0 191 81.5t73 216.5q0 140 -71.5 218.5t-199.5 78.5q-113 0 -187 -77t-77 -206zM301 802
q-4 -17 -11.5 -23.5t-20.5 -6.5q-15 0 -22 7t-7 22q0 50 27.5 80.5t72.5 30.5q23 0 43.5 -8t52.5 -31q20 -16 30 -20.5t19 -4.5q18 0 26.5 9t16.5 36q5 16 12.5 22.5t20.5 6.5t20.5 -8.5t7.5 -21.5q0 -52 -27.5 -81t-74.5 -29q-27 0 -49.5 8.5t-51.5 34.5q-18 14 -26.5 18.5
t-16.5 4.5q-16 0 -26 -11t-16 -35z" />
    <glyph glyph-name="Odieresis" unicode="&#xd6;" horiz-adv-x="817" 
d="M50 0zM767 374q0 -177 -99 -280.5t-266 -103.5q-156 0 -254 99.5t-98 258.5q0 169 102 274t263 105q153 0 252.5 -99t99.5 -254zM141 373q-4 -141 70.5 -226.5t200.5 -85.5q118 0 191 81.5t73 216.5q0 140 -71.5 218.5t-199.5 78.5q-113 0 -187 -77t-77 -206zM584 847
q1 -27 -23 -45t-59 -18q-21 0 -34.5 12.5t-13.5 31.5q0 27 23 45t56 18q24 0 37 -11t14 -33zM392 847q1 -27 -23 -45t-59 -18q-22 0 -35 12.5t-13 31.5q0 27 23 45t56 18q24 0 37 -11t14 -33z" />
    <glyph glyph-name="multiply" unicode="&#xd7;" horiz-adv-x="430" 
d="M160 244q-17 -18 -33 -19.5t-32 14.5q-14 14 -13 30.5t19 32.5q9 7 25.5 24.5t21.5 22.5t5 9.5t-5 9.5l-13.5 13.5t-17.5 16.5l-10.5 10.5l-6.5 6.5q-18 18 -19 34t14 31q15 14 31 13t32 -19q10 -11 21.5 -22.5t24.5 -23.5q6 -6 10.5 -6t10.5 5q22 23 32 33t15 16
q16 18 32.5 18.5t31.5 -14.5q14 -14 13.5 -30t-17.5 -31q-9 -8 -25.5 -25.5t-22.5 -22.5q-5 -6 -5 -11t5 -10q22 -22 31.5 -32t16.5 -15q17 -16 18.5 -32t-13.5 -32q-15 -14 -31.5 -13t-31.5 18q-7 9 -24 25t-22 21q-6 6 -11.5 6t-11.5 -6l-29.5 -29.5t-15.5 -16.5z" />
    <glyph glyph-name="Oslash" unicode="&#xd8;" horiz-adv-x="817" 
d="M767 371q0 -176 -98.5 -278.5t-266.5 -102.5q-59 0 -109 15t-96 47q-6 4 -10.5 3t-11.5 -9l-37 -43q-16 -18 -32 -21t-32 10t-14 31t21 37l41 42q5 5 5.5 9t-5.5 12q-35 50 -53.5 108t-18.5 120q0 169 102 272.5t263 103.5q61 0 109 -13t88 -40q11 -6 17 -5.5t12 7.5
l34 38q13 16 31.5 16.5t34.5 -13.5q13 -11 12.5 -28.5t-13.5 -30.5l-40 -38q-6 -6 -5.5 -13.5t6.5 -16.5q30 -42 48 -101.5t18 -117.5zM405 656q-116 0 -191.5 -81t-75.5 -214q0 -63 19.5 -121t37.5 -58q4 0 8.5 2.5t12.5 12.5l335 379q11 12 13 15.5t2 7.5q0 21 -50.5 39
t-110.5 18zM248 123q0 -21 53 -41.5t111 -20.5q119 0 193.5 82.5t74.5 217.5q0 65 -19.5 123t-37.5 58q-4 0 -8 -2.5t-8 -7.5l-350 -391q-5 -6 -7 -10t-2 -8z" />
    <glyph glyph-name="Ugrave" unicode="&#xd9;" horiz-adv-x="790" 
d="M21 0zM677 283q0 -143 -70.5 -220t-201.5 -77q-138 0 -209 76t-69 223q1 74 -1 175.5t-4 155.5q-1 17 -8 24.5t-22 7.5h-4.5t-8.5 -1q-9 0 -15 -0.5t-11 -0.5q-14 0 -23 10.5t-9 26.5t8.5 26.5t23.5 10.5q6 0 12.5 -0.5t19.5 -0.5q22 -2 38 -2.5t34 -0.5q14 0 28.5 0.5
l43.5 1.5q28 1 42.5 1.5t27.5 0.5q15 0 23.5 -10.5t8.5 -28.5q0 -15 -9 -25t-23 -10q-5 0 -11 0.5t-17 0.5l-18 1.5t-12 0.5q-14 0 -20.5 -7.5t-7.5 -25.5q-2 -39 -1.5 -140.5t2.5 -183.5q3 -121 50.5 -176t145.5 -55t145.5 55t47.5 170q0 106 -1 202.5t-2 128.5
q-1 17 -8 25t-23 8h-12t-19 -1q-12 -1 -18 -1h-11q-16 0 -25 9.5t-9 26.5q0 16 9 25.5t25 9.5q13 0 28 -0.5t43 -0.5q28 -1 43 -1.5t28 -0.5t26 0.5t32 1.5q12 1 17.5 1h9.5q15 0 24.5 -10t9.5 -25q0 -18 -9 -28t-25 -10h-7t-10 1q-7 1 -9.5 1h-5.5q-14 0 -20.5 -7.5
t-7.5 -24.5q-1 -16 -1 -51t1 -130q1 -64 1 -95.5v-56.5zM234 895q30 -19 100 -56t89 -44q11 -4 22.5 1t16.5 15t2 20.5t-13 18.5q-23 17 -85 57.5t-89 56.5q-15 9 -30 6.5t-24 -15.5q-10 -17 -7.5 -34t18.5 -26z" />
    <glyph glyph-name="Uacute" unicode="&#xda;" horiz-adv-x="790" 
d="M21 0zM677 283q0 -143 -70.5 -220t-201.5 -77q-138 0 -209 76t-69 223q1 74 -1 175.5t-4 155.5q-1 17 -8 24.5t-22 7.5h-4.5t-8.5 -1q-9 0 -15 -0.5t-11 -0.5q-14 0 -23 10.5t-9 26.5t8.5 26.5t23.5 10.5q6 0 12.5 -0.5t19.5 -0.5q22 -2 38 -2.5t34 -0.5q14 0 28.5 0.5
l43.5 1.5q28 1 42.5 1.5t27.5 0.5q15 0 23.5 -10.5t8.5 -28.5q0 -15 -9 -25t-23 -10q-5 0 -11 0.5t-17 0.5l-18 1.5t-12 0.5q-14 0 -20.5 -7.5t-7.5 -25.5q-2 -39 -1.5 -140.5t2.5 -183.5q3 -121 50.5 -176t145.5 -55t145.5 55t47.5 170q0 106 -1 202.5t-2 128.5
q-1 17 -8 25t-23 8h-12t-19 -1q-12 -1 -18 -1h-11q-16 0 -25 9.5t-9 26.5q0 16 9 25.5t25 9.5q13 0 28 -0.5t43 -0.5q28 -1 43 -1.5t28 -0.5t26 0.5t32 1.5q12 1 17.5 1h9.5q15 0 24.5 -10t9.5 -25q0 -18 -9 -28t-25 -10h-7t-10 1q-7 1 -9.5 1h-5.5q-14 0 -20.5 -7.5
t-7.5 -24.5q-1 -16 -1 -51t1 -130q1 -64 1 -95.5v-56.5zM591 895q-30 -19 -100 -56t-89 -44q-11 -4 -22.5 1t-16.5 15t-2 20.5t13 18.5q23 17 85 57.5t89 56.5q15 9 30 6.5t24 -15.5q10 -17 7.5 -34t-18.5 -26z" />
    <glyph glyph-name="Ucircumflex" unicode="&#xdb;" horiz-adv-x="790" 
d="M21 0zM677 283q0 -143 -70.5 -220t-201.5 -77q-138 0 -209 76t-69 223q1 74 -1 175.5t-4 155.5q-1 17 -8 24.5t-22 7.5h-4.5t-8.5 -1q-9 0 -15 -0.5t-11 -0.5q-14 0 -23 10.5t-9 26.5t8.5 26.5t23.5 10.5q6 0 12.5 -0.5t19.5 -0.5q22 -2 38 -2.5t34 -0.5q14 0 28.5 0.5
l43.5 1.5q28 1 42.5 1.5t27.5 0.5q15 0 23.5 -10.5t8.5 -28.5q0 -15 -9 -25t-23 -10q-5 0 -11 0.5t-17 0.5l-18 1.5t-12 0.5q-14 0 -20.5 -7.5t-7.5 -25.5q-2 -39 -1.5 -140.5t2.5 -183.5q3 -121 50.5 -176t145.5 -55t145.5 55t47.5 170q0 106 -1 202.5t-2 128.5
q-1 17 -8 25t-23 8h-12t-19 -1q-12 -1 -18 -1h-11q-16 0 -25 9.5t-9 26.5q0 16 9 25.5t25 9.5q13 0 28 -0.5t43 -0.5q28 -1 43 -1.5t28 -0.5t26 0.5t32 1.5q12 1 17.5 1h9.5q15 0 24.5 -10t9.5 -25q0 -18 -9 -28t-25 -10h-7t-10 1q-7 1 -9.5 1h-5.5q-14 0 -20.5 -7.5
t-7.5 -24.5q-1 -16 -1 -51t1 -130q1 -64 1 -95.5v-56.5zM315 819q-19 -16 -25.5 -21t-9.5 -7q-10 -6 -21.5 -3t-18.5 12q-8 10 -7 21.5t11 21.5q3 3 9 8.5t22 18.5q16 14 24.5 21t16.5 14q17 15 34.5 29.5t29.5 23.5q10 7 16.5 10t14.5 3q7 0 14 -3t14 -9q2 -1 4 -3.5
t9 -7.5q17 -15 28.5 -25t21.5 -19q6 -5 13 -11.5t21 -18.5q19 -17 26.5 -23.5t11.5 -10.5q8 -9 8.5 -18.5t-6.5 -19.5q-8 -10 -19.5 -12.5t-22.5 3.5q-12 6 -57.5 43.5t-56.5 46.5q-5 4 -7.5 5.5t-4.5 1.5q-3 0 -5 -1t-7 -5q-17 -13 -34.5 -27t-46.5 -38z" />
    <glyph glyph-name="Udieresis" unicode="&#xdc;" horiz-adv-x="790" 
d="M21 0zM677 283q0 -143 -70.5 -220t-201.5 -77q-138 0 -209 76t-69 223q1 74 -1 175.5t-4 155.5q-1 17 -8 24.5t-22 7.5h-4.5t-8.5 -1q-9 0 -15 -0.5t-11 -0.5q-14 0 -23 10.5t-9 26.5t8.5 26.5t23.5 10.5q6 0 12.5 -0.5t19.5 -0.5q22 -2 38 -2.5t34 -0.5q14 0 28.5 0.5
l43.5 1.5q28 1 42.5 1.5t27.5 0.5q15 0 23.5 -10.5t8.5 -28.5q0 -15 -9 -25t-23 -10q-5 0 -11 0.5t-17 0.5l-18 1.5t-12 0.5q-14 0 -20.5 -7.5t-7.5 -25.5q-2 -39 -1.5 -140.5t2.5 -183.5q3 -121 50.5 -176t145.5 -55t145.5 55t47.5 170q0 106 -1 202.5t-2 128.5
q-1 17 -8 25t-23 8h-12t-19 -1q-12 -1 -18 -1h-11q-16 0 -25 9.5t-9 26.5q0 16 9 25.5t25 9.5q13 0 28 -0.5t43 -0.5q28 -1 43 -1.5t28 -0.5t26 0.5t32 1.5q12 1 17.5 1h9.5q15 0 24.5 -10t9.5 -25q0 -18 -9 -28t-25 -10h-7t-10 1q-7 1 -9.5 1h-5.5q-14 0 -20.5 -7.5
t-7.5 -24.5q-1 -16 -1 -51t1 -130q1 -64 1 -95.5v-56.5zM580 847q1 -27 -23 -45t-59 -18q-21 0 -34.5 12.5t-13.5 31.5q0 27 23 45t56 18q24 0 37 -11t14 -33zM388 847q1 -27 -23 -45t-59 -18q-22 0 -35 12.5t-13 31.5q0 27 23 45t56 18q24 0 37 -11t14 -33z" />
    <glyph glyph-name="Yacute" unicode="&#xdd;" horiz-adv-x="726" 
d="M15 0zM274 0q-13 -1 -19 -1h-10q-16 0 -25 10.5t-9 26.5q0 15 9 25t25 10q4 0 9 -0.5t15 -0.5l18 -1.5t12 -0.5q13 0 18 4.5t6 15.5q2 27 3 74t1 100q0 17 -2.5 26.5t-11.5 24.5q-25 44 -100 158.5t-111 165.5q-6 9 -10.5 12t-13.5 3h-5t-9 -1t-9 -1h-5q-16 0 -25.5 10
t-9.5 27q0 14 9.5 23.5t25.5 9.5h15t24 -1q20 -1 32 -1.5t24 -0.5q20 0 38 0.5t44 1.5q18 1 26.5 1h16.5q16 0 26 -10t10 -25t-10 -24.5t-26 -9.5h-12.5t-18.5 1h-12h-7q-10 0 -13 -5.5t2 -16.5q7 -16 35 -60l35 -55q18 -29 39.5 -62t39.5 -59q3 -5 6 -7t6 -2q4 0 6.5 2
t6.5 7q13 19 36.5 55t46.5 73q21 34 38 63t24 44q5 10 2 16.5t-12 6.5h-8h-13q-11 -1 -17.5 -1h-12.5q-15 0 -25 9.5t-10 24.5q0 16 9 25.5t26 9.5h18.5t29.5 -1q28 -1 46 -1.5t38 -0.5q7 0 15.5 0.5t24.5 1.5q16 0 23.5 0.5t13.5 0.5q16 0 25.5 -10t9.5 -26
q0 -15 -9.5 -24.5t-25.5 -9.5h-6t-8 1q-4 1 -6 1h-4q-10 0 -16.5 -3t-10.5 -9q-29 -42 -105 -160t-101 -161q-7 -12 -9.5 -22.5t-2.5 -29.5q0 -79 0.5 -118t2.5 -61q1 -11 7 -15.5t20 -4.5q4 0 10 0.5l18 1.5q10 0 14.5 0.5t7.5 0.5q16 0 24.5 -10t8.5 -28q0 -14 -9.5 -24
t-23.5 -10h-11.5t-21.5 1q-29 1 -49.5 1.5t-42.5 0.5q-21 0 -40.5 -0.5t-47.5 -1.5zM529 895q-30 -19 -100 -56t-89 -44q-11 -4 -22.5 1t-16.5 15t-2 20.5t13 18.5q23 17 85 57.5t89 56.5q15 9 30 6.5t24 -15.5q10 -17 7.5 -34t-18.5 -26z" />
    <glyph glyph-name="Thorn" unicode="&#xde;" horiz-adv-x="648" 
d="M122 0l-33 -1.5t-21 -0.5q-17 0 -27.5 10.5t-10.5 27.5q0 16 10.5 27t27.5 11q6 0 11.5 -0.5t13.5 -1.5t13 -1.5t10 -0.5q12 0 17 5t6 17q2 47 3 109t1 157q0 109 -0.5 170t-2.5 90q-1 16 -7.5 23t-22.5 7h-7.5t-9.5 -1q-8 -1 -13.5 -1h-11.5q-18 0 -28 10.5t-10 27.5
t10.5 26.5t28.5 9.5q19 0 37.5 -0.5t47.5 -1.5q19 -1 27.5 -1.5t15.5 -0.5q18 0 38.5 0.5t57.5 3.5q28 1 40 1.5t21 0.5q17 0 27 -11.5t10 -29.5q0 -15 -10.5 -25.5t-26.5 -10.5q-6 0 -14.5 0.5t-28.5 1.5q-23 1 -34 1.5t-20 0.5q-18 0 -25 -6.5t-8 -22.5q-1 -7 -1 -18
t1 -22q1 -17 7.5 -22.5t26.5 -5.5h14t36 1h36h14q127 0 193.5 -45t66.5 -130q0 -92 -68.5 -137.5t-205.5 -45.5h-30.5t-40.5 1h-11h-4q-20 0 -26.5 -5.5t-7.5 -22.5q-1 -14 -1 -32t1 -36q1 -16 8 -22.5t25 -6.5q9 0 20 0.5t34 1.5q20 1 28.5 1.5t14.5 0.5q16 0 26.5 -10.5
t10.5 -25.5q0 -18 -10 -29.5t-27 -11.5q-9 0 -21 0.5t-41 1.5q-39 1 -60 1.5t-38 0.5q-15 0 -30.5 -0.5t-41.5 -1.5zM226 289q1 -18 8.5 -24.5t29.5 -6.5h34.5h34.5q101 0 147 27.5t46 91.5q0 57 -43.5 84t-137.5 27h-49t-28 -1q-23 -1 -31 -8t-10 -33q-1 -14 -1.5 -33.5
t-0.5 -41.5v-55t1 -27z" />
    <glyph glyph-name="germandbls" unicode="&#xdf;" horiz-adv-x="775" 
d="M233 1q-25 1 -39 1.5t-26 0.5q-15 0 -30.5 -0.5t-41.5 -1.5q-15 -1 -22 -1h-12q-15 0 -24 9.5t-9 24.5t9 24.5t24 9.5h12t18 -1q11 -1 16.5 -1h10.5q17 0 23.5 5t7.5 19q2 20 2.5 62.5t0.5 108.5q0 32 -0.5 67t-1.5 101l-1.5 58.5t-0.5 36.5q-1 121 65.5 186.5
t189.5 65.5q96 0 149.5 -41t53.5 -114q0 -49 -20 -81.5t-65 -52.5q-30 -14 -43.5 -29t-13.5 -36q0 -23 17 -39.5t57 -31.5l61 -23q70 -26 103 -68.5t33 -107.5q0 -75 -43.5 -118.5t-122.5 -43.5q-27 0 -51 7t-51 26q-8 5 -11 6.5t-5 1.5q-5 0 -8 -4t-5 -14q-3 -13 -12 -20.5
t-22 -7.5q-17 0 -26.5 11.5t-6.5 28.5q3 13 4.5 35t0.5 46q0 12 -1 24t-3 31q-2 14 -2.5 20t-0.5 12q0 15 9.5 24.5t23.5 9.5t23.5 -8.5t10.5 -22.5q1 -25 7 -44t20 -42q15 -26 43.5 -40.5t64.5 -14.5q41 0 63 24.5t22 68.5q0 41 -22.5 69t-68.5 44l-58 20q-63 22 -93 55
t-30 82q0 38 20 66.5t62 49.5q34 17 47.5 35.5t13.5 46.5q0 43 -34.5 67.5t-95.5 24.5q-85 0 -128.5 -46.5t-41.5 -136.5q3 -111 3.5 -162.5t0.5 -101.5q0 -57 0.5 -101.5t1.5 -69.5q1 -15 5.5 -19.5t18.5 -4.5h5.5t8.5 1t8.5 1h5.5q15 0 24.5 -9.5t9.5 -23.5
q0 -15 -9.5 -25t-24.5 -10q-9 0 -20 0.5t-33 0.5z" />
    <glyph glyph-name="agrave" unicode="&#xe0;" horiz-adv-x="610" 
d="M43 0zM397 63q-28 -35 -73.5 -54t-101.5 -19q-86 0 -132.5 39t-46.5 111q0 66 42 105.5t129 54.5q22 4 45 7t61 6q20 2 29 3t15 2q30 4 39 14.5t9 40.5v11q0 51 -33.5 80.5t-92.5 29.5q-63 0 -98 -24t-45 -74q-4 -20 -17 -31.5t-32 -11.5q-20 0 -32 14t-9 34
q10 71 73 114.5t159 43.5q100 0 152 -45t52 -129v-131.5v-131.5q0 -26 11.5 -40.5t31.5 -14.5q4 0 8.5 1t12.5 4t12.5 4t9.5 1q11 0 18 -8.5t7 -20.5q0 -9 -4.5 -17.5t-12.5 -14.5q-13 -9 -31.5 -14.5t-39.5 -5.5q-32 0 -51 7t-32 23q-6 7 -9.5 15t-6.5 19q-1 4 -3 6.5
t-4 2.5t-4 -1.5t-5 -4.5zM127 147q0 -43 29 -66.5t84 -23.5q67 0 111.5 32t55.5 81q3 11 4 22.5t1 22.5v11q0 16 -6.5 23t-20.5 7h-8q-25 0 -62 -4t-79 -11q-55 -10 -82 -33t-27 -61zM363 644q-6 -8 -16 -11.5t-19 -1.5q-17 4 -81 53.5t-95 80.5q-13 13 -12 31.5t14 31.5
q12 12 26 14.5t27 -6.5q20 -14 77 -68t78 -81q8 -10 8 -22t-7 -21z" />
    <glyph glyph-name="aacute" unicode="&#xe1;" horiz-adv-x="610" 
d="M43 0zM397 63q-28 -35 -73.5 -54t-101.5 -19q-86 0 -132.5 39t-46.5 111q0 66 42 105.5t129 54.5q22 4 45 7t61 6q20 2 29 3t15 2q30 4 39 14.5t9 40.5v11q0 51 -33.5 80.5t-92.5 29.5q-63 0 -98 -24t-45 -74q-4 -20 -17 -31.5t-32 -11.5q-20 0 -32 14t-9 34
q10 71 73 114.5t159 43.5q100 0 152 -45t52 -129v-131.5v-131.5q0 -26 11.5 -40.5t31.5 -14.5q4 0 8.5 1t12.5 4t12.5 4t9.5 1q11 0 18 -8.5t7 -20.5q0 -9 -4.5 -17.5t-12.5 -14.5q-13 -9 -31.5 -14.5t-39.5 -5.5q-32 0 -51 7t-32 23q-6 7 -9.5 15t-6.5 19q-1 4 -3 6.5
t-4 2.5t-4 -1.5t-5 -4.5zM127 147q0 -43 29 -66.5t84 -23.5q67 0 111.5 32t55.5 81q3 11 4 22.5t1 22.5v11q0 16 -6.5 23t-20.5 7h-8q-25 0 -62 -4t-79 -11q-55 -10 -82 -33t-27 -61zM423 759q-27 -24 -89.5 -72.5t-79.5 -58.5q-11 -6 -22.5 -3t-18.5 12q-6 10 -5 20.5
t9 19.5q20 21 74 72t77 71q13 12 29 12t26 -12q13 -15 13 -32t-13 -29z" />
    <glyph glyph-name="acircumflex" unicode="&#xe2;" horiz-adv-x="610" 
d="M43 0zM397 63q-28 -35 -73.5 -54t-101.5 -19q-86 0 -132.5 39t-46.5 111q0 66 42 105.5t129 54.5q22 4 45 7t61 6q20 2 29 3t15 2q30 4 39 14.5t9 40.5v11q0 51 -33.5 80.5t-92.5 29.5q-63 0 -98 -24t-45 -74q-4 -20 -17 -31.5t-32 -11.5q-20 0 -32 14t-9 34
q10 71 73 114.5t159 43.5q100 0 152 -45t52 -129v-131.5v-131.5q0 -26 11.5 -40.5t31.5 -14.5q4 0 8.5 1t12.5 4t12.5 4t9.5 1q11 0 18 -8.5t7 -20.5q0 -9 -4.5 -17.5t-12.5 -14.5q-13 -9 -31.5 -14.5t-39.5 -5.5q-32 0 -51 7t-32 23q-6 7 -9.5 15t-6.5 19q-1 4 -3 6.5
t-4 2.5t-4 -1.5t-5 -4.5zM127 147q0 -43 29 -66.5t84 -23.5q67 0 111.5 32t55.5 81q3 11 4 22.5t1 22.5v11q0 16 -6.5 23t-20.5 7h-8q-25 0 -62 -4t-79 -11q-55 -10 -82 -33t-27 -61zM194 658q-21 -18 -28.5 -24t-10.5 -8q-10 -6 -21.5 -3t-18.5 12q-8 10 -7 22t11 22
q4 4 10 9.5t23 20.5q15 13 23.5 20t15.5 14q19 17 37 32.5t27 22.5q10 7 16.5 10t14.5 3q7 0 14 -3t14 -9q29 -26 40.5 -36.5t22.5 -20.5q6 -6 13.5 -12.5t21.5 -19.5q19 -16 26 -23l11 -11q8 -9 8.5 -19t-6.5 -20q-8 -10 -19.5 -12.5t-22.5 3.5q-12 7 -63 50l-51 43
q-5 4 -7.5 5.5t-4.5 1.5q-3 0 -5 -1t-7 -5q-16 -12 -32.5 -26t-44.5 -38z" />
    <glyph glyph-name="atilde" unicode="&#xe3;" horiz-adv-x="610" 
d="M43 0zM397 63q-28 -35 -73.5 -54t-101.5 -19q-86 0 -132.5 39t-46.5 111q0 66 42 105.5t129 54.5q22 4 45 7t61 6q20 2 29 3t15 2q30 4 39 14.5t9 40.5v11q0 51 -33.5 80.5t-92.5 29.5q-63 0 -98 -24t-45 -74q-4 -20 -17 -31.5t-32 -11.5q-20 0 -32 14t-9 34
q10 71 73 114.5t159 43.5q100 0 152 -45t52 -129v-131.5v-131.5q0 -26 11.5 -40.5t31.5 -14.5q4 0 8.5 1t12.5 4t12.5 4t9.5 1q11 0 18 -8.5t7 -20.5q0 -9 -4.5 -17.5t-12.5 -14.5q-13 -9 -31.5 -14.5t-39.5 -5.5q-32 0 -51 7t-32 23q-6 7 -9.5 15t-6.5 19q-1 4 -3 6.5
t-4 2.5t-4 -1.5t-5 -4.5zM127 147q0 -43 29 -66.5t84 -23.5q67 0 111.5 32t55.5 81q3 11 4 22.5t1 22.5v11q0 16 -6.5 23t-20.5 7h-8q-25 0 -62 -4t-79 -11q-55 -10 -82 -33t-27 -61zM177 665q-4 -18 -11 -24.5t-21 -6.5q-15 0 -22 7.5t-7 22.5q0 52 27.5 84.5t72.5 32.5
q23 0 43.5 -8.5t52.5 -33.5q20 -16 30 -21t19 -5q18 0 26.5 9.5t16.5 38.5q5 17 12.5 23.5t20.5 6.5t20.5 -8.5t7.5 -22.5q0 -54 -27.5 -85t-74.5 -31q-27 0 -49.5 9t-51.5 36q-18 15 -26.5 19.5t-16.5 4.5q-16 0 -26 -11t-16 -37z" />
    <glyph glyph-name="adieresis" unicode="&#xe4;" horiz-adv-x="610" 
d="M43 0zM397 63q-28 -35 -73.5 -54t-101.5 -19q-86 0 -132.5 39t-46.5 111q0 66 42 105.5t129 54.5q22 4 45 7t61 6q20 2 29 3t15 2q30 4 39 14.5t9 40.5v11q0 51 -33.5 80.5t-92.5 29.5q-63 0 -98 -24t-45 -74q-4 -20 -17 -31.5t-32 -11.5q-20 0 -32 14t-9 34
q10 71 73 114.5t159 43.5q100 0 152 -45t52 -129v-131.5v-131.5q0 -26 11.5 -40.5t31.5 -14.5q4 0 8.5 1t12.5 4t12.5 4t9.5 1q11 0 18 -8.5t7 -20.5q0 -9 -4.5 -17.5t-12.5 -14.5q-13 -9 -31.5 -14.5t-39.5 -5.5q-32 0 -51 7t-32 23q-6 7 -9.5 15t-6.5 19q-1 4 -3 6.5
t-4 2.5t-4 -1.5t-5 -4.5zM127 147q0 -43 29 -66.5t84 -23.5q67 0 111.5 32t55.5 81q3 11 4 22.5t1 22.5v11q0 16 -6.5 23t-20.5 7h-8q-25 0 -62 -4t-79 -11q-55 -10 -82 -33t-27 -61zM458 717q1 -29 -24 -49t-62 -20q-23 0 -36.5 13.5t-13.5 35.5q0 29 24 49t59 20
q25 0 38.5 -12.5t14.5 -36.5zM256 717q1 -29 -24 -49t-62 -20q-23 0 -36.5 13.5t-13.5 35.5q0 29 24 49t59 20q25 0 38.5 -12.5t14.5 -36.5z" />
    <glyph glyph-name="aring" unicode="&#xe5;" horiz-adv-x="610" 
d="M43 0zM397 63q-28 -35 -73.5 -54t-101.5 -19q-86 0 -132.5 39t-46.5 111q0 66 42 105.5t129 54.5q22 4 45 7t61 6q20 2 29 3t15 2q30 4 39 14.5t9 40.5v11q0 51 -33.5 80.5t-92.5 29.5q-63 0 -98 -24t-45 -74q-4 -20 -17 -31.5t-32 -11.5q-20 0 -32 14t-9 34
q10 71 73 114.5t159 43.5q100 0 152 -45t52 -129v-131.5v-131.5q0 -26 11.5 -40.5t31.5 -14.5q4 0 8.5 1t12.5 4t12.5 4t9.5 1q11 0 18 -8.5t7 -20.5q0 -9 -4.5 -17.5t-12.5 -14.5q-13 -9 -31.5 -14.5t-39.5 -5.5q-32 0 -51 7t-32 23q-6 7 -9.5 15t-6.5 19q-1 4 -3 6.5
t-4 2.5t-4 -1.5t-5 -4.5zM127 147q0 -43 29 -66.5t84 -23.5q67 0 111.5 32t55.5 81q3 11 4 22.5t1 22.5v11q0 16 -6.5 23t-20.5 7h-8q-25 0 -62 -4t-79 -11q-55 -10 -82 -33t-27 -61zM397 724q0 -50 -31 -80t-82 -30q-50 0 -78.5 28t-28.5 77q0 47 32 78t81 31t78 -28.5
t29 -75.5zM239 721q0 -22 13 -35t34 -13q22 0 35.5 13.5t13.5 35.5q0 21 -13 34t-33 13q-22 0 -36 -13t-14 -35z" />
    <glyph glyph-name="ae" unicode="&#xe6;" horiz-adv-x="946" 
d="M438 95q-28 -47 -84.5 -76t-126.5 -29q-89 0 -136.5 39t-47.5 110q0 66 42 106t128 55q22 4 45.5 7t61.5 6q20 2 29 3t15 2q29 4 38.5 14t9.5 40v12q0 51 -33.5 80.5t-92.5 29.5q-63 0 -98 -24t-45 -74q-4 -20 -17 -31.5t-32 -11.5q-20 0 -32 14t-9 34q10 71 72.5 114.5
t159.5 43.5q60 0 104 -20.5t74 -62.5q2 -3 3.5 -4t3.5 -1t4 1t4 3q39 41 87 62.5t102 21.5q107 0 166.5 -57t59.5 -158q0 -41 -17 -58.5t-58 -18.5h-208t-87 -1q-18 -1 -24.5 -8t-5.5 -25q4 -79 52.5 -125t128.5 -46q57 0 90 19t64 67q6 9 14 14t18 5q14 0 23 -9t9 -22
q0 -6 -1 -11.5t-3 -10.5q-30 -60 -85.5 -92t-130.5 -32q-72 0 -130 29.5t-86 77.5q-2 3 -4 4.5t-5 1.5q-2 0 -4 -1.5t-5 -6.5zM127 146q0 -43 29.5 -66t83.5 -23q67 0 111.5 32t55.5 81q3 11 4 22t1 22v5q0 25 -5 31t-22 6h-8q-26 0 -63 -4t-78 -12q-57 -10 -83 -33t-26 -61
zM803 365q0 55 -39 90t-103 35q-66 0 -109.5 -36.5t-50.5 -92.5q-2 -16 2.5 -21.5t19.5 -6.5q34 -1 119.5 -0.5t127.5 2.5q18 1 25.5 7.5t7.5 22.5z" />
    <glyph glyph-name="ccedilla" unicode="&#xe7;" horiz-adv-x="590" 
d="M401 -121q0 -41 -26.5 -64t-73.5 -23q-42 0 -71 24.5t-29 56.5q0 12 7 20t17 8q6 0 11 -4t8 -10q10 -19 25 -30t31 -11q18 0 27.5 8.5t9.5 23.5q0 16 -13 27.5t-40 19.5q-13 4 -18.5 9.5t-5.5 13.5q0 4 1.5 8.5t7.5 11.5q4 5 5.5 8t1.5 6q0 5 -3 7.5t-8 3.5
q-102 14 -159 86.5t-57 188.5q0 134 69 212.5t182 78.5q36 0 68 -8t53 -23q9 -6 14 -8t10 -2t8 4t3 11q0 22 9 33t27 11q16 0 24.5 -9.5t8.5 -26.5v-8.5t-1 -15.5q-1 -21 -1.5 -34.5t-0.5 -26.5q0 -32 0.5 -59.5t1.5 -49.5q1 -16 -9 -26t-24 -10q-17 0 -27 9.5t-10 25.5
q-1 65 -42 104.5t-106 39.5q-81 0 -125.5 -54t-44.5 -154q0 -103 47.5 -160.5t131.5 -57.5q54 0 89 21t63 71q5 10 14 15t19 5q13 0 21.5 -8.5t8.5 -21.5q0 -6 -2 -13.5t-6 -16.5q-19 -47 -64 -80t-105 -43q-11 -2 -18.5 -8t-7.5 -13t3 -10.5t12 -6.5q28 -11 43.5 -30.5
t15.5 -45.5z" />
    <glyph glyph-name="egrave" unicode="&#xe8;" horiz-adv-x="590" 
d="M50 0zM532 114q-26 -58 -86 -91t-140 -33q-122 0 -189 71t-67 202q0 136 73.5 216t191.5 80q104 0 163 -57.5t59 -157.5q0 -42 -16.5 -60t-57.5 -18h-27.5h-49.5q-38 1 -57 1h-35h-88.5t-38.5 -1q-17 -1 -23.5 -7.5t-6.5 -24.5q1 -76 48.5 -124t124.5 -48q60 0 95 19
t67 67q6 9 14.5 14t17.5 5q14 0 23.5 -9t9.5 -22q0 -7 -1 -12.5t-4 -9.5zM145 362q-2 -17 2.5 -22.5t20.5 -6.5q13 -1 34 -1h75q36 0 76.5 0.5t61.5 1.5q17 1 24.5 8t7.5 23q0 55 -38.5 90t-100.5 35q-66 0 -110.5 -36t-52.5 -92zM381 644q-6 -8 -16 -11.5t-19 -1.5
q-17 4 -81 53.5t-95 80.5q-13 13 -12 31.5t14 31.5q12 12 26 14.5t27 -6.5q20 -14 77 -68t78 -81q8 -10 8 -22t-7 -21z" />
    <glyph glyph-name="eacute" unicode="&#xe9;" horiz-adv-x="590" 
d="M50 0zM532 114q-26 -58 -86 -91t-140 -33q-122 0 -189 71t-67 202q0 136 73.5 216t191.5 80q104 0 163 -57.5t59 -157.5q0 -42 -16.5 -60t-57.5 -18h-27.5h-49.5q-38 1 -57 1h-35h-88.5t-38.5 -1q-17 -1 -23.5 -7.5t-6.5 -24.5q1 -76 48.5 -124t124.5 -48q60 0 95 19
t67 67q6 9 14.5 14t17.5 5q14 0 23.5 -9t9.5 -22q0 -7 -1 -12.5t-4 -9.5zM145 362q-2 -17 2.5 -22.5t20.5 -6.5q13 -1 34 -1h75q36 0 76.5 0.5t61.5 1.5q17 1 24.5 8t7.5 23q0 55 -38.5 90t-100.5 35q-66 0 -110.5 -36t-52.5 -92zM460 759q-27 -24 -89.5 -72.5t-79.5 -58.5
q-11 -6 -22.5 -3t-18.5 12q-6 10 -5 20.5t9 19.5q20 21 74 72t77 71q13 12 29 12t26 -12q13 -15 13 -32t-13 -29z" />
    <glyph glyph-name="ecircumflex" unicode="&#xea;" horiz-adv-x="590" 
d="M50 0zM532 114q-26 -58 -86 -91t-140 -33q-122 0 -189 71t-67 202q0 136 73.5 216t191.5 80q104 0 163 -57.5t59 -157.5q0 -42 -16.5 -60t-57.5 -18h-27.5h-49.5q-38 1 -57 1h-35h-88.5t-38.5 -1q-17 -1 -23.5 -7.5t-6.5 -24.5q1 -76 48.5 -124t124.5 -48q60 0 95 19
t67 67q6 9 14.5 14t17.5 5q14 0 23.5 -9t9.5 -22q0 -7 -1 -12.5t-4 -9.5zM145 362q-2 -17 2.5 -22.5t20.5 -6.5q13 -1 34 -1h75q36 0 76.5 0.5t61.5 1.5q17 1 24.5 8t7.5 23q0 55 -38.5 90t-100.5 35q-66 0 -110.5 -36t-52.5 -92zM216 658q-21 -18 -28.5 -24t-10.5 -8
q-10 -6 -21.5 -3t-18.5 12q-8 10 -7 22t11 22q4 4 10 9.5t23 20.5q15 13 23.5 20t15.5 14q19 17 37 32.5t27 22.5q10 7 16.5 10t14.5 3q7 0 14 -3t14 -9q29 -26 40.5 -36.5t22.5 -20.5q6 -6 13.5 -12.5t21.5 -19.5q19 -16 26 -23l11 -11q8 -9 8.5 -19t-6.5 -20
q-8 -10 -19.5 -12.5t-22.5 3.5q-12 7 -63 50l-51 43q-5 4 -7.5 5.5t-4.5 1.5q-3 0 -5 -1t-7 -5q-16 -12 -32.5 -26t-44.5 -38z" />
    <glyph glyph-name="edieresis" unicode="&#xeb;" horiz-adv-x="590" 
d="M50 0zM532 114q-26 -58 -86 -91t-140 -33q-122 0 -189 71t-67 202q0 136 73.5 216t191.5 80q104 0 163 -57.5t59 -157.5q0 -42 -16.5 -60t-57.5 -18h-27.5h-49.5q-38 1 -57 1h-35h-88.5t-38.5 -1q-17 -1 -23.5 -7.5t-6.5 -24.5q1 -76 48.5 -124t124.5 -48q60 0 95 19
t67 67q6 9 14.5 14t17.5 5q14 0 23.5 -9t9.5 -22q0 -7 -1 -12.5t-4 -9.5zM145 362q-2 -17 2.5 -22.5t20.5 -6.5q13 -1 34 -1h75q36 0 76.5 0.5t61.5 1.5q17 1 24.5 8t7.5 23q0 55 -38.5 90t-100.5 35q-66 0 -110.5 -36t-52.5 -92zM478 717q1 -29 -24 -49t-62 -20
q-23 0 -36.5 13.5t-13.5 35.5q0 29 24 49t59 20q25 0 38.5 -12.5t14.5 -36.5zM276 717q1 -29 -24 -49t-62 -20q-23 0 -36.5 13.5t-13.5 35.5q0 29 24 49t59 20q25 0 38.5 -12.5t14.5 -36.5z" />
    <glyph glyph-name="igrave" unicode="&#xec;" horiz-adv-x="363" 
d="M0 0zM97 1q-16 -1 -22.5 -1h-11.5q-16 0 -24.5 9t-8.5 25q0 15 9 24t24 9h11.5t14.5 -1q8 -1 13.5 -1h10.5q18 0 25 5.5t8 18.5q1 18 1.5 55.5t0.5 154.5q0 55 -1 95t-2 57q-1 18 -8 25t-22 7q-4 0 -9 -0.5t-16 -2.5t-16.5 -2.5t-10.5 -0.5q-18 0 -28 9t-10 26
q0 16 10 25t27 9q22 1 36.5 2t29.5 2q6 0 12.5 1t18.5 2q16 2 22.5 2.5t12.5 0.5q18 0 27 -9.5t9 -28.5v-28t-1 -57q-1 -55 -1 -83v-50q0 -81 0.5 -133.5t2.5 -76.5q1 -13 7 -19t19 -6h11t17 1q10 1 15 1h9q16 0 25 -9t9 -24q0 -16 -9 -25t-25 -9q-11 0 -24.5 0.5t-39.5 0.5
q-31 1 -47 1.5t-31 0.5t-30 -0.5t-40 -1.5zM218 647q-6 -8 -16 -11.5t-19 -1.5q-17 4 -81 53.5t-95 80.5q-13 13 -12 31.5t14 31.5q12 12 26 14.5t27 -6.5q20 -14 77 -68t78 -81q8 -10 8 -22t-7 -21z" />
    <glyph glyph-name="iacute" unicode="&#xed;" horiz-adv-x="363" 
d="M25 0zM97 1q-16 -1 -22.5 -1h-11.5q-16 0 -24.5 9t-8.5 25q0 15 9 24t24 9h11.5t14.5 -1q8 -1 13.5 -1h10.5q18 0 25 5.5t8 18.5q1 18 1.5 55.5t0.5 154.5q0 55 -1 95t-2 57q-1 18 -8 25t-22 7q-4 0 -9 -0.5t-16 -2.5t-16.5 -2.5t-10.5 -0.5q-18 0 -28 9t-10 26
q0 16 10 25t27 9q22 1 36.5 2t29.5 2q6 0 12.5 1t18.5 2q16 2 22.5 2.5t12.5 0.5q18 0 27 -9.5t9 -28.5v-28t-1 -57q-1 -55 -1 -83v-50q0 -81 0.5 -133.5t2.5 -76.5q1 -13 7 -19t19 -6h11t17 1q10 1 15 1h9q16 0 25 -9t9 -24q0 -16 -9 -25t-25 -9q-11 0 -24.5 0.5t-39.5 0.5
q-31 1 -47 1.5t-31 0.5t-30 -0.5t-40 -1.5zM308 762q-27 -24 -89.5 -72.5t-79.5 -58.5q-11 -6 -22.5 -3t-18.5 12q-6 10 -5 20.5t9 19.5q20 21 74 72t77 71q13 12 29 12t26 -12q13 -15 13 -32t-13 -29z" />
    <glyph glyph-name="icircumflex" unicode="&#xee;" horiz-adv-x="363" 
d="M0 0zM97 1q-16 -1 -22.5 -1h-11.5q-16 0 -24.5 9t-8.5 25q0 15 9 24t24 9h11.5t14.5 -1q8 -1 13.5 -1h10.5q18 0 25 5.5t8 18.5q1 18 1.5 55.5t0.5 154.5q0 55 -1 95t-2 57q-1 18 -8 25t-22 7q-4 0 -9 -0.5t-16 -2.5t-16.5 -2.5t-10.5 -0.5q-18 0 -28 9t-10 26
q0 16 10 25t27 9q22 1 36.5 2t29.5 2q6 0 12.5 1t18.5 2q16 2 22.5 2.5t12.5 0.5q18 0 27 -9.5t9 -28.5v-28t-1 -57q-1 -55 -1 -83v-50q0 -81 0.5 -133.5t2.5 -76.5q1 -13 7 -19t19 -6h11t17 1q10 1 15 1h9q16 0 25 -9t9 -24q0 -16 -9 -25t-25 -9q-11 0 -24.5 0.5t-39.5 0.5
q-31 1 -47 1.5t-31 0.5t-30 -0.5t-40 -1.5zM81 661q-21 -18 -28.5 -24t-10.5 -8q-10 -6 -21.5 -3t-18.5 12q-8 10 -7 22t11 22q4 4 10 9.5t23 20.5q15 13 23.5 20t15.5 14q19 17 37 32.5t27 22.5q10 7 16.5 10t14.5 3q7 0 14 -3t14 -9q29 -26 40.5 -36.5t22.5 -20.5
q6 -6 13.5 -12.5t21.5 -19.5q19 -16 26 -23l11 -11q8 -9 8.5 -19t-6.5 -20q-8 -10 -19.5 -12.5t-22.5 3.5q-12 7 -63 50l-51 43q-5 4 -7.5 5.5t-4.5 1.5q-3 0 -5 -1t-7 -5q-16 -12 -32.5 -26t-44.5 -38z" />
    <glyph glyph-name="idieresis" unicode="&#xef;" horiz-adv-x="363" 
d="M0 0zM97 1q-16 -1 -22.5 -1h-11.5q-16 0 -24.5 9t-8.5 25q0 15 9 24t24 9h11.5t14.5 -1q8 -1 13.5 -1h10.5q18 0 25 5.5t8 18.5q1 18 1.5 55.5t0.5 154.5q0 55 -1 95t-2 57q-1 18 -8 25t-22 7q-4 0 -9 -0.5t-16 -2.5t-16.5 -2.5t-10.5 -0.5q-18 0 -28 9t-10 26
q0 16 10 25t27 9q22 1 36.5 2t29.5 2q6 0 12.5 1t18.5 2q16 2 22.5 2.5t12.5 0.5q18 0 27 -9.5t9 -28.5v-28t-1 -57q-1 -55 -1 -83v-50q0 -81 0.5 -133.5t2.5 -76.5q1 -13 7 -19t19 -6h11t17 1q10 1 15 1h9q16 0 25 -9t9 -24q0 -16 -9 -25t-25 -9q-11 0 -24.5 0.5t-39.5 0.5
q-31 1 -47 1.5t-31 0.5t-30 -0.5t-40 -1.5zM335 720q1 -29 -24 -49t-62 -20q-23 0 -36.5 13.5t-13.5 35.5q0 29 24 49t59 20q25 0 38.5 -12.5t14.5 -36.5zM133 720q1 -29 -24 -49t-62 -20q-23 0 -36.5 13.5t-13.5 35.5q0 29 24 49t59 20q25 0 38.5 -12.5t14.5 -36.5z" />
    <glyph glyph-name="eth" unicode="&#xf0;" horiz-adv-x="598" 
d="M138 209q0 -70 39 -112t106 -42q62 0 100 42t38 112q0 66 -41.5 109t-104.5 43t-100 -40.5t-37 -111.5zM525 336q0 -169 -65.5 -257.5t-187.5 -88.5q-102 0 -162.5 59.5t-60.5 155.5q0 101 60.5 164.5t159.5 63.5q50 0 95 -23.5t72 -63.5q3 -5 8 -4t5 6q0 53 -11.5 101
t-30.5 72q-4 5 -7.5 7t-7.5 2q-7 0 -23.5 -14t-18.5 -16q-19 -17 -28.5 -22t-18.5 -5q-13 0 -25.5 13.5t-12.5 27.5q0 8 3.5 14t13.5 13q6 4 12.5 8.5t19.5 12.5q19 11 24 15.5t5 7.5q0 10 -38.5 28.5t-94.5 32.5q-39 9 -50 17.5t-11 22.5q0 9 3.5 16.5t9.5 13.5
q5 5 13.5 7.5t17.5 2.5q21 0 45.5 -6.5t66.5 -24.5q23 -10 43 -21t43 -27q11 -7 14.5 -9t6.5 -2q7 0 17.5 7.5t38.5 31.5q14 11 24 16.5t18 5.5q12 0 23.5 -12.5t11.5 -25.5q0 -14 -6 -23t-37 -27q-4 -2 -11.5 -6.5t-11.5 -6.5q-9 -6 -13 -10t-4 -8q0 -3 1.5 -6.5t6.5 -10.5
q26 -42 40.5 -101t14.5 -124z" />
    <glyph glyph-name="ntilde" unicode="&#xf1;" 
d="M20 0zM95 1q-14 -1 -20.5 -1h-11.5q-16 0 -24.5 9t-8.5 26q0 14 9 23t24 9h11.5t14.5 -1t14.5 -1h10.5q17 0 24 5.5t8 18.5q1 21 1.5 53t0.5 128q0 65 -1 111.5t-2 66.5q-1 19 -9 27t-25 8q-4 0 -9.5 -0.5t-16.5 -2.5t-16.5 -2.5t-10.5 -0.5q-18 0 -28 9t-10 26
q0 16 9.5 25t27.5 9l23.5 1t42.5 3q6 0 13 1t19 2q14 2 20.5 2.5t11.5 0.5q18 0 27 -9t9 -27q0 -7 -0.5 -15.5t-2.5 -21.5q-1 -5 0.5 -8t5.5 -3q2 0 4 1t5 4q39 44 79 63t89 19q87 0 135 -52t48 -143v-52v-52q0 -108 0.5 -131.5t2.5 -43.5q1 -11 5.5 -15.5t16.5 -4.5h10
t14 1q7 1 10 1h6q17 0 26 -8.5t9 -24.5t-10 -25.5t-26 -8.5q-42 2 -67 3t-51 1q-14 0 -27.5 -0.5t-36.5 -2.5q-14 0 -20 -0.5t-11 -0.5q-15 0 -24 9.5t-9 24.5t9 24t24 9q6 0 12.5 -0.5t16.5 -0.5q6 -1 8 -1h4q13 0 18.5 5t6.5 17q2 35 2.5 78.5t-0.5 87.5q-1 92 -8 129
t-23 61q-15 22 -38.5 32.5t-58.5 10.5q-34 0 -60.5 -11t-44.5 -32q-24 -28 -34 -67t-10 -103q0 -97 0.5 -129.5t1.5 -54.5q1 -13 5.5 -18.5t16.5 -5.5h8t13 1q8 1 12 1h7q16 0 25.5 -8.5t9.5 -23.5t-9.5 -25t-25.5 -10q-11 0 -22.5 0.5t-35.5 0.5q-27 1 -42 1.5t-29 0.5
q-15 0 -29.5 -0.5t-38.5 -1.5zM240 665q-4 -18 -11 -24.5t-21 -6.5q-15 0 -22 7.5t-7 22.5q0 52 27.5 84.5t72.5 32.5q23 0 43.5 -8.5t52.5 -33.5q20 -16 30 -21t19 -5q18 0 26.5 9.5t16.5 38.5q5 17 12.5 23.5t20.5 6.5t20.5 -8.5t7.5 -22.5q0 -54 -27.5 -85t-74.5 -31
q-27 0 -49.5 9t-51.5 36q-18 15 -26.5 19.5t-16.5 4.5q-16 0 -26 -11t-16 -37z" />
    <glyph glyph-name="ograve" unicode="&#xf2;" horiz-adv-x="626" 
d="M50 0zM576 272q0 -130 -72.5 -206t-194.5 -76q-118 0 -188.5 75t-70.5 202q0 130 76.5 211t193.5 81q113 0 184.5 -80t71.5 -207zM137 283q0 -103 49.5 -163.5t135.5 -60.5q78 0 122 52.5t44 146.5q0 109 -48.5 170.5t-133.5 61.5q-75 0 -122 -57t-47 -150zM383 644
q-6 -8 -16 -11.5t-19 -1.5q-17 4 -81 53.5t-95 80.5q-13 13 -12 31.5t14 31.5q12 12 26 14.5t27 -6.5q20 -14 77 -68t78 -81q8 -10 8 -22t-7 -21z" />
    <glyph glyph-name="oacute" unicode="&#xf3;" horiz-adv-x="626" 
d="M50 0zM576 272q0 -130 -72.5 -206t-194.5 -76q-118 0 -188.5 75t-70.5 202q0 130 76.5 211t193.5 81q113 0 184.5 -80t71.5 -207zM137 283q0 -103 49.5 -163.5t135.5 -60.5q78 0 122 52.5t44 146.5q0 109 -48.5 170.5t-133.5 61.5q-75 0 -122 -57t-47 -150zM442 759
q-27 -24 -89.5 -72.5t-79.5 -58.5q-11 -6 -22.5 -3t-18.5 12q-6 10 -5 20.5t9 19.5q20 21 74 72t77 71q13 12 29 12t26 -12q13 -15 13 -32t-13 -29z" />
    <glyph glyph-name="ocircumflex" unicode="&#xf4;" horiz-adv-x="624" 
d="M50 0zM224 658q-21 -18 -28.5 -24t-10.5 -8q-10 -6 -21.5 -3t-18.5 12q-8 10 -7 22t11 22q4 4 10 9.5t23 20.5q15 13 23.5 20t15.5 14q19 17 37 32.5t27 22.5q10 7 16.5 10t14.5 3q7 0 14 -3t14 -9q29 -26 40.5 -36.5t22.5 -20.5q6 -6 13.5 -12.5t21.5 -19.5
q19 -16 26 -23l11 -11q8 -9 8.5 -19t-6.5 -20q-8 -10 -19.5 -12.5t-22.5 3.5q-12 7 -63 50l-51 43q-5 4 -7.5 5.5t-4.5 1.5q-3 0 -5 -1t-7 -5q-16 -12 -32.5 -26t-44.5 -38zM576 272q0 -130 -72.5 -206t-194.5 -76q-118 0 -188.5 75t-70.5 202q0 130 76.5 211t193.5 81
q113 0 184.5 -80t71.5 -207zM137 283q0 -103 49.5 -163.5t135.5 -60.5q78 0 122 52.5t44 146.5q0 109 -48.5 170.5t-133.5 61.5q-75 0 -122 -57t-47 -150z" />
    <glyph glyph-name="otilde" unicode="&#xf5;" horiz-adv-x="626" 
d="M50 0zM576 272q0 -130 -72.5 -206t-194.5 -76q-118 0 -188.5 75t-70.5 202q0 130 76.5 211t193.5 81q113 0 184.5 -80t71.5 -207zM137 283q0 -103 49.5 -163.5t135.5 -60.5q78 0 122 52.5t44 146.5q0 109 -48.5 170.5t-133.5 61.5q-75 0 -122 -57t-47 -150zM207 665
q-4 -18 -11 -24.5t-21 -6.5q-15 0 -22 7.5t-7 22.5q0 52 27.5 84.5t72.5 32.5q23 0 43.5 -8.5t52.5 -33.5q20 -16 30 -21t19 -5q18 0 26.5 9.5t16.5 38.5q5 17 12.5 23.5t20.5 6.5t20.5 -8.5t7.5 -22.5q0 -54 -27.5 -85t-74.5 -31q-27 0 -49.5 9t-51.5 36q-18 15 -26.5 19.5
t-16.5 4.5q-16 0 -26 -11t-16 -37z" />
    <glyph glyph-name="odieresis" unicode="&#xf6;" horiz-adv-x="624" 
d="M50 0zM481 717q1 -29 -24 -49t-62 -20q-23 0 -36.5 13.5t-13.5 35.5q0 29 24 49t59 20q25 0 38.5 -12.5t14.5 -36.5zM279 717q1 -29 -24 -49t-62 -20q-23 0 -36.5 13.5t-13.5 35.5q0 29 24 49t59 20q25 0 38.5 -12.5t14.5 -36.5zM576 272q0 -130 -72.5 -206t-194.5 -76
q-118 0 -188.5 75t-70.5 202q0 130 76.5 211t193.5 81q113 0 184.5 -80t71.5 -207zM137 283q0 -103 49.5 -163.5t135.5 -60.5q78 0 122 52.5t44 146.5q0 109 -48.5 170.5t-133.5 61.5q-75 0 -122 -57t-47 -150z" />
    <glyph glyph-name="divide" unicode="&#xf7;" horiz-adv-x="499" 
d="M244 318q-27 0 -56 -0.5t-55 -1.5q-27 -1 -40 10t-13 33q0 19 13.5 30t38.5 10q16 -1 39 -1h75q64 1 85.5 2t37.5 1q24 1 37 -10t13 -32q0 -20 -12 -31t-36 -10q-22 1 -68 0.5t-59 -0.5zM286 220q0 -24 -17 -41t-42 -17q-22 0 -34.5 12t-12.5 32q0 24 17.5 42t41.5 18
q21 0 34 -12.5t13 -33.5zM286 522q0 -24 -17 -41t-42 -17q-22 0 -34.5 12t-12.5 32q0 24 17.5 42t41.5 18q21 0 34 -12.5t13 -33.5z" />
    <glyph glyph-name="oslash" unicode="&#xf8;" horiz-adv-x="626" 
d="M215 98q0 -13 33 -26t66 -13q83 0 129.5 55t46.5 154q0 42 -9 75.5t-22 33.5q-4 0 -8.5 -3.5t-10.5 -11.5l-218 -250q-4 -5 -5.5 -8t-1.5 -6zM312 490q-80 0 -128.5 -59t-48.5 -158q0 -39 10 -76.5t23 -37.5q4 0 8 3t10 9l219 256q4 5 6 9.5t2 9.5q0 16 -31 30t-70 14z
M311 -10q-46 0 -80 8.5t-64 27.5q-6 4 -10.5 3t-12.5 -10l-25 -30q-13 -17 -30.5 -19.5t-32.5 11.5q-15 13 -13.5 30.5t15.5 30.5l37 38q4 4 4 9.5t-4 12.5q-24 39 -34.5 77.5t-10.5 87.5q0 129 75.5 210.5t189.5 81.5q42 0 79.5 -11t67.5 -32q7 -5 12 -4t13 10l25 30
q14 16 30.5 18t32.5 -11q15 -12 14.5 -29t-15.5 -32l-38 -38q-5 -4 -5 -9t4 -12q19 -34 30 -77.5t11 -89.5q0 -129 -72.5 -205.5t-192.5 -76.5z" />
    <glyph glyph-name="ugrave" unicode="&#xf9;" horiz-adv-x="711" 
d="M20 0zM541 555q23 0 33.5 -11t10.5 -34v-19.5t-1 -41.5q-2 -57 -2.5 -91.5t-0.5 -65.5v-147.5t1 -46.5q1 -17 6.5 -23t17.5 -6h12t16 1t14.5 1h9.5q15 0 24 -9.5t9 -25.5t-9.5 -25.5t-26.5 -9.5h-10t-15 1q-11 1 -16.5 1h-10.5q-4 0 -8.5 -0.5t-14.5 -0.5
q-14 -1 -20.5 -1.5t-11.5 -0.5q-17 0 -26 7t-12 22q-1 7 -2 18.5t-1 13.5q0 5 -2 7.5t-6 2.5q-3 0 -4.5 -1t-4.5 -5q-25 -36 -66.5 -55.5t-94.5 -19.5q-87 0 -134 49t-47 139q0 100 -1 174.5t-3 106.5q-1 13 -7 18.5t-19 5.5q-5 0 -11 -0.5t-18 -2.5q-12 -3 -18.5 -3.5
t-11.5 -0.5q-19 0 -29 9t-10 26q0 16 10.5 25.5t27.5 9.5q19 1 33.5 2t31.5 2q6 0 12 0.5t16 2.5q16 1 22.5 1.5t12.5 0.5q21 0 31.5 -11t10.5 -34v-19.5t-1 -45.5q0 -54 -0.5 -81t-0.5 -46q0 -111 7 -150.5t22 -61.5q17 -23 41 -34t58 -11q37 0 66 13t48 39q18 26 26 66.5
t8 112.5q0 34 -0.5 66t-2.5 101q-1 13 -7 18.5t-19 5.5q-5 0 -11 -0.5t-18 -2.5q-12 -3 -18.5 -3.5t-11.5 -0.5q-18 0 -28.5 9.5t-10.5 26.5q0 15 10.5 24.5t27.5 9.5q19 1 33.5 2t31.5 2q6 0 12 0.5t16 2.5q16 1 22.5 1.5t12.5 0.5zM402 644q-6 -8 -16 -11.5t-19 -1.5
q-17 4 -81 53.5t-95 80.5q-13 13 -12 31.5t14 31.5q12 12 26 14.5t27 -6.5q20 -14 77 -68t78 -81q8 -10 8 -22t-7 -21z" />
    <glyph glyph-name="uacute" unicode="&#xfa;" horiz-adv-x="711" 
d="M20 0zM541 555q23 0 33.5 -11t10.5 -34v-19.5t-1 -41.5q-2 -57 -2.5 -91.5t-0.5 -65.5v-147.5t1 -46.5q1 -17 6.5 -23t17.5 -6h12t16 1t14.5 1h9.5q15 0 24 -9.5t9 -25.5t-9.5 -25.5t-26.5 -9.5h-10t-15 1q-11 1 -16.5 1h-10.5q-4 0 -8.5 -0.5t-14.5 -0.5
q-14 -1 -20.5 -1.5t-11.5 -0.5q-17 0 -26 7t-12 22q-1 7 -2 18.5t-1 13.5q0 5 -2 7.5t-6 2.5q-3 0 -4.5 -1t-4.5 -5q-25 -36 -66.5 -55.5t-94.5 -19.5q-87 0 -134 49t-47 139q0 100 -1 174.5t-3 106.5q-1 13 -7 18.5t-19 5.5q-5 0 -11 -0.5t-18 -2.5q-12 -3 -18.5 -3.5
t-11.5 -0.5q-19 0 -29 9t-10 26q0 16 10.5 25.5t27.5 9.5q19 1 33.5 2t31.5 2q6 0 12 0.5t16 2.5q16 1 22.5 1.5t12.5 0.5q21 0 31.5 -11t10.5 -34v-19.5t-1 -45.5q0 -54 -0.5 -81t-0.5 -46q0 -111 7 -150.5t22 -61.5q17 -23 41 -34t58 -11q37 0 66 13t48 39q18 26 26 66.5
t8 112.5q0 34 -0.5 66t-2.5 101q-1 13 -7 18.5t-19 5.5q-5 0 -11 -0.5t-18 -2.5q-12 -3 -18.5 -3.5t-11.5 -0.5q-18 0 -28.5 9.5t-10.5 26.5q0 15 10.5 24.5t27.5 9.5q19 1 33.5 2t31.5 2q6 0 12 0.5t16 2.5q16 1 22.5 1.5t12.5 0.5zM498 740q-27 -24 -89.5 -72.5
t-79.5 -58.5q-11 -6 -22.5 -3t-18.5 12q-6 10 -5 20.5t9 19.5q20 21 74 72t77 71q13 12 29 12t26 -12q13 -15 13 -32t-13 -29z" />
    <glyph glyph-name="ucircumflex" unicode="&#xfb;" horiz-adv-x="711" 
d="M20 0zM541 555q23 0 33.5 -11t10.5 -34v-19.5t-1 -41.5q-2 -57 -2.5 -91.5t-0.5 -65.5v-147.5t1 -46.5q1 -17 6.5 -23t17.5 -6h12t16 1t14.5 1h9.5q15 0 24 -9.5t9 -25.5t-9.5 -25.5t-26.5 -9.5h-10t-15 1q-11 1 -16.5 1h-10.5q-4 0 -8.5 -0.5t-14.5 -0.5
q-14 -1 -20.5 -1.5t-11.5 -0.5q-17 0 -26 7t-12 22q-1 7 -2 18.5t-1 13.5q0 5 -2 7.5t-6 2.5q-3 0 -4.5 -1t-4.5 -5q-25 -36 -66.5 -55.5t-94.5 -19.5q-87 0 -134 49t-47 139q0 100 -1 174.5t-3 106.5q-1 13 -7 18.5t-19 5.5q-5 0 -11 -0.5t-18 -2.5q-12 -3 -18.5 -3.5
t-11.5 -0.5q-19 0 -29 9t-10 26q0 16 10.5 25.5t27.5 9.5q19 1 33.5 2t31.5 2q6 0 12 0.5t16 2.5q16 1 22.5 1.5t12.5 0.5q21 0 31.5 -11t10.5 -34v-19.5t-1 -45.5q0 -54 -0.5 -81t-0.5 -46q0 -111 7 -150.5t22 -61.5q17 -23 41 -34t58 -11q37 0 66 13t48 39q18 26 26 66.5
t8 112.5q0 34 -0.5 66t-2.5 101q-1 13 -7 18.5t-19 5.5q-5 0 -11 -0.5t-18 -2.5q-12 -3 -18.5 -3.5t-11.5 -0.5q-18 0 -28.5 9.5t-10.5 26.5q0 15 10.5 24.5t27.5 9.5q19 1 33.5 2t31.5 2q6 0 12 0.5t16 2.5q16 1 22.5 1.5t12.5 0.5zM253 658q-21 -18 -28.5 -24t-10.5 -8
q-10 -6 -21.5 -3t-18.5 12q-8 10 -7 22t11 22q4 4 10 9.5t23 20.5q15 13 23.5 20t15.5 14q19 17 37 32.5t27 22.5q10 7 16.5 10t14.5 3q7 0 14 -3t14 -9q29 -26 40.5 -36.5t22.5 -20.5q6 -6 13.5 -12.5t21.5 -19.5q19 -16 26 -23l11 -11q8 -9 8.5 -19t-6.5 -20
q-8 -10 -19.5 -12.5t-22.5 3.5q-12 7 -63 50l-51 43q-5 4 -7.5 5.5t-4.5 1.5q-3 0 -5 -1t-7 -5q-16 -12 -32.5 -26t-44.5 -38z" />
    <glyph glyph-name="udieresis" unicode="&#xfc;" horiz-adv-x="711" 
d="M20 0zM541 555q23 0 33.5 -11t10.5 -34v-19.5t-1 -41.5q-2 -57 -2.5 -91.5t-0.5 -65.5v-147.5t1 -46.5q1 -17 6.5 -23t17.5 -6h12t16 1t14.5 1h9.5q15 0 24 -9.5t9 -25.5t-9.5 -25.5t-26.5 -9.5h-10t-15 1q-11 1 -16.5 1h-10.5q-4 0 -8.5 -0.5t-14.5 -0.5
q-14 -1 -20.5 -1.5t-11.5 -0.5q-17 0 -26 7t-12 22q-1 7 -2 18.5t-1 13.5q0 5 -2 7.5t-6 2.5q-3 0 -4.5 -1t-4.5 -5q-25 -36 -66.5 -55.5t-94.5 -19.5q-87 0 -134 49t-47 139q0 100 -1 174.5t-3 106.5q-1 13 -7 18.5t-19 5.5q-5 0 -11 -0.5t-18 -2.5q-12 -3 -18.5 -3.5
t-11.5 -0.5q-19 0 -29 9t-10 26q0 16 10.5 25.5t27.5 9.5q19 1 33.5 2t31.5 2q6 0 12 0.5t16 2.5q16 1 22.5 1.5t12.5 0.5q21 0 31.5 -11t10.5 -34v-19.5t-1 -45.5q0 -54 -0.5 -81t-0.5 -46q0 -111 7 -150.5t22 -61.5q17 -23 41 -34t58 -11q37 0 66 13t48 39q18 26 26 66.5
t8 112.5q0 34 -0.5 66t-2.5 101q-1 13 -7 18.5t-19 5.5q-5 0 -11 -0.5t-18 -2.5q-12 -3 -18.5 -3.5t-11.5 -0.5q-18 0 -28.5 9.5t-10.5 26.5q0 15 10.5 24.5t27.5 9.5q19 1 33.5 2t31.5 2q6 0 12 0.5t16 2.5q16 1 22.5 1.5t12.5 0.5zM510 698q1 -29 -24 -49t-62 -20
q-23 0 -36.5 13.5t-13.5 35.5q0 29 24 49t59 20q25 0 38.5 -12.5t14.5 -36.5zM308 698q1 -29 -24 -49t-62 -20q-23 0 -36.5 13.5t-13.5 35.5q0 29 24 49t59 20q25 0 38.5 -12.5t14.5 -36.5z" />
    <glyph glyph-name="yacute" unicode="&#xfd;" horiz-adv-x="711" 
d="M20 0zM383 -113q-32 -75 -74 -105.5t-110 -30.5q-44 0 -72 20.5t-28 50.5q0 22 13 36t33 14q12 0 21.5 -4.5t20.5 -15.5q10 -11 22 -16t27 -5q36 0 58.5 29t22.5 76q0 20 -6 42.5t-25 70.5q-44 110 -91 223.5t-78 184.5q-8 16 -14.5 22t-16.5 6h-4.5t-7.5 -1
q-8 -1 -12 -1h-8q-16 0 -25 8.5t-9 23.5q0 17 9.5 26t26.5 9h14.5t26.5 -1q23 -1 36 -1.5t24 -0.5q14 0 27.5 0.5t37.5 1.5q20 0 30.5 0.5t20.5 0.5q19 0 28 -8.5t9 -25.5q0 -16 -9.5 -24.5t-27.5 -8.5q-7 0 -14.5 0.5t-18.5 0.5q-7 1 -9.5 1h-4.5q-10 0 -15 -3.5t-5 -10.5
q1 -8 3.5 -17.5t6.5 -21.5q16 -44 55.5 -142.5t86.5 -212.5q2 -6 5.5 -9t7.5 -3t7 2.5t5 8.5q24 61 55.5 146t60.5 170q9 25 14 43t6 27q0 12 -6.5 17.5t-19.5 5.5h-6t-11 -1q-9 -1 -14 -1h-10q-16 0 -25.5 9t-9.5 24t9.5 24.5t24.5 9.5h14t25 -1q24 -1 38.5 -1.5t28.5 -0.5
q13 0 26.5 0.5t35.5 1.5q16 1 23 1h14q18 0 27 -9t9 -26q0 -15 -8.5 -23.5t-24.5 -8.5h-6.5t-10.5 1q-6 1 -8 1h-4q-7 0 -12.5 -4.5t-11.5 -17.5q-7 -15 -29 -71t-79 -209q-26 -67 -36.5 -95.5t-18.5 -48.5q-29 -75 -39.5 -102t-20.5 -50zM527 759q-27 -24 -89.5 -72.5
t-79.5 -58.5q-11 -6 -22.5 -3t-18.5 12q-6 10 -5 20.5t9 19.5q20 21 74 72t77 71q13 12 29 12t26 -12q13 -15 13 -32t-13 -29z" />
    <glyph glyph-name="thorn" unicode="&#xfe;" horiz-adv-x="688" 
d="M96 -250q-15 0 -22 -0.5t-12 -0.5q-17 0 -26 9.5t-9 26.5q0 15 10 24.5t25 9.5q6 0 12.5 -0.5t17.5 -1.5q10 -1 14 -1h8q13 0 19 5t7 16q2 44 3 145.5t1 233.5q0 260 -1 353t-3 129q-1 11 -6.5 16t-16.5 5q-3 0 -7 -0.5t-13 -1.5q-13 -3 -21.5 -3.5t-16.5 -0.5
q-18 0 -28.5 9.5t-10.5 24.5q0 17 9.5 26t27.5 10q7 0 14.5 0.5t22.5 0.5q13 1 20 1.5t14 0.5q6 0 12.5 0.5t18.5 2.5q12 1 17.5 1.5t10.5 0.5q20 0 29.5 -11t9.5 -36v-130v-130q0 -6 2 -9t6 -3q3 0 5.5 1.5t4.5 5.5q26 36 71 58t97 22q105 0 165.5 -74.5t60.5 -201.5
q0 -138 -63.5 -215.5t-178.5 -77.5q-46 0 -85 15t-66 44q-3 3 -5 4t-4 1q-4 0 -6 -3t-3 -8q-3 -37 -3 -104.5t2 -101.5q1 -11 7 -16t19 -5q8 0 17 0.5t26 1.5q15 0 22.5 0.5t13.5 0.5q15 0 23.5 -9.5t8.5 -24.5q0 -16 -8.5 -26t-23.5 -10q-13 0 -27 0.5t-44 1.5
q-34 1 -52.5 1.5t-35.5 0.5t-33.5 -0.5t-42.5 -2.5zM226 208q4 -68 47 -108.5t111 -40.5q83 0 125 52.5t44 157.5q1 104 -42 159.5t-124 55.5q-66 0 -109 -39t-50 -105q-3 -33 -3.5 -62.5t1.5 -69.5z" />
    <glyph glyph-name="ydieresis" unicode="&#xff;" horiz-adv-x="711" 
d="M20 0zM383 -113q-32 -75 -74 -105.5t-110 -30.5q-44 0 -72 20.5t-28 50.5q0 22 13 36t33 14q12 0 21.5 -4.5t20.5 -15.5q10 -11 22 -16t27 -5q36 0 58.5 29t22.5 76q0 20 -6 42.5t-25 70.5q-44 110 -91 223.5t-78 184.5q-8 16 -14.5 22t-16.5 6h-4.5t-7.5 -1
q-8 -1 -12 -1h-8q-16 0 -25 8.5t-9 23.5q0 17 9.5 26t26.5 9h14.5t26.5 -1q23 -1 36 -1.5t24 -0.5q14 0 27.5 0.5t37.5 1.5q20 0 30.5 0.5t20.5 0.5q19 0 28 -8.5t9 -25.5q0 -16 -9.5 -24.5t-27.5 -8.5q-7 0 -14.5 0.5t-18.5 0.5q-7 1 -9.5 1h-4.5q-10 0 -15 -3.5t-5 -10.5
q1 -8 3.5 -17.5t6.5 -21.5q16 -44 55.5 -142.5t86.5 -212.5q2 -6 5.5 -9t7.5 -3t7 2.5t5 8.5q24 61 55.5 146t60.5 170q9 25 14 43t6 27q0 12 -6.5 17.5t-19.5 5.5h-6t-11 -1q-9 -1 -14 -1h-10q-16 0 -25.5 9t-9.5 24t9.5 24.5t24.5 9.5h14t25 -1q24 -1 38.5 -1.5t28.5 -0.5
q13 0 26.5 0.5t35.5 1.5q16 1 23 1h14q18 0 27 -9t9 -26q0 -15 -8.5 -23.5t-24.5 -8.5h-6.5t-10.5 1q-6 1 -8 1h-4q-7 0 -12.5 -4.5t-11.5 -17.5q-7 -15 -29 -71t-79 -209q-26 -67 -36.5 -95.5t-18.5 -48.5q-29 -75 -39.5 -102t-20.5 -50zM542 717q1 -29 -24 -49t-62 -20
q-23 0 -36.5 13.5t-13.5 35.5q0 29 24 49t59 20q25 0 38.5 -12.5t14.5 -36.5zM340 717q1 -29 -24 -49t-62 -20q-23 0 -36.5 13.5t-13.5 35.5q0 29 24 49t59 20q25 0 38.5 -12.5t14.5 -36.5z" />
    <glyph glyph-name="Amacron" unicode="&#x100;" horiz-adv-x="830" 
d="M15 0zM97 2q-19 -1 -27 -1.5t-15 -0.5q-20 0 -30 9t-10 26t11 27t29 10q5 0 10 -0.5l15 -1.5q8 -1 11.5 -1.5t6.5 -0.5q10 0 16.5 6t11.5 19q42 115 57 156.5t32 89.5q11 33 24 70t37 105q19 56 28 81t15 43q20 57 38.5 73t58.5 16q39 0 57.5 -15t38.5 -72
q17 -48 52 -152t47 -140q27 -80 52.5 -151t41.5 -111q3 -8 10.5 -12.5t17.5 -4.5h6.5h11.5q10 1 15.5 1h10.5q19 0 28.5 -8.5t9.5 -25.5t-8.5 -26.5t-24.5 -9.5q-9 0 -19 0.5t-32 0.5q-26 1 -40 1.5t-27 0.5t-27.5 -0.5t-41.5 -0.5q-29 -1 -44.5 -1.5t-29.5 -0.5
q-19 0 -28.5 9t-9.5 26q0 15 10.5 25.5t27.5 10.5h15.5t22.5 -1q10 -1 15 -1h9q17 0 22.5 10t-0.5 30q-7 26 -23.5 74t-20.5 61q-3 9 -9.5 13t-20.5 5q-12 1 -36 1h-85h-23h-34q-24 -1 -37.5 -1h-26.5q-14 0 -19.5 -4t-11.5 -19q-13 -37 -24 -71.5t-20 -64.5q-6 -19 0 -27
t26 -8h11t18 1q14 1 22 1h15q16 0 25 -9.5t9 -25.5q0 -17 -8.5 -26t-25.5 -9q-6 0 -14.5 0.5t-27.5 0.5q-32 2 -52 2.5t-40 0.5q-16 0 -32 -0.5t-43 -1.5zM300 365q-6 -17 -1 -25t22 -9q14 -1 31.5 -1h57.5h57.5t35.5 1q14 1 18.5 8t0.5 21q-25 79 -50 151.5t-45 126.5
q-2 7 -6 10t-10 3q-7 0 -11 -3t-6 -10q-14 -38 -32.5 -90.5t-61.5 -182.5zM520 802q-18 1 -57.5 0.5t-50.5 -0.5q-24 0 -48.5 -0.5t-46.5 -1.5q-21 -1 -31 10t-10 33q0 19 10.5 30t29.5 10q14 -1 33.5 -1h64.5q47 1 68 1.5t36 1.5q19 1 29 -10t10 -32q0 -20 -9.5 -31
t-27.5 -10z" />
    <glyph glyph-name="amacron" unicode="&#x101;" horiz-adv-x="610" 
d="M43 0zM397 63q-28 -35 -73.5 -54t-101.5 -19q-86 0 -132.5 39t-46.5 111q0 66 42 105.5t129 54.5q22 4 45 7t61 6q20 2 29 3t15 2q30 4 39 14.5t9 40.5v11q0 51 -33.5 80.5t-92.5 29.5q-63 0 -98 -24t-45 -74q-4 -20 -17 -31.5t-32 -11.5q-20 0 -32 14t-9 34
q10 71 73 114.5t159 43.5q100 0 152 -45t52 -129v-131.5v-131.5q0 -26 11.5 -40.5t31.5 -14.5q4 0 8.5 1t12.5 4t12.5 4t9.5 1q11 0 18 -8.5t7 -20.5q0 -9 -4.5 -17.5t-12.5 -14.5q-13 -9 -31.5 -14.5t-39.5 -5.5q-32 0 -51 7t-32 23q-6 7 -9.5 15t-6.5 19q-1 4 -3 6.5
t-4 2.5t-4 -1.5t-5 -4.5zM127 147q0 -43 29 -66.5t84 -23.5q67 0 111.5 32t55.5 81q3 11 4 22.5t1 22.5v11q0 16 -6.5 23t-20.5 7h-8q-25 0 -62 -4t-79 -11q-55 -10 -82 -33t-27 -61zM389 646q-18 1 -57.5 0.5t-50.5 -0.5q-24 0 -48.5 -0.5t-46.5 -1.5q-21 -1 -31 10t-10 33
q0 19 10.5 30t29.5 10q14 -1 33.5 -1h64.5q47 1 68 1.5t36 1.5q19 1 29 -10t10 -32q0 -20 -9.5 -31t-27.5 -10z" />
    <glyph glyph-name="Abreve" unicode="&#x102;" horiz-adv-x="830" 
d="M15 0zM97 2q-19 -1 -27 -1.5t-15 -0.5q-20 0 -30 9t-10 26t11 27t29 10q5 0 10 -0.5l15 -1.5q8 -1 11.5 -1.5t6.5 -0.5q10 0 16.5 6t11.5 19q42 115 57 156.5t32 89.5q11 33 24 70t37 105q19 56 28 81t15 43q20 57 38.5 73t58.5 16q39 0 57.5 -15t38.5 -72
q17 -48 52 -152t47 -140q27 -80 52.5 -151t41.5 -111q3 -8 10.5 -12.5t17.5 -4.5h6.5h11.5q10 1 15.5 1h10.5q19 0 28.5 -8.5t9.5 -25.5t-8.5 -26.5t-24.5 -9.5q-9 0 -19 0.5t-32 0.5q-26 1 -40 1.5t-27 0.5t-27.5 -0.5t-41.5 -0.5q-29 -1 -44.5 -1.5t-29.5 -0.5
q-19 0 -28.5 9t-9.5 26q0 15 10.5 25.5t27.5 10.5h15.5t22.5 -1q10 -1 15 -1h9q17 0 22.5 10t-0.5 30q-7 26 -23.5 74t-20.5 61q-3 9 -9.5 13t-20.5 5q-12 1 -36 1h-85h-23h-34q-24 -1 -37.5 -1h-26.5q-14 0 -19.5 -4t-11.5 -19q-13 -37 -24 -71.5t-20 -64.5q-6 -19 0 -27
t26 -8h11t18 1q14 1 22 1h15q16 0 25 -9.5t9 -25.5q0 -17 -8.5 -26t-25.5 -9q-6 0 -14.5 0.5t-27.5 0.5q-32 2 -52 2.5t-40 0.5q-16 0 -32 -0.5t-43 -1.5zM300 365q-6 -17 -1 -25t22 -9q14 -1 31.5 -1h57.5h57.5t35.5 1q14 1 18.5 8t0.5 21q-25 79 -50 151.5t-45 126.5
q-2 7 -6 10t-10 3q-7 0 -11 -3t-6 -10q-14 -38 -32.5 -90.5t-61.5 -182.5zM519 823q-19 -16 -46.5 -24.5t-60.5 -8.5q-63 0 -102 32t-39 84q0 13 3.5 21.5t11.5 13.5q5 3 11.5 4.5t13.5 1.5q13 0 20.5 -6.5t10.5 -23.5q6 -37 24.5 -53t54.5 -16q35 0 54.5 14.5t26.5 45.5
q4 19 11 26t20 7t19.5 -7t6.5 -22q0 -27 -10 -49t-30 -40z" />
    <glyph glyph-name="abreve" unicode="&#x103;" horiz-adv-x="610" 
d="M43 0zM397 63q-28 -35 -73.5 -54t-101.5 -19q-86 0 -132.5 39t-46.5 111q0 66 42 105.5t129 54.5q22 4 45 7t61 6q20 2 29 3t15 2q30 4 39 14.5t9 40.5v11q0 51 -33.5 80.5t-92.5 29.5q-63 0 -98 -24t-45 -74q-4 -20 -17 -31.5t-32 -11.5q-20 0 -32 14t-9 34
q10 71 73 114.5t159 43.5q100 0 152 -45t52 -129v-131.5v-131.5q0 -26 11.5 -40.5t31.5 -14.5q4 0 8.5 1t12.5 4t12.5 4t9.5 1q11 0 18 -8.5t7 -20.5q0 -9 -4.5 -17.5t-12.5 -14.5q-13 -9 -31.5 -14.5t-39.5 -5.5q-32 0 -51 7t-32 23q-6 7 -9.5 15t-6.5 19q-1 4 -3 6.5
t-4 2.5t-4 -1.5t-5 -4.5zM127 147q0 -43 29 -66.5t84 -23.5q67 0 111.5 32t55.5 81q3 11 4 22.5t1 22.5v11q0 16 -6.5 23t-20.5 7h-8q-25 0 -62 -4t-79 -11q-55 -10 -82 -33t-27 -61zM394 657q-20 -17 -47 -26t-60 -9q-63 0 -102 33.5t-39 88.5q0 14 3.5 23t11.5 14
q5 3 11.5 4.5t13.5 1.5q14 0 21 -7t10 -24q6 -40 24.5 -56.5t54.5 -16.5q35 0 54.5 15t26.5 48q4 20 11 27.5t20 7.5q14 0 20 -7t6 -23q0 -29 -10 -52.5t-30 -41.5z" />
    <glyph glyph-name="Aogonek" unicode="&#x104;" horiz-adv-x="830" 
d="M300 365q-6 -17 -1 -25t22 -9q14 -1 31.5 -1h57.5h57.5t35.5 1q14 1 18.5 8t0.5 21q-25 79 -50 151.5t-45 126.5q-2 7 -6 10t-10 3q-7 0 -11 -3t-6 -10q-14 -38 -32.5 -90.5t-61.5 -182.5zM97 2q-19 -1 -27 -1.5t-15 -0.5q-20 0 -30 9t-10 26t11 27t29 10q5 0 10 -0.5
l15 -1.5q8 -1 11.5 -1.5t6.5 -0.5q10 0 16.5 6t11.5 19q42 115 57 156.5t32 89.5q11 33 24 70t37 105q19 56 28 81t15 43q20 57 38.5 73t58.5 16q39 0 57.5 -15t38.5 -72q17 -48 52 -152t47 -140q27 -80 52.5 -151t41.5 -111q3 -8 10.5 -12.5t17.5 -4.5h6.5h11.5
q10 1 15.5 1h10.5q19 0 28.5 -8.5t9.5 -25.5t-8.5 -26.5t-24.5 -9.5h-12t-17 1h-17.5h-10.5q-35 0 -69 -25t-34 -58q0 -16 9.5 -26t23.5 -10q13 0 23 7t17 20q6 13 11 17t12 4q8 0 13 -6.5t5 -18.5q0 -36 -25.5 -60.5t-62.5 -24.5q-42 0 -67 22.5t-25 60.5q0 31 19 54.5
t55 38.5q4 2 3 5t-5 3q-8 0 -18.5 -0.5l-31.5 -1.5q-23 -1 -35 -1.5t-22 -0.5q-19 0 -28.5 9t-9.5 26q0 15 10.5 25.5t27.5 10.5h15.5t22.5 -1q10 -1 15 -1h9q17 0 22.5 10t-0.5 30q-7 26 -23.5 74t-20.5 61q-3 9 -9.5 13t-20.5 5q-12 1 -36 1h-85h-23h-34q-24 -1 -37.5 -1
h-26.5q-14 0 -19.5 -4t-11.5 -19q-13 -37 -24 -71.5t-20 -64.5q-6 -19 0 -27t26 -8h11t18 1q14 1 22 1h15q16 0 25 -9.5t9 -25.5q0 -17 -8.5 -26t-25.5 -9q-6 0 -14.5 0.5t-27.5 0.5q-32 2 -52 2.5t-40 0.5q-16 0 -32 -0.5t-43 -1.5z" />
    <glyph glyph-name="aogonek" unicode="&#x105;" horiz-adv-x="610" 
d="M397 63q-28 -35 -73.5 -54t-101.5 -19q-86 0 -132.5 39t-46.5 111q0 66 42 105.5t129 54.5q22 4 45 7t61 6q20 2 29 3t15 2q30 4 39 14.5t9 40.5v11q0 51 -33.5 80.5t-92.5 29.5q-63 0 -98 -24t-45 -74q-4 -20 -17 -31.5t-32 -11.5q-20 0 -32 14t-9 34q10 71 73 114.5
t159 43.5q100 0 152 -45t52 -129v-263q0 -26 11.5 -40.5t31.5 -14.5q4 0 8.5 1t12.5 4t12.5 4t9.5 1q11 0 18 -8.5t7 -20.5q0 -9 -4.5 -17.5t-12.5 -14.5q-6 -4 -14 -8t-18 -7q-38 -13 -59 -34.5t-21 -48.5q0 -16 9 -26t24 -10q12 0 22 7t17 20q6 11 11 15.5t12 4.5
q9 0 14 -6.5t5 -18.5q0 -36 -26 -60.5t-63 -24.5q-42 0 -67.5 22.5t-25.5 60.5q0 28 17 51t50 40q4 2 4 5t-5 4q-13 3 -22.5 8.5t-17.5 15.5q-6 7 -9.5 15t-6.5 19q-1 4 -3 6.5t-4 2.5t-4 -1.5t-5 -4.5zM127 147q0 -43 29 -66.5t84 -23.5q67 0 111.5 32t55.5 81q3 11 4 22.5
t1 22.5v11q0 16 -6.5 23t-20.5 7h-8q-25 0 -62 -4t-79 -11q-56 -10 -82.5 -33t-26.5 -61z" />
    <glyph glyph-name="Cacute" unicode="&#x106;" horiz-adv-x="728" 
d="M50 0zM663 151q-40 -79 -109.5 -120t-166.5 -41q-155 0 -246 97t-91 265q0 176 91.5 275.5t247.5 99.5q44 0 81.5 -9.5t74.5 -30.5q4 -2 15.5 -8.5t16.5 -6.5q8 0 11 6.5t3 21.5q0 19 10 30t27 11q18 0 27.5 -11t8.5 -31q-3 -69 -3.5 -85t-0.5 -32q-1 -45 -0.5 -78
t2.5 -58q1 -17 -9 -28.5t-26 -11.5q-17 0 -28 11t-11 28q0 62 -20 107.5t-59 71.5q-23 16 -55 25t-65 9q-117 0 -184.5 -77.5t-67.5 -216.5q0 -136 68.5 -214.5t184.5 -78.5q80 0 128.5 26t86.5 88q5 9 13 14t17 5q14 0 23.5 -9t9.5 -23q0 -6 -1 -11t-4 -10zM525 895
q-30 -19 -100 -56t-89 -44q-11 -4 -22.5 1t-16.5 15t-2 20.5t13 18.5q23 17 85 57.5t89 56.5q15 9 30 6.5t24 -15.5q10 -17 7.5 -34t-18.5 -26z" />
    <glyph glyph-name="cacute" unicode="&#x107;" horiz-adv-x="591" 
d="M50 0zM523 116q-23 -56 -80 -91t-133 -35q-121 0 -190.5 74t-69.5 204q0 134 69 212.5t182 78.5q36 0 68 -8t53 -23q9 -6 14 -8t10 -2t8 4t3 11q0 22 9 33t27 11q16 0 24.5 -9.5t8.5 -26.5v-8.5t-1 -15.5q-1 -21 -1.5 -34.5t-0.5 -26.5q0 -32 0.5 -59.5t1.5 -49.5
q1 -16 -9 -26t-24 -10q-17 0 -27 9.5t-10 25.5q-1 65 -42 104.5t-106 39.5q-81 0 -125.5 -54t-44.5 -154q0 -103 47.5 -160.5t131.5 -57.5q54 0 89 21t63 71q5 10 14 15t19 5q13 0 21.5 -8.5t8.5 -21.5q0 -6 -2 -13.5t-6 -16.5zM453 759q-27 -24 -89.5 -72.5t-79.5 -58.5
q-11 -6 -22.5 -3t-18.5 12q-6 10 -5 20.5t9 19.5q20 21 74 72t77 71q13 12 29 12t26 -12q13 -15 13 -32t-13 -29z" />
    <glyph glyph-name="Ccircumflex" unicode="&#x108;" horiz-adv-x="728" 
d="M50 0zM663 151q-40 -79 -109.5 -120t-166.5 -41q-155 0 -246 97t-91 265q0 176 91.5 275.5t247.5 99.5q44 0 81.5 -9.5t74.5 -30.5q4 -2 15.5 -8.5t16.5 -6.5q8 0 11 6.5t3 21.5q0 19 10 30t27 11q18 0 27.5 -11t8.5 -31q-3 -69 -3.5 -85t-0.5 -32q-1 -45 -0.5 -78
t2.5 -58q1 -17 -9 -28.5t-26 -11.5q-17 0 -28 11t-11 28q0 62 -20 107.5t-59 71.5q-23 16 -55 25t-65 9q-117 0 -184.5 -77.5t-67.5 -216.5q0 -136 68.5 -214.5t184.5 -78.5q80 0 128.5 26t86.5 88q5 9 13 14t17 5q14 0 23.5 -9t9.5 -23q0 -6 -1 -11t-4 -10zM289 819
q-19 -16 -25.5 -21t-9.5 -7q-10 -6 -21.5 -3t-18.5 12q-8 10 -7 21.5t11 21.5q3 3 9 8.5t22 18.5q16 14 24.5 21t16.5 14q17 15 34.5 29.5t29.5 23.5q10 7 16.5 10t14.5 3q7 0 14 -3t14 -9q2 -1 4 -3.5t9 -7.5q17 -15 28.5 -25t21.5 -19q6 -5 13 -11.5t21 -18.5
q19 -17 26.5 -23.5t11.5 -10.5q8 -9 8.5 -18.5t-6.5 -19.5q-8 -10 -19.5 -12.5t-22.5 3.5q-12 6 -57.5 43.5t-56.5 46.5q-5 4 -7.5 5.5t-4.5 1.5q-3 0 -5 -1t-7 -5q-17 -13 -34.5 -27t-46.5 -38z" />
    <glyph glyph-name="ccircumflex" unicode="&#x109;" horiz-adv-x="591" 
d="M50 0zM523 116q-23 -56 -80 -91t-133 -35q-121 0 -190.5 74t-69.5 204q0 134 69 212.5t182 78.5q36 0 68 -8t53 -23q9 -6 14 -8t10 -2t8 4t3 11q0 22 9 33t27 11q16 0 24.5 -9.5t8.5 -26.5v-8.5t-1 -15.5q-1 -21 -1.5 -34.5t-0.5 -26.5q0 -32 0.5 -59.5t1.5 -49.5
q1 -16 -9 -26t-24 -10q-17 0 -27 9.5t-10 25.5q-1 65 -42 104.5t-106 39.5q-81 0 -125.5 -54t-44.5 -154q0 -103 47.5 -160.5t131.5 -57.5q54 0 89 21t63 71q5 10 14 15t19 5q13 0 21.5 -8.5t8.5 -21.5q0 -6 -2 -13.5t-6 -16.5zM215 658q-21 -18 -28.5 -24t-10.5 -8
q-10 -6 -21.5 -3t-18.5 12q-8 10 -7 22t11 22q4 4 10 9.5t23 20.5q15 13 23.5 20t15.5 14q19 17 37 32.5t27 22.5q10 7 16.5 10t14.5 3q7 0 14 -3t14 -9q29 -26 40.5 -36.5t22.5 -20.5q6 -6 13.5 -12.5t21.5 -19.5q19 -16 26 -23l11 -11q8 -9 8.5 -19t-6.5 -20
q-8 -10 -19.5 -12.5t-22.5 3.5q-12 7 -63 50l-51 43q-5 4 -7.5 5.5t-4.5 1.5q-3 0 -5 -1t-7 -5q-16 -12 -32.5 -26t-44.5 -38z" />
    </font>
</defs>
</svg>
